<svg width="528" height="83" viewBox="0 0 528 83" fill="none" xmlns="http://www.w3.org/2000/svg">
<g clip-path="url(#clip0_10654_312)">
<path d="M113.817 0.243323C116.076 0.0158695 118.387 -0.0317371 120.635 0.354406C124.634 1.44407 128.538 3.44355 131.289 6.61732C132.537 7.87625 134.145 8.70673 135.372 9.98682C140.323 14.7263 142.635 21.4653 144.037 28.0086C144.761 32.8962 145.364 37.8737 144.846 42.8142C144.296 50.8174 142.291 58.9793 137.604 65.6178C133.923 70.7699 128.067 74.753 121.566 74.79C115.605 74.8271 110.146 71.4576 106.507 66.9032C101.836 61.402 100.535 53.9912 99.9898 47.0195C99.4238 43.5178 99.5984 39.9684 99.2599 36.4508C99.2651 30.0133 98.8473 23.5336 99.7359 17.1331C100.545 12.3248 102.576 7.52714 106.232 4.19467C108.411 2.33273 110.982 0.819893 113.817 0.243323ZM117.139 16.3926C116.901 16.9056 116.694 17.4293 116.515 17.9636C115.473 22.9781 115.182 28.1567 115.927 33.2347C116.023 39.6881 116.081 46.2102 117.588 52.5207C118.154 54.5995 119.149 56.562 120.672 58.1013C122.645 58.2176 123.693 56.3187 124.671 54.9275C127.422 50.1615 128.501 44.5545 128.284 39.0903C128.496 33.7002 127.131 28.3683 125.047 23.433C124.449 21.5552 122.217 21.3331 120.842 20.2275C119.281 19.2595 118.895 17.0908 117.139 16.3926Z" fill="#FF9839"/>
<path d="M64.9513 0.243323C67.21 0.0158695 69.5216 -0.0317371 71.7697 0.354406C75.7686 1.44407 79.6724 3.44355 82.423 6.61732C83.6713 7.87625 85.2794 8.70673 86.5065 9.98682C91.4576 14.7263 93.7692 21.4653 95.171 28.0086C95.8956 32.8962 96.4987 37.8737 95.9803 42.8142C95.4302 50.8174 93.4254 58.9793 88.7388 65.6178C85.0572 70.7699 79.2016 74.753 72.7006 74.79C66.7392 74.8271 61.2803 71.4576 57.6411 66.9032C52.9703 61.402 51.6691 53.9912 51.1242 47.0195C50.5583 43.5178 50.7328 39.9684 50.3943 36.4508C50.3996 30.0133 49.9817 23.5336 50.8703 17.1331C51.6797 12.3248 53.7109 7.52714 57.366 4.19467C59.5453 2.33273 62.1161 0.819893 64.9513 0.243323ZM68.2732 16.3926C68.0352 16.9056 67.8289 17.4293 67.649 17.9636C66.607 22.9781 66.316 28.1567 67.0619 33.2347C67.1571 39.6881 67.2153 46.2102 68.7228 52.5207C69.2888 54.5995 70.2833 56.562 71.8067 58.1013C73.7797 58.2176 74.8271 56.3187 75.8056 54.9275C78.5562 50.1615 79.6353 44.5545 79.4185 39.0903C79.63 33.7002 78.2653 28.3683 76.1812 23.433C75.5835 21.5552 73.3513 21.3331 71.976 20.2275C70.4155 19.2595 70.0294 17.0908 68.2732 16.3926Z" fill="#FF9839"/>
<path d="M162.55 0.31208C169.083 -0.888666 176.039 1.77202 180.36 6.75485C182.169 8.29942 184.312 9.479 185.777 11.415C191.5 18.4026 193.51 27.6277 193.902 36.4614C194.156 45.9192 192.722 55.7844 187.718 63.9727C184.613 69.0138 179.72 73.2666 173.801 74.4462C168.972 75.4936 163.836 74.0072 159.9 71.1349C154.261 67.083 150.786 60.4869 149.882 53.6738C148.728 47.9928 148.739 42.1795 148.242 36.4297C148.321 28.5746 147.358 20.4708 149.866 12.8697C151.543 6.8818 156.425 1.74557 162.55 0.31208ZM164.608 28.0086C165.1 36.673 164.629 45.5384 167.057 53.9595C167.803 55.5252 168.591 58.2441 170.739 58.0113C173.045 56.6149 174.251 54.06 175.282 51.6797C177.504 45.4855 177.996 38.6619 176.679 32.2085C176.028 28.7861 175.24 25.2527 173.293 22.3116C172.013 21.2431 170.268 20.8411 169.131 19.5822C168.168 18.5454 167.39 17.3553 166.496 16.2709C164.343 19.7303 164.74 24.0942 164.608 28.0086Z" fill="#FF9839"/>
<path d="M231.802 0.259203C233.928 0.0158803 236.097 0.00530103 238.224 0.269782C240.953 0.8728 243.534 2.07883 245.872 3.59696C247.941 4.86118 249.321 6.94 251.326 8.28357C257.806 12.9596 260.593 20.9681 262.122 28.4952C262.794 33.5786 263.519 38.7412 262.746 43.8563C262.016 52.4996 259.567 61.4549 253.632 68.0193C249.533 72.6848 243.132 75.6152 236.891 74.5573C228.962 73.1873 222.73 66.5858 220.212 59.1698C218.224 53.0444 217.726 46.554 217.589 40.1536C216.78 34.7264 217.271 29.2252 217.123 23.761C217.525 18.8152 217.827 13.6367 220.371 9.2357C222.619 4.76596 226.904 1.333 231.802 0.259203ZM235.399 16.5089L235.113 16.5565C233.415 20.8094 233.489 25.5648 233.627 30.0768C234.262 34.6418 233.569 39.2808 234.373 43.8246C234.817 48.3736 234.928 53.3723 237.811 57.165C238.314 58.1647 239.731 58.3499 240.482 57.5247C244.116 54.2451 245.227 49.183 246.079 44.5651C246.444 41.3384 246.274 38.0695 246.19 34.8322C245.587 30.9179 244.608 27.03 243.074 23.3696C242.376 21.5552 240.207 21.3066 238.816 20.2381C237.367 19.2913 236.922 17.35 235.399 16.5089Z" fill="#FF9839"/>
<path d="M280.482 0.333251C282.762 -0.0423123 285.121 -0.0158642 287.412 0.301513C290.147 0.957427 292.707 2.22694 295.082 3.71861C296.912 4.85588 298.018 6.82362 299.864 7.95031C302.757 9.7911 304.979 12.5153 306.576 15.5304C311.099 23.4278 312.194 32.7957 311.861 41.7563C311.527 49.7384 309.66 57.8474 305.296 64.6287C302.249 69.2888 297.621 73.2032 292.077 74.3775C287.052 75.5676 281.651 74.0125 277.61 70.918C273.495 67.8924 270.628 63.4015 268.978 58.6144C267.47 52.7535 266.687 46.7127 266.587 40.6667C265.978 35.0438 266.253 29.3786 266.185 23.7346C266.327 17.4135 267.475 10.6322 271.76 5.70751C274.05 3.12617 277.102 1.13198 280.482 0.333251ZM283.683 17.5404C281.831 24.0414 282.741 30.8703 283.011 37.514C283 41.7828 283.424 46.0462 284.143 50.2462C284.63 52.8381 285.259 55.6416 287.206 57.5617C287.719 58.2229 288.74 58.2335 289.337 57.6781C291.416 55.9114 292.606 53.3565 293.606 50.8756C296.489 41.513 295.844 30.9761 291.4 22.2059C288.893 21.1374 286.539 19.5981 285.217 17.1331C284.794 16.1545 283.725 16.6623 283.683 17.5404Z" fill="#FF9839"/>
<path d="M329.681 0.317372C336.389 -1.00503 343.27 2.05766 347.714 7.0352C353.469 10.6903 357.018 16.8792 358.838 23.3114C362.101 34.573 361.631 46.8396 357.737 57.8844C355.622 63.2005 352.421 68.3102 347.581 71.5316C343.783 74.1976 338.885 75.3613 334.315 74.4515C327.38 72.9968 321.705 67.5803 319.012 61.1481C316.515 55.5728 316.214 49.3681 315.632 43.3749C315.32 37.0221 314.981 30.664 315.114 24.3005C315.394 18.7306 315.912 12.8644 319.049 8.07197C321.303 4.17351 325.296 1.30124 329.681 0.317372ZM331.686 23.7451C331.12 26.9136 331.797 30.0821 331.85 33.2506C331.876 38.5614 332.088 43.8827 332.929 49.1353C333.294 52.0605 334.082 55.0968 336.013 57.403C336.764 58.4927 338.314 58.0378 338.991 57.1068C342.72 52.9333 343.815 47.157 344.365 41.7563C344.746 35.6151 343.53 29.3839 341.149 23.7293C340.493 21.5552 338.002 21.259 336.489 19.9366C335.373 18.8628 334.553 17.5351 333.606 16.3185C331.654 18.2545 332.13 21.2537 331.686 23.7451Z" fill="#FF9839"/>
<path d="M398.457 0.317366C405.17 -0.994462 412.215 1.87781 416.632 6.97172C418.573 8.50571 420.71 9.85456 422.202 11.8858C426.138 17.0908 428.386 23.4489 429.327 29.8652C429.608 34.2397 430.618 38.6196 429.782 42.9941C429.444 49.7119 427.793 56.4033 424.662 62.37C421.731 67.7654 416.997 72.5102 410.935 74.1341C405.423 75.8321 399.33 73.9966 394.966 70.4314C390.956 67.0725 387.867 62.4916 386.682 57.366C385.244 51.923 384.762 46.2895 384.582 40.6772C383.937 35.7684 384.228 30.8015 384.159 25.861C384.043 19.926 384.794 13.7742 387.724 8.51629C390.062 4.55436 393.95 1.39645 398.457 0.317366ZM400.642 30.1403C401.171 35.705 400.737 41.3173 401.652 46.8502C402.213 50.6217 402.488 55.0015 405.429 57.7892C406.862 58.7096 408.1 57.0222 408.915 56.0224C413.009 50.225 413.633 42.7878 413.268 35.9007C412.697 31.1982 411.771 26.3794 409.311 22.264C408.137 21.4071 406.73 20.9416 405.587 20.0371C404.254 19.0268 403.747 17.2971 402.382 16.3132C400.176 20.529 400.636 25.533 400.642 30.1403Z" fill="#FF9839"/>
<path d="M447.598 0.285632C454.019 -0.841059 460.875 1.70325 465.159 6.575C466.894 8.19891 469.084 9.30445 470.597 11.1823C476.347 18.0641 478.367 27.1728 478.96 35.9166C479.283 43.211 478.225 50.5794 475.881 57.4929C473.818 62.7032 470.846 67.8553 466.154 71.119C462.128 74.1606 456.743 75.5835 451.792 74.314C443.567 72.4044 437.569 64.9725 435.511 57.038C433.199 46.8291 433.347 36.2921 433.131 25.8874C433.263 20.0371 433.633 13.8641 436.659 8.69085C438.933 4.54378 443.006 1.41232 447.598 0.285632ZM451.015 16.5565C449.444 21.2326 449.375 26.263 449.735 31.1294C449.967 35.213 449.677 39.3178 450.29 43.3749C450.856 48.0351 450.761 53.1925 453.755 57.1015C454.273 58.0113 455.585 58.4398 456.389 57.6199C459.224 55.0809 460.642 51.357 461.404 47.7124C463.451 39.614 462.287 30.9073 458.949 23.3167C458.055 21.1532 455.209 21.2114 453.908 19.4129C452.967 18.4238 452.581 16.6993 451.015 16.5565Z" fill="#FF9839"/>
<path d="M496.775 0.269787C501.605 -0.560685 506.556 0.698247 510.581 3.44356C512.877 4.61257 514.178 6.96116 516.352 8.28886C522.033 12.4253 524.874 19.2648 526.53 25.8769C528.391 34.0176 528.513 42.5656 526.757 50.7381C525.249 57.6993 522.441 64.7609 517.013 69.6009C513.417 73.0074 508.455 75.0069 503.483 74.7424C496.844 74.314 491.11 69.9183 487.709 64.3854C485.006 60.3335 484.086 55.4565 483.313 50.7328C482.515 43.3485 482.012 35.9325 482.139 28.5005C482.044 22.1054 482.197 15.3717 485.175 9.55308C487.418 4.96168 491.761 1.35945 496.775 0.269787ZM500.113 16.5671C498.939 18.5983 499.034 20.9945 498.669 23.2426C498.235 26.7708 498.611 30.3202 498.918 33.8378C498.849 39.6669 499.172 45.5173 500.298 51.2459C500.827 53.7003 501.637 56.3345 503.668 57.969C505.355 58.4081 506.413 56.6837 507.27 55.5305C511.285 49.2359 511.713 41.4442 511.063 34.2027C510.444 30.262 509.418 26.3424 507.656 22.7507C507.397 21.7827 506.413 21.9097 505.641 21.8144C506.127 21.7086 506.619 21.6029 507.122 21.4971C504.25 21.4389 502.245 18.9686 500.975 16.6518C500.758 16.6306 500.33 16.5883 500.113 16.5671Z" fill="#FF9839"/>
<path d="M11.7377 2.3962C16.1334 0.243319 22.4333 2.81937 23.2691 7.8498C24.3111 13.2558 23.8562 18.8099 24.3799 24.2741C24.7131 27.432 24.4486 30.6269 24.8983 33.7743C25.295 36.9216 24.9247 40.1059 25.3638 43.2533C25.7182 46.0938 25.3585 48.9767 25.7605 51.8172C26.3 55.1338 25.8557 58.5086 26.2947 61.8357C26.628 64.3166 26.7073 67.0619 25.2633 69.2412C23.6235 71.6163 20.8358 73.3248 17.8842 73.1555C14.3243 73.2243 11.1188 70.442 10.2196 67.083C9.34147 64.3589 9.8916 61.4708 9.51603 58.6831C9.00823 55.1867 9.48429 51.6373 8.93946 48.1462C8.60622 45.9616 8.79664 43.7505 8.68556 41.5553C8.16718 35.7261 8.14602 29.8652 7.8498 24.0149C4.47502 23.4754 1.169 21.3912 0.216868 17.9477C-0.0952205 15.7208 -0.264489 13.1923 1.14255 11.2775C2.0365 9.67472 3.59694 8.63796 5.20499 7.8498C7.89741 6.66493 8.97649 3.48586 11.7377 2.3962Z" fill="#FF9839"/>
<path d="M32.2826 56.1547C34.9062 53.933 38.7783 53.5892 41.9362 54.7265C45.4379 55.9695 47.3157 59.8574 47.3157 63.3909C46.8502 68.6382 45.6812 74.1024 42.3382 78.3235C41.1374 79.8046 39.9473 81.5237 38.043 82.1267C37.1014 82.2008 36.2921 81.6084 35.4352 81.3174C35.4775 78.3182 37.3977 75.7316 37.2125 72.6848C35.0279 71.8913 32.5524 71.2089 31.2194 69.1354C28.2625 65.3269 28.7967 59.4448 32.2826 56.1547Z" fill="#FF9839"/>
<path d="M201.36 54.8376C204.359 53.7109 208.078 53.7796 210.765 55.6839C212.744 57.329 213.981 59.8045 214.293 62.3488C214.172 69.2835 211.955 76.5938 206.613 81.3174C205.354 82.4811 203.354 82.1955 202.291 80.926C202.053 79.5454 203.026 78.3711 203.444 77.128C204.127 75.6787 203.957 74.0495 203.973 72.4996C201.947 71.9707 199.81 71.2513 198.525 69.4792C194.706 65.1629 195.97 57.2549 201.36 54.8376Z" fill="#FF9839"/>
<path d="M368.073 54.9857C371.258 53.5522 375.373 53.7691 378.15 56.0066C380.097 57.7627 380.985 60.3758 381.329 62.9095C380.932 68.506 379.668 74.351 375.971 78.7572C374.786 80.0532 373.696 81.767 371.84 82.1056C370.835 82.2749 370.046 81.5026 369.221 81.0794C369.697 78.2389 371.337 75.6787 371.125 72.7006C368.433 71.8067 365.476 70.5636 364.355 67.7231C362.096 63.375 363.508 57.202 368.073 54.9857Z" fill="#FF9839"/>
</g>
<defs>
<clipPath id="clip0_10654_312">
<rect width="528" height="82.132" fill="white"/>
</clipPath>
</defs>
</svg>
