<svg width="526" height="78" viewBox="0 0 526 78" fill="none" xmlns="http://www.w3.org/2000/svg">
<path d="M24.288 66.137C24.288 67.487 23.883 68.675 23.073 69.701C22.263 70.781 21.237 71.294 19.995 71.24C19.131 71.186 17.025 70.052 13.677 67.838C10.329 65.57 8.628 64.004 8.574 63.14C8.574 62.762 8.655 62.276 8.817 61.682C8.979 61.034 9.06 60.548 9.06 60.224V26.204C9.06 24.962 7.845 24.071 5.415 23.531C2.715 22.883 1.176 21.992 0.798001 20.858C0.582001 20.264 0.474001 19.697 0.474001 19.157C0.474001 17.969 1.068 16.565 2.256 14.945C3.876 12.731 4.848 11.3 5.172 10.652C5.82 8.546 6.468 6.44 7.116 4.334C8.034 1.958 9.627 0.769997 11.895 0.769997C14.217 0.769997 16.539 1.472 18.861 2.876C21.453 4.442 22.749 6.224 22.749 8.222V61.925C22.749 62.465 22.992 63.167 23.478 64.031C24.018 64.841 24.288 65.543 24.288 66.137ZM48.7861 60.386C49.2721 61.25 49.5151 62.33 49.5151 63.626C49.5151 66.704 48.3541 69.728 46.0321 72.698C43.4401 75.992 40.3621 77.693 36.7981 77.801C35.0701 77.855 33.3961 77.504 31.7761 76.748C29.7781 75.83 28.7791 74.588 28.7791 73.022C28.7791 71.456 29.1841 70.862 29.9941 71.24C30.2641 71.348 30.5611 71.402 30.8851 71.402C32.4511 71.402 34.0981 70.673 35.8261 69.215C37.7701 67.649 38.7421 65.867 38.7421 63.869C38.7421 63.491 38.6341 62.978 38.4181 62.33C38.2561 61.682 38.1751 61.169 38.1751 60.791C38.1751 59.063 38.8231 57.956 40.1191 57.47C40.8211 57.2 42.3331 57.443 44.6551 58.199C46.9771 58.955 48.3541 59.684 48.7861 60.386ZM84.6165 4.496C87.2625 5.09 89.3685 7.898 90.9345 12.92C92.3385 17.618 93.0406 23.45 93.0406 30.416C93.0406 38.516 91.9336 46.508 89.7195 54.392C86.5335 65.678 81.8895 71.321 75.7875 71.321C74.8155 71.321 73.6275 71.078 72.2235 70.592C69.9555 69.728 68.7135 69.269 68.4975 69.215C67.0395 68.621 64.6365 67.73 61.2885 66.542C58.5885 65.624 56.3745 61.79 54.6465 55.04C53.0265 48.722 52.2165 41.513 52.2165 33.413C52.2165 25.367 53.0535 18.509 54.7275 12.839C56.5635 6.467 59.2365 2.66 62.7465 1.418C62.9625 1.364 63.1785 1.337 63.3945 1.337C63.7725 1.337 64.2315 1.499 64.7715 1.823C65.3115 2.147 65.7165 2.255 65.9865 2.147C67.5525 1.607 69.1725 1.337 70.8465 1.337C72.7365 1.337 75.0585 1.742 77.8125 2.552C81.8625 3.74 84.1305 4.388 84.6165 4.496ZM74.4105 9.68C71.8185 9.68 69.7935 12.596 68.3355 18.428C67.2015 23.18 66.6345 28.661 66.6345 34.871C66.6345 39.839 67.2015 45.185 68.3355 50.909C69.4695 56.633 70.5765 59.495 71.6565 59.495C73.7625 59.495 75.4905 56.201 76.8405 49.613C77.9745 43.781 78.5415 37.031 78.5415 29.363C78.5415 23.747 78.2175 19.157 77.5695 15.593C76.8135 11.651 75.7605 9.68 74.4105 9.68ZM137.298 4.496C139.944 5.09 142.05 7.898 143.616 12.92C145.02 17.618 145.722 23.45 145.722 30.416C145.722 38.516 144.615 46.508 142.401 54.392C139.215 65.678 134.571 71.321 128.469 71.321C127.497 71.321 126.309 71.078 124.905 70.592C122.637 69.728 121.395 69.269 121.179 69.215C119.721 68.621 117.318 67.73 113.97 66.542C111.27 65.624 109.056 61.79 107.328 55.04C105.708 48.722 104.898 41.513 104.898 33.413C104.898 25.367 105.735 18.509 107.409 12.839C109.245 6.467 111.918 2.66 115.428 1.418C115.644 1.364 115.86 1.337 116.076 1.337C116.454 1.337 116.913 1.499 117.453 1.823C117.993 2.147 118.398 2.255 118.668 2.147C120.234 1.607 121.854 1.337 123.528 1.337C125.418 1.337 127.74 1.742 130.494 2.552C134.544 3.74 136.812 4.388 137.298 4.496ZM127.092 9.68C124.5 9.68 122.475 12.596 121.017 18.428C119.883 23.18 119.316 28.661 119.316 34.871C119.316 39.839 119.883 45.185 121.017 50.909C122.151 56.633 123.258 59.495 124.338 59.495C126.444 59.495 128.172 56.201 129.522 49.613C130.656 43.781 131.223 37.031 131.223 29.363C131.223 23.747 130.899 19.157 130.251 15.593C129.495 11.651 128.442 9.68 127.092 9.68ZM189.98 4.496C192.626 5.09 194.732 7.898 196.298 12.92C197.702 17.618 198.404 23.45 198.404 30.416C198.404 38.516 197.297 46.508 195.083 54.392C191.897 65.678 187.253 71.321 181.151 71.321C180.179 71.321 178.991 71.078 177.587 70.592C175.319 69.728 174.077 69.269 173.861 69.215C172.403 68.621 170 67.73 166.652 66.542C163.952 65.624 161.738 61.79 160.01 55.04C158.39 48.722 157.58 41.513 157.58 33.413C157.58 25.367 158.417 18.509 160.091 12.839C161.927 6.467 164.6 2.66 168.11 1.418C168.326 1.364 168.542 1.337 168.758 1.337C169.136 1.337 169.595 1.499 170.135 1.823C170.675 2.147 171.08 2.255 171.35 2.147C172.916 1.607 174.536 1.337 176.21 1.337C178.1 1.337 180.422 1.742 183.176 2.552C187.226 3.74 189.494 4.388 189.98 4.496ZM179.774 9.68C177.182 9.68 175.157 12.596 173.699 18.428C172.565 23.18 171.998 28.661 171.998 34.871C171.998 39.839 172.565 45.185 173.699 50.909C174.833 56.633 175.94 59.495 177.02 59.495C179.126 59.495 180.854 56.201 182.204 49.613C183.338 43.781 183.905 37.031 183.905 29.363C183.905 23.747 183.581 19.157 182.933 15.593C182.177 11.651 181.124 9.68 179.774 9.68ZM212.131 60.386C212.617 61.25 212.86 62.33 212.86 63.626C212.86 66.704 211.699 69.728 209.377 72.698C206.785 75.992 203.707 77.693 200.143 77.801C198.415 77.855 196.741 77.504 195.121 76.748C193.123 75.83 192.124 74.588 192.124 73.022C192.124 71.456 192.529 70.862 193.339 71.24C193.609 71.348 193.906 71.402 194.23 71.402C195.796 71.402 197.443 70.673 199.171 69.215C201.115 67.649 202.087 65.867 202.087 63.869C202.087 63.491 201.979 62.978 201.763 62.33C201.601 61.682 201.52 61.169 201.52 60.791C201.52 59.063 202.168 57.956 203.464 57.47C204.166 57.2 205.678 57.443 208 58.199C210.322 58.955 211.699 59.684 212.131 60.386ZM247.961 4.496C250.607 5.09 252.713 7.898 254.279 12.92C255.683 17.618 256.385 23.45 256.385 30.416C256.385 38.516 255.278 46.508 253.064 54.392C249.878 65.678 245.234 71.321 239.132 71.321C238.16 71.321 236.972 71.078 235.568 70.592C233.3 69.728 232.058 69.269 231.842 69.215C230.384 68.621 227.981 67.73 224.633 66.542C221.933 65.624 219.719 61.79 217.991 55.04C216.371 48.722 215.561 41.513 215.561 33.413C215.561 25.367 216.398 18.509 218.072 12.839C219.908 6.467 222.581 2.66 226.091 1.418C226.307 1.364 226.523 1.337 226.739 1.337C227.117 1.337 227.576 1.499 228.116 1.823C228.656 2.147 229.061 2.255 229.331 2.147C230.897 1.607 232.517 1.337 234.191 1.337C236.081 1.337 238.403 1.742 241.157 2.552C245.207 3.74 247.475 4.388 247.961 4.496ZM237.755 9.68C235.163 9.68 233.138 12.596 231.68 18.428C230.546 23.18 229.979 28.661 229.979 34.871C229.979 39.839 230.546 45.185 231.68 50.909C232.814 56.633 233.921 59.495 235.001 59.495C237.107 59.495 238.835 56.201 240.185 49.613C241.319 43.781 241.886 37.031 241.886 29.363C241.886 23.747 241.562 19.157 240.914 15.593C240.158 11.651 239.105 9.68 237.755 9.68ZM300.643 4.496C303.289 5.09 305.395 7.898 306.961 12.92C308.365 17.618 309.067 23.45 309.067 30.416C309.067 38.516 307.96 46.508 305.746 54.392C302.56 65.678 297.916 71.321 291.814 71.321C290.842 71.321 289.654 71.078 288.25 70.592C285.982 69.728 284.74 69.269 284.524 69.215C283.066 68.621 280.663 67.73 277.315 66.542C274.615 65.624 272.401 61.79 270.673 55.04C269.053 48.722 268.243 41.513 268.243 33.413C268.243 25.367 269.08 18.509 270.754 12.839C272.59 6.467 275.263 2.66 278.773 1.418C278.989 1.364 279.205 1.337 279.421 1.337C279.799 1.337 280.258 1.499 280.798 1.823C281.338 2.147 281.743 2.255 282.013 2.147C283.579 1.607 285.199 1.337 286.873 1.337C288.763 1.337 291.085 1.742 293.839 2.552C297.889 3.74 300.157 4.388 300.643 4.496ZM290.437 9.68C287.845 9.68 285.82 12.596 284.362 18.428C283.228 23.18 282.661 28.661 282.661 34.871C282.661 39.839 283.228 45.185 284.362 50.909C285.496 56.633 286.603 59.495 287.683 59.495C289.789 59.495 291.517 56.201 292.867 49.613C294.001 43.781 294.568 37.031 294.568 29.363C294.568 23.747 294.244 19.157 293.596 15.593C292.84 11.651 291.787 9.68 290.437 9.68ZM353.325 4.496C355.971 5.09 358.077 7.898 359.643 12.92C361.047 17.618 361.749 23.45 361.749 30.416C361.749 38.516 360.642 46.508 358.428 54.392C355.242 65.678 350.598 71.321 344.496 71.321C343.524 71.321 342.336 71.078 340.932 70.592C338.664 69.728 337.422 69.269 337.206 69.215C335.748 68.621 333.345 67.73 329.997 66.542C327.297 65.624 325.083 61.79 323.355 55.04C321.735 48.722 320.925 41.513 320.925 33.413C320.925 25.367 321.762 18.509 323.436 12.839C325.272 6.467 327.945 2.66 331.455 1.418C331.671 1.364 331.887 1.337 332.103 1.337C332.481 1.337 332.94 1.499 333.48 1.823C334.02 2.147 334.425 2.255 334.695 2.147C336.261 1.607 337.881 1.337 339.555 1.337C341.445 1.337 343.767 1.742 346.521 2.552C350.571 3.74 352.839 4.388 353.325 4.496ZM343.119 9.68C340.527 9.68 338.502 12.596 337.044 18.428C335.91 23.18 335.343 28.661 335.343 34.871C335.343 39.839 335.91 45.185 337.044 50.909C338.178 56.633 339.285 59.495 340.365 59.495C342.471 59.495 344.199 56.201 345.549 49.613C346.683 43.781 347.25 37.031 347.25 29.363C347.25 23.747 346.926 19.157 346.278 15.593C345.522 11.651 344.469 9.68 343.119 9.68ZM375.476 60.386C375.962 61.25 376.205 62.33 376.205 63.626C376.205 66.704 375.044 69.728 372.722 72.698C370.13 75.992 367.052 77.693 363.488 77.801C361.76 77.855 360.086 77.504 358.466 76.748C356.468 75.83 355.469 74.588 355.469 73.022C355.469 71.456 355.874 70.862 356.684 71.24C356.954 71.348 357.251 71.402 357.575 71.402C359.141 71.402 360.788 70.673 362.516 69.215C364.46 67.649 365.432 65.867 365.432 63.869C365.432 63.491 365.324 62.978 365.108 62.33C364.946 61.682 364.865 61.169 364.865 60.791C364.865 59.063 365.513 57.956 366.809 57.47C367.511 57.2 369.023 57.443 371.345 58.199C373.667 58.955 375.044 59.684 375.476 60.386ZM411.306 4.496C413.952 5.09 416.058 7.898 417.624 12.92C419.028 17.618 419.73 23.45 419.73 30.416C419.73 38.516 418.623 46.508 416.409 54.392C413.223 65.678 408.579 71.321 402.477 71.321C401.505 71.321 400.317 71.078 398.913 70.592C396.645 69.728 395.403 69.269 395.187 69.215C393.729 68.621 391.326 67.73 387.978 66.542C385.278 65.624 383.064 61.79 381.336 55.04C379.716 48.722 378.906 41.513 378.906 33.413C378.906 25.367 379.743 18.509 381.417 12.839C383.253 6.467 385.926 2.66 389.436 1.418C389.652 1.364 389.868 1.337 390.084 1.337C390.462 1.337 390.921 1.499 391.461 1.823C392.001 2.147 392.406 2.255 392.676 2.147C394.242 1.607 395.862 1.337 397.536 1.337C399.426 1.337 401.748 1.742 404.502 2.552C408.552 3.74 410.82 4.388 411.306 4.496ZM401.1 9.68C398.508 9.68 396.483 12.596 395.025 18.428C393.891 23.18 393.324 28.661 393.324 34.871C393.324 39.839 393.891 45.185 395.025 50.909C396.159 56.633 397.266 59.495 398.346 59.495C400.452 59.495 402.18 56.201 403.53 49.613C404.664 43.781 405.231 37.031 405.231 29.363C405.231 23.747 404.907 19.157 404.259 15.593C403.503 11.651 402.45 9.68 401.1 9.68ZM463.988 4.496C466.634 5.09 468.74 7.898 470.306 12.92C471.71 17.618 472.412 23.45 472.412 30.416C472.412 38.516 471.305 46.508 469.091 54.392C465.905 65.678 461.261 71.321 455.159 71.321C454.187 71.321 452.999 71.078 451.595 70.592C449.327 69.728 448.085 69.269 447.869 69.215C446.411 68.621 444.008 67.73 440.66 66.542C437.96 65.624 435.746 61.79 434.018 55.04C432.398 48.722 431.588 41.513 431.588 33.413C431.588 25.367 432.425 18.509 434.099 12.839C435.935 6.467 438.608 2.66 442.118 1.418C442.334 1.364 442.55 1.337 442.766 1.337C443.144 1.337 443.603 1.499 444.143 1.823C444.683 2.147 445.088 2.255 445.358 2.147C446.924 1.607 448.544 1.337 450.218 1.337C452.108 1.337 454.43 1.742 457.184 2.552C461.234 3.74 463.502 4.388 463.988 4.496ZM453.782 9.68C451.19 9.68 449.165 12.596 447.707 18.428C446.573 23.18 446.006 28.661 446.006 34.871C446.006 39.839 446.573 45.185 447.707 50.909C448.841 56.633 449.948 59.495 451.028 59.495C453.134 59.495 454.862 56.201 456.212 49.613C457.346 43.781 457.913 37.031 457.913 29.363C457.913 23.747 457.589 19.157 456.941 15.593C456.185 11.651 455.132 9.68 453.782 9.68ZM516.669 4.496C519.315 5.09 521.421 7.898 522.987 12.92C524.391 17.618 525.093 23.45 525.093 30.416C525.093 38.516 523.986 46.508 521.772 54.392C518.586 65.678 513.942 71.321 507.84 71.321C506.868 71.321 505.68 71.078 504.276 70.592C502.008 69.728 500.766 69.269 500.55 69.215C499.092 68.621 496.689 67.73 493.341 66.542C490.641 65.624 488.427 61.79 486.699 55.04C485.079 48.722 484.269 41.513 484.269 33.413C484.269 25.367 485.106 18.509 486.78 12.839C488.616 6.467 491.289 2.66 494.799 1.418C495.015 1.364 495.231 1.337 495.447 1.337C495.825 1.337 496.284 1.499 496.824 1.823C497.364 2.147 497.769 2.255 498.039 2.147C499.605 1.607 501.225 1.337 502.899 1.337C504.789 1.337 507.111 1.742 509.865 2.552C513.915 3.74 516.183 4.388 516.669 4.496ZM506.463 9.68C503.871 9.68 501.846 12.596 500.388 18.428C499.254 23.18 498.687 28.661 498.687 34.871C498.687 39.839 499.254 45.185 500.388 50.909C501.522 56.633 502.629 59.495 503.709 59.495C505.815 59.495 507.543 56.201 508.893 49.613C510.027 43.781 510.594 37.031 510.594 29.363C510.594 23.747 510.27 19.157 509.622 15.593C508.866 11.651 507.813 9.68 506.463 9.68Z" fill="#FF9839"/>
</svg>
