<svg width="419" height="58" viewBox="0 0 419 58" fill="none" xmlns="http://www.w3.org/2000/svg">
<path d="M1.096 46.856C1.096 46.0453 1.096 44.7227 1.096 42.888C1.096 41.0107 1.096 38.856 1.096 36.424C1.096 33.9493 1.096 31.368 1.096 28.68C1.096 25.992 1.096 23.4107 1.096 20.936C1.096 18.4187 1.096 16.2 1.096 14.28C1.096 12.36 1.096 10.952 1.096 10.056C1.096 8.94667 1.032 7.66667 0.904001 6.216C0.818668 4.76533 0.669334 3.48533 0.456001 2.376H10.44C10.312 3.48533 10.184 4.72266 10.056 6.088C9.928 7.41066 9.864 8.73333 9.864 10.056C9.864 11.2507 9.864 12.872 9.864 14.92C9.864 16.968 9.864 19.2507 9.864 21.768C9.864 24.2427 9.864 26.7813 9.864 29.384C9.864 31.944 9.864 34.4187 9.864 36.808C9.864 39.1973 9.864 41.288 9.864 43.08C9.864 44.8293 9.864 46.088 9.864 46.856C9.864 47.4533 9.88534 48.3067 9.928 49.416C9.97067 50.4827 10.056 51.592 10.184 52.744C10.312 53.896 10.3973 54.92 10.44 55.816H0.456001C0.626668 54.536 0.776002 53.0427 0.904001 51.336C1.032 49.6293 1.096 48.136 1.096 46.856ZM7.944 18.952C10.0773 19.5067 12.4667 20.232 15.112 21.128C17.7573 21.9813 20.424 22.8987 23.112 23.88C25.8 24.8613 28.3173 25.8427 30.664 26.824C33.0533 27.7627 35.0373 28.6373 36.616 29.448L32.968 38.28C31.176 37.3413 29.192 36.4027 27.016 35.464C24.84 34.4827 22.6213 33.544 20.36 32.648C18.1413 31.752 15.944 30.92 13.768 30.152C11.6347 29.384 9.69333 28.7013 7.944 28.104V18.952ZM47.432 23.88H106.696V32.264H47.432V23.88ZM166.536 13.192C166.195 13.7893 165.832 14.5147 165.448 15.368C165.064 16.1787 164.723 16.9893 164.424 17.8C163.869 19.6773 163.08 21.832 162.056 24.264C161.075 26.6533 159.837 29.1493 158.344 31.752C156.893 34.312 155.208 36.7867 153.288 39.176C150.216 42.8453 146.632 46.1733 142.536 49.16C138.483 52.1467 133.448 54.8347 127.432 57.224L119.88 50.44C124.232 49.16 127.987 47.688 131.144 46.024C134.301 44.36 137.053 42.5893 139.4 40.712C141.747 38.792 143.837 36.7653 145.672 34.632C147.165 32.968 148.531 31.0907 149.768 29C151.005 26.8667 152.072 24.7547 152.968 22.664C153.864 20.5733 154.461 18.7387 154.76 17.16H133.192L136.136 9.928C136.733 9.928 137.651 9.928 138.888 9.928C140.168 9.928 141.597 9.928 143.176 9.928C144.797 9.928 146.376 9.928 147.912 9.928C149.491 9.928 150.856 9.928 152.008 9.928C153.203 9.928 154.013 9.928 154.44 9.928C155.421 9.928 156.403 9.864 157.384 9.736C158.408 9.608 159.283 9.416 160.008 9.16L166.536 13.192ZM145.672 3.08C144.904 4.18933 144.157 5.384 143.432 6.664C142.707 7.944 142.152 8.92533 141.768 9.608C140.317 12.168 138.525 14.8347 136.392 17.608C134.301 20.3387 131.912 23.0053 129.224 25.608C126.536 28.168 123.677 30.5147 120.648 32.648L113.416 27.336C116.232 25.5867 118.707 23.7947 120.84 21.96C123.016 20.1253 124.893 18.312 126.472 16.52C128.051 14.6853 129.395 12.936 130.504 11.272C131.656 9.56533 132.637 8.05066 133.448 6.728C133.96 5.91733 134.493 4.872 135.048 3.592C135.603 2.26933 136.029 1.07466 136.328 0.00799561L145.672 3.08ZM222.564 6.152C222.009 7.304 221.497 8.52 221.028 9.8C220.558 11.08 220.132 12.2533 219.748 13.32C218.852 15.752 217.785 18.376 216.548 21.192C215.353 24.008 214.009 26.7813 212.516 29.512C211.065 32.2 209.465 34.632 207.716 36.808C205.924 39.0693 203.748 41.3947 201.188 43.784C198.67 46.1307 195.897 48.328 192.868 50.376C189.881 52.3813 186.745 54.0453 183.46 55.368L176.164 47.88C179.492 46.728 182.649 45.2987 185.635 43.592C188.622 41.8853 191.374 39.9653 193.892 37.832C196.409 35.6987 198.606 33.5013 200.484 31.24C202.532 28.7653 204.345 25.9707 205.924 22.856C207.545 19.6987 208.91 16.456 210.02 13.128C211.172 9.8 212.025 6.62133 212.58 3.592L222.564 6.152ZM251.428 2.888C253.092 3.10133 255.097 3.42133 257.444 3.848C259.833 4.232 262.35 4.68 264.996 5.192C267.684 5.704 270.35 6.28 272.996 6.92C275.684 7.51733 278.158 8.11466 280.42 8.712C282.724 9.30933 284.686 9.88533 286.308 10.44L283.044 18.44C281.55 17.8853 279.694 17.3093 277.476 16.712C275.257 16.072 272.846 15.432 270.244 14.792C267.641 14.152 265.017 13.5547 262.372 13C259.726 12.4453 257.188 11.9333 254.756 11.464C252.366 10.9947 250.254 10.6533 248.42 10.44L251.428 2.888ZM248.484 20.104C250.788 20.488 253.433 20.9787 256.42 21.576C259.406 22.1733 262.478 22.8347 265.636 23.56C268.793 24.2427 271.801 24.968 274.66 25.736C277.518 26.4613 279.95 27.1867 281.956 27.912L278.82 35.912C276.985 35.1867 274.66 34.44 271.844 33.672C269.07 32.904 266.105 32.136 262.948 31.368C259.833 30.6 256.74 29.9173 253.668 29.32C250.596 28.68 247.886 28.1893 245.54 27.848L248.484 20.104ZM245.22 38.408C247.396 38.7493 249.87 39.1973 252.644 39.752C255.417 40.3067 258.297 40.9253 261.284 41.608C264.313 42.2907 267.278 42.9947 270.18 43.72C273.081 44.4453 275.769 45.1707 278.244 45.896C280.761 46.6213 282.894 47.3253 284.644 48.008L281.124 56.008C279.417 55.2827 277.305 54.536 274.788 53.768C272.27 53.0427 269.54 52.3173 266.596 51.592C263.652 50.824 260.686 50.12 257.7 49.48C254.713 48.7973 251.854 48.2 249.124 47.688C246.436 47.176 244.068 46.7707 242.02 46.472L245.22 38.408ZM354.724 13.192C354.382 13.7893 354.02 14.5147 353.636 15.368C353.252 16.1787 352.91 16.9893 352.612 17.8C352.057 19.6773 351.268 21.832 350.244 24.264C349.262 26.6533 348.025 29.1493 346.532 31.752C345.081 34.312 343.396 36.7867 341.476 39.176C338.404 42.8453 334.82 46.1733 330.724 49.16C326.67 52.1467 321.636 54.8347 315.62 57.224L308.068 50.44C312.42 49.16 316.174 47.688 319.332 46.024C322.489 44.36 325.241 42.5893 327.588 40.712C329.934 38.792 332.025 36.7653 333.86 34.632C335.353 32.968 336.718 31.0907 337.956 29C339.193 26.8667 340.26 24.7547 341.156 22.664C342.052 20.5733 342.649 18.7387 342.948 17.16H321.38L324.324 9.928C324.921 9.928 325.838 9.928 327.076 9.928C328.356 9.928 329.785 9.928 331.364 9.928C332.985 9.928 334.564 9.928 336.1 9.928C337.678 9.928 339.044 9.928 340.196 9.928C341.39 9.928 342.201 9.928 342.628 9.928C343.609 9.928 344.59 9.864 345.572 9.736C346.596 9.608 347.47 9.416 348.196 9.16L354.724 13.192ZM333.86 3.08C333.092 4.18933 332.345 5.384 331.62 6.664C330.894 7.944 330.34 8.92533 329.956 9.608C328.505 12.168 326.713 14.8347 324.58 17.608C322.489 20.3387 320.1 23.0053 317.412 25.608C314.724 28.168 311.865 30.5147 308.836 32.648L301.604 27.336C304.42 25.5867 306.894 23.7947 309.028 21.96C311.204 20.1253 313.081 18.312 314.66 16.52C316.238 14.6853 317.582 12.936 318.692 11.272C319.844 9.56533 320.825 8.05066 321.636 6.728C322.148 5.91733 322.681 4.872 323.236 3.592C323.79 2.26933 324.217 1.07466 324.516 0.00799561L333.86 3.08ZM412.626 9.608C412.37 9.992 411.986 10.5893 411.474 11.4C411.005 12.2107 410.642 12.9573 410.386 13.64C409.49 15.6453 408.381 17.8853 407.058 20.36C405.778 22.8347 404.306 25.3307 402.642 27.848C401.021 30.3227 399.293 32.648 397.458 34.824C395.069 37.512 392.423 40.1787 389.522 42.824C386.663 45.4267 383.634 47.8373 380.434 50.056C377.277 52.232 374.034 54.1093 370.706 55.688L364.114 48.776C367.57 47.4533 370.919 45.7893 374.162 43.784C377.405 41.7787 380.413 39.6027 383.186 37.256C385.959 34.9093 388.349 32.6267 390.354 30.408C391.762 28.7867 393.085 27.0587 394.322 25.224C395.602 23.3893 396.733 21.576 397.714 19.784C398.695 17.9493 399.421 16.264 399.89 14.728C399.463 14.728 398.695 14.728 397.586 14.728C396.477 14.728 395.175 14.728 393.682 14.728C392.231 14.728 390.695 14.728 389.074 14.728C387.453 14.728 385.895 14.728 384.402 14.728C382.951 14.728 381.671 14.728 380.562 14.728C379.453 14.728 378.663 14.728 378.194 14.728C377.298 14.728 376.359 14.7707 375.378 14.856C374.397 14.8987 373.458 14.9627 372.562 15.048C371.709 15.0907 371.047 15.1333 370.578 15.176V6.088C371.218 6.13066 372.007 6.19466 372.946 6.28C373.885 6.36533 374.823 6.42933 375.762 6.472C376.743 6.51466 377.554 6.536 378.194 6.536C378.749 6.536 379.623 6.536 380.818 6.536C382.013 6.536 383.378 6.536 384.914 6.536C386.45 6.536 388.029 6.536 389.65 6.536C391.314 6.536 392.893 6.536 394.386 6.536C395.922 6.536 397.245 6.536 398.354 6.536C399.463 6.536 400.274 6.536 400.786 6.536C402.194 6.536 403.474 6.45067 404.626 6.28C405.821 6.10933 406.738 5.91733 407.378 5.704L412.626 9.608ZM398.29 29.512C399.954 30.8347 401.725 32.3707 403.602 34.12C405.479 35.8693 407.335 37.6827 409.17 39.56C411.005 41.4373 412.69 43.2507 414.226 45C415.805 46.7067 417.127 48.2 418.194 49.48L410.898 55.816C409.319 53.64 407.506 51.3787 405.458 49.032C403.453 46.6853 401.319 44.36 399.058 42.056C396.839 39.7093 394.578 37.4907 392.274 35.4L398.29 29.512Z" fill="white"/>
</svg>
