<svg width="325" height="48" viewBox="0 0 325 48" fill="none" xmlns="http://www.w3.org/2000/svg">
<g clip-path="url(#clip0_7412_101261)">
<path d="M240.63 28.17C240.29 28.72 240 29.16 239.75 29.62C237.38 34.02 235.02 38.41 232.67 42.82C231.8 44.46 230.55 45.56 228.64 45.79C226.61 46.04 225.13 45.15 224.07 43.51C223.6 42.78 223.22 41.99 222.86 41.2C220.51 36.02 218.18 30.82 215.82 25.64C215.36 24.63 214.81 23.67 214.18 22.73C214.18 23.64 214.17 24.55 214.18 25.46C214.28 30.5 214.33 35.53 214.5 40.57C214.63 44.24 210.81 46.26 207.69 44.86C205.92 44.06 204.87 42.68 204.83 40.64C204.73 35.25 204.61 29.86 204.48 24.47C204.35 19.25 204.19 14.03 204.05 8.80001C204.02 7.70001 204.03 6.60001 204.52 5.57001C204.89 4.79001 205.45 4.21001 206.19 3.78001C206.51 3.60001 206.82 3.37001 207.05 3.09001C209.22 0.520009 213.1 0.690009 214.85 3.57001C216.72 6.63001 218.52 9.74001 220.16 12.92C222.7 17.83 225.09 22.82 227.54 27.78C227.88 28.47 228.19 29.17 228.54 29.91C228.65 29.78 228.75 29.69 228.82 29.58C231.29 25.1 233.79 20.63 235.8 15.91C237.01 13.08 237.86 10.15 238.55 7.16001C239.08 4.84001 241.74 3.25001 244.07 3.78001C246.39 4.31001 247.67 5.76001 247.93 8.20001C248.23 10.98 248.46 13.77 248.83 16.54C249.31 20.09 249.83 23.64 250.49 27.15C251.23 31.05 252.16 34.92 252.99 38.8C253.41 40.74 253.01 42.43 251.36 43.68C249.88 44.81 248.22 45.24 246.44 44.58C244.68 43.93 243.76 42.57 243.39 40.73C242.56 36.63 241.65 32.56 240.77 28.47C240.76 28.41 240.72 28.37 240.61 28.16L240.63 28.17Z" fill="white"/>
<path d="M154.27 26.18C154.27 25.94 154.26 25.7 154.27 25.47C154.69 18.62 154.7 11.75 154.66 4.89001C154.66 3.67001 154.89 2.57001 155.72 1.60001C157.61 -0.619987 161.49 -0.519987 163.3 1.77001C164.1 2.78001 164.38 3.91001 164.36 5.13001C164.27 11.47 164.23 17.82 164.03 24.16C163.9 28.3 163.53 32.43 163.27 36.57C163.16 38.35 162.72 40 161.37 41.29C159.49 43.08 157.51 43.15 155.43 41.6C151.91 38.97 148.96 35.82 146.58 32.15C145.4 30.33 144.29 28.45 143.14 26.6C143.07 26.48 142.98 26.38 142.81 26.14C142.76 26.42 142.72 26.56 142.72 26.7C142.58 29.41 142.51 32.13 142.29 34.83C142.08 37.51 141.77 40.19 141.41 42.86C141.21 44.37 140.49 45.63 139.15 46.49C137.79 47.36 136.38 47.48 134.96 46.76C134.28 46.42 133.64 45.96 133.08 45.45C131.89 44.34 131.83 42.89 131.96 41.36C132.32 37.07 132.75 32.77 132.9 28.47C133.06 23.98 133.03 19.48 132.91 14.98C132.83 11.84 132.62 8.68001 132.21 5.56001C131.78 2.34001 135.44 -0.559987 138.46 0.510013C138.68 0.590013 138.91 0.640013 139.09 0.770013C140.27 1.57001 141.47 2.34001 142.61 3.20001C143.56 3.92001 144.07 4.99001 144.52 6.06001C146.22 10.06 147.84 14.1 149.67 18.04C150.92 20.74 152.47 23.3 153.89 25.92C153.94 26.02 154.02 26.11 154.09 26.2C154.14 26.2 154.18 26.18 154.23 26.18H154.27Z" fill="white"/>
<path d="M78.01 20.25C78.64 19.69 79.13 19.23 79.65 18.79C83.12 15.89 85.95 12.43 88.44 8.67999C89.18 7.57999 89.82 6.40999 90.61 5.33999C92.63 2.60999 96.45 2.74999 98.42 5.53999C99.68 7.31999 99.58 9.06999 98.5 10.88C95.93 15.19 92.95 19.19 89.39 22.74C89.01 23.12 88.66 23.53 88.29 23.93C88.28 23.94 88.29 23.97 88.27 24.08C88.46 24.17 88.66 24.29 88.88 24.36C92.74 25.65 96.59 26.94 100.46 28.22C102.36 28.85 103.57 30.09 103.95 32.06C104.41 34.46 102.73 37.47 100.15 37.74C99.47 37.81 98.73 37.71 98.07 37.5C95.22 36.62 92.37 35.71 89.55 34.75C86.19 33.61 82.85 32.41 79.5 31.24C79.26 31.15 79 31.09 78.65 30.99C78.89 32.53 79.12 33.96 79.33 35.38C79.64 37.43 79.96 39.47 80.22 41.52C80.53 43.95 79.17 46.13 76.87 46.84C75.7 47.2 74.5 47.01 73.42 46.44C71.98 45.67 70.99 44.57 70.75 42.86C70.33 39.97 69.77 37.11 69.37 34.22C69.09 32.21 69.01 30.18 68.78 28.16C68.35 24.42 68.35 20.67 68.36 16.92C68.36 14.13 68.57 11.33 68.71 8.53999C68.78 7.17999 68.85 5.80999 69.04 4.45999C69.26 2.93999 70.02 1.70999 71.35 0.859994C72.31 0.249994 73.33 -0.0200058 74.44 0.239994C76.56 0.719994 78.87 2.49999 78.57 5.40999C78.09 10.09 77.88 14.79 78.01 19.5C78.01 19.7 78.01 19.89 78.01 20.26V20.25Z" fill="white"/>
<path d="M66.83 25.88C66.7 31.11 65.01 35.77 61.2 39.4C57.02 43.37 51.94 44.84 46.2 43.87C42.51 43.25 39.21 41.78 36.46 39.21C34.03 36.94 32.36 34.2 31.28 31.06C29.79 26.73 29.79 22.37 31.1 18.05C32.45 13.59 35.13 9.98001 38.81 7.09001C41.03 5.35001 43.44 4.00001 46.22 3.43001C49.22 2.81001 52.13 3.13001 54.9 4.48001C55.76 4.90001 56.41 5.51001 56.7 6.43001C56.93 7.15001 57.38 7.69001 57.95 8.17001C61.22 10.96 63.77 14.28 65.38 18.3C66.3 20.58 66.88 23.43 66.83 25.88ZM57.24 25.92C57.15 25.18 57.13 24.43 56.95 23.71C56.22 20.89 54.72 18.5 52.65 16.48C51.63 15.48 50.51 14.57 49.44 13.63C48.1 12.45 48.01 12.44 46.45 13.39C44.78 14.41 43.44 15.79 42.25 17.33C39.01 21.52 38.99 27.13 42.36 31.23C44.44 33.76 47.21 34.93 50.45 34.32C54.7 33.52 57.15 30.32 57.25 25.92H57.24Z" fill="white"/>
<path d="M185.99 44.1C176.22 44.29 169.03 38.49 166.64 30.07C165.63 26.52 165.62 22.92 166.48 19.32C167.16 16.45 168.43 13.89 170.15 11.51C172.38 8.43 175.27 6.1 178.66 4.48C182.61 2.59 186.68 2.56 190.68 4.52C191.52 4.93 192.08 5.56 192.45 6.43C192.7 7.02 193.12 7.58 193.59 8.02C196.85 11.09 199.74 14.44 201.3 18.72C202.77 22.75 202.9 26.85 201.79 30.99C200.96 34.09 199.47 36.84 197.17 39.1C193.93 42.29 190.07 44.09 185.99 44.1ZM192.94 26.16C192.84 25.4 192.79 24.63 192.64 23.89C192.1 21.33 190.85 19.1 189.07 17.23C187.56 15.64 185.85 14.24 184.19 12.8C184.04 12.67 183.63 12.71 183.4 12.8C180.97 13.72 179.2 15.45 177.75 17.52C175.15 21.25 174.77 25.22 176.79 29.32C178.25 32.28 180.66 34.09 183.98 34.41C188.98 34.89 192.97 31.09 192.95 26.16H192.94Z" fill="white"/>
<path d="M114.62 10.53V17.11C114.84 17.12 115.04 17.15 115.24 17.14C118.2 17.01 121.13 17.34 124.07 17.6C126.62 17.82 128.14 20.31 128.16 22.32C128.19 25.19 125.89 27.03 123.33 26.98C122.36 26.96 121.38 26.82 120.41 26.79C118.83 26.74 117.25 26.73 115.68 26.71C115.32 26.71 115.21 26.86 115.27 27.22C115.72 30.06 116.17 32.89 116.61 35.73C116.7 36.33 117.13 36.26 117.5 36.16C118.73 35.85 119.94 35.48 121.16 35.17C122.22 34.9 123.29 34.59 124.37 34.45C127.08 34.1 128.83 36.61 129.06 38.69C129.21 40.06 128.9 41.31 127.99 42.4C127.3 43.22 126.37 43.64 125.42 43.98C122.19 45.15 118.84 45.89 115.42 46.25C111.22 46.69 108.01 44.24 107.37 39.88C106.58 34.43 105.91 28.97 105.34 23.49C104.77 17.98 104.84 12.44 105.09 6.90999C105.18 4.86999 105.77 3.06999 107.73 2.01999C107.97 1.88999 108.22 1.79999 108.48 1.72999C109.22 1.51999 109.95 1.28999 110.7 1.12999C111.3 0.999989 111.93 0.879989 112.54 0.869989C117.17 0.789989 121.7 1.43999 126.12 2.75999C128.04 3.32999 129.53 4.38999 130.11 6.47999C130.58 8.19999 130.05 9.58999 128.91 10.8C127.53 12.26 125.85 12.67 123.9 12.13C122.4 11.72 120.89 11.3 119.36 11.04C117.81 10.78 116.23 10.7 114.6 10.54L114.62 10.53Z" fill="white"/>
<path d="M308.8 45.98C307.36 45.76 304.89 45.46 302.45 44.98C299.98 44.5 298.24 41.83 298.81 39.36C299.29 37.28 301.08 35.45 303.52 35.61C305.11 35.72 306.67 36.11 308.25 36.37C309.68 36.6 311.11 36.59 312.53 36.3C313.77 36.05 314.58 35.25 315.19 34.22C315.27 34.09 315.17 33.71 315.04 33.63C314.24 33.16 313.43 32.69 312.58 32.32C310.91 31.59 309.11 31.1 307.53 30.21C302.73 27.5 299.58 23.5 298.88 17.94C298.42 14.28 299.04 10.74 301.11 7.58999C302.52 5.44999 304.41 3.85999 306.69 2.65999C310.17 0.849991 313.71 0.869991 317.4 1.87999C319.64 2.49999 321.41 3.72999 322.96 5.36999C325.23 7.75999 324.4 10.7 322.45 12.4C321.83 12.94 321.01 13.32 320.22 13.57C319.22 13.89 318.2 13.71 317.32 13.06C316.77 12.65 316.23 12.23 315.7 11.8C313.28 9.85999 310.44 10.99 309.17 13.09C308.04 14.95 308.24 16.81 309.18 18.65C310.02 20.29 311.39 21.39 313.05 22.11C314.59 22.78 316.18 23.33 317.72 24C319.77 24.89 321.59 26.11 322.9 27.96C324.94 30.84 325.34 33.98 324.29 37.3C323.53 39.7 322.01 41.6 320.02 43.13C317.01 45.42 313.53 46.07 308.8 45.96V45.98Z" fill="white"/>
<path d="M266.42 23.33C266.58 19.4 267.13 15.6 268.77 12C270.92 7.28999 274.41 4.15999 279.53 3.04999C282.74 2.35999 285.82 2.84999 288.64 4.58999C289.91 5.36999 290.77 6.50999 291.18 7.93999C291.71 9.80999 290.83 11.62 289.13 12.75C287.32 13.96 285.45 14.05 283.61 12.75C282.99 12.31 282.33 12.21 281.6 12.42C279.78 12.95 278.42 13.99 277.72 15.8C275.79 20.73 275.74 25.66 277.8 30.55C278.49 32.18 279.64 33.5 281.31 34.28C282.64 34.91 283.95 34.87 285.27 34.21C287.01 33.33 288.35 31.98 289.7 30.62C290.05 30.27 290.42 29.93 290.8 29.61C292.29 28.36 293.88 28.24 295.71 29.3C297.31 30.22 298.16 31.7 298.34 33.51C298.45 34.61 298.07 35.62 297.35 36.44C294.39 39.81 290.94 42.53 286.59 43.92C284.36 44.63 282.08 44.52 279.82 43.99C276.19 43.15 273.41 41.07 271.16 38.18C269.08 35.5 267.78 32.48 267.18 29.18C266.83 27.25 266.68 25.29 266.43 23.34L266.42 23.33Z" fill="white"/>
<path d="M12.31 11.26C10.57 11.6 8.95 11.92 7.32 12.23C5.86 12.51 4.41 12.64 2.97 12.07C-0.0499959 10.87 -0.959996 7.25999 1.14 4.78999C1.88 3.91999 2.73 3.34999 3.86 3.06999C7.34 2.19999 10.88 1.74999 14.43 1.34999C19.09 0.829986 23.77 0.759986 28.44 1.11999C30.16 1.24999 31.65 1.85999 32.72 3.32999C34.3 5.50999 33.5 7.97999 31.79 9.50999C30.84 10.36 29.71 10.73 28.41 10.68C26.46 10.6 24.5 10.6 22.55 10.56C22.43 10.56 22.31 10.56 22.13 10.56C22.12 10.8 22.1 11 22.1 11.2C22.14 16.26 22.14 21.32 22.24 26.37C22.29 29.02 22.53 31.67 22.68 34.31C22.81 36.67 22.89 39.03 23.04 41.39C23.22 44.26 19.91 46.92 17.15 46.1C15.39 45.58 13.97 44.5 13.64 42.59C13.33 40.84 13.25 39.06 13.13 37.28C12.57 28.86 12.47 20.42 12.36 11.99C12.36 11.79 12.34 11.59 12.32 11.26H12.31Z" fill="white"/>
<path d="M253.57 35.23C253.76 31.13 253.87 26.82 254.2 22.52C254.53 18.14 255.06 13.78 255.52 9.41999C255.67 8.01999 255.88 6.62999 255.99 5.21999C256.12 3.49999 257.21 2.49999 258.6 1.85999C261.96 0.319989 265.46 2.57999 265.39 6.27999C265.36 8.11999 265.05 9.94999 264.87 11.78C264.55 15 264.2 18.21 263.92 21.43C263.34 28.02 263.42 34.64 263.29 41.25C263.24 43.69 261.47 45.51 259.09 45.79C256.26 46.12 254.1 44.14 253.75 42.15C253.56 41.08 253.6 39.96 253.58 38.87C253.55 37.73 253.58 36.59 253.58 35.24L253.57 35.23Z" fill="white"/>
</g>
<defs>
<clipPath id="clip0_7412_101261">
<rect width="324.85" height="47.24" fill="white"/>
</clipPath>
</defs>
</svg>
