<svg width="169" height="139" viewBox="0 0 169 139" fill="none" xmlns="http://www.w3.org/2000/svg">
<rect y="82.9863" width="169" height="56" rx="28" fill="#A2C159"/>
<path d="M38.88 104.554C38.4 105.29 37.8 106.066 37.08 106.882C36.376 107.698 35.592 108.514 34.728 109.33C33.864 110.146 32.944 110.93 31.968 111.682C30.992 112.434 29.992 113.114 28.968 113.722C28.888 113.578 28.784 113.426 28.656 113.266C28.528 113.09 28.392 112.914 28.248 112.738C28.104 112.562 27.968 112.418 27.84 112.306C28.88 111.714 29.896 111.034 30.888 110.266C31.88 109.498 32.816 108.69 33.696 107.842C34.592 106.978 35.4 106.114 36.12 105.25C36.84 104.386 37.432 103.554 37.896 102.754H39.696C40.32 103.65 41.04 104.546 41.856 105.442C42.672 106.322 43.544 107.17 44.472 107.986C45.416 108.802 46.376 109.562 47.352 110.266C48.344 110.954 49.304 111.546 50.232 112.042C50.008 112.25 49.792 112.498 49.584 112.786C49.376 113.058 49.192 113.33 49.032 113.602C48.104 113.042 47.152 112.402 46.176 111.682C45.216 110.962 44.28 110.202 43.368 109.402C42.456 108.586 41.616 107.77 40.848 106.954C40.08 106.122 39.424 105.322 38.88 104.554ZM33.744 110.41H44.256V112.09H33.744V110.41ZM30.648 115.114H45.216V116.842H30.648V115.114ZM44.856 115.114H45.12L45.456 115.018L46.872 115.45C46.488 116.33 46.04 117.33 45.528 118.45C45.032 119.554 44.504 120.674 43.944 121.81C43.4 122.93 42.872 123.994 42.36 125.002L40.488 124.474C40.872 123.738 41.272 122.954 41.688 122.122C42.104 121.274 42.512 120.434 42.912 119.602C43.312 118.77 43.68 117.986 44.016 117.25C44.352 116.514 44.632 115.882 44.856 115.354V115.114ZM66.048 103.978C66.048 104.058 66.032 104.202 66 104.41C65.984 104.618 65.968 104.826 65.952 105.034C65.952 105.226 65.944 105.378 65.928 105.49C65.912 105.794 65.904 106.21 65.904 106.738C65.904 107.266 65.904 107.842 65.904 108.466C65.904 109.09 65.904 109.722 65.904 110.362C65.92 111.002 65.928 111.602 65.928 112.162C65.944 112.722 65.952 113.194 65.952 113.578L64.104 112.666C64.104 112.442 64.104 112.106 64.104 111.658C64.104 111.194 64.104 110.666 64.104 110.074C64.104 109.466 64.096 108.866 64.08 108.274C64.08 107.682 64.072 107.138 64.056 106.642C64.04 106.146 64.024 105.762 64.008 105.49C63.992 105.17 63.968 104.866 63.936 104.578C63.904 104.274 63.88 104.074 63.864 103.978H66.048ZM53.304 107.314C53.96 107.314 54.704 107.306 55.536 107.29C56.368 107.258 57.248 107.226 58.176 107.194C59.12 107.162 60.072 107.138 61.032 107.122C61.992 107.106 62.912 107.09 63.792 107.074C64.688 107.058 65.512 107.05 66.264 107.05C66.984 107.05 67.704 107.05 68.424 107.05C69.144 107.05 69.816 107.05 70.44 107.05C71.08 107.05 71.64 107.058 72.12 107.074C72.616 107.074 73.008 107.074 73.296 107.074L73.272 108.85C72.6 108.818 71.696 108.794 70.56 108.778C69.44 108.746 68 108.73 66.24 108.73C65.2 108.73 64.112 108.746 62.976 108.778C61.856 108.794 60.728 108.818 59.592 108.85C58.456 108.882 57.352 108.93 56.28 108.994C55.224 109.042 54.248 109.098 53.352 109.162L53.304 107.314ZM65.904 114.298C65.904 115.354 65.744 116.242 65.424 116.962C65.12 117.682 64.688 118.218 64.128 118.57C63.584 118.922 62.944 119.098 62.208 119.098C61.712 119.098 61.224 119.018 60.744 118.858C60.28 118.682 59.856 118.426 59.472 118.09C59.104 117.738 58.808 117.314 58.584 116.818C58.376 116.306 58.272 115.73 58.272 115.09C58.272 114.29 58.464 113.578 58.848 112.954C59.232 112.33 59.744 111.834 60.384 111.466C61.04 111.098 61.744 110.914 62.496 110.914C63.44 110.914 64.216 111.13 64.824 111.562C65.448 111.978 65.92 112.554 66.24 113.29C66.56 114.01 66.72 114.834 66.72 115.762C66.72 116.562 66.6 117.378 66.36 118.21C66.136 119.042 65.752 119.842 65.208 120.61C64.68 121.378 63.952 122.082 63.024 122.722C62.112 123.346 60.952 123.866 59.544 124.282L57.936 122.698C59.024 122.442 60 122.114 60.864 121.714C61.728 121.314 62.456 120.826 63.048 120.25C63.64 119.674 64.088 119.002 64.392 118.234C64.712 117.466 64.872 116.586 64.872 115.594C64.872 114.506 64.64 113.722 64.176 113.242C63.712 112.762 63.152 112.522 62.496 112.522C62.08 112.522 61.688 112.626 61.32 112.834C60.952 113.026 60.648 113.314 60.408 113.698C60.184 114.082 60.072 114.538 60.072 115.066C60.072 115.818 60.312 116.402 60.792 116.818C61.288 117.234 61.864 117.442 62.52 117.442C63.016 117.442 63.44 117.306 63.792 117.034C64.144 116.746 64.392 116.322 64.536 115.762C64.696 115.186 64.712 114.474 64.584 113.626L65.904 114.298ZM90.336 109.33C90.544 109.634 90.776 110.002 91.032 110.434C91.288 110.866 91.536 111.306 91.776 111.754C92.032 112.186 92.248 112.554 92.424 112.858L91.08 113.434C90.92 113.098 90.72 112.722 90.48 112.306C90.24 111.874 89.992 111.442 89.736 111.01C89.496 110.562 89.272 110.186 89.064 109.882L90.336 109.33ZM93.144 108.25C93.352 108.522 93.584 108.874 93.84 109.306C94.112 109.722 94.376 110.146 94.632 110.578C94.888 110.994 95.096 111.37 95.256 111.706L93.96 112.282C93.768 111.946 93.544 111.57 93.288 111.154C93.048 110.722 92.8 110.298 92.544 109.882C92.304 109.466 92.072 109.114 91.848 108.826L93.144 108.25ZM91.584 105.274C91.328 105.466 91.04 105.706 90.72 105.994C90.4 106.266 90.136 106.482 89.928 106.642C89.512 107.01 89.008 107.442 88.416 107.938C87.824 108.418 87.192 108.93 86.52 109.474C85.864 110.002 85.232 110.514 84.624 111.01C84.016 111.49 83.496 111.922 83.064 112.306C82.584 112.722 82.256 113.066 82.08 113.338C81.92 113.594 81.928 113.858 82.104 114.13C82.28 114.402 82.624 114.762 83.136 115.21C83.568 115.562 84.072 115.978 84.648 116.458C85.224 116.922 85.84 117.426 86.496 117.97C87.152 118.514 87.808 119.074 88.464 119.65C89.136 120.226 89.784 120.794 90.408 121.354C91.032 121.914 91.6 122.45 92.112 122.962L90.408 124.546C90.152 124.258 89.88 123.962 89.592 123.658C89.32 123.37 89.04 123.082 88.752 122.794C88.336 122.362 87.808 121.858 87.168 121.282C86.544 120.706 85.872 120.106 85.152 119.482C84.448 118.858 83.752 118.258 83.064 117.682C82.376 117.09 81.744 116.562 81.168 116.098C80.416 115.458 79.936 114.898 79.728 114.418C79.52 113.922 79.552 113.434 79.824 112.954C80.112 112.474 80.616 111.938 81.336 111.346C81.8 110.962 82.344 110.514 82.968 110.002C83.608 109.49 84.272 108.954 84.96 108.394C85.648 107.818 86.296 107.266 86.904 106.738C87.512 106.194 88.016 105.714 88.416 105.298C88.656 105.058 88.912 104.786 89.184 104.482C89.456 104.178 89.656 103.914 89.784 103.69L91.584 105.274ZM108.792 104.914H121.44V106.282H108.792V104.914ZM108.24 110.65H121.968V112.018H108.24V110.65ZM108.144 119.554H122.064V120.922H108.144V119.554ZM109.416 107.722H121.056V109.042H109.416V107.722ZM111.696 102.85H113.304V111.202H111.696V102.85ZM116.88 102.85H118.512V111.202H116.88V102.85ZM114.264 111.226H115.848V119.986H114.264V111.226ZM118.968 113.41H120.624V123.034C120.624 123.482 120.56 123.826 120.432 124.066C120.32 124.306 120.104 124.498 119.784 124.642C119.464 124.77 119.016 124.842 118.44 124.858C117.88 124.874 117.168 124.882 116.304 124.882C116.256 124.674 116.184 124.426 116.088 124.138C115.992 123.866 115.888 123.626 115.776 123.418C116.416 123.434 116.992 123.442 117.504 123.442C118.032 123.442 118.368 123.442 118.512 123.442C118.672 123.426 118.784 123.386 118.848 123.322C118.928 123.274 118.968 123.178 118.968 123.034V113.41ZM109.68 113.41H119.664V114.778H111.312V124.93H109.68V113.41ZM110.544 116.506H119.64V117.754H110.544V116.506ZM102.168 119.362L103.8 119.722C103.528 120.714 103.152 121.674 102.672 122.602C102.192 123.514 101.68 124.29 101.136 124.93C101.04 124.834 100.904 124.722 100.728 124.594C100.552 124.482 100.376 124.362 100.2 124.234C100.04 124.122 99.888 124.034 99.744 123.97C100.288 123.394 100.768 122.698 101.184 121.882C101.616 121.066 101.944 120.226 102.168 119.362ZM105.192 119.938L106.56 119.338C106.944 119.914 107.328 120.554 107.712 121.258C108.096 121.946 108.376 122.546 108.552 123.058L107.136 123.754C107.008 123.418 106.84 123.026 106.632 122.578C106.424 122.13 106.192 121.682 105.936 121.234C105.696 120.77 105.448 120.338 105.192 119.938ZM102.576 109.714V112.81H106.176V109.714H102.576ZM102.576 114.226V117.37H106.176V114.226H102.576ZM102.576 105.226V108.298H106.176V105.226H102.576ZM100.992 103.738H107.784V118.858H100.992V103.738ZM128.472 104.29H135.264V106.114H128.472V104.29ZM134.352 104.29H136.176C136.176 104.994 136.208 105.826 136.272 106.786C136.336 107.746 136.472 108.778 136.68 109.882C136.888 110.97 137.208 112.106 137.64 113.29C138.072 114.474 138.656 115.658 139.392 116.842C140.128 118.01 141.048 119.146 142.152 120.25C143.272 121.354 144.624 122.37 146.208 123.298C146.08 123.41 145.912 123.554 145.704 123.73C145.512 123.922 145.328 124.114 145.152 124.306C144.992 124.514 144.856 124.69 144.744 124.834C143.144 123.858 141.768 122.786 140.616 121.618C139.48 120.434 138.528 119.202 137.76 117.922C137.008 116.642 136.4 115.362 135.936 114.082C135.488 112.786 135.144 111.538 134.904 110.338C134.68 109.122 134.528 107.994 134.448 106.954C134.384 105.914 134.352 105.026 134.352 104.29ZM133.656 108.994L135.696 109.354C135.12 111.786 134.368 113.978 133.44 115.93C132.528 117.882 131.416 119.602 130.104 121.09C128.808 122.562 127.272 123.818 125.496 124.858C125.4 124.73 125.248 124.578 125.04 124.402C124.848 124.226 124.64 124.042 124.416 123.85C124.208 123.674 124.024 123.53 123.864 123.418C126.536 122.01 128.656 120.106 130.224 117.706C131.792 115.29 132.936 112.386 133.656 108.994Z" fill="white"/>
<g clip-path="url(#clip0_11890_36905)">
<path d="M97.7039 1.66591C102.021 -0.512956 107.379 -0.574561 111.711 1.5962C113.973 2.61106 115.927 4.24683 117.481 6.16144C120.299 9.74587 121.222 14.7278 119.822 19.0725C119.492 20.089 118.955 21.0179 118.478 21.9696C119.266 22.8758 120.2 23.6507 120.939 24.6024C121.549 25.3205 122.034 26.1295 122.497 26.9466C123.261 28.1154 123.653 29.4691 124.158 30.758C125.142 34.1592 125.228 37.836 124.292 41.2583C123.872 42.5861 123.306 43.8636 122.648 45.0892C121.967 46.1559 121.246 47.2016 120.434 48.1743C119.691 49.0157 118.83 49.7452 117.952 50.4391C118.594 51.4329 119.018 52.5466 119.514 53.6166C120.479 55.742 121.063 58.0068 121.776 60.2229C122.129 61.5652 122.327 62.9449 122.577 64.3099C123.961 64.6406 125.417 65.2015 126.32 66.3623C126.982 67.1859 127.186 68.2883 127.139 69.321C126.901 72.5455 125.455 75.6111 123.366 78.051C121.954 79.6446 120.286 81.1053 118.256 81.8381C117.245 82.138 116.181 82.1996 115.134 82.232C112.827 81.8592 110.453 81.7878 108.226 81.0259C107.366 82.1883 106.094 83.0199 104.706 83.4074C103.918 83.6344 103.153 84.0251 102.313 83.9829C101.867 83.9797 101.455 83.8013 101.049 83.6457C99.8877 84.2391 98.3751 83.8386 97.5953 82.814C96.2124 82.6665 94.9721 81.6435 94.5247 80.3255C92.2242 80.6725 89.888 80.7551 87.5647 80.9173C86.1624 81.0064 84.7584 80.9432 83.356 80.9772C82.1644 80.9367 80.9777 80.7859 79.7844 80.7892C78.4826 80.7859 77.1905 80.5995 75.8983 80.4568C75.613 81.5171 74.8186 82.4947 73.7664 82.8546C73.2103 82.9129 72.8504 83.3928 72.3251 83.5274C71.5729 83.7397 70.7493 83.73 70.0133 83.4593C69.3988 83.6862 68.7779 83.9553 68.1115 83.9537C66.0429 83.8921 63.9887 82.7281 63.0792 80.8297C62.6982 80.8605 62.314 80.8767 61.9444 80.9789C60.7706 81.2934 59.5498 81.3679 58.3809 81.6987C56.9785 81.8413 55.581 82.1104 54.1657 82.0764C51.9187 82.1753 49.5663 81.3598 48.0326 79.6738C47.1798 78.7303 46.4016 77.7219 45.6575 76.6908C44.7431 75.4636 44.2 74.0159 43.699 72.5828C43.1835 70.8838 42.8008 69.0762 43.1121 67.3026C43.3975 66.1126 43.9503 64.8708 45.0252 64.198C45.6364 63.783 46.3627 63.6014 47.0371 63.3226C47.9855 62.9189 49.028 63.0908 50.0234 63.0989C50.2877 60.0365 51.4939 57.1654 52.5947 54.3267C53.3648 52.746 54.096 51.1427 54.9747 49.6188C53.3697 48.1208 52.1035 46.2905 51.0675 44.3645C49.9375 41.936 49.1269 39.2935 49.2323 36.5894C49.3166 35.3362 49.3296 34.0587 49.7138 32.8509C50.5584 29.4318 52.3159 26.2349 54.7785 23.7123C55.5437 22.8336 56.5084 22.1641 57.3093 21.3211C55.774 18.651 55.3703 15.4103 56.0334 12.4176C57.3401 7.12118 61.5439 2.61106 66.7773 1.03041C69.6533 0.0868801 72.818 0.0382448 75.7265 0.871531C77.0429 1.28817 78.3529 1.80047 79.4667 2.63537C81.5467 4.08147 83.4371 5.97338 84.345 8.38083C84.6611 9.09253 84.7616 9.9015 85.0453 10.6035C87.0362 10.3814 89.0595 10.3441 91.0358 10.7137C91.2401 9.99066 91.3406 9.24006 91.6097 8.53485C92.6424 5.55512 94.9722 3.1655 97.7039 1.66591ZM102.08 1.36113C100.013 1.72751 97.9698 2.50892 96.3291 3.84802C94.5182 5.30384 93.1175 7.30275 92.4609 9.53998C91.5286 12.1938 92.0247 15.1509 93.1434 17.6669C95.345 21.8788 99.57 24.9525 104.239 25.8134C105.948 26.1927 107.715 26.3938 109.461 26.1846C112.272 25.9285 115.15 24.7466 116.841 22.4008C117.562 21.1963 118.326 19.9982 118.764 18.6559C119.985 14.6029 119.057 10.0069 116.486 6.66563C114.429 4.03769 111.428 2.17982 108.174 1.45353C106.168 1.07418 104.095 0.999604 102.08 1.36113ZM66.7189 2.13119C63.3403 3.26763 60.4464 5.70589 58.6743 8.79261C57.2963 11.3119 56.5116 14.269 57.0012 17.1384C57.4325 19.8523 58.8073 22.5824 61.2132 24.0252L61.197 24.1825L61.3948 24.1192V24.33C61.4726 24.3284 61.6282 24.3235 61.7044 24.3203L61.685 24.5132L61.8341 24.4791C61.9638 24.5845 62.1 24.685 62.2411 24.7807C63.2122 25.3465 64.2676 25.7728 65.3798 25.9593C66.9767 26.2932 68.6287 26.3678 70.2467 26.1327C73.9529 25.7307 77.5277 24.0366 80.1022 21.3259C81.2063 20.2219 82.0525 18.8926 82.7643 17.5113C83.536 15.9874 84.1018 14.3062 84.0256 12.5781C83.9559 11.4773 83.8586 10.3619 83.4906 9.31463C82.7351 7.13415 81.1884 5.28438 79.3337 3.9388C77.184 2.21062 74.4117 1.43084 71.6864 1.35464C70.0019 1.34005 68.3288 1.64808 66.7189 2.13119ZM84.2623 12.223C84.2623 13.045 84.2785 13.8734 84.0791 14.6775C83.5084 17.0963 82.2487 19.3206 80.608 21.1736C76.482 25.648 69.7814 27.6939 63.9028 25.9463C61.8309 25.2346 59.9081 24.0236 58.4766 22.3538C58.4214 22.3473 58.3112 22.3376 58.2561 22.3311C56.9429 23.2633 55.7642 24.3965 54.7574 25.6545C51.575 29.4837 49.8678 34.7169 50.8341 39.6663C51.5944 43.4502 53.8771 46.7266 56.5132 49.4615C57.1682 50.0484 57.8621 50.5899 58.5722 51.1086C57.6254 50.8541 56.9445 50.0743 56.1857 49.4972C56.0447 50.1878 55.628 50.7682 55.3168 51.3875C53.4215 55.2459 51.6009 59.2696 51.1145 63.5852C53.0811 63.9095 54.6699 65.2777 55.8972 66.7741C55.7221 66.231 55.5972 65.6749 55.4675 65.1205C54.9844 62.4358 54.6294 59.7155 54.6829 56.9822C54.6991 56.4326 54.7234 55.8765 54.8904 55.348C54.9147 55.575 54.9277 55.8019 54.9277 56.0322C54.8466 60.0219 55.4076 64.0278 56.5603 67.8489C57.1342 69.496 57.7989 71.1156 58.5852 72.6736C59.7363 74.7616 60.9522 76.8984 62.7615 78.4904C63.0111 79.2377 63.3095 79.9786 63.7958 80.6092C64.3551 81.3355 64.921 82.1088 65.7445 82.553C66.453 82.9745 67.275 83.2015 68.1002 83.1918C68.5914 83.1561 69.1508 83.1156 69.4928 82.7087C70.0343 82.1445 69.7911 81.2934 69.6582 80.6173C69.569 80.4114 69.4847 80.2056 69.4037 79.998C69.7798 80.0564 69.8333 80.4893 70.0084 80.7616C70.1981 81.4798 70.271 82.2564 69.9922 82.9632C70.7639 83.0037 71.5696 83.0167 72.3008 82.7249C72.6137 82.6487 72.6137 82.2709 72.7321 82.031C72.9947 81.3404 73.0498 80.5963 73.0142 79.8651C73.019 79.7484 73.0288 79.5149 73.0336 79.3966L73.533 79.4485C73.46 79.502 73.3108 79.609 73.2379 79.6625C73.2752 80.5071 73.2573 81.3728 72.938 82.1704C73.9982 82.1575 74.864 81.2869 75.2904 80.3774C75.4801 79.63 75.3666 78.8389 75.3423 78.0769C75.0164 77.6652 74.6532 77.2858 74.2528 76.947C74.984 76.9 75.3828 77.7154 75.579 78.3088C75.66 78.6995 75.673 79.0967 75.66 79.4955C75.8756 79.369 76.0734 79.1972 76.1188 78.9394C76.3361 78.1823 76.5258 77.3701 76.2566 76.6001C76.0345 75.9581 75.5741 75.4555 75.1526 74.9416C74.9596 74.0029 75.0666 73.014 74.7537 72.0932C74.0696 69.1588 72.4629 66.5585 70.8077 64.0829C69.8301 62.4926 68.4131 61.2199 67.4841 59.5971C66.9524 58.6893 66.2309 57.8852 65.858 56.893C65.9115 56.9076 66.0185 56.9352 66.0704 56.9481C66.5422 57.7879 67.1583 58.5466 67.6787 59.3604C68.7065 61.0335 70.1122 62.4261 71.2259 64.0392C72.9915 66.7465 74.7343 69.6079 75.2677 72.8503C75.3974 73.4906 75.3244 74.1569 75.4655 74.7941C75.7654 75.2318 76.1983 75.5771 76.409 76.078C76.6749 76.5514 76.6749 77.1026 76.696 77.6311C76.696 78.2456 76.5193 78.8405 76.2955 79.4079C78.1421 79.7192 80.0163 79.8116 81.8839 79.9056C84.8508 80.1148 87.8371 80.0499 90.7942 79.7468C92.0312 79.7306 93.1969 79.2426 94.4274 79.1907C94.3399 78.3266 94.7436 77.5517 95.084 76.7914C95.4147 76.4039 95.9919 76.0797 95.9108 75.4944C95.9579 74.0532 96.4313 72.6784 96.8366 71.3101C97.3019 69.7798 98.0606 68.3677 98.6345 66.8811L98.6313 66.8714C99.4176 65.4771 100.18 64.0667 101.068 62.7325C101.877 61.3999 102.942 60.2537 103.84 58.9827C104.035 58.853 104.231 58.7249 104.429 58.5985C104.124 59.3329 103.574 59.9214 103.122 60.5633C101.716 62.3969 100.439 64.3229 99.3122 66.3412C97.9406 69.0081 96.7247 71.816 96.2724 74.8022C96.2075 75.2058 96.107 75.6257 96.2659 76.0229C95.4942 76.7524 94.9057 77.6992 94.6836 78.7449C95.0808 78.3526 95.3531 77.8403 95.8265 77.529C95.5769 77.9181 95.3142 78.3039 95.1327 78.7319C94.6917 80.2704 96.0957 81.7603 97.5596 82.0018C97.4737 81.3209 97.6067 80.6433 97.8126 79.9964C98.0865 79.6446 98.1773 78.9881 98.7091 78.967C98.4692 79.3544 98.226 79.7419 98.0638 80.1699C97.8806 80.9027 97.6521 81.7765 98.119 82.4493C98.8226 83.1853 99.9882 83.3539 100.927 83.0167C101.099 82.4055 101.006 81.7181 101.169 81.0891C101.415 80.7324 101.387 79.9705 101.908 79.9478C101.76 80.3028 101.619 80.6627 101.491 81.0259C101.347 81.6727 101.159 82.4055 101.392 83.0378C102.456 83.4998 103.643 83.1123 104.653 82.6892C106.523 82.0245 108.012 80.5103 108.805 78.7092C108.874 78.5212 108.923 78.3266 109.006 78.1467C111.544 75.3161 113.292 71.8646 114.638 68.3304C115.084 67.1502 115.645 66.0073 115.935 64.7736C116.453 62.7925 117.037 60.7822 116.972 58.7152C117.016 58.5288 117.019 58.3115 117.183 58.1802C117.425 59.7998 117.058 61.4112 116.846 63.0097C116.727 64.1478 116.366 65.2388 115.918 66.2861C116.513 65.863 117.074 65.3799 117.75 65.0881C118.877 64.6325 120.092 64.4185 121.306 64.4477C121.132 62.5769 120.712 60.7368 120.143 58.9487C119.278 56.1408 118.162 53.401 116.749 50.8233C116.491 50.9449 116.235 51.0713 115.993 51.2237C114.814 52.0035 113.521 52.5969 112.206 53.1108C111.963 53.2291 111.695 53.2227 111.434 53.2145C113.6 52.1673 115.661 50.8784 117.465 49.2799C120.7 46.5985 123.031 42.7288 123.525 38.525C123.974 36.0057 123.542 33.4167 122.843 30.9833C122.324 29.4286 121.674 27.9015 120.787 26.5186C119.868 25.0984 118.671 23.8842 117.378 22.8045C117.053 23.1174 116.742 23.4416 116.402 23.7366C114.492 25.4437 111.942 26.2268 109.448 26.5688C103.785 26.9498 97.8709 24.5732 94.3609 20.0452C92.597 17.795 91.5189 14.9434 91.6843 12.0625C89.5929 11.5486 87.4059 11.5924 85.2788 11.8323C84.9254 11.8972 84.5249 11.962 84.2623 12.223ZM49.2971 64.3018C48.4865 65.375 48.4379 66.8162 48.7102 68.0856C48.8691 68.893 49.5144 69.5171 50.2358 69.8608C49.9829 69.8203 49.7349 69.7587 49.4852 69.7117C49.4171 69.5577 49.2971 69.4134 49.1269 69.3793C48.7864 68.9643 48.5092 68.4877 48.4427 67.9478C48.2498 66.693 48.206 65.2064 49.1674 64.2353C48.7962 64.1364 48.4184 63.9484 48.0245 64.0359C47.5462 64.1008 47.1749 64.472 46.6934 64.5271C45.424 64.6795 44.3556 65.7819 44.1513 67.0319C43.9098 68.3855 44.0832 69.7814 44.3637 71.1156C45.103 73.9186 46.6221 76.4558 48.4379 78.6898C48.9178 79.3658 49.5484 79.9332 50.2504 80.3725C51.575 81.1248 53.1378 81.3647 54.644 81.329C57.4357 81.1653 60.1562 80.4812 62.8831 79.9105C62.755 79.4339 62.6399 78.9216 62.2978 78.5471C61.6752 77.8694 61.0803 77.1658 60.5161 76.4379C59.6357 75.2723 58.9824 73.9575 58.1945 72.7335C58.0729 72.2131 57.7729 71.7511 57.58 71.255C57.0207 70.0343 56.5667 68.7714 56.1274 67.5069C55.581 66.7206 54.9536 65.9586 54.156 65.4172C53.1719 64.8968 52.2267 64.2758 51.1599 63.9322C50.5325 63.7117 49.7916 63.8543 49.2971 64.3018ZM119.01 65.1675C117.465 65.5274 115.813 66.3915 115.259 67.977C114.456 69.8365 113.61 71.6782 112.773 73.5198C111.734 75.0421 110.812 76.6584 109.56 78.0283C109.137 78.7741 108.895 79.6138 108.477 80.3677C111.283 81.0032 114.197 81.7457 117.078 81.1588C118.911 80.794 120.43 79.596 121.693 78.278C124.106 75.7279 125.951 72.4125 126.009 68.833C126.084 67.5782 125.254 66.2132 123.963 65.9878C123.665 65.5712 123.225 65.2777 122.729 65.1529C121.518 64.8238 120.212 64.7768 119.01 65.1675Z" fill="#010101"/>
<path d="M102.08 1.35879C104.095 0.997265 106.168 1.07184 108.174 1.4512C111.428 2.17748 114.428 4.03536 116.486 6.66329C119.057 10.0045 119.984 14.6006 118.764 18.6535C118.326 19.9959 117.562 21.1939 116.841 22.3985C115.15 24.7443 112.272 25.9261 109.461 26.1823C107.715 26.3914 105.948 26.1904 104.239 25.811C99.5699 24.9502 95.345 21.8764 93.1433 17.6646C92.0247 15.1485 91.5286 12.1915 92.4608 9.53764C93.1174 7.30041 94.5181 5.3015 96.329 3.84568C97.9697 2.50658 100.012 1.72517 102.08 1.35879ZM96.877 9.7338C96.1134 9.95428 95.5979 10.8929 95.974 11.6322C96.3598 12.4006 97.2953 12.6227 98.0881 12.6438C100.486 12.7233 102.876 13.007 105.226 13.4803C108.122 14.038 110.901 15.0707 113.594 16.2574C114.099 16.4698 114.699 16.6368 115.218 16.3596C115.88 15.9218 116.03 14.8973 115.518 14.2877C115.148 13.7965 114.553 13.5792 113.992 13.3863C111.917 12.5757 109.84 11.7424 107.678 11.1896C104.589 10.439 101.455 9.75974 98.2664 9.68354C97.8044 9.6803 97.3293 9.61221 96.877 9.7338Z" fill="#FAEDDC"/>
<path d="M66.719 2.12863C68.3289 1.64552 70.002 1.3375 71.6864 1.35209C74.4117 1.42829 77.1841 2.20807 79.3338 3.93625C81.1885 5.28183 82.7352 7.13159 83.4907 9.31208C83.8587 10.3594 83.9559 11.4747 84.0257 12.5755C84.1019 14.3037 83.536 15.9849 82.7643 17.5088C82.0526 18.89 81.2063 20.2194 80.1023 21.3234C77.5278 24.034 73.9529 25.7281 70.2468 26.1302C68.6288 26.3653 66.9768 26.2907 65.3798 25.9567C64.2677 25.7703 63.2123 25.3439 62.2411 24.7781C62.1001 24.6825 61.9639 24.582 61.8342 24.4766L61.6851 24.5106L61.7045 24.3177C61.6283 24.321 61.4727 24.3258 61.3965 24.3274V24.1167L61.1971 24.1799L61.2133 24.0227C58.8074 22.5798 57.4326 19.8497 57.0013 17.1359C56.5117 14.2664 57.2964 11.3094 58.6744 8.79006C60.4464 5.70334 63.3403 3.26508 66.719 2.12863ZM74.0275 9.95569C71.7286 10.2507 69.4216 10.6333 67.2281 11.4066C64.8854 12.1848 62.5168 12.9387 60.2989 14.0313C59.284 14.4626 59.0538 16.1664 60.1254 16.6593C60.9928 17.0775 61.8115 16.4015 62.58 16.0805C65.409 14.9116 68.3273 13.9373 71.3298 13.3148C73.5979 12.9095 75.8871 12.5755 78.1941 12.5026C79.0355 12.4799 79.8948 11.6612 79.6094 10.7825C79.5089 10.0919 78.7972 9.72062 78.1535 9.7271C76.7755 9.71089 75.3958 9.7806 74.0275 9.95569Z" fill="#FAEDDC"/>
<path d="M73.6799 62.745C76.684 61.3021 80.0416 60.8239 83.3343 60.5953C86.7324 60.4753 90.223 60.5045 93.4752 61.6166C94.6895 62.1695 95.9119 62.7952 96.8846 63.7258C97.7763 64.5704 98.2691 65.7182 98.6307 66.8693L98.6339 66.879C98.06 68.3656 97.3013 69.7777 96.836 71.3081C96.4307 72.6763 95.9573 74.0511 95.9102 75.4923C95.9913 76.0776 95.4141 76.4018 95.0834 76.7893C93.707 77.4069 92.3354 78.0489 90.8796 78.472C88.5774 79.3199 86.1002 79.5939 83.6586 79.5193C81.2235 79.4253 78.9197 78.5531 76.6954 77.629C76.6743 77.1005 76.6743 76.5493 76.4084 76.0759C76.1977 75.575 75.7648 75.2297 75.4649 74.792C75.3238 74.1548 75.3968 73.4885 75.2671 72.8482C74.7337 69.6058 72.9909 66.7444 71.2253 64.0371C72.0392 63.5993 72.8385 63.1308 73.6799 62.745Z" fill="#FCEDDA"/>
<path d="M45.6424 66.8691C45.7299 66.0601 45.9131 65.1085 46.6865 64.6757C46.299 65.3549 45.9407 66.0828 45.9618 66.8869C45.8791 67.9521 46.406 69.2036 47.5117 69.5084C47.4598 69.737 47.3836 69.9639 47.2215 70.1423C47.0367 70.2169 46.8518 70.2979 46.6703 70.3822C46.3022 70.3547 45.9375 70.2979 45.5759 70.2298C46.1369 69.9964 46.7837 70.1488 47.3106 69.8132C46.2115 69.3057 45.4851 68.0801 45.6424 66.8691Z" fill="black"/>
<path d="M84.2626 12.2237C84.5253 11.9627 84.9257 11.8979 85.2791 11.833C87.4062 11.5931 89.5933 11.5493 91.6846 12.0633C91.5193 14.9441 92.5974 17.7957 94.3613 20.0459C97.8713 24.5739 103.786 26.9505 109.449 26.5696C111.942 26.2275 114.492 25.4445 116.402 23.7374C116.742 23.4423 117.054 23.1181 117.378 22.8052C118.672 23.8849 119.868 25.0992 120.787 26.5193C121.674 27.9022 122.324 29.4293 122.843 30.984C123.542 33.4174 123.975 36.0064 123.526 38.5258C123.031 42.7295 120.7 46.5992 117.466 49.2807C115.661 50.8791 113.6 52.168 111.435 53.2153C110.929 53.4066 110.441 53.6384 109.936 53.8329C108.396 54.3501 106.79 54.6289 105.211 55.0067C101.386 55.921 97.4806 56.469 93.5588 56.7478C90.219 57.098 86.8582 57.072 83.5071 56.9683C79.9339 56.7316 76.3461 56.4949 72.8216 55.8205C71.2701 55.5595 69.7315 55.2174 68.1784 54.9661C67.264 54.8267 66.382 54.5203 65.4596 54.4344C63.0569 53.5671 60.7337 52.4711 58.5726 51.1094C57.8625 50.5906 57.1686 50.0491 56.5136 49.4622C53.8775 46.7273 51.5948 43.4509 50.8344 39.6671C49.8682 34.7176 51.5753 29.4844 54.7578 25.6552C55.7646 24.3972 56.9432 23.264 58.2564 22.3318C58.3115 22.3383 58.4218 22.348 58.4769 22.3545C59.9085 24.0243 61.8312 25.2353 63.9032 25.947C69.7818 27.6947 76.4823 25.6487 80.6084 21.1743C82.2491 19.3213 83.5088 17.097 84.0794 14.6782C84.2788 13.8741 84.2626 13.0457 84.2626 12.2237ZM57.6193 26.422C56.1715 26.7106 54.6881 27.3769 53.8613 28.656C53.2792 29.4553 53.1722 30.5593 53.597 31.4542C54.1206 32.7025 55.4679 33.398 56.7649 33.5277C58.1575 33.6087 59.5518 33.3542 60.8715 32.9213C62.5576 32.4058 63.6908 30.5301 63.3568 28.7987C63.1461 27.8308 62.4846 26.91 61.5135 26.6004C60.2635 26.1918 58.9049 26.1724 57.6193 26.422ZM113.398 27.244C112.453 27.4823 111.533 28.1486 111.248 29.1164C110.959 30.2026 111.529 31.3634 112.425 31.9843C113.505 32.7187 114.808 33.0802 116.1 33.1937C117.211 33.3429 118.347 32.7122 118.891 31.7492C119.299 30.9224 119.333 29.8881 118.897 29.0662C118.43 28.2151 117.534 27.7011 116.631 27.4272C115.588 27.1224 114.466 27.0284 113.398 27.244ZM79.6551 34.6771C78.1733 34.9689 76.685 35.2299 75.2291 35.6368C73.2301 36.1637 71.2198 36.6695 69.2954 37.4298C68.1297 37.8108 66.99 38.2648 65.826 38.6473C64.1334 39.2196 62.2592 39.7741 60.4937 39.1856C59.2178 38.8386 57.9873 37.8157 57.9176 36.415C57.877 36.0956 58.3002 35.7779 58.0116 35.4958C57.6209 35.2769 57.4345 35.786 57.3988 36.0859C57.1394 36.9856 57.5609 37.9243 58.1591 38.589C59.2227 39.7838 60.899 40.1842 62.4376 40.2393C64.5938 40.1518 66.5879 39.2488 68.5934 38.5404C72.5119 37.0132 76.5715 35.7941 80.7397 35.1796C82.9008 34.9138 85.0635 34.5798 87.2473 34.5831C91.2923 34.4777 95.3324 35.0694 99.2299 36.1313C101.907 36.9354 104.582 37.7735 107.166 38.8468C108.683 39.4207 110.225 40.0951 111.879 40.0707C113.322 40.0399 114.854 39.6881 115.927 38.6652C116.749 37.8465 117.326 36.689 117.213 35.5071C117.624 35.7325 117.83 36.1507 118.101 36.5106C118.237 35.4552 117.102 34.93 116.251 34.7225C116.037 34.8343 115.822 34.9446 115.608 35.0548C115.76 35.0337 115.912 35.0127 116.066 34.9932C116.284 35.1602 116.764 35.2186 116.7 35.5882C116.66 37.1332 115.42 38.3701 114.048 38.9051C112.496 39.3218 110.801 39.4336 109.273 38.8549C107.458 38.3134 105.707 37.5936 103.93 36.9435C101.475 36.1977 99.0256 35.4034 96.4916 34.9656C92.6606 34.1032 88.7064 34.0643 84.7993 34.1761C83.0856 34.3464 81.3622 34.4339 79.6551 34.6771Z" fill="#A3C25A"/>
<path d="M56.7002 36.3948C57.1055 35.8544 58.1593 34.9357 59.132 35.5842" stroke="black" stroke-width="0.483801" stroke-linecap="round"/>
<path d="M85.1415 22.7393C85.5662 22.3908 86.1855 22.8804 86.0785 23.3781C86.038 23.8482 85.3992 24.0233 85.075 23.725C84.7362 23.4899 84.7994 22.9387 85.1415 22.7393Z" fill="#020304"/>
<path d="M89.4895 22.7449C89.8607 22.5909 90.3568 22.9573 90.2579 23.3658C90.2174 23.7063 89.8996 24.0743 89.5284 23.9657C88.9998 23.8182 88.9674 22.92 89.4895 22.7449Z" fill="#030305"/>
<path d="M57.6191 26.4215C58.9047 26.1718 60.2633 26.1913 61.5133 26.5998C62.4844 26.9094 63.1459 27.8303 63.3567 28.7981C63.6906 30.5295 62.5574 32.4052 60.8713 32.9208C59.5516 33.3536 58.1574 33.6082 56.7647 33.5271C55.4677 33.3974 54.1205 32.7019 53.5968 31.4536C53.1721 30.5587 53.2791 29.4547 53.8611 28.6554C54.6879 27.3763 56.1713 26.71 57.6191 26.4215Z" fill="#D8C67E"/>
<path d="M113.397 27.2445C114.466 27.0289 115.588 27.1229 116.63 27.4277C117.533 27.7017 118.43 28.2156 118.897 29.0667C119.333 29.8887 119.299 30.923 118.89 31.7498C118.347 32.7128 117.211 33.3434 116.1 33.1943C114.808 33.0808 113.504 32.7192 112.425 31.9849C111.528 31.3639 110.959 30.2032 111.248 29.117C111.533 28.1491 112.452 27.4828 113.397 27.2445Z" fill="#D8C77C"/>
<path d="M50.972 68.8337C51.0936 67.5368 51.7421 66.0713 53.0618 65.6108C52.7068 66.1199 52.1474 66.4522 51.8443 67.0051C51.4244 67.7476 51.0207 68.6149 51.2493 69.4855C51.4309 70.1307 52.0113 70.5716 52.6257 70.7775C51.5687 70.9089 50.8602 69.7886 50.972 68.8337Z" fill="#020203"/>
<path d="M44.7618 70.0782C44.5057 69.6859 44.2884 69.2611 44.2722 68.7829C44.6062 69.3195 44.8769 69.9615 45.5044 70.2225C45.2514 70.2014 45.005 70.1463 44.7618 70.0782Z" fill="#020203"/>
<path d="M118.423 72.947C119.297 72.4606 120.414 72.1737 121.341 72.686C122.124 73.0799 122.332 74.0542 122.238 74.8551C122.065 76.1958 121.234 77.3258 120.382 78.3277C119.245 79.5144 117.355 80.3476 115.779 79.5387C115.25 79.3312 115.025 78.7816 114.813 78.3017C114.743 77.6986 114.764 77.0712 115.011 76.5087C115.665 74.954 116.972 73.7592 118.423 72.947ZM119.388 72.7946C118.234 73.1837 117.261 73.9748 116.418 74.834C115.725 75.6057 115.072 76.5184 115.009 77.5884C114.949 78.3698 115.367 79.2631 116.181 79.4641C117.528 79.991 118.981 79.2987 119.983 78.3925C120.826 77.5689 121.515 76.5654 121.906 75.4501C122.144 74.6492 122.201 73.5711 121.457 73.0151C120.891 72.5125 120.062 72.6325 119.388 72.7946Z" fill="#020203"/>
<path d="M56.1859 49.4982C56.9446 50.0753 57.6255 50.8551 58.5723 51.1096C58.9809 51.6495 59.618 51.9332 60.1709 52.2963C62.1601 53.5657 64.3731 54.412 66.4742 55.469C66.1224 55.8824 66.0527 56.4238 66.0705 56.9491C66.0187 56.9361 65.9117 56.9086 65.8582 56.894C66.231 57.8861 66.9525 58.6903 67.4843 59.5981C68.4132 61.2209 69.8302 62.4935 70.8078 64.0839C70.2971 64.319 69.8059 64.6416 69.2368 64.7194C68.2738 64.7924 67.3756 64.3433 66.5585 63.8878C65.7398 63.4387 65.0297 62.8307 64.3115 62.2423C61.9915 60.2985 59.9196 58.0661 58.1314 55.6246C57.1473 54.245 56.1081 52.8929 55.3169 51.3885C55.6282 50.7692 56.0448 50.1888 56.1859 49.4982Z" fill="#448E5D"/>
<path d="M58.1946 72.7339C58.9825 73.9579 59.6358 75.2727 60.5162 76.4383C61.0804 77.1662 61.6754 77.8698 62.2979 78.5474C62.64 78.9219 62.7551 79.4342 62.8832 79.9108C60.1563 80.4815 57.4358 81.1656 54.6441 81.3294C53.1379 81.365 51.5751 81.1251 50.2505 80.3729C49.5485 79.9335 48.9179 79.3661 48.438 78.6901C48.806 78.7323 49.2535 78.8911 49.461 78.468C50.5488 79.5963 52.5073 80.0908 53.8075 79.0403C54.6295 78.9916 55.5049 78.9544 56.2215 78.4988C56.9705 78.0287 57.4148 77.2083 57.6612 76.3815C58.0243 75.1965 57.9854 73.9449 58.1946 72.7339Z" fill="#448E5D"/>
<path d="M109.561 78.0306C110.812 76.6607 111.735 75.0444 112.774 73.5221C112.826 74.5872 113.051 75.6556 113.479 76.6364C113.798 77.2703 114.153 77.9576 114.812 78.3013C115.024 78.7812 115.249 79.3308 115.778 79.5383C117.354 80.3473 119.244 79.514 120.381 78.3273C120.815 78.431 121.261 78.3581 121.694 78.2803C120.431 79.5983 118.912 80.7963 117.078 81.1611C114.197 81.748 111.284 81.0055 108.478 80.37C108.896 79.6161 109.137 78.7763 109.561 78.0306Z" fill="#448E5D"/>
<path d="M115.992 51.2236C116.234 51.0712 116.49 50.9448 116.748 50.8232C118.162 53.4009 119.277 56.1406 120.143 58.9485C120.712 60.7367 121.132 62.5767 121.305 64.4476C120.091 64.4184 118.877 64.6324 117.75 65.0879C117.074 65.3797 116.513 65.8629 115.918 66.286C116.365 65.2387 116.727 64.1477 116.845 63.0096C117.058 61.4111 117.424 59.7997 117.182 58.1801C117.019 58.3114 117.015 58.5286 116.972 58.7151C115.005 60.3509 112.797 61.7013 110.436 62.6886C109.084 63.2284 107.768 63.8575 106.385 64.3163C105.017 64.7718 103.66 65.2565 102.296 65.7267C101.332 66.0461 100.344 66.3979 99.3115 66.3411C100.438 64.3227 101.716 62.3968 103.121 60.5632C103.574 59.9212 104.123 59.3328 104.428 58.5984C104.23 58.7248 104.034 58.8529 103.84 58.9826C103.979 58.4054 103.793 57.8234 103.692 57.256C103.498 57.1879 103.303 57.1231 103.11 57.0615C105.192 56.5216 107.262 55.904 109.219 54.9993C109.332 55.0204 109.444 55.0431 109.559 55.0674C109.634 55.1631 109.708 55.2604 109.785 55.3592C109.919 55.0723 110.104 54.7983 110.149 54.4822C110.132 54.252 110.015 54.0445 109.935 53.8321C110.44 53.6375 110.928 53.4057 111.433 53.2144C111.695 53.2225 111.962 53.229 112.205 53.1107C113.52 52.5967 114.814 52.0034 115.992 51.2236Z" fill="#458F5E"/>
<path d="M58.5718 51.108C60.7329 52.4698 63.0561 53.5657 65.4588 54.433C68.4694 55.9407 71.8189 56.5357 75.0759 57.2668C77.6342 57.8861 80.2736 57.9834 82.8822 58.2476C84.8731 58.3319 86.8655 58.4681 88.8597 58.4292C92.8414 58.2622 96.8556 58.1034 100.753 57.1987C102.523 56.787 104.297 56.38 106.043 55.8694C107.029 55.5922 107.968 55.1528 108.976 54.9566C109.038 54.9664 109.159 54.9875 109.219 54.9988C107.262 55.9034 105.192 56.5211 103.11 57.0609C95.4305 58.9253 87.4297 59.483 79.5684 58.674C75.1003 58.1131 70.6921 57.0366 66.4737 55.4673C64.3726 54.4103 62.1596 53.5641 60.1703 52.2947C59.6175 51.9315 58.9803 51.6478 58.5718 51.108Z" fill="#040303"/>
<path d="M47.9657 72.0491C48.3272 71.4704 49.0633 71.224 49.715 71.3747C51.0104 71.6293 51.9847 72.6279 52.7386 73.6493C53.4973 74.7354 54.2609 75.9108 54.3485 77.2726C54.449 77.913 54.162 78.5225 53.807 79.038C52.5068 80.0886 50.5483 79.5941 49.4605 78.4658C48.5137 77.519 47.8846 76.2707 47.609 74.9656C47.4291 73.9962 47.4177 72.9084 47.9657 72.0491ZM49.0162 71.6276C48.0678 71.8757 47.6982 72.9716 47.7176 73.8551C47.7744 75.3337 48.3224 76.7976 49.2529 77.9486C49.989 78.8905 51.2163 79.3315 52.3852 79.3218C53.1909 79.3169 54.0113 78.7462 54.1296 77.9178C54.2042 77.1397 54.0145 76.3501 53.6757 75.653C53.1163 74.5798 52.4743 73.5325 51.6264 72.662C50.939 72.0054 50.0003 71.4558 49.0162 71.6276Z" fill="#040303"/>
<path d="M55.3167 51.3878C56.1079 52.8922 57.1471 54.2443 58.1312 55.6239C59.9194 58.0654 61.9914 60.2978 64.3113 62.2415C65.0296 62.83 65.7397 63.438 66.5584 63.887C67.3755 64.3426 68.2736 64.7917 69.2367 64.7187C69.8057 64.6409 70.2969 64.3183 70.8076 64.0832C72.4629 66.5588 74.0696 69.1591 74.7537 72.0935C75.0666 73.0143 74.9596 74.0032 75.1525 74.9419C75.5741 75.4558 76.0345 75.9583 76.2566 76.6003C76.2906 76.9748 76.3312 77.359 76.2615 77.7352C76.0961 77.9881 75.8124 78.1275 75.5789 78.3091C75.3828 77.7157 74.9839 76.9003 74.2528 76.9473C74.6532 77.2861 75.0164 77.6654 75.3422 78.0772C75.1914 78.9316 74.1814 79.0888 73.5329 79.4487L73.0336 79.3969C73.0287 79.5152 73.019 79.7487 73.0141 79.8654C72.0544 80.2966 71.0427 80.5884 70.0084 80.7619C69.8333 80.4895 69.7798 80.0567 69.4036 79.9983C69.4847 80.2058 69.569 80.4117 69.6582 80.6176C69.175 80.83 68.64 80.7603 68.1326 80.7052C66.7951 80.5495 65.4511 80.1848 64.3211 79.4325C63.8169 79.0905 63.2981 78.7743 62.7614 78.4906C60.9521 76.8986 59.7362 74.7619 58.5851 72.6738C57.7988 71.1159 57.1341 69.4963 56.5602 67.8492C55.4075 64.0281 54.8466 60.0222 54.9276 56.0324C54.9276 55.8022 54.9147 55.5753 54.8904 55.3483C54.7234 55.8768 54.699 56.4329 54.6828 56.9824C54.6293 59.7158 54.9844 62.4361 55.4675 65.1208C55.5972 65.6752 55.722 66.2313 55.8971 66.7744C54.6699 65.278 53.0811 63.9097 51.1145 63.5855C51.6009 59.2699 53.4215 55.2462 55.3167 51.3878Z" fill="#A2C159"/>
<path d="M105.209 55.0071C106.788 54.6294 108.395 54.3505 109.935 53.8334C110.014 54.0457 110.131 54.2533 110.149 54.4835C110.104 54.7996 109.919 55.0736 109.784 55.3605C109.708 55.2616 109.633 55.1644 109.559 55.0687C109.444 55.0444 109.332 55.0217 109.218 55.0006C109.158 54.9893 109.037 54.9682 108.975 54.9585C107.967 55.1546 107.028 55.594 106.042 55.8712C104.296 56.3819 102.523 56.7888 100.752 57.2006C96.8548 58.1052 92.8406 58.2641 88.8589 58.431C86.8648 58.4699 84.8723 58.3338 82.8814 58.2495C80.2728 57.9852 77.6335 57.8879 75.0752 57.2687C71.8181 56.5375 68.4686 55.9425 65.458 54.4348C66.3805 54.5208 67.2624 54.8272 68.1768 54.9666C69.73 55.2179 71.2685 55.5599 72.82 55.8209C76.3446 56.4954 79.9324 56.732 83.5056 56.9687C86.8567 57.0725 90.2175 57.0984 93.5572 56.7483C97.479 56.4694 101.385 55.9215 105.209 55.0071Z" fill="#428A5B"/>
<path d="M66.4736 55.4695C70.6921 57.0388 75.1002 58.1152 79.5683 58.6762C87.4297 59.4851 95.4305 58.9275 103.11 57.0631C103.303 57.1247 103.498 57.1896 103.692 57.2576C103.793 57.8251 103.979 58.4071 103.84 58.9842C102.942 60.2552 101.876 61.4014 101.068 62.734C100.179 64.0682 99.4171 65.4786 98.6308 66.8729C98.2693 65.7218 97.7764 64.574 96.8847 63.7294C95.912 62.7988 94.6896 62.1731 93.4753 61.6202C90.2231 60.5081 86.7326 60.4789 83.3344 60.5989C80.0417 60.8275 76.6841 61.3057 73.68 62.7486C72.8386 63.1344 72.0393 63.6029 71.2255 64.0407C70.1117 62.4276 68.7061 61.035 67.6782 59.3619C67.1578 58.5481 66.5417 57.7894 66.0699 56.9496C66.0521 56.4244 66.1218 55.8829 66.4736 55.4695Z" fill="#769F96"/>
<path d="M110.437 62.6875C112.797 61.7002 115.006 60.3498 116.972 58.714C117.037 60.781 116.453 62.7913 115.934 64.7723C115.644 66.0061 115.083 67.149 114.637 68.3292C113.292 71.8634 111.544 75.3149 109.005 78.1454C108.923 78.3254 108.874 78.5199 108.804 78.708C107.621 79.4537 106.426 80.2238 105.1 80.6907C103.942 81.0765 102.699 81.1673 101.491 81.0247C101.619 80.6615 101.76 80.3016 101.908 79.9466C101.387 79.9693 101.415 80.7312 101.168 81.0879C100.092 80.9371 99.0558 80.6015 98.0636 80.1687C98.2257 79.7407 98.4689 79.3532 98.7089 78.9658C98.1771 78.9868 98.0863 79.6434 97.8123 79.9952C96.9061 79.6742 95.9674 79.444 95.0854 79.0566C95.0968 78.9755 95.1211 78.8118 95.1324 78.7307C95.314 78.3027 95.5766 77.9169 95.8263 77.5278C95.3529 77.839 95.0806 78.3513 94.6833 78.7437C94.9055 77.698 95.494 76.7512 96.2657 76.0217C96.1068 75.6245 96.2073 75.2046 96.2722 74.801C96.7245 71.8147 97.9404 69.0069 99.312 66.34C100.345 66.3968 101.332 66.045 102.297 65.7256C103.66 65.2554 105.017 64.7707 106.385 64.3152C107.768 63.8564 109.085 63.2274 110.437 62.6875Z" fill="#A3C25A"/>
<path d="M49.2968 64.3028C49.7913 63.8554 50.5322 63.7127 51.1596 63.9332C52.2264 64.2769 53.1716 64.8978 54.1556 65.4182C54.9533 65.9597 55.5807 66.7216 56.1271 67.5079C56.5664 68.7724 57.0204 70.0353 57.5797 71.2561C57.7726 71.7522 58.0725 72.2142 58.1941 72.7346C57.985 73.9456 58.0239 75.1972 57.6607 76.3822C57.4143 77.209 56.9701 78.0294 56.2211 78.4995C55.5045 78.9551 54.629 78.9923 53.8071 79.041C54.1621 78.5254 54.4491 77.9159 54.3486 77.2755C54.261 75.9137 53.4974 74.7384 52.7387 73.6522C51.9848 72.6308 51.0104 71.6322 49.7151 71.3777C49.0633 71.2269 48.3273 71.4733 47.9658 72.0521C47.4178 72.9113 47.4291 73.9991 47.6091 74.9686C47.8847 76.2736 48.5137 77.5219 49.4605 78.4687C49.253 78.8918 48.8056 78.733 48.4375 78.6908C46.6218 76.4568 45.1027 73.9197 44.3634 71.1167C44.0829 69.7824 43.9094 68.3866 44.151 67.0329C44.3553 65.783 45.4237 64.6806 46.6931 64.5282C47.1746 64.4731 47.5459 64.1018 48.0241 64.037C48.4181 63.9494 48.7958 64.1375 49.1671 64.2364C48.2057 65.2075 48.2495 66.6941 48.4424 67.9489C48.5089 68.4887 48.7861 68.9653 49.1266 69.3804C48.5851 69.3366 48.0322 69.3415 47.5118 69.5084C46.4061 69.2037 45.8792 67.9521 45.9619 66.887C45.9408 66.0829 46.2991 65.355 46.6866 64.6757C45.9133 65.1086 45.7301 66.0602 45.6425 66.8692C45.4853 68.0802 46.2116 69.3058 47.3108 69.8132C46.7839 70.1488 46.137 69.9964 45.5761 70.2299C45.5582 70.2266 45.5209 70.2218 45.5031 70.2201C44.8757 69.9591 44.605 69.3171 44.271 68.7805C44.2872 69.2588 44.5044 69.6835 44.7606 70.0759C44.6714 70.1326 44.4947 70.2428 44.4072 70.298C45.0913 70.6984 46.0073 71.0016 46.6704 70.3823C46.852 70.298 47.0368 70.2169 47.2216 70.1423C47.9739 69.9883 48.7277 69.8359 49.4849 69.7127C49.7345 69.7597 49.9826 69.8213 50.2355 69.8619C49.514 69.5182 48.8688 68.894 48.7099 68.0867C48.4375 66.8173 48.4862 65.3761 49.2968 64.3028ZM50.9715 68.8324C50.8597 69.7873 51.5682 70.9075 52.6252 70.7762C52.0107 70.5703 51.4303 70.1294 51.2488 69.4841C51.0202 68.6136 51.4239 67.7462 51.8438 67.0037C52.1469 66.4509 52.7063 66.1186 53.0613 65.6095C51.7416 66.0699 51.0931 67.5355 50.9715 68.8324Z" fill="#9FC36B"/>
<path d="M119.01 65.1673C120.211 64.7765 121.518 64.8236 122.729 65.1527C123.225 65.2775 123.665 65.5709 123.963 65.9876C125.253 66.2129 126.084 67.5779 126.009 68.8327C125.951 72.4123 124.106 75.7276 121.693 78.2777C121.26 78.3555 120.815 78.4285 120.38 78.3247C121.233 77.3229 122.063 76.1929 122.236 74.8522C122.33 74.0513 122.123 73.077 121.34 72.683C120.412 72.1707 119.295 72.4577 118.422 72.944C116.971 73.7563 115.664 74.9511 115.009 76.5058C114.762 77.0683 114.741 77.6957 114.811 78.2988C114.153 77.9551 113.798 77.2677 113.478 76.6338C113.05 75.653 112.825 74.5847 112.773 73.5196C113.61 71.6779 114.456 69.8362 115.259 67.9768C115.813 66.3912 117.465 65.5272 119.01 65.1673ZM121.75 66.2405C121.961 66.5323 122.23 66.7819 122.403 67.1013C122.982 68.4745 122.34 70.3729 120.811 70.7781C120.993 70.8235 121.202 70.9403 121.382 70.8252C122.244 70.9695 123.164 71.9535 124.021 71.305C125.221 70.355 125.634 68.5863 125.012 67.1953C124.871 66.7398 124.415 66.5177 124.01 66.3491C124.401 66.7738 124.842 67.2002 124.954 67.7936C125.219 68.9803 124.902 70.5252 123.684 71.0619C123.063 71.2548 122.658 70.6096 122.215 70.2999C122.888 69.4472 123.141 68.241 122.744 67.2148C122.565 66.7755 122.296 66.2437 121.75 66.2405ZM118.671 66.4301C118.882 66.7155 119.291 66.7317 119.529 66.9943C120.38 67.8049 120.476 69.1408 120.059 70.1913C119.882 70.7944 119.291 71.1073 118.765 71.3585C118.501 71.4607 118.094 71.5142 117.924 71.2321C117.851 70.6355 117.794 70.0357 117.648 69.452C117.415 69.4083 117.186 69.3499 116.962 69.2769C117.554 69.8703 117.687 70.7198 117.681 71.5239C118.54 71.6341 119.576 71.5061 120.082 70.7068C120.706 69.7292 120.785 68.3626 120.137 67.3737C119.839 66.8533 119.312 66.3718 118.671 66.4301Z" fill="#A0C36A"/>
<path d="M121.749 66.2408C122.296 66.2441 122.565 66.7758 122.743 67.2152C123.14 68.2414 122.887 69.4475 122.215 70.3003C122.657 70.6099 123.062 71.2552 123.683 71.0622C124.901 70.5256 125.219 68.9806 124.953 67.7939C124.841 67.2006 124.4 66.7742 124.009 66.3495C124.415 66.5181 124.87 66.7402 125.011 67.1957C125.634 68.5867 125.22 70.3554 124.021 71.3054C123.249 71.4027 122.714 70.7672 122.153 70.357C121.897 70.5159 121.645 70.6813 121.381 70.8255C121.201 70.9406 120.992 70.8239 120.811 70.7785C122.339 70.3732 122.981 68.4748 122.403 67.1017C122.229 66.7823 121.96 66.5327 121.749 66.2408Z" fill="#070B08"/>
<path d="M118.671 66.431C119.311 66.3727 119.838 66.8542 120.137 67.3746C120.785 68.3635 120.706 69.7301 120.081 70.7077C119.576 71.5069 118.54 71.635 117.68 71.5248C117.687 70.7207 117.554 69.8712 116.962 69.2778C117.186 69.3508 117.414 69.4091 117.648 69.4529C117.794 70.0365 117.851 70.6364 117.924 71.233C118.094 71.515 118.501 71.4615 118.765 71.3594C119.29 71.1081 119.882 70.7952 120.059 70.1922C120.475 69.1416 120.38 67.8058 119.529 66.9952C119.29 66.7326 118.882 66.7164 118.671 66.431Z" fill="#070B08"/>
<path d="M47.5126 69.5065C48.033 69.3396 48.5859 69.3347 49.1274 69.3785C49.2976 69.4125 49.4176 69.5568 49.4857 69.7108C48.7285 69.834 47.9747 69.9864 47.2224 70.1404C47.3845 69.9621 47.4607 69.7351 47.5126 69.5065Z" fill="#40954C"/>
<path d="M44.4082 70.2994C44.4957 70.2443 44.6725 70.134 44.7616 70.0773C45.0048 70.1454 45.2512 70.2005 45.5042 70.2216C45.522 70.2232 45.5593 70.228 45.5771 70.2313C45.9386 70.2994 46.3034 70.3561 46.6714 70.3837C46.0084 71.003 45.0924 70.6998 44.4082 70.2994Z" fill="#63A153"/>
<path d="M121.381 70.8258C121.645 70.6815 121.896 70.5161 122.152 70.3572C122.713 70.7674 123.248 71.4029 124.02 71.3056C123.162 71.9541 122.243 70.97 121.381 70.8258Z" fill="#60A14D"/>
<path d="M49.0156 71.6289C49.9997 71.4571 50.9384 72.0067 51.6258 72.6632C52.4737 73.5338 53.1157 74.5811 53.6751 75.6543C54.0139 76.3514 54.2036 77.1409 54.129 77.9191C54.0107 78.7475 53.1903 79.3182 52.3846 79.323C51.2157 79.3328 49.9884 78.8918 49.2523 77.9499C48.3218 76.7989 47.7738 75.3349 47.717 73.8564C47.6976 72.9729 48.0672 71.877 49.0156 71.6289Z" fill="#60A14D"/>
<path d="M119.386 72.7934C120.061 72.6313 120.889 72.5113 121.455 73.0138C122.199 73.5699 122.142 74.648 121.904 75.4489C121.513 76.5642 120.824 77.5677 119.981 78.3913C118.979 79.2975 117.527 79.9898 116.179 79.4629C115.365 79.2619 114.947 78.3686 115.007 77.5872C115.07 76.5172 115.724 75.6045 116.416 74.8328C117.259 73.9736 118.232 73.1825 119.386 72.7934Z" fill="#62A34C"/>
<path d="M76.257 76.6004C76.5261 77.3705 76.3365 78.1827 76.1192 78.9398C76.0738 79.1975 75.876 79.3694 75.6604 79.4958C75.6734 79.097 75.6604 78.6998 75.5793 78.3091C75.8128 78.1276 76.0965 77.9881 76.2619 77.7352C76.3316 77.3591 76.2911 76.9749 76.257 76.6004Z" fill="#5D9860"/>
<path d="M90.881 78.4749C92.3369 78.0518 93.7084 77.4098 95.0849 76.7921C94.7444 77.5524 94.3407 78.3274 94.4283 79.1915C93.1977 79.2433 92.0321 79.7313 90.7951 79.7475C87.8379 80.0507 84.8516 80.1155 81.8848 79.9064C80.0171 79.8124 78.143 79.72 76.2964 79.4087C76.5201 78.8413 76.6968 78.2463 76.6968 77.6319C78.9212 78.556 81.2249 79.4282 83.66 79.5222C86.1016 79.5968 88.5789 79.3228 90.881 78.4749Z" fill="#789F98"/>
<path d="M75.342 78.0789C75.3664 78.8408 75.4798 79.6319 75.2902 80.3793C74.8638 81.2888 73.998 82.1594 72.9377 82.1723C73.2571 81.3747 73.275 80.509 73.2377 79.6644C73.3106 79.6109 73.4598 79.5039 73.5327 79.4504C74.1812 79.0905 75.1913 78.9332 75.342 78.0789Z" fill="#45905E"/>
<path d="M62.761 78.4901C63.2976 78.7738 63.8164 79.0899 64.3206 79.432C65.4506 80.1842 66.7946 80.5489 68.1321 80.7046C68.6396 80.7597 69.1746 80.8294 69.6577 80.617C69.7907 81.2931 70.0338 82.1442 69.4923 82.7084C69.1503 83.1153 68.5909 83.1558 68.0997 83.1915C67.2745 83.2012 66.4525 82.9742 65.7441 82.5527C64.9205 82.1085 64.3547 81.3352 63.7953 80.6089C63.309 79.9783 63.0107 79.2374 62.761 78.4901Z" fill="#448C5D"/>
<path d="M97.5592 82.0007C96.0952 81.7591 94.6912 80.2693 95.1322 78.7308C95.1209 78.8118 95.0965 78.9756 95.0852 79.0566C95.9671 79.4441 96.9058 79.6743 97.8121 79.9953C97.6062 80.6421 97.4733 81.3198 97.5592 82.0007Z" fill="#458E5E"/>
<path d="M105.099 80.6922C106.425 80.2253 107.62 79.4552 108.804 78.7095C108.011 80.5106 106.522 82.0248 104.652 82.6895C103.642 83.1126 102.455 83.5001 101.391 83.038C101.158 82.4058 101.346 81.673 101.49 81.0261C102.698 81.1688 103.941 81.078 105.099 80.6922Z" fill="#428D5C"/>
<path d="M70.0077 80.7606C71.042 80.5872 72.0537 80.2954 73.0134 79.8641C73.0491 80.5953 72.994 81.3394 72.7313 82.03C72.613 82.27 72.613 82.6477 72.3001 82.7239C71.5689 83.0157 70.7632 83.0027 69.9915 82.9622C70.2703 82.2554 70.1974 81.4788 70.0077 80.7606Z" fill="#478F5D"/>
<path d="M98.0641 80.1688C99.0563 80.6016 100.092 80.9372 101.169 81.088C101.007 81.717 101.099 82.4044 100.927 83.0156C99.9885 83.3528 98.8229 83.1842 98.1192 82.4481C97.6523 81.7754 97.8809 80.9015 98.0641 80.1688Z" fill="#448E5E"/>
<path d="M64.8861 3.51624C68.033 2.13986 71.5786 1.62108 74.9735 2.2193C78.7072 2.69268 81.888 5.36277 83.5482 8.66187C83.8692 9.28764 84.0281 9.97502 84.2761 10.6284C84.2518 10.7678 84.2031 11.0434 84.1804 11.1828L84.1188 11.2606C83.8773 9.71563 83.185 8.28251 82.256 7.03744C80.9347 5.09041 78.9422 3.62162 76.7163 2.8775C70.7015 1.12662 63.6864 3.02502 59.5782 7.81237C59.5215 7.77184 59.4096 7.68916 59.3545 7.64701C60.893 5.91559 62.7672 4.46625 64.8861 3.51624Z" fill="#020202"/>
<path fill-rule="evenodd" clip-rule="evenodd" d="M79.3928 2.40542C75.7402 0.318961 71.2429 -0.180362 67.2076 0.993372C63.7593 1.89475 60.6919 4.12711 58.7107 7.08414C56.5626 10.1887 55.6255 14.1476 56.2724 17.878C56.399 18.8013 56.7435 19.6656 57.0863 20.5256C57.1606 20.7119 57.2348 20.8981 57.3068 21.0847C57.1952 21.322 56.9875 21.4954 56.7798 21.6689C56.6583 21.7703 56.5368 21.8718 56.4345 21.986C55.5019 22.7755 54.7291 23.7234 53.9597 24.6673C53.8838 24.7604 53.8079 24.8534 53.7319 24.9463C51.219 28.1514 49.8864 32.1557 49.5005 36.1795C49.4292 37.9287 49.5881 39.6812 49.9658 41.3899C50.7355 44.2177 52.0753 46.9613 54.1186 49.082C54.6492 49.4898 55.3435 50.0253 55.8839 50.447C55.9532 50.2585 56.0057 50.0636 56.0325 49.859C56.0576 49.8306 56.0961 49.7885 56.1345 49.7464C56.1731 49.7042 56.2116 49.662 56.2367 49.6336C55.0435 48.5312 53.9946 47.2699 53.1369 45.8887C51.6308 43.2381 50.757 40.2162 50.7245 37.1603C50.838 32.381 52.6992 27.6229 55.9984 24.1422C56.642 23.4029 57.3765 22.7545 58.1141 22.1109C58.2398 22.2513 58.3637 22.3939 58.4878 22.5366C58.9913 23.1159 59.4969 23.6977 60.1277 24.1438C62.4461 25.9612 65.4648 26.6356 68.3652 26.5821C70.2085 26.4848 72.0778 26.274 73.806 25.5883C77.4392 24.2557 80.7336 21.7963 82.6969 18.4243C83.9209 16.3184 84.7445 13.8396 84.3489 11.3835C84.3117 11.4363 84.2487 11.5292 84.1987 11.6028C84.1813 11.6286 84.1654 11.652 84.1528 11.6705C84.3733 14.1152 83.5027 16.5356 82.2462 18.5994C78.8286 24.2411 71.726 27.2873 65.2735 26.0503C63.4642 25.7001 61.6954 24.9949 60.246 23.8407C58.5373 22.4513 57.2857 20.4962 56.8074 18.34C56.2416 16.0055 56.5075 13.5105 57.3829 11.2862C57.8823 10.1336 58.594 9.0863 59.3382 8.07955C59.1721 8.02751 59.026 8.10898 58.8831 8.18864C58.839 8.21321 58.7952 8.23762 58.7513 8.25788C58.9041 8.02471 59.0759 7.80516 59.2477 7.58563C59.3601 7.44188 59.4726 7.29815 59.5797 7.15061C61.6354 4.11252 65.0157 2.1282 68.5711 1.3938C70.7241 0.858814 73.0116 0.931767 75.1484 1.51377C79.6879 2.48161 83.5108 6.24761 84.4673 10.7999C84.5964 11.0302 84.6091 11.307 84.6217 11.5824C84.6378 11.9332 84.6538 12.2818 84.9099 12.5297C85.0848 12.4997 85.2422 12.4162 85.3995 12.3328C85.5994 12.2268 85.7992 12.1208 86.035 12.1244C86.9236 12.0356 87.8164 12.0487 88.7092 12.0617C89.056 12.0667 89.4027 12.0718 89.7493 12.0709C90.0148 12.0628 90.2761 12.1169 90.5364 12.1708C90.9008 12.2463 91.2634 12.3214 91.6331 12.2249C91.7272 11.009 91.9671 9.77044 92.5426 8.68587C92.7271 8.06412 93.0727 7.50087 93.4145 6.94386C93.5023 6.80082 93.5898 6.6582 93.6743 6.51511C94.4217 5.25059 95.5209 4.23087 96.7271 3.40731C98.3499 2.32436 100.187 1.51053 102.132 1.25438C104.697 0.902586 107.367 0.957706 109.841 1.78289C112.815 2.8788 115.629 4.73668 117.352 7.44891C117.38 7.49454 117.407 7.5402 117.435 7.58589C117.946 8.43148 118.465 9.29039 118.735 10.2471C118.503 9.94432 118.299 9.62302 118.094 9.30175C117.863 8.9383 117.632 8.57489 117.361 8.23842C115.537 5.95418 113.134 4.11901 110.414 3.03606C108.004 2.10388 105.386 1.69696 102.81 1.93041C100.518 2.14765 98.2964 2.96311 96.3688 4.21466C94.5886 5.31219 93.4489 7.14737 92.5572 8.98903L92.5533 8.909C92.5531 8.90272 92.5528 8.89644 92.5524 8.89014L92.5533 8.909C92.5611 9.12173 92.4776 9.31833 92.3944 9.51441C92.3475 9.62492 92.3007 9.73527 92.2703 9.84826C91.5278 12.1082 91.7045 14.6242 92.6026 16.8145C93.3533 18.7939 94.754 20.4362 96.231 21.9163C98.3094 23.8017 100.843 25.1749 103.531 25.966C106.119 26.7636 108.928 26.8561 111.553 26.18C113.643 25.6077 115.548 24.4745 117.163 23.043C117.305 22.8408 117.475 22.9901 117.615 23.1127C117.639 23.1336 117.661 23.1537 117.683 23.1711C119.833 25.1198 121.59 27.5321 122.591 30.2686C123.494 32.4329 123.909 34.7901 123.878 37.1295C123.688 40.9473 122.104 44.6534 119.531 47.471C118.32 48.7793 116.949 49.9416 115.488 50.9614C115.524 50.9865 115.577 51.0245 115.63 51.0626C115.683 51.1007 115.736 51.1389 115.772 51.164C116.123 50.9922 116.47 50.8138 116.814 50.6274C116.861 50.7199 116.908 50.8125 116.954 50.9052L118.083 50.4215C118.078 50.4134 118.074 50.4053 118.069 50.3972C119.693 49.3418 120.901 47.8033 122.06 46.281C124.502 42.9333 125.472 38.6258 124.953 34.534C124.89 34.2157 124.858 33.8933 124.827 33.5709C124.8 33.2987 124.773 33.0265 124.727 32.7571C124.283 30.8587 123.593 29.0122 122.6 27.3294C121.724 25.5976 120.397 24.1742 119.081 22.7629C118.817 22.4805 118.555 22.1985 118.296 21.9147C119.189 20.2384 120.045 18.4875 120.232 16.568C120.567 14.3876 120.164 12.1779 119.525 10.0914C119.092 8.80259 118.413 7.60778 117.638 6.49728C115.073 2.91447 110.832 0.639955 106.451 0.343279C103.379 0.218448 100.175 0.562138 97.4323 2.04714C94.0293 3.84016 91.3121 7.17331 90.7301 11.0285C89.0359 10.8453 87.2834 10.7334 85.6102 11.0933C85.3979 9.9666 84.9715 8.90311 84.4932 7.86717C83.3827 5.5878 81.5166 3.75262 79.3928 2.40542ZM92.306 10.5664C93.0047 7.96282 94.6697 5.5959 96.9719 4.17251C100.307 2.14441 104.478 1.60942 108.236 2.62752C111.602 3.44784 114.705 5.38028 116.877 8.08603C118.098 9.68614 119.227 11.4435 119.604 13.4521C119.641 13.5864 119.659 13.7271 119.677 13.8678C119.711 14.133 119.745 14.398 119.903 14.6194C119.915 14.6324 119.932 14.6518 119.95 14.6713C119.967 14.6907 119.984 14.7102 119.997 14.7231L119.929 14.775C119.796 14.9142 119.805 15.1114 119.815 15.3047C119.819 15.402 119.824 15.4983 119.81 15.5856C119.732 18.1925 118.758 20.788 116.996 22.722C115.877 23.8374 114.548 24.7339 113.113 25.3873C110.462 26.5221 107.447 26.6437 104.661 25.9676C103.35 25.6272 102.041 25.2414 100.821 24.648C99 23.7499 97.2361 22.6685 95.8386 21.1771C94.7621 19.9968 93.7148 18.7485 93.0712 17.2733C92.1568 15.1868 91.7304 12.8037 92.306 10.5664Z" fill="#020202"/>
<path d="M68.571 1.39719C70.724 0.862202 73.0116 0.935155 75.1484 1.51716C79.6878 2.485 83.5107 6.251 84.4672 10.8033L84.2759 10.6314C84.0279 9.97809 83.869 9.29071 83.548 8.66494C81.8878 5.36584 78.707 2.69576 74.9733 2.22237C71.5784 1.62416 68.0328 2.14293 64.886 3.51932C62.767 4.46933 60.8929 5.91866 59.3543 7.65008C59.4094 7.69223 59.5213 7.77491 59.578 7.81544C59.5035 7.90947 59.424 7.99863 59.3381 8.08294C59.1209 8.01485 58.9377 8.17534 58.7512 8.26127C59.0041 7.87543 59.3089 7.52687 59.5797 7.154C61.6354 4.11591 65.0157 2.13159 68.571 1.39719Z" fill="#9FC15C"/>
<path d="M102.132 1.25723C104.697 0.90543 107.367 0.96055 109.841 1.78573C112.815 2.88165 115.629 4.73952 117.352 7.45175C117.889 8.34178 118.45 9.24154 118.735 10.2499C118.241 9.60468 117.871 8.87515 117.361 8.24127C115.537 5.95703 113.134 4.12185 110.414 3.0389C108.004 2.10672 105.386 1.69981 102.81 1.93326C100.518 2.1505 98.2965 2.96595 96.3688 4.2175C94.5887 5.31504 93.449 7.15021 92.5573 8.99187L92.5525 8.89298L92.5427 8.68871C92.7746 7.9073 93.2609 7.2183 93.6743 6.51795C94.4217 5.25343 95.5209 4.23371 96.7271 3.41015C98.35 2.3272 100.187 1.51337 102.132 1.25723Z" fill="#A1C45B"/>
<path d="M96.9716 4.17666C100.306 2.14857 104.478 1.61358 108.236 2.63168C111.602 3.452 114.705 5.38444 116.877 8.09019C118.098 9.69029 119.226 11.4477 119.604 13.4563C119.709 13.8438 119.661 14.2847 119.902 14.6235C119.927 14.6495 119.972 14.7014 119.996 14.7273L119.928 14.7792C119.729 14.9883 119.85 15.3288 119.81 15.5898C119.732 18.1966 118.758 20.7921 116.995 22.7262C115.877 23.8416 114.547 24.7381 113.113 25.3914C110.462 26.5262 107.446 26.6478 104.661 25.9718C103.35 25.6314 102.041 25.2455 100.82 24.6522C98.9997 23.754 97.2358 22.6727 95.8383 21.1812C94.7618 20.001 93.7145 18.7527 93.0709 17.2774C92.1565 15.191 91.7301 12.8078 92.3057 10.5706C93.0044 7.96698 94.6694 5.60006 96.9716 4.17666Z" fill="white"/>
<path d="M59.5776 7.81559C63.6858 3.02825 70.7009 1.12985 76.7156 2.88072C78.9416 3.62484 80.9341 5.09363 82.2554 7.04067C83.1844 8.28573 83.8766 9.71886 84.1182 11.2638C84.1214 11.4 84.1328 11.5362 84.1522 11.674C84.3727 14.1187 83.5021 16.5392 82.2457 18.6029C78.8281 24.2446 71.7255 27.2908 65.273 26.0539C63.4637 25.7037 61.6949 24.9985 60.2455 23.8442C58.5367 22.4548 57.2851 20.4997 56.8069 18.3435C56.2411 16.009 56.507 13.514 57.3824 11.2898C57.8818 10.1371 58.5935 9.08984 59.3376 8.08309C59.4236 7.99878 59.503 7.90962 59.5776 7.81559Z" fill="white"/>
<path d="M91.6337 12.2285C91.7277 11.0127 91.9677 9.77408 92.5432 8.68951L92.5529 8.89378C92.574 9.23423 92.3568 9.53253 92.2708 9.8519C91.5283 12.1118 91.705 14.6279 92.6032 16.8181C93.3538 18.7976 94.7546 20.4398 96.2315 21.92C98.3099 23.8054 100.844 25.1785 103.532 25.9697C106.119 26.7673 108.929 26.8597 111.554 26.1837C113.644 25.6114 115.549 24.4782 117.163 23.0467C117.33 22.81 117.535 23.0548 117.684 23.1748C119.833 25.1234 121.591 27.5357 122.591 30.2723C123.494 32.4365 123.909 34.7937 123.878 37.1331C123.689 40.951 122.105 44.657 119.532 47.4746C118.321 48.7829 116.949 49.9453 115.489 50.965C114.234 51.8242 112.805 52.3706 111.432 53.0061C110.048 53.648 108.584 54.0939 107.121 54.5202C105.758 54.9272 104.344 55.1071 102.955 55.3973C96.9141 56.6359 90.7242 57.0493 84.5667 56.9245C80.4423 56.8547 76.3341 56.3976 72.2616 55.7604C68.7856 55.2173 65.3486 54.3387 62.0981 52.9769C60.0245 52.1031 57.9574 51.1158 56.2373 49.6373C55.0441 48.5349 53.9951 47.2736 53.1375 45.8923C51.6314 43.2417 50.7575 40.2198 50.7251 37.1639C50.8386 32.3847 52.6998 27.6265 55.999 24.1458C56.6426 23.4066 57.377 22.7581 58.1147 22.1145C58.7502 22.8246 59.342 23.5914 60.1283 24.1475C62.4466 25.9648 65.4654 26.6392 68.3657 26.5857C70.2091 26.4884 72.0784 26.2777 73.8066 25.5919C77.4398 24.2593 80.7341 21.8 82.6975 18.4279C83.9215 16.322 84.7451 13.8432 84.3495 11.3872C84.2992 11.4585 84.202 11.6028 84.1533 11.6741C84.1339 11.5363 84.1225 11.4001 84.1193 11.2639L84.1809 11.1861C84.2036 11.0467 84.2522 10.7711 84.2765 10.6317L84.4678 10.8035C84.7613 11.3272 84.4532 12.0907 84.9104 12.5333C85.3076 12.4652 85.6141 12.1216 86.0356 12.128C87.2693 12.0048 88.5112 12.0778 89.7498 12.0745C90.387 12.0551 90.9998 12.3939 91.6337 12.2285ZM85.1001 23.0613C84.758 23.2607 84.6948 23.8119 85.0336 24.0469C85.3579 24.3452 85.9967 24.1702 86.0372 23.7C86.1442 23.2023 85.5249 22.7127 85.1001 23.0613ZM89.4499 23.0678C88.9279 23.2428 88.9603 24.141 89.4888 24.2885C89.8601 24.3971 90.1778 24.0291 90.2184 23.6887C90.3173 23.2801 89.8212 22.9137 89.4499 23.0678ZM58.0223 26.0426C57.0771 26.3652 55.9779 26.7478 55.5207 27.7205C55.2646 28.2701 55.1381 28.9413 55.391 29.5152C55.6958 30.0631 56.2211 30.5252 56.8566 30.6273C58.3838 30.9694 60.2077 30.6403 61.2599 29.4098C61.9327 28.6478 61.7949 27.4287 61.1042 26.7268C60.3439 25.8643 59.068 25.8416 58.0223 26.0426ZM114.136 26.3539C113.603 26.4366 113.055 26.6052 112.661 26.9878C111.962 27.7303 111.938 29.0499 112.723 29.7421C113.871 30.8251 115.758 31.1607 117.147 30.3501C117.654 30.0323 118.134 29.5168 118.128 28.8813C118.196 28.1437 117.637 27.5681 117.132 27.1175C116.332 26.3879 115.177 26.2015 114.136 26.3539Z" fill="#A2C159"/>
<path d="M85.0995 23.0592C85.5242 22.7106 86.1436 23.2002 86.0365 23.6979C85.996 24.1681 85.3573 24.3432 85.033 24.0449C84.6942 23.8098 84.7574 23.2586 85.0995 23.0592Z" fill="#020304"/>
<path d="M89.4497 23.067C89.8209 22.9129 90.317 23.2793 90.2181 23.6879C90.1776 24.0283 89.8598 24.3963 89.4886 24.2877C88.9601 24.1402 88.9276 23.242 89.4497 23.067Z" fill="#030305"/>
<path d="M58.0221 26.0409C59.0678 25.8399 60.3437 25.8626 61.1041 26.7251C61.7947 27.4271 61.9325 28.6462 61.2597 29.4081C60.2075 30.6386 58.3836 30.9677 56.8564 30.6256C56.2209 30.5235 55.6956 30.0615 55.3909 29.5135C55.1379 28.9396 55.2644 28.2685 55.5206 27.7189C55.9777 26.7462 57.0769 26.3636 58.0221 26.0409Z" fill="#D8C67E"/>
<path d="M114.135 26.3525C115.176 26.2002 116.331 26.3866 117.131 27.1161C117.636 27.5668 118.195 28.1423 118.127 28.88C118.133 29.5155 117.653 30.031 117.146 30.3487C115.757 31.1593 113.87 30.8238 112.722 29.7408C111.937 29.0486 111.961 27.7289 112.66 26.9864C113.054 26.6038 113.602 26.4352 114.135 26.3525Z" fill="#D8C67E"/>
<path d="M56.2372 49.6348C57.9574 51.1133 60.0244 52.1006 62.098 52.9745C65.3486 54.3362 68.7856 55.2149 72.2615 55.758C76.3341 56.3951 80.4423 56.8523 84.5667 56.922C90.7241 57.0469 96.914 56.6335 102.955 55.3949C104.344 55.1047 105.758 54.9247 107.121 54.5178C108.584 54.0914 110.048 53.6456 111.432 53.0036C112.805 52.3681 114.234 51.8218 115.488 50.9626C115.56 51.0128 115.701 51.115 115.772 51.1652C113.723 52.2773 111.614 53.2955 109.423 54.1044C105.936 55.2798 102.287 55.8407 98.6665 56.4357C94.5275 56.9561 90.3545 57.2592 86.1798 57.209C82.2143 57.2057 78.2649 56.7923 74.327 56.3611C70.6143 55.8618 66.8742 55.2068 63.3901 53.785C60.7945 52.7783 58.254 51.5543 56.033 49.8602C56.0832 49.8034 56.187 49.6916 56.2372 49.6348Z" fill="#062011"/>
<path d="M81.0614 10.1436C80.9328 9.91722 80.8567 9.66304 80.7316 9.43539C80.5275 9.0714 80.2559 8.75923 79.9947 8.44274C79.2648 7.59444 78.2927 6.97997 77.2312 6.7591C76.6938 6.59747 76.1322 6.65731 75.5816 6.64991C75.2627 6.65793 74.9387 6.63695 74.6279 6.73134C73.8339 6.89977 73.0631 7.19713 72.3516 7.61048C71.5616 8.03617 70.913 8.71542 70.4004 9.4792C70.0187 10.0091 69.7725 10.6353 69.6024 11.2757C69.3649 12.0599 69.4046 12.9051 69.5004 13.712C69.6168 14.2611 69.784 14.8009 70.0164 15.3074C70.4206 16.1224 70.958 16.901 71.7225 17.3637C72.5142 17.9128 73.4534 18.1133 74.3667 18.2959C74.8286 18.3249 75.2927 18.3212 75.7551 18.3052C77.0853 18.1423 78.4524 17.6143 79.4769 16.6963C80.144 16.0584 80.6688 15.234 80.9847 14.324C81.2684 13.6485 81.3618 12.9075 81.4224 12.1765C81.4247 11.7915 81.3699 11.4071 81.2984 11.0302C81.2223 10.7341 81.2113 10.4139 81.0614 10.1436ZM70.5624 11.2597C70.3837 10.8747 70.5076 10.4065 70.7406 10.0801C70.9303 9.79877 71.2768 9.75127 71.5726 9.68834C71.8609 9.67415 72.1532 9.80124 72.3792 9.98817C72.8082 10.3509 72.6272 11.1141 72.2143 11.4059C71.8551 11.6329 71.4244 11.8365 71.0012 11.7014C70.7942 11.6459 70.6443 11.4627 70.5624 11.2597Z" fill="#020202"/>
<path d="M71.5718 9.68821C71.86 9.67402 72.1524 9.80111 72.3784 9.98805C72.8074 10.3508 72.6263 11.114 72.2135 11.4058C71.8543 11.6328 71.4236 11.8364 71.0004 11.7013C70.7934 11.6458 70.6435 11.4625 70.5616 11.2596C70.3828 10.8746 70.5068 10.4063 70.7397 10.08C70.9294 9.79865 71.276 9.75114 71.5718 9.68821ZM71.3365 9.93561C71.054 10.014 70.7991 10.2317 70.7034 10.5328C70.5702 10.8265 70.6896 11.175 70.8839 11.4021C71.0574 11.618 71.3567 11.5347 71.5891 11.5242C71.946 11.3867 72.3513 11.1356 72.4199 10.6988C72.4937 10.4464 72.3836 10.1602 72.1685 10.0325C71.9154 9.8918 71.611 9.81839 71.3365 9.93561Z" fill="#120108"/>
<path d="M71.3366 9.93506C71.611 9.81784 71.9154 9.89125 72.1686 10.0319C72.3836 10.1596 72.4938 10.4459 72.42 10.6982C72.3513 11.135 71.946 11.3861 71.5891 11.5237C71.3567 11.5342 71.0575 11.6175 70.8839 11.4015C70.6896 11.1745 70.5703 10.8259 70.7035 10.5323C70.7992 10.2312 71.054 10.0134 71.3366 9.93506Z" fill="#020202"/>
<path d="M77.8786 11.9277C78.275 11.7361 78.7148 11.8561 79.0804 12.086C79.391 12.2947 79.6642 12.8791 79.5576 13.2915C79.4585 14.0052 79.2625 14.2825 78.747 14.5073C78.4114 14.5245 77.6121 14.6695 77.2248 14.324C76.9442 13.953 76.7718 13.3834 76.9642 12.9036C77.1024 12.4116 77.4705 12.0557 77.8786 11.9277Z" fill="white"/>
<path d="M94.4291 10.1436C94.5576 9.91722 94.6338 9.66304 94.7589 9.43539C94.963 9.0714 95.2346 8.75923 95.4957 8.44274C96.2257 7.59444 97.1978 6.97997 98.2593 6.7591C98.7967 6.59747 99.3583 6.65731 99.9089 6.64991C100.228 6.65793 100.552 6.63695 100.863 6.73134C101.657 6.89977 102.427 7.19713 103.139 7.61048C103.929 8.03617 104.577 8.71542 105.09 9.4792C105.472 10.0091 105.718 10.6353 105.888 11.2757C106.126 12.0599 106.086 12.9051 105.99 13.712C105.874 14.2611 105.706 14.8009 105.474 15.3074C105.07 16.1224 104.533 16.901 103.768 17.3637C102.976 17.9128 102.037 18.1133 101.124 18.2959C100.662 18.3249 100.198 18.3212 99.7354 18.3052C98.4052 18.1423 97.0381 17.8575 96.0135 16.9395C95.3464 16.3016 94.6454 15.4101 94.3923 14.4266C94.1086 13.7511 94.1287 12.9075 94.0681 12.1765C94.0658 11.7915 94.1206 11.4071 94.1921 11.0302C94.2682 10.7341 94.2792 10.4139 94.4291 10.1436ZM104.928 11.2597C105.107 10.8747 104.983 10.4065 104.75 10.0801C104.56 9.79877 104.214 9.75127 103.918 9.68834C103.63 9.67415 103.337 9.80124 103.111 9.98817C102.682 10.3509 102.863 11.1141 103.276 11.4059C103.635 11.6329 104.066 11.8365 104.489 11.7014C104.696 11.6459 104.846 11.4627 104.928 11.2597Z" fill="#020202"/>
<path d="M103.919 9.68821C103.63 9.67402 103.338 9.80111 103.112 9.98805C102.683 10.3508 102.864 11.114 103.277 11.4058C103.636 11.6328 104.067 11.8364 104.49 11.7013C104.697 11.6458 104.847 11.4625 104.929 11.2596C105.108 10.8746 104.984 10.4063 104.751 10.08C104.561 9.79865 104.215 9.75114 103.919 9.68821ZM104.154 9.93561C104.436 10.014 104.691 10.2317 104.787 10.5328C104.92 10.8265 104.801 11.175 104.607 11.4021C104.433 11.618 104.134 11.5347 103.901 11.5242C103.545 11.3867 103.139 11.1356 103.071 10.6988C102.997 10.4464 103.107 10.1602 103.322 10.0325C103.575 9.8918 103.88 9.81839 104.154 9.93561Z" fill="#120108"/>
<path d="M104.154 9.93506C103.879 9.81784 103.575 9.89125 103.322 10.0319C103.107 10.1596 102.997 10.4459 103.071 10.6982C103.139 11.135 103.544 11.3861 103.901 11.5237C104.134 11.5342 104.433 11.6175 104.607 11.4015C104.801 11.1745 104.92 10.8259 104.787 10.5323C104.691 10.2312 104.436 10.0134 104.154 9.93506Z" fill="#020202"/>
<path d="M97.6263 12.0975C97.2358 11.8943 96.8026 12.0216 96.4424 12.2655C96.1364 12.4869 95.7462 13.0991 95.8512 13.5366C95.9489 14.2938 96.3163 14.676 96.8242 14.9146C97.1548 14.9327 98.0234 15.0144 98.2703 14.64C98.5468 14.2464 98.7972 13.6404 98.6077 13.1313C98.4715 12.6093 98.0283 12.2334 97.6263 12.0975Z" fill="white"/>
<path d="M75.946 41.7541C77.5341 43.6849 82.23 46.8924 88.4196 46.8924C94.5503 46.8924 99.334 42.8752 99.9403 41.3804" stroke="black" stroke-width="1.29014"/>
<path d="M74.863 42.4702C74.7043 42.4426 74.7969 42.2281 74.863 42.1243C75.1276 42.0436 75.6963 41.8684 75.8551 41.813C76.0535 41.7438 76.7149 41.2249 76.8472 41.3633C76.9794 41.5017 76.7149 41.7784 76.5495 41.8822C76.3842 41.986 76.2188 42.2627 76.1196 42.2973C76.0204 42.3319 75.0615 42.5048 74.863 42.4702Z" fill="black"/>
<path d="M100.959 41.8231C101.105 41.7993 101.02 41.6155 100.959 41.5266C100.714 41.4574 100.189 41.3071 100.043 41.2597C99.8598 41.2004 99.2492 40.7557 99.1271 40.8743C99.005 40.9929 99.2492 41.2301 99.4019 41.319C99.5545 41.408 99.7071 41.6452 99.7987 41.6748C99.8903 41.7045 100.775 41.8527 100.959 41.8231Z" fill="black"/>
</g>
<defs>
<clipPath id="clip0_11890_36905">
<rect width="84.1453" height="83.9868" fill="white" transform="translate(43)"/>
</clipPath>
</defs>
</svg>
