<svg width="859" height="92" viewBox="0 0 859 92" fill="none" xmlns="http://www.w3.org/2000/svg">
<path d="M39.104 6.832C38.528 8.04799 37.952 9.39199 37.376 10.864C36.8 12.336 36.32 13.584 35.936 14.608C35.36 16.208 34.656 18 33.824 19.984C33.056 21.968 32.224 23.984 31.328 26.032C30.496 28.016 29.632 29.84 28.736 31.504C27.52 33.936 25.984 36.56 24.128 39.376C22.336 42.128 20.416 44.784 18.368 47.344C16.32 49.84 14.208 52.016 12.032 53.872L0.0320003 46.576C1.76 45.36 3.392 43.92 4.928 42.256C6.528 40.592 8.032 38.864 9.44 37.072C10.912 35.28 12.256 33.52 13.472 31.792C14.688 30 15.744 28.336 16.64 26.8C17.92 24.624 19.008 22.352 19.904 19.984C20.864 17.616 21.632 15.536 22.208 13.744C22.784 12.144 23.232 10.48 23.552 8.752C23.936 6.96 24.16 5.328 24.224 3.856L39.104 6.832ZM23.936 21.616C25.024 21.616 26.624 21.616 28.736 21.616C30.848 21.616 33.312 21.616 36.128 21.616C38.944 21.616 41.888 21.616 44.96 21.616C48.096 21.616 51.2 21.616 54.272 21.616C57.408 21.616 60.32 21.616 63.008 21.616C65.76 21.616 68.128 21.616 70.112 21.616C72.16 21.616 73.664 21.616 74.624 21.616C75.904 21.616 77.504 21.584 79.424 21.52C81.344 21.392 83.072 21.2 84.608 20.944V34.096C82.816 33.904 80.96 33.808 79.04 33.808C77.184 33.744 75.712 33.712 74.624 33.712C73.536 33.712 71.712 33.712 69.152 33.712C66.592 33.712 63.616 33.712 60.224 33.712C56.832 33.712 53.248 33.712 49.472 33.712C45.76 33.712 42.144 33.712 38.624 33.712C35.104 33.712 31.968 33.712 29.216 33.712C26.464 33.712 24.352 33.712 22.88 33.712L23.936 21.616ZM61.376 28.528C61.248 35.632 60.512 42.16 59.168 48.112C57.824 54 55.904 59.344 53.408 64.144C50.976 68.944 47.968 73.296 44.384 77.2C40.8 81.04 36.704 84.4 32.096 87.28L19.136 78.544C20.864 77.84 22.528 77.04 24.128 76.144C25.728 75.184 27.104 74.224 28.256 73.264C31.008 71.152 33.536 68.752 35.84 66.064C38.208 63.312 40.288 60.144 42.08 56.56C43.936 52.912 45.376 48.784 46.4 44.176C47.488 39.568 48.064 34.352 48.128 28.528H61.376ZM104.096 13.936C106.08 14 107.936 14.064 109.664 14.128C111.456 14.128 112.992 14.128 114.272 14.128C115.296 14.128 116.864 14.128 118.976 14.128C121.152 14.128 123.68 14.128 126.56 14.128C129.44 14.128 132.512 14.128 135.776 14.128C139.04 14.128 142.304 14.128 145.568 14.128C148.896 14.128 152 14.128 154.88 14.128C157.76 14.128 160.256 14.128 162.368 14.128C164.544 14.128 166.112 14.128 167.072 14.128C168.288 14.128 169.728 14.128 171.392 14.128C173.12 14.064 174.848 14 176.576 13.936C176.512 15.408 176.448 16.976 176.384 18.64C176.384 20.24 176.384 21.776 176.384 23.248C176.384 24.144 176.384 25.552 176.384 27.472C176.384 29.328 176.384 31.568 176.384 34.192C176.384 36.752 176.384 39.504 176.384 42.448C176.384 45.328 176.384 48.24 176.384 51.184C176.384 54.128 176.384 56.912 176.384 59.536C176.384 62.096 176.384 64.336 176.384 66.256C176.384 68.112 176.384 69.456 176.384 70.288C176.384 71.248 176.384 72.464 176.384 73.936C176.448 75.344 176.48 76.784 176.48 78.256C176.48 79.664 176.48 80.912 176.48 82C176.544 83.024 176.576 83.568 176.576 83.632H163.328C163.328 83.504 163.328 82.736 163.328 81.328C163.392 79.856 163.424 78.128 163.424 76.144C163.488 74.16 163.52 72.304 163.52 70.576C163.52 69.744 163.52 68.336 163.52 66.352C163.52 64.368 163.52 62.032 163.52 59.344C163.52 56.656 163.52 53.808 163.52 50.8C163.52 47.792 163.52 44.848 163.52 41.968C163.52 39.088 163.52 36.464 163.52 34.096C163.52 31.728 163.52 29.84 163.52 28.432C163.52 27.024 163.52 26.32 163.52 26.32H117.152C117.152 26.32 117.152 27.024 117.152 28.432C117.152 29.84 117.152 31.728 117.152 34.096C117.152 36.4 117.152 39.024 117.152 41.968C117.152 44.848 117.152 47.792 117.152 50.8C117.152 53.744 117.152 56.592 117.152 59.344C117.152 62.032 117.152 64.368 117.152 66.352C117.152 68.336 117.152 69.744 117.152 70.576C117.152 71.728 117.152 73.04 117.152 74.512C117.152 75.92 117.152 77.296 117.152 78.64C117.216 79.984 117.248 81.104 117.248 82C117.248 82.96 117.248 83.504 117.248 83.632H104C104 83.504 104 82.96 104 82C104.064 81.04 104.096 79.856 104.096 78.448C104.16 77.04 104.192 75.6 104.192 74.128C104.256 72.656 104.288 71.344 104.288 70.192C104.288 69.36 104.288 68.016 104.288 66.16C104.288 64.24 104.288 61.968 104.288 59.344C104.288 56.72 104.288 53.968 104.288 51.088C104.288 48.144 104.288 45.2 104.288 42.256C104.288 39.312 104.288 36.56 104.288 34C104.288 31.376 104.288 29.136 104.288 27.28C104.288 25.424 104.288 24.08 104.288 23.248C104.288 21.904 104.288 20.368 104.288 18.64C104.288 16.848 104.224 15.28 104.096 13.936ZM168.32 66.16V78.448H110.624V66.16H168.32ZM257.408 23.248C257.408 24.912 257.984 26.352 259.136 27.568C260.352 28.72 261.792 29.296 263.456 29.296C265.184 29.296 266.624 28.72 267.776 27.568C268.992 26.352 269.6 24.912 269.6 23.248C269.6 21.52 268.992 20.08 267.776 18.928C266.624 17.712 265.184 17.104 263.456 17.104C261.792 17.104 260.352 17.712 259.136 18.928C257.984 20.08 257.408 21.52 257.408 23.248ZM251.072 23.248C251.072 20.88 251.616 18.768 252.704 16.912C253.856 15.056 255.36 13.584 257.216 12.496C259.072 11.344 261.152 10.768 263.456 10.768C265.824 10.768 267.936 11.344 269.792 12.496C271.648 13.584 273.12 15.056 274.208 16.912C275.36 18.768 275.936 20.88 275.936 23.248C275.936 25.488 275.36 27.568 274.208 29.488C273.12 31.344 271.648 32.848 269.792 34C267.936 35.088 265.824 35.632 263.456 35.632C261.152 35.632 259.072 35.088 257.216 34C255.36 32.848 253.856 31.344 252.704 29.488C251.616 27.568 251.072 25.488 251.072 23.248ZM191.36 54.64C192.832 53.424 194.144 52.272 195.296 51.184C196.448 50.096 197.792 48.816 199.328 47.344C200.416 46.192 201.664 44.816 203.072 43.216C204.48 41.616 205.984 39.824 207.584 37.84C209.248 35.856 210.944 33.84 212.672 31.792C214.4 29.68 216.096 27.632 217.76 25.648C220.576 22.256 223.488 20.4 226.496 20.08C229.504 19.696 232.864 21.296 236.576 24.88C238.752 26.864 240.96 29.008 243.2 31.312C245.504 33.616 247.744 35.92 249.92 38.224C252.16 40.528 254.24 42.736 256.16 44.848C258.336 47.088 260.768 49.68 263.456 52.624C266.208 55.568 268.992 58.576 271.808 61.648C274.688 64.72 277.344 67.568 279.776 70.192L269.216 81.52C267.104 78.832 264.832 76.016 262.4 73.072C259.968 70.128 257.6 67.28 255.296 64.528C252.992 61.712 250.88 59.216 248.96 57.04C247.616 55.376 246.08 53.616 244.352 51.76C242.688 49.84 241.024 47.952 239.36 46.096C237.696 44.24 236.16 42.576 234.752 41.104C233.344 39.632 232.224 38.448 231.392 37.552C229.792 36.016 228.416 35.312 227.264 35.44C226.176 35.504 224.928 36.4 223.52 38.128C222.624 39.344 221.536 40.784 220.256 42.448C218.976 44.112 217.664 45.872 216.32 47.728C214.976 49.584 213.664 51.376 212.384 53.104C211.168 54.832 210.08 56.336 209.12 57.616C208.032 59.152 206.944 60.72 205.856 62.32C204.768 63.856 203.776 65.264 202.88 66.544L191.36 54.64ZM353.408 23.248C353.408 24.912 353.984 26.352 355.136 27.568C356.352 28.72 357.792 29.296 359.456 29.296C361.184 29.296 362.624 28.72 363.776 27.568C364.992 26.352 365.6 24.912 365.6 23.248C365.6 21.52 364.992 20.08 363.776 18.928C362.624 17.712 361.184 17.104 359.456 17.104C357.792 17.104 356.352 17.712 355.136 18.928C353.984 20.08 353.408 21.52 353.408 23.248ZM347.072 23.248C347.072 20.88 347.616 18.768 348.704 16.912C349.856 15.056 351.36 13.584 353.216 12.496C355.072 11.344 357.152 10.768 359.456 10.768C361.824 10.768 363.936 11.344 365.792 12.496C367.648 13.584 369.12 15.056 370.208 16.912C371.36 18.768 371.936 20.88 371.936 23.248C371.936 25.488 371.36 27.568 370.208 29.488C369.12 31.344 367.648 32.848 365.792 34C363.936 35.088 361.824 35.632 359.456 35.632C357.152 35.632 355.072 35.088 353.216 34C351.36 32.848 349.856 31.344 348.704 29.488C347.616 27.568 347.072 25.488 347.072 23.248ZM287.36 54.64C288.832 53.424 290.144 52.272 291.296 51.184C292.448 50.096 293.792 48.816 295.328 47.344C296.416 46.192 297.664 44.816 299.072 43.216C300.48 41.616 301.984 39.824 303.584 37.84C305.248 35.856 306.944 33.84 308.672 31.792C310.4 29.68 312.096 27.632 313.76 25.648C316.576 22.256 319.488 20.4 322.496 20.08C325.504 19.696 328.864 21.296 332.576 24.88C334.752 26.864 336.96 29.008 339.2 31.312C341.504 33.616 343.744 35.92 345.92 38.224C348.16 40.528 350.24 42.736 352.16 44.848C354.336 47.088 356.768 49.68 359.456 52.624C362.208 55.568 364.992 58.576 367.808 61.648C370.688 64.72 373.344 67.568 375.776 70.192L365.216 81.52C363.104 78.832 360.832 76.016 358.4 73.072C355.968 70.128 353.6 67.28 351.296 64.528C348.992 61.712 346.88 59.216 344.96 57.04C343.616 55.376 342.08 53.616 340.352 51.76C338.688 49.84 337.024 47.952 335.36 46.096C333.696 44.24 332.16 42.576 330.752 41.104C329.344 39.632 328.224 38.448 327.392 37.552C325.792 36.016 324.416 35.312 323.264 35.44C322.176 35.504 320.928 36.4 319.52 38.128C318.624 39.344 317.536 40.784 316.256 42.448C314.976 44.112 313.664 45.872 312.32 47.728C310.976 49.584 309.664 51.376 308.384 53.104C307.168 54.832 306.08 56.336 305.12 57.616C304.032 59.152 302.944 60.72 301.856 62.32C300.768 63.856 299.776 65.264 298.88 66.544L287.36 54.64ZM436.736 16.24C436.096 21.104 435.264 26.288 434.24 31.792C433.216 37.296 431.84 42.864 430.112 48.496C428.256 54.96 426.08 60.528 423.584 65.2C421.088 69.872 418.336 73.488 415.328 76.048C412.384 78.544 409.152 79.792 405.632 79.792C402.112 79.792 398.848 78.608 395.84 76.24C392.896 73.808 390.528 70.48 388.736 66.256C387.008 62.032 386.144 57.232 386.144 51.856C386.144 46.288 387.264 41.04 389.504 36.112C391.744 31.184 394.848 26.832 398.816 23.056C402.848 19.216 407.52 16.208 412.832 14.032C418.208 11.856 424 10.768 430.208 10.768C436.16 10.768 441.504 11.728 446.24 13.648C451.04 15.568 455.136 18.224 458.528 21.616C461.92 25.008 464.512 28.976 466.304 33.52C468.096 38.064 468.992 42.96 468.992 48.208C468.992 54.928 467.616 60.944 464.864 66.256C462.112 71.568 458.016 75.952 452.576 79.408C447.2 82.864 440.48 85.232 432.416 86.512L425.216 75.088C427.072 74.896 428.704 74.672 430.112 74.416C431.52 74.16 432.864 73.872 434.144 73.552C437.216 72.784 440.064 71.696 442.688 70.288C445.376 68.816 447.712 67.024 449.696 64.912C451.68 62.736 453.216 60.208 454.304 57.328C455.456 54.448 456.032 51.28 456.032 47.824C456.032 44.048 455.456 40.592 454.304 37.456C453.152 34.32 451.456 31.6 449.216 29.296C446.976 26.928 444.256 25.136 441.056 23.92C437.856 22.64 434.176 22 430.016 22C424.896 22 420.384 22.928 416.48 24.784C412.576 26.576 409.28 28.912 406.592 31.792C403.904 34.672 401.856 37.776 400.448 41.104C399.104 44.432 398.432 47.6 398.432 50.608C398.432 53.808 398.816 56.496 399.584 58.672C400.352 60.784 401.28 62.384 402.368 63.472C403.52 64.496 404.736 65.008 406.016 65.008C407.36 65.008 408.672 64.336 409.952 62.992C411.296 61.584 412.608 59.472 413.888 56.656C415.168 53.84 416.448 50.288 417.728 46C419.2 41.392 420.448 36.464 421.472 31.216C422.496 25.968 423.232 20.848 423.68 15.856L436.736 16.24Z" fill="white"/>
<path d="M515.936 7.888H566.912V15.952H515.936V7.888ZM514.4 31.024H568.736V39.088H514.4V31.024ZM513.92 66.928H568.832V75.088H513.92V66.928ZM518.24 19.504H565.472V27.184H518.24V19.504ZM526.4 0.495996H536.384V34.576H526.4V0.495996ZM546.272 0.495996H556.448V34.576H546.272V0.495996ZM536.384 34.768H546.368V69.232H536.384V34.768ZM553.856 42.736H564.32V80.176C564.32 82.544 564.032 84.4 563.456 85.744C562.944 87.152 561.888 88.24 560.288 89.008C558.624 89.776 556.64 90.224 554.336 90.352C552.096 90.544 549.376 90.64 546.176 90.64C545.984 89.232 545.6 87.664 545.024 85.936C544.448 84.208 543.84 82.704 543.2 81.424C545.056 81.488 546.88 81.52 548.672 81.52C550.528 81.52 551.744 81.52 552.32 81.52C552.896 81.52 553.28 81.424 553.472 81.232C553.728 80.976 553.856 80.592 553.856 80.08V42.736ZM519.008 42.736H558.368V50.8H529.28V90.736H519.008V42.736ZM524.096 55.12H558.272V62.32H524.096V55.12ZM487.904 66.928L497.888 69.232C496.672 73.264 495.04 77.232 492.992 81.136C490.944 84.976 488.768 88.208 486.464 90.832C485.888 90.256 485.056 89.616 483.968 88.912C482.88 88.208 481.792 87.504 480.704 86.8C479.616 86.096 478.688 85.552 477.92 85.168C480.096 82.864 482.048 80.08 483.776 76.816C485.568 73.552 486.944 70.256 487.904 66.928ZM499.136 70.384L507.68 66.736C509.28 69.168 510.848 71.856 512.384 74.8C513.984 77.68 515.2 80.208 516.032 82.384L507.104 86.608C506.656 85.136 505.984 83.472 505.088 81.616C504.256 79.696 503.328 77.776 502.304 75.856C501.28 73.872 500.224 72.048 499.136 70.384ZM493.088 30.544V39.568H502.592V30.544H493.088ZM493.088 48.016V57.04H502.592V48.016H493.088ZM493.088 13.168V22H502.592V13.168H493.088ZM483.296 4.048H512.672V66.256H483.296V4.048ZM593.984 5.776H621.248V17.488H593.984V5.776ZM615.584 5.776H627.488C627.488 8.848 627.616 12.336 627.872 16.24C628.128 20.08 628.672 24.208 629.504 28.624C630.336 32.976 631.584 37.456 633.248 42.064C634.912 46.672 637.12 51.248 639.872 55.792C642.688 60.272 646.208 64.592 650.432 68.752C654.656 72.912 659.712 76.752 665.6 80.272C664.768 80.912 663.744 81.84 662.528 83.056C661.312 84.272 660.128 85.52 658.976 86.8C657.888 88.144 656.992 89.328 656.288 90.352C650.272 86.64 645.056 82.48 640.64 77.872C636.224 73.2 632.512 68.272 629.504 63.088C626.496 57.84 624.064 52.56 622.208 47.248C620.352 41.872 618.944 36.656 617.984 31.6C617.024 26.48 616.384 21.712 616.064 17.296C615.744 12.88 615.584 9.04 615.584 5.776ZM611.456 26.896L624.608 29.296C622.432 38.768 619.52 47.376 615.872 55.12C612.224 62.864 607.84 69.68 602.72 75.568C597.664 81.456 591.808 86.416 585.152 90.448C584.448 89.616 583.456 88.592 582.176 87.376C580.896 86.224 579.552 85.04 578.144 83.824C576.8 82.672 575.616 81.744 574.592 81.04C584.64 75.984 592.64 68.88 598.592 59.728C604.544 50.512 608.832 39.568 611.456 26.896ZM672.512 15.856H759.584V26.8H672.512V15.856ZM704.576 39.376H741.344V50.224H704.576V39.376ZM737.024 39.376H748.928C748.928 39.376 748.896 39.696 748.832 40.336C748.832 40.912 748.832 41.584 748.832 42.352C748.832 43.12 748.768 43.792 748.64 44.368C748.064 53.136 747.424 60.304 746.72 65.872C746.016 71.44 745.216 75.792 744.32 78.928C743.424 82 742.336 84.24 741.056 85.648C739.584 87.248 738.048 88.336 736.448 88.912C734.848 89.488 732.928 89.904 730.688 90.16C728.832 90.352 726.4 90.416 723.392 90.352C720.384 90.352 717.28 90.288 714.08 90.16C714.016 88.496 713.6 86.576 712.832 84.4C712.064 82.288 711.104 80.432 709.952 78.832C713.28 79.152 716.48 79.344 719.552 79.408C722.624 79.472 724.832 79.504 726.176 79.504C727.264 79.504 728.16 79.44 728.864 79.312C729.632 79.12 730.304 78.768 730.88 78.256C731.904 77.424 732.768 75.6 733.472 72.784C734.24 69.968 734.912 65.968 735.488 60.784C736.064 55.6 736.576 49.04 737.024 41.104V39.376ZM700.256 22.384H713.12C712.864 27.504 712.448 32.688 711.872 37.936C711.36 43.12 710.464 48.272 709.184 53.392C707.904 58.448 706.048 63.28 703.616 67.888C701.184 72.496 697.984 76.784 694.016 80.752C690.048 84.72 685.024 88.24 678.944 91.312C678.112 89.712 676.896 87.984 675.296 86.128C673.76 84.272 672.256 82.736 670.784 81.52C676.352 78.96 680.896 75.984 684.416 72.592C688 69.136 690.816 65.424 692.864 61.456C694.912 57.424 696.416 53.232 697.376 48.88C698.4 44.528 699.072 40.112 699.392 35.632C699.776 31.152 700.064 26.736 700.256 22.384ZM709.472 0.0159969H721.472V20.176H709.472V0.0159969ZM793.664 38.896H855.968V49.84H793.664V38.896ZM798.464 14.224H851.36V25.264H798.464V14.224ZM818.528 0.399998H830.432V46.864H818.528V0.399998ZM793.76 75.088C798.048 74.896 803.008 74.672 808.64 74.416C814.336 74.16 820.352 73.84 826.688 73.456C833.088 73.072 839.456 72.72 845.792 72.4L845.696 82.864C839.744 83.312 833.728 83.792 827.648 84.304C821.632 84.816 815.84 85.264 810.272 85.648C804.768 86.032 799.744 86.416 795.2 86.8L793.76 75.088ZM830.528 61.84L840.416 56.56C842.848 59.376 845.216 62.448 847.52 65.776C849.888 69.104 852.032 72.4 853.952 75.664C855.872 78.928 857.312 81.936 858.272 84.688L847.328 90.64C846.496 88.016 845.184 85.04 843.392 81.712C841.6 78.384 839.584 74.992 837.344 71.536C835.104 68.016 832.832 64.784 830.528 61.84ZM811.04 46.672L823.904 50.032C822.496 53.68 820.96 57.424 819.296 61.264C817.696 65.104 816.064 68.752 814.4 72.208C812.8 75.664 811.264 78.736 809.792 81.424L799.52 78.064C800.544 75.952 801.6 73.616 802.688 71.056C803.776 68.432 804.832 65.712 805.856 62.896C806.944 60.08 807.904 57.296 808.736 54.544C809.632 51.728 810.4 49.104 811.04 46.672ZM772.256 9.328L778.592 0.783998C780.704 1.552 782.912 2.48 785.216 3.568C787.52 4.656 789.728 5.808 791.84 7.024C793.952 8.24 795.68 9.424 797.024 10.576L790.304 19.984C789.024 18.832 787.36 17.616 785.312 16.336C783.328 14.992 781.184 13.712 778.88 12.496C776.576 11.216 774.368 10.16 772.256 9.328ZM766.784 35.44L772.736 26.704C774.784 27.408 776.992 28.272 779.36 29.296C781.728 30.32 783.968 31.408 786.08 32.56C788.256 33.648 790.016 34.704 791.36 35.728L785.024 45.424C783.744 44.336 782.048 43.184 779.936 41.968C777.888 40.752 775.712 39.568 773.408 38.416C771.104 37.264 768.896 36.272 766.784 35.44ZM769.376 81.904C771.04 79.472 772.832 76.592 774.752 73.264C776.736 69.936 778.72 66.416 780.704 62.704C782.752 58.992 784.672 55.28 786.464 51.568L795.104 58.96C793.568 62.288 791.904 65.712 790.112 69.232C788.384 72.688 786.592 76.112 784.736 79.504C782.944 82.896 781.152 86.16 779.36 89.296L769.376 81.904Z" fill="#A2C159"/>
</svg>
