<svg width="1134" height="146" viewBox="0 0 1134 146" fill="none" xmlns="http://www.w3.org/2000/svg">
<path d="M804.385 28.2428C804.698 23.7475 808.655 19.2271 813.439 19.9784C819.662 21.3307 826.136 19.3648 832.246 21.4685C843.967 24.6115 852.845 35.6807 853.621 47.7643C854.761 58.4329 849.501 68.9011 841.287 75.5001C842.84 80.0831 844.555 84.8038 847.949 88.3725C850.916 91.6908 854.923 95.3848 853.771 100.343C852.97 106.792 844.242 109.597 839.446 105.615C832.822 99.3416 827.651 91.5405 824.834 82.8254L819.837 83.3888C819.562 89.4118 820.426 95.4849 819.624 101.483C817.633 109.322 804.698 108.821 802.67 101.22C801.718 95.1218 802.157 88.8859 801.856 82.7377C802.031 64.5435 802.52 46.3368 804.385 28.2428ZM821.453 37.9597C820.676 47.1257 820.213 56.3042 819.937 65.4952C823.969 64.5686 828.214 63.4917 831.27 60.499C836.504 55.9661 837.531 47.3385 833.048 41.9416C830.268 38.5232 825.635 37.6467 821.453 37.9597Z" fill="#A2C159"/>
<path d="M887.095 26.7776C892.342 26.0638 898.014 26.6649 902.547 29.5574C904.876 31.8614 906.203 35.0169 908.695 37.1957C916.822 44.7589 922.807 55.2396 923.045 66.5218C923.446 78.4426 917.561 90.7765 907.017 96.7494C894.195 104.087 876.714 101.17 866.722 90.3633C855.916 79.1187 853.887 60.8745 861.087 47.1881C866.397 37.2458 875.763 28.8061 887.095 26.7776ZM874.586 63.8672C873.922 72.9831 880.834 82.9504 890.539 82.9379C899.166 83.5139 906.366 75.1368 905.302 66.7472C904.438 56.8299 896.699 49.7175 889.249 44.0827C881.373 47.5012 875.274 55.2146 874.586 63.8672Z" fill="#A2C159"/>
<path d="M697.034 57.9797C698.228 56.9191 699.156 56.0479 700.14 55.2146C706.712 49.7224 712.072 43.1695 716.788 36.0675C718.189 33.9842 719.401 31.7684 720.897 29.7419C724.723 24.5716 731.958 24.8367 735.689 30.1207C738.075 33.4918 737.885 36.8061 735.84 40.234C730.973 48.3966 725.329 55.9722 718.587 62.6955C717.867 63.4151 717.204 64.1916 716.504 64.9492C716.485 64.9681 716.504 65.0249 716.466 65.2333C716.825 65.4037 717.204 65.631 717.621 65.7635C724.931 68.2067 732.223 70.6498 739.552 73.0739C743.15 74.2671 745.442 76.6155 746.162 80.3464C747.033 84.8918 743.851 90.5923 738.965 91.1037C737.677 91.2363 736.276 91.0469 735.026 90.6492C729.628 88.9825 724.231 87.2591 718.89 85.441C712.526 83.282 706.201 81.0093 699.856 78.7935C699.402 78.623 698.909 78.5094 698.247 78.32C698.701 81.2366 699.137 83.9448 699.534 86.6341C700.121 90.5166 700.728 94.3801 701.22 98.2626C701.807 102.865 699.231 106.993 694.875 108.338C692.66 109.02 690.387 108.66 688.342 107.58C685.614 106.122 683.739 104.039 683.285 100.8C682.489 95.327 681.429 89.9105 680.671 84.4372C680.141 80.6305 679.989 76.7859 679.554 72.9603C678.74 65.8772 678.74 58.7751 678.758 51.6731C678.758 46.3891 679.156 41.0863 679.421 35.8023C679.554 33.2266 679.686 30.632 680.046 28.0753C680.463 25.1966 681.902 22.8671 684.421 21.2573C686.239 20.102 688.171 19.5907 690.273 20.0831C694.288 20.9922 698.663 24.3633 698.095 29.8745C697.186 38.7378 696.788 47.6391 697.034 56.5593C697.034 56.9381 697.034 57.2979 697.034 57.9986V57.9797Z" fill="#A2C159"/>
<path d="M769.123 41.9908V54.4526C769.54 54.4715 769.918 54.5283 770.297 54.5094C775.903 54.2632 781.452 54.8882 787.02 55.3806C791.85 55.7972 794.728 60.513 794.766 64.3197C794.823 69.7552 790.467 73.2399 785.619 73.1452C783.782 73.1073 781.926 72.8422 780.089 72.7854C777.096 72.6907 774.104 72.6717 771.131 72.6339C770.449 72.6339 770.24 72.9179 770.354 73.5997C771.206 78.9784 772.059 84.338 772.892 89.7167C773.062 90.853 773.877 90.7204 774.577 90.531C776.907 89.9439 779.198 89.2432 781.509 88.6561C783.517 88.1447 785.543 87.5576 787.588 87.2925C792.721 86.6296 796.035 91.3833 796.471 95.3226C796.755 97.9172 796.168 100.285 794.444 102.349C793.137 103.902 791.376 104.697 789.577 105.341C783.46 107.557 777.115 108.959 770.638 109.64C762.684 110.474 756.604 105.834 755.392 97.5763C753.896 87.2546 752.627 76.914 751.548 66.5356C750.468 56.1003 750.601 45.6082 751.074 35.135C751.245 31.2715 752.362 27.8625 756.074 25.8739C756.529 25.6277 757.002 25.4573 757.495 25.3247C758.896 24.927 760.279 24.4914 761.699 24.1884C762.835 23.9421 764.028 23.7149 765.184 23.6959C773.952 23.5444 782.532 24.7755 790.903 27.2754C794.539 28.3549 797.361 30.3624 798.459 34.3206C799.349 37.5781 798.346 40.2106 796.187 42.5022C793.573 45.2673 790.391 46.0438 786.698 45.0211C783.857 44.2446 780.998 43.4491 778.1 42.9567C775.164 42.4643 772.172 42.3128 769.085 42.0098L769.123 41.9908Z" fill="#A2C159"/>
<path d="M1000.18 41.9908V54.4526C1000.59 54.4715 1000.97 54.5283 1001.35 54.5094C1006.96 54.2632 1012.51 54.8882 1018.07 55.3806C1022.9 55.7972 1025.78 60.513 1025.82 64.3197C1025.88 69.7552 1021.52 73.2399 1016.67 73.1452C1014.84 73.1073 1012.98 72.8422 1011.14 72.7854C1008.15 72.6907 1005.16 72.6717 1002.18 72.6339C1001.5 72.6339 1001.29 72.9179 1001.41 73.5997C1002.26 78.9784 1003.11 84.338 1003.95 89.7167C1004.12 90.853 1004.93 90.7204 1005.63 90.531C1007.96 89.9439 1010.25 89.2432 1012.56 88.6561C1014.57 88.1447 1016.6 87.5576 1018.64 87.2925C1023.77 86.6296 1027.09 91.3833 1027.52 95.3226C1027.81 97.9172 1027.22 100.285 1025.5 102.349C1024.19 103.902 1022.43 104.697 1020.63 105.341C1014.51 107.557 1008.17 108.959 1001.69 109.64C993.737 110.474 987.658 105.834 986.446 97.5763C984.95 87.2546 983.681 76.914 982.601 66.5356C981.522 56.1003 981.654 45.6082 982.128 35.135C982.298 31.2715 983.416 27.8625 987.128 25.8739C987.582 25.6277 988.056 25.4573 988.548 25.3247C989.95 24.927 991.332 24.4914 992.753 24.1884C993.889 23.9421 995.082 23.7149 996.237 23.6959C1005.01 23.5444 1013.59 24.7755 1021.96 27.2754C1025.59 28.3549 1028.41 30.3624 1029.51 34.3206C1030.4 37.5781 1029.4 40.2106 1027.24 42.5022C1024.63 45.2673 1021.44 46.0438 1017.75 45.0211C1014.91 44.2446 1012.05 43.4491 1009.15 42.9567C1006.22 42.4643 1003.23 42.3128 1000.14 42.0098L1000.18 41.9908Z" fill="#A2C159"/>
<path d="M1104.34 41.9908V54.4526C1104.76 54.4715 1105.14 54.5283 1105.51 54.5094C1111.12 54.2632 1116.67 54.8882 1122.24 55.3806C1127.07 55.7972 1129.94 60.513 1129.98 64.3197C1130.04 69.7552 1125.68 73.2399 1120.84 73.1452C1119 73.1073 1117.14 72.8422 1115.31 72.7854C1112.31 72.6907 1109.32 72.6717 1106.35 72.6339C1105.67 72.6339 1105.46 72.9179 1105.57 73.5997C1106.42 78.9784 1107.28 84.338 1108.11 89.7167C1108.28 90.853 1109.09 90.7204 1109.79 90.531C1112.12 89.9439 1114.42 89.2432 1116.73 88.6561C1118.73 88.1447 1120.76 87.5576 1122.8 87.2925C1127.94 86.6296 1131.25 91.3833 1131.69 95.3226C1131.97 97.9172 1131.38 100.285 1129.66 102.349C1128.35 103.902 1126.59 104.697 1124.79 105.341C1118.68 107.557 1112.33 108.959 1105.85 109.64C1097.9 110.474 1091.82 105.834 1090.61 97.5763C1089.11 87.2546 1087.84 76.914 1086.76 66.5356C1085.68 56.1003 1085.82 45.6082 1086.29 35.135C1086.46 31.2715 1087.58 27.8625 1091.29 25.8739C1091.75 25.6277 1092.22 25.4573 1092.71 25.3247C1094.11 24.927 1095.5 24.4914 1096.92 24.1884C1098.05 23.9421 1099.25 23.7149 1100.4 23.6959C1109.17 23.5444 1117.75 24.7755 1126.12 27.2754C1129.76 28.3549 1132.58 30.3624 1133.68 34.3206C1134.57 37.5781 1133.56 40.2106 1131.4 42.5022C1128.79 45.2673 1125.61 46.0438 1121.91 45.0211C1119.07 44.2446 1116.21 43.4491 1113.32 42.9567C1110.38 42.4643 1107.39 42.3128 1104.3 42.0098L1104.34 41.9908Z" fill="#A2C159"/>
<path d="M933.531 21.0569C937.331 18.394 941.807 21.2444 945.97 20.5443C955.546 19.3066 965.447 23.3696 971.585 30.7706C978.686 39.0341 980.474 51.2731 976.623 61.3869C971.698 74.276 958.396 82.6896 944.819 83.2896C944.507 89.2529 945.132 95.2411 944.544 101.192C943.007 108.08 932.555 108.88 928.792 103.467C927.18 101.404 927.255 98.6665 927.13 96.2037C926.355 74.1135 927.267 51.9982 929.105 29.983C929.33 26.5951 930.443 22.9071 933.531 21.0569ZM946.307 38.009C945.657 47.1101 945.082 56.2112 944.932 65.3374C949.333 64.4498 953.908 63.0121 956.996 59.5492C961.922 54.4985 962.209 45.3724 956.721 40.6218C953.921 37.9965 949.895 37.959 946.307 38.009Z" fill="#A2C159"/>
<path d="M1037.69 21.0569C1041.49 18.394 1045.97 21.2444 1050.13 20.5443C1059.71 19.3066 1069.61 23.3696 1075.75 30.7706C1082.85 39.0341 1084.64 51.2731 1080.79 61.3869C1075.86 74.276 1062.56 82.6896 1048.98 83.2896C1048.67 89.2529 1049.3 95.2411 1048.71 101.192C1047.17 108.08 1036.72 108.88 1032.96 103.467C1031.34 101.404 1031.42 98.6665 1031.29 96.2037C1030.52 74.1135 1031.43 51.9982 1033.27 29.983C1033.49 26.5951 1034.61 22.9071 1037.69 21.0569ZM1050.47 38.009C1049.82 47.1101 1049.25 56.2112 1049.1 65.3374C1053.5 64.4498 1058.07 63.0121 1061.16 59.5492C1066.08 54.4985 1066.37 45.3724 1060.88 40.6218C1058.08 37.9965 1054.06 37.959 1050.47 38.009Z" fill="#A2C159"/>
<path d="M33.0607 31.8432C33.4188 28.0628 35.5677 24.0674 39.3561 22.8179C44.8238 20.9157 51.7799 25.9298 50.7452 31.883C49.9971 39.3802 49.3365 46.8934 48.9306 54.4145C48.5486 56.8659 50.7214 58.8396 50.395 61.3069C50.5224 64.188 48.1347 66.4563 48.3894 69.3294C48.1825 81.5701 48.7476 93.8109 49.4877 106.02C49.9891 111.655 43.7176 116.088 38.4806 114.607C34.8036 113.772 32.3205 110.222 31.8987 106.609C31.0152 95.0047 30.7685 83.3609 30.7208 71.725C26.606 72.1866 22.4913 72.6085 18.3766 73.0303C18.5517 81.6258 18.687 90.2294 18.87 98.8329C18.8939 101.3 18.6711 104.014 16.9838 105.956C13.4182 109.84 6.50197 109.569 3.14333 105.558C1.40034 103.465 1.11382 100.648 1.12178 98.037C0.78751 76.5242 0.294061 55.0035 0.00754236 33.4907C-0.231223 28.3891 5.24447 24.8155 9.95611 25.7388C13.8241 26.1526 17.4295 29.3362 17.5011 33.3793C17.7956 40.6935 17.7876 48.0156 17.9707 55.3377C22.3958 55.0194 26.8209 54.6294 31.2222 54.0245C31.827 46.6308 32.408 39.237 33.0527 31.8432H33.0607Z" fill="white"/>
<path d="M186.332 35.0822C186.014 31.1107 188.998 27.2745 192.97 26.7333C197.857 25.5156 203.619 28.93 203.897 34.1908C204.526 56.3562 200.801 78.6887 192.659 99.342C191.569 101.937 189.683 104.452 186.905 105.343C183.642 106.529 179.997 105.279 177.522 103.019C170.096 96.6041 165.257 87.6902 162.201 78.4738C160.506 85.2548 158.206 91.8766 155.706 98.4028C154.194 102.096 152.714 106.107 149.475 108.662C145.416 112.124 138.3 111.535 135.3 106.959C132.674 103.449 131.949 98.9997 130.859 94.8611C126.752 77.2004 123.155 59.4283 119.955 41.5846C119.319 38.011 120.25 33.7928 123.378 31.628C127.938 28.1182 135.945 30.8401 136.971 36.6421C139.447 49.7185 141.747 62.8427 144.739 75.8156C147.628 64.4981 149.729 53.0055 151.942 41.5527C152.754 36.1089 159.773 33.0447 164.445 35.7348C166.976 37.0082 168.457 39.5869 169.356 42.1576C173.725 54.1118 175.429 66.9574 180.936 78.5136C184.828 64.3946 186.587 49.7265 186.332 35.0822Z" fill="white"/>
<path d="M241.376 31.4053C256.203 28.0148 271.532 26.4708 286.725 27.6169C290.14 27.6248 293.665 29.2484 295.201 32.432C298.146 37.446 294.199 44.8 288.381 45.1025C284.003 45.1343 279.634 44.7125 275.257 44.8637C275.121 63.1372 275.623 81.4187 276.952 99.6445C277.183 102 276.992 104.571 275.4 106.449C272.67 110.27 266.589 111.44 262.96 108.256C260.461 106.497 259.418 103.409 259.275 100.472C258.026 82.3976 257.453 64.2753 257.548 46.161C252.932 46.7738 248.435 48.2223 243.787 48.5248C238.55 48.6203 233.99 43.3993 235.184 38.2021C235.757 35.0425 238.16 32.0977 241.376 31.4053Z" fill="white"/>
<path d="M82.6363 31.7872C88.1836 30.665 94.2324 31.2778 99.1589 34.1828C101.634 35.5358 101.849 38.7353 103.926 40.4623C109.251 45.3809 114.129 51.0237 117.003 57.7569C120.775 66.257 121.332 76.2294 118.013 84.9762C115.331 92.6406 109.76 99.4136 102.39 102.971C93.7548 107.189 83.2969 107.213 74.5103 103.417C66.7106 100.122 60.3754 93.6752 56.8337 86.0268C52.1221 75.919 52.2096 63.7022 56.9849 53.6342C61.9512 43.2638 71.2392 34.4216 82.6363 31.7872ZM72.1863 63.0496C68.8754 71.5894 72.242 82.6602 80.5909 86.95C86.8863 90.1335 95.3307 88.6134 99.5966 82.8353C103.624 77.5904 103.313 70.1966 100.615 64.4185C97.7502 57.6694 91.8686 53.0532 86.2257 48.6997C79.6597 51.0078 74.6775 56.6745 72.1863 63.0496Z" fill="white"/>
<path d="M319.07 31.7792C324.578 30.6729 330.579 31.2858 335.489 34.151C338.171 35.6074 338.346 39.1332 340.766 40.8682C348.82 47.9994 355.06 57.6933 356.405 68.5253C357.718 79.6915 353.532 91.4547 345.04 98.9122C332.911 109.33 313.22 108.312 301.704 97.4477C288.468 85.8994 286.184 64.7289 295.297 49.997C300.693 41.4015 308.954 34.0157 319.07 31.7792ZM308.381 76.2692C310.045 81.8643 314.518 86.8625 320.359 88.112C326.392 89.7436 333.46 87.2524 336.723 81.8325C340.129 76.4682 339.437 69.4485 336.763 63.925C333.858 57.4147 328.103 52.9975 322.652 48.7157C312.042 52.5439 304.601 65.2621 308.381 76.2692Z" fill="white"/>
<path d="M628.748 7.06746C629.409 3.23925 632.942 0.0318354 636.874 0C640.527 0.0795885 644.005 2.515 645.318 5.92935C646.512 10.4659 645.334 15.2014 645.287 19.8096C649.616 22.9454 655.227 25.2614 657.487 30.4506C659.931 36.3958 654.049 43.1768 647.945 42.5321C643.878 41.6646 641.267 37.1679 636.802 37.518C631.916 37.3827 627.745 42.2615 628.764 47.0687C629.767 52.3852 634.272 56.2532 639.023 58.3543C645.923 61.8244 653.269 64.4986 659.732 68.7884C666.003 73.1976 670.309 80.6869 670.047 88.4547C670.015 96.3976 666.163 104.134 659.963 109.068C655.936 112.681 650.77 114.544 645.661 116.016C644.156 120.155 643.345 124.564 643.854 128.965C644.085 133.271 645.645 138.253 642.628 141.97C639.922 145.79 634.009 146.451 630.483 143.419C627.833 141.349 627.212 137.855 626.758 134.727C625.684 128.122 626.408 121.404 627.475 114.838C622.946 112.984 618.306 111.297 614.008 108.941C610.228 106.871 608.652 101.834 610.347 97.9257C611.748 94.0498 616.086 91.4154 620.16 92.5774C626.297 94.2647 631.963 97.7586 638.45 98.1008C642.636 98.3874 647.555 97.5358 650.237 93.9702C651.765 91.8611 653.102 89.1153 652.195 86.4809C651.184 83.8863 648.43 82.6845 646.138 81.4589C640.161 78.6892 633.85 76.5881 628.223 73.11C621.561 69.0192 615.743 63.1535 612.894 55.7757C609.663 46.7026 611.04 35.8148 617.327 28.3654C620.017 25.0465 623.583 22.6031 627.3 20.5736C627.849 16.0769 627.984 11.5324 628.748 7.06746Z" fill="#A2C159"/>
<path d="M402.064 27.0123C408.463 21.4172 418.277 20.3507 425.846 24.1153C431.098 26.6541 434.974 31.4852 437.075 36.8574C440.442 45.3495 439.368 55.1229 435.237 63.1614C441.373 65.9152 446.849 70.8496 448.87 77.4237C451.306 84.7776 448.767 93.1901 443.22 98.4589C436.51 104.85 427.254 107.771 418.213 108.726C412.721 109.14 406.784 109.291 401.953 106.219C398.618 105.272 395.132 103.576 393.962 100.043C392.53 94.9331 392.402 89.5689 391.591 84.3479C390.094 72.3061 388.805 60.0336 390.763 47.9679C392.235 40.0648 395.841 32.281 402.064 27.0123ZM408.877 46.5513C406.999 52.1861 407.182 58.2349 407.429 64.1005C410.684 62.8749 413.947 61.3945 416.406 58.8716C420.386 54.9638 422.75 48.8832 420.831 43.4234C420.163 41.2666 418.261 39.1654 415.825 39.4281C412.363 40.1842 409.952 43.32 408.877 46.5513ZM408.957 81.6339C409.379 84.8095 409.737 87.993 410.111 91.1766C417.377 91.6461 425.599 90.6592 431.114 85.4621C433.765 82.9949 430.645 79.9546 428.058 79.286C421.619 77.1133 415.252 80.639 408.957 81.6339Z" fill="#A2C159"/>
<path fill-rule="evenodd" clip-rule="evenodd" d="M574.388 21.8331C578.579 24.4179 579.881 29.9107 577.297 34.1017L569.708 29.4215C577.297 34.1017 577.297 34.1017 577.297 34.1017L577.296 34.1028L577.227 34.2149C577.183 34.2858 577.119 34.3893 577.035 34.5231C576.869 34.7906 576.627 35.1798 576.317 35.6738C575.699 36.6613 574.812 38.069 573.731 39.7609C571.573 43.1385 568.623 47.6772 565.482 52.2791C564.124 54.2672 562.724 56.2552 561.421 58.1049L561.32 58.2486C559.97 60.1659 558.741 61.9118 557.687 63.472C556.836 64.7311 556.182 65.7467 555.716 66.5336C555.717 66.537 555.717 66.5405 555.718 66.5439C555.894 67.2655 556.164 68.3755 556.356 69.2677C557.033 72.3964 557.226 76.5575 557.226 82.4695C557.226 87.3107 556.986 91.2522 556.406 94.357C556.373 94.5353 556.34 94.709 556.309 94.8784C555.752 97.8516 555.443 99.5039 555.443 101.192C555.443 106.116 551.451 110.108 546.528 110.108C541.604 110.108 537.612 106.116 537.612 101.192C537.612 97.75 538.237 94.4611 538.724 91.8973C538.777 91.617 538.829 91.3455 538.878 91.0833C539.412 88.2211 539.841 85.6026 539.841 82.4695C539.841 77.9565 539.366 75.0623 538.928 73.0345C538.763 72.2736 538.648 71.8097 538.521 71.2928C538.426 70.9083 538.324 70.4944 538.188 69.9072C537.958 68.9076 537.612 67.3131 537.612 65.5298C537.612 65.3967 537.615 65.2653 537.62 65.1355C536.897 64.4923 536.084 63.7596 535.219 62.9648C532.218 60.2067 528.282 56.4168 525.402 52.9463C522.23 49.1242 519.466 44.5557 517.58 41.1687C516.613 39.4311 515.825 37.9102 515.275 36.8162C515 36.2679 514.782 35.8232 514.63 35.508C514.554 35.3504 514.494 35.2248 514.451 35.1346L514.4 35.0261L514.384 34.9924L514.376 34.9744C514.376 34.9744 514.375 34.9727 522.455 31.2046L514.375 34.9727C512.294 30.5102 514.225 25.2055 518.687 23.1244C523.148 21.0442 528.45 22.9724 530.533 27.4313L530.534 27.4337L530.535 27.4351L530.536 27.4365L530.537 27.439L530.563 27.4947C530.589 27.5491 530.631 27.6372 530.688 27.7561C530.803 27.994 530.979 28.3537 531.208 28.8106C531.669 29.727 532.338 31.0197 533.16 32.4952C534.852 35.5346 536.991 38.99 539.123 41.5592C540.932 43.7386 543.595 46.391 546.166 48.7981C546.358 48.5257 546.55 48.2529 546.742 47.9802L546.813 47.879C548.138 45.9992 549.472 44.1044 550.754 42.2264C553.76 37.8232 556.605 33.4463 558.705 30.1596C559.753 28.5193 560.611 27.1576 561.206 26.2088C561.503 25.7346 561.734 25.3639 561.889 25.1136C561.967 24.9885 562.026 24.8935 562.064 24.8307L562.12 24.7415M574.388 21.8331C570.197 19.2483 564.704 20.5507 562.12 24.7415L574.388 21.8331Z" fill="#A2C159"/>
<path fill-rule="evenodd" clip-rule="evenodd" d="M496.109 20.6954C500.928 19.6857 505.654 22.7739 506.664 27.5932C511.655 51.4179 512.793 68.6114 511.119 80.9707C509.429 93.4464 504.658 102.188 496.847 106.883C489.39 111.366 481.253 110.841 475.78 109.846C472.936 109.328 470.399 108.603 468.587 108.071C468.362 108.005 468.156 107.945 467.966 107.889C467.326 107.7 466.862 107.564 466.451 107.453C466.313 107.416 466.212 107.391 466.145 107.374C462.622 106.983 460.414 104.853 459.405 103.632C458.307 102.304 457.626 100.877 457.202 99.8456C456.329 97.7235 455.714 95.1814 455.242 92.7116C454.273 87.6355 453.564 80.9386 453.069 73.8157C452.074 59.5103 451.864 42.2976 452.479 30.3023C452.732 25.3848 456.923 21.6028 461.84 21.855C466.758 22.1072 470.54 26.298 470.287 31.2155C469.714 42.4009 469.905 58.8892 470.857 72.5788C471.335 79.4535 471.986 85.3276 472.757 89.3678C472.86 89.9053 472.959 90.3808 473.053 90.7984C473.08 90.8062 473.106 90.814 473.133 90.8217C473.295 90.8696 473.454 90.9165 473.607 90.9613C475.326 91.4657 477.107 91.9631 478.972 92.3023C482.916 93.0199 485.756 92.7457 487.66 91.601C489.211 90.6685 492.186 87.9029 493.449 78.5771C494.728 69.135 494.027 54.2323 489.211 31.2499C488.202 26.4306 491.29 21.7052 496.109 20.6954ZM473.727 93.1404C473.727 93.1411 473.719 93.1262 473.706 93.0938C473.72 93.1235 473.727 93.1397 473.727 93.1404Z" fill="#A2C159"/>
</svg>
