<svg width="244" height="252" viewBox="0 0 244 252" fill="none" xmlns="http://www.w3.org/2000/svg">
<g clip-path="url(#clip0_7412_103441)">
<path d="M84.6423 24.6867C92.4813 23.9775 101.025 25.1969 107.22 30.403C111.507 34.0525 115.02 38.9733 116.146 44.5426C116.211 44.9058 116.294 45.2647 116.381 45.6236C117.05 51.34 115.15 57.0477 112.237 61.9209C103.707 76.3848 84.6163 83.714 68.5644 78.4906C62.3472 76.5664 57.0299 71.9699 54.3735 66.046C50.3605 57.1904 52.1126 46.2895 58.2255 38.8003C58.5994 38.316 58.982 37.836 59.3777 37.3647C65.6776 30.0269 75.0556 25.638 84.6423 24.6867ZM94.0682 34.9217C90.1335 35.821 86.3814 38.0177 84.2771 41.5331C80.7946 46.8387 81.8685 54.4749 86.538 58.7298C92.2117 63.2051 101.168 62.4268 106.181 57.3071C109.537 53.4977 111.037 47.9024 109.342 43.0335C108.294 40.2056 106.198 37.7842 103.62 36.2145C100.772 34.4849 97.2682 34.433 94.0682 34.9217Z" fill="white"/>
<path d="M145.293 29.5728C151.693 25.3137 159.645 23.6489 167.258 24.4489C176.101 25.465 184.61 29.5339 190.701 36.0243C194.596 40.4002 198.062 45.5458 198.953 51.4395C199.062 52.0794 199.262 52.7021 199.457 53.3247C199.144 54.9895 199.275 56.7018 198.983 58.3709C198.057 64.6494 194.888 70.7852 189.618 74.5125C183.627 79.1997 175.71 81.0028 168.206 80.0861C159.623 78.9403 151.297 75.334 144.85 69.5485C141.367 66.0936 138.08 62.2063 136.437 57.5234C134.793 53.061 134.137 48.0754 135.467 43.4443L135.498 43.4011C135.754 42.4887 136.033 41.5893 136.324 40.6899L136.337 40.6597C138.315 36.2924 141.267 32.2754 145.293 29.5728ZM148.876 35.0038C143.063 36.5086 138.88 42.519 139.511 48.4688C139.493 53.3204 142.267 58.2844 146.815 60.2605C152.297 62.483 159.428 62.3187 163.815 57.9601C166.793 54.5787 168.023 49.7488 166.923 45.3772C165.849 41.1526 162.662 37.5464 158.589 35.9378C155.567 34.5584 152.106 34.3639 148.876 35.0038Z" fill="white"/>
<path d="M102.12 46.7955C104.09 46.1512 106.233 48.1402 105.755 50.1423C105.659 51.4178 104.816 52.8404 103.398 52.901C102.229 53.0091 100.525 53.1777 99.9724 51.8719C98.8942 49.9952 99.9855 47.3143 102.12 46.7955Z" fill="white"/>
<path d="M145.337 47.4388C147.593 46.1114 150.571 48.6236 150.119 51.0537C149.893 52.0223 149.532 53.1725 148.572 53.6482C147.224 53.9595 145.532 54.0979 144.572 52.8958C143.024 51.3305 143.354 48.4853 145.337 47.4388Z" fill="white"/>
<path d="M92.3599 5.36114C101.295 2.00569 110.86 0.864151 120.325 0.198251C129.542 -0.502242 138.759 0.738754 147.815 2.34297C160.685 5.0844 172.862 10.55 183.841 17.7192C188.249 20.7633 192.214 24.4085 195.892 28.2828C199.162 32.209 202.227 36.4985 203.484 41.5273C205.444 47.0966 206.992 52.7914 208.462 58.5034C208.353 58.5899 208.127 58.7585 208.018 58.845C207.87 58.9142 207.583 59.0483 207.44 59.1174C205.462 52.9254 203.549 46.7032 201.253 40.6236C199.845 36.7147 197.566 33.0738 194.549 30.207C190.858 26.2678 186.78 22.6702 182.341 19.5872C176.884 16.0977 171.267 12.8028 165.245 10.3684C159.015 7.98582 152.659 5.84111 146.089 4.60011C138.615 3.22075 131.024 2.33 123.416 2.43377C112.916 2.64133 102.425 4.36661 92.4817 7.748C82.308 11.5013 72.2343 16.3355 64.3649 23.9242C63.0606 25.0744 61.8519 26.324 60.5824 27.5131C56.7564 31.1583 53.6173 35.5774 51.3347 40.3382C49.1652 45.086 46.8088 49.7473 44.6784 54.5124C41.9567 61.4524 39.3828 68.4573 36.4481 75.3196C32.5438 84.8627 29.0613 94.7128 27.9961 105.026C27.3744 109.337 26.5657 113.79 27.6918 118.093C28.7831 123.619 32.096 128.388 35.8525 132.475C40.9393 137.577 47.0044 141.616 53.4086 144.898C61.2041 148.776 69.4083 151.773 77.695 154.432C84.5253 156.239 91.0252 159.106 97.9076 160.723C101.929 161.891 106.22 162.574 109.768 164.922C107.064 164.641 104.616 163.314 101.908 163.058C103.799 164.52 106.151 165.359 107.738 167.201C106.438 166.73 105.19 166.124 103.986 165.45C97.1816 161.588 89.3687 160.222 81.8602 158.358C81.2384 159.828 80.6341 161.307 80.1689 162.838C79.9776 163.478 79.808 164.122 79.6559 164.775C78.3124 169.415 76.7777 174.05 76.6864 178.932C77.2124 179.325 77.7342 179.728 78.2689 180.117C81.6297 181.924 85.3905 182.767 89.0165 183.874C92.873 185.059 96.8511 185.781 100.808 186.577C104.399 187.282 108.042 187.692 111.668 188.207C112.159 187.143 112.664 186.054 113.494 185.202C115.512 183.018 117.533 180.835 119.494 178.595C116.459 174.599 112.594 171.317 109.068 167.763C108.247 166.915 107.529 165.968 106.86 165C108.16 165.713 109.377 166.578 110.49 167.564C114.068 171.015 117.755 174.426 120.733 178.422C122.607 175.762 124.964 173.475 126.829 170.824C126.398 170.375 125.911 169.986 125.451 169.575C121.072 165.277 116.377 161.316 111.607 157.463C109.929 156.092 107.607 156.361 105.594 156.023C98.2511 155.063 90.9034 154 83.6732 152.374C78.9254 151.379 74.4386 149.546 69.8822 147.946C67.9865 146.809 65.9909 145.853 63.9214 145.066C63.6214 144.898 63.3214 144.738 63.0214 144.578C60.2824 142.731 57.452 141.032 54.7173 139.181C52.7304 137.806 51.1217 135.968 49.1087 134.624C46.0175 132.648 43.8566 129.655 41.9176 126.62C37.3046 119.044 35.1307 110.011 36.1177 101.19C37.0568 93.861 39.3785 86.6399 43.361 80.37C46.0653 76.2709 49.287 72.4873 53.0043 69.2573L53.3564 68.9157C52.3652 65.9278 51.3478 62.888 51.2434 59.7142C51.1826 57.4484 51.2652 55.1783 51.213 52.9125C51.9478 43.9574 56.1433 35.3396 62.878 29.3335C73.356 19.7731 89.6774 17.5462 102.521 23.4399C105.416 24.6117 107.729 26.8602 110.725 27.8288C114.281 29.0438 117.838 30.674 121.681 30.5745C124.455 30.5616 127.294 31.2145 130.02 30.4275C134.411 29.2125 138.472 27.0375 142.898 25.9262C145.611 25.3079 147.837 23.5566 150.415 22.601C154.819 20.8757 159.567 20.2098 164.276 20.0239C176.81 19.4964 189.54 26.0127 195.866 36.8833C198.51 41.1511 199.827 46.0978 200.384 51.0488C200.749 54.1751 200.131 57.3186 200.466 60.4449C200.914 65.2705 202.597 69.8583 203.692 74.5585C204.592 77.3519 204.814 80.3527 206.057 83.0336C208.605 87.6993 210.596 92.78 211.07 98.1072C211.753 102.959 211.662 107.936 210.579 112.722C210.031 115.373 208.905 117.872 208.418 120.54C207.623 123.174 206.81 125.842 205.344 128.198C203.636 131.035 201.636 133.698 199.471 136.206C197.436 138.593 194.645 140.137 191.971 141.711C186.475 144.867 180.436 146.861 174.51 149.036C171.641 150.147 168.684 151.003 165.763 151.967C160.537 153.71 155.002 154.147 149.65 155.366C147.298 155.945 144.511 155.677 142.694 157.558C138.994 161 135.372 164.537 131.937 168.243C127.89 172.113 124.298 176.411 120.746 180.726C119.338 182.439 118.312 184.415 117.012 186.205C116.733 186.802 116.068 186.65 115.538 186.663C116.525 184.614 118.085 182.936 119.272 181.016C117.177 182.945 115.046 185.102 114.307 187.939C116.772 188.129 119.212 188.618 121.677 188.722C124.555 188.112 127.442 186.326 130.468 187.208C132.003 187.844 133.442 188.817 135.129 189.02C137.481 189.288 139.85 188.994 142.189 188.76C146.42 188.237 150.68 187.857 154.845 186.944C162.989 185.31 171.093 183.243 178.762 180.022C179.554 179.689 180.315 179.269 180.997 178.742C181.175 177.95 180.984 177.142 180.823 176.363C179.567 171.313 177.649 166.461 175.797 161.606C175.758 161.484 175.684 161.247 175.645 161.126C175.115 159.405 174.332 157.779 173.593 156.144C169.741 156.975 166.132 158.626 162.389 159.815C158.576 160.996 154.841 162.423 150.985 163.461C151.463 162.743 151.828 161.856 152.659 161.471C155.832 159.906 159.311 159.02 162.415 157.307C169.332 154.051 176.841 152.313 183.884 149.369C191.384 146.67 198.562 142.999 204.879 138.13C209.653 134.407 214.183 130.153 217.205 124.869C220.318 118.3 220.805 110.803 220.057 103.668C219.07 93.9302 215.653 84.7114 212.818 75.4104C212.062 72.6473 210.97 69.9491 210.814 67.065C211.009 67.2164 211.392 67.5147 211.588 67.6661L211.74 67.7871C214.066 75.2201 217.335 82.3504 219.231 89.9261C221.857 99.7503 223.657 110.288 220.974 120.298C219.161 127.446 213.975 133.115 208.527 137.845C201.684 143.561 193.806 147.981 185.571 151.388C194.205 156.456 203.062 161.324 210.701 167.845C210.118 170.388 208.814 172.697 207.444 174.898C206.214 176.895 204.492 178.547 203.318 180.584C203.549 180.588 204.014 180.601 204.244 180.605C205.892 183.282 207.705 185.898 208.696 188.912C208.836 189.349 208.979 189.781 209.131 190.218C210.079 193.4 210.279 197.089 208.47 200.02C207.592 201.62 206.014 202.662 204.379 203.38C202.31 203.938 200.04 203.972 198.092 202.991C197.062 204.392 195.71 205.819 193.888 206.026C192.11 206.225 190.501 205.283 189.184 204.21C189.197 204.569 189.227 205.291 189.24 205.65C188.766 206.126 188.288 206.593 187.814 207.068C189.053 210.614 190.653 214.16 190.701 217.978C190.779 219.003 190.293 219.954 189.627 220.702C187.445 223.106 185.045 225.307 182.567 227.404C182.41 227.547 182.088 227.832 181.928 227.975C181.671 228.005 181.154 228.07 180.893 228.1C180.532 228.429 180.18 228.766 179.832 229.108C180.515 229.138 181.201 229.177 181.893 229.194L182.767 229.212C181.636 230.189 181.049 231.624 181.154 233.112C181.293 234.612 180.454 235.888 179.823 237.172C182.423 237.894 183.91 240.225 185.732 242.011C187.562 243.844 187.445 246.659 187.097 249.029C187.019 249.885 186.236 250.404 185.723 251.018C183.684 251.519 181.623 252.038 179.501 251.995C171.428 251.965 163.424 250.533 155.615 248.575C152.324 247.623 148.863 247.572 145.541 246.802C144.346 246.56 143.711 245.345 143.507 244.251C143.137 241.548 144.294 238.906 144.111 236.217L146.185 234.958C146.172 233.972 146.176 232.987 146.194 232.005C144.107 230.539 142.215 228.801 140.641 226.795C139.881 225.817 139.433 224.429 138.089 224.101C134.698 223.128 131.368 221.463 127.746 221.753C125.503 221.878 123.377 222.656 121.194 223.128C120.377 223.357 119.407 223.478 118.825 224.161C116.712 227.153 113.994 229.666 111.338 232.174C111.433 233.147 111.49 234.158 111.946 235.049C112.29 235.802 112.916 236.489 112.786 237.375C112.629 239.589 113.894 241.635 113.533 243.866C113.316 245.02 113.499 246.789 112.059 247.187C107.994 248.402 103.681 248.276 99.5511 249.163C92.8469 250.65 85.9514 250.975 79.1037 250.953C75.5299 250.486 71.7126 251.143 68.4213 249.379C67.8083 247.675 67.717 245.708 68.13 243.939C69.3865 240.865 72.1256 238.642 75.0733 237.241C75.069 236.965 75.0647 236.416 75.0603 236.139C74.4777 235.953 73.8908 235.767 73.3256 235.551C72.7604 234.729 73.7995 234.003 74.1908 233.341C73.3299 233.203 72.4821 233 71.643 232.775C72.1691 231.339 71.8691 229.8 72.0604 228.321C72.5212 228.005 73.0212 227.755 73.5125 227.495C73.4777 226.639 73.4734 225.77 73.2082 224.948C70.7474 222.622 67.6909 220.512 66.7214 217.091C67.6779 214.592 67.9257 211.894 68.3344 209.274C68.5822 208.603 67.8866 208.18 67.6126 207.669C67.0344 205.641 67.6605 203.592 67.9431 201.573C68.2387 198.835 69.3996 196.306 70.1735 193.686C69.6387 193.206 69.0735 192.756 68.4952 192.332C69.03 196.193 67.7648 200.107 65.6301 203.311C64.5214 205.079 62.0867 206.026 60.1389 205.079C58.5346 204.496 57.6563 202.991 56.9129 201.568C54.7303 201.672 52.3086 201.841 50.4826 200.401C48.3652 198.723 46.9696 195.999 47.2435 193.27C47.5174 191.355 47.9392 189.465 48.5478 187.628C49.4522 184.877 50.7217 182.266 51.626 179.52C49.4 177.838 47.6826 175.615 45.9914 173.432C45.4218 172.606 44.6305 171.434 45.174 170.457C49.9869 166.116 55.0868 162.094 60.1693 158.064C62.378 156.395 64.7257 154.899 66.8214 153.083C63.2693 152.114 60.0085 150.363 56.6129 148.979C50.113 146.017 43.7566 142.528 38.3872 137.784C34.8351 134.814 31.6091 131.402 29.1439 127.476C27.3353 123.961 25.9657 120.225 25.2049 116.346C25.144 111.823 25.8266 107.343 26.2744 102.855C26.4831 100.459 27.4135 98.2153 28.0657 95.9236C28.8918 93.4329 29.2787 90.8299 30.0091 88.3176C31.0221 85.2951 32.4004 82.4067 33.296 79.3452C37.0568 69.56 41.2219 59.9347 44.8958 50.1148C47.4174 42.8764 50.9217 35.9623 55.4607 29.7659C58.6302 25.5889 62.7388 22.2724 66.7214 18.904C74.4429 13.0276 83.1862 8.53498 92.3599 5.36114ZM79.8776 22.6227C73.169 24.0928 66.7866 27.4007 62.091 32.4339C60.3519 34.2629 58.9954 36.399 57.4172 38.3578C57.7476 38.2324 58.4128 37.9859 58.7433 37.8605L58.2259 38.7988C52.113 46.2881 50.3608 57.1889 54.3738 66.0445C57.0303 71.9685 62.3475 76.5649 68.5648 78.4891C84.6166 83.7125 103.708 76.3833 112.238 61.9194C115.151 57.0462 117.051 51.3385 116.381 45.6222C116.729 46.2448 117.146 46.8675 117.103 47.6155C117.299 52.2422 115.851 56.7954 113.646 60.8211C109.833 68.0033 103.342 73.5294 96.012 76.967C87.86 80.8457 78.2689 81.8705 69.5256 79.5269C64.1258 78.1086 59.3215 74.8353 55.9433 70.4248C51.1304 74.4937 46.9218 79.3409 44.0132 84.9405C40.548 91.6687 38.5872 99.2444 38.835 106.82C39.3785 116.956 43.7088 127.013 51.3782 133.828C51.3608 134.061 51.326 134.537 51.3087 134.775C54.439 136.911 57.6259 138.965 60.8389 140.984C69.217 145.983 78.5776 149.364 88.2078 150.994C92.8164 151.889 97.4424 152.793 102.134 153.156C107.755 153.61 113.381 154.181 119.029 154.064C125.342 153.926 131.672 154.246 137.968 153.636C141.507 153.273 145.08 153.122 148.576 152.408C151.298 151.807 154.115 151.972 156.845 151.435C163.737 149.779 170.754 148.296 177.162 145.17C182.314 142.865 187.449 140.279 191.827 136.678C190.953 137.08 190.049 137.555 189.058 137.274C191.762 135.32 194.388 133.253 196.771 130.914C202.444 125.53 206.401 118.396 207.983 110.759C209.523 103.625 208.449 96.1138 205.766 89.3813C203.336 82.8866 199.149 77.0665 193.884 72.5479C193.523 72.0766 193.071 72.6949 192.758 72.8722C188.08 76.9584 182.271 79.8944 176.041 80.6122C166.841 81.8229 157.502 78.9301 149.785 74.031C145.15 71.1512 141.324 67.1212 138.307 62.6199C135.263 57.7424 133.559 51.8271 134.446 46.0891C134.233 45.7346 134.024 45.38 133.811 45.0298C133.911 45.9162 133.92 46.7983 133.829 47.6847C131.642 47.6328 129.494 47.0577 127.294 47.2048C124.237 47.3215 120.885 46.6859 118.142 48.3852C117.299 46.5345 117.429 44.4287 116.829 42.5002C116.577 43.0494 115.916 43.6807 116.833 44.2169L116.146 44.5412C115.02 38.9718 111.507 34.0511 107.22 30.4016C101.025 25.1955 92.4817 23.9761 84.6427 24.6852C75.056 25.6365 65.6779 30.0254 59.378 37.3633L58.7998 37.0606C62.8345 32.4944 67.917 28.7757 73.6647 26.6483C81.5558 23.6475 90.3904 23.0205 98.5772 25.1868C104.973 27.0461 110.36 31.6123 113.816 37.2076C114.812 38.8896 115.903 40.6279 116.02 42.6343C116.22 42.3791 116.42 42.124 116.62 41.8646C114.507 35.9277 110.62 30.5875 105.334 27.0634C101.312 24.2139 96.4772 22.7999 91.6556 22.0346C87.7383 21.4552 83.7166 21.667 79.8776 22.6227ZM156.88 22.4367C152.302 23.3231 147.993 25.4073 144.276 28.1877C138.972 32.0534 135.894 38.1805 134.107 44.3293C134.316 44.6882 134.533 45.0427 134.755 45.393C134.755 44.926 134.755 43.9963 134.746 43.5337C134.924 43.512 135.289 43.4645 135.468 43.4428C134.137 48.0739 134.794 53.0595 136.437 57.5219C138.081 62.2048 141.368 66.0921 144.85 69.547C151.298 75.3326 159.624 78.9388 168.206 80.0847C175.71 81.0014 183.627 79.1982 189.619 74.511C194.888 70.7837 198.058 64.6479 198.984 58.3694C199.275 56.7003 199.145 54.988 199.458 53.3232C199.262 52.7006 199.062 52.0779 198.953 51.438C198.062 45.5443 194.597 40.3987 190.701 36.0228C184.61 29.5324 176.102 25.4635 167.258 24.4474C159.645 23.6475 151.693 25.3122 145.294 29.5714C141.268 32.2739 138.315 36.2909 136.337 40.6582L135.646 40.9522C137.242 37.1514 139.446 33.5149 142.537 30.7345C145.528 28.2915 149.05 26.5186 152.711 25.2906C159.354 23.0507 166.65 23.2194 173.376 25.0311C181.232 27.0851 188.249 31.8631 193.349 38.1113C194.605 39.6161 195.492 41.3846 196.74 42.898C194.032 35.1537 187.914 28.8795 180.528 25.3684C173.336 21.5244 164.797 21.0963 156.88 22.4367ZM131.194 32.4036C129.729 32.3387 129.803 34.4445 130.733 35.0715C131.289 35.7461 132.542 36.1223 132.416 37.16C131.724 38.8334 130.611 40.295 129.798 41.9121C128.203 42.1197 127.233 40.8787 126.029 40.1393C125.22 40.1263 123.451 39.7501 123.777 41.0776C125.307 43.9271 128.672 44.5757 131.616 44.9173C132.111 42.431 132.663 39.9274 133.859 37.6659C134.776 35.638 136.385 34.0381 137.394 32.062C135.337 31.4393 133.25 32.235 131.194 32.4036ZM197.962 72.3619C198.471 71.0301 198.697 69.6075 198.671 68.1849C197.897 69.3611 197.318 71.0172 197.962 72.3619ZM198.084 134.109C195.814 135.138 194.149 137.023 192.162 138.455C190.584 139.683 188.875 140.721 187.245 141.871C190.28 140.171 193.279 138.334 195.801 135.916C196.797 134.879 198.171 134.334 199.223 133.361C201.401 131.316 203.34 128.976 204.67 126.291C202.914 129.219 200.814 132.021 198.084 134.109ZM177.428 154.471C176.667 154.869 175.632 154.972 175.115 155.695C175.736 157.723 176.745 159.604 177.484 161.588C178.919 164.965 180.101 168.45 181.706 171.754C182.532 169.955 182.088 167.94 182.175 166.033C182.262 163.141 182.149 160.209 182.758 157.359C182.936 157.662 183.114 157.965 183.293 158.276C183.327 162.12 183.193 165.968 183.336 169.813C183.062 170.79 183.106 171.853 182.662 172.792C182.31 173.557 182.067 174.431 182.397 175.252C183.058 176.523 184.367 177.514 184.493 179.023C184.523 180.791 183.849 182.478 183.671 184.22C183.888 186.166 184.745 187.965 185.432 189.781C189.349 186.828 194.175 185.081 197.54 181.423C198.64 180.233 200.231 179.654 201.305 178.435C203.749 176.104 205.57 173.125 206.914 170.042L206.749 169.96C206.914 169.653 207.24 169.039 207.405 168.732C203.223 165.052 198.653 161.839 193.888 158.955C193.049 158.427 192.197 157.921 191.34 157.433L191.353 157.316C190.849 157.022 190.349 156.728 189.849 156.438C187.519 155.107 185.293 153.559 182.858 152.43C180.941 152.694 179.249 153.848 177.428 154.471ZM64.0823 158.125C63.7171 158.397 63.2519 158.648 63.1997 159.154C58.865 161.48 55.2738 164.931 51.626 168.178C50.213 169.428 48.7131 170.591 47.4609 172.009C47.6957 172.251 48.1609 172.74 48.3957 172.986L48.2348 173.107C50.2261 175.853 52.7782 178.154 55.5303 180.121C58.0085 181.63 60.3563 183.36 62.9562 184.67C65.6344 186.118 68.517 187.135 71.2865 188.389C71.6169 187.883 71.9865 187.403 72.2299 186.845C72.2734 184.25 72.3256 181.647 72.4386 179.057C73.0603 177.786 74.6038 177.107 74.8516 175.628C75.2255 174.059 75.4777 172.459 75.7342 170.868C75.9777 169.389 75.3994 167.953 75.2429 166.5C74.9994 164.451 74.7603 162.401 74.569 160.352C76.0212 162.73 75.7038 165.7 76.2603 168.351C76.582 167.331 77.0603 166.301 76.9342 165.207C76.6342 162.444 76.2516 159.686 76.2385 156.901C77.6124 159.223 77.3733 162.034 77.6733 164.615C78.9298 162.535 79.7906 160.239 81.2123 158.25C77.3733 156.711 73.3429 155.708 69.4778 154.22C67.6083 155.418 65.9301 156.892 64.0823 158.125ZM135.815 158.981C132.781 161.441 129.576 163.729 125.972 165.29C126.329 164.957 126.681 164.628 127.042 164.299C126.916 164.079 126.664 163.638 126.533 163.417C124.042 162.743 121.659 161.64 119.081 161.324C120.838 163.041 122.916 164.386 124.681 166.098C125.79 167.175 127.055 168.07 128.255 169.047C130.746 166.531 133.198 163.971 135.698 161.454C137.476 159.673 139.511 158.164 141.185 156.278C138.998 156.131 137.407 157.761 135.815 158.981ZM114.012 156.91C115.307 158.233 116.751 159.547 118.585 160.045C121.125 160.771 123.633 161.623 126.098 162.57C126.711 162.89 127.62 163.136 127.62 164.001C128.863 162.842 130.233 161.822 131.681 160.927C133.759 159.655 135.602 158.047 137.676 156.767C129.824 157.675 121.89 157.238 114.012 156.91ZM170.21 184.947C159.211 187.446 148.211 190.477 136.894 191.121C137.585 191.843 138.315 192.57 138.65 193.538C141.25 193.404 143.815 192.89 146.363 192.393C147.098 192.263 147.841 192.155 148.58 192.016C149.685 191.649 150.815 191.351 151.993 191.368L151.902 191.039C152.25 191.009 152.598 190.979 152.95 190.953C153.306 190.996 154.024 191.087 154.38 191.134C153.706 191.195 153.028 191.26 152.359 191.351C151.641 191.843 150.737 191.74 149.92 191.714L150.241 192.185C149.828 192.263 148.993 192.423 148.58 192.501L149.076 192.566C145.759 193.154 142.524 194.165 139.163 194.542C139.137 195.199 139.207 195.848 139.372 196.487L139.12 197.05C139.272 197.058 139.572 197.08 139.724 197.093C141.05 198.243 142.837 197.612 144.407 197.594C150.806 197.413 157.258 196.985 163.484 195.428C166.567 195.125 169.571 194.334 172.584 193.655C176.271 192.79 179.715 191.186 183.106 189.539C183.058 188.631 183.084 187.701 182.693 186.862C178.867 189.374 174.436 190.905 170.01 191.978L170.21 192.332C169.054 192.06 167.767 192.76 166.61 192.998C167.745 192.254 169.097 191.973 170.293 191.346C170.78 191.385 171.263 191.1 171.732 190.966C175.454 189.526 179.288 188.224 182.68 186.084C182.545 185.327 182.414 184.57 182.293 183.814C179.597 184.86 177.015 186.188 174.267 187.1C176.867 185.794 179.488 184.519 182.167 183.386C182.61 182.127 183.232 180.865 183.106 179.498C179.523 182.681 174.441 183.001 170.21 184.947ZM73.9342 180.575C74.0995 181.245 74.3168 181.911 74.5994 182.547C74.5299 183.546 74.456 184.549 74.3821 185.552C74.469 186.62 75.6646 186.486 76.4255 186.65C76.0559 186.672 75.3168 186.719 74.9473 186.741L74.456 186.447C74.0125 187.334 73.8299 188.38 74.2516 189.318C76.8255 190.598 79.6254 191.363 82.3558 192.237C88.7078 194.018 95.1468 195.614 101.716 196.332C104.842 196.959 108.055 197.102 111.199 197.668C112.503 197.806 113.816 197.85 115.129 197.854C115.472 197.581 115.82 197.318 116.172 197.058C116.185 196.211 116.185 195.368 116.19 194.524C113.625 193.703 110.951 193.309 108.342 192.721C106.438 192.743 104.707 191.818 102.829 191.709C102.49 191.446 102.186 191.16 101.812 190.957C105.825 192.336 110.129 192.479 114.242 193.422C114.994 193.456 115.751 193.474 116.507 193.491C117.638 192.449 118.933 191.593 120.294 190.875C110.625 190.33 101.155 188.112 91.7425 185.984C88.1209 185.094 84.421 184.484 80.9167 183.178C79.7385 182.607 78.4211 182.378 77.2776 181.734C76.1994 181.25 75.1994 180.298 73.9342 180.575ZM53.039 180.644C52.8912 181.046 52.7478 181.453 52.6043 181.864C50.6304 185.859 48.9957 190.14 48.7435 194.619C48.6565 197.525 51.2608 199.722 53.8782 200.435C55.5955 200.889 57.2477 199.999 58.8041 199.411C58.852 200.548 58.5737 201.767 59.0041 202.861C60.5041 204.634 63.5606 204.426 65.0997 202.796C66.4127 201.413 66.7735 199.475 67.5257 197.789C67.7692 196.604 68.13 195.376 67.8518 194.17C67.3996 193.18 66.8518 192.237 66.4735 191.221C64.1953 189.902 61.9867 188.466 59.8563 186.927C57.5085 184.916 55.1999 182.854 53.039 180.644ZM195.127 186.737C193.232 187.861 191.301 188.916 189.397 190.032C188.375 190.581 187.167 191.048 186.627 192.155C185.78 193.508 186.371 195.134 186.667 196.561C187.675 198.394 187.597 200.738 189.188 202.256C190.61 203.808 192.997 205.248 195.084 204.046C196.714 203.159 196.41 201.11 196.592 199.566C197.731 200.409 198.501 201.841 199.979 202.165C202.166 202.61 204.657 202.096 206.205 200.409C208.462 198.152 208.705 194.654 208.07 191.692C207.131 187.909 205.257 184.41 202.975 181.263C200.318 183.031 197.818 185.02 195.127 186.737ZM123.494 191.143C124.868 192.553 125.646 194.347 126.32 196.163C126.594 196.816 126.881 197.469 127.15 198.126C127.985 199.778 129.194 202.394 131.489 201.72C131.337 200.613 131.568 199.519 131.807 198.446C131.92 197.274 132.107 196.116 132.281 194.957C132.25 193.383 132.468 191.701 131.781 190.235C130.985 188.938 129.316 189.197 128.024 189.232C128.224 191.437 129.05 193.513 129.55 195.657L129.85 195.575C129.837 195.748 129.816 196.094 129.807 196.267C129.976 197.599 130.498 198.879 130.459 200.236C129.798 199.32 129.316 198.295 128.955 197.231L128.898 197.261C128.716 196.392 128.503 195.532 128.285 194.676C127.746 192.886 127.107 191.126 126.707 189.301C125.533 189.716 124.246 190.062 123.494 191.143ZM133.589 190.399C133.498 191.779 133.324 193.175 133.55 194.55C133.207 196.859 132.916 199.186 132.355 201.46C134.102 200.479 135.424 198.948 136.898 197.629C138.059 196.712 137.472 195.147 137.481 193.906C136.581 192.371 135.255 191.078 133.589 190.399ZM73.4473 190.797C72.8647 191.934 72.056 193.028 71.8952 194.325C70.8256 196.289 70.1604 198.433 69.3387 200.505C68.717 202.087 68.2691 203.739 68.1735 205.443C70.4256 206.32 72.5951 207.397 74.8168 208.348C80.1558 210.411 85.7557 211.686 91.2556 213.256C96.7772 214.735 102.451 215.613 108.138 216.205C108.716 211.743 109.32 207.172 111.229 203.051C111.838 202.187 112.355 201.266 112.799 200.314C106.547 199.242 100.299 198.074 94.1555 196.475C87.16 194.931 80.2645 192.972 73.4473 190.797ZM182.449 191.42C179.484 192.414 176.558 193.53 173.584 194.498C169.415 195.134 165.389 196.505 161.245 197.313C155.341 198.628 149.28 198.978 143.307 199.886C143.833 200.634 144.389 201.369 144.985 202.07C147.05 205.525 148.163 209.403 149.32 213.221C148.807 214.683 147.428 215.427 146.341 216.408C149.872 216.222 153.428 216.032 156.889 215.254C163.867 213.602 170.732 211.505 177.484 209.114C180.419 207.925 183.375 206.705 186.032 204.963C186.697 204.829 187.371 204.703 188.045 204.586C187.975 204.219 187.919 203.864 187.867 203.505C188.062 203.553 188.458 203.648 188.658 203.696C188.814 202.995 188.006 202.809 187.597 202.463C186.419 198.55 185.123 194.684 183.493 190.935L182.449 191.42ZM118.629 194.178C117.29 195.225 117.955 197.097 119.133 197.966C121.346 199.692 123.951 201.624 126.937 201.084C126.629 199.843 126.094 198.684 125.546 197.543C124.985 195.956 123.855 194.498 124.024 192.734C124.181 191.995 123.346 191.675 123.007 191.169C121.272 191.74 120.068 193.141 118.629 194.178ZM112.955 203.933L113.538 204.253C113.39 204.253 113.099 204.24 112.951 204.236C111.664 207.458 110.351 210.722 110.077 214.22C112.668 214.843 115.199 215.885 117.885 216.019L118.468 216.11C118.616 212.504 118.929 208.906 119.451 205.339C119.625 204.024 120.311 202.865 120.738 201.633C120.603 200.959 119.82 200.708 119.385 200.254C117.672 201.988 115.99 204.245 116.099 206.8L115.816 207.021C115.355 208.128 114.872 209.213 114.39 210.316C114.164 208.275 114.725 206.307 115.39 204.413L115.533 204.426C116.181 202.641 117.72 201.244 118.051 199.359C117.846 199.168 117.442 198.784 117.238 198.593C115.338 199.955 114.264 202.061 112.955 203.933ZM137.498 199.493C138.289 200.487 139.007 201.542 139.898 202.459C140.976 205.291 142.35 208.132 142.35 211.228C142.072 209.927 141.707 208.647 141.098 207.462C140.489 205.157 139.015 203.116 137.481 201.3C137.111 200.639 136.324 200.85 135.707 200.807C138.728 205.252 139.628 210.714 139.915 215.967C140.802 216.776 142.333 216.162 143.463 216.179C144.941 215.34 146.411 214.493 147.993 213.857C147.259 208.288 143.411 203.895 140.198 199.523C139.815 199.073 139.424 198.628 139.033 198.191C138.524 198.624 138.011 199.06 137.498 199.493ZM121.916 202.156C121.138 202.87 120.942 203.964 120.672 204.937C119.911 208.521 119.768 212.197 119.559 215.842C119.272 217.325 117.351 216.81 116.399 217.61C118.481 217.822 120.572 217.584 122.659 217.498C127.659 217.571 132.689 216.988 137.702 217.373C138.02 217.416 138.659 217.502 138.976 217.545C138.963 214.618 138.52 211.712 137.842 208.871C137.233 206.402 136.768 203.791 135.181 201.724C133.781 202.463 132.403 203.415 130.785 203.575C129.45 203.389 128.29 202.433 126.881 202.641C125.194 202.827 123.577 202.225 121.916 202.156ZM174.754 212.383C172.862 213.122 170.828 213.541 169.097 214.644C166.124 215.176 163.193 216.036 160.315 216.979C157.628 217.878 154.785 218.224 152.119 219.184C150.098 218.579 148.054 219.461 146.041 219.69C141.698 220.3 137.35 220.936 132.972 221.225C135.62 221.723 138.272 222.272 140.811 223.206L140.985 223.123C145.928 224.624 150.972 225.804 156.059 226.704C158.402 227.14 160.832 227.21 163.08 228.057C158.828 228.446 154.598 227.694 150.376 227.326C147.593 226.829 144.867 226.029 142.046 225.765C143.898 229.372 147.837 231.214 151.28 233.017C154.567 233.925 158.028 233.056 161.384 233.203C159.271 234.141 156.724 233.527 154.767 234.824C156.354 234.967 157.993 235.192 159.571 234.898C163.554 235.287 167.497 234.422 171.454 234.111C173.115 233.886 174.962 233.985 176.367 232.917C176.915 233.384 178.345 232.926 178.149 232.122C178.793 231.962 179.367 231.62 179.954 231.326C179.819 230.665 179.693 230.007 179.567 229.354C178.528 230.15 177.545 231.045 176.402 231.689C174.302 232.792 171.897 232.987 169.58 233.233C168.658 233.112 167.741 232.995 166.828 232.874C171.158 232.264 176.006 231.78 179.201 228.442L179.58 228.364L179.806 227.084C181.132 226.384 182.262 225.368 183.445 224.451C185.258 222.894 187.201 221.368 188.427 219.279C188.275 218.851 187.98 217.995 187.827 217.567L187.88 217.537C187.61 215.293 187.084 213.087 186.414 210.925C186.162 209.952 185.901 208.984 185.632 208.02C181.971 209.395 178.449 211.111 174.754 212.383ZM70.8039 208.53C70.4039 209.403 70.0822 210.311 69.8778 211.254C69.5039 213.074 68.7996 214.817 68.5126 216.659C68.3387 217.282 68.7604 217.844 69.0648 218.35C70.9647 221.065 73.5169 223.27 76.2733 225.095C78.0994 226.336 80.1124 227.361 81.6167 229.013C79.3254 228.589 77.3298 227.309 75.2864 226.267C75.4386 227.586 75.2386 229.233 76.4603 230.128C78.1907 231.011 80.1993 231.01 82.0515 231.503C78.8254 231.681 75.969 230.064 73.0864 228.892C73.1038 229.653 73.1212 230.418 73.1386 231.188C75.1038 230.496 76.3951 232.386 78.1863 232.697C84.2079 234.076 90.4426 234.184 96.5859 233.774C95.7512 232.615 94.0077 232.939 92.786 232.489C93.499 232.342 94.2121 232.191 94.9294 232.048C97.5076 232.835 100.312 232.342 102.899 233.142C105.142 233.812 107.499 233.912 109.803 234.266C109.829 233.013 109.36 231.46 110.36 230.461C112.299 228.503 114.155 226.47 116.112 224.529C113.412 224.499 110.694 224.628 108.042 225.138C103.538 225.247 98.9772 225.294 94.5686 224.239C98.3076 223.66 102.129 224.144 105.86 223.508C108.086 223.495 110.294 223.236 112.52 223.184C114.372 223.119 116.299 223.214 118.059 222.522C119.577 222.008 120.62 220.68 122.103 220.101C123.533 219.746 125.02 220.006 126.477 219.963C130.394 219.902 134.324 219.777 138.207 219.206C140.572 218.843 143.141 219.344 145.272 218C145.02 217.9 144.52 217.701 144.272 217.602C141.928 218.151 139.502 218.549 137.089 218.203C133.285 217.528 129.433 218.142 125.611 218.233C122.981 218.276 120.351 218.397 117.729 218.562C117.077 218.566 116.533 218.959 115.977 219.241C115.625 218.475 115.486 217.545 114.872 216.94C113.329 216.361 111.664 216.274 110.042 216.114C109.981 216.698 109.92 217.286 109.864 217.874C104.468 216.988 99.025 216.356 93.6947 215.12C85.9775 213.239 78.295 211.181 70.8039 208.53ZM152.124 216.875C149.993 216.914 147.859 216.88 145.728 216.923C145.785 217.226 145.894 217.827 145.946 218.125C147.35 218.371 148.772 218.147 150.163 217.917C153.328 217.411 156.585 217.312 159.654 216.335C157.132 216.343 154.646 216.828 152.124 216.875ZM147.285 232.424C147.246 233.038 147.211 233.657 147.176 234.275C147.524 234.219 147.876 234.163 148.233 234.115C148.341 234.375 148.463 234.638 148.598 234.898C150.106 235.123 151.65 235.049 153.167 234.906C151.324 233.838 149.22 233.311 147.285 232.424ZM174.689 234.764C171.258 235.304 167.732 235.802 164.271 235.27C160.524 235.633 156.767 235.702 153.011 235.953C151.237 236.052 149.537 236.619 147.776 236.826C146.976 236.978 146.002 236.809 145.441 237.557C148.554 238.085 151.724 238.275 154.876 238.469C156.063 238.915 157.367 238.634 158.511 238.184C160.245 237.522 162.115 237.311 163.863 236.684C166.006 236.428 168.158 235.901 170.332 236.208C171.528 236.489 172.532 237.492 173.836 237.293C175.284 237.168 177.062 237.263 178.054 236C178.58 235.326 179.28 234.647 179.349 233.756C177.728 233.389 176.258 234.539 174.689 234.764ZM76.7559 234.007C76.9863 234.725 76.869 235.806 77.7515 236.104C79.6167 236.878 81.7471 236.627 83.6123 235.987C86.1514 236.346 88.6644 236.844 91.1339 237.527C93.5729 238.206 96.0338 237.384 98.3554 236.671C101.186 235.845 104.121 235.525 107.003 234.954C106.112 234.275 104.947 234.163 103.864 234.111C101.986 233.916 100.516 235.754 98.6207 235.339C96.8294 235.04 94.999 235.084 93.2251 235.469C90.4948 235.629 87.7513 235.239 85.047 235.278C82.3384 234.573 79.5298 234.349 76.7559 234.007ZM95.412 238.729C96.5337 239.853 97.6642 240.969 98.7685 242.115C102.786 241.903 106.729 240.986 110.746 240.705C110.794 239.563 110.79 238.422 110.742 237.28C108.655 237.423 106.681 236.826 104.694 236.346C101.538 236.831 98.4511 237.752 95.412 238.729ZM83.4819 237.388C85.3383 238.919 87.86 239.287 90.0513 240.182C91.7469 241.034 93.4338 241.903 95.1425 242.733C95.6859 242.564 96.2338 242.396 96.7772 242.231C95.5512 240.58 93.7642 239.265 91.6469 239.131C89.0383 238.206 86.3296 236.861 83.4819 237.388ZM161.663 238.331C159.58 238.781 157.772 239.909 155.998 241.029C155.28 241.414 154.889 242.11 154.632 242.85C155.576 242.837 156.615 242.815 157.228 241.981C160.65 240.277 164.41 239.352 168.171 238.716C169.058 238.603 169.871 238.219 170.536 237.626C167.567 237.202 164.563 237.704 161.663 238.331ZM76.5124 239.65C77.8298 239.931 79.1559 239.088 79.1124 237.652C77.9081 237.791 77.1472 238.725 76.5124 239.65ZM145.346 238.621C145.372 239.183 145.398 239.754 145.433 240.324C147.985 241.488 150.728 242.054 153.485 242.521C154.132 241.462 155.024 240.601 156.059 239.918C152.541 239.096 148.959 238.612 145.346 238.621ZM174.289 238.915C174.741 239.507 175.075 240.268 175.745 240.67C177.223 241.129 178.723 240.463 180.119 240.013C179.775 239.922 179.441 239.827 179.11 239.736C178.18 238.188 175.802 239.036 174.289 238.915ZM79.3298 240.718C81.5036 241.764 83.7514 242.642 85.9601 243.615C88.4122 244.597 91.086 243.866 93.5599 243.364C90.4774 241.38 86.9948 239.996 83.3775 239.369C81.8775 239.049 80.495 239.883 79.3298 240.718ZM157.041 243.611C159.424 244.082 161.85 244.476 164.289 244.415C165.245 244.393 166.054 243.814 166.884 243.412C168.515 242.486 170.349 242.054 172.084 241.371C171.484 240.307 170.454 239.01 169.054 239.589C164.98 240.61 160.471 240.969 157.041 243.611ZM70.7778 243.944C75.4125 244.393 80.0863 244.986 84.7471 244.471C81.9819 242.603 78.7341 241.583 75.4386 241.181C74.8603 241.514 74.2821 241.855 73.7038 242.188C73.6299 241.859 73.4777 241.198 73.4038 240.865C72.2778 241.656 71.4169 242.737 70.7778 243.944ZM174.706 242.521C171.902 242.314 169.232 243.364 166.819 244.674C170.445 245.31 174.123 244.847 177.771 244.765C180.001 244.7 182.219 244.419 184.436 244.233C184.054 243.036 183.288 241.821 182.062 241.358C179.575 241.501 177.158 242.188 174.706 242.521ZM96.925 244.039C94.5077 244.428 91.9382 244.121 89.6209 244.968C87.1644 245.064 84.7253 245.332 82.2862 245.608C78.2168 245.522 74.0821 245.794 70.0995 244.774C69.9387 245.608 69.7735 246.452 69.6126 247.295C72.1908 247.87 74.8386 248.082 77.4776 247.956C81.121 248.069 84.7818 248.173 88.4122 247.779C91.6252 247.589 94.8207 247.139 97.9946 246.599C102.634 245.816 107.325 245.418 111.964 244.648C111.999 243.641 112.025 242.633 112.046 241.635C107.042 242.638 101.973 243.308 96.925 244.039ZM145.494 242.019C145.55 242.742 145.541 243.49 145.733 244.203C146.294 244.895 147.254 245.046 148.063 245.31C151.324 246.123 154.606 246.862 157.911 247.476C162.745 248.367 167.623 249.141 172.545 249.31C176.849 249.548 181.249 249.682 185.445 248.531C185.501 247.437 185.523 246.344 185.519 245.254C182.941 245.479 180.388 246.032 177.788 246.006C173.158 246.036 168.519 246.08 163.897 245.738C160.711 245.5 157.641 244.523 154.472 244.164C151.585 243.131 148.476 242.755 145.494 242.019Z" fill="#030303"/>
<path d="M134.833 43.343C135.154 42.3744 135.498 41.3583 136.324 40.688C136.033 41.5874 135.754 42.4868 135.498 43.3992L134.833 43.343Z" fill="#030303"/>
<path d="M187.41 173.376C189.792 170.462 191.214 166.95 193.292 163.846C192.675 165.653 191.931 167.422 191.097 169.147C189.388 171.824 187.627 174.5 185.536 176.9C186.036 175.663 186.636 174.466 187.41 173.376Z" fill="#030303"/>
<path d="M92.4816 7.74821C102.425 4.36682 112.916 2.64153 123.416 2.43398C131.024 2.3302 138.615 3.22095 146.089 4.60031C145.724 5.05434 145.363 5.50836 145.002 5.96671C139.02 4.87273 132.959 4.20683 126.885 3.92577C114.738 3.80469 102.412 5.26621 91.0556 9.74591C83.4992 12.6949 75.9168 15.8514 69.2952 20.5949C66.23 22.6964 63.5736 25.3211 60.5823 27.5133C61.8519 26.3242 63.0605 25.0746 64.3648 23.9244C72.2342 16.3357 82.3079 11.5015 92.4816 7.74821Z" fill="#E2E2E0"/>
<path d="M91.0555 9.74693C102.412 5.26724 114.738 3.80572 126.885 3.92679C132.959 4.20785 139.02 4.87375 145.002 5.96773C147.319 6.4477 149.672 6.82821 151.928 7.56762C156.845 9.18048 161.802 10.7328 166.489 12.9424C170.206 14.7066 174.01 16.3022 177.623 18.2826C181.771 20.5051 185.584 23.2811 189.362 26.0701C191.162 27.3587 192.658 29.0364 194.549 30.2082C197.566 33.0751 199.844 36.7159 201.253 40.6248C203.549 46.7044 205.462 52.9267 207.44 59.1187C207.753 60.4937 208.192 61.8471 208.827 63.1141C209.088 62.9455 209.601 62.6082 209.857 62.4395L209.983 62.3617C210.531 64.1259 211.275 65.8382 211.588 67.6673C211.392 67.5159 211.009 67.2176 210.814 67.0663C210.97 69.9504 212.062 72.6486 212.818 75.4116C215.653 84.7126 219.07 93.9314 220.057 103.669C219.992 105.671 220.279 107.738 219.805 109.705C217.883 112.784 214.496 114.54 212.048 117.147C210.831 118.557 209.879 120.17 208.683 121.597C208.614 121.333 208.483 120.805 208.418 120.542C208.905 117.874 210.031 115.374 210.579 112.724C211.662 107.937 211.753 102.96 211.07 98.1084C210.596 92.7812 208.605 87.7005 206.057 83.0349C204.814 80.354 204.592 77.3531 203.692 74.5598C202.597 69.8596 200.914 65.2718 200.466 60.4462C200.131 57.3199 200.749 54.1763 200.384 51.05C199.827 46.099 198.51 41.1524 195.866 36.8845C189.54 26.0139 176.81 19.4976 164.276 20.0251C159.567 20.2111 154.819 20.877 150.415 22.6023C147.837 23.5579 145.611 25.3091 142.898 25.9274C138.472 27.0387 134.411 29.2137 130.02 30.4288C127.294 31.2157 124.455 30.5628 121.681 30.5758C117.838 30.6752 114.281 29.0451 110.725 27.83C107.729 26.8614 105.416 24.6129 102.52 23.4411C89.6772 17.5475 73.3559 19.7744 62.8778 29.3348C56.1432 35.3409 51.9476 43.9586 51.2129 52.9137C49.9433 58.349 50.8172 64.1648 53.0041 69.2585C49.2868 72.4886 46.0652 76.2721 43.3609 80.3713C39.3784 86.6411 37.0567 93.8623 36.1176 101.191C35.1306 110.012 37.3045 119.045 41.9174 126.621C39.6305 125.653 38.4262 123.322 36.8262 121.562C32.7437 116.771 29.2351 111.275 27.996 105.027C29.0612 94.7141 32.5437 84.864 36.448 75.3208C39.3827 68.4586 41.9566 61.4537 44.6782 54.5136C46.8086 49.7485 49.1651 45.0872 51.3346 40.3394C53.6172 35.5787 56.7562 31.1595 60.5822 27.5144C63.5735 25.3221 66.2299 22.6974 69.2951 20.5959C75.9167 15.8525 83.4991 12.6959 91.0555 9.74693Z" fill="#3A4356"/>
<path d="M169.984 162.268C171.858 161.827 173.745 161.451 175.645 161.126C175.684 161.247 175.758 161.485 175.797 161.606C177.193 167.392 179.067 173.087 179.914 178.993C180.188 178.928 180.727 178.803 180.997 178.742C180.314 179.27 179.554 179.689 178.762 180.022C171.093 183.244 162.989 185.311 154.845 186.945C153.502 186.733 152.176 186.444 150.846 186.18C151.706 185.851 152.572 185.527 153.428 185.185C150.702 184.714 147.985 185.535 145.254 185.237C146.146 184.917 147.024 184.563 147.893 184.186C145.407 183.676 142.867 183.962 140.363 184.143C136.907 184.45 133.35 185.177 130.468 187.209C127.442 186.327 124.555 188.113 121.677 188.722C119.211 188.619 116.772 188.13 114.307 187.94C115.046 185.103 117.177 182.945 119.272 181.017C118.085 182.937 116.525 184.614 115.538 186.664C116.068 186.651 116.733 186.802 117.012 186.206C118.311 184.416 119.338 182.439 120.746 180.727C124.298 176.412 127.89 172.114 131.937 168.244C135.437 167.375 138.594 165.502 142.128 164.741C141.033 166.112 139.759 167.323 138.546 168.585C140.62 168.594 142.45 167.301 144.546 167.522C140.524 172.282 136.189 176.913 133.376 182.526C137.407 177.921 141.185 173.091 145.446 168.689C148.659 168.979 151.389 167.115 154.272 166.064C159.332 164.149 164.732 163.457 169.984 162.268Z" fill="#3A4356"/>
<path d="M173.584 194.499C176.558 193.531 179.484 192.415 182.449 191.421C184.245 195.766 184.949 200.419 186.032 204.963C183.375 206.706 180.419 207.925 177.484 209.114C170.732 211.506 163.867 213.603 156.889 215.255C153.428 216.033 149.871 216.223 146.341 216.409C147.428 215.428 148.806 214.684 149.319 213.222C148.163 209.404 147.05 205.526 144.985 202.071C149.563 200.734 154.297 200.056 158.897 198.793C163.906 197.811 169.032 196.929 173.584 194.499Z" fill="#3E3F44"/>
<path d="M169.097 214.646C175.04 214.451 180.688 212.332 186.414 210.927C187.084 213.089 187.61 215.294 187.879 217.538L187.827 217.569C184.966 219.069 182.827 221.568 180.749 223.973C179.853 224.971 179.162 226.13 178.623 227.358C178.919 227.289 179.51 227.155 179.806 227.086L179.579 228.366L179.201 228.444C177.11 228.811 175.11 229.68 172.962 229.706C169.328 229.819 165.688 229.719 162.054 229.884C161.889 230.614 161.723 231.345 161.562 232.084C156.606 232.253 151.297 231.211 147.628 227.67C148.537 227.523 149.45 227.389 150.376 227.328C154.597 227.696 158.828 228.448 163.08 228.059C160.832 227.211 158.402 227.142 156.058 226.705C150.971 225.806 145.928 224.626 140.985 223.125C144.515 221.313 148.65 221.166 152.119 219.186C154.784 218.226 157.628 217.88 160.315 216.981C163.193 216.038 166.123 215.178 169.097 214.646Z" fill="#3E3F44"/>
<path d="M146.089 4.60077C152.659 5.84177 159.015 7.98648 165.245 10.369C171.267 12.8034 176.884 16.0984 182.341 19.5878C186.78 22.6709 190.858 26.2685 194.549 30.2077C192.658 29.0359 191.162 27.3581 189.362 26.0696C185.584 23.2806 181.771 20.5045 177.623 18.282C174.01 16.3016 170.206 14.706 166.489 12.9418C161.802 10.7322 156.845 9.17991 151.928 7.56705C149.672 6.82764 147.32 6.44713 145.002 5.96716C145.363 5.50881 145.724 5.05479 146.089 4.60077Z" fill="#D9DAD8"/>
<path d="M79.6558 164.776C79.6732 167.301 78.7602 169.701 78.4298 172.187C78.0906 174.804 77.3776 177.532 78.2689 180.118C77.7341 179.729 77.2124 179.326 76.6863 178.933C76.7776 174.051 78.3124 169.416 79.6558 164.776Z" fill="#D9DAD8"/>
<path d="M79.8773 22.6229C83.7164 21.6673 87.738 21.4554 91.6553 22.0348C96.477 22.8002 101.312 24.2141 105.333 27.0637C110.62 30.5877 114.507 35.9279 116.62 41.8648C116.42 42.1242 116.22 42.3794 116.02 42.6345C115.903 40.6281 114.811 38.8899 113.816 37.2078C110.359 31.6125 104.972 27.0464 98.5769 25.187C90.3901 23.0207 81.5555 23.6477 73.6644 26.6486C67.9167 28.776 62.8342 32.4946 58.7995 37.0608L59.3778 37.3635C58.9821 37.8348 58.5995 38.3148 58.2256 38.7991L58.743 37.8608C58.4126 37.9861 57.7474 38.2326 57.4169 38.358C58.9952 36.3992 60.3517 34.2632 62.0908 32.4341C66.7863 27.4009 73.1688 24.0931 79.8773 22.6229Z" fill="#9FC15C"/>
<path d="M156.88 22.4378C164.797 21.0973 173.336 21.5254 180.527 25.3694C187.914 28.8806 194.031 35.1547 196.74 42.8991C195.492 41.3856 194.605 39.6171 193.349 38.1124C188.249 31.8641 181.231 27.0861 173.375 25.0322C166.649 23.2204 159.354 23.0518 152.71 25.2916C149.049 26.5196 145.528 28.2925 142.537 30.7356C139.445 33.5159 137.241 37.1524 135.645 40.9532L136.337 40.6592L136.324 40.6895C135.498 41.3597 135.154 42.3758 134.832 43.3444L135.498 43.4006L135.467 43.4439C135.289 43.4655 134.924 43.5131 134.745 43.5347C134.75 43.9974 134.754 44.927 134.754 45.394C134.532 45.0438 134.315 44.6892 134.106 44.3303C135.893 38.1815 138.971 32.0544 144.276 28.1887C147.993 25.4084 152.302 23.3242 156.88 22.4378Z" fill="#A1C45B"/>
<path d="M131.193 32.4048C133.25 32.2362 135.337 31.4405 137.393 32.0632C136.385 34.0393 134.776 35.6392 133.859 37.6671C132.663 39.9286 132.111 42.4322 131.615 44.9185C128.672 44.5769 125.307 43.9283 123.776 41.0788C123.45 39.7513 125.22 40.1275 126.028 40.1405C127.233 40.8799 128.202 42.1209 129.798 41.9133C130.611 40.2961 131.724 38.8346 132.415 37.1612C132.541 36.1235 131.289 35.7473 130.733 35.0727C129.802 34.4457 129.728 32.3399 131.193 32.4048Z" fill="#150C0C"/>
<path d="M94.0684 34.921C97.2683 34.4324 100.773 34.4843 103.62 36.2139C106.199 37.7835 108.294 40.205 109.342 43.0329C111.038 47.9017 109.538 53.497 106.181 57.3065C101.168 62.4261 92.2119 63.2045 86.5381 58.7291C81.8687 54.4742 80.7948 46.838 84.2773 41.5324C86.3816 38.017 90.1337 35.8204 94.0684 34.921ZM102.12 46.7948C99.9856 47.3137 98.8944 49.9946 99.9726 51.8712C100.525 53.177 102.229 53.0084 103.399 52.9003C104.816 52.8398 105.659 51.4172 105.755 50.1416C106.233 48.1395 104.09 46.1505 102.12 46.7948Z" fill="#020202"/>
<path d="M148.876 35.0031C152.106 34.3631 155.567 34.5577 158.589 35.9371C162.663 37.5456 165.849 41.1519 166.923 45.3764C168.023 49.748 166.793 54.578 163.815 57.9593C159.428 62.318 152.298 62.4823 146.815 60.2597C142.267 58.2837 139.493 53.3197 139.511 48.4681C138.88 42.5182 143.063 36.5078 148.876 35.0031ZM145.337 47.439C143.354 48.4854 143.024 51.3306 144.572 52.8959C145.532 54.098 147.224 53.9596 148.572 53.6483C149.532 53.1726 149.893 52.0225 150.119 51.0539C150.571 48.6238 147.593 46.1115 145.337 47.439Z" fill="#020202"/>
<path d="M116.833 44.217C115.915 43.6808 116.576 43.0495 116.828 42.5004C117.428 44.4289 117.298 46.5347 118.142 48.3854C120.885 46.686 124.237 47.3217 127.293 47.2049C129.493 47.0579 131.641 47.633 133.828 47.6849C133.919 46.7984 133.911 45.9163 133.811 45.0299C134.024 45.3802 134.232 45.7347 134.446 46.0893C133.559 51.8273 135.263 57.7426 138.306 62.6201C141.324 67.1214 145.15 71.1514 149.784 74.0312C157.502 78.9303 166.84 81.8231 176.04 80.6123C182.271 79.8946 188.079 76.9585 192.757 72.8723C193.07 72.6951 193.522 72.0767 193.883 72.548C199.148 77.0666 203.335 82.8868 205.766 89.3815C208.448 96.114 209.522 103.625 207.983 110.759C206.4 118.396 202.444 125.53 196.77 130.914C194.388 133.253 191.762 135.32 189.057 137.274C182.214 141.17 174.827 144.206 167.14 145.996C159.141 147.579 151.132 149.187 143.002 149.935C129.415 151.232 115.685 151.328 102.103 149.939C89.3378 148.577 76.4294 146.636 64.5731 141.499C59.8863 139.506 55.1994 137.248 51.3778 133.828C43.7084 127.013 39.378 116.956 38.8346 106.82C38.5867 99.2446 40.5476 91.6689 44.0127 84.9407C46.9213 79.3411 51.1299 74.4938 55.9429 70.4249C59.3211 74.8354 64.1253 78.1087 69.5252 79.527C78.2685 81.8706 87.8596 80.8458 96.0116 76.9672C103.342 73.5296 109.833 68.0035 113.646 60.8213C115.85 56.7956 117.298 52.2424 117.102 47.6157C117.146 46.8676 116.728 46.245 116.381 45.6223C116.294 45.2634 116.211 44.9045 116.146 44.5413L116.833 44.217ZM118.802 72.5091C118.002 72.8723 117.607 74.0052 118.263 74.6884C118.85 75.5359 120.411 75.3976 120.728 74.3857C121.268 73.3177 119.868 71.8389 118.802 72.5091ZM128.341 72.8507C126.889 73.9144 128.798 76.6602 130.076 74.9998C131.419 73.8755 129.663 71.7135 128.341 72.8507ZM56.6168 79.3541C54.8429 79.6567 53.1386 80.3616 51.656 81.3691C49.7691 82.6403 48.8778 85.1828 49.5474 87.3405C50.1213 88.7502 51.4778 89.762 52.9516 90.0949C56.4646 90.9079 60.5515 90.1684 63.0949 87.4919C64.8296 85.7363 64.5253 82.6965 62.8297 81.0231C61.2602 79.3757 58.7819 79.0341 56.6168 79.3541ZM186.144 80.2145C184.657 80.4307 183.071 80.9799 182.179 82.2598C181.014 83.9851 181.158 86.5752 182.731 88.0151C184.927 90.0604 188.17 90.9987 191.109 90.2593C192.97 89.7793 194.975 88.5253 195.309 86.4973C195.614 84.811 194.527 83.3192 193.344 82.2468C191.462 80.4307 188.683 79.8556 186.144 80.2145Z" fill="#8CAF39"/>
<path d="M53.0041 69.2585C50.8172 64.1648 49.9433 58.349 51.2128 52.9137C51.265 55.1795 51.1824 57.4496 51.2433 59.7154C51.3476 62.8892 52.365 65.929 53.3563 68.9169L53.0041 69.2585Z" fill="#495986"/>
<path d="M208.461 58.5035C208.97 59.8007 209.44 61.1109 209.857 62.4384C209.6 62.607 209.087 62.9443 208.827 63.113C208.192 61.846 207.753 60.4926 207.44 59.1176C207.583 59.0484 207.87 58.9143 208.018 58.8451C208.127 58.7587 208.353 58.59 208.461 58.5035Z" fill="#222222"/>
<path d="M197.962 72.3626C197.318 71.0178 197.896 69.3617 198.67 68.1855C198.696 69.6082 198.47 71.0308 197.962 72.3626Z" fill="#1A1A1A"/>
<path d="M118.802 72.5092C119.867 71.839 121.267 73.3178 120.728 74.3858C120.411 75.3977 118.85 75.536 118.263 74.6885C117.607 74.0053 118.002 72.8724 118.802 72.5092Z" fill="#020404"/>
<path d="M128.341 72.852C129.663 71.7148 131.42 73.8768 130.076 75.0011C128.798 76.6615 126.889 73.9157 128.341 72.852Z" fill="#040305"/>
<path d="M56.6171 79.3536C58.7823 79.0337 61.2605 79.3753 62.83 81.0227C64.5256 82.6961 64.83 85.7359 63.0952 87.4914C60.5518 90.168 56.465 90.9074 52.952 90.0945C51.4781 89.7616 50.1216 88.7497 49.5477 87.3401C48.8782 85.1824 49.7694 82.6399 51.6564 81.3686C53.1389 80.3611 54.8432 79.6563 56.6171 79.3536Z" fill="#D8C67E"/>
<path d="M186.145 80.2133C188.684 79.8544 191.462 80.4295 193.345 82.2456C194.527 83.3179 195.614 84.8097 195.31 86.4961C194.975 88.5241 192.971 89.778 191.11 90.258C188.171 90.9974 184.927 90.0591 182.732 88.0138C181.158 86.5739 181.014 83.9838 182.18 82.2586C183.071 80.9786 184.658 80.4295 186.145 80.2133Z" fill="#D8C67E"/>
<path d="M220.057 103.67C220.805 110.804 220.318 118.302 217.205 124.87C214.183 130.154 209.653 134.409 204.879 138.132C198.562 143.001 191.384 146.672 183.884 149.37C184.253 148.873 184.632 148.38 185.01 147.887C180.979 149.253 176.91 150.512 172.819 151.692C169.819 152.531 167.145 154.17 164.284 155.355C163.471 155.787 162.036 156.046 162.415 157.309C159.31 159.021 155.832 159.908 152.658 161.473C151.828 161.858 151.463 162.744 150.984 163.462C154.841 162.424 158.576 160.998 162.389 159.817C166.132 158.628 169.741 156.976 173.593 156.146C174.332 157.78 175.114 159.406 175.645 161.127C173.745 161.452 171.858 161.828 169.984 162.269C164.732 163.458 159.332 164.15 154.271 166.065C151.389 167.116 148.658 168.98 145.445 168.69C147.267 166.441 149.293 164.344 150.906 161.94C148.054 162.822 146.567 165.564 144.545 167.522C142.45 167.302 140.619 168.595 138.546 168.586C139.759 167.324 141.033 166.113 142.128 164.742C138.593 165.503 135.437 167.375 131.937 168.245C135.372 164.539 138.993 161.002 142.693 157.56C144.511 155.679 147.298 155.947 149.65 155.368C155.002 154.148 160.536 153.712 165.762 151.969C168.684 151.005 171.641 150.149 174.51 149.037C180.436 146.862 186.475 144.869 191.971 141.712C194.644 140.138 197.436 138.595 199.47 136.208C201.636 133.7 203.635 131.036 205.344 128.2C206.809 125.843 207.622 123.175 208.418 120.542C208.483 120.806 208.614 121.333 208.683 121.597C209.879 120.17 210.831 118.557 212.048 117.148C214.496 114.54 217.883 112.785 219.805 109.706C220.279 107.738 219.992 105.672 220.057 103.67Z" fill="#2E2E2D"/>
<path d="M108.042 225.14C110.694 224.63 113.411 224.5 116.111 224.53C114.155 226.472 112.298 228.504 110.359 230.463C109.359 231.462 109.829 233.014 109.803 234.268C107.498 233.914 105.142 233.814 102.899 233.144C100.312 232.344 97.5074 232.837 94.9292 232.05C93.864 231.544 92.8118 231.025 91.7336 230.55C97.0465 229.667 102.616 229.598 107.585 227.298C108.433 226.891 108.898 226.035 109.459 225.33C108.985 225.257 108.511 225.196 108.042 225.14Z" fill="#2E2E2D"/>
<path d="M27.6918 118.093C26.5657 113.791 27.3744 109.337 27.9961 105.026C29.2352 111.274 32.7438 116.77 36.8263 121.561C38.4263 123.321 39.6306 125.652 41.9175 126.62C43.8566 129.656 46.0174 132.648 49.1087 134.624C51.7695 138.317 55.8216 140.639 59.5693 143.086C60.6041 143.817 61.791 144.275 63.0214 144.578C63.3214 144.738 63.6214 144.898 63.9214 145.067C65.4996 146.697 67.6952 147.505 69.8821 147.946C74.4386 149.546 78.9254 151.38 83.6731 152.374C90.9034 154 98.2511 155.064 105.594 156.024C107.607 156.361 109.929 156.093 111.607 157.464C116.377 161.316 121.072 165.277 125.45 169.575C122.72 169.99 120.094 168.978 117.451 168.507C115.142 168.109 112.855 167.422 110.49 167.565C109.377 166.579 108.16 165.714 106.86 165C107.529 165.969 108.247 166.916 109.068 167.763C102.008 167.02 95.0164 165.718 88.0165 164.546C85.3688 164.127 82.7427 163.586 80.1689 162.838C80.6341 161.308 81.2384 159.829 81.8601 158.359C89.3687 160.222 97.1815 161.589 103.986 165.45C105.19 166.125 106.438 166.73 107.738 167.201C106.151 165.359 103.799 164.52 101.908 163.059C104.616 163.314 107.064 164.641 109.768 164.923C106.22 162.575 101.929 161.891 97.9076 160.724C91.0252 159.107 84.5253 156.24 77.695 154.432C69.4082 151.773 61.2041 148.777 53.4086 144.898C47.0044 141.616 40.9393 137.577 35.8525 132.475C32.096 128.389 28.783 123.619 27.6918 118.093Z" fill="#2E2E2C"/>
<path d="M182.449 191.42L183.493 190.936C185.123 194.685 186.419 198.551 187.597 202.464C188.006 202.81 188.814 202.996 188.658 203.696C188.458 203.649 188.062 203.553 187.866 203.506C187.919 203.865 187.975 204.219 188.045 204.587C187.371 204.704 186.697 204.829 186.032 204.963C184.949 200.419 184.245 195.766 182.449 191.42Z" fill="#2E2E2C"/>
<path d="M152.124 216.877C154.646 216.829 157.133 216.345 159.654 216.336C156.585 217.313 153.328 217.413 150.163 217.919C148.772 218.148 147.35 218.373 145.946 218.126C145.894 217.828 145.785 217.227 145.728 216.924C147.859 216.881 149.994 216.915 152.124 216.877Z" fill="#2E2E2C"/>
<path d="M198.084 134.11C200.814 132.022 202.914 129.22 204.671 126.293C203.34 128.978 201.401 131.317 199.223 133.362C198.171 134.335 196.797 134.88 195.801 135.918C193.279 138.335 190.28 140.173 187.245 141.872C188.875 140.722 190.584 139.684 192.162 138.456C194.149 137.025 195.814 135.14 198.084 134.11Z" fill="#030303"/>
<path d="M91.6467 239.132C93.7641 239.266 95.551 240.58 96.7771 242.232C96.2336 242.396 95.6858 242.565 95.1423 242.734C93.4337 241.904 91.7467 241.034 90.0511 240.183C90.5816 239.832 91.1163 239.482 91.6467 239.132Z" fill="#93999C"/>
<path d="M96.9251 244.041C101.973 243.31 107.042 242.64 112.046 241.637C112.025 242.636 111.999 243.643 111.964 244.651C107.325 245.42 102.634 245.818 97.9946 246.601C94.8208 247.141 91.6252 247.591 88.4122 247.781C87.1122 247.401 85.8384 246.942 84.5558 246.519C86.2688 246.09 88.0818 245.896 89.6209 244.971C91.9382 244.123 94.5077 244.43 96.9251 244.041Z" fill="#93999C"/>
<path d="M51.3777 133.829C55.1993 137.25 59.8862 139.507 64.573 141.5C76.4293 146.637 89.3377 148.579 102.103 149.941C115.685 151.329 129.415 151.234 143.002 149.936C151.132 149.188 159.141 147.58 167.14 145.997C174.827 144.207 182.214 141.172 189.057 137.276C190.049 137.557 190.953 137.081 191.827 136.679C187.449 140.281 182.314 142.867 177.162 145.171C170.753 148.298 163.736 149.781 156.845 151.437C154.115 151.973 151.297 151.809 148.576 152.41C145.08 153.123 141.506 153.274 137.967 153.638C131.672 154.247 125.341 153.927 119.028 154.066C113.381 154.183 107.755 153.612 102.133 153.158C97.4419 152.795 92.8159 151.891 88.2073 150.996C78.5771 149.366 69.2164 145.984 60.8383 140.986C57.6254 138.966 54.4385 136.912 51.3081 134.776C51.3255 134.538 51.3603 134.063 51.3777 133.829Z" fill="#6A9231"/>
<path d="M59.5688 143.086C55.8211 140.639 51.769 138.316 49.1082 134.624C51.1212 135.969 52.7299 137.806 54.7168 139.181C57.4515 141.032 60.2819 142.731 63.0209 144.578C61.7905 144.275 60.6036 143.817 59.5688 143.086Z" fill="#030303"/>
<path d="M63.9213 145.067C65.9908 145.854 67.9864 146.81 69.882 147.947C67.6951 147.506 65.4995 146.697 63.9213 145.067Z" fill="#030303"/>
<path d="M172.819 151.692C176.91 150.511 180.979 149.253 185.01 147.886C184.631 148.379 184.253 148.872 183.884 149.37C176.84 152.314 169.332 154.053 162.414 157.309C162.036 156.046 163.471 155.786 164.284 155.354C167.145 154.169 169.819 152.53 172.819 151.692Z" fill="#3B3D40"/>
<path d="M177.427 154.471C179.249 153.849 180.94 152.694 182.858 152.43C185.292 153.559 187.518 155.107 189.849 156.439C189.575 156.785 189.292 157.126 188.997 157.451C188.153 157.394 187.366 157.053 186.575 156.798C185.705 157.723 184.579 158.285 183.292 158.277C183.114 157.965 182.936 157.663 182.758 157.36C182.149 160.209 182.262 163.141 182.175 166.034C182.088 167.941 182.532 169.956 181.706 171.754C180.101 168.451 178.919 164.966 177.484 161.589C176.745 159.604 175.736 157.723 175.114 155.695C175.632 154.973 176.666 154.869 177.427 154.471Z" fill="#2C2C2A"/>
<path d="M64.0823 158.124C65.93 156.891 67.6083 155.417 69.4778 154.219C73.3429 155.707 77.3733 156.71 81.2123 158.249C79.7906 160.238 78.9298 162.534 77.6733 164.614C77.3733 162.033 77.6124 159.222 76.2385 156.9C76.2516 159.685 76.6342 162.443 76.9341 165.206C77.0602 166.3 76.582 167.33 76.2603 168.35C75.7037 165.699 76.0211 162.729 74.569 160.351C74.7603 162.4 74.9994 164.45 75.2429 166.499C75.3994 167.952 75.9776 169.388 75.7342 170.867C75.4777 172.458 75.2255 174.058 74.8516 175.627C74.6038 177.106 73.0603 177.785 72.4386 179.056C72.3256 181.646 72.2734 184.249 72.2299 186.844C71.9864 187.402 71.6169 187.882 71.2864 188.388C68.5169 187.134 65.6344 186.117 62.9562 184.669C60.3563 183.359 58.0085 181.629 55.5303 180.12C57.4346 179.164 59.565 179.061 61.6562 179.078C63.5736 179.121 65.604 177.902 66.117 176.012C66.2213 173.898 64.3388 172.501 63.4301 170.776C62.4866 169.336 62.3258 167.589 62.4258 165.916C64.3866 167.485 65.6866 169.682 67.6126 171.29C67.4648 168.878 67.5517 166.426 67.0909 164.048C66.2083 162.34 64.4475 161.285 62.8432 160.316C62.9692 159.927 63.0823 159.542 63.1997 159.153C63.2518 158.647 63.717 158.396 64.0823 158.124Z" fill="#2D2D2B"/>
<path d="M140.363 184.141C142.867 183.96 145.407 183.674 147.893 184.185C147.024 184.561 146.146 184.915 145.254 185.235C143.163 185.953 141.402 187.341 139.498 188.422C140.389 188.548 141.285 188.673 142.189 188.759C139.85 188.993 137.481 189.287 135.129 189.019C133.442 188.816 132.002 187.843 130.468 187.207C133.35 185.175 136.907 184.448 140.363 184.141Z" fill="#2D2D2B"/>
<path d="M178.65 143.1L189.45 137.25L193.5 135.9L193.95 137.25L192.15 139.05L180.45 145.8L164.25 149.85L166.95 148.5L178.65 143.1Z" fill="#030303"/>
<path d="M57.1502 138.15L51.3002 134.1L50.8502 135.9L60.7502 142.65L72.4502 146.7L64.3502 142.2L57.1502 138.15Z" fill="#030303"/>
<path d="M135.815 158.981C137.406 157.762 138.998 156.132 141.184 156.279C139.511 158.164 137.476 159.673 135.698 161.455C133.198 163.971 130.746 166.531 128.254 169.048C127.054 168.07 125.789 167.175 124.68 166.099C122.915 164.386 120.837 163.042 119.081 161.325C121.659 161.641 124.041 162.743 126.533 163.418C126.663 163.638 126.915 164.079 127.041 164.3C126.68 164.629 126.328 164.957 125.972 165.29C129.576 163.729 132.78 161.442 135.815 158.981Z" fill="#8CAF39"/>
<path d="M183.293 158.277C184.58 158.285 185.706 157.723 186.575 156.798C187.367 157.053 188.154 157.395 188.997 157.451C189.293 157.127 189.575 156.785 189.849 156.439C190.349 156.729 190.849 157.023 191.354 157.317L191.341 157.434C191.241 158.886 190.428 161.645 192.654 161.775C193.754 161.995 194.897 162.164 195.88 162.744C199.623 164.975 202.779 168.097 206.749 169.96L206.914 170.042C205.571 173.126 203.749 176.105 201.306 178.435C199.919 178.764 198.427 178.963 197.288 179.893C196.114 180.701 194.962 181.994 193.38 181.687C192.019 181.345 191.215 180.074 190.375 179.062C189.593 178.029 188.719 176.918 188.828 175.543C189.906 173.783 191.132 172.118 192.371 170.471C192.693 170.017 192.993 169.554 193.31 169.096C192.693 169.299 192.093 169.519 191.475 169.701C191.384 169.563 191.193 169.286 191.097 169.147C191.932 167.422 192.675 165.654 193.293 163.846C191.215 166.951 189.793 170.462 187.41 173.376C186.915 172.693 186.049 172.083 186.206 171.132C186.297 169.403 186.554 167.677 186.558 165.943C186.297 166.272 186.041 166.605 185.789 166.938C185.441 166.972 185.097 167.011 184.754 167.05C184.349 168.006 183.845 168.91 183.336 169.813C183.193 165.969 183.328 162.121 183.293 158.277Z" fill="#3D3F44"/>
<path d="M79.6563 164.776C79.8085 164.123 79.978 163.479 80.1693 162.839C82.7432 163.587 85.3692 164.128 88.017 164.547C95.0168 165.719 102.008 167.021 109.069 167.764C112.595 171.319 116.46 174.601 119.495 178.596C117.534 180.836 115.512 183.019 113.495 185.203C110.699 185.186 107.904 185.095 105.112 185.009C103.495 184.857 102.134 185.821 100.808 186.578C96.8516 185.783 92.8734 185.06 89.017 183.876C85.391 182.769 81.6302 181.925 78.2694 180.118C77.3781 177.532 78.0911 174.804 78.4302 172.188C78.7607 169.701 79.6737 167.302 79.6563 164.776Z" fill="#3A4354"/>
<path d="M72.4476 201.448C73.4562 198.53 73.1693 195.204 74.7127 192.476C75.7431 192.64 76.7257 192.999 77.704 193.345C81.0039 194.56 84.469 195.226 87.8255 196.268C95.5949 198.638 103.625 200.155 111.229 203.053C109.321 207.173 108.716 211.744 108.138 216.206C102.451 215.614 96.7775 214.736 91.2558 213.257C85.756 211.688 80.1561 210.412 74.8171 208.349C72.5954 207.398 70.4259 206.321 68.1737 205.444C68.2694 203.74 68.7172 202.088 69.3389 200.506C70.1606 198.434 70.8259 196.29 71.8954 194.327C71.9476 197.107 70.7867 199.797 71.2563 202.59C71.665 202.235 72.3041 202.032 72.4476 201.448Z" fill="#3D3F44"/>
<path d="M114.011 156.91C121.889 157.238 129.824 157.675 137.676 156.767C135.602 158.047 133.758 159.655 131.68 160.927C130.232 161.822 128.863 162.842 127.619 164.001C127.619 163.136 126.711 162.89 126.098 162.57C123.633 161.623 121.124 160.771 118.585 160.045C116.75 159.547 115.307 158.233 114.011 156.91Z" fill="#6A9231"/>
<path d="M192.653 161.775C190.427 161.645 191.24 158.886 191.34 157.433C192.197 157.922 193.049 158.428 193.888 158.955C193.483 159.898 193.075 160.841 192.653 161.775Z" fill="#A7A8A6"/>
<path d="M51.6254 168.178C55.2731 164.931 58.8643 161.48 63.199 159.154C63.0816 159.543 62.9686 159.928 62.8425 160.317C61.673 162.298 59.6165 163.456 57.8905 164.892C54.6427 167.491 51.7254 170.479 48.395 172.987C48.1602 172.74 47.695 172.252 47.4603 172.009C48.7124 170.591 50.2124 169.428 51.6254 168.178Z" fill="#D0D1D0"/>
<path d="M192.653 161.775C193.075 160.841 193.483 159.898 193.888 158.955C198.653 161.84 203.222 165.052 207.405 168.732C207.24 169.039 206.913 169.653 206.748 169.96C202.779 168.096 199.622 164.974 195.879 162.743C194.896 162.164 193.753 161.995 192.653 161.775Z" fill="#CCCDCB"/>
<path d="M57.8909 164.893C59.6169 163.457 61.6734 162.298 62.8429 160.318C64.4473 161.286 66.2081 162.341 67.0907 164.049C67.5515 166.428 67.4646 168.879 67.6124 171.292C65.6864 169.684 64.3864 167.487 62.4256 165.917C62.3256 167.591 62.4864 169.338 63.4299 170.778C64.3386 172.503 66.2211 173.9 66.1168 176.014C65.6038 177.904 63.5734 179.123 61.656 179.08C59.5648 179.062 57.4344 179.166 55.5301 180.122C52.778 178.154 50.2258 175.854 48.2346 173.108L48.3954 172.987C51.7258 170.479 54.6431 167.491 57.8909 164.893Z" fill="#3C3F43"/>
<path d="M179.914 178.993C179.066 173.087 177.192 167.392 175.797 161.606C177.649 166.462 179.566 171.314 180.823 176.364C180.984 177.142 181.175 177.951 180.997 178.742C180.727 178.803 180.188 178.928 179.914 178.993Z" fill="#DBDCDC"/>
<path d="M144.545 167.521C146.567 165.562 148.054 162.821 150.906 161.938C149.293 164.343 147.267 166.44 145.445 168.688C141.185 173.09 137.406 177.92 133.376 182.525C136.189 176.913 140.524 172.282 144.545 167.521Z" fill="#010102"/>
<path d="M185.789 166.937C186.041 166.604 186.297 166.271 186.558 165.942C186.554 167.676 186.297 169.401 186.206 171.131C186.049 172.082 186.915 172.692 187.41 173.375C186.636 174.465 186.036 175.663 185.536 176.899C187.628 174.499 189.388 171.823 191.097 169.146C191.193 169.285 191.384 169.561 191.475 169.7C192.093 169.518 192.693 169.298 193.31 169.094C192.993 169.553 192.693 170.015 192.371 170.469C189.628 171.377 188.241 174.352 187.662 176.977C188.058 176.506 188.462 176.039 188.828 175.541C188.719 176.917 189.593 178.028 190.375 179.061C191.214 180.073 192.019 181.344 193.38 181.686C194.962 181.993 196.114 180.7 197.288 179.891C198.427 178.962 199.919 178.763 201.306 178.434C200.232 179.654 198.64 180.233 197.54 181.422C194.175 185.08 189.349 186.827 185.432 189.781C184.745 187.964 183.889 186.166 183.671 184.22C183.849 182.477 184.523 180.791 184.493 179.022C184.367 177.513 183.058 176.523 182.397 175.252C182.067 174.43 182.31 173.557 182.663 172.791C183.106 171.853 183.062 170.789 183.336 169.812C183.845 168.908 184.349 168.005 184.754 167.049C185.097 167.01 185.441 166.971 185.789 166.937Z" fill="#2D2D2C"/>
<path d="M73.4475 190.796C80.2647 192.971 87.1602 194.93 94.1557 196.473C100.299 198.073 106.547 199.241 112.799 200.313C112.355 201.264 111.838 202.185 111.229 203.05C103.625 200.153 95.5948 198.635 87.8254 196.266C84.4689 195.224 81.0038 194.558 77.7039 193.343C76.7256 192.997 75.7431 192.638 74.7126 192.474C73.1692 195.202 73.4561 198.527 72.4475 201.446C72.304 202.03 71.6649 202.233 71.2562 202.588C70.7866 199.794 71.9475 197.105 71.8953 194.324C72.0562 193.027 72.8649 191.933 73.4475 190.796Z" fill="#2D2D2C"/>
<path d="M121.916 202.157C123.577 202.226 125.194 202.827 126.881 202.641C128.29 202.433 129.45 203.389 130.785 203.575C132.403 203.415 133.781 202.464 135.181 201.724C136.768 203.791 137.233 206.403 137.842 208.872C138.52 211.713 138.963 214.618 138.976 217.546C138.659 217.502 138.02 217.416 137.702 217.373C137.259 217.027 136.724 216.69 136.65 216.084C135.829 212.694 135.929 209.118 134.824 205.789C134.516 205.114 134.333 204.076 133.398 204.085C131.659 203.865 129.92 204.517 128.19 204.193C126.685 203.899 125.229 203.406 123.751 203.026C122.094 207.492 121.99 212.331 121.285 217.001C121.738 217.17 122.194 217.338 122.659 217.498C120.572 217.585 118.481 217.822 116.399 217.611C117.351 216.811 119.272 217.325 119.559 215.842C119.768 212.197 119.912 208.522 120.672 204.937C120.942 203.964 121.138 202.87 121.916 202.157Z" fill="#2D2D2C"/>
<path d="M70.8041 208.529C78.2952 211.179 85.9777 213.238 93.6949 215.119C99.0252 216.355 104.469 216.986 109.864 217.873C109.921 217.285 109.982 216.697 110.042 216.113C111.664 216.273 113.329 216.359 114.873 216.939C115.486 217.544 115.625 218.474 115.977 219.239C116.534 218.958 117.077 218.565 117.729 218.56C120.351 218.396 122.981 218.275 125.612 218.232C129.433 218.141 133.285 217.527 137.09 218.202C139.503 218.547 141.929 218.15 144.272 217.6C144.52 217.7 145.02 217.899 145.272 217.998C143.142 219.343 140.572 218.841 138.207 219.205C134.324 219.775 130.394 219.901 126.477 219.961C125.02 220.005 123.533 219.745 122.103 220.1C120.62 220.679 119.577 222.007 118.06 222.521C116.299 223.213 114.373 223.118 112.521 223.183C110.295 223.235 108.086 223.494 105.86 223.507C106.473 223.321 107.082 223.109 107.69 222.902C105.49 219.343 101.016 218.863 97.2905 218.029C90.1298 216.619 82.9125 215.413 75.917 213.302C73.8953 212.645 71.9302 211.824 69.878 211.253C70.0824 210.31 70.4041 209.402 70.8041 208.529Z" fill="#2D2D2C"/>
<path d="M110.49 167.565C112.855 167.422 115.142 168.11 117.45 168.508C120.094 168.979 122.72 169.991 125.45 169.576C125.911 169.987 126.398 170.376 126.828 170.825C124.963 173.476 122.607 175.763 120.733 178.423C117.755 174.427 114.068 171.016 110.49 167.565Z" fill="#3F4045"/>
<path d="M187.662 176.979C188.24 174.354 189.627 171.379 192.37 170.471C191.131 172.118 189.905 173.783 188.827 175.543C188.462 176.04 188.057 176.507 187.662 176.979Z" fill="#121211"/>
<path d="M170.21 184.947C174.441 183.001 179.523 182.682 183.106 179.499C183.232 180.865 182.61 182.128 182.167 183.386C179.488 184.519 176.867 185.795 174.267 187.101C177.014 186.188 179.597 184.861 182.293 183.814C182.414 184.571 182.545 185.328 182.68 186.085C179.288 188.225 175.454 189.526 171.732 190.966C171.262 191.1 170.78 191.386 170.293 191.347L169.562 190.962C168.984 190.685 168.436 190.21 167.749 190.348C165.323 190.538 162.993 191.265 160.645 191.84C156.041 193.025 151.432 194.175 146.88 195.533C144.511 196.125 142.172 196.916 139.724 197.093C139.572 197.081 139.272 197.059 139.12 197.05L139.372 196.488C143.35 195.174 147.793 195.122 151.441 192.912C150.65 192.782 149.867 192.661 149.076 192.566L148.58 192.501C148.993 192.424 149.828 192.264 150.241 192.186L149.919 191.714C150.737 191.74 151.641 191.844 152.358 191.351C153.028 191.26 153.706 191.196 154.38 191.135C154.024 191.087 153.306 190.997 152.95 190.953C153.915 190.439 154.937 190.032 156.002 189.777C158.706 189.111 161.337 188.203 163.993 187.382C166.332 186.647 168.728 186.067 170.975 185.073C170.784 185.042 170.402 184.978 170.21 184.947Z" fill="#B2B2B0"/>
<path d="M73.9338 180.575C75.199 180.298 76.199 181.25 77.2772 181.734C78.4207 182.378 79.738 182.607 80.9162 183.178C80.6728 183.217 80.1858 183.291 79.938 183.325C79.9989 183.593 80.1206 184.121 80.1815 184.389C78.3163 183.784 76.512 183.001 74.599 182.547C74.3164 181.911 74.099 181.245 73.9338 180.575Z" fill="#B9B9B7"/>
<path d="M53.0384 180.645C55.1992 182.855 57.5079 184.917 59.8556 186.928C61.986 188.467 64.1947 189.903 66.4729 191.222C66.8511 192.238 67.3989 193.18 67.8511 194.171C68.1294 195.377 67.7685 196.605 67.525 197.79C65.9816 197.016 64.6381 195.892 63.886 194.322C64.3338 194.028 64.7816 193.738 65.2338 193.449C63.2295 191.883 60.8991 190.776 59.0209 189.051C56.6209 186.893 54.6601 184.325 52.6036 181.865C52.7471 181.454 52.8906 181.047 53.0384 180.645Z" fill="#6B9033"/>
<path d="M195.127 186.738C197.818 185.021 200.318 183.032 202.975 181.264C205.257 184.412 207.131 187.91 208.07 191.693C208.705 194.655 208.461 198.154 206.205 200.411C204.657 202.097 202.166 202.612 199.979 202.166C198.501 201.842 197.731 200.411 196.592 199.568C196.41 201.111 196.714 203.161 195.083 204.047C192.997 205.249 190.61 203.809 189.188 202.257C187.597 200.739 187.675 198.396 186.666 196.562C187.91 195.836 189.153 195.032 189.888 193.756C189.588 193.155 189.288 192.554 188.992 191.953L189.397 190.033C191.301 188.917 193.231 187.862 195.127 186.738Z" fill="#97BA42"/>
<path d="M52.6037 181.863C54.6602 184.324 56.621 186.892 59.021 189.05C60.8992 190.775 63.2296 191.882 65.2339 193.447C64.7817 193.737 64.3339 194.027 63.8861 194.321C64.6382 195.89 65.9817 197.015 67.5251 197.789C66.773 199.475 66.4121 201.412 65.0991 202.796C63.56 204.426 60.5036 204.634 59.0036 202.861C58.5732 201.767 58.8514 200.547 58.8036 199.41C57.2471 199.998 55.595 200.889 53.8776 200.435C51.2603 199.722 48.656 197.525 48.7429 194.619C48.9951 190.139 50.6299 185.859 52.6037 181.863Z" fill="#98BA42"/>
<path d="M74.5994 182.547C76.5124 183.001 78.3167 183.784 80.1819 184.389C81.1732 184.722 82.1471 185.094 83.1253 185.457C82.7558 186.097 82.3862 186.741 82.0166 187.386C79.4863 186.715 76.9602 186.011 74.382 185.552C74.4559 184.549 74.5299 183.546 74.5994 182.547Z" fill="#A2A2A2"/>
<path d="M79.9383 183.325C80.1861 183.291 80.673 183.217 80.9165 183.178C84.4208 184.484 88.1207 185.094 91.7424 185.985C101.155 188.112 110.625 190.33 120.294 190.875C118.933 191.593 117.637 192.449 116.507 193.491C115.751 193.474 114.994 193.457 114.242 193.422C110.129 192.479 105.825 192.337 101.812 190.957C95.5988 189.076 89.2033 187.788 83.1252 185.457C82.1469 185.094 81.173 184.722 80.1818 184.389C80.1209 184.121 79.9991 183.594 79.9383 183.325Z" fill="#FCFCFB"/>
<path d="M123.494 191.143C124.246 190.062 125.533 189.716 126.707 189.301C127.107 191.126 127.746 192.886 128.285 194.676C128.185 194.913 127.981 195.385 127.876 195.618C127.355 195.796 126.837 195.977 126.32 196.163C125.646 194.347 124.868 192.553 123.494 191.143Z" fill="#FCFCFB"/>
<path d="M118.629 194.179C120.068 193.141 121.272 191.74 123.007 191.169C123.346 191.675 124.181 191.995 124.024 192.735C123.855 194.499 124.985 195.956 125.546 197.543C123.868 196.734 122.155 196.008 120.389 195.407C119.681 195.199 119.159 194.659 118.629 194.179Z" fill="#FCFCFB"/>
<path d="M136.894 191.12C148.211 190.476 159.21 187.445 170.21 184.946C170.402 184.976 170.784 185.041 170.975 185.071C168.728 186.066 166.332 186.645 163.993 187.38C161.337 188.202 158.706 189.11 156.002 189.776C154.937 190.031 153.915 190.437 152.95 190.952C152.598 190.978 152.25 191.008 151.902 191.038L151.993 191.367C150.815 191.35 149.685 191.648 148.58 192.015C147.841 192.154 147.098 192.262 146.363 192.392C143.815 192.889 141.25 193.403 138.65 193.538C138.315 192.569 137.585 191.843 136.894 191.12Z" fill="#FBFBFB"/>
<path d="M70.7776 243.942C71.4168 242.736 72.2776 241.655 73.4037 240.864C73.4776 241.196 73.6297 241.858 73.7037 242.187C74.2819 241.854 74.8602 241.512 75.4384 241.179C78.734 241.581 81.9817 242.602 84.7469 244.47C80.0861 244.984 75.4123 244.392 70.7776 243.942Z" fill="#FBFBFB"/>
<path d="M100.807 186.578C102.133 185.821 103.494 184.857 105.111 185.008C107.903 185.095 110.698 185.185 113.494 185.203C112.663 186.054 112.159 187.144 111.668 188.208C108.042 187.693 104.398 187.282 100.807 186.578Z" fill="#2F2F2F"/>
<path d="M139.498 188.424C141.402 187.343 143.163 185.955 145.254 185.237C147.984 185.536 150.702 184.714 153.428 185.186C152.571 185.527 151.706 185.851 150.845 186.18C152.176 186.444 153.502 186.734 154.845 186.945C150.68 187.858 146.419 188.238 142.189 188.762C141.284 188.675 140.389 188.55 139.498 188.424Z" fill="#333335"/>
<path d="M74.382 185.553C76.9602 186.011 79.4863 186.716 82.0166 187.386C83.8731 187.901 85.66 188.623 87.4513 189.324C89.3947 190.054 91.1817 191.209 93.2512 191.607C92.9512 191.689 92.3599 191.857 92.0599 191.94C90.2991 191.55 88.5382 191.192 86.7818 190.789C82.9166 189.22 78.6341 188.722 74.9472 186.742C75.3168 186.72 76.0559 186.673 76.4255 186.651C75.6646 186.487 74.469 186.621 74.382 185.553Z" fill="#747473"/>
<path d="M83.1249 185.458C89.203 187.789 95.5985 189.077 101.811 190.958C102.185 191.161 102.49 191.447 102.829 191.711C101.211 191.672 99.6115 191.408 98.0115 191.192C100.972 192.571 104.142 193.453 107.324 194.145C108.294 194.344 109.203 194.742 110.076 195.2C109.129 195.377 108.185 195.542 107.229 195.641C102.111 194.707 97.0507 193.406 92.0595 191.94C92.3595 191.858 92.9508 191.689 93.2507 191.607C91.1812 191.209 89.3943 190.054 87.4509 189.324C85.6596 188.623 83.8727 187.901 82.0162 187.387C82.3858 186.742 82.7553 186.098 83.1249 185.458Z" fill="#ADADAD"/>
<path d="M74.2514 189.319C73.8297 188.38 74.0123 187.334 74.4557 186.448L74.947 186.742C78.6339 188.722 82.9164 189.219 86.7815 190.789C86.4381 190.815 85.7511 190.862 85.4033 190.888C88.2554 191.619 90.8988 192.938 93.6944 193.842C96.3118 194.849 99.0465 195.485 101.716 196.332C95.1466 195.615 88.7076 194.019 82.3556 192.237C79.6252 191.364 76.8252 190.599 74.2514 189.319Z" fill="#AFAFAD"/>
<path d="M170.01 191.977C174.436 190.905 178.867 189.374 182.693 186.862C183.084 187.701 183.058 188.63 183.106 189.538C179.715 191.186 176.271 192.79 172.584 193.655C169.571 194.334 166.567 195.125 163.484 195.428C163.997 195.281 164.506 195.134 165.028 195.008C166.971 194.554 169.05 194.429 170.745 193.274C170.615 193.041 170.345 192.569 170.21 192.332L170.01 191.977Z" fill="#B8B8B6"/>
<path d="M119.133 197.966C117.955 197.096 117.29 195.224 118.629 194.178C119.159 194.658 119.681 195.198 120.39 195.406C122.155 196.007 123.868 196.733 125.546 197.542C126.094 198.683 126.629 199.842 126.937 201.083C123.951 201.624 121.346 199.691 119.133 197.966Z" fill="#B8B8B6"/>
<path d="M128.024 189.232C129.316 189.197 130.985 188.938 131.781 190.235C132.468 191.701 132.25 193.383 132.281 194.957C131.468 195.152 130.65 195.342 129.85 195.575L129.55 195.658C129.05 193.513 128.224 191.437 128.024 189.232Z" fill="#FBFCFB"/>
<path d="M167.75 190.348C168.437 190.209 168.985 190.685 169.563 190.962C167.85 190.711 166.293 191.584 164.698 192.038C162.237 192.773 159.767 193.504 157.411 194.533C159.959 194.616 162.476 194.149 164.954 193.599C164.976 194.066 165.002 194.538 165.028 195.009C164.506 195.134 163.998 195.281 163.485 195.428C157.259 196.985 150.807 197.413 144.407 197.595C142.837 197.612 141.05 198.243 139.724 197.093C142.172 196.916 144.511 196.125 146.881 195.532C151.433 194.174 156.041 193.024 160.646 191.839C162.993 191.264 165.324 190.538 167.75 190.348Z" fill="#FCFCFC"/>
<path d="M133.59 190.4C135.255 191.079 136.581 192.372 137.481 193.907C136.533 195.057 135.373 196 134.09 196.761C133.903 196.022 133.707 195.291 133.551 194.551C133.325 193.176 133.499 191.78 133.59 190.4Z" fill="#FCFCFC"/>
<path d="M85.4039 190.888C85.7517 190.862 86.4387 190.815 86.7821 190.789C88.5386 191.191 90.2994 191.55 92.0603 191.939C97.0515 193.405 102.112 194.706 107.23 195.64C110.221 196.06 113.173 196.713 116.173 197.059C115.821 197.318 115.473 197.582 115.129 197.854C113.816 197.85 112.503 197.807 111.199 197.668C108.056 197.102 104.843 196.959 101.717 196.332C99.0471 195.485 96.3124 194.849 93.695 193.842C90.8994 192.938 88.256 191.619 85.4039 190.888Z" fill="#FCFCFC"/>
<path d="M174.706 242.521C177.159 242.188 179.576 241.5 182.063 241.358C183.289 241.82 184.054 243.035 184.437 244.233C182.219 244.419 180.002 244.7 177.772 244.765C174.124 244.847 170.446 245.31 166.82 244.674C169.233 243.364 171.902 242.313 174.706 242.521Z" fill="#FCFCFC"/>
<path d="M186.627 192.155C187.166 191.048 188.375 190.581 189.396 190.032L188.992 191.952C189.288 192.553 189.588 193.154 189.888 193.755C189.153 195.03 187.909 195.835 186.666 196.561C186.37 195.134 185.779 193.508 186.627 192.155Z" fill="#6A8E2E"/>
<path d="M98.0114 191.19C99.6114 191.406 101.211 191.67 102.829 191.709C104.707 191.817 106.437 192.743 108.342 192.721C110.95 193.309 113.624 193.702 116.189 194.524C116.185 195.367 116.185 196.21 116.172 197.058C113.172 196.712 110.22 196.059 107.229 195.64C108.185 195.54 109.129 195.376 110.076 195.199C109.202 194.74 108.294 194.342 107.324 194.143C104.142 193.452 100.972 192.57 98.0114 191.19Z" fill="#C1C0BD"/>
<path d="M164.697 192.039C166.293 191.585 167.849 190.711 169.562 190.962L170.293 191.347C169.097 191.974 167.745 192.255 166.61 192.999C166.063 193.215 165.51 193.418 164.954 193.6C162.476 194.149 159.958 194.616 157.411 194.534C159.767 193.505 162.237 192.774 164.697 192.039Z" fill="#9C9C9A"/>
<path d="M166.61 192.999C167.767 192.761 169.054 192.061 170.21 192.333C170.345 192.571 170.615 193.042 170.745 193.276C169.049 194.43 166.971 194.556 165.028 195.01C165.002 194.538 164.976 194.067 164.954 193.6C165.51 193.419 166.062 193.215 166.61 192.999Z" fill="#D5D6D1"/>
<path d="M139.163 194.543C142.524 194.167 145.758 193.155 149.076 192.567C149.867 192.662 150.649 192.783 151.441 192.913C147.793 195.122 143.35 195.174 139.371 196.489C139.206 195.849 139.137 195.2 139.163 194.543Z" fill="#CECECC"/>
<path d="M137.48 193.906C137.472 195.147 138.058 196.712 136.898 197.629C135.424 198.948 134.102 200.479 132.354 201.46C132.915 199.186 133.206 196.859 133.55 194.55C133.706 195.29 133.902 196.02 134.089 196.76C135.372 195.999 136.532 195.056 137.48 193.906Z" fill="#BABAB7"/>
<path d="M128.285 194.676C128.502 195.532 128.715 196.393 128.898 197.262C128.32 197.56 127.724 197.82 127.15 198.127C126.881 197.469 126.594 196.816 126.32 196.163C126.837 195.978 127.354 195.796 127.876 195.619C127.981 195.385 128.185 194.914 128.285 194.676Z" fill="#D3D2D3"/>
<path d="M161.245 197.314C165.389 196.505 169.415 195.134 173.584 194.499C169.032 196.929 163.906 197.811 158.898 198.793C154.298 200.055 149.563 200.734 144.985 202.07C144.389 201.37 143.833 200.635 143.307 199.887C149.28 198.978 155.341 198.628 161.245 197.314Z" fill="#2C2D2B"/>
<path d="M174.754 212.383C178.449 211.112 181.971 209.395 185.632 208.02C185.901 208.984 186.162 209.953 186.414 210.926C180.688 212.331 175.041 214.45 169.097 214.644C170.828 213.542 172.863 213.122 174.754 212.383Z" fill="#2C2D2B"/>
<path d="M129.85 195.576C130.65 195.342 131.468 195.152 132.281 194.957C132.107 196.116 131.92 197.275 131.807 198.447C131.285 197.599 130.628 196.838 129.807 196.267C129.815 196.094 129.837 195.749 129.85 195.576Z" fill="#D3D2D2"/>
<path d="M129.806 196.267C130.628 196.838 131.284 197.599 131.806 198.446C131.567 199.519 131.337 200.613 131.489 201.719C129.193 202.394 127.985 199.778 127.15 198.126C127.724 197.819 128.319 197.56 128.898 197.261L128.954 197.231C129.315 198.295 129.798 199.32 130.458 200.236C130.498 198.879 129.976 197.599 129.806 196.267Z" fill="#BCBBB9"/>
<path d="M112.955 203.934C114.263 202.062 115.337 199.956 117.237 198.594C117.441 198.784 117.846 199.169 118.05 199.359C117.72 201.245 116.181 202.641 115.533 204.427L115.389 204.414C114.772 204.358 114.155 204.306 113.537 204.254L112.955 203.934Z" fill="#C3C5C4"/>
<path d="M137.498 199.493C138.011 199.061 138.524 198.624 139.033 198.192C139.424 198.628 139.815 199.074 140.198 199.523C139.911 200.475 139.824 201.465 139.898 202.459C139.007 201.543 138.289 200.488 137.498 199.493Z" fill="#D5D5D3"/>
<path d="M139.898 202.461C139.824 201.466 139.911 200.476 140.198 199.525C143.411 203.896 147.258 208.289 147.993 213.859C146.411 214.494 144.941 215.342 143.463 216.181C142.419 216.189 141.376 216.155 140.337 216.137C140.159 213.798 139.989 211.459 139.659 209.137C140.111 209.483 140.572 209.842 141.028 210.201C140.915 209.621 140.802 209.037 140.728 208.458C140.819 208.212 141.002 207.714 141.098 207.463C141.706 208.648 142.072 209.928 142.35 211.23C142.35 208.134 140.976 205.293 139.898 202.461Z" fill="#FEFEFE"/>
<path d="M113.537 204.255C114.155 204.306 114.772 204.358 115.39 204.415C114.724 206.309 114.164 208.276 114.39 210.317C114.872 209.214 115.355 208.129 115.816 207.022L116.098 206.801C116.807 206.248 117.498 205.673 118.19 205.102C117.959 208.726 116.898 212.431 117.885 216.02C115.198 215.886 112.668 214.844 110.077 214.221C110.351 210.723 111.664 207.459 112.951 204.237C113.098 204.242 113.39 204.25 113.537 204.255Z" fill="#FEFEFE"/>
<path d="M83.4814 237.391C86.3292 236.863 89.0378 238.208 91.6464 239.133C91.116 239.484 90.5812 239.834 90.0508 240.184C87.8596 239.289 85.3379 238.921 83.4814 237.391Z" fill="#FEFEFE"/>
<path d="M161.662 238.332C164.562 237.705 167.567 237.204 170.536 237.627C169.871 238.22 169.058 238.605 168.171 238.717C164.41 239.353 160.649 240.278 157.228 241.982C156.806 241.675 156.393 241.359 155.997 241.03C157.771 239.91 159.58 238.782 161.662 238.332Z" fill="#FEFEFE"/>
<path d="M76.5121 239.651C77.1469 238.726 77.9077 237.792 79.1121 237.653C79.1555 239.089 77.8295 239.932 76.5121 239.651Z" fill="#FEFEFE"/>
<path d="M79.3294 240.72C80.4946 239.885 81.8772 239.051 83.3772 239.37C86.9945 239.997 90.477 241.381 93.5596 243.366C91.0857 243.867 88.4118 244.598 85.9597 243.617C83.7511 242.644 81.5033 241.766 79.3294 240.72Z" fill="#FEFEFE"/>
<path d="M157.041 243.612C160.471 240.97 164.98 240.611 169.054 239.591C170.454 239.012 171.484 240.309 172.084 241.372C170.349 242.056 168.514 242.488 166.884 243.413C166.054 243.815 165.245 244.395 164.288 244.417C161.849 244.477 159.423 244.084 157.041 243.612Z" fill="#FEFEFE"/>
<path d="M116.098 206.8C115.989 204.245 117.672 201.987 119.385 200.254C119.82 200.708 120.602 200.958 120.737 201.633C120.311 202.865 119.624 204.024 119.45 205.339C118.929 208.906 118.616 212.504 118.468 216.11L117.885 216.019C116.898 212.43 117.959 208.724 118.189 205.101C117.498 205.672 116.807 206.247 116.098 206.8Z" fill="#B5B5B3"/>
<path d="M135.706 200.807C136.324 200.851 137.111 200.639 137.48 201.3C139.015 203.116 140.489 205.157 141.098 207.462C141.002 207.713 140.819 208.21 140.728 208.456C140.802 209.036 140.915 209.62 141.028 210.199C140.572 209.84 140.111 209.481 139.658 209.135C139.989 211.457 140.158 213.797 140.337 216.136C141.376 216.153 142.419 216.188 143.463 216.179C142.332 216.162 140.802 216.776 139.915 215.967C139.628 210.714 138.728 205.252 135.706 200.807Z" fill="#C2C2C0"/>
<path d="M121.285 217.001C121.989 212.331 122.094 207.492 123.75 203.026C125.228 203.406 126.685 203.899 128.189 204.193C129.919 204.517 131.659 203.865 133.398 204.085C134.332 204.076 134.515 205.114 134.824 205.789C135.928 209.118 135.828 212.694 136.65 216.084C136.724 216.69 137.258 217.027 137.702 217.373C132.689 216.988 127.659 217.572 122.659 217.498C122.194 217.338 121.737 217.17 121.285 217.001Z" fill="#3D3F45"/>
<path d="M69.8772 211.254C71.9294 211.825 73.8945 212.646 75.9162 213.303C82.9117 215.414 90.129 216.62 97.2897 218.03C101.016 218.864 105.489 219.344 107.689 222.903C107.081 223.11 106.472 223.322 105.859 223.508C102.129 224.144 98.307 223.66 94.568 224.239C98.9766 225.294 103.537 225.246 108.042 225.138C108.511 225.195 108.985 225.255 109.459 225.329C108.898 226.033 108.433 226.89 107.585 227.296C102.616 229.596 97.0462 229.666 91.7333 230.548C92.8115 231.023 93.8637 231.542 94.9289 232.048C94.2115 232.191 93.4985 232.342 92.7854 232.489C94.0071 232.939 95.7506 232.615 96.5853 233.773C90.442 234.184 84.2074 234.076 78.1857 232.697C76.3945 232.385 75.1032 230.496 73.138 231.188C73.1206 230.418 73.1032 229.653 73.0859 228.892C75.9684 230.063 78.8249 231.681 82.0509 231.503C80.1987 231.01 78.1901 231.01 76.4597 230.128C75.238 229.233 75.438 227.586 75.2858 226.267C77.3292 227.309 79.3248 228.589 81.6161 229.013C80.1118 227.361 78.0988 226.336 76.2727 225.095C73.5163 223.27 70.9642 221.065 69.0642 218.35C68.7599 217.844 68.3381 217.282 68.512 216.659C68.799 214.817 69.5033 213.074 69.8772 211.254Z" fill="#3E3F45"/>
<path d="M180.749 223.972C182.827 221.568 184.966 219.068 187.827 217.568C187.979 217.996 188.275 218.852 188.427 219.28C187.201 221.369 185.258 222.895 183.445 224.452C182.262 225.369 181.132 226.385 179.806 227.085C179.51 227.154 178.919 227.288 178.623 227.358C179.162 226.13 179.853 224.971 180.749 223.972Z" fill="#D9D9D7"/>
<path d="M146.041 219.69C148.054 219.461 150.097 218.579 152.119 219.185C148.65 221.165 144.515 221.312 140.985 223.124L140.811 223.206C138.272 222.272 135.619 221.723 132.972 221.225C137.35 220.936 141.698 220.3 146.041 219.69Z" fill="#2E2E2E"/>
<path d="M142.046 225.766C144.867 226.03 147.593 226.83 150.376 227.327C149.45 227.388 148.537 227.522 147.628 227.669C151.297 231.21 156.606 232.252 161.562 232.084C161.723 231.344 161.889 230.614 162.054 229.883C165.688 229.719 169.328 229.818 172.962 229.706C175.11 229.68 177.11 228.81 179.201 228.443C176.006 231.781 171.158 232.265 166.828 232.875C167.741 232.996 168.658 233.113 169.58 233.234C166.254 233.93 162.48 232.732 159.571 234.899C157.993 235.193 156.354 234.968 154.767 234.825C156.723 233.528 159.271 234.142 161.384 233.204C158.028 233.057 154.567 233.926 151.28 233.018C147.837 231.215 143.898 229.373 142.046 225.766Z" fill="#2D2D2D"/>
<path d="M181.927 227.975C182.088 227.833 182.41 227.547 182.566 227.405C182.353 228.006 182.123 228.598 181.892 229.195C181.201 229.178 180.514 229.139 179.831 229.108C180.179 228.767 180.531 228.429 180.892 228.101C181.153 228.071 181.671 228.006 181.927 227.975Z" fill="#646466"/>
<path d="M176.401 231.691C177.544 231.047 178.527 230.151 179.566 229.356C179.692 230.009 179.818 230.666 179.953 231.328C179.366 231.622 178.792 231.963 178.149 232.123C177.492 232.231 176.884 232.504 176.366 232.919C174.962 233.987 173.114 233.887 171.453 234.112C167.497 234.424 163.553 235.288 159.571 234.899C162.48 232.733 166.253 233.931 169.579 233.235C171.897 232.988 174.301 232.793 176.401 231.691Z" fill="#3F4145"/>
<path d="M176.366 232.918C176.884 232.503 177.492 232.231 178.149 232.123C178.345 232.927 176.914 233.385 176.366 232.918Z" fill="#030303"/>
<path d="M147.284 232.425C149.219 233.311 151.323 233.839 153.167 234.907C151.65 235.05 150.106 235.123 148.597 234.898C148.463 234.639 148.341 234.375 148.232 234.116C147.876 234.163 147.524 234.22 147.176 234.276C147.21 233.657 147.245 233.039 147.284 232.425Z" fill="#30312E"/>
<path d="M174.688 234.765C176.258 234.54 177.728 233.39 179.349 233.757C179.28 234.648 178.58 235.327 178.054 236.001C177.062 237.264 175.284 237.169 173.836 237.294C172.532 237.493 171.528 236.49 170.332 236.209C168.158 235.902 166.006 236.429 163.863 236.685C163.497 236.637 162.763 236.542 162.397 236.494C163.015 236.079 163.641 235.673 164.271 235.271C167.732 235.802 171.258 235.305 174.688 234.765Z" fill="#3E3F44"/>
<path d="M76.7555 234.007C79.5294 234.349 82.338 234.574 85.0466 235.278C84.5684 235.512 84.0901 235.75 83.6119 235.987C81.7467 236.627 79.6163 236.878 77.7512 236.104C76.8686 235.806 76.986 234.725 76.7555 234.007Z" fill="#3E3F45"/>
<path d="M98.6204 235.339C100.516 235.754 101.986 233.917 103.864 234.111C104.946 234.163 106.112 234.275 107.003 234.954C104.12 235.525 101.186 235.845 98.3552 236.671C98.3639 236.433 98.39 235.958 98.3987 235.72C96.6726 235.651 94.9509 235.529 93.2249 235.469C94.9988 235.084 96.8292 235.041 98.6204 235.339Z" fill="#2E2E2D"/>
<path d="M85.0466 235.279C87.7509 235.24 90.4943 235.629 93.2247 235.469C94.9507 235.53 96.6724 235.651 98.3985 235.72C98.3898 235.958 98.3637 236.433 98.355 236.671C96.0333 237.385 93.5725 238.206 91.1334 237.527C88.6639 236.844 86.1509 236.347 83.6119 235.988C84.0901 235.75 84.5684 235.512 85.0466 235.279Z" fill="#2E2E2D"/>
<path d="M153.011 235.954C156.767 235.703 160.524 235.634 164.271 235.271C163.641 235.673 163.015 236.079 162.397 236.495C162.763 236.542 163.497 236.637 163.863 236.685C162.115 237.312 160.245 237.524 158.511 238.185C157.367 238.635 156.063 238.916 154.876 238.471C153.937 238.012 153.024 237.502 152.111 237.009C152.406 236.65 152.711 236.3 153.011 235.954Z" fill="#2D2D2D"/>
<path d="M147.775 236.826C149.536 236.619 151.236 236.052 153.01 235.953C152.71 236.299 152.406 236.649 152.11 237.008C153.023 237.501 153.936 238.011 154.875 238.469C151.723 238.275 148.554 238.085 145.441 237.557C146.002 236.809 146.975 236.978 147.775 236.826Z" fill="#2D2D2D"/>
<path d="M95.4116 238.729C98.4507 237.752 101.538 236.831 104.694 236.347C106.681 236.827 108.655 237.423 110.742 237.281C110.79 238.422 110.794 239.564 110.746 240.705C106.729 240.986 102.785 241.903 98.7681 242.115C97.6637 240.969 96.5333 239.853 95.4116 238.729Z" fill="#94999C"/>
<path d="M145.346 238.622C148.959 238.613 152.541 239.097 156.059 239.919C155.024 240.602 154.132 241.462 153.485 242.522C150.728 242.055 147.985 241.488 145.433 240.325C145.398 239.754 145.372 239.184 145.346 238.622Z" fill="#A4A8AB"/>
<path d="M154.633 242.85C154.889 242.111 155.28 241.415 155.998 241.03C156.393 241.358 156.807 241.674 157.228 241.981C156.615 242.815 155.576 242.837 154.633 242.85Z" fill="#A4A8AB"/>
<path d="M154.471 244.166C157.641 244.525 160.71 245.502 163.897 245.74C168.519 246.081 173.158 246.038 177.788 246.008C180.388 246.034 182.94 245.48 185.519 245.255C185.523 246.345 185.501 247.439 185.445 248.533C181.249 249.683 176.849 249.549 172.545 249.311C167.623 249.143 162.745 248.369 157.91 247.478C157.732 246.998 157.558 246.522 157.38 246.051C156.337 245.541 155.363 244.905 154.471 244.166Z" fill="#A4A8AB"/>
<path d="M174.288 238.916C175.801 239.037 178.179 238.19 179.11 239.738C179.44 239.828 179.775 239.924 180.118 240.014C178.723 240.464 177.223 241.13 175.745 240.672C175.075 240.27 174.74 239.509 174.288 238.916Z" fill="#FDFDFD"/>
<path d="M145.493 242.021C148.476 242.756 151.585 243.132 154.472 244.166C155.363 244.905 156.337 245.541 157.38 246.051C157.558 246.522 157.732 246.998 157.911 247.478C154.606 246.864 151.324 246.124 148.063 245.311C147.254 245.048 146.293 244.896 145.733 244.205C145.541 243.491 145.55 242.743 145.493 242.021Z" fill="#9A9B9D"/>
<path d="M69.6122 247.296C69.7731 246.453 69.9383 245.61 70.0992 244.775C74.0817 245.796 78.2164 245.523 82.2858 245.61C80.4381 245.796 78.412 246.146 77.4773 247.958C74.8382 248.083 72.1904 247.871 69.6122 247.296Z" fill="#B9BCC1"/>
<path d="M82.2861 245.609C84.7252 245.332 87.1643 245.064 89.6207 244.969C88.0817 245.894 86.2687 246.089 84.5556 246.517C85.8382 246.94 87.1121 247.399 88.4121 247.779C84.7817 248.173 81.1209 248.069 77.4775 247.957C78.4123 246.145 80.4383 245.795 82.2861 245.609Z" fill="#9EA7A9"/>
<path d="M123.246 106.348C128.812 106.792 134.188 110.371 139.911 109.166C140.755 108.541 144.098 107.994 142.552 109.536C138.578 112.036 133.534 110.3 129.314 109.33C126.773 108.87 124.148 106.451 121.597 108.29C118.74 109.189 115.812 110.184 112.817 110.416C111.522 110.403 110.23 110.4 108.945 110.412C107.956 110.631 104.652 109.24 106.391 108.473C112.025 110.261 117.845 107.971 123.246 106.348Z" fill="#090E06"/>
</g>
<defs>
<clipPath id="clip0_7412_103441">
<rect width="243.9" height="252" fill="white"/>
</clipPath>
</defs>
</svg>
