<svg width="206" height="49" viewBox="0 0 206 49" fill="none" xmlns="http://www.w3.org/2000/svg">
<path d="M13.122 2.75735C15.7223 1.65104 18.6436 1.2536 21.4316 1.7739C24.4993 2.19429 27.0941 4.41739 28.4326 7.14539C28.6915 7.66289 28.8165 8.22973 29.0151 8.7693C28.994 8.8838 28.9517 9.11014 28.9318 9.22466L28.8805 9.28817C28.6946 8.01507 28.1369 6.83028 27.383 5.79823C26.3121 4.18541 24.685 2.9605 22.8599 2.32985C17.9261 0.839534 12.1391 2.34327 8.71961 6.2479C8.67327 6.21408 8.58192 6.14513 8.53692 6.11C9.81702 4.69827 11.3709 3.52139 13.122 2.75735Z" fill="#020202"/>
<path fill-rule="evenodd" clip-rule="evenodd" d="M25.066 1.96374C22.0782 0.216897 18.3825 -0.231168 15.053 0.701059C12.2085 1.41407 9.66653 3.22528 8.01214 5.64168C6.21916 8.17808 5.41543 11.4274 5.91671 14.5018C6.0132 15.2625 6.28947 15.9764 6.56439 16.6868C6.62397 16.8408 6.68348 16.9945 6.74109 17.1486C6.64739 17.3429 6.47508 17.4839 6.30273 17.6249C6.20195 17.7073 6.10115 17.7898 6.01605 17.883C5.24225 18.5247 4.59863 19.2982 3.9578 20.0684C3.89458 20.1443 3.83139 20.2203 3.76811 20.2961C1.67419 22.9121 0.544641 26.1955 0.193863 29.5028C0.120684 30.9413 0.236875 32.3845 0.53349 33.7934C1.14344 36.127 2.22346 38.3959 3.88773 40.1578C4.32057 40.4975 4.88645 40.9432 5.32713 41.2942C5.38572 41.1396 5.43062 40.9796 5.45434 40.8113C5.47525 40.7882 5.50727 40.7539 5.5393 40.7195C5.57133 40.6851 5.60335 40.6508 5.62426 40.6276C4.65173 39.7108 3.79922 38.6644 3.1051 37.5209C1.88797 35.3277 1.1941 32.8343 1.19274 30.3199C1.32571 26.3888 2.89631 22.4896 5.6394 19.6533C6.17503 19.0504 6.78461 18.523 7.39681 17.9996C7.49903 18.1161 7.59982 18.2345 7.70071 18.353C8.1101 18.8337 8.52124 19.3166 9.03653 19.6888C10.9288 21.2032 13.4067 21.7831 15.7933 21.7631C17.3106 21.6983 18.8502 21.5404 20.2777 20.9905C23.2777 19.9243 26.0084 17.9282 27.6515 15.1702C28.676 13.4478 29.3741 11.4152 29.069 9.39129C29.0379 9.43444 28.9853 9.51029 28.9436 9.57042C28.929 9.59148 28.9157 9.61062 28.9052 9.62574C29.0663 11.6389 28.33 13.623 27.2793 15.3105C24.4209 19.9238 18.5524 22.3711 13.2542 21.3C11.7686 20.9969 10.3192 20.402 9.13641 19.4404C7.74211 18.2832 6.72863 16.6643 6.35303 14.8864C5.90688 12.961 6.14629 10.9105 6.88496 9.08785C7.30532 8.14367 7.89952 7.28794 8.52007 6.46583C8.38392 6.42164 8.26301 6.48745 8.14479 6.5518C8.10832 6.57166 8.0721 6.59138 8.03576 6.60768C8.16343 6.41711 8.30658 6.23791 8.44971 6.05872C8.54343 5.94139 8.63714 5.82407 8.7265 5.70357C10.4429 3.22109 13.2403 1.61655 16.1714 1.0418C17.947 0.619488 19.8284 0.698461 21.5815 1.19499C25.3081 2.02887 28.4219 5.15892 29.1712 8.9121C29.2754 9.10267 29.2836 9.33047 29.2917 9.55719C29.3021 9.84589 29.3123 10.1328 29.521 10.3389C29.6651 10.3157 29.7953 10.2483 29.9254 10.181C30.0907 10.0954 30.256 10.0099 30.45 10.0148C31.1817 9.94915 31.9161 9.96725 32.6505 9.98536C32.9358 9.99239 33.221 9.99943 33.5061 10.0016C33.7246 9.99708 33.9391 10.0438 34.1528 10.0903C34.452 10.1554 34.7497 10.2202 35.0547 10.1439C35.1421 9.14431 35.3498 8.12729 35.8322 7.23976C35.9892 6.72975 36.2782 6.26921 36.564 5.81377C36.6374 5.69683 36.7105 5.58022 36.7812 5.4632C37.4066 4.42904 38.3193 3.5992 39.3185 2.93163C40.6626 2.05411 42.1805 1.39976 43.7831 1.20515C45.8961 0.936963 48.0924 1.00443 50.1209 1.70383C52.558 2.6301 54.858 4.18193 56.2534 6.42763C56.2756 6.4654 56.2979 6.5032 56.3203 6.54104C56.7334 7.24095 57.1531 7.95188 57.3679 8.74119C57.1795 8.4902 57.0139 8.22416 56.8484 7.95815C56.661 7.65721 56.4737 7.35631 56.2535 7.07725C54.7719 5.18284 52.8105 3.65309 50.5813 2.73958C48.6071 1.9527 46.4564 1.59623 44.3351 1.76695C42.4473 1.92668 40.6133 2.57917 39.017 3.59288C37.5434 4.48111 36.5906 5.9815 35.8417 7.48929L35.8392 7.42344C35.8438 7.59852 35.7735 7.75956 35.7034 7.92019C35.6639 8.01072 35.6245 8.10112 35.5985 8.19382C34.9689 10.047 35.0935 12.1185 35.8142 13.9278C36.4154 15.5626 37.5542 16.9253 38.757 18.1553C40.4513 19.7237 42.5246 20.8744 44.7295 21.5476C46.8516 22.2252 49.1622 22.3245 51.3272 21.7901C53.0512 21.3366 54.6278 20.4201 55.9681 19.2557C56.0872 19.0905 56.2257 19.2148 56.3395 19.3168C56.3589 19.3341 56.3775 19.3509 56.3952 19.3654C58.1477 20.9864 59.5735 22.9856 60.3738 25.2453C61.0987 27.0334 61.4207 28.9762 61.3759 30.9006C61.1883 34.0401 59.8544 37.076 57.7144 39.3728C56.7072 40.4391 55.5692 41.3841 54.359 42.2109C54.3881 42.2318 54.4314 42.2636 54.4747 42.2953C54.5181 42.3271 54.5616 42.359 54.5907 42.38C54.8816 42.2415 55.1685 42.0977 55.4528 41.9471C55.4907 42.0238 55.5284 42.1006 55.566 42.1775L56.4986 41.7889C56.4948 41.782 56.4909 41.7751 56.4871 41.7681C57.8323 40.9133 58.8387 39.6575 59.8049 38.4147C61.8414 35.6807 62.6746 32.1449 62.2817 28.7741C62.233 28.5118 62.2095 28.2462 62.1859 27.9807C62.166 27.7566 62.1461 27.5324 62.1111 27.3104C61.7613 25.7449 61.2084 24.22 60.4061 22.8273C59.6992 21.3952 58.6192 20.2132 57.5484 19.0411C57.3342 18.8066 57.1203 18.5724 56.9098 18.3368C57.6586 16.9651 58.3773 15.5317 58.5466 13.954C58.8408 12.1629 58.527 10.3416 58.0187 8.61969C57.6733 7.55575 57.1244 6.56712 56.496 5.64706C54.4156 2.67815 50.9453 0.771717 47.3439 0.491342C44.8174 0.363187 42.179 0.619408 39.9099 1.81843C37.0955 3.2654 34.8324 5.98514 34.3217 9.15206C32.9294 8.9873 31.4885 8.88075 30.109 9.16299C29.9437 8.23425 29.6017 7.35576 29.2168 6.49951C28.322 4.61501 26.8021 3.08971 25.066 1.96374ZM35.6219 8.78498C36.2184 6.64872 37.6078 4.71519 39.5135 3.5632C42.2739 1.92227 45.7102 1.51668 48.7935 2.38543C51.5556 3.08821 54.0924 4.70379 55.8573 6.94787C56.8484 8.27443 57.7621 9.72959 58.0563 11.3853C58.0852 11.4961 58.0989 11.612 58.1125 11.7279C58.1383 11.9463 58.164 12.1646 58.292 12.3481C58.3019 12.3588 58.3161 12.375 58.3303 12.3911C58.3444 12.4073 58.3586 12.4234 58.3685 12.4342L58.3121 12.4763C58.2018 12.5897 58.2079 12.7521 58.2139 12.9112C58.2169 12.9913 58.2199 13.0705 58.208 13.1422C58.1224 15.2863 57.2992 17.4136 55.8334 18.9902C54.9038 19.8986 53.8027 20.6252 52.6169 21.1508C50.4268 22.0625 47.9449 22.1375 45.6591 21.5583C44.5829 21.2673 43.5097 20.939 42.5103 20.4408C41.0199 19.6868 39.5777 18.7825 38.4403 17.5439C37.5645 16.5639 36.7132 15.5283 36.1959 14.3092C35.4609 12.585 35.1299 10.6208 35.6219 8.78498Z" fill="#020202"/>
<path fill-rule="evenodd" clip-rule="evenodd" d="M50.8741 44.614C46.5951 46.1784 40.4727 47.4609 32.1686 47.6729C23.8488 47.8852 17.3759 46.6663 12.6982 45.0813C8.04408 43.5044 5.11896 41.5479 3.94541 40.2393L4.93845 39.3488C5.89746 40.4182 8.58145 42.2782 13.1262 43.818C17.6473 45.3499 23.963 46.548 32.1346 46.3394C40.322 46.1305 46.2972 44.8671 50.4161 43.3613C54.5664 41.844 56.7566 40.1095 57.4861 39.0246L58.593 39.7689C57.6298 41.2013 55.1218 43.0612 50.8741 44.614Z" fill="#030303"/>
<path d="M16.1717 1.04178C17.9474 0.619473 19.8287 0.698445 21.5818 1.19498C25.3084 2.02885 28.4223 5.1589 29.1715 8.91209L29.0155 8.76912C28.8169 8.22955 28.6918 7.66271 28.4329 7.14521C27.0945 4.41721 24.4997 2.19412 21.4319 1.77372C18.644 1.25343 15.7227 1.65086 13.1224 2.75717C11.3713 3.52122 9.81741 4.69809 8.53731 6.10982C8.58231 6.14496 8.67365 6.21391 8.72 6.24772C8.65787 6.32447 8.59177 6.39716 8.52038 6.46581C8.34222 6.40799 8.19017 6.53852 8.03608 6.60766C8.24734 6.29232 8.50098 6.00808 8.72681 5.70355C10.4432 3.22108 13.2406 1.61653 16.1717 1.04178Z" fill="#9FC15C"/>
<path d="M43.7834 1.20512C45.8963 0.93694 48.0926 1.00441 50.1211 1.7038C52.5582 2.63007 54.8583 4.18191 56.2536 6.4276C56.6877 7.1643 57.1417 7.90919 57.3681 8.74117C56.9667 8.20623 56.6686 7.60296 56.2537 7.07722C54.7722 5.18281 52.8107 3.65306 50.5816 2.73956C48.6073 1.95267 46.4566 1.5962 44.3353 1.76692C42.4475 1.92666 40.6135 2.57915 39.0173 3.59286C37.5437 4.48108 36.5908 5.98148 35.842 7.48927L35.8388 7.40787L35.8325 7.23973C36.0297 6.59877 36.4355 6.03594 36.7814 5.46317C37.4068 4.42901 38.3196 3.59917 39.3187 2.9316C40.6628 2.05408 42.1807 1.39974 43.7834 1.20512Z" fill="#A1C45B"/>
<path d="M39.5139 3.5635C42.2743 1.92257 45.7106 1.51698 48.7938 2.38573C51.556 3.08851 54.0928 4.70408 55.8577 6.94817C56.8487 8.27472 57.7625 9.72989 58.0566 11.3856C58.1401 11.7052 58.0964 12.0676 58.2924 12.3484C58.3122 12.3699 58.3491 12.413 58.3689 12.4345L58.3124 12.4766C58.1466 12.647 58.2438 12.9281 58.2083 13.1425C58.1227 15.2866 57.2996 17.4139 55.8338 18.9905C54.9042 19.8989 53.8031 20.6255 52.6173 21.1511C50.4271 22.0628 47.9453 22.1378 45.6595 21.5586C44.5832 21.2676 43.5101 20.9393 42.5107 20.4411C41.0203 19.6871 39.5781 18.7828 38.4407 17.5442C37.5649 16.5642 36.7136 15.5286 36.1963 14.3095C35.4613 12.5853 35.1303 10.6211 35.6223 8.78528C36.2187 6.64902 37.6081 4.71549 39.5139 3.5635Z" fill="white"/>
<path d="M8.72018 6.24828C12.1396 2.34365 17.9267 0.839914 22.8605 2.33023C24.6856 2.96088 26.3126 4.18579 27.3835 5.79861C28.1375 6.83066 28.6951 8.01545 28.8811 9.28855C28.8826 9.40062 28.8908 9.51275 28.9057 9.62628C29.0668 11.6395 28.3305 13.6236 27.2798 15.3111C24.4214 19.9243 18.5529 22.3717 13.2546 21.3005C11.769 20.9974 10.3197 20.4026 9.1369 19.4409C7.7426 18.2837 6.72912 16.6648 6.35352 14.8869C5.90737 12.9616 6.14678 10.9111 6.88545 9.08839C7.30581 8.14421 7.90001 7.28848 8.52056 6.46636C8.59195 6.39772 8.65805 6.32502 8.72018 6.24828Z" fill="white"/>
<path d="M35.0548 10.1438C35.1422 9.1442 35.3499 8.12718 35.8324 7.23965L35.8387 7.40778C35.8532 7.68805 35.672 7.93167 35.5987 8.19371C34.9691 10.0469 35.0936 12.1183 35.8144 13.9277C36.4155 15.5625 37.5543 16.9252 38.7571 18.1552C40.4514 19.7236 42.5247 20.8743 44.7296 21.5475C46.8517 22.2251 49.1624 22.3244 51.3273 21.79C53.0513 21.3365 54.6279 20.42 55.9682 19.2556C56.1076 19.0623 56.2736 19.2653 56.3953 19.3653C58.1478 20.9863 59.5736 22.9855 60.3739 25.2452C61.0989 27.0333 61.4208 28.9761 61.376 30.9005C61.1884 34.04 59.8546 37.0759 57.7145 39.3727C56.7073 40.439 55.5693 41.384 54.3591 42.2108C53.3197 42.9073 52.1401 43.345 51.0051 43.8564C49.8607 44.3731 48.6526 44.7278 47.446 45.0665C46.3209 45.3899 45.1564 45.5263 44.0109 45.7535C39.031 46.7225 33.9352 47.0113 28.8705 46.8576C25.4779 46.7661 22.1019 46.3559 18.7567 45.798C15.9016 45.3224 13.0813 44.571 10.4183 43.4237C8.71966 42.6876 7.02727 41.8582 5.62437 40.6275C4.65184 39.7107 3.79933 38.6643 3.10521 37.5208C1.88808 35.3276 1.19421 32.8342 1.19286 30.3197C1.32582 26.3887 2.89642 22.4895 5.63951 19.6532C6.17514 19.0503 6.78472 18.5229 7.39692 17.9995C7.91388 18.5889 8.39436 19.2247 9.03664 19.6887C10.9289 21.2031 13.4068 21.783 15.7934 21.763C17.3107 21.6982 18.8503 21.5403 20.2778 20.9904C23.2778 19.9242 26.0085 17.9281 27.6516 15.1701C28.6761 13.4477 29.3742 11.4151 29.0691 9.39118C29.0271 9.44945 28.9459 9.56735 28.9053 9.62563C28.8904 9.5121 28.8822 9.39997 28.8807 9.2879L28.932 9.22439C28.9518 9.10988 28.9941 8.88353 29.0153 8.76903L29.1713 8.912C29.4083 9.34524 29.1486 9.9709 29.5211 10.3388C29.8484 10.2861 30.1033 10.0059 30.4501 10.0147C31.4661 9.92354 32.4872 9.99385 33.5062 10.0014C34.0305 9.99072 34.5319 10.2746 35.0548 10.1438ZM29.5899 19.002C29.3068 19.1632 29.2502 19.6161 29.527 19.8124C29.7913 20.0605 30.3183 19.9217 30.3555 19.5352C30.4477 19.1267 29.9422 18.7187 29.5899 19.002ZM33.1684 19.0433C32.7374 19.1831 32.7567 19.9222 33.1903 20.048C33.4948 20.1404 33.7593 19.8403 33.7954 19.5605C33.8802 19.2253 33.4751 18.9197 33.1684 19.0433ZM7.28835 21.2305C6.50809 21.488 5.60061 21.7937 5.21643 22.5902C5.00113 23.0402 4.89154 23.5914 5.09485 24.0656C5.34106 24.519 5.76938 24.9034 6.29138 24.9927C7.54497 25.2868 9.0482 25.0312 9.92402 24.0275C10.4839 23.4062 10.3806 22.4021 9.81821 21.8188C9.19981 21.103 8.15031 21.0737 7.28835 21.2305ZM53.4507 21.9514C53.0112 22.015 52.5589 22.1492 52.2317 22.4607C51.6506 23.0658 51.6197 24.1513 52.2595 24.7273C53.1949 25.6278 54.7446 25.9195 55.8944 25.2642C56.3145 25.0069 56.7136 24.5868 56.7135 24.0639C56.7756 23.4576 56.3202 22.9794 55.9092 22.6045C55.2563 21.9976 54.3082 21.8347 53.4507 21.9514Z" fill="#A2C159"/>
<path d="M29.5903 19.002C29.9426 18.7188 30.448 19.1267 30.3559 19.5353C30.3187 19.9218 29.7917 20.0605 29.5274 19.8124C29.2506 19.6162 29.3072 19.1633 29.5903 19.002Z" fill="#020304"/>
<path d="M33.168 19.0434C33.4748 18.9198 33.8799 19.2253 33.7951 19.5606C33.7589 19.8404 33.4945 20.1405 33.1899 20.0481C32.7563 19.9223 32.7371 19.1831 33.168 19.0434Z" fill="#030305"/>
<path d="M7.28861 21.2306C8.15056 21.0738 9.20006 21.1031 9.81846 21.8189C10.3808 22.4022 10.4841 23.4063 9.92427 24.0276C9.04845 25.0313 7.54522 25.2869 6.29163 24.9928C5.76964 24.9035 5.34132 24.5191 5.09511 24.0657C4.89179 23.5915 5.00139 23.0403 5.21668 22.5903C5.60087 21.7938 6.50834 21.4881 7.28861 21.2306Z" fill="#D8C67E"/>
<path d="M53.4505 21.9514C54.3081 21.8347 55.2562 21.9976 55.909 22.6044C56.3201 22.9794 56.7755 23.4575 56.7134 24.0639C56.7134 24.5867 56.3144 25.0069 55.8943 25.2641C54.7445 25.9195 53.1947 25.6278 52.2594 24.7273C51.6196 24.1513 51.6505 23.0658 52.2315 22.4607C52.5588 22.1492 53.011 22.015 53.4505 21.9514Z" fill="#D8C67E"/>
<path d="M5.62442 40.6277C7.02731 41.8583 8.7197 42.6877 10.4184 43.4238C13.0813 44.5711 15.9017 45.3225 18.7568 45.7981C22.102 46.356 25.478 46.7662 28.8706 46.8577C33.9352 47.0114 39.031 46.7226 44.011 45.7536C45.1564 45.5264 46.321 45.3901 47.4461 45.0666C48.6527 44.7279 49.8608 44.3733 51.0051 43.8566C52.1401 43.3451 53.3197 42.9074 54.3592 42.2109C54.4174 42.2529 54.5326 42.3381 54.5909 42.38C52.8958 43.278 51.1521 44.0981 49.3435 44.7456C46.4648 45.6837 43.4578 46.1149 40.4745 46.5744C37.065 46.9683 33.6294 47.1831 30.1953 47.1072C26.9329 47.0717 23.6872 46.6988 20.451 46.3114C17.4008 45.8698 14.3292 45.3 11.4747 44.1014C9.34763 43.2516 7.26774 42.2236 5.45449 40.8114C5.49631 40.7651 5.5826 40.6739 5.62442 40.6277Z" fill="#062011"/>
<path d="M26.3743 8.34165C26.2704 8.15431 26.2099 7.94456 26.1088 7.75623C25.9439 7.45507 25.7231 7.19599 25.5108 6.93344C24.9173 6.22948 24.1226 5.71588 23.2512 5.52538C22.8104 5.38794 22.3479 5.43252 21.895 5.42187C21.6326 5.42583 21.3662 5.40589 21.1097 5.48097C20.4551 5.61296 19.8185 5.85122 19.2297 6.1854C18.5763 6.52908 18.037 7.08254 17.609 7.70667C17.2906 8.13951 17.0828 8.65266 16.9376 9.17811C16.7357 9.82126 16.7614 10.517 16.8335 11.1817C16.9247 11.6344 17.0578 12.0799 17.2448 12.4985C17.5706 13.1724 18.0062 13.8174 18.6314 14.2044C19.2781 14.6627 20.0492 14.8354 20.799 14.9932C21.1787 15.0209 21.5606 15.0217 21.9412 15.0124C23.0369 14.8894 24.1659 14.4663 25.0164 13.7195C25.5705 13.2002 26.0091 12.5264 26.2765 11.7803C26.5155 11.2269 26.5985 10.6181 26.6544 10.0171C26.6595 9.70038 26.6176 9.38371 26.5619 9.07299C26.5017 8.82873 26.4954 8.56521 26.3743 8.34165ZM17.7275 9.17286C17.5837 8.85466 17.6895 8.47044 17.8839 8.20386C18.0423 7.97398 18.3278 7.93777 18.5716 7.88845C18.8089 7.87916 19.0484 7.98614 19.2328 8.14181C19.5827 8.44382 19.4274 9.07018 19.0853 9.30684C18.7879 9.49065 18.4319 9.65459 18.0849 9.53992C17.915 9.49252 17.7932 9.34053 17.7275 9.17286Z" fill="#020202"/>
<path d="M18.5717 7.8885C18.809 7.87922 19.0484 7.9862 19.2328 8.14186C19.5827 8.44387 19.4274 9.07024 19.0854 9.3069C18.788 9.49071 18.432 9.65464 18.0849 9.53997C17.9151 9.49258 17.7932 9.34059 17.7276 9.17292C17.5837 8.85471 17.6896 8.47049 17.8839 8.20392C18.0423 7.97404 18.3278 7.93782 18.5717 7.8885ZM18.3761 8.09009C18.143 8.15221 17.9315 8.32927 17.8503 8.57617C17.7383 8.81667 17.8336 9.10444 17.9916 9.29284C18.1325 9.47193 18.3794 9.40588 18.5707 9.39918C18.8654 9.28895 19.201 9.08572 19.2611 8.72693C19.3239 8.51995 19.2356 8.28352 19.0598 8.17667C18.8527 8.05885 18.6028 7.99592 18.3761 8.09009Z" fill="#120108"/>
<path d="M18.3756 8.08983C18.6023 7.99566 18.8522 8.05858 19.0592 8.17641C19.2351 8.28326 19.3233 8.51968 19.2605 8.72667C19.2005 9.08546 18.8649 9.28868 18.5702 9.39892C18.3789 9.40562 18.132 9.47166 17.991 9.29257C17.8331 9.10418 17.7378 8.81641 17.8498 8.57591C17.931 8.32901 18.1425 8.15195 18.3756 8.08983Z" fill="#020202"/>
<path d="M23.7416 9.78343C24.0693 9.62913 24.4301 9.73147 24.729 9.9236C24.9828 10.0979 25.2027 10.581 25.1116 10.9193C25.0242 11.5057 24.8606 11.7323 24.4347 11.913C24.1584 11.9243 23.4997 12.0369 23.1839 11.7495C22.9561 11.442 22.819 10.9719 22.9812 10.5787C23.0991 10.1751 23.4048 9.88539 23.7416 9.78343Z" fill="white"/>
<path d="M37.3717 8.45267C37.4794 8.26746 37.5441 8.05897 37.6489 7.87271C37.8199 7.57494 38.0459 7.32036 38.2634 7.06214C38.8709 6.37027 39.6758 5.87278 40.5509 5.69987C40.9943 5.57134 41.4558 5.62522 41.9089 5.62369C42.1712 5.63293 42.4379 5.61836 42.6928 5.6986C43.3446 5.84374 43.9763 6.09478 44.5583 6.44074C45.2046 6.79751 45.7326 7.36172 46.148 7.99435C46.4576 8.43351 46.655 8.95074 46.7896 9.47901C46.9786 10.1261 46.9388 10.8211 46.8534 11.4843C46.753 11.935 46.611 12.3778 46.4156 12.7926C46.0764 13.4597 45.6278 14.0958 44.995 14.4702C44.3391 14.9153 43.5648 15.0725 42.8119 15.2152C42.4317 15.2352 42.0499 15.2283 41.6696 15.2113C40.5766 15.0663 39.4543 14.8207 38.6189 14.0569C38.0754 13.5265 37.5061 12.7873 37.306 11.9761C37.0782 11.418 37.1017 10.7241 37.0579 10.1221C37.0592 9.80539 37.1075 9.48963 37.1694 9.18009C37.2345 8.93709 37.2461 8.67375 37.3717 8.45267ZM46 9.45786C46.1502 9.14261 46.0521 8.75634 45.8631 8.4859C45.7094 8.25288 45.4247 8.21092 45.1819 8.1567C44.9448 8.14264 44.7033 8.24478 44.5158 8.3967C44.1599 8.6916 44.3025 9.32096 44.6397 9.56446C44.9334 9.75423 45.286 9.92529 45.6353 9.81764C45.8061 9.77367 45.9309 9.62417 46 9.45786Z" fill="#020202"/>
<path d="M45.1818 8.15685C44.9447 8.14279 44.7032 8.24493 44.5157 8.39685C44.1598 8.69175 44.3024 9.32112 44.6396 9.56462C44.9333 9.75438 45.2859 9.92545 45.6352 9.81779C45.806 9.77383 45.9308 9.62432 45.9999 9.45801C46.1501 9.14276 46.052 8.75649 45.863 8.48605C45.7093 8.25303 45.4246 8.21108 45.1818 8.15685ZM45.3733 8.36234C45.6051 8.42914 45.8129 8.61043 45.8892 8.85891C45.9963 9.10162 45.8952 9.38741 45.7335 9.57259C45.5889 9.7488 45.3434 9.6778 45.1524 9.66724C44.8599 9.5511 44.5285 9.34116 44.4757 8.98123C44.417 8.77302 44.51 8.53842 44.688 8.43513C44.8974 8.32151 45.1485 8.26363 45.3733 8.36234Z" fill="#120108"/>
<path d="M45.3731 8.36197C45.1483 8.26326 44.8972 8.32113 44.6878 8.43476C44.5098 8.53805 44.4169 8.77265 44.4755 8.98086C44.5283 9.34079 44.8597 9.55073 45.1522 9.66687C45.3433 9.67743 45.5888 9.74843 45.7333 9.57222C45.8951 9.38704 45.9961 9.10125 45.889 8.85854C45.8128 8.61006 45.6049 8.42877 45.3731 8.36197Z" fill="#020202"/>
<path d="M39.9857 10.0854C39.6661 9.91493 39.3087 10.0161 39.0104 10.2137C38.7568 10.3933 38.4307 10.8938 38.5135 11.2546C38.5875 11.8784 38.8867 12.1959 39.3025 12.3963C39.5744 12.414 40.2883 12.4884 40.4945 12.1825C40.7253 11.8609 40.9362 11.3644 40.7845 10.944C40.6768 10.5134 40.3154 10.2005 39.9857 10.0854Z" fill="white"/>
<path fill-rule="evenodd" clip-rule="evenodd" d="M38.8198 37.4573C37.0712 38.4559 34.7255 39.2954 32.0883 39.2689C26.8279 39.2159 22.8439 36.4583 21.4589 34.7393L22.2898 34.0698C23.4858 35.5542 27.1751 38.1523 32.0991 38.2018C34.5056 38.2261 36.6662 37.4583 38.2907 36.5307C39.102 36.0673 39.7713 35.5688 40.2631 35.1195C40.7708 34.6557 41.0433 34.2862 41.125 34.0904L42.1098 34.5015C41.9359 34.9181 41.5206 35.416 40.9828 35.9074C40.429 36.4132 39.695 36.9575 38.8198 37.4573Z" fill="black"/>
<path d="M21.0079 34.885C20.8775 34.8609 20.9555 34.6852 21.0107 34.6004C21.229 34.5362 21.6984 34.3967 21.8295 34.3525C21.9933 34.2972 22.5417 33.8758 22.6494 33.9907C22.7571 34.1057 22.5371 34.3311 22.4002 34.4151C22.2633 34.4992 22.125 34.7255 22.0431 34.7531C21.9612 34.7807 21.1708 34.9151 21.0079 34.885Z" fill="black"/>
<path d="M42.4817 34.5681C42.6024 34.5498 42.5336 34.3979 42.4841 34.3242C42.2838 34.2652 41.8531 34.1373 41.733 34.0971C41.5828 34.0467 41.0842 33.6758 40.9828 33.7723C40.8813 33.8689 41.0803 34.0661 41.2051 34.1405C41.3299 34.215 41.4535 34.4114 41.5286 34.4365C41.6037 34.4617 42.3308 34.591 42.4817 34.5681Z" fill="black"/>
<path d="M89.8034 4.15582C88.7449 3.76578 87.5452 4.2425 87.0982 5.21762L83.4756 16.9253H82.817V5.93271C82.817 4.87091 81.8996 4.02581 80.7469 4.02581C79.5943 4.02581 78.6769 4.87091 78.6769 5.93271V42.0952C78.6769 43.157 79.5943 44.0021 80.7469 44.0021C81.8996 44.0021 82.817 43.157 82.817 42.0952V20.7608H83.5933L86.9806 42.3552C87.1218 43.3086 88.0156 44.0021 89.0271 44.0021C89.1212 44.0021 89.2153 44.0021 89.3094 44.0021C90.4385 43.872 91.2383 42.8969 91.0972 41.8568L87.0277 19.0923L90.9796 6.6478C91.403 5.67268 90.8855 4.56754 89.8269 4.15582H89.8034Z" fill="#A2C159"/>
<path d="M79.2155 5.87675C79.4039 4.77303 80.4157 4.51953 80.898 4.53075C79.7135 4.82686 79.395 5.82067 79.3838 6.28056L79.2155 26.3023C79.137 19.9537 79.0271 6.98047 79.2155 5.87675Z" fill="white"/>
<path d="M135.893 4.026C132.451 4.026 129.668 6.60466 129.668 9.74672V38.2815C129.668 41.4453 132.474 44.0023 135.893 44.0023C139.313 44.0023 142.119 41.4236 142.119 38.2815V9.74672C142.119 6.60466 139.336 4.026 135.893 4.026ZM137.968 38.2815C137.968 39.3433 137.025 40.1884 135.893 40.1884C134.761 40.1884 133.818 39.3217 133.818 38.2815V9.74672C133.818 8.68492 134.761 7.83981 135.893 7.83981C137.025 7.83981 137.968 8.70659 137.968 9.74672V38.2815Z" fill="#A2C159"/>
<path d="M152.467 4.026H148.316C147.161 4.026 146.241 4.87111 146.241 5.93291V42.0953C146.241 43.1572 147.161 44.0023 148.316 44.0023C149.472 44.0023 150.392 43.1572 150.392 42.0953V21.434H152.467C155.909 21.434 158.692 18.8554 158.692 15.7133V9.76839C158.692 8.22986 158.055 6.79968 156.876 5.71621C155.697 4.63274 154.117 4.026 152.467 4.026ZM154.542 15.6916C154.542 16.7534 153.598 17.5985 152.467 17.5985H150.392V7.83981H152.467C153.033 7.83981 153.551 8.03484 153.929 8.40322C154.329 8.77159 154.542 9.24832 154.542 9.74672V15.6916Z" fill="#A2C159"/>
<path d="M184.237 4.026H180.087C178.931 4.026 178.012 4.87111 178.012 5.93291V42.0953C178.012 43.1572 178.931 44.0023 180.087 44.0023C181.242 44.0023 182.162 43.1572 182.162 42.0953V21.434H184.237C187.68 21.434 190.462 18.8554 190.462 15.7133V9.76839C190.462 8.22986 189.826 6.79968 188.647 5.71621C187.468 4.63274 185.888 4.026 184.237 4.026ZM186.312 15.6916C186.312 16.7534 185.369 17.5985 184.237 17.5985H182.162V7.83981H184.237C184.803 7.83981 185.322 8.03484 185.699 8.40322C186.1 8.77159 186.312 9.24832 186.312 9.74672V15.6916Z" fill="#A2C159"/>
<path d="M119.257 4.026H115.114C113.961 4.026 113.043 4.87111 113.043 5.93291V42.0953C113.043 43.1572 113.961 44.0023 115.114 44.0023C116.268 44.0023 117.185 43.1572 117.185 42.0953V20.088H117.962L122.765 42.3554C122.906 43.3088 123.8 44.0023 124.812 44.0023C124.906 44.0023 125 44.0023 125.095 44.0023C126.224 43.8722 127.025 42.8971 126.883 41.857L121.587 19.6763C123.87 18.8312 125.494 16.7726 125.494 14.3673V9.76839C125.494 8.22986 124.858 6.79968 123.681 5.71621C122.481 4.63274 120.928 4.026 119.257 4.026ZM117.185 7.83981H119.257C119.821 7.83981 120.339 8.03484 120.716 8.40322C121.116 8.77159 121.328 9.24832 121.328 9.74672V14.3456C121.328 15.4074 120.386 16.2525 119.257 16.2525H117.185V7.83981Z" fill="#A2C159"/>
<path d="M106.235 7.83981C107.39 7.83981 108.31 6.99471 108.31 5.93291C108.31 4.87111 107.39 4.026 106.235 4.026H97.9346C96.7791 4.026 95.8595 4.87111 95.8595 5.93291V42.0953C95.8595 43.1572 96.7791 44.0023 97.9346 44.0023H106.235C107.39 44.0023 108.31 43.1572 108.31 42.0953V37.9448C108.31 36.883 107.39 36.0379 106.235 36.0379C105.079 36.0379 104.16 36.883 104.16 37.9448V40.1884H100.01V19.415H105.625C106.78 19.415 107.7 18.5699 107.7 17.5081C107.7 16.4463 106.78 15.6012 105.625 15.6012H100.01V7.83981H106.235Z" fill="#A2C159"/>
<path d="M171.831 7.83981C172.987 7.83981 173.906 6.99471 173.906 5.93291C173.906 4.87111 172.987 4.026 171.831 4.026H163.531C162.375 4.026 161.456 4.87111 161.456 5.93291V42.0953C161.456 43.1572 162.375 44.0023 163.531 44.0023H171.831C172.987 44.0023 173.906 43.1572 173.906 42.0953V37.9448C173.906 36.883 172.987 36.0379 171.831 36.0379C170.676 36.0379 169.756 36.883 169.756 37.9448V40.1884H165.606V19.415H171.221C172.376 19.415 173.296 18.5699 173.296 17.5081C173.296 16.4463 172.376 15.6012 171.221 15.6012H165.606V7.83981H171.831Z" fill="#A2C159"/>
<path d="M203.602 7.83981C204.757 7.83981 205.677 6.99471 205.677 5.93291C205.677 4.87111 204.757 4.026 203.602 4.026H195.301C194.146 4.026 193.226 4.87111 193.226 5.93291V42.0953C193.226 43.1572 194.146 44.0023 195.301 44.0023H203.602C204.757 44.0023 205.677 43.1572 205.677 42.0953V37.9448C205.677 36.883 204.757 36.0379 203.602 36.0379C202.446 36.0379 201.527 36.883 201.527 37.9448V40.1884H197.376V19.415H202.991C204.147 19.415 205.066 18.5699 205.066 17.5081C205.066 16.4463 204.147 15.6012 202.991 15.6012H197.376V7.83981H203.602Z" fill="#A2C159"/>
<path d="M96.3097 5.87675C96.4982 4.77303 97.5099 4.51953 97.9922 4.53075C96.8077 4.82686 96.4892 5.82067 96.478 6.28056L96.3097 26.3023C96.2312 19.9537 96.1213 6.98047 96.3097 5.87675Z" fill="white"/>
<path d="M113.606 5.87675C113.794 4.77303 114.806 4.51953 115.288 4.53075C114.104 4.82686 113.785 5.82067 113.774 6.28056L113.606 26.3023C113.527 19.9537 113.417 6.98047 113.606 5.87675Z" fill="white"/>
<path d="M146.784 5.87675C146.973 4.77303 147.985 4.51953 148.467 4.53075C147.282 4.82686 146.964 5.82067 146.953 6.28056L146.784 26.3023C146.706 19.9537 146.596 6.98047 146.784 5.87675Z" fill="white"/>
<path d="M162.398 5.87675C162.587 4.77303 163.598 4.51953 164.081 4.53075C162.896 4.82686 162.578 5.82067 162.566 6.28056L162.398 26.3023C162.32 19.9537 162.21 6.98047 162.398 5.87675Z" fill="white"/>
<path d="M178.954 5.87675C179.142 4.77303 180.154 4.51953 180.636 4.53075C179.452 4.82686 179.133 5.82067 179.122 6.28056L178.954 26.3023C178.875 19.9537 178.765 6.98047 178.954 5.87675Z" fill="white"/>
<path d="M130.431 8.56876C130.619 7.46504 131.362 6.4713 131.844 6.48252C130.902 7.30124 130.61 8.51268 130.599 8.97257L130.431 25.6293C130.352 19.2807 130.242 9.67248 130.431 8.56876Z" fill="white"/>
</svg>
