<svg width="425" height="61" viewBox="0 0 425 61" fill="none" xmlns="http://www.w3.org/2000/svg">
<path d="M0.0640001 9.624C1.38667 9.66667 2.624 9.70933 3.776 9.752C4.97067 9.752 5.99467 9.752 6.848 9.752C7.53067 9.752 8.576 9.752 9.984 9.752C11.4347 9.752 13.12 9.752 15.04 9.752C16.96 9.752 19.008 9.752 21.184 9.752C23.36 9.752 25.536 9.752 27.712 9.752C29.9307 9.752 32 9.752 33.92 9.752C35.84 9.752 37.504 9.752 38.912 9.752C40.3627 9.752 41.408 9.752 42.048 9.752C42.8587 9.752 43.8187 9.752 44.928 9.752C46.08 9.70933 47.232 9.66667 48.384 9.624C48.3413 10.6053 48.2987 11.6507 48.256 12.76C48.256 13.8267 48.256 14.8507 48.256 15.832C48.256 16.4293 48.256 17.368 48.256 18.648C48.256 19.8853 48.256 21.3787 48.256 23.128C48.256 24.8347 48.256 26.6693 48.256 28.632C48.256 30.552 48.256 32.4933 48.256 34.456C48.256 36.4187 48.256 38.2747 48.256 40.024C48.256 41.7307 48.256 43.224 48.256 44.504C48.256 45.7413 48.256 46.6373 48.256 47.192C48.256 47.832 48.256 48.6427 48.256 49.624C48.2987 50.5627 48.32 51.5227 48.32 52.504C48.32 53.4427 48.32 54.2747 48.32 55C48.3627 55.6827 48.384 56.0453 48.384 56.088H39.552C39.552 56.0027 39.552 55.4907 39.552 54.552C39.5947 53.5707 39.616 52.4187 39.616 51.096C39.6587 49.7733 39.68 48.536 39.68 47.384C39.68 46.8293 39.68 45.8907 39.68 44.568C39.68 43.2453 39.68 41.688 39.68 39.896C39.68 38.104 39.68 36.2053 39.68 34.2C39.68 32.1947 39.68 30.232 39.68 28.312C39.68 26.392 39.68 24.6427 39.68 23.064C39.68 21.4853 39.68 20.2267 39.68 19.288C39.68 18.3493 39.68 17.88 39.68 17.88H8.768C8.768 17.88 8.768 18.3493 8.768 19.288C8.768 20.2267 8.768 21.4853 8.768 23.064C8.768 24.6 8.768 26.3493 8.768 28.312C8.768 30.232 8.768 32.1947 8.768 34.2C8.768 36.1627 8.768 38.0613 8.768 39.896C8.768 41.688 8.768 43.2453 8.768 44.568C8.768 45.8907 8.768 46.8293 8.768 47.384C8.768 48.152 8.768 49.0267 8.768 50.008C8.768 50.9467 8.768 51.864 8.768 52.76C8.81067 53.656 8.832 54.4027 8.832 55C8.832 55.64 8.832 56.0027 8.832 56.088H0C0 56.0027 0 55.64 0 55C0.0426668 54.36 0.0640001 53.5707 0.0640001 52.632C0.106667 51.6933 0.128 50.7333 0.128 49.752C0.170667 48.7707 0.192 47.896 0.192 47.128C0.192 46.5733 0.192 45.6773 0.192 44.44C0.192 43.16 0.192 41.6453 0.192 39.896C0.192 38.1467 0.192 36.312 0.192 34.392C0.192 32.4293 0.192 30.4667 0.192 28.504C0.192 26.5413 0.192 24.7067 0.192 23C0.192 21.2507 0.192 19.7573 0.192 18.52C0.192 17.2827 0.192 16.3867 0.192 15.832C0.192 14.936 0.192 13.912 0.192 12.76C0.192 11.5653 0.149334 10.52 0.0640001 9.624ZM42.88 44.44V52.632H4.416V44.44H42.88ZM61.888 25.368C62.656 25.4107 63.6373 25.4747 64.832 25.56C66.0267 25.6027 67.264 25.6453 68.544 25.688C69.8667 25.7307 71.0827 25.752 72.192 25.752C73.2587 25.752 74.5813 25.752 76.16 25.752C77.7387 25.752 79.4453 25.752 81.28 25.752C83.1573 25.752 85.0773 25.752 87.04 25.752C89.0453 25.752 91.0293 25.752 92.992 25.752C94.9547 25.752 96.8107 25.752 98.56 25.752C100.309 25.752 101.867 25.752 103.232 25.752C104.64 25.752 105.749 25.752 106.56 25.752C108.053 25.752 109.461 25.7093 110.784 25.624C112.107 25.496 113.195 25.4107 114.048 25.368V35.416C113.323 35.3733 112.235 35.3093 110.784 35.224C109.333 35.1387 107.925 35.096 106.56 35.096C105.749 35.096 104.64 35.096 103.232 35.096C101.824 35.096 100.245 35.096 98.496 35.096C96.7467 35.096 94.8907 35.096 92.928 35.096C91.008 35.096 89.0453 35.096 87.04 35.096C85.0347 35.096 83.0933 35.096 81.216 35.096C79.3813 35.096 77.6747 35.096 76.096 35.096C74.56 35.096 73.2587 35.096 72.192 35.096C70.3573 35.096 68.48 35.1387 66.56 35.224C64.64 35.2667 63.0827 35.3307 61.888 35.416V25.368ZM163.648 7.384C164.245 8.23733 164.907 9.24 165.632 10.392C166.357 11.544 167.04 12.696 167.68 13.848C168.363 15 168.96 16.0667 169.472 17.048L163.904 19.544C163.307 18.1787 162.709 16.9627 162.112 15.896C161.557 14.8293 160.981 13.8053 160.384 12.824C159.787 11.8 159.083 10.7333 158.272 9.624L163.648 7.384ZM172.032 3.864C172.672 4.71733 173.355 5.69866 174.08 6.808C174.848 7.91733 175.573 9.048 176.256 10.2C176.981 11.3093 177.579 12.3547 178.048 13.336L172.672 15.96C171.989 14.5947 171.328 13.4 170.688 12.376C170.091 11.3093 169.472 10.3067 168.832 9.368C168.235 8.38666 167.531 7.384 166.72 6.36L172.032 3.864ZM138.112 49.816C138.112 48.9627 138.112 47.6187 138.112 45.784C138.112 43.9067 138.112 41.752 138.112 39.32C138.112 36.8453 138.112 34.2853 138.112 31.64C138.112 28.952 138.112 26.3707 138.112 23.896C138.112 21.3787 138.112 19.16 138.112 17.24C138.112 15.32 138.112 13.912 138.112 13.016C138.112 11.864 138.048 10.5627 137.92 9.112C137.835 7.66133 137.685 6.38133 137.472 5.272H147.456C147.328 6.38133 147.2 7.61866 147.072 8.984C146.944 10.3493 146.88 11.6933 146.88 13.016C146.88 14.168 146.88 15.768 146.88 17.816C146.88 19.864 146.88 22.1467 146.88 24.664C146.88 27.1387 146.88 29.6773 146.88 32.28C146.88 34.8827 146.88 37.3787 146.88 39.768C146.88 42.1147 146.88 44.184 146.88 45.976C146.88 47.7253 146.88 49.0053 146.88 49.816C146.88 50.3707 146.901 51.2027 146.944 52.312C147.029 53.3787 147.115 54.488 147.2 55.64C147.328 56.792 147.435 57.816 147.52 58.712H137.472C137.685 57.4747 137.835 56.0027 137.92 54.296C138.048 52.5467 138.112 51.0533 138.112 49.816ZM145.024 21.848C147.157 22.4027 149.525 23.128 152.128 24.024C154.773 24.8773 157.44 25.816 160.128 26.84C162.816 27.8213 165.355 28.8027 167.744 29.784C170.133 30.7227 172.096 31.576 173.632 32.344L170.048 41.24C168.213 40.2587 166.208 39.2987 164.032 38.36C161.856 37.4213 159.637 36.504 157.376 35.608C155.157 34.6693 152.981 33.816 150.848 33.048C148.715 32.28 146.773 31.6187 145.024 31.064V21.848ZM244.992 14.68C244.523 15.192 244.096 15.6613 243.712 16.088C243.371 16.5147 243.072 16.9413 242.816 17.368C241.536 19.416 240.021 21.6347 238.272 24.024C236.523 26.4133 234.581 28.824 232.448 31.256C230.315 33.688 228.053 36.0347 225.664 38.296C223.317 40.5573 220.885 42.6053 218.368 44.44L212.032 38.488C214.165 37.0373 216.171 35.4373 218.048 33.688C219.968 31.896 221.739 30.0827 223.36 28.248C225.024 26.4133 226.496 24.6213 227.776 22.872C229.056 21.1227 230.123 19.5227 230.976 18.072C230.123 18.072 228.992 18.072 227.584 18.072C226.176 18.072 224.533 18.072 222.656 18.072C220.821 18.072 218.88 18.072 216.832 18.072C214.784 18.072 212.736 18.072 210.688 18.072C208.683 18.072 206.763 18.072 204.928 18.072C203.136 18.072 201.557 18.072 200.192 18.072C198.869 18.072 197.845 18.072 197.12 18.072C196.267 18.072 195.349 18.0933 194.368 18.136C193.429 18.1787 192.533 18.2427 191.68 18.328C190.827 18.4133 190.187 18.4773 189.76 18.52V9.56C190.315 9.60266 191.019 9.688 191.872 9.816C192.768 9.944 193.685 10.0293 194.624 10.072C195.563 10.1147 196.395 10.136 197.12 10.136C197.675 10.136 198.613 10.136 199.936 10.136C201.301 10.136 202.901 10.136 204.736 10.136C206.571 10.136 208.533 10.136 210.624 10.136C212.757 10.136 214.891 10.136 217.024 10.136C219.2 10.136 221.291 10.136 223.296 10.136C225.301 10.136 227.093 10.136 228.672 10.136C230.293 10.136 231.616 10.136 232.64 10.136C235.157 10.136 237.141 9.90133 238.592 9.432L244.992 14.68ZM211.2 45.336C210.261 44.3973 209.173 43.3733 207.936 42.264C206.741 41.112 205.483 39.96 204.16 38.808C202.88 37.656 201.621 36.5893 200.384 35.608C199.189 34.584 198.101 33.7307 197.12 33.048L203.904 27.608C204.757 28.248 205.76 29.0373 206.912 29.976C208.107 30.9147 209.365 31.9387 210.688 33.048C212.011 34.1573 213.355 35.3093 214.72 36.504C216.085 37.6987 217.387 38.872 218.624 40.024C220.032 41.3893 221.483 42.8613 222.976 44.44C224.512 46.0187 225.963 47.5547 227.328 49.048C228.736 50.5413 229.931 51.928 230.912 53.208L223.424 59.16C222.528 57.9653 221.376 56.5787 219.968 55C218.603 53.3787 217.152 51.7147 215.616 50.008C214.08 48.3013 212.608 46.744 211.2 45.336ZM280.32 16.984C280.619 17.6667 281.003 18.648 281.472 19.928C281.984 21.1653 282.517 22.5093 283.072 23.96C283.627 25.368 284.117 26.712 284.544 27.992C284.971 29.272 285.312 30.2747 285.568 31L277.888 33.688C277.717 32.8773 277.419 31.8533 276.992 30.616C276.565 29.3787 276.096 28.0773 275.584 26.712C275.072 25.304 274.56 23.96 274.048 22.68C273.536 21.4 273.088 20.3333 272.704 19.48L280.32 16.984ZM303.936 21.656C303.595 22.68 303.296 23.5547 303.04 24.28C302.827 25.0053 302.613 25.688 302.4 26.328C301.589 29.5707 300.48 32.8133 299.072 36.056C297.664 39.256 295.872 42.264 293.696 45.08C290.709 48.92 287.317 52.184 283.52 54.872C279.765 57.5173 276.011 59.544 272.256 60.952L265.536 54.104C267.883 53.464 270.357 52.5253 272.96 51.288C275.563 50.008 278.08 48.472 280.512 46.68C282.944 44.888 285.035 42.904 286.784 40.728C288.235 38.8933 289.515 36.8027 290.624 34.456C291.776 32.0667 292.715 29.528 293.44 26.84C294.208 24.1093 294.72 21.4213 294.976 18.776L303.936 21.656ZM265.472 20.376C265.899 21.1867 266.368 22.232 266.88 23.512C267.435 24.792 267.989 26.136 268.544 27.544C269.099 28.952 269.632 30.3173 270.144 31.64C270.699 32.9627 271.125 34.072 271.424 34.968L263.616 37.912C263.36 37.0587 262.976 35.9493 262.464 34.584C261.995 33.2187 261.461 31.7893 260.864 30.296C260.267 28.76 259.691 27.352 259.136 26.072C258.624 24.792 258.176 23.8107 257.792 23.128L265.472 20.376ZM363.456 8.088C363.456 9.112 363.819 9.98666 364.544 10.712C365.269 11.3947 366.123 11.736 367.104 11.736C368.128 11.736 369.003 11.3947 369.728 10.712C370.453 9.98666 370.816 9.112 370.816 8.088C370.816 7.064 370.453 6.18933 369.728 5.464C369.003 4.73867 368.128 4.376 367.104 4.376C366.123 4.376 365.269 4.73867 364.544 5.464C363.819 6.18933 363.456 7.064 363.456 8.088ZM359.488 8.088C359.488 6.68 359.829 5.4 360.512 4.248C361.237 3.05333 362.176 2.11466 363.328 1.432C364.48 0.749331 365.739 0.407997 367.104 0.407997C368.512 0.407997 369.792 0.749331 370.944 1.432C372.139 2.11466 373.077 3.05333 373.76 4.248C374.443 5.4 374.784 6.68 374.784 8.088C374.784 9.45333 374.443 10.712 373.76 11.864C373.077 13.016 372.139 13.9547 370.944 14.68C369.792 15.3627 368.512 15.704 367.104 15.704C365.739 15.704 364.48 15.3627 363.328 14.68C362.176 13.9547 361.237 13.016 360.512 11.864C359.829 10.712 359.488 9.45333 359.488 8.088ZM367.232 13.144C366.933 13.7413 366.677 14.4667 366.464 15.32C366.251 16.1307 366.037 16.8773 365.824 17.56C365.483 19.1387 365.035 20.9093 364.48 22.872C363.925 24.792 363.264 26.7973 362.496 28.888C361.728 30.9787 360.811 33.048 359.744 35.096C358.72 37.144 357.547 39.064 356.224 40.856C354.304 43.416 352.064 45.8053 349.504 48.024C346.944 50.2427 344.085 52.248 340.928 54.04C337.771 55.832 334.293 57.3467 330.496 58.584L323.52 50.904C327.787 49.88 331.456 48.6213 334.528 47.128C337.6 45.6347 340.267 43.928 342.528 42.008C344.832 40.088 346.859 38.04 348.608 35.864C350.016 34.072 351.211 32.1307 352.192 30.04C353.216 27.9493 354.048 25.8587 354.688 23.768C355.371 21.6347 355.84 19.6507 356.096 17.816C355.456 17.816 354.389 17.816 352.896 17.816C351.445 17.816 349.717 17.816 347.712 17.816C345.749 17.816 343.68 17.816 341.504 17.816C339.371 17.816 337.301 17.816 335.296 17.816C333.291 17.816 331.477 17.816 329.856 17.816C328.277 17.816 327.104 17.816 326.336 17.816C324.843 17.816 323.392 17.8373 321.984 17.88C320.619 17.9227 319.531 17.9867 318.72 18.072V9.048C319.36 9.13333 320.128 9.21866 321.024 9.304C321.963 9.38933 322.901 9.45333 323.84 9.496C324.821 9.53866 325.653 9.56 326.336 9.56C327.019 9.56 327.979 9.56 329.216 9.56C330.496 9.56 331.968 9.56 333.632 9.56C335.296 9.56 337.024 9.56 338.816 9.56C340.651 9.56 342.464 9.56 344.256 9.56C346.091 9.56 347.797 9.56 349.376 9.56C350.955 9.56 352.32 9.56 353.472 9.56C354.624 9.56 355.456 9.56 355.968 9.56C356.608 9.56 357.376 9.53866 358.272 9.496C359.211 9.45333 360.107 9.304 360.96 9.048L367.232 13.144ZM403.136 38.552C402.923 36.8453 403.051 35.352 403.52 34.072C404.032 32.792 404.736 31.64 405.632 30.616C406.571 29.592 407.595 28.6533 408.704 27.8C409.856 26.9467 410.923 26.1147 411.904 25.304C412.928 24.4933 413.76 23.6613 414.4 22.808C415.04 21.9547 415.36 21.016 415.36 19.992C415.36 18.712 415.04 17.624 414.4 16.728C413.76 15.832 412.821 15.1493 411.584 14.68C410.389 14.2107 408.939 13.976 407.232 13.976C405.269 13.976 403.477 14.4027 401.856 15.256C400.235 16.1093 398.635 17.368 397.056 19.032L391.808 14.168C393.856 11.8213 396.267 9.944 399.04 8.536C401.856 7.08533 404.949 6.36 408.32 6.36C411.435 6.36 414.187 6.82933 416.576 7.768C419.008 8.70667 420.907 10.136 422.272 12.056C423.68 13.9333 424.384 16.3013 424.384 19.16C424.384 20.7387 424.043 22.1253 423.36 23.32C422.72 24.472 421.867 25.5173 420.8 26.456C419.776 27.352 418.688 28.2267 417.536 29.08C416.384 29.8907 415.317 30.744 414.336 31.64C413.355 32.536 412.587 33.5387 412.032 34.648C411.477 35.7573 411.264 37.0587 411.392 38.552H403.136ZM407.296 55.576C405.675 55.576 404.331 55.0427 403.264 53.976C402.197 52.9093 401.664 51.5653 401.664 49.944C401.664 48.28 402.197 46.9147 403.264 45.848C404.331 44.7813 405.675 44.248 407.296 44.248C408.917 44.248 410.261 44.7813 411.328 45.848C412.395 46.9147 412.928 48.28 412.928 49.944C412.928 51.5653 412.395 52.9093 411.328 53.976C410.261 55.0427 408.917 55.576 407.296 55.576Z" fill="white"/>
</svg>
