<svg width="184" height="24" viewBox="0 0 184 24" fill="none" xmlns="http://www.w3.org/2000/svg">
<path d="M0.848001 18.792C0.848001 18.536 0.848001 18.072 0.848001 17.4C0.848001 16.712 0.848001 15.904 0.848001 14.976C0.848001 14.032 0.848001 13.056 0.848001 12.048C0.848001 11.024 0.848001 10.032 0.848001 9.072C0.848001 8.112 0.848001 7.264 0.848001 6.528C0.848001 5.792 0.848001 5.256 0.848001 4.92C0.848001 4.536 0.832 4.096 0.8 3.6C0.768 3.088 0.712 2.632 0.632 2.232H3.584C3.552 2.616 3.512 3.056 3.464 3.552C3.432 4.048 3.416 4.504 3.416 4.92C3.416 5.464 3.416 6.152 3.416 6.984C3.416 7.8 3.416 8.688 3.416 9.648C3.416 10.608 3.416 11.576 3.416 12.552C3.416 13.528 3.416 14.448 3.416 15.312C3.416 16.16 3.416 16.896 3.416 17.52C3.416 18.144 3.416 18.568 3.416 18.792C3.416 19.048 3.424 19.36 3.44 19.728C3.456 20.096 3.48 20.472 3.512 20.856C3.544 21.224 3.576 21.56 3.608 21.864H0.656C0.72 21.448 0.768 20.952 0.8 20.376C0.832 19.784 0.848001 19.256 0.848001 18.792ZM2.864 8.496C3.648 8.72 4.528 9 5.504 9.336C6.48 9.656 7.464 10.008 8.456 10.392C9.448 10.76 10.392 11.128 11.288 11.496C12.184 11.864 12.944 12.2 13.568 12.504L12.488 15.12C11.816 14.752 11.056 14.384 10.208 14.016C9.376 13.632 8.52 13.264 7.64 12.912C6.76 12.56 5.904 12.24 5.072 11.952C4.256 11.664 3.52 11.416 2.864 11.208V8.496ZM19.328 10.296C19.6 10.312 19.928 10.336 20.312 10.368C20.712 10.384 21.136 10.4 21.584 10.416C22.048 10.432 22.488 10.44 22.904 10.44C23.224 10.44 23.664 10.44 24.224 10.44C24.784 10.44 25.416 10.44 26.12 10.44C26.84 10.44 27.592 10.44 28.376 10.44C29.16 10.44 29.936 10.44 30.704 10.44C31.488 10.44 32.224 10.44 32.912 10.44C33.6 10.44 34.208 10.44 34.736 10.44C35.264 10.44 35.672 10.44 35.96 10.44C36.536 10.44 37.056 10.424 37.52 10.392C37.984 10.344 38.36 10.312 38.648 10.296V13.272C38.376 13.256 37.992 13.232 37.496 13.2C37 13.168 36.488 13.152 35.96 13.152C35.688 13.152 35.28 13.152 34.736 13.152C34.208 13.152 33.6 13.152 32.912 13.152C32.224 13.152 31.488 13.152 30.704 13.152C29.936 13.152 29.16 13.152 28.376 13.152C27.592 13.152 26.84 13.152 26.12 13.152C25.416 13.152 24.784 13.152 24.224 13.152C23.664 13.152 23.224 13.152 22.904 13.152C22.248 13.152 21.592 13.168 20.936 13.2C20.28 13.216 19.744 13.24 19.328 13.272V10.296ZM62.216 6.024C62.088 6.216 61.968 6.448 61.856 6.72C61.744 6.992 61.64 7.248 61.544 7.488C61.336 8.256 61.04 9.104 60.656 10.032C60.272 10.96 59.8 11.912 59.24 12.888C58.68 13.848 58.04 14.768 57.32 15.648C56.216 17.008 54.896 18.24 53.36 19.344C51.84 20.448 49.96 21.432 47.72 22.296L45.488 20.304C47.04 19.84 48.4 19.304 49.568 18.696C50.752 18.072 51.792 17.392 52.688 16.656C53.6 15.92 54.408 15.136 55.112 14.304C55.72 13.616 56.264 12.856 56.744 12.024C57.24 11.176 57.664 10.336 58.016 9.504C58.384 8.656 58.632 7.896 58.76 7.224H50.216L51.128 5.064C51.336 5.064 51.688 5.064 52.184 5.064C52.696 5.064 53.272 5.064 53.912 5.064C54.568 5.064 55.208 5.064 55.832 5.064C56.472 5.064 57.024 5.064 57.488 5.064C57.968 5.064 58.288 5.064 58.448 5.064C58.784 5.064 59.112 5.048 59.432 5.016C59.752 4.968 60.024 4.904 60.248 4.824L62.216 6.024ZM54.272 2.328C54.032 2.68 53.792 3.064 53.552 3.48C53.328 3.896 53.152 4.224 53.024 4.464C52.528 5.376 51.896 6.344 51.128 7.368C50.376 8.392 49.504 9.4 48.512 10.392C47.52 11.368 46.408 12.272 45.176 13.104L43.064 11.52C44.104 10.896 45.032 10.232 45.848 9.528C46.664 8.824 47.368 8.12 47.96 7.416C48.568 6.696 49.088 6.008 49.52 5.352C49.952 4.696 50.312 4.104 50.6 3.576C50.744 3.336 50.904 3.008 51.08 2.592C51.256 2.16 51.392 1.768 51.488 1.416L54.272 2.328ZM70.592 3.12C71.024 3.408 71.52 3.768 72.08 4.2C72.64 4.616 73.208 5.064 73.784 5.544C74.376 6.024 74.936 6.488 75.464 6.936C75.992 7.384 76.416 7.784 76.736 8.136L74.84 10.08C74.536 9.76 74.136 9.376 73.64 8.928C73.144 8.464 72.608 7.992 72.032 7.512C71.472 7.016 70.912 6.552 70.352 6.12C69.792 5.672 69.288 5.296 68.84 4.992L70.592 3.12ZM68.12 19.176C69.464 18.968 70.704 18.696 71.84 18.36C72.976 18.008 74.016 17.616 74.96 17.184C75.92 16.736 76.784 16.28 77.552 15.816C78.832 15.032 80.008 14.128 81.08 13.104C82.168 12.08 83.12 11.024 83.936 9.936C84.752 8.848 85.4 7.792 85.88 6.768L87.344 9.384C86.768 10.424 86.056 11.464 85.208 12.504C84.376 13.544 83.432 14.544 82.376 15.504C81.32 16.448 80.168 17.304 78.92 18.072C78.12 18.568 77.24 19.048 76.28 19.512C75.336 19.976 74.312 20.392 73.208 20.76C72.12 21.128 70.96 21.424 69.728 21.648L68.12 19.176ZM102.824 4.584C102.664 5.816 102.456 7.12 102.2 8.496C101.96 9.856 101.632 11.208 101.216 12.552C100.736 14.184 100.192 15.568 99.584 16.704C98.992 17.824 98.344 18.68 97.64 19.272C96.936 19.864 96.192 20.16 95.408 20.16C94.608 20.16 93.864 19.888 93.176 19.344C92.488 18.784 91.928 18.008 91.496 17.016C91.064 16.008 90.848 14.84 90.848 13.512C90.848 12.168 91.12 10.896 91.664 9.696C92.224 8.496 92.992 7.432 93.968 6.504C94.944 5.576 96.08 4.848 97.376 4.32C98.672 3.792 100.072 3.528 101.576 3.528C103.016 3.528 104.312 3.76 105.464 4.224C106.632 4.688 107.624 5.336 108.44 6.168C109.272 6.984 109.904 7.944 110.336 9.048C110.768 10.152 110.984 11.328 110.984 12.576C110.984 14.256 110.632 15.752 109.928 17.064C109.24 18.36 108.224 19.424 106.88 20.256C105.536 21.072 103.888 21.624 101.936 21.912L100.52 19.656C100.936 19.608 101.32 19.56 101.672 19.512C102.024 19.448 102.352 19.384 102.656 19.32C103.424 19.144 104.152 18.872 104.84 18.504C105.544 18.136 106.168 17.672 106.712 17.112C107.256 16.536 107.68 15.864 107.984 15.096C108.304 14.328 108.464 13.464 108.464 12.504C108.464 11.544 108.312 10.656 108.008 9.84C107.704 9.008 107.256 8.288 106.664 7.68C106.072 7.072 105.344 6.6 104.48 6.264C103.616 5.912 102.64 5.736 101.552 5.736C100.24 5.736 99.072 5.968 98.048 6.432C97.024 6.896 96.152 7.512 95.432 8.28C94.728 9.032 94.192 9.848 93.824 10.728C93.456 11.608 93.272 12.456 93.272 13.272C93.272 14.184 93.384 14.944 93.608 15.552C93.832 16.144 94.112 16.584 94.448 16.872C94.784 17.16 95.128 17.304 95.48 17.304C95.832 17.304 96.192 17.128 96.56 16.776C96.928 16.408 97.296 15.832 97.664 15.048C98.048 14.264 98.424 13.264 98.792 12.048C99.16 10.896 99.464 9.672 99.704 8.376C99.96 7.064 100.144 5.784 100.256 4.536L102.824 4.584ZM119.168 0.791998L121.328 1.44C120.816 2.8 120.208 4.152 119.504 5.496C118.8 6.84 118.032 8.104 117.2 9.288C116.384 10.472 115.544 11.52 114.68 12.432C114.616 12.256 114.504 12.024 114.344 11.736C114.2 11.432 114.048 11.136 113.888 10.848C113.728 10.544 113.576 10.304 113.432 10.128C114.184 9.36 114.912 8.48 115.616 7.488C116.336 6.496 117 5.432 117.608 4.296C118.216 3.144 118.736 1.976 119.168 0.791998ZM116.672 7.2L118.904 4.992L118.928 5.016V22.992H116.672V7.2ZM121.088 5.688H135.896V7.848H121.088V5.688ZM120.512 13.296H136.136V15.504H120.512V13.296ZM123.992 0.959999H126.224V14.448H123.992V0.959999ZM130.376 0.935999H132.584V14.472H130.376V0.935999ZM124.544 16.68L126.704 17.352C126.304 18.056 125.84 18.752 125.312 19.44C124.8 20.112 124.256 20.752 123.68 21.36C123.104 21.968 122.544 22.496 122 22.944C121.856 22.816 121.672 22.656 121.448 22.464C121.24 22.288 121.024 22.112 120.8 21.936C120.576 21.76 120.376 21.616 120.2 21.504C121.032 20.912 121.84 20.192 122.624 19.344C123.408 18.48 124.048 17.592 124.544 16.68ZM129.92 17.736L131.72 16.704C132.264 17.232 132.8 17.8 133.328 18.408C133.872 19.016 134.368 19.616 134.816 20.208C135.28 20.784 135.648 21.312 135.92 21.792L134.024 23.016C133.752 22.52 133.392 21.96 132.944 21.336C132.512 20.728 132.032 20.112 131.504 19.488C130.976 18.848 130.448 18.264 129.92 17.736ZM149.192 8.568H157.16V10.632H149.192V8.568ZM149.24 19.656H157.616V21.672H149.24V19.656ZM153.008 3.336C152.576 4.088 152.04 4.896 151.4 5.76C150.76 6.624 150.048 7.472 149.264 8.304C148.496 9.12 147.688 9.856 146.84 10.512C146.712 10.224 146.52 9.888 146.264 9.504C146.008 9.12 145.768 8.808 145.544 8.568C146.392 7.928 147.216 7.176 148.016 6.312C148.832 5.448 149.568 4.552 150.224 3.624C150.896 2.696 151.432 1.824 151.832 1.008H154.016C154.576 1.888 155.216 2.784 155.936 3.696C156.656 4.608 157.424 5.464 158.24 6.264C159.056 7.064 159.856 7.736 160.64 8.28C160.4 8.568 160.152 8.904 159.896 9.288C159.64 9.672 159.416 10.04 159.224 10.392C158.488 9.784 157.72 9.072 156.92 8.256C156.136 7.44 155.408 6.6 154.736 5.736C154.064 4.872 153.488 4.072 153.008 3.336ZM148.064 13.176H158.552V22.896H156.392V15.216H150.176V22.992H148.064V13.176ZM141.536 0.743999L143.504 1.512C143.2 2.104 142.872 2.728 142.52 3.384C142.184 4.024 141.84 4.64 141.488 5.232C141.152 5.808 140.832 6.32 140.528 6.768L138.992 6.096C139.296 5.616 139.6 5.064 139.904 4.44C140.224 3.816 140.528 3.184 140.816 2.544C141.104 1.888 141.344 1.288 141.536 0.743999ZM144.248 3.528L146.12 4.392C145.576 5.304 144.968 6.264 144.296 7.272C143.624 8.28 142.944 9.256 142.256 10.2C141.584 11.128 140.944 11.944 140.336 12.648L138.968 11.904C139.416 11.36 139.88 10.744 140.36 10.056C140.856 9.352 141.336 8.624 141.8 7.872C142.28 7.12 142.728 6.368 143.144 5.616C143.56 4.864 143.928 4.168 144.248 3.528ZM137.792 6.072L138.896 4.56C139.344 4.928 139.792 5.336 140.24 5.784C140.688 6.216 141.096 6.656 141.464 7.104C141.848 7.536 142.144 7.936 142.352 8.304L141.152 10.032C140.944 9.664 140.656 9.248 140.288 8.784C139.92 8.304 139.52 7.832 139.088 7.368C138.656 6.888 138.224 6.456 137.792 6.072ZM143.456 9.168L145.016 8.544C145.336 9.072 145.64 9.64 145.928 10.248C146.232 10.856 146.496 11.448 146.72 12.024C146.944 12.584 147.112 13.096 147.224 13.56L145.568 14.304C145.472 13.84 145.312 13.312 145.088 12.72C144.88 12.128 144.632 11.52 144.344 10.896C144.072 10.272 143.776 9.696 143.456 9.168ZM137.72 11.424C138.792 11.392 140.064 11.344 141.536 11.28C143.024 11.216 144.536 11.144 146.072 11.064L146.048 12.912C144.592 13.008 143.152 13.104 141.728 13.2C140.32 13.28 139.048 13.36 137.912 13.44L137.72 11.424ZM144.032 14.976L145.664 14.448C145.984 15.136 146.28 15.888 146.552 16.704C146.84 17.52 147.056 18.224 147.2 18.816L145.472 19.44C145.36 18.832 145.168 18.112 144.896 17.28C144.624 16.432 144.336 15.664 144.032 14.976ZM138.944 14.64L140.864 14.976C140.72 16.112 140.504 17.232 140.216 18.336C139.944 19.44 139.624 20.376 139.256 21.144C139.128 21.064 138.96 20.968 138.752 20.856C138.544 20.744 138.32 20.64 138.08 20.544C137.856 20.432 137.664 20.352 137.504 20.304C137.888 19.568 138.192 18.696 138.416 17.688C138.656 16.68 138.832 15.664 138.944 14.64ZM141.584 12.36H143.576V23.064H141.584V12.36ZM167.384 5.016V6.144H178.472V5.016H167.384ZM167.384 2.736V3.84H178.472V2.736H167.384ZM165.2 1.488H180.752V7.368H165.2V1.488ZM166.904 14.52V15.648H179.168V14.52H166.904ZM166.904 12.168V13.296H179.168V12.168H166.904ZM164.768 10.872H181.424V16.944H164.768V10.872ZM171.872 11.304H174.08V21.624H171.872V11.304ZM162.176 8.28H183.872V9.936H162.176V8.28ZM164.168 18.048H181.904V19.56H164.168V18.048ZM162.104 20.736H183.968V22.44H162.104V20.736Z" fill="#333333"/>
</svg>
