<?xml version="1.0" encoding="utf-8"?>
<!-- Generator: Adobe Illustrator 27.5.0, SVG Export Plug-In . SVG Version: 6.00 Build 0)  -->
<svg version="1.1" id="图层_1" xmlns="http://www.w3.org/2000/svg" xmlns:xlink="http://www.w3.org/1999/xlink" x="0px" y="0px"
	 viewBox="0 0 1920 293" style="enable-background:new 0 0 1920 293;" xml:space="preserve">
<style type="text/css">
	.st0{clip-path:url(#SVGID_00000117643746555479237190000015943190242337951676_);}
	.st1{opacity:0.1;}
	.st2{fill:#FFFFFF;}
	.st3{fill:#095422;}
</style>
<g>
	<defs>
		<rect id="SVGID_1_" width="1920" height="293"/>
	</defs>
	<clipPath id="SVGID_00000012446671354585514240000001948853580997175485_">
		<use xlink:href="#SVGID_1_"  style="overflow:visible;"/>
	</clipPath>
	<g style="clip-path:url(#SVGID_00000012446671354585514240000001948853580997175485_);">
		<g class="st1">
			<path class="st2" d="M-329,101.1v98l380.3,9.8l346.8,2.4l562-12v-97.3c0,0-45.2-0.9-80,20.8c-34.8,21.8-47.6,27.9-81.1,28.6
				c-33.5,0.7-65.5-17.2-79.6-26.3s-44.6-25.1-82.7-23.2c-38,1.9-54.6,8.1-77.8,21.3c-23.3,13.2-37,28.3-82.2,26.6
				c-45.3-1.8-36.8-2.4-76.9-22.7s-49.8-25.9-89.9-24.3s-58.2,12.2-75.2,21.8c-17,9.6-42.2,27.6-80.2,26.8
				c-37.9-0.9-63.8-16.2-69.5-21.1S35.4,99.1-2.8,102.1c-38.3,3-49.1-1.9-94.4,27.7c-45.3,29.7-104.3,23.6-131.5,5.8
				C-286.1,98.2-329,101.1-329,101.1z"/>
			<path class="st3" d="M550.7,128.8c20.3-12.3,43.3-26.2,87.1-26.2c43.8,0,66.8,13.9,87.1,26.2c16.4,9.9,31,18.7,55.9,21.5
				c3.7-0.4,7.5-0.6,11.5-0.7c-31.9-1.2-48.1-10.9-66.7-22.2c-20.5-12.4-43.7-26.4-88-26.4c-44.3,0-67.5,14-88,26.4
				c-18.6,11.2-34.7,21-66.6,22.2c4,0.1,7.9,0.4,11.5,0.7C519.7,147.5,534.3,138.7,550.7,128.8L550.7,128.8z"/>
			<path class="st3" d="M228.4,128.8c20.3-12.3,43.3-26.2,87.1-26.2s66.8,13.9,87.1,26.2c16.4,9.9,31,18.7,55.9,21.5
				c3.7-0.4,7.5-0.6,11.5-0.7c-31.9-1.2-48.1-10.9-66.7-22.2c-20.5-12.4-43.7-26.4-88-26.4s-67.5,14-88,26.4
				c-18.6,11.2-34.7,21-66.6,22.2c4,0.1,7.9,0.4,11.5,0.7C197.4,147.5,212,138.7,228.4,128.8L228.4,128.8z"/>
			<path class="st3" d="M-93.9,128.8c20.3-12.3,43.3-26.2,87.1-26.2s66.8,13.9,87.1,26.2c16.4,9.9,31,18.7,55.9,21.5
				c3.7-0.4,7.5-0.6,11.5-0.7c-31.9-1.2-48.1-10.9-66.7-22.2c-20.5-12.4-43.7-26.4-88-26.4s-67.5,14-88,26.4
				c-18.6,11.2-34.7,21-66.6,22.2c4,0.1,7.9,0.4,11.5,0.7C-124.8,147.5-110.3,138.7-93.9,128.8L-93.9,128.8z"/>
			<path class="st3" d="M872.9,128.8c20.3-12.3,43.3-26.2,87.1-26.2v-1.6c-44.3,0-67.5,14-88,26.4c-18.6,11.2-34.7,21-66.6,22.2
				c4,0.1,7.9,0.4,11.5,0.7C842,147.5,856.5,138.7,872.9,128.8L872.9,128.8z"/>
			<path class="st3" d="M315.5,113c-44.3,0-67.5,14-88,26.4c-9.8,5.9-18.9,11.4-30,15.5c0.9,0.2,1.7,0.5,2.6,0.7
				c10.3-4,19-9.3,28.3-14.9c20.3-12.3,43.3-26.2,87.1-26.2s66.8,13.9,87.1,26.2c9.3,5.6,18,10.9,28.3,14.9c0.8-0.3,1.7-0.5,2.6-0.7
				c-11.1-4.1-20.3-9.6-30-15.5C383,127,359.8,113,315.5,113L315.5,113z"/>
			<path class="st3" d="M-6.7,113c-44.3,0-67.5,14-88,26.4c-9.8,5.9-18.9,11.4-30,15.5c0.9,0.2,1.7,0.5,2.6,0.7
				c10.3-4,19-9.3,28.3-14.9c20.3-12.3,43.3-26.2,87.1-26.2c43.8,0,66.8,13.9,87.1,26.2c9.3,5.6,18,10.9,28.3,14.9
				c0.8-0.3,1.7-0.5,2.6-0.7c-11.1-4.1-20.3-9.6-30-15.5C60.7,127,37.5,113-6.7,113L-6.7,113z"/>
			<path class="st3" d="M872.9,140.8c20.3-12.3,43.3-26.2,87.1-26.2V113c-44.3,0-67.5,14-88,26.4c-9.8,5.9-18.9,11.4-30,15.5
				c0.9,0.2,1.7,0.5,2.6,0.7C855,151.6,863.7,146.4,872.9,140.8z"/>
			<path class="st3" d="M637.8,113c-44.3,0-67.5,14-88,26.4c-9.8,5.9-18.9,11.4-30,15.5c0.9,0.2,1.7,0.5,2.6,0.7
				c10.3-4,19-9.3,28.3-14.9c20.3-12.3,43.3-26.2,87.1-26.2s66.8,13.9,87.1,26.2c9.3,5.6,18,10.9,28.3,14.9c0.8-0.3,1.7-0.5,2.6-0.7
				c-11.1-4.1-20.3-9.6-30-15.5C705.3,127,682.1,113,637.8,113L637.8,113z"/>
			<path class="st3" d="M-6.7,125c-44.3,0-67.5,14-88,26.4c-5,3-9.9,6-15,8.7c0.6,0.3,1.3,0.5,1.9,0.8c4.7-2.5,9.2-5.3,13.9-8.1
				c20.3-12.3,43.3-26.2,87.1-26.2s66.8,13.9,87.1,26.2c4.7,2.8,9.2,5.6,13.9,8.1c0.6-0.3,1.2-0.5,1.9-0.8c-5.1-2.7-9.9-5.6-15-8.7
				C60.7,139,37.5,125-6.7,125z"/>
			<path class="st3" d="M315.5,125c-44.3,0-67.5,14-88,26.4c-5,3-9.9,6-15,8.7c0.6,0.3,1.3,0.5,1.9,0.8c4.7-2.5,9.2-5.3,13.9-8.1
				c20.3-12.3,43.3-26.2,87.1-26.2s66.8,13.9,87.1,26.2c4.7,2.8,9.2,5.6,13.9,8.1c0.6-0.3,1.2-0.5,1.9-0.8c-5.1-2.7-9.9-5.6-15-8.7
				C383,139,359.8,125,315.5,125z"/>
			<path class="st3" d="M872.9,152.8c20.3-12.3,43.3-26.2,87.1-26.2V125c-44.3,0-67.5,14-88,26.4c-5,3-9.9,6-15,8.7
				c0.6,0.3,1.3,0.5,1.9,0.8C863.7,158.3,868.2,155.6,872.9,152.8L872.9,152.8z"/>
			<path class="st3" d="M637.8,125c-44.3,0-67.5,14-88,26.4c-5,3-9.9,6-15,8.7c0.6,0.3,1.3,0.5,1.9,0.8c4.7-2.5,9.2-5.3,13.9-8.1
				c20.3-12.3,43.3-26.2,87.1-26.2c43.8,0,66.8,13.9,87.1,26.2c4.7,2.8,9.2,5.6,13.9,8.1c0.6-0.3,1.2-0.5,1.9-0.8
				c-5.1-2.7-9.9-5.6-15-8.7C705.3,139,682.1,125,637.8,125z"/>
			<path class="st3" d="M-6.7,137c-44.3,0-67.5,14-88,26.4c-1.1,0.7-2.3,1.4-3.4,2c0.6,0.3,1.1,0.6,1.6,0.9c0.9-0.5,1.7-1,2.6-1.6
				c20.3-12.3,43.3-26.2,87.1-26.2s66.8,13.9,87.1,26.2c0.9,0.5,1.7,1,2.6,1.6c0.5-0.3,1.1-0.6,1.6-0.9c-1.1-0.7-2.3-1.4-3.4-2.1
				C60.7,151,37.5,137-6.7,137L-6.7,137z"/>
			<path class="st3" d="M637.8,137c-44.3,0-67.5,14-88,26.4c-1.1,0.7-2.3,1.4-3.4,2c0.6,0.3,1.1,0.6,1.6,0.9c0.9-0.5,1.7-1,2.6-1.6
				c20.3-12.3,43.3-26.2,87.1-26.2s66.8,13.9,87.1,26.2c0.9,0.5,1.7,1,2.6,1.6c0.5-0.3,1.1-0.6,1.6-0.9c-1.1-0.7-2.3-1.4-3.4-2.1
				C705.3,151,682.1,137,637.8,137z"/>
			<path class="st3" d="M315.5,137c-44.3,0-67.5,14-88,26.4c-1.1,0.7-2.3,1.4-3.4,2c0.6,0.3,1.1,0.6,1.6,0.9c0.9-0.5,1.7-1,2.6-1.6
				c20.3-12.3,43.3-26.2,87.1-26.2s66.8,13.9,87.1,26.2c0.9,0.5,1.7,1,2.6,1.6c0.5-0.3,1.1-0.6,1.6-0.9c-1.1-0.7-2.3-1.4-3.4-2.1
				C383,151,359.8,137,315.5,137L315.5,137z"/>
			<path class="st3" d="M872.9,164.7c20.3-12.3,43.3-26.2,87.1-26.2V137c-44.3,0-67.5,14-88,26.4c-1.1,0.7-2.3,1.4-3.4,2
				c0.6,0.3,1.1,0.6,1.6,0.9C871.2,165.8,872.1,165.3,872.9,164.7L872.9,164.7z"/>
			<path class="st3" d="M960.1,150.6V149c-39.3,0-62,11.1-81,22.2c0.5,0.3,1,0.6,1.6,0.9C899.3,161.2,921.7,150.6,960.1,150.6
				L960.1,150.6z"/>
			<path class="st3" d="M-87.7,171.2c0.5,0.3,1,0.6,1.6,0.9c18.6-10.9,41-21.5,79.4-21.5c38.4,0,60.8,10.7,79.4,21.5
				c0.5-0.3,1-0.6,1.6-0.9C55.3,160,32.6,149-6.7,149C-46.1,149-68.8,160-87.7,171.2L-87.7,171.2z"/>
			<path class="st3" d="M556.8,171.2c0.5,0.3,1,0.6,1.6,0.9c18.6-10.9,41-21.5,79.4-21.5c38.4,0,60.8,10.7,79.4,21.5
				c0.5-0.3,1-0.6,1.6-0.9c-18.9-11.1-41.7-22.2-81-22.2C598.5,149,575.8,160,556.8,171.2z"/>
			<path class="st3" d="M234.6,171.2c0.5,0.3,1,0.6,1.6,0.9c18.6-10.9,41-21.5,79.4-21.5s60.8,10.7,79.4,21.5c0.5-0.3,1-0.6,1.6-0.9
				c-18.9-11.1-41.7-22.2-81-22.2S253.5,160,234.6,171.2L234.6,171.2z"/>
			<path class="st3" d="M567.2,177.4c0.5,0.3,1.1,0.6,1.6,1c16.7-8.6,37.5-15.8,69-15.8c31.5,0,52.3,7.2,69,15.8
				c0.5-0.3,1.1-0.6,1.6-1c-17-8.9-38.2-16.4-70.6-16.4C605.3,161,584.2,168.5,567.2,177.4L567.2,177.4z"/>
			<path class="st3" d="M-77.3,177.4c0.5,0.3,1.1,0.6,1.6,1c16.7-8.6,37.5-15.8,69-15.8s52.3,7.2,69,15.8c0.5-0.3,1.1-0.6,1.6-1
				c-17-8.9-38.2-16.4-70.6-16.4S-60.3,168.5-77.3,177.4L-77.3,177.4z"/>
			<path class="st3" d="M960.1,162.5V161c-32.4,0-53.6,7.5-70.6,16.4c0.5,0.3,1.1,0.6,1.6,1C907.8,169.7,928.5,162.5,960.1,162.5z"
				/>
			<path class="st3" d="M244.9,177.4c0.5,0.3,1.1,0.6,1.6,1c16.7-8.6,37.5-15.8,69-15.8s52.3,7.2,69,15.8c0.5-0.3,1.1-0.6,1.6-1
				c-17-8.9-38.2-16.4-70.6-16.4S262,168.5,244.9,177.4L244.9,177.4z"/>
			<path class="st3" d="M578.6,184c0.6,0.3,1.2,0.7,1.8,1c14.7-6,32.8-10.4,57.4-10.4c24.6,0,42.7,4.4,57.4,10.4
				c0.6-0.3,1.2-0.6,1.8-1c-15.1-6.3-33.6-11-59.2-11S593.6,177.6,578.6,184L578.6,184z"/>
			<path class="st3" d="M-65.9,184c0.6,0.3,1.2,0.7,1.8,1c14.7-6,32.8-10.4,57.4-10.4c24.6,0,42.7,4.4,57.4,10.4
				c0.6-0.3,1.2-0.6,1.8-1c-15.1-6.4-33.6-11-59.2-11C-32.3,172.9-50.9,177.6-65.9,184z"/>
			<path class="st3" d="M960.1,174.5v-1.6c-25.6,0-44.2,4.7-59.2,11c0.6,0.3,1.2,0.7,1.8,1C917.4,178.9,935.4,174.5,960.1,174.5
				L960.1,174.5z"/>
			<path class="st3" d="M256.3,184c0.6,0.3,1.2,0.7,1.8,1c14.7-6,32.8-10.4,57.4-10.4s42.7,4.4,57.4,10.4c0.6-0.3,1.2-0.6,1.8-1
				c-15.1-6.4-33.6-11-59.2-11C289.9,172.9,271.4,177.6,256.3,184L256.3,184z"/>
			<path class="st3" d="M-51.4,190.8c0.8,0.3,1.7,0.6,2.6,0.9c11.7-3.2,25.4-5.2,42.1-5.2c16.7,0,30.4,2,42.1,5.2
				c0.9-0.3,1.7-0.6,2.6-0.9c-12.2-3.6-26.7-5.9-44.7-5.9C-24.7,184.9-39.1,187.2-51.4,190.8z"/>
			<path class="st3" d="M960.1,186.5v-1.6c-17.9,0-32.4,2.3-44.6,5.9c0.8,0.3,1.7,0.6,2.6,0.9C929.7,188.5,943.3,186.5,960.1,186.5
				L960.1,186.5z"/>
			<path class="st3" d="M270.9,190.8c0.8,0.3,1.7,0.6,2.6,0.9c11.7-3.2,25.4-5.2,42.1-5.2c16.7,0,30.4,2,42.1,5.2
				c0.9-0.3,1.7-0.6,2.6-0.9c-12.2-3.6-26.7-5.9-44.7-5.9C297.6,184.9,283.1,187.2,270.9,190.8L270.9,190.8z"/>
			<path class="st3" d="M593.2,190.8c0.8,0.3,1.7,0.6,2.6,0.9c11.7-3.2,25.4-5.2,42.1-5.2c16.7,0,30.4,2,42.1,5.2
				c0.9-0.3,1.7-0.6,2.6-0.9c-12.2-3.6-26.7-5.9-44.7-5.9S605.4,187.2,593.2,190.8L593.2,190.8z"/>
			<path class="st2" d="M656.1,199.2c9.1,0.9,17.3,2.5,24.6,4.5c3.7-1.3,7.2-2.9,10.6-4.5H656.1z"/>
			<path class="st2" d="M917.2,203.6c7.3-2,15.4-3.6,24.6-4.5h-35.1C910,200.8,913.5,202.3,917.2,203.6z"/>
			<path class="st2" d="M885.4,199.2c0.5,0.3,1,0.6,1.5,0.9c5.1,3.1,10,6,15.1,8.8c3.9-1.6,8.1-3.1,12.6-4.4
				c-4.1-1.6-7.9-3.3-11.6-5.2L885.4,199.2L885.4,199.2z"/>
			<path class="st2" d="M563.2,199.2c0.5,0.3,1,0.6,1.5,0.9c5.1,3.1,10,6,15.1,8.8c3.9-1.6,8.1-3.1,12.6-4.4
				c-4.1-1.6-7.9-3.3-11.6-5.2L563.2,199.2L563.2,199.2z"/>
			<path class="st2" d="M272.6,203.6c7.3-2,15.4-3.6,24.6-4.5h-35.1C265.4,200.8,268.9,202.3,272.6,203.6L272.6,203.6z"/>
			<path class="st2" d="M859.9,199.2h-37c25.4,3.4,42.4,12.1,57.2,20.8c2.8-1.6,5.7-3.3,8.8-4.9c-0.9-0.5-1.8-1.1-2.7-1.6
				C878.1,208.6,869.8,203.5,859.9,199.2L859.9,199.2z"/>
			<path class="st2" d="M537.6,199.2h-37c25.4,3.4,42.4,12.1,57.2,20.8c2.8-1.6,5.7-3.3,8.8-4.9c-0.9-0.5-1.8-1.1-2.7-1.6
				C555.9,208.6,547.5,203.5,537.6,199.2L537.6,199.2z"/>
			<path class="st2" d="M734.2,199.2h-18.6c-1.3,0.8-2.5,1.5-3.8,2.3c-4.7,2.9-9.3,5.6-14.1,8.2c3.4,1.5,6.6,3,9.7,4.6
				c1.2-0.7,2.4-1.4,3.6-2.2C718.1,207.7,725.6,203.2,734.2,199.2L734.2,199.2z"/>
			<path class="st2" d="M240.9,199.2c0.5,0.3,1,0.6,1.5,0.9c5.1,3.1,10,6,15.1,8.8c3.9-1.6,8.1-3.1,12.6-4.4
				c-4.1-1.6-7.9-3.3-11.6-5.2L240.9,199.2L240.9,199.2z"/>
			<path class="st2" d="M594.9,203.6c7.3-2,15.4-3.6,24.6-4.5h-35.1C587.7,200.8,591.2,202.3,594.9,203.6L594.9,203.6z"/>
			<path class="st2" d="M215.3,199.2h-37c25.4,3.4,42.4,12.1,57.2,20.8c2.8-1.6,5.7-3.3,8.8-4.9c-0.9-0.5-1.8-1.1-2.7-1.6
				C233.6,208.6,225.2,203.5,215.3,199.2L215.3,199.2z"/>
			<path class="st2" d="M411.9,199.2h-18.6c-1.3,0.8-2.5,1.5-3.8,2.3c-4.7,2.9-9.3,5.6-14.1,8.2c3.4,1.5,6.6,3,9.7,4.6
				c1.2-0.7,2.4-1.4,3.6-2.2C395.9,207.7,403.3,203.2,411.9,199.2L411.9,199.2z"/>
			<path class="st2" d="M333.9,199.2c9.2,0.9,17.3,2.5,24.6,4.5c3.7-1.3,7.2-2.9,10.6-4.5H333.9L333.9,199.2z"/>
			<path class="st2" d="M11.6,199.2c9.1,0.9,17.3,2.5,24.6,4.5c3.7-1.3,7.2-2.9,10.6-4.5H11.6z"/>
			<path class="st2" d="M89.7,199.2H71c-1.3,0.8-2.5,1.5-3.8,2.3c-4.7,2.9-9.3,5.6-14.1,8.2c3.4,1.5,6.6,3,9.7,4.6
				c1.2-0.7,2.4-1.4,3.6-2.1C73.6,207.7,81.1,203.2,89.7,199.2L89.7,199.2z"/>
			<path class="st2" d="M452.7,199.2h-37c-9.9,4.4-18.3,9.4-26.2,14.2c-0.9,0.6-1.8,1.1-2.7,1.7c3,1.6,5.9,3.2,8.8,4.9
				C410.3,211.2,427.3,202.6,452.7,199.2L452.7,199.2z"/>
			<path class="st2" d="M476.7,235.2c-16.9,0-30.6,2.1-42.4,5.3c11.2,4,24.4,6.5,42.3,6.5c17.9,0,31.2-2.5,42.4-6.5
				C507.3,237.2,493.5,235.2,476.7,235.2z"/>
			<path class="st2" d="M476.7,223.2c-24.8,0-42.9,4.4-57.6,10.5c4,2.1,8.2,4.1,12.7,5.8c12.3-3.6,26.8-5.9,44.9-5.9
				c18,0,32.6,2.3,44.9,5.9c4.5-1.7,8.7-3.7,12.7-5.8C519.5,227.6,501.4,223.2,476.7,223.2z"/>
			<path class="st2" d="M154.4,235.2c-16.9,0-30.6,2.1-42.4,5.3c11.2,4,24.4,6.5,42.3,6.5c17.9,0,31.2-2.5,42.4-6.5
				C185,237.2,171.3,235.2,154.4,235.2z"/>
			<path class="st2" d="M130.5,199.2h-37c-9.9,4.4-18.3,9.4-26.2,14.2c-0.9,0.6-1.8,1.1-2.7,1.7c3,1.6,5.9,3.2,8.8,4.9
				C88,211.2,105.1,202.6,130.5,199.2L130.5,199.2z"/>
			<path class="st2" d="M154.4,211.2c-31.6,0-52.4,7.2-69.2,15.9c3.3,1.9,6.5,3.8,9.8,5.6c15.1-6.4,33.7-11.1,59.4-11.1
				s44.3,4.7,59.4,11.1c3.3-1.8,6.5-3.7,9.8-5.6C206.8,218.4,186,211.2,154.4,211.2L154.4,211.2z"/>
			<path class="st2" d="M154.4,199.2c-38.5,0-60.9,10.7-79.6,21.6c2.2,1.3,4.3,2.6,6.4,3.8c0.8,0.5,1.6,1,2.4,1.4
				c17.1-8.9,38.2-16.5,70.8-16.5s53.7,7.6,70.8,16.5c0.8-0.5,1.6-1,2.4-1.4c2.1-1.3,4.2-2.6,6.4-3.8
				C215.3,209.9,192.9,199.2,154.4,199.2L154.4,199.2z"/>
			<path class="st2" d="M476.7,211.2c-31.6,0-52.4,7.2-69.2,15.9c3.3,2,6.5,3.8,9.8,5.6c15.1-6.4,33.7-11.1,59.4-11.1
				c25.7,0,44.3,4.7,59.4,11.1c3.3-1.8,6.5-3.7,9.8-5.6C529.1,218.4,508.3,211.2,476.7,211.2L476.7,211.2z"/>
			<path class="st2" d="M476.7,199.2c-38.5,0-60.9,10.7-79.6,21.6c2.2,1.3,4.3,2.6,6.4,3.8c0.8,0.5,1.6,1,2.4,1.4
				c17.1-8.9,38.2-16.5,70.8-16.5c32.5,0,53.7,7.6,70.8,16.5c0.8-0.5,1.6-1,2.4-1.4c2.1-1.3,4.2-2.6,6.4-3.8
				C537.6,209.9,515.2,199.2,476.7,199.2L476.7,199.2z"/>
			<path class="st2" d="M66.5,200.1c0.5-0.3,1-0.6,1.5-0.9H50.3c-3.7,1.9-7.5,3.7-11.6,5.2c4.5,1.3,8.6,2.8,12.6,4.4
				C56.4,206.1,61.4,203.1,66.5,200.1L66.5,200.1z"/>
			<path class="st2" d="M563.8,201.4c-1.2-0.7-2.5-1.5-3.8-2.3h-18.6c8.6,4.1,16.1,8.6,23.2,12.9c1.2,0.7,2.4,1.4,3.6,2.1
				c3.1-1.6,6.3-3.1,9.7-4.6C573.2,207.1,568.6,204.3,563.8,201.4L563.8,201.4z"/>
			<path class="st2" d="M241.6,201.4c-1.2-0.7-2.5-1.5-3.8-2.3h-18.6c8.6,4.1,16.1,8.6,23.2,12.9c1.2,0.7,2.4,1.4,3.6,2.1
				c3.1-1.6,6.3-3.1,9.7-4.6C250.9,207.1,246.3,204.3,241.6,201.4L241.6,201.4z"/>
			<path class="st2" d="M154.4,223.2c-24.8,0-42.9,4.4-57.6,10.5c4,2.1,8.2,4.1,12.7,5.8c12.3-3.6,26.8-5.9,44.9-5.9
				s32.6,2.3,44.9,5.9c4.5-1.7,8.7-3.7,12.7-5.8C197.3,227.6,179.2,223.2,154.4,223.2L154.4,223.2z"/>
			<path class="st2" d="M711,200.1c0.5-0.3,1-0.6,1.5-0.9h-17.6c-3.7,1.9-7.5,3.7-11.6,5.2c4.5,1.3,8.6,2.8,12.6,4.4
				C701,206.1,705.9,203.1,711,200.1z"/>
			<path class="st2" d="M775,199.2h-37c-9.9,4.4-18.3,9.4-26.2,14.2c-0.9,0.6-1.8,1.1-2.7,1.7c3,1.6,5.9,3.2,8.8,4.9
				C732.6,211.2,749.6,202.6,775,199.2L775,199.2z"/>
			<path class="st2" d="M799,235.2c-16.9,0-30.6,2.1-42.4,5.3c11.2,4,24.4,6.5,42.3,6.5c17.9,0,31.2-2.5,42.4-6.5
				C829.6,237.2,815.8,235.2,799,235.2L799,235.2z"/>
			<path class="st2" d="M799,211.2c-31.6,0-52.4,7.2-69.2,15.9c3.3,2,6.5,3.8,9.8,5.6c15.1-6.4,33.7-11.1,59.4-11.1
				s44.3,4.7,59.4,11.1c3.3-1.8,6.5-3.7,9.8-5.6C851.4,218.4,830.6,211.2,799,211.2z"/>
			<path class="st2" d="M388.7,200.1c0.5-0.3,1-0.6,1.5-0.9h-17.6c-3.7,1.9-7.5,3.7-11.6,5.2c4.5,1.3,8.6,2.8,12.6,4.4
				C378.7,206.1,383.6,203.1,388.7,200.1L388.7,200.1z"/>
			<path class="st2" d="M799,223.2c-24.8,0-42.9,4.4-57.6,10.5c4,2.1,8.2,4.1,12.7,5.8c12.3-3.6,26.8-5.9,44.9-5.9
				c18,0,32.6,2.3,44.9,5.9c4.5-1.7,8.7-3.7,12.7-5.8C841.8,227.6,823.7,223.2,799,223.2z"/>
			<path class="st2" d="M886.1,201.4c-1.2-0.7-2.5-1.5-3.8-2.3h-18.6c8.6,4.1,16.1,8.6,23.2,12.9c1.2,0.7,2.4,1.4,3.6,2.1
				c3.1-1.6,6.3-3.1,9.7-4.6C895.4,207.1,890.8,204.3,886.1,201.4z"/>
			<path class="st2" d="M799,199.2c-38.5,0-60.9,10.7-79.6,21.6c2.2,1.3,4.3,2.6,6.4,3.8c0.8,0.5,1.6,1,2.4,1.4
				c17.1-8.9,38.2-16.5,70.8-16.5c32.6,0,53.7,7.6,70.8,16.5c0.8-0.5,1.6-1,2.4-1.4c2.1-1.3,4.2-2.6,6.4-3.8
				C859.9,209.9,837.4,199.2,799,199.2z"/>
			<path class="st2" d="M775,199.2c7.2-1,15.2-1.5,23.9-1.5s16.7,0.5,23.9,1.5h37c-15.3-6.8-34.3-11.9-60.9-11.9
				c-26.6,0-45.6,5.1-60.9,11.9H775L775,199.2z"/>
			<path class="st2" d="M130.5,199.2c7.2-1,15.2-1.5,23.9-1.5s16.7,0.5,23.9,1.5h37c-15.3-6.8-34.3-11.9-60.9-11.9
				s-45.6,5.1-60.9,11.9H130.5z"/>
			<path class="st2" d="M452.7,199.2c7.2-1,15.2-1.5,23.9-1.5c8.8,0,16.7,0.5,23.9,1.5h37c-15.3-6.8-34.3-11.9-60.9-11.9
				c-26.6,0-45.6,5.1-60.9,11.9H452.7z"/>
			<path class="st2" d="M89.7,199.2c16-7.6,35.9-13.5,64.8-13.5s48.7,5.9,64.8,13.5h18.6c-19.4-11.6-42.2-23.9-83.4-23.9
				s-64,12.3-83.4,23.9H89.7z"/>
			<path class="st2" d="M411.9,199.2c16-7.6,35.9-13.5,64.8-13.5c28.8,0,48.7,5.9,64.8,13.5h18.6c-19.4-11.6-42.2-23.9-83.4-23.9
				c-41.2,0-64,12.3-83.4,23.9H411.9L411.9,199.2z"/>
			<path class="st2" d="M734.2,199.2c16-7.6,35.9-13.5,64.8-13.5c28.8,0,48.7,5.9,64.8,13.5h18.6c-19.4-11.6-42.2-23.9-83.4-23.9
				c-41.2,0-64,12.3-83.4,23.9H734.2z"/>
			<path class="st2" d="M241.6,177.5c-20.3-12.3-43.3-26.2-87.1-26.2s-66.8,13.9-87.1,26.2c-16.5,10-31.2,18.9-56.6,21.6
				c0.3,0,0.6,0.1,0.9,0.1h35.2c6.8-3.3,13.1-7.1,19.7-11.1c20.5-12.4,43.7-26.4,88-26.4c44.3,0,67.5,14,88,26.4
				c6.6,4,12.9,7.8,19.7,11.1h35.1c0.3,0,0.6-0.1,1-0.1C272.8,196.3,258.1,187.4,241.6,177.5L241.6,177.5z"/>
			<path class="st2" d="M712.5,199.2c20.1-12.1,43.3-25.5,86.5-25.5s66.3,13.3,86.5,25.5h17.6c-5.8-3-11.3-6.3-17-9.7
				c-20.3-12.3-43.3-26.2-87.1-26.2s-66.8,13.9-87.1,26.2c-5.7,3.4-11.2,6.8-17,9.7H712.5z"/>
			<path class="st2" d="M67.9,199.2c20.1-12.1,43.3-25.5,86.5-25.5c43.2,0,66.3,13.3,86.5,25.5h17.6c-5.8-3-11.3-6.3-17-9.7
				c-20.3-12.3-43.3-26.2-87.1-26.2s-66.8,13.9-87.1,26.2c-5.7,3.4-11.2,6.8-17,9.7H67.9L67.9,199.2z"/>
			<path class="st2" d="M390.2,199.2c20.1-12.1,43.3-25.5,86.5-25.5c43.2,0,66.3,13.3,86.5,25.5h17.6c-5.8-3-11.3-6.3-17-9.7
				c-20.3-12.3-43.3-26.2-87.1-26.2c-43.8,0-66.8,13.9-87.1,26.2c-5.7,3.4-11.2,6.8-17,9.7H390.2L390.2,199.2z"/>
			<path class="st2" d="M886.1,177.5c-20.3-12.3-43.3-26.2-87.1-26.2s-66.8,13.9-87.1,26.2c-16.5,10-31.2,18.9-56.6,21.6
				c0.3,0,0.6,0.1,0.9,0.1h35.2c6.8-3.3,13.1-7.1,19.7-11.1c20.5-12.4,43.7-26.4,88-26.4s67.5,14,88,26.4c6.6,4,12.9,7.8,19.7,11.1
				h35.1c0.3,0,0.6-0.1,1-0.1C917.3,196.3,902.6,187.4,886.1,177.5L886.1,177.5z"/>
			<path class="st2" d="M563.8,177.5c-20.3-12.3-43.3-26.2-87.1-26.2c-43.8,0-66.8,13.9-87.1,26.2c-16.5,10-31.2,18.9-56.6,21.6
				c0.3,0,0.6,0.1,0.9,0.1H369c6.8-3.3,13.1-7.1,19.7-11.1c20.5-12.4,43.7-26.4,88-26.4s67.5,14,88,26.4c6.6,4,12.9,7.8,19.7,11.1
				h35.1c0.3,0,0.6-0.1,1-0.1C595,196.3,580.4,187.4,563.8,177.5z"/>
			<path class="st3" d="M332.9,199.1c25.4-2.8,40.1-11.6,56.6-21.6c20.3-12.3,43.3-26.2,87.1-26.2s66.8,13.9,87.1,26.2
				c16.5,10,31.2,18.8,56.6,21.6c4.3-0.4,8.8-0.7,13.5-0.7c-33.7-0.7-50.2-10.7-69.3-22.2c-20.5-12.4-43.7-26.4-88-26.4
				c-44.3,0-67.5,14-88,26.4c-19.1,11.5-35.6,21.5-69.3,22.2C324.2,198.4,328.7,198.7,332.9,199.1L332.9,199.1z"/>
			<path class="st3" d="M960.1,199.9L960.1,199.9C960.1,199.9,960.1,199.9,960.1,199.9l0-0.7v-0.8c0,0,0,0,0,0L960.1,199.9
				L960.1,199.9z"/>
			<path class="st3" d="M655.2,199.1c25.4-2.8,40.1-11.6,56.6-21.6c20.3-12.3,43.3-26.2,87.1-26.2s66.8,13.9,87.1,26.2
				c16.5,10,31.2,18.8,56.6,21.6c4.3-0.4,8.8-0.7,13.5-0.7c-33.7-0.7-50.2-10.7-69.3-22.2c-20.5-12.4-43.7-26.4-88-26.4
				s-67.5,14-88,26.4c-19.1,11.5-35.6,21.5-69.3,22.2C646.4,198.4,650.9,198.7,655.2,199.1z"/>
			<path class="st3" d="M10.7,199.1c25.4-2.8,40.1-11.6,56.6-21.6c20.3-12.3,43.3-26.2,87.1-26.2s66.8,13.9,87.1,26.2
				c16.5,10,31.2,18.8,56.6,21.6c4.3-0.4,8.8-0.7,13.5-0.7c-33.7-0.7-50.2-10.7-69.3-22.2c-20.5-12.4-43.7-26.4-88-26.4
				c-44.3,0-67.5,14-88,26.4c-19.1,11.5-35.6,21.5-69.3,22.2C1.9,198.4,6.4,198.7,10.7,199.1L10.7,199.1z"/>
			<path class="st3" d="M960.1,211.9L960.1,211.9C960.1,211.9,960.1,211.9,960.1,211.9l0-1.5c0,0,0,0,0,0L960.1,211.9L960.1,211.9z"
				/>
			<path class="st3" d="M242.4,188.1c-20.5-12.4-43.7-26.4-88-26.4s-67.5,14-88,26.4c-6.6,4-12.9,7.8-19.7,11.1
				c-3.4,1.6-6.9,3.1-10.6,4.5c0.9,0.2,1.7,0.5,2.6,0.7c4.1-1.6,7.9-3.3,11.6-5.2c5.8-3,11.3-6.3,17-9.7
				c20.3-12.3,43.3-26.2,87.1-26.2s66.8,13.9,87.1,26.2c5.7,3.4,11.2,6.7,17,9.7c3.7,1.9,7.5,3.7,11.6,5.2c0.9-0.3,1.7-0.5,2.6-0.7
				c-3.7-1.3-7.2-2.9-10.6-4.5C255.3,195.9,249,192.1,242.4,188.1L242.4,188.1z"/>
			<path class="st3" d="M564.7,188.1c-20.5-12.4-43.7-26.4-88-26.4c-44.3,0-67.5,14-88,26.4c-6.6,4-12.9,7.8-19.7,11.1
				c-3.4,1.6-6.9,3.1-10.6,4.5c0.9,0.2,1.7,0.5,2.6,0.7c4.1-1.6,7.9-3.3,11.6-5.2c5.8-3,11.3-6.3,17-9.7
				c20.3-12.3,43.3-26.2,87.1-26.2s66.8,13.9,87.1,26.2c5.7,3.4,11.2,6.7,17,9.7c3.7,1.9,7.5,3.7,11.6,5.2c0.9-0.3,1.7-0.5,2.6-0.7
				c-3.7-1.3-7.2-2.9-10.6-4.5C577.5,195.9,571.2,192.1,564.7,188.1L564.7,188.1z"/>
			<path class="st3" d="M886.9,188.1c-20.5-12.4-43.7-26.4-88-26.4c-44.3,0-67.5,14-88,26.4c-6.6,4-12.9,7.8-19.7,11.1
				c-3.4,1.6-6.9,3.1-10.6,4.5c0.9,0.2,1.7,0.5,2.6,0.7c4.1-1.6,7.9-3.3,11.6-5.2c5.8-3,11.3-6.3,17-9.7
				c20.3-12.3,43.3-26.2,87.1-26.2s66.8,13.9,87.1,26.2c5.7,3.4,11.2,6.8,17,9.7c3.7,1.9,7.5,3.7,11.6,5.2c0.9-0.3,1.7-0.5,2.6-0.7
				c-3.7-1.3-7.2-2.9-10.6-4.5C899.8,195.9,893.5,192.1,886.9,188.1L886.9,188.1z"/>
			<path class="st3" d="M960.1,223.8L960.1,223.8C960.1,223.9,960.1,223.9,960.1,223.8l0-1.5c0,0,0,0,0,0L960.1,223.8L960.1,223.8z"
				/>
			<path class="st3" d="M564.7,200.1c-0.5-0.3-1-0.6-1.5-0.9c-20.1-12.1-43.3-25.5-86.5-25.5c-43.2,0-66.3,13.3-86.5,25.5
				c-0.5,0.3-1,0.6-1.5,0.9c-5.1,3.1-10,6.1-15.1,8.8c0.6,0.3,1.3,0.5,1.9,0.8c4.7-2.6,9.3-5.3,14.1-8.2c1.2-0.7,2.5-1.5,3.8-2.3
				c19.4-11.6,42.2-23.9,83.4-23.9s64,12.3,83.4,23.9c1.3,0.8,2.5,1.5,3.8,2.3c4.7,2.9,9.3,5.6,14.1,8.2c0.6-0.3,1.3-0.5,1.9-0.8
				C574.7,206.1,569.8,203.1,564.7,200.1L564.7,200.1z"/>
			<path class="st3" d="M242.4,200.1c-0.5-0.3-1-0.6-1.5-0.9c-20.1-12.1-43.3-25.5-86.5-25.5c-43.2,0-66.3,13.3-86.5,25.5
				c-0.5,0.3-1,0.6-1.5,0.9c-5.1,3.1-10,6.1-15.1,8.8c0.6,0.3,1.3,0.5,1.9,0.8c4.7-2.6,9.3-5.3,14.1-8.2c1.2-0.7,2.5-1.5,3.8-2.3
				c19.4-11.6,42.2-23.9,83.4-23.9c41.2,0,64,12.3,83.4,23.9c1.3,0.8,2.5,1.5,3.8,2.3c4.7,2.9,9.3,5.6,14.1,8.2
				c0.6-0.3,1.3-0.5,1.9-0.8C252.4,206.1,247.5,203.1,242.4,200.1L242.4,200.1z"/>
			<path class="st3" d="M886.9,200.1c-0.5-0.3-1-0.6-1.5-0.9c-20.1-12.1-43.3-25.5-86.5-25.5c-43.2,0-66.3,13.3-86.5,25.5
				c-0.5,0.3-1,0.6-1.5,0.9c-5.1,3.1-10,6.1-15.1,8.8c0.6,0.3,1.3,0.5,1.9,0.8c4.7-2.6,9.3-5.3,14.1-8.2c1.2-0.7,2.5-1.5,3.8-2.3
				c19.4-11.6,42.2-23.9,83.4-23.9c41.2,0,64,12.3,83.4,23.9c1.3,0.8,2.5,1.5,3.8,2.3c4.7,2.9,9.3,5.6,14.1,8.2
				c0.6-0.3,1.3-0.5,1.9-0.8C896.9,206.1,892,203.1,886.9,200.1L886.9,200.1z"/>
			<path class="st3" d="M960.1,235.8L960.1,235.8C960.1,235.9,960.1,235.9,960.1,235.8l0-1.5c0,0,0,0,0,0L960.1,235.8L960.1,235.8z"
				/>
			<path class="st3" d="M863.7,199.2c-16-7.6-35.9-13.5-64.8-13.5c-28.8,0-48.7,5.9-64.8,13.5c-8.6,4.1-16.1,8.6-23.2,12.9
				c-1.2,0.7-2.4,1.4-3.6,2.2c0.6,0.3,1.1,0.6,1.6,0.9c0.9-0.5,1.8-1.1,2.7-1.7c8-4.8,16.3-9.9,26.2-14.2
				c15.3-6.8,34.3-11.9,60.9-11.9s45.6,5.1,60.9,11.9c9.9,4.4,18.3,9.4,26.2,14.2c0.9,0.5,1.8,1.1,2.7,1.6c0.5-0.3,1.1-0.6,1.6-0.9
				c-1.2-0.7-2.4-1.4-3.6-2.1C879.8,207.7,872.3,203.2,863.7,199.2L863.7,199.2z"/>
			<path class="st3" d="M541.4,199.2c-16-7.6-35.9-13.5-64.8-13.5c-28.8,0-48.7,5.9-64.8,13.5c-8.6,4.1-16.1,8.6-23.2,12.9
				c-1.2,0.7-2.4,1.4-3.6,2.2c0.6,0.3,1.1,0.6,1.6,0.9c0.9-0.5,1.8-1.1,2.7-1.7c8-4.8,16.3-9.9,26.2-14.2
				c15.3-6.8,34.3-11.9,60.9-11.9c26.6,0,45.6,5.1,60.9,11.9c9.9,4.4,18.3,9.4,26.2,14.2c0.9,0.5,1.8,1.1,2.7,1.6
				c0.5-0.3,1.1-0.6,1.6-0.9c-1.2-0.7-2.4-1.4-3.6-2.1C557.5,207.7,550,203.2,541.4,199.2L541.4,199.2z"/>
			<path class="st3" d="M219.2,199.2c-16-7.6-35.9-13.5-64.8-13.5s-48.7,5.9-64.8,13.5c-8.6,4.1-16.1,8.6-23.2,12.9
				c-1.2,0.7-2.4,1.4-3.6,2.1c0.6,0.3,1.1,0.6,1.6,0.9c0.9-0.5,1.8-1.1,2.7-1.7c8-4.8,16.3-9.9,26.2-14.2
				c15.3-6.8,34.3-11.9,60.9-11.9s45.6,5.1,60.9,11.9c9.9,4.4,18.3,9.4,26.2,14.2c0.9,0.6,1.8,1.1,2.7,1.6c0.5-0.3,1.1-0.6,1.6-0.9
				c-1.2-0.7-2.4-1.4-3.6-2.1C235.2,207.7,227.8,203.2,219.2,199.2L219.2,199.2z"/>
			<path class="st3" d="M960.1,247.8L960.1,247.8C960.1,247.9,960.1,247.9,960.1,247.8l0-1.5c0,0,0,0,0,0L960.1,247.8L960.1,247.8z"
				/>
			<path class="st3" d="M178.4,199.2c-7.2-1-15.2-1.5-23.9-1.5s-16.7,0.5-23.9,1.5c-25.4,3.4-42.4,12.1-57.2,20.8
				c0.5,0.3,1,0.6,1.6,0.9c18.6-10.9,41.1-21.6,79.6-21.6c38.5,0,60.9,10.7,79.6,21.6c0.5-0.3,1-0.6,1.6-0.9
				C220.8,211.2,203.7,202.6,178.4,199.2L178.4,199.2z"/>
			<path class="st3" d="M500.6,199.2c-7.2-1-15.2-1.5-23.9-1.5c-8.8,0-16.7,0.5-23.9,1.5c-25.4,3.4-42.4,12.1-57.2,20.8
				c0.5,0.3,1,0.6,1.6,0.9c18.6-10.9,41.1-21.6,79.6-21.6c38.5,0,60.9,10.7,79.5,21.6c0.5-0.3,1-0.6,1.6-0.9
				C543,211.2,526,202.6,500.6,199.2L500.6,199.2z"/>
			<path class="st3" d="M822.9,199.2c-7.2-1-15.2-1.5-23.9-1.5c-8.8,0-16.7,0.5-23.9,1.5c-25.4,3.4-42.4,12.1-57.2,20.8
				c0.5,0.3,1,0.6,1.6,0.9c18.6-10.9,41.1-21.6,79.6-21.6c38.5,0,60.9,10.7,79.6,21.6c0.5-0.3,1-0.6,1.6-0.9
				C865.3,211.2,848.3,202.6,822.9,199.2L822.9,199.2z"/>
			<path class="st3" d="M960.1,259.8L960.1,259.8C960.1,259.9,960.1,259.9,960.1,259.8l0-1.5c0,0,0,0,0,0L960.1,259.8L960.1,259.8z"
				/>
			<path class="st3" d="M154.4,209.6c-32.6,0-53.7,7.6-70.8,16.5c0.5,0.3,1.1,0.6,1.6,1c16.8-8.6,37.5-15.9,69.2-15.9
				c31.6,0,52.4,7.2,69.2,15.9c0.5-0.3,1.1-0.6,1.6-1C208.1,217.2,187,209.6,154.4,209.6z"/>
			<path class="st3" d="M476.7,209.6c-32.5,0-53.7,7.6-70.8,16.5c0.5,0.3,1.1,0.6,1.6,1c16.8-8.6,37.5-15.9,69.2-15.9
				c31.6,0,52.4,7.2,69.2,15.9c0.5-0.3,1.1-0.6,1.6-1C530.4,217.2,509.2,209.6,476.7,209.6z"/>
			<path class="st3" d="M799,209.6c-32.6,0-53.7,7.6-70.8,16.5c0.5,0.3,1.1,0.6,1.6,1c16.8-8.6,37.5-15.9,69.2-15.9
				c31.6,0,52.4,7.2,69.2,15.9c0.5-0.3,1.1-0.6,1.6-1C852.7,217.2,831.5,209.6,799,209.6z"/>
			<path class="st3" d="M960.1,271.8L960.1,271.8C960.1,271.8,960.1,271.8,960.1,271.8l0-1.5c0,0,0,0,0,0L960.1,271.8L960.1,271.8z"
				/>
			<path class="st3" d="M154.4,221.6c-25.7,0-44.3,4.7-59.4,11.1c0.6,0.3,1.2,0.7,1.8,1c14.7-6.1,32.8-10.5,57.6-10.5
				s42.8,4.4,57.6,10.5c0.6-0.3,1.2-0.6,1.8-1C198.7,226.3,180.1,221.6,154.4,221.6z"/>
			<path class="st3" d="M799,221.6c-25.7,0-44.3,4.7-59.4,11.1c0.6,0.3,1.2,0.7,1.8,1c14.7-6.1,32.8-10.5,57.6-10.5
				c24.8,0,42.8,4.4,57.6,10.5c0.6-0.3,1.2-0.6,1.8-1C843.2,226.3,824.6,221.6,799,221.6L799,221.6z"/>
			<path class="st3" d="M476.7,221.6c-25.7,0-44.3,4.7-59.4,11.1c0.6,0.3,1.2,0.7,1.8,1c14.7-6.1,32.8-10.5,57.6-10.5
				s42.8,4.4,57.6,10.5c0.6-0.3,1.2-0.6,1.8-1C521,226.3,502.4,221.6,476.7,221.6z"/>
			<path class="st3" d="M960.1,283.7L960.1,283.7C960.1,283.8,960.1,283.8,960.1,283.7l0-1.5c0,0,0,0,0,0L960.1,283.7L960.1,283.7z"
				/>
			<path class="st3" d="M799,233.6c-18.1,0-32.6,2.3-44.9,5.9c0.8,0.3,1.7,0.6,2.5,0.9c11.7-3.2,25.5-5.3,42.4-5.3
				s30.6,2.1,42.3,5.3c0.9-0.3,1.7-0.6,2.5-0.9C831.5,235.9,817,233.6,799,233.6z"/>
			<path class="st3" d="M476.7,233.6c-18.1,0-32.6,2.3-44.9,5.9c0.8,0.3,1.7,0.6,2.5,0.9c11.7-3.2,25.5-5.3,42.4-5.3
				c16.9,0,30.6,2.1,42.3,5.3c0.9-0.3,1.7-0.6,2.5-0.9C509.3,235.9,494.7,233.6,476.7,233.6L476.7,233.6z"/>
			<path class="st3" d="M154.4,233.6c-18.1,0-32.6,2.3-44.9,5.9c0.8,0.3,1.7,0.6,2.5,0.9c11.7-3.2,25.5-5.3,42.4-5.3
				s30.6,2.1,42.3,5.3c0.9-0.3,1.7-0.6,2.5-0.9C187,235.9,172.5,233.6,154.4,233.6z"/>
			<path class="st2" d="M637.8,259.8c-43.8,0-66.8,13.9-87.1,26.2c-5.4,3.3-10.6,6.4-16,9.2h17.5c19.9-12,43-25,85.6-25
				c42.6,0,65.7,13,85.6,25h17.5c-5.4-2.8-10.6-6-16-9.2C704.6,273.7,681.6,259.8,637.8,259.8z"/>
			<path class="st2" d="M-6.7,259.8c-43.8,0-66.8,13.9-87.1,26.2c-5.4,3.3-10.6,6.4-16,9.2h17.5c19.9-12,43-25,85.6-25
				s65.7,13,85.6,25h17.5c-5.4-2.8-10.6-6-16-9.2C60.1,273.7,37.1,259.8-6.7,259.8L-6.7,259.8z"/>
			<path class="st2" d="M315.5,259.8c-43.8,0-66.8,13.9-87.1,26.2c-5.4,3.3-10.6,6.4-16,9.2h17.5c19.9-12,43-25,85.6-25
				c42.6,0,65.7,13,85.6,25h17.5c-5.4-2.8-10.6-6-16-9.2C382.4,273.7,359.4,259.8,315.5,259.8z"/>
			<path class="st2" d="M724.9,274c-20.3-12.3-43.3-26.2-87.1-26.2c-43.8,0-66.8,13.9-87.1,26.2c-15.8,9.5-29.9,18.1-53.3,21.2h33.8
				c6.4-3.2,12.4-6.8,18.7-10.6c20.5-12.4,43.7-26.4,88-26.4c44.3,0,67.5,14,88,26.4c6.3,3.8,12.3,7.4,18.7,10.6h33.8
				C754.8,292,740.7,283.5,724.9,274L724.9,274z"/>
			<path class="st2" d="M80.4,274c-20.3-12.3-43.3-26.2-87.1-26.2c-43.8,0-66.8,13.9-87.1,26.2c-15.8,9.5-29.9,18.1-53.3,21.2h33.8
				c6.4-3.2,12.4-6.8,18.7-10.6c20.5-12.4,43.7-26.4,88-26.4s67.5,14,88,26.4c6.3,3.8,12.3,7.4,18.7,10.6h33.8
				C110.3,292,96.2,283.5,80.4,274z"/>
			<path class="st2" d="M-6.7,271.8c-40.6,0-63.3,11.9-82.6,23.4h18.9c15.8-7.3,35.5-13,63.7-13c28.2,0,47.8,5.7,63.7,13h18.9
				C56.6,283.7,33.8,271.8-6.7,271.8z"/>
			<path class="st2" d="M637.8,271.8c-40.6,0-63.3,11.9-82.6,23.4h18.9c15.8-7.3,35.5-13,63.7-13c28.2,0,47.8,5.7,63.7,13h18.9
				C701.1,283.7,678.4,271.8,637.8,271.8z"/>
			<path class="st2" d="M-265.3,295.2h18.9c-19.3-11.5-42-23.4-82.6-23.4v-1.6c42.6,0,65.7,13,85.6,25h17.5c-5.4-2.8-10.6-6-16-9.2
				c-20.3-12.3-43.3-26.2-87.1-26.2v-1.6c44.3,0,67.5,14,88,26.4c6.3,3.8,12.3,7.4,18.7,10.6h33.8c-23.4-3.1-37.5-11.7-53.2-21.2
				c-20.3-12.3-43.3-26.2-87.1-26.2v-1.6c44.3,0,67.5,14,88,26.4c19.8,11.9,36.9,22.3,73.2,22.3s53.4-10.3,73.2-22.3
				c20.5-12.4,43.7-26.4,88-26.4s67.5,14,88,26.4c19.8,11.9,36.9,22.3,73.2,22.3s53.4-10.3,73.2-22.3c20.5-12.4,43.7-26.4,88-26.4
				s67.5,14,88,26.4c19.8,11.9,36.9,22.3,73.2,22.3s53.4-10.3,73.2-22.3c20.5-12.4,43.7-26.4,88-26.4c44.3,0,67.5,14,88,26.4
				c19.8,11.9,36.9,22.3,73.2,22.3s53.4-10.3,73.2-22.3c20.5-12.4,43.7-26.4,88-26.4v-10.4c-43.8,0-66.8,13.9-87.1,26.2
				c-20,12.1-37.3,22.5-74,22.5s-54-10.4-74-22.5c-20.3-12.3-43.3-26.2-87.1-26.2c-43.8,0-66.8,13.9-87.1,26.2
				c-20,12.1-37.2,22.5-74,22.5s-54-10.4-74-22.5c-20.3-12.3-43.3-26.2-87.1-26.2s-66.8,13.9-87.1,26.2c-20,12.1-37.2,22.5-74,22.5
				c-36.7,0-54-10.4-74-22.5c-20.3-12.3-43.3-26.2-87.1-26.2s-66.8,13.9-87.1,26.2c-20,12.1-37.2,22.5-74,22.5s-54-10.4-74-22.5
				c-20.3-12.3-43.3-26.2-87.1-26.2v-1.6c44.3,0,67.5,14,88,26.4c19.8,11.9,36.9,22.3,73.2,22.3s53.4-10.3,73.2-22.3
				c20.5-12.4,43.7-26.4,88-26.4s67.5,14,88,26.4c19.8,11.9,36.9,22.3,73.2,22.3s53.4-10.3,73.2-22.3c20.5-12.4,43.7-26.4,88-26.4
				s67.5,14,88,26.4c19.8,11.9,36.9,22.3,73.2,22.3s53.4-10.3,73.2-22.3c20.5-12.4,43.7-26.4,88-26.4c44.3,0,67.5,14,88,26.4
				c19.8,11.9,36.9,22.3,73.2,22.3s53.4-10.3,73.2-22.3c20.5-12.4,43.7-26.4,88-26.4v-10.4c-43.8,0-66.8,13.9-87.1,26.2
				c-20,12.1-37.2,22.5-74,22.5c-36.7,0-54-10.4-74-22.5c-20.3-12.3-43.3-26.2-87.1-26.2c-43.8,0-66.8,13.9-87.1,26.2
				c-20,12.1-37.2,22.5-74,22.5s-54-10.4-74-22.5c-20.3-12.3-43.3-26.2-87.1-26.2s-66.8,13.9-87.1,26.2c-20,12.1-37.2,22.5-74,22.5
				s-54-10.4-74-22.5c-20.3-12.3-43.3-26.2-87.1-26.2s-66.8,13.9-87.1,26.2c-20,12.1-37.2,22.5-74,22.5s-54-10.4-74-22.5
				c-20.3-12.3-43.3-26.2-87.1-26.2v-1.6c44.3,0,67.5,14,88,26.4c19.8,11.9,36.9,22.3,73.2,22.3s53.4-10.3,73.2-22.3
				c20.5-12.4,43.7-26.4,88-26.4s67.5,14,88,26.4c19.8,11.9,36.9,22.3,73.2,22.3s53.4-10.3,73.2-22.3c20.5-12.4,43.7-26.4,88-26.4
				s67.5,14,88,26.4c19.8,11.9,36.9,22.3,73.2,22.3s53.4-10.3,73.2-22.3c20.5-12.4,43.7-26.4,88-26.4c44.3,0,67.5,14,88,26.4
				c19.8,11.9,36.9,22.3,73.2,22.3s53.4-10.3,73.2-22.3c20.5-12.4,43.7-26.4,88-26.4v-10.4c-43.8,0-66.8,13.9-87.1,26.2
				c-20,12.1-37.2,22.5-74,22.5c-36.7,0-54-10.4-74-22.5c-20.3-12.3-43.3-26.2-87.1-26.2c-43.8,0-66.8,13.9-87.1,26.2
				c-20,12.1-37.2,22.5-74,22.5s-54-10.4-74-22.5c-20.3-12.3-43.3-26.2-87.1-26.2s-66.8,13.9-87.1,26.2c-20,12.1-37.2,22.5-74,22.5
				c-36.7,0-54-10.4-74-22.5c-20.3-12.3-43.3-26.2-87.1-26.2c-43.8,0-66.8,13.9-87.1,26.2c-20,12.1-37.2,22.5-74,22.5
				s-54-10.4-74-22.5c-20.3-12.3-43.3-26.2-87.1-26.2v-1.6c44.3,0,67.5,14,88,26.4c19.8,11.9,36.9,22.3,73.2,22.3
				s53.4-10.3,73.2-22.3c20.5-12.4,43.7-26.4,88-26.4s67.5,14,88,26.4c19.8,11.9,36.9,22.3,73.2,22.3s53.4-10.3,73.2-22.3
				c20.5-12.4,43.7-26.4,88-26.4s67.5,14,88,26.4c19.8,11.9,36.9,22.3,73.2,22.3s53.4-10.3,73.2-22.3c20.5-12.4,43.7-26.4,88-26.4
				c44.3,0,67.5,14,88,26.4c19.8,11.9,36.9,22.3,73.2,22.3s53.4-10.3,73.2-22.3c20.5-12.4,43.7-26.4,88-26.4v-10.4
				c-43.8,0-66.8,13.9-87.1,26.2c-20,12.1-37.2,22.5-74,22.5c-36.7,0-54-10.4-74-22.5c-20.3-12.3-43.3-26.2-87.1-26.2
				c-43.8,0-66.8,13.9-87.1,26.2c-20,12.1-37.2,22.5-74,22.5s-54-10.4-74-22.5c-20.3-12.3-43.3-26.2-87.1-26.2s-66.8,13.9-87.1,26.2
				c-20,12.1-37.2,22.5-74,22.5c-36.7,0-54-10.4-74-22.5c-20.3-12.3-43.3-26.2-87.1-26.2s-66.8,13.9-87.1,26.2
				c-20,12.1-37.2,22.5-74,22.5s-54-10.4-74-22.5c-20.3-12.3-43.3-26.2-87.1-26.2v-0.8v75v8.1C-300.8,282.2-281.2,287.8-265.3,295.2
				L-265.3,295.2z"/>
			<path class="st2" d="M315.5,271.8c-40.6,0-63.3,11.9-82.6,23.4h18.9c15.8-7.3,35.5-13,63.7-13s47.8,5.7,63.7,13h18.9
				C378.8,283.7,356.1,271.8,315.5,271.8z"/>
			<path class="st2" d="M402.7,274c-20.3-12.3-43.3-26.2-87.1-26.2s-66.8,13.9-87.1,26.2c-15.8,9.5-29.9,18.1-53.3,21.2h33.8
				c6.4-3.2,12.4-6.8,18.7-10.6c20.5-12.4,43.7-26.4,88-26.4c44.3,0,67.5,14,88,26.4c6.3,3.8,12.3,7.4,18.7,10.6h33.8
				C432.6,292,418.5,283.5,402.7,274L402.7,274z"/>
			<path class="st2" d="M872.9,274c-15.8,9.5-29.9,18.1-53.3,21.2h33.8c6.4-3.2,12.4-6.8,18.7-10.6c20.5-12.4,43.7-26.4,88-26.4
				v-10.4C916.2,247.8,893.2,261.7,872.9,274z"/>
			<path class="st2" d="M872.9,285.9c-5.4,3.3-10.6,6.4-16,9.2h17.5c19.9-12,43-25,85.6-25v-10.4
				C916.2,259.8,893.2,273.7,872.9,285.9z"/>
			<path class="st2" d="M877.5,295.2h18.9c15.8-7.3,35.5-13,63.7-13v-10.4C919.5,271.8,896.8,283.7,877.5,295.2z"/>
			<path class="st2" d="M315.5,283.7c-26,0-44.7,4.9-59.8,11.4h119.6C360.2,288.6,341.5,283.7,315.5,283.7L315.5,283.7z"/>
			<path class="st2" d="M900.3,295.2h59.8v-11.4C934.1,283.7,915.4,288.6,900.3,295.2z"/>
			<path class="st2" d="M637.8,283.7c-26,0-44.7,4.9-59.8,11.4h119.6C682.5,288.6,663.8,283.7,637.8,283.7z"/>
			<path class="st2" d="M-6.7,283.7c-26,0-44.7,4.9-59.8,11.4H53C37.9,288.6,19.3,283.7-6.7,283.7z"/>
			<path class="st3" d="M-241.9,226c20,12.1,37.2,22.5,74,22.5c36.7,0,54-10.4,74-22.5c20.3-12.3,43.3-26.2,87.1-26.2
				c43.8,0,66.8,13.9,87.1,26.2c20,12.1,37.2,22.5,74,22.5s54-10.4,74-22.5c20.3-12.3,43.3-26.2,87.1-26.2s66.8,13.9,87.1,26.2
				c20,12.1,37.2,22.5,74,22.5s54-10.4,74-22.5c20.3-12.3,43.3-26.2,87.1-26.2c43.8,0,66.8,13.9,87.1,26.2
				c20,12.1,37.2,22.5,74,22.5c36.7,0,54-10.4,74-22.5c20.3-12.3,43.3-26.2,87.1-26.2v-1.6c-1.3,0-2.6,0-3.9,0
				c-4.7,0.1-9.2,0.3-13.5,0.7c-0.3,0-0.6,0.1-1,0.1c-9.1,0.9-17.2,2.5-24.6,4.5c-0.9,0.2-1.7,0.5-2.6,0.7
				c-4.5,1.3-8.6,2.8-12.6,4.4c-0.6,0.3-1.3,0.5-1.9,0.8c-3.4,1.5-6.6,3-9.7,4.6c-0.6,0.3-1.1,0.6-1.6,0.9c-3,1.6-5.9,3.2-8.8,4.9
				c-0.5,0.3-1,0.6-1.6,0.9c-2.2,1.3-4.3,2.6-6.4,3.8c-0.8,0.5-1.6,1-2.4,1.4c-0.5,0.3-1.1,0.6-1.6,1c-3.3,2-6.5,3.8-9.8,5.6
				c-0.6,0.3-1.2,0.7-1.8,1c-4,2.1-8.2,4.1-12.7,5.8c-0.8,0.3-1.7,0.6-2.5,0.9c-11.2,4-24.4,6.5-42.4,6.5c-17.9,0-31.1-2.5-42.3-6.5
				c-0.9-0.3-1.7-0.6-2.5-0.9c-4.5-1.7-8.7-3.7-12.7-5.8c-0.6-0.3-1.2-0.6-1.8-1c-3.3-1.8-6.5-3.7-9.8-5.6c-0.5-0.3-1.1-0.6-1.6-1
				c-0.8-0.5-1.6-1-2.4-1.4c-2.1-1.3-4.2-2.5-6.4-3.8c-0.5-0.3-1-0.6-1.6-0.9c-2.8-1.6-5.7-3.3-8.8-4.9c-0.5-0.3-1.1-0.6-1.6-0.9
				c-3.1-1.6-6.3-3.1-9.7-4.6c-0.6-0.3-1.3-0.5-1.9-0.8c-3.9-1.6-8.1-3.1-12.6-4.4c-0.9-0.3-1.7-0.5-2.6-0.7
				c-7.3-2-15.4-3.6-24.6-4.5c-0.3,0-0.6-0.1-0.9-0.1c-4.3-0.4-8.8-0.7-13.5-0.7c-1.3,0-2.6,0-3.9,0s-2.6,0-3.9,0
				c-4.7,0.1-9.2,0.3-13.5,0.7c-0.3,0-0.6,0.1-1,0.1c-9.1,0.9-17.2,2.5-24.6,4.5c-0.9,0.2-1.7,0.5-2.6,0.7
				c-4.5,1.3-8.6,2.8-12.6,4.4c-0.6,0.3-1.3,0.5-1.9,0.8c-3.4,1.5-6.6,3-9.7,4.6c-0.6,0.3-1.1,0.6-1.6,0.9c-3,1.6-5.9,3.2-8.8,4.9
				c-0.5,0.3-1,0.6-1.6,0.9c-2.2,1.3-4.3,2.6-6.4,3.8c-0.8,0.5-1.6,1-2.4,1.4c-0.5,0.3-1.1,0.6-1.6,1c-3.3,2-6.5,3.8-9.8,5.6
				c-0.6,0.3-1.2,0.7-1.8,1c-4,2.1-8.2,4.1-12.7,5.8c-0.8,0.3-1.7,0.6-2.5,0.9c-11.2,4-24.4,6.5-42.4,6.5c-17.9,0-31.1-2.5-42.3-6.5
				c-0.9-0.3-1.7-0.6-2.5-0.9c-4.5-1.7-8.7-3.7-12.7-5.8c-0.6-0.3-1.2-0.6-1.8-1c-3.3-1.8-6.5-3.7-9.8-5.6c-0.5-0.3-1.1-0.6-1.6-1
				c-0.8-0.5-1.6-1-2.4-1.4c-2.1-1.3-4.2-2.5-6.4-3.8c-0.5-0.3-1-0.6-1.6-0.9c-2.8-1.6-5.7-3.3-8.8-4.9c-0.5-0.3-1.1-0.6-1.6-0.9
				c-3.1-1.6-6.3-3.1-9.7-4.6c-0.6-0.3-1.3-0.5-1.9-0.8c-3.9-1.6-8.1-3.1-12.6-4.4c-0.9-0.3-1.7-0.5-2.6-0.7
				c-7.3-2-15.4-3.6-24.6-4.5c-0.3,0-0.6-0.1-0.9-0.1c-4.3-0.4-8.8-0.7-13.5-0.7c-1.3,0-2.6,0-3.9,0c-1.3,0-2.6,0-3.9,0
				c-4.7,0.1-9.2,0.3-13.5,0.7c-0.3,0-0.6,0.1-1,0.1c-9.1,0.9-17.2,2.5-24.6,4.5c-0.9,0.2-1.7,0.5-2.6,0.7
				c-4.5,1.3-8.6,2.8-12.6,4.4c-0.6,0.3-1.3,0.5-1.9,0.8c-3.4,1.5-6.6,3-9.7,4.6c-0.6,0.3-1.1,0.6-1.6,0.9c-3,1.6-5.9,3.2-8.8,4.9
				c-0.5,0.3-1,0.6-1.6,0.9c-2.2,1.3-4.3,2.6-6.4,3.8c-0.8,0.5-1.6,1-2.4,1.4c-0.5,0.3-1.1,0.6-1.6,1c-3.3,2-6.5,3.8-9.8,5.6
				c-0.6,0.3-1.2,0.7-1.8,1c-4,2.1-8.2,4.1-12.7,5.8c-0.8,0.3-1.7,0.6-2.5,0.9c-11.2,4-24.4,6.5-42.4,6.5s-31.2-2.5-42.3-6.5
				c-0.9-0.3-1.7-0.6-2.5-0.9c-4.5-1.7-8.7-3.7-12.7-5.8c-0.6-0.3-1.2-0.6-1.8-1c-3.3-1.8-6.5-3.7-9.8-5.6c-0.5-0.3-1.1-0.6-1.6-1
				c-0.8-0.5-1.6-1-2.4-1.4c-2.1-1.3-4.2-2.5-6.4-3.8c-0.5-0.3-1-0.6-1.6-0.9c-2.8-1.6-5.7-3.3-8.8-4.9c-0.5-0.3-1.1-0.6-1.6-0.9
				c-3.1-1.6-6.3-3.1-9.7-4.6c-0.6-0.3-1.3-0.5-1.9-0.8c-3.9-1.6-8.1-3.1-12.6-4.4c-0.9-0.3-1.7-0.5-2.6-0.7
				c-7.3-2-15.4-3.6-24.6-4.5c-0.3,0-0.6-0.1-0.9-0.1c-4.3-0.4-8.8-0.7-13.5-0.7c-1.3,0-2.6,0-3.9,0c-1.3,0-2.6,0-3.9,0
				c-4.7,0.1-9.2,0.3-13.5,0.7c-0.3,0-0.6,0.1-1,0.1c-9.1,0.9-17.2,2.5-24.6,4.5c-0.9,0.2-1.7,0.5-2.6,0.7
				c-4.5,1.3-8.6,2.8-12.6,4.4c-0.6,0.3-1.3,0.5-1.9,0.8c-3.4,1.5-6.6,3-9.7,4.6c-0.6,0.3-1.1,0.6-1.6,0.9c-3,1.6-5.9,3.2-8.8,4.9
				c-0.5,0.3-1,0.6-1.6,0.9c-2.2,1.3-4.3,2.6-6.4,3.8c-0.8,0.5-1.6,1-2.4,1.4c-0.5,0.3-1.1,0.6-1.6,1c-3.3,2-6.5,3.8-9.8,5.6
				c-0.6,0.3-1.2,0.7-1.8,1c-4,2.1-8.2,4.1-12.7,5.8c-0.8,0.3-1.7,0.6-2.5,0.9c-11.2,4-24.4,6.5-42.4,6.5s-31.2-2.5-42.3-6.5
				c-0.9-0.3-1.7-0.6-2.5-0.9c-4.5-1.7-8.7-3.7-12.7-5.8c-0.6-0.3-1.2-0.6-1.8-1c-3.3-1.8-6.5-3.7-9.8-5.6c-0.5-0.3-1.1-0.6-1.6-1
				c-0.8-0.5-1.6-1-2.4-1.4c-2.1-1.3-4.2-2.5-6.4-3.8c-0.5-0.3-1-0.6-1.6-0.9c-2.8-1.6-5.7-3.3-8.8-4.9c-0.5-0.3-1.1-0.6-1.6-0.9
				c-3.1-1.6-6.3-3.1-9.7-4.6c-0.6-0.3-1.3-0.5-1.9-0.8c-3.9-1.6-8.1-3.1-12.6-4.4c-0.9-0.3-1.7-0.5-2.6-0.7
				c-7.3-2-15.4-3.6-24.6-4.5c-0.3,0-0.6-0.1-0.9-0.1c-4.3-0.4-8.8-0.7-13.5-0.7c-1.3,0-2.6,0-3.9,0c0,0,0,0,0,0v1.6
				C-285.1,199.9-262.1,213.8-241.9,226L-241.9,226z"/>
			<path class="st3" d="M872.1,236.7c-19.8,11.9-36.9,22.3-73.2,22.3s-53.4-10.3-73.2-22.3c-20.5-12.4-43.7-26.4-88-26.4
				c-44.3,0-67.5,14-88,26.4c-19.8,11.9-36.9,22.3-73.2,22.3c-36.3,0-53.4-10.3-73.2-22.3c-20.5-12.4-43.7-26.4-88-26.4
				s-67.5,14-88,26.4c-19.8,11.9-36.9,22.3-73.2,22.3s-53.4-10.3-73.2-22.3c-20.5-12.4-43.7-26.4-88-26.4s-67.5,14-88,26.4
				c-19.8,11.9-36.9,22.3-73.2,22.3s-53.4-10.3-73.2-22.3c-20.5-12.4-43.7-26.4-88-26.4v1.6c43.8,0,66.8,13.9,87.1,26.2
				c20,12.1,37.2,22.5,74,22.5s54-10.4,74-22.5c20.3-12.3,43.3-26.2,87.1-26.2s66.8,13.9,87.1,26.2c20,12.1,37.2,22.5,74,22.5
				s54-10.4,74-22.5c20.3-12.3,43.3-26.2,87.1-26.2s66.8,13.9,87.1,26.2c20,12.1,37.2,22.5,74,22.5s54-10.4,74-22.5
				c20.3-12.3,43.3-26.2,87.1-26.2c43.8,0,66.8,13.9,87.1,26.2c20,12.1,37.2,22.5,74,22.5c36.7,0,54-10.4,74-22.5
				c20.3-12.3,43.3-26.2,87.1-26.2v-1.6C915.8,210.3,892.6,224.3,872.1,236.7z"/>
			<path class="st3" d="M872.1,248.6c-19.8,11.9-36.9,22.3-73.2,22.3s-53.4-10.3-73.2-22.3c-20.5-12.4-43.7-26.4-88-26.4
				c-44.3,0-67.5,14-88,26.4c-19.8,11.9-36.9,22.3-73.2,22.3s-53.4-10.3-73.2-22.3c-20.5-12.4-43.7-26.4-88-26.4s-67.5,14-88,26.4
				c-19.8,11.9-36.9,22.3-73.2,22.3s-53.4-10.3-73.2-22.3c-20.5-12.4-43.7-26.4-88-26.4s-67.5,14-88,26.4
				c-19.8,11.9-36.9,22.3-73.2,22.3s-53.4-10.3-73.2-22.3c-20.5-12.4-43.7-26.4-88-26.4v1.6c43.8,0,66.8,13.9,87.1,26.2
				c20,12.1,37.2,22.5,74,22.5c36.7,0,54-10.4,74-22.5c20.3-12.3,43.3-26.2,87.1-26.2s66.8,13.9,87.1,26.2
				c20,12.1,37.2,22.5,74,22.5s54-10.4,74-22.5c20.3-12.3,43.3-26.2,87.1-26.2s66.8,13.9,87.1,26.2c20,12.1,37.2,22.5,74,22.5
				c36.7,0,54-10.4,74-22.5c20.3-12.3,43.3-26.2,87.1-26.2s66.8,13.9,87.1,26.2c20,12.1,37.2,22.5,74,22.5c36.7,0,54-10.4,74-22.5
				c20.3-12.3,43.3-26.2,87.1-26.2v-1.6C915.8,222.2,892.6,236.3,872.1,248.6L872.1,248.6z"/>
			<path class="st3" d="M872.1,260.6c-19.8,11.9-36.9,22.3-73.2,22.3s-53.4-10.3-73.2-22.3c-20.5-12.4-43.7-26.4-88-26.4
				c-44.3,0-67.5,14-88,26.4c-19.8,11.9-36.9,22.3-73.2,22.3c-36.3,0-53.4-10.3-73.2-22.3c-20.5-12.4-43.7-26.4-88-26.4
				s-67.5,14-88,26.4c-19.8,11.9-36.9,22.3-73.2,22.3s-53.4-10.3-73.2-22.3c-20.5-12.4-43.7-26.4-88-26.4s-67.5,14-88,26.4
				c-19.8,11.9-36.9,22.3-73.2,22.3s-53.4-10.3-73.2-22.3c-20.5-12.4-43.7-26.4-88-26.4v1.6c43.8,0,66.8,13.9,87.1,26.2
				c20,12.1,37.2,22.5,74,22.5s54-10.4,74-22.5c20.3-12.3,43.3-26.2,87.1-26.2c43.8,0,66.8,13.9,87.1,26.2
				c20,12.1,37.2,22.5,74,22.5c36.7,0,54-10.4,74-22.5c20.3-12.3,43.3-26.2,87.1-26.2s66.8,13.9,87.1,26.2
				c20,12.1,37.2,22.5,74,22.5s54-10.4,74-22.5c20.3-12.3,43.3-26.2,87.1-26.2s66.8,13.9,87.1,26.2c20,12.1,37.2,22.5,74,22.5
				c36.7,0,54-10.4,74-22.5c20.3-12.3,43.3-26.2,87.1-26.2v-1.6C915.8,234.2,892.6,248.3,872.1,260.6L872.1,260.6z"/>
			<path class="st3" d="M872.1,272.6c-19.8,11.9-36.9,22.3-73.2,22.3s-53.4-10.3-73.2-22.3c-20.5-12.4-43.7-26.4-88-26.4
				c-44.3,0-67.5,14-88,26.4c-19.8,11.9-36.9,22.3-73.2,22.3s-53.4-10.3-73.2-22.3c-20.5-12.4-43.7-26.4-88-26.4s-67.5,14-88,26.4
				c-19.8,11.9-36.9,22.3-73.2,22.3s-53.4-10.3-73.2-22.3c-20.5-12.4-43.7-26.4-88-26.4s-67.5,14-88,26.4
				c-19.8,11.9-36.9,22.3-73.2,22.3s-53.4-10.3-73.2-22.3c-20.5-12.4-43.7-26.4-88-26.4v1.6c43.8,0,66.8,13.9,87.1,26.2
				c15.8,9.5,29.9,18.1,53.2,21.2h41.5c23.4-3.1,37.5-11.7,53.3-21.2c20.3-12.3,43.3-26.2,87.1-26.2s66.8,13.9,87.1,26.2
				c15.8,9.5,29.9,18.1,53.3,21.2h41.5c23.4-3.1,37.5-11.7,53.3-21.2c20.3-12.3,43.3-26.2,87.1-26.2s66.8,13.9,87.1,26.2
				c15.8,9.5,29.9,18.1,53.3,21.2h41.5c23.4-3.1,37.5-11.7,53.3-21.2c20.3-12.3,43.3-26.2,87.1-26.2s66.8,13.9,87.1,26.2
				c15.8,9.5,29.9,18.1,53.3,21.2h41.5c23.4-3.1,37.5-11.7,53.3-21.2c20.3-12.3,43.3-26.2,87.1-26.2v-1.6
				C915.8,246.2,892.6,260.2,872.1,272.6L872.1,272.6z"/>
			<path class="st3" d="M403.5,284.6c-20.5-12.4-43.7-26.4-88-26.4s-67.5,14-88,26.4c-6.3,3.8-12.3,7.4-18.7,10.6h3.5
				c5.4-2.8,10.6-6,16-9.2c20.3-12.3,43.3-26.2,87.1-26.2s66.8,13.9,87.1,26.2c5.4,3.3,10.6,6.4,16,9.2h3.5
				C415.7,292,409.8,288.4,403.5,284.6L403.5,284.6z"/>
			<path class="st3" d="M81.2,284.6c-20.5-12.4-43.7-26.4-88-26.4s-67.5,14-88,26.4c-6.3,3.8-12.3,7.4-18.7,10.6h3.5
				c5.4-2.8,10.6-6,16-9.2c20.3-12.3,43.3-26.2,87.1-26.2s66.8,13.9,87.1,26.2c5.4,3.3,10.6,6.4,16,9.2h3.5
				C93.5,292,87.5,288.4,81.2,284.6z"/>
			<path class="st3" d="M725.8,284.6c-20.5-12.4-43.7-26.4-88-26.4c-44.3,0-67.5,14-88,26.4c-6.3,3.8-12.3,7.4-18.7,10.6h3.5
				c5.4-2.8,10.6-6,16-9.2c20.3-12.3,43.3-26.2,87.1-26.2s66.8,13.9,87.1,26.2c5.4,3.3,10.6,6.4,16,9.2h3.5
				C738,292,732,288.4,725.8,284.6L725.8,284.6z"/>
			<path class="st3" d="M872.1,284.6c-6.3,3.8-12.3,7.4-18.7,10.6h3.5c5.4-2.8,10.6-6,16-9.2c20.3-12.3,43.3-26.2,87.1-26.2v-1.6
				C915.8,258.2,892.6,272.2,872.1,284.6L872.1,284.6z"/>
			<path class="st3" d="M315.5,270.2c-42.6,0-65.7,13-85.6,25h3.1c19.3-11.5,42-23.4,82.6-23.4c40.6,0,63.3,11.9,82.6,23.4h3.1
				C381.2,283.2,358.1,270.2,315.5,270.2L315.5,270.2z"/>
			<path class="st3" d="M-6.7,270.2c-42.6,0-65.7,13-85.6,25h3.1c19.3-11.5,42-23.4,82.6-23.4s63.3,11.9,82.6,23.4h3.1
				C59,283.2,35.9,270.2-6.7,270.2L-6.7,270.2z"/>
			<path class="st3" d="M637.8,270.2c-42.6,0-65.7,13-85.6,25h3.1c19.3-11.5,42-23.4,82.6-23.4s63.3,11.9,82.6,23.4h3.1
				C703.5,283.2,680.4,270.2,637.8,270.2L637.8,270.2z"/>
			<path class="st3" d="M874.4,295.2h3.1c19.3-11.5,42-23.4,82.6-23.4v-1.6C917.5,270.2,894.4,283.2,874.4,295.2z"/>
			<path class="st3" d="M-6.7,282.2c-28.2,0-47.8,5.7-63.7,13h3.9c15.1-6.5,33.8-11.4,59.8-11.4c26,0,44.7,4.9,59.8,11.4h3.9
				C41.1,287.8,21.5,282.2-6.7,282.2L-6.7,282.2z"/>
			<path class="st3" d="M315.5,282.2c-28.2,0-47.8,5.7-63.7,13h3.9c15.1-6.5,33.8-11.4,59.8-11.4c26,0,44.7,4.9,59.8,11.4h3.9
				C363.4,287.8,343.7,282.2,315.5,282.2L315.5,282.2z"/>
			<path class="st3" d="M637.8,282.2c-28.2,0-47.8,5.7-63.7,13h3.9c15.1-6.5,33.8-11.4,59.8-11.4c26,0,44.7,4.9,59.8,11.4h3.9
				C685.6,287.8,666,282.2,637.8,282.2L637.8,282.2z"/>
			<path class="st3" d="M896.4,295.2h3.9c15.1-6.5,33.8-11.4,59.8-11.4v-1.6C931.9,282.2,912.2,287.8,896.4,295.2L896.4,295.2z"/>
			<path class="st2" d="M959.9,101.1v98l380.3,9.8l346.8,2.4l562-12v-97.3c0,0-45.2-0.9-80,20.8c-34.8,21.8-47.6,27.9-81.1,28.6
				c-33.5,0.7-65.5-17.2-79.6-26.3c-14-9.1-44.6-25.1-82.7-23.2c-38,1.9-54.6,8.1-77.8,21.3c-23.3,13.2-37,28.3-82.2,26.6
				c-45.2-1.8-36.8-2.4-76.9-22.7c-40.2-20.3-49.8-25.9-89.9-24.3c-40.1,1.6-58.2,12.2-75.2,21.8s-42.2,27.6-80.2,26.8
				c-37.9-0.9-63.8-16.2-69.5-21.1c-5.7-4.8-49.5-31.1-87.8-28.1c-38.3,3-49.1-1.9-94.4,27.7c-45.3,29.7-104.3,23.6-131.5,5.8
				C1002.8,98.2,959.9,101.1,959.9,101.1z"/>
			<path class="st3" d="M1839.6,128.8c20.3-12.3,43.3-26.2,87.1-26.2c43.8,0,66.8,13.9,87.1,26.2c16.4,9.9,31,18.7,55.9,21.5
				c3.7-0.4,7.5-0.6,11.6-0.7c-31.9-1.2-48.1-10.9-66.7-22.2c-20.5-12.4-43.7-26.4-88-26.4s-67.5,14-88,26.4
				c-18.6,11.2-34.7,21-66.6,22.2c4,0.1,7.9,0.4,11.6,0.7C1808.6,147.5,1823.2,138.7,1839.6,128.8L1839.6,128.8z"/>
			<path class="st3" d="M1047.9,127.4c-20.5-12.4-43.7-26.4-88-26.4v1.6c43.8,0,66.8,13.9,87.1,26.2c16.4,9.9,30.9,18.7,55.9,21.5
				c3.7-0.4,7.5-0.6,11.5-0.7c-19.5-0.7-33.2-4.7-45.1-10.2C1061.9,135.9,1055.1,131.8,1047.9,127.4L1047.9,127.4z"/>
			<path class="st3" d="M1517.3,128.8c20.3-12.3,43.3-26.2,87.1-26.2c43.8,0,66.8,13.9,87.1,26.2c16.4,9.9,31,18.7,55.9,21.5
				c3.7-0.4,7.5-0.6,11.6-0.7c-31.9-1.2-48.1-10.9-66.7-22.2c-20.5-12.4-43.7-26.4-88-26.4c-44.3,0-67.5,14-88,26.4
				c-18.6,11.2-34.7,21-66.6,22.2c4,0.1,7.9,0.4,11.5,0.7C1486.3,147.5,1500.9,138.7,1517.3,128.8L1517.3,128.8z"/>
			<path class="st3" d="M1195,128.8c20.3-12.3,43.3-26.2,87.2-26.2c43.8,0,66.8,13.9,87.1,26.2c16.4,9.9,31,18.7,55.9,21.5
				c3.7-0.4,7.5-0.6,11.5-0.7c-31.9-1.2-48.1-10.9-66.7-22.2c-20.5-12.4-43.7-26.4-88-26.4c-44.3,0-67.5,14-88,26.4
				c-18.6,11.2-34.7,21-66.6,22.2c4,0.1,7.9,0.4,11.5,0.7C1164.1,147.5,1178.7,138.7,1195,128.8L1195,128.8z"/>
			<path class="st3" d="M1604.4,113c-44.3,0-67.5,14-88,26.4c-9.8,5.9-18.9,11.4-30,15.5c0.9,0.2,1.7,0.5,2.6,0.7
				c10.3-4,19-9.3,28.3-14.9c20.3-12.3,43.3-26.2,87.1-26.2c43.8,0,66.8,13.9,87.1,26.2c9.3,5.6,18,10.9,28.3,14.9
				c0.8-0.3,1.7-0.5,2.6-0.7c-11.1-4.1-20.3-9.6-30-15.5C1671.9,127,1648.7,113,1604.4,113L1604.4,113z"/>
			<path class="st3" d="M1282.2,113c-44.3,0-67.5,14-88,26.4c-9.8,5.9-18.9,11.4-30,15.5c0.9,0.2,1.7,0.5,2.6,0.7
				c10.3-4,19-9.3,28.3-14.9c20.3-12.3,43.3-26.2,87.1-26.2c43.8,0,66.8,13.9,87.1,26.2c9.3,5.6,18,10.9,28.3,14.9
				c0.8-0.3,1.7-0.5,2.6-0.7c-11.1-4.1-20.2-9.6-30-15.5C1349.7,127,1326.4,113,1282.2,113L1282.2,113z"/>
			<path class="st3" d="M1047.9,139.4c-20.5-12.4-43.7-26.4-88-26.4v1.6c43.8,0,66.8,13.9,87.1,26.2c9.3,5.6,18,10.9,28.3,14.9
				c0.8-0.3,1.7-0.5,2.6-0.7C1066.8,150.8,1057.7,145.3,1047.9,139.4L1047.9,139.4z"/>
			<path class="st3" d="M1926.7,113c-44.3,0-67.5,14-88,26.4c-9.8,5.9-18.9,11.4-30,15.5c0.9,0.2,1.7,0.5,2.6,0.7
				c10.3-4,19-9.3,28.3-14.9c20.3-12.3,43.3-26.2,87.1-26.2c43.8,0,66.8,13.9,87.1,26.2c9.3,5.6,18,10.9,28.3,14.9
				c0.8-0.3,1.7-0.5,2.6-0.7c-11.1-4.1-20.3-9.6-30-15.5C1994.2,127,1971,113,1926.7,113L1926.7,113z"/>
			<path class="st3" d="M1282.2,125c-44.3,0-67.5,14-88,26.4c-5,3-9.9,6-15,8.7c0.6,0.3,1.3,0.5,1.9,0.8c4.7-2.5,9.2-5.3,13.9-8.1
				c20.3-12.3,43.3-26.2,87.2-26.2c43.8,0,66.8,13.9,87.1,26.2c4.7,2.8,9.2,5.6,13.9,8.1c0.6-0.3,1.2-0.5,1.9-0.8
				c-5.1-2.7-9.9-5.6-15-8.7C1349.7,139,1326.4,125,1282.2,125z"/>
			<path class="st3" d="M1604.4,125c-44.3,0-67.5,14-88,26.4c-5,3-9.9,6-15,8.7c0.6,0.3,1.3,0.5,1.9,0.8c4.7-2.5,9.2-5.3,13.9-8.1
				c20.3-12.3,43.3-26.2,87.1-26.2c43.8,0,66.8,13.9,87.2,26.2c4.7,2.8,9.2,5.6,13.9,8.1c0.6-0.3,1.2-0.5,1.9-0.8
				c-5.1-2.7-9.9-5.6-15-8.7C1671.9,139,1648.7,125,1604.4,125z"/>
			<path class="st3" d="M1047.9,151.4c-20.5-12.4-43.7-26.4-88-26.4v1.6c43.8,0,66.8,13.9,87.1,26.2c4.7,2.8,9.2,5.6,13.9,8.1
				c0.6-0.3,1.2-0.5,1.9-0.8C1057.8,157.4,1052.9,154.5,1047.9,151.4L1047.9,151.4z"/>
			<path class="st3" d="M1926.7,125c-44.3,0-67.5,14-88,26.4c-5,3-9.9,6-14.9,8.7c0.6,0.3,1.3,0.5,1.9,0.8c4.7-2.5,9.2-5.3,13.9-8.1
				c20.3-12.3,43.3-26.2,87.1-26.2c43.8,0,66.8,13.9,87.1,26.2c4.7,2.8,9.2,5.6,13.9,8.1c0.6-0.3,1.2-0.5,1.9-0.8
				c-5.1-2.7-9.9-5.6-15-8.7C1994.2,139,1971,125,1926.7,125z"/>
			<path class="st3" d="M1282.2,137c-44.3,0-67.5,14-88,26.4c-1.1,0.7-2.3,1.4-3.4,2c0.6,0.3,1.1,0.6,1.6,0.9c0.9-0.5,1.7-1,2.6-1.6
				c20.3-12.3,43.3-26.2,87.2-26.2c43.8,0,66.8,13.9,87.1,26.2c0.9,0.5,1.7,1,2.6,1.6c0.5-0.3,1.1-0.6,1.6-0.9
				c-1.1-0.7-2.3-1.4-3.4-2.1C1349.7,151,1326.4,137,1282.2,137L1282.2,137z"/>
			<path class="st3" d="M1926.7,137c-44.3,0-67.5,14-88,26.4c-1.1,0.7-2.3,1.4-3.4,2c0.6,0.3,1.1,0.6,1.6,0.9c0.9-0.5,1.7-1,2.6-1.6
				c20.3-12.3,43.3-26.2,87.1-26.2c43.8,0,66.8,13.9,87.1,26.2c0.9,0.5,1.7,1,2.6,1.6c0.6-0.3,1.1-0.6,1.7-0.9
				c-1.1-0.7-2.3-1.4-3.4-2.1C1994.2,151,1971,137,1926.7,137z"/>
			<path class="st3" d="M1604.4,137c-44.3,0-67.5,14-88,26.4c-1.1,0.7-2.3,1.4-3.4,2c0.6,0.3,1.1,0.6,1.7,0.9c0.9-0.5,1.7-1,2.6-1.6
				c20.3-12.3,43.3-26.2,87.1-26.2c43.8,0,66.8,13.9,87.2,26.2c0.9,0.5,1.7,1,2.6,1.6c0.5-0.3,1.1-0.6,1.6-0.9
				c-1.1-0.7-2.3-1.4-3.4-2.1C1671.9,151,1648.7,137,1604.4,137L1604.4,137z"/>
			<path class="st3" d="M1047.9,163.4c-20.5-12.4-43.7-26.4-88-26.4v1.6c43.8,0,66.8,13.9,87.1,26.2c0.9,0.5,1.7,1,2.6,1.6
				c0.5-0.3,1.1-0.6,1.7-0.9C1050.2,164.8,1049,164.1,1047.9,163.4L1047.9,163.4z"/>
			<path class="st3" d="M1201.2,171.2c0.5,0.3,1.1,0.6,1.6,0.9c18.6-10.9,41-21.5,79.4-21.5c38.4,0,60.8,10.7,79.4,21.5
				c0.5-0.3,1-0.6,1.6-0.9c-18.9-11.1-41.7-22.2-81-22.2C1242.8,149,1220.2,160,1201.2,171.2L1201.2,171.2z"/>
			<path class="st3" d="M1845.8,171.2c0.5,0.3,1,0.6,1.6,0.9c18.6-10.9,41-21.5,79.4-21.5s60.8,10.7,79.4,21.5
				c0.5-0.3,1.1-0.6,1.6-0.9c-18.9-11.1-41.6-22.2-81-22.2C1887.4,149,1864.7,160,1845.8,171.2z"/>
			<path class="st3" d="M959.9,149v1.6c38.4,0,60.8,10.7,79.4,21.5c0.5-0.3,1-0.6,1.6-0.9C1022,160,999.2,149,959.9,149z"/>
			<path class="st3" d="M1523.5,171.2c0.5,0.3,1,0.6,1.6,0.9c18.6-10.9,41-21.5,79.4-21.5c38.4,0,60.8,10.7,79.4,21.5
				c0.5-0.3,1.1-0.6,1.6-0.9c-18.9-11.1-41.7-22.2-81-22.2C1565.1,149,1542.4,160,1523.5,171.2L1523.5,171.2z"/>
			<path class="st3" d="M1856.1,177.4c0.5,0.3,1.1,0.6,1.6,1c16.7-8.6,37.5-15.8,69-15.8c31.5,0,52.3,7.2,69,15.8
				c0.5-0.3,1.1-0.6,1.6-1c-17-8.9-38.2-16.4-70.6-16.4C1894.3,161,1873.1,168.5,1856.1,177.4L1856.1,177.4z"/>
			<path class="st3" d="M1211.6,177.4c0.5,0.3,1.1,0.6,1.6,1c16.7-8.6,37.5-15.8,69-15.8c31.5,0,52.3,7.2,69,15.8
				c0.5-0.3,1.1-0.6,1.6-1c-17-8.9-38.2-16.4-70.6-16.4C1249.7,161,1228.6,168.5,1211.6,177.4L1211.6,177.4z"/>
			<path class="st3" d="M1533.8,177.4c0.5,0.3,1.1,0.6,1.6,1c16.7-8.6,37.5-15.8,69-15.8c31.5,0,52.3,7.2,69,15.8
				c0.5-0.3,1.1-0.6,1.6-1c-17-8.9-38.2-16.4-70.6-16.4C1572,161,1550.9,168.5,1533.8,177.4L1533.8,177.4z"/>
			<path class="st3" d="M959.9,161v1.6c31.5,0,52.3,7.2,69,15.8c0.5-0.3,1.1-0.6,1.6-1C1013.5,168.5,992.4,161,959.9,161L959.9,161z
				"/>
			<path class="st3" d="M959.9,172.9v1.6c24.6,0,42.7,4.4,57.4,10.4c0.6-0.3,1.2-0.6,1.8-1C1004.1,177.6,985.5,172.9,959.9,172.9
				L959.9,172.9z"/>
			<path class="st3" d="M1867.5,184c0.6,0.3,1.2,0.7,1.8,1c14.7-6,32.8-10.4,57.4-10.4c24.6,0,42.7,4.4,57.4,10.4
				c0.6-0.3,1.2-0.6,1.8-1c-15.1-6.3-33.6-11-59.2-11C1901.1,172.9,1882.6,177.6,1867.5,184L1867.5,184z"/>
			<path class="st3" d="M1223,184c0.6,0.3,1.2,0.7,1.8,1c14.7-6,32.8-10.4,57.4-10.4c24.6,0,42.7,4.4,57.4,10.4
				c0.6-0.3,1.2-0.6,1.8-1c-15.1-6.4-33.6-11-59.2-11C1256.6,172.9,1238,177.6,1223,184z"/>
			<path class="st3" d="M1545.2,184c0.6,0.3,1.2,0.7,1.8,1c14.7-6,32.8-10.4,57.4-10.4c24.6,0,42.7,4.4,57.4,10.4
				c0.6-0.3,1.2-0.6,1.8-1c-15.1-6.4-33.6-11-59.2-11C1578.8,172.9,1560.3,177.6,1545.2,184L1545.2,184z"/>
			<path class="st3" d="M1237.5,190.8c0.8,0.3,1.7,0.6,2.5,0.9c11.7-3.2,25.4-5.2,42.1-5.2c16.7,0,30.4,2,42.1,5.2
				c0.9-0.3,1.7-0.6,2.5-0.9c-12.2-3.6-26.7-5.9-44.6-5.9C1264.2,184.9,1249.8,187.2,1237.5,190.8z"/>
			<path class="st3" d="M959.9,184.9v1.6c16.7,0,30.4,2,42.1,5.2c0.9-0.3,1.7-0.6,2.5-0.9C992.3,187.2,977.8,184.9,959.9,184.9z"/>
			<path class="st3" d="M1559.8,190.8c0.8,0.3,1.7,0.6,2.5,0.9c11.7-3.2,25.4-5.2,42.1-5.2c16.7,0,30.4,2,42.1,5.2
				c0.9-0.3,1.7-0.6,2.5-0.9c-12.2-3.6-26.7-5.9-44.7-5.9C1586.5,184.9,1572.1,187.2,1559.8,190.8L1559.8,190.8z"/>
			<path class="st3" d="M1882.1,190.8c0.8,0.3,1.7,0.6,2.6,0.9c11.7-3.2,25.4-5.2,42.1-5.2c16.7,0,30.4,2,42.1,5.2
				c0.9-0.3,1.7-0.6,2.6-0.9c-12.2-3.6-26.7-5.9-44.7-5.9C1908.8,184.9,1894.3,187.2,1882.1,190.8L1882.1,190.8z"/>
			<path class="st2" d="M1239.3,203.6c7.3-2,15.4-3.6,24.6-4.5h-35.1C1232.1,200.8,1235.6,202.3,1239.3,203.6z"/>
			<path class="st2" d="M1852.1,199.2c0.5,0.3,1,0.6,1.5,0.9c5.1,3.1,10,6,15.1,8.8c3.9-1.6,8.1-3.1,12.6-4.4
				c-4.1-1.6-7.9-3.3-11.6-5.2L1852.1,199.2L1852.1,199.2z"/>
			<path class="st2" d="M1182,199.2h-37c25.4,3.4,42.4,12.1,57.2,20.8c2.8-1.6,5.7-3.3,8.8-4.9c-0.9-0.5-1.8-1.1-2.7-1.6
				C1200.2,208.6,1191.9,203.5,1182,199.2L1182,199.2z"/>
			<path class="st2" d="M1561.6,203.6c7.3-2,15.4-3.6,24.6-4.5H1551C1554.3,200.8,1557.8,202.3,1561.6,203.6L1561.6,203.6z"/>
			<path class="st2" d="M978.2,199.2c9.1,0.9,17.3,2.5,24.6,4.5c3.7-1.3,7.2-2.9,10.6-4.5H978.2z"/>
			<path class="st2" d="M1826.5,199.2h-37c25.4,3.4,42.4,12.1,57.2,20.8c2.8-1.6,5.7-3.3,8.8-4.9c-0.9-0.5-1.8-1.1-2.7-1.6
				C1844.8,208.6,1836.4,203.5,1826.5,199.2L1826.5,199.2z"/>
			<path class="st2" d="M1529.8,199.2c0.5,0.3,1,0.6,1.5,0.9c5.1,3.1,10,6,15.1,8.8c3.9-1.6,8.1-3.1,12.6-4.4
				c-4.1-1.6-7.9-3.3-11.6-5.2L1529.8,199.2L1529.8,199.2z"/>
			<path class="st2" d="M1883.8,203.6c7.3-2,15.4-3.6,24.6-4.5h-35.1C1876.6,200.8,1880.1,202.3,1883.8,203.6L1883.8,203.6z"/>
			<path class="st2" d="M1056.3,199.2h-18.6c-1.3,0.8-2.5,1.5-3.8,2.3c-4.8,2.9-9.3,5.6-14.1,8.2c3.4,1.5,6.6,3,9.7,4.6
				c1.2-0.7,2.4-1.4,3.6-2.2C1040.2,207.7,1047.7,203.2,1056.3,199.2L1056.3,199.2z"/>
			<path class="st2" d="M1504.2,199.2h-37c25.4,3.4,42.4,12.1,57.2,20.8c2.8-1.6,5.7-3.3,8.8-4.9c-0.9-0.5-1.8-1.1-2.7-1.6
				C1522.5,208.6,1514.1,203.5,1504.2,199.2L1504.2,199.2z"/>
			<path class="st2" d="M1207.5,199.2c0.5,0.3,1,0.6,1.5,0.9c5.1,3.1,10,6,15.1,8.8c3.9-1.6,8.1-3.1,12.6-4.4
				c-4.1-1.6-7.9-3.3-11.6-5.2L1207.5,199.2L1207.5,199.2z"/>
			<path class="st2" d="M1700.8,199.2h-18.6c-1.3,0.8-2.5,1.5-3.8,2.3c-4.8,2.9-9.3,5.6-14.1,8.2c3.4,1.5,6.6,3,9.7,4.6
				c1.2-0.7,2.4-1.4,3.6-2.2C1684.8,207.7,1692.2,203.2,1700.8,199.2L1700.8,199.2z"/>
			<path class="st2" d="M1622.8,199.2c9.2,0.9,17.3,2.5,24.6,4.5c3.7-1.3,7.2-2.9,10.6-4.5H1622.8L1622.8,199.2z"/>
			<path class="st2" d="M1300.5,199.2c9.2,0.9,17.3,2.5,24.6,4.5c3.7-1.3,7.2-2.9,10.6-4.5H1300.5z"/>
			<path class="st2" d="M1378.6,199.2h-18.6c-1.3,0.8-2.5,1.5-3.8,2.3c-4.7,2.9-9.3,5.6-14.1,8.2c3.4,1.5,6.6,3,9.7,4.6
				c1.2-0.7,2.4-1.4,3.6-2.1C1362.5,207.7,1370,203.2,1378.6,199.2L1378.6,199.2z"/>
			<path class="st2" d="M1033.1,200.1c0.5-0.3,1-0.6,1.5-0.9H1017c-3.7,1.9-7.5,3.7-11.6,5.2c4.5,1.3,8.6,2.8,12.6,4.4
				C1023.1,206.1,1028,203.1,1033.1,200.1L1033.1,200.1z"/>
			<path class="st2" d="M1741.7,199.2h-37c-9.9,4.4-18.3,9.4-26.2,14.2c-0.9,0.6-1.8,1.1-2.7,1.7c3,1.6,5.9,3.2,8.8,4.9
				C1699.2,211.2,1716.3,202.6,1741.7,199.2L1741.7,199.2z"/>
			<path class="st2" d="M1765.6,235.2c-16.8,0-30.6,2.1-42.3,5.3c11.2,4,24.4,6.5,42.3,6.5c17.9,0,31.2-2.5,42.4-6.5
				C1796.2,237.2,1782.4,235.2,1765.6,235.2z"/>
			<path class="st2" d="M1765.6,223.2c-24.8,0-42.9,4.4-57.6,10.5c4,2.1,8.2,4.1,12.7,5.8c12.3-3.6,26.8-5.9,44.9-5.9
				c18.1,0,32.6,2.3,44.9,5.9c4.5-1.7,8.7-3.7,12.7-5.8C1808.4,227.6,1790.3,223.2,1765.6,223.2z"/>
			<path class="st2" d="M1443.3,235.2c-16.9,0-30.6,2.1-42.4,5.3c11.2,4,24.4,6.5,42.3,6.5c17.9,0,31.2-2.5,42.3-6.5
				C1473.9,237.2,1460.2,235.2,1443.3,235.2z"/>
			<path class="st2" d="M1419.4,199.2h-37c-9.9,4.4-18.3,9.4-26.2,14.2c-0.9,0.6-1.8,1.1-2.7,1.7c3,1.6,5.9,3.2,8.8,4.9
				C1376.9,211.2,1394,202.6,1419.4,199.2L1419.4,199.2z"/>
			<path class="st2" d="M1443.3,211.2c-31.6,0-52.4,7.2-69.2,15.9c3.3,1.9,6.5,3.8,9.8,5.6c15.1-6.4,33.7-11.1,59.4-11.1
				c25.7,0,44.3,4.7,59.4,11.1c3.3-1.8,6.5-3.7,9.8-5.6C1495.7,218.4,1474.9,211.2,1443.3,211.2L1443.3,211.2z"/>
			<path class="st2" d="M1443.3,199.2c-38.5,0-60.9,10.7-79.6,21.6c2.2,1.3,4.3,2.6,6.4,3.8c0.8,0.5,1.6,1,2.4,1.4
				c17.1-8.9,38.2-16.5,70.8-16.5c32.6,0,53.7,7.6,70.8,16.5c0.8-0.5,1.6-1,2.4-1.4c2.1-1.3,4.2-2.6,6.4-3.8
				C1504.2,209.9,1481.8,199.2,1443.3,199.2L1443.3,199.2z"/>
			<path class="st2" d="M1765.6,211.2c-31.6,0-52.4,7.2-69.2,15.9c3.3,2,6.5,3.8,9.8,5.6c15.1-6.4,33.7-11.1,59.4-11.1
				c25.7,0,44.3,4.7,59.4,11.1c3.3-1.8,6.5-3.7,9.8-5.6C1818,218.4,1797.2,211.2,1765.6,211.2L1765.6,211.2z"/>
			<path class="st2" d="M1765.6,199.2c-38.5,0-60.9,10.7-79.6,21.6c2.2,1.3,4.3,2.6,6.4,3.8c0.8,0.5,1.6,1,2.4,1.4
				c17.1-8.9,38.2-16.5,70.8-16.5c32.6,0,53.7,7.6,70.8,16.5c0.8-0.5,1.6-1,2.4-1.4c2.1-1.3,4.2-2.6,6.4-3.8
				C1826.5,209.9,1804.1,199.2,1765.6,199.2L1765.6,199.2z"/>
			<path class="st2" d="M1355.4,200.1c0.5-0.3,1-0.6,1.5-0.9h-17.6c-3.7,1.9-7.5,3.7-11.6,5.2c4.5,1.3,8.6,2.8,12.6,4.4
				C1345.3,206.1,1350.3,203.1,1355.4,200.1L1355.4,200.1z"/>
			<path class="st2" d="M1852.7,201.4c-1.2-0.7-2.5-1.5-3.8-2.3h-18.6c8.6,4.1,16.1,8.6,23.2,12.9c1.2,0.7,2.4,1.4,3.5,2.1
				c3.1-1.6,6.3-3.1,9.7-4.6C1862.1,207.1,1857.5,204.3,1852.7,201.4L1852.7,201.4z"/>
			<path class="st2" d="M1530.5,201.4c-1.2-0.7-2.5-1.5-3.8-2.3h-18.6c8.6,4.1,16.1,8.6,23.2,12.9c1.2,0.7,2.4,1.4,3.5,2.1
				c3.1-1.6,6.3-3.1,9.7-4.6C1539.8,207.1,1535.2,204.3,1530.5,201.4L1530.5,201.4z"/>
			<path class="st2" d="M1443.3,223.2c-24.8,0-42.9,4.4-57.6,10.5c4,2.1,8.2,4.1,12.7,5.8c12.3-3.6,26.8-5.9,44.9-5.9
				c18.1,0,32.6,2.3,44.9,5.9c4.5-1.7,8.7-3.7,12.7-5.8C1486.2,227.6,1468.1,223.2,1443.3,223.2L1443.3,223.2z"/>
			<path class="st2" d="M1121.1,223.2c-24.8,0-42.9,4.4-57.6,10.5c4.1,2.1,8.2,4.1,12.7,5.8c12.3-3.6,26.8-5.9,44.9-5.9
				c18,0,32.6,2.3,44.9,5.9c4.5-1.7,8.7-3.7,12.7-5.8C1163.9,227.6,1145.8,223.2,1121.1,223.2L1121.1,223.2z"/>
			<path class="st2" d="M1208.2,201.4c-1.2-0.7-2.5-1.5-3.8-2.3h-18.6c8.6,4.1,16.1,8.6,23.2,12.9c1.2,0.7,2.4,1.4,3.5,2.1
				c3.1-1.6,6.3-3.1,9.7-4.6C1217.5,207.1,1212.9,204.3,1208.2,201.4z"/>
			<path class="st2" d="M1121.1,199.2c-38.5,0-60.9,10.7-79.6,21.6c2.2,1.3,4.3,2.6,6.4,3.8c0.8,0.5,1.6,1,2.4,1.4
				c17.1-8.9,38.2-16.5,70.8-16.5c32.5,0,53.7,7.6,70.8,16.5c0.8-0.5,1.6-1,2.4-1.4c2.1-1.3,4.2-2.6,6.4-3.8
				C1182,209.9,1159.5,199.2,1121.1,199.2z"/>
			<path class="st2" d="M1121.1,211.2c-31.6,0-52.4,7.2-69.2,15.9c3.2,2,6.5,3.8,9.8,5.6c15.1-6.4,33.7-11.1,59.4-11.1
				c25.7,0,44.3,4.7,59.4,11.1c3.3-1.8,6.5-3.7,9.8-5.6C1173.5,218.4,1152.7,211.2,1121.1,211.2z"/>
			<path class="st2" d="M1121.1,235.2c-16.9,0-30.6,2.1-42.4,5.3c11.2,4,24.4,6.5,42.3,6.5c17.9,0,31.2-2.5,42.4-6.5
				C1151.7,237.2,1137.9,235.2,1121.1,235.2z"/>
			<path class="st2" d="M1677.6,200.1c0.5-0.3,1-0.6,1.5-0.9h-17.6c-3.7,1.9-7.5,3.7-11.6,5.2c4.5,1.3,8.6,2.8,12.6,4.4
				C1667.6,206.1,1672.5,203.1,1677.6,200.1L1677.6,200.1z"/>
			<path class="st2" d="M1097.1,199.2h-37c-9.9,4.4-18.3,9.4-26.2,14.2c-0.9,0.6-1.8,1.1-2.7,1.7c3,1.6,5.9,3.2,8.8,4.9
				C1054.7,211.2,1071.7,202.6,1097.1,199.2L1097.1,199.2z"/>
			<path class="st2" d="M1097.1,199.2c7.2-1,15.2-1.5,23.9-1.5c8.8,0,16.7,0.5,23.9,1.5h37c-15.3-6.8-34.3-11.9-60.9-11.9
				c-26.6,0-45.6,5.1-60.9,11.9H1097.1z"/>
			<path class="st2" d="M1419.4,199.2c7.2-1,15.2-1.5,23.9-1.5c8.8,0,16.7,0.5,23.9,1.5h37c-15.3-6.8-34.3-11.9-60.9-11.9
				c-26.6,0-45.6,5.1-60.9,11.9H1419.4z"/>
			<path class="st2" d="M1741.7,199.2c7.2-1,15.2-1.5,23.9-1.5c8.8,0,16.7,0.5,23.9,1.5h37c-15.3-6.8-34.3-11.9-60.9-11.9
				c-26.6,0-45.6,5.1-60.9,11.9H1741.7z"/>
			<path class="st2" d="M1378.6,199.2c16-7.6,35.9-13.5,64.8-13.5c28.8,0,48.7,5.9,64.8,13.5h18.6c-19.4-11.6-42.2-23.9-83.4-23.9
				c-41.1,0-64,12.3-83.4,23.9H1378.6z"/>
			<path class="st2" d="M1700.8,199.2c16-7.6,35.9-13.5,64.8-13.5c28.8,0,48.7,5.9,64.8,13.5h18.6c-19.4-11.6-42.2-23.9-83.4-23.9
				s-64,12.3-83.4,23.9H1700.8L1700.8,199.2z"/>
			<path class="st2" d="M1056.3,199.2c16-7.6,35.9-13.5,64.8-13.5c28.8,0,48.7,5.9,64.8,13.5h18.6c-19.4-11.6-42.2-23.9-83.4-23.9
				c-41.2,0-64,12.3-83.4,23.9H1056.3z"/>
			<path class="st2" d="M1530.5,177.5c-20.3-12.3-43.3-26.2-87.1-26.2c-43.8,0-66.8,13.9-87.1,26.2c-16.5,10-31.2,18.9-56.6,21.6
				c0.3,0,0.6,0.1,0.9,0.1h35.2c6.8-3.3,13.1-7.1,19.7-11.1c20.5-12.4,43.7-26.4,88-26.4c44.3,0,67.5,14,88,26.4
				c6.6,4,12.9,7.8,19.7,11.1h35.1c0.3,0,0.6-0.1,0.9-0.1C1561.7,196.3,1547,187.4,1530.5,177.5L1530.5,177.5z"/>
			<path class="st2" d="M1034.6,199.2c20.1-12.1,43.3-25.5,86.5-25.5c43.2,0,66.3,13.3,86.5,25.5h17.6c-5.8-3-11.2-6.3-17-9.7
				c-20.3-12.3-43.3-26.2-87.1-26.2c-43.8,0-66.8,13.9-87.1,26.2c-5.7,3.4-11.2,6.8-17,9.7H1034.6L1034.6,199.2z"/>
			<path class="st2" d="M1208.2,177.5c-20.3-12.3-43.3-26.2-87.1-26.2c-43.8,0-66.8,13.9-87.1,26.2c-16.6,10-31.2,18.9-56.6,21.6
				c0.3,0,0.6,0.1,0.9,0.1h35.2c6.8-3.3,13.1-7.1,19.7-11.1c20.5-12.4,43.7-26.4,88-26.4c44.3,0,67.5,14,88,26.4
				c6.6,4,12.9,7.8,19.7,11.1h35.1c0.3,0,0.6-0.1,1-0.1C1239.4,196.3,1224.7,187.4,1208.2,177.5L1208.2,177.5z"/>
			<path class="st2" d="M1356.9,199.2c20.1-12.1,43.3-25.5,86.5-25.5c43.2,0,66.3,13.3,86.5,25.5h17.6c-5.8-3-11.2-6.3-17-9.7
				c-20.3-12.3-43.3-26.2-87.2-26.2c-43.8,0-66.8,13.9-87.1,26.2c-5.7,3.4-11.2,6.8-16.9,9.7H1356.9L1356.9,199.2z"/>
			<path class="st2" d="M1679.1,199.2c20.1-12.1,43.3-25.5,86.5-25.5c43.2,0,66.3,13.3,86.5,25.5h17.6c-5.8-3-11.2-6.3-16.9-9.7
				c-20.3-12.3-43.3-26.2-87.2-26.2c-43.8,0-66.8,13.9-87.1,26.2c-5.7,3.4-11.2,6.8-16.9,9.7H1679.1L1679.1,199.2z"/>
			<path class="st2" d="M1852.7,177.5c-20.3-12.3-43.3-26.2-87.2-26.2c-43.8,0-66.8,13.9-87.1,26.2c-16.5,10-31.2,18.9-56.6,21.6
				c0.3,0,0.6,0.1,0.9,0.1h35.2c6.8-3.3,13.1-7.1,19.7-11.1c20.5-12.4,43.7-26.4,88-26.4s67.5,14,88,26.4c6.6,4,12.9,7.8,19.7,11.1
				h35.1c0.3,0,0.6-0.1,1-0.1C1883.9,196.3,1869.3,187.4,1852.7,177.5z"/>
			<path class="st3" d="M1621.8,199.1c25.4-2.8,40.1-11.6,56.6-21.6c20.3-12.3,43.3-26.2,87.1-26.2c43.8,0,66.8,13.9,87.2,26.2
				c16.5,10,31.2,18.8,56.6,21.6c4.3-0.4,8.8-0.7,13.5-0.7c-33.7-0.7-50.2-10.7-69.3-22.2c-20.5-12.4-43.7-26.4-88-26.4
				s-67.5,14-88,26.4c-19.1,11.5-35.6,21.5-69.3,22.2C1613.1,198.4,1617.6,198.7,1621.8,199.1L1621.8,199.1z"/>
			<path class="st3" d="M977.3,199.1c25.4-2.8,40.1-11.6,56.6-21.6c20.3-12.3,43.3-26.2,87.1-26.2c43.8,0,66.8,13.9,87.1,26.2
				c16.5,10,31.2,18.8,56.6,21.6c4.3-0.4,8.8-0.7,13.5-0.7c-33.7-0.7-50.2-10.7-69.3-22.2c-20.5-12.4-43.7-26.4-88-26.4
				c-44.3,0-67.5,14-88,26.4c-19.1,11.5-35.6,21.5-69.3,22.2C968.5,198.4,973,198.7,977.3,199.1L977.3,199.1z"/>
			<path class="st3" d="M1299.6,199.1c25.4-2.8,40.1-11.6,56.6-21.6c20.3-12.3,43.3-26.2,87.1-26.2c43.8,0,66.8,13.9,87.1,26.2
				c16.5,10,31.2,18.8,56.6,21.6c4.3-0.4,8.8-0.7,13.5-0.7c-33.7-0.7-50.2-10.7-69.3-22.2c-20.5-12.4-43.7-26.4-88-26.4
				c-44.3,0-67.5,14-88,26.4c-19.1,11.5-35.6,21.5-69.3,22.2C1290.8,198.4,1295.3,198.7,1299.6,199.1L1299.6,199.1z"/>
			<path class="st3" d="M1531.3,188.1c-20.5-12.4-43.7-26.4-88-26.4c-44.3,0-67.5,14-88,26.4c-6.6,4-12.9,7.8-19.7,11.1
				c-3.4,1.6-6.9,3.1-10.6,4.5c0.9,0.2,1.7,0.5,2.6,0.7c4.1-1.6,7.9-3.3,11.6-5.2c5.8-3,11.2-6.3,17-9.7
				c20.3-12.3,43.3-26.2,87.1-26.2c43.8,0,66.8,13.9,87.2,26.2c5.7,3.4,11.2,6.7,17,9.7c3.7,1.9,7.5,3.7,11.6,5.2
				c0.8-0.3,1.7-0.5,2.6-0.7c-3.7-1.3-7.2-2.9-10.6-4.5C1544.2,195.9,1537.9,192.1,1531.3,188.1L1531.3,188.1z"/>
			<path class="st3" d="M1853.6,188.1c-20.5-12.4-43.7-26.4-88-26.4s-67.5,14-88,26.4c-6.6,4-12.9,7.8-19.7,11.1
				c-3.4,1.6-6.9,3.1-10.6,4.5c0.9,0.2,1.7,0.5,2.6,0.7c4.1-1.6,7.9-3.3,11.6-5.2c5.8-3,11.2-6.3,16.9-9.7
				c20.3-12.3,43.3-26.2,87.1-26.2c43.8,0,66.8,13.9,87.2,26.2c5.7,3.4,11.2,6.7,16.9,9.7c3.7,1.9,7.5,3.7,11.6,5.2
				c0.9-0.3,1.7-0.5,2.6-0.7c-3.7-1.3-7.2-2.9-10.6-4.5C1866.4,195.9,1860.2,192.1,1853.6,188.1L1853.6,188.1z"/>
			<path class="st3" d="M1209,188.1c-20.5-12.4-43.7-26.4-88-26.4c-44.3,0-67.5,14-88,26.4c-6.6,4-12.9,7.8-19.7,11.1
				c-3.4,1.6-6.9,3.1-10.6,4.5c0.9,0.2,1.7,0.5,2.6,0.7c4.1-1.6,7.9-3.3,11.6-5.2c5.8-3,11.2-6.3,17-9.7
				c20.3-12.3,43.3-26.2,87.1-26.2c43.8,0,66.8,13.9,87.1,26.2c5.7,3.4,11.2,6.7,17,9.7c3.7,1.9,7.5,3.7,11.6,5.2
				c0.8-0.3,1.7-0.5,2.6-0.7c-3.7-1.3-7.2-2.9-10.6-4.5C1221.9,195.9,1215.6,192.1,1209,188.1L1209,188.1z"/>
			<path class="st3" d="M1853.6,200.1c-0.5-0.3-1-0.6-1.5-0.9c-20.1-12.1-43.3-25.5-86.5-25.5c-43.2,0-66.3,13.3-86.5,25.5
				c-0.5,0.3-1,0.6-1.5,0.9c-5.1,3.1-10,6.1-15.2,8.8c0.6,0.3,1.3,0.5,1.9,0.8c4.7-2.6,9.3-5.3,14.1-8.2c1.2-0.7,2.5-1.5,3.8-2.3
				c19.4-11.6,42.2-23.9,83.4-23.9c41.2,0,64,12.3,83.4,23.9c1.3,0.8,2.5,1.5,3.8,2.3c4.7,2.9,9.3,5.6,14.1,8.2
				c0.6-0.3,1.2-0.5,1.9-0.8C1863.6,206.1,1858.7,203.1,1853.6,200.1L1853.6,200.1z"/>
			<path class="st3" d="M1531.3,200.1c-0.5-0.3-1-0.6-1.5-0.9c-20.1-12.1-43.3-25.5-86.5-25.5c-43.2,0-66.3,13.3-86.5,25.5
				c-0.5,0.3-1,0.6-1.5,0.9c-5.1,3.1-10,6.1-15.2,8.8c0.6,0.3,1.3,0.5,1.9,0.8c4.7-2.6,9.3-5.3,14.1-8.2c1.2-0.7,2.5-1.5,3.8-2.3
				c19.4-11.6,42.2-23.9,83.4-23.9c41.2,0,64,12.3,83.4,23.9c1.3,0.8,2.5,1.5,3.8,2.3c4.7,2.9,9.3,5.6,14.1,8.2
				c0.6-0.3,1.2-0.5,1.9-0.8C1541.3,206.1,1536.4,203.1,1531.3,200.1L1531.3,200.1z"/>
			<path class="st3" d="M1209,200.1c-0.5-0.3-1-0.6-1.5-0.9c-20.1-12.1-43.3-25.5-86.5-25.5c-43.2,0-66.4,13.3-86.5,25.5
				c-0.5,0.3-1,0.6-1.5,0.9c-5.1,3.1-10,6.1-15.1,8.8c0.6,0.3,1.3,0.5,1.9,0.8c4.7-2.6,9.3-5.3,14.1-8.2c1.2-0.7,2.5-1.5,3.8-2.3
				c19.4-11.6,42.2-23.9,83.4-23.9c41.2,0,64,12.3,83.4,23.9c1.3,0.8,2.5,1.5,3.8,2.3c4.7,2.9,9.3,5.6,14.1,8.2
				c0.6-0.3,1.2-0.5,1.9-0.8C1219.1,206.1,1214.1,203.1,1209,200.1L1209,200.1z"/>
			<path class="st3" d="M1185.8,199.2c-16-7.6-35.9-13.5-64.8-13.5c-28.8,0-48.7,5.9-64.8,13.5c-8.6,4.1-16.1,8.6-23.2,12.9
				c-1.2,0.7-2.4,1.4-3.6,2.2c0.6,0.3,1.1,0.6,1.7,0.9c0.9-0.5,1.8-1.1,2.7-1.7c8-4.8,16.3-9.9,26.2-14.2
				c15.3-6.8,34.3-11.9,60.9-11.9c26.6,0,45.6,5.1,60.9,11.9c9.9,4.4,18.3,9.4,26.2,14.2c0.9,0.6,1.8,1.1,2.7,1.6
				c0.5-0.3,1.1-0.6,1.6-0.9c-1.2-0.7-2.4-1.4-3.6-2.1C1201.9,207.7,1194.4,203.2,1185.8,199.2L1185.8,199.2z"/>
			<path class="st3" d="M1830.3,199.2c-16-7.6-35.9-13.5-64.8-13.5c-28.8,0-48.7,5.9-64.8,13.5c-8.6,4.1-16.1,8.6-23.2,12.9
				c-1.2,0.7-2.4,1.4-3.6,2.2c0.6,0.3,1.1,0.6,1.6,0.9c0.9-0.5,1.8-1.1,2.7-1.7c8-4.8,16.3-9.9,26.2-14.2
				c15.3-6.8,34.3-11.9,60.9-11.9c26.7,0,45.6,5.1,60.9,11.9c9.9,4.4,18.3,9.4,26.2,14.2c0.9,0.5,1.8,1.1,2.7,1.6
				c0.5-0.3,1.1-0.6,1.7-0.9c-1.2-0.7-2.4-1.4-3.5-2.1C1846.4,207.7,1838.9,203.2,1830.3,199.2L1830.3,199.2z"/>
			<path class="st3" d="M1508.1,199.2c-16-7.6-35.9-13.5-64.8-13.5c-28.8,0-48.7,5.9-64.8,13.5c-8.6,4.1-16.1,8.6-23.2,12.9
				c-1.2,0.7-2.4,1.4-3.6,2.1c0.6,0.3,1.1,0.6,1.6,0.9c0.9-0.5,1.8-1.1,2.7-1.7c8-4.8,16.3-9.9,26.2-14.2
				c15.3-6.8,34.3-11.9,60.9-11.9c26.7,0,45.6,5.1,60.9,11.9c9.9,4.4,18.3,9.4,26.2,14.2c0.9,0.6,1.8,1.1,2.7,1.6
				c0.5-0.3,1.1-0.6,1.7-0.9c-1.2-0.7-2.4-1.4-3.6-2.1C1524.1,207.7,1516.7,203.2,1508.1,199.2L1508.1,199.2z"/>
			<path class="st3" d="M1467.3,199.2c-7.2-1-15.2-1.5-23.9-1.5c-8.8,0-16.7,0.5-23.9,1.5c-25.4,3.4-42.4,12.1-57.2,20.8
				c0.5,0.3,1.1,0.6,1.6,0.9c18.6-10.9,41.1-21.6,79.6-21.6c38.5,0,60.9,10.7,79.6,21.6c0.5-0.3,1-0.6,1.6-0.9
				C1509.7,211.2,1492.7,202.6,1467.3,199.2L1467.3,199.2z"/>
			<path class="st3" d="M1789.5,199.2c-7.2-1-15.2-1.5-23.9-1.5c-8.8,0-16.7,0.5-23.9,1.5c-25.4,3.4-42.4,12.1-57.2,20.8
				c0.5,0.3,1.1,0.6,1.6,0.9c18.7-10.9,41.1-21.6,79.6-21.6s60.9,10.7,79.6,21.6c0.5-0.3,1-0.6,1.6-0.9
				C1831.9,211.2,1814.9,202.6,1789.5,199.2L1789.5,199.2z"/>
			<path class="st3" d="M1145,199.2c-7.2-1-15.2-1.5-23.9-1.5c-8.8,0-16.7,0.5-23.9,1.5c-25.4,3.4-42.4,12.1-57.2,20.8
				c0.5,0.3,1,0.6,1.6,0.9c18.7-10.9,41.1-21.6,79.6-21.6c38.5,0,60.9,10.7,79.5,21.6c0.5-0.3,1-0.6,1.6-0.9
				C1187.4,211.2,1170.4,202.6,1145,199.2L1145,199.2z"/>
			<path class="st3" d="M1443.3,209.6c-32.5,0-53.7,7.6-70.8,16.5c0.5,0.3,1.1,0.6,1.6,1c16.8-8.6,37.5-15.9,69.2-15.9
				s52.4,7.2,69.2,15.9c0.5-0.3,1.1-0.6,1.6-1C1497,217.2,1475.9,209.6,1443.3,209.6z"/>
			<path class="st3" d="M1765.6,209.6c-32.5,0-53.7,7.6-70.8,16.5c0.5,0.3,1.1,0.6,1.6,1c16.8-8.6,37.5-15.9,69.2-15.9
				s52.4,7.2,69.2,15.9c0.5-0.3,1.1-0.6,1.6-1C1819.3,217.2,1798.1,209.6,1765.6,209.6z"/>
			<path class="st3" d="M1121.1,209.6c-32.6,0-53.7,7.6-70.8,16.5c0.5,0.3,1.1,0.6,1.6,1c16.8-8.6,37.5-15.9,69.2-15.9
				c31.6,0,52.4,7.2,69.2,15.9c0.5-0.3,1.1-0.6,1.6-1C1174.8,217.2,1153.6,209.6,1121.1,209.6L1121.1,209.6z"/>
			<path class="st3" d="M1121.1,221.6c-25.7,0-44.3,4.7-59.4,11.1c0.6,0.3,1.2,0.7,1.8,1c14.7-6.1,32.9-10.5,57.6-10.5
				s42.8,4.4,57.6,10.5c0.6-0.3,1.2-0.6,1.8-1C1165.4,226.3,1146.8,221.6,1121.1,221.6z"/>
			<path class="st3" d="M1443.3,221.6c-25.7,0-44.3,4.7-59.4,11.1c0.6,0.3,1.2,0.7,1.8,1c14.7-6.1,32.8-10.5,57.6-10.5
				c24.8,0,42.8,4.4,57.6,10.5c0.6-0.3,1.2-0.6,1.8-1C1487.6,226.3,1469,221.6,1443.3,221.6z"/>
			<path class="st3" d="M1765.6,221.6c-25.7,0-44.3,4.7-59.4,11.1c0.6,0.3,1.2,0.7,1.8,1c14.7-6.1,32.8-10.5,57.6-10.5
				s42.8,4.4,57.6,10.5c0.6-0.3,1.2-0.6,1.8-1C1809.9,226.3,1791.3,221.6,1765.6,221.6z"/>
			<path class="st3" d="M1765.6,233.6c-18,0-32.6,2.3-44.9,5.9c0.8,0.3,1.7,0.6,2.5,0.9c11.7-3.2,25.5-5.3,42.3-5.3
				c16.9,0,30.6,2.1,42.3,5.3c0.9-0.3,1.7-0.6,2.5-0.9C1798.2,235.9,1783.6,233.6,1765.6,233.6L1765.6,233.6z"/>
			<path class="st3" d="M1121.1,233.6c-18.1,0-32.6,2.3-44.9,5.9c0.8,0.3,1.7,0.6,2.5,0.9c11.7-3.2,25.5-5.3,42.4-5.3
				c16.9,0,30.6,2.1,42.3,5.3c0.9-0.3,1.7-0.6,2.5-0.9C1153.7,235.9,1139.1,233.6,1121.1,233.6z"/>
			<path class="st3" d="M1443.3,233.6c-18,0-32.6,2.3-44.9,5.9c0.8,0.3,1.7,0.6,2.5,0.9c11.7-3.2,25.5-5.3,42.4-5.3
				c16.9,0,30.6,2.1,42.3,5.3c0.9-0.3,1.7-0.6,2.5-0.9C1475.9,235.9,1461.4,233.6,1443.3,233.6z"/>
			<path class="st2" d="M1926.7,259.8c-43.8,0-66.8,13.9-87.1,26.2c-5.4,3.3-10.6,6.4-16,9.2h17.5c19.9-12,43-25,85.6-25
				c42.6,0,65.7,13,85.6,25h17.5c-5.4-2.8-10.6-6-16-9.2C1993.6,273.7,1970.5,259.8,1926.7,259.8z"/>
			<path class="st2" d="M1282.2,259.8c-43.8,0-66.9,13.9-87.2,26.2c-5.4,3.3-10.6,6.4-16,9.2h17.5c19.9-12,43-25,85.6-25
				c42.6,0,65.7,13,85.6,25h17.5c-5.4-2.8-10.6-6-16-9.2C1349,273.7,1326,259.8,1282.2,259.8L1282.2,259.8z"/>
			<path class="st2" d="M1604.4,259.8c-43.8,0-66.8,13.9-87.1,26.2c-5.4,3.3-10.6,6.4-16,9.2h17.5c19.9-12,43-25,85.6-25
				c42.6,0,65.7,13,85.6,25h17.5c-5.4-2.8-10.6-6-16-9.2C1671.3,273.7,1648.3,259.8,1604.4,259.8z"/>
			<path class="st2" d="M2013.8,274c-20.3-12.3-43.3-26.2-87.1-26.2c-43.8,0-66.8,13.9-87.1,26.2c-15.8,9.5-29.9,18.1-53.2,21.2
				h33.8c6.4-3.2,12.4-6.8,18.7-10.6c20.5-12.4,43.7-26.4,88-26.4s67.5,14,88,26.4c6.3,3.8,12.2,7.4,18.7,10.6h33.8
				C2043.8,292,2029.7,283.5,2013.8,274L2013.8,274z"/>
			<path class="st2" d="M1369.3,274c-20.3-12.3-43.3-26.2-87.1-26.2c-43.8,0-66.9,13.9-87.2,26.2c-15.8,9.5-29.9,18.1-53.2,21.2
				h33.8c6.4-3.2,12.4-6.8,18.7-10.6c20.5-12.4,43.7-26.4,88-26.4c44.3,0,67.5,14,88,26.4c6.3,3.8,12.2,7.4,18.7,10.6h33.8
				C1399.2,292,1385.1,283.5,1369.3,274z"/>
			<path class="st2" d="M1282.2,271.8c-40.6,0-63.3,11.9-82.6,23.4h18.9c15.8-7.3,35.5-13,63.7-13c28.2,0,47.8,5.7,63.7,13h18.9
				C1345.5,283.7,1322.7,271.8,1282.2,271.8z"/>
			<path class="st2" d="M1926.7,271.8c-40.6,0-63.3,11.9-82.6,23.4h18.9c15.8-7.3,35.5-13,63.7-13c28.2,0,47.8,5.7,63.7,13h18.9
				C1990,283.7,1967.3,271.8,1926.7,271.8z"/>
			<path class="st2" d="M1019.7,295.2c-15.1-6.5-33.8-11.4-59.8-11.4v11.4H1019.7L1019.7,295.2z"/>
			<path class="st2" d="M1023.6,295.2h18.9c-19.3-11.5-42-23.4-82.6-23.4v-1.6c42.6,0,65.7,13,85.6,25h17.5c-5.4-2.8-10.6-6-16-9.2
				c-20.3-12.3-43.3-26.2-87.1-26.2v-1.6c44.3,0,67.5,14,88,26.4c6.3,3.8,12.2,7.4,18.7,10.6h33.8c-23.4-3.1-37.5-11.7-53.2-21.2
				c-20.3-12.3-43.3-26.2-87.1-26.2v-1.6c44.3,0,67.5,14,88,26.4c19.8,11.9,36.9,22.3,73.2,22.3c36.3,0,53.4-10.3,73.2-22.3
				c20.5-12.4,43.7-26.4,88-26.4c44.3,0,67.5,14,88,26.4c19.8,11.9,36.9,22.3,73.2,22.3c36.3,0,53.4-10.3,73.2-22.3
				c20.5-12.4,43.7-26.4,88-26.4c44.3,0,67.5,14,88,26.4c19.8,11.9,36.9,22.3,73.2,22.3c36.3,0,53.4-10.3,73.2-22.3
				c20.5-12.4,43.7-26.4,88-26.4c44.3,0,67.5,14,88,26.4c19.8,11.9,36.9,22.3,73.2,22.3c36.3,0,53.4-10.3,73.2-22.3
				c20.5-12.4,43.7-26.4,88-26.4v-10.4c-43.8,0-66.8,13.9-87.1,26.2c-20,12.1-37.2,22.5-74,22.5s-54-10.4-74-22.5
				c-20.3-12.3-43.3-26.2-87.2-26.2c-43.8,0-66.8,13.9-87.1,26.2c-20,12.1-37.2,22.5-74,22.5c-36.7,0-54-10.4-74-22.5
				c-20.3-12.3-43.3-26.2-87.1-26.2c-43.8,0-66.8,13.9-87.1,26.2c-20,12.1-37.2,22.5-74,22.5s-54-10.4-74-22.5
				c-20.3-12.3-43.3-26.2-87.1-26.2c-43.8,0-66.8,13.9-87.1,26.2c-20,12.1-37.2,22.5-74,22.5s-54-10.4-74-22.5
				c-20.3-12.3-43.3-26.2-87.1-26.2v-1.6c44.3,0,67.5,14,88,26.4c19.8,11.9,36.9,22.3,73.2,22.3c36.3,0,53.4-10.3,73.2-22.3
				c20.5-12.4,43.7-26.4,88-26.4c44.3,0,67.5,14,88,26.4c19.8,11.9,36.9,22.3,73.2,22.3c36.3,0,53.4-10.3,73.2-22.3
				c20.5-12.4,43.7-26.4,88-26.4c44.3,0,67.5,14,88,26.4c19.8,11.9,36.9,22.3,73.2,22.3c36.3,0,53.4-10.3,73.2-22.3
				c20.5-12.4,43.7-26.4,88-26.4s67.5,14,88,26.4c19.8,11.9,36.9,22.3,73.2,22.3c36.3,0,53.4-10.3,73.2-22.3
				c20.5-12.4,43.7-26.4,88-26.4v-10.4c-43.8,0-66.8,13.9-87.1,26.2c-20,12.1-37.2,22.5-74,22.5s-54-10.4-74-22.5
				c-20.3-12.3-43.3-26.2-87.1-26.2c-43.8,0-66.8,13.9-87.1,26.2c-20,12.1-37.2,22.5-74,22.5c-36.7,0-54-10.4-74-22.5
				c-20.3-12.3-43.3-26.2-87.1-26.2c-43.8,0-66.8,13.9-87.1,26.2c-20,12.1-37.2,22.5-74,22.5c-36.7,0-54-10.4-74-22.5
				c-20.3-12.3-43.3-26.2-87.1-26.2c-43.8,0-66.8,13.9-87.1,26.2c-20,12.1-37.2,22.5-74,22.5s-54-10.4-74-22.5
				c-20.3-12.3-43.3-26.2-87.1-26.2v-1.6c44.3,0,67.5,14,88,26.4c19.8,11.9,36.9,22.3,73.2,22.3c36.3,0,53.4-10.3,73.2-22.3
				c20.5-12.4,43.7-26.4,88-26.4c44.3,0,67.5,14,88,26.4c19.8,11.9,36.9,22.3,73.2,22.3c36.3,0,53.4-10.3,73.2-22.3
				c20.5-12.4,43.7-26.4,88-26.4c44.3,0,67.5,14,88,26.4c19.8,11.9,36.9,22.3,73.2,22.3c36.3,0,53.4-10.3,73.2-22.3
				c20.5-12.4,43.7-26.4,88-26.4c44.3,0,67.5,14,88,26.4c19.8,11.9,36.9,22.3,73.2,22.3c36.3,0,53.4-10.3,73.2-22.3
				c20.5-12.4,43.7-26.4,88-26.4v-10.4c-43.8,0-66.8,13.9-87.1,26.2c-20,12.1-37.2,22.5-74,22.5s-54-10.4-74-22.5
				c-20.3-12.3-43.3-26.2-87.2-26.2c-43.8,0-66.8,13.9-87.1,26.2c-20,12.1-37.2,22.5-74,22.5c-36.7,0-54-10.4-74-22.5
				c-20.3-12.3-43.3-26.2-87.1-26.2c-43.8,0-66.8,13.9-87.1,26.2c-20,12.1-37.2,22.5-74,22.5s-54-10.4-74-22.5
				c-20.3-12.3-43.3-26.2-87.1-26.2c-43.8,0-66.8,13.9-87.1,26.2c-20,12.1-37.2,22.5-74,22.5s-54-10.4-74-22.5
				c-20.3-12.3-43.3-26.2-87.1-26.2v-1.6c44.3,0,67.5,14,88,26.4c19.8,11.9,36.9,22.3,73.2,22.3c36.3,0,53.4-10.3,73.2-22.3
				c20.5-12.4,43.7-26.4,88-26.4c44.3,0,67.5,14,88,26.4c19.8,11.9,36.9,22.3,73.2,22.3c36.3,0,53.4-10.3,73.2-22.3
				c20.5-12.4,43.7-26.4,88-26.4c44.3,0,67.5,14,88,26.4c19.8,11.9,36.9,22.3,73.2,22.3c36.3,0,53.4-10.3,73.2-22.3
				c20.5-12.4,43.7-26.4,88-26.4c44.3,0,67.5,14,88,26.4c19.8,11.9,36.9,22.3,73.2,22.3c36.3,0,53.4-10.3,73.2-22.3
				c20.5-12.4,43.7-26.4,88-26.4v-10.4c-43.8,0-66.8,13.9-87.1,26.2c-20,12.1-37.2,22.5-74,22.5s-54-10.4-74-22.5
				c-20.3-12.3-43.3-26.2-87.2-26.2c-43.8,0-66.8,13.9-87.1,26.2c-20,12.1-37.2,22.5-74,22.5c-36.7,0-54-10.4-74-22.5
				c-20.3-12.3-43.3-26.2-87.1-26.2c-43.8,0-66.8,13.9-87.1,26.2c-20,12.1-37.2,22.5-74,22.5s-54-10.4-74-22.5
				c-20.3-12.3-43.3-26.2-87.1-26.2c-43.8,0-66.8,13.9-87.1,26.2c-20,12.1-37.2,22.5-74,22.5s-54-10.4-74-22.5
				c-20.3-12.3-43.3-26.2-87.1-26.2v-0.8v75v8.1C988.1,282.2,1007.7,287.8,1023.6,295.2L1023.6,295.2z"/>
			<path class="st2" d="M1604.4,271.8c-40.6,0-63.3,11.9-82.5,23.4h18.9c15.8-7.3,35.5-13,63.7-13c28.2,0,47.8,5.7,63.7,13h18.9
				C1667.7,283.7,1645,271.8,1604.4,271.8z"/>
			<path class="st2" d="M1691.6,274c-20.3-12.3-43.3-26.2-87.1-26.2c-43.8,0-66.8,13.9-87.1,26.2c-15.8,9.5-29.9,18.1-53.3,21.2
				h33.8c6.4-3.2,12.4-6.8,18.7-10.6c20.5-12.4,43.7-26.4,88-26.4c44.3,0,67.5,14,88,26.4c6.3,3.8,12.2,7.4,18.7,10.6h33.8
				C1721.5,292,1707.4,283.5,1691.6,274L1691.6,274z"/>
			<path class="st2" d="M1604.4,283.7c-26,0-44.6,4.9-59.8,11.4h119.6C1649.1,288.6,1630.4,283.7,1604.4,283.7L1604.4,283.7z"/>
			<path class="st2" d="M1926.7,283.7c-26,0-44.7,4.9-59.8,11.4h119.6C1971.4,288.6,1952.7,283.7,1926.7,283.7z"/>
			<path class="st2" d="M1282.2,283.7c-26,0-44.7,4.9-59.8,11.4H1342C1326.8,288.6,1308.2,283.7,1282.2,283.7z"/>
			<path class="st3" d="M1047.1,226c20,12.1,37.2,22.5,74,22.5c36.7,0,54-10.4,74-22.5c20.3-12.3,43.3-26.2,87.2-26.2
				c43.8,0,66.8,13.9,87.1,26.2c20,12.1,37.2,22.5,74,22.5c36.7,0,54-10.4,74-22.5c20.3-12.3,43.3-26.2,87.1-26.2
				c43.8,0,66.8,13.9,87.1,26.2c20,12.1,37.2,22.5,74,22.5c36.8,0,54-10.4,74-22.5c20.3-12.3,43.3-26.2,87.1-26.2
				c43.8,0,66.8,13.9,87.1,26.2c20,12.1,37.3,22.5,74,22.5s54-10.4,74-22.5c20.3-12.3,43.3-26.2,87.1-26.2v-1.6c-1.3,0-2.6,0-3.9,0
				c-4.7,0.1-9.2,0.3-13.5,0.7c-0.3,0-0.6,0.1-1,0.1c-9.1,0.9-17.2,2.5-24.5,4.5c-0.9,0.2-1.7,0.5-2.6,0.7
				c-4.5,1.3-8.6,2.8-12.6,4.4c-0.6,0.3-1.3,0.5-1.9,0.8c-3.4,1.5-6.6,3-9.7,4.6c-0.5,0.3-1.1,0.6-1.6,0.9c-3,1.6-5.9,3.2-8.8,4.9
				c-0.5,0.3-1,0.6-1.6,0.9c-2.2,1.3-4.3,2.6-6.4,3.8c-0.8,0.5-1.6,1-2.4,1.4c-0.5,0.3-1.1,0.6-1.6,1c-3.3,2-6.5,3.8-9.8,5.6
				c-0.6,0.3-1.2,0.7-1.8,1c-4,2.1-8.2,4.1-12.7,5.8c-0.8,0.3-1.7,0.6-2.5,0.9c-11.2,4-24.4,6.5-42.4,6.5c-17.9,0-31.1-2.5-42.3-6.5
				c-0.8-0.3-1.7-0.6-2.5-0.9c-4.5-1.7-8.7-3.7-12.7-5.8c-0.6-0.3-1.2-0.6-1.8-1c-3.3-1.8-6.5-3.7-9.8-5.6c-0.5-0.3-1.1-0.6-1.6-1
				c-0.8-0.5-1.6-1-2.4-1.4c-2.1-1.3-4.2-2.5-6.4-3.8c-0.5-0.3-1-0.6-1.6-0.9c-2.8-1.6-5.7-3.3-8.8-4.9c-0.6-0.3-1.1-0.6-1.7-0.9
				c-3.1-1.6-6.3-3.1-9.7-4.6c-0.6-0.3-1.2-0.5-1.9-0.8c-3.9-1.6-8.1-3.1-12.6-4.4c-0.8-0.3-1.7-0.5-2.6-0.7
				c-7.3-2-15.4-3.6-24.6-4.5c-0.3,0-0.6-0.1-0.9-0.1c-4.3-0.4-8.8-0.7-13.5-0.7c-1.3,0-2.6,0-3.9,0c-1.3,0-2.6,0-3.9,0
				c-4.7,0.1-9.2,0.3-13.5,0.7c-0.3,0-0.6,0.1-0.9,0.1c-9.1,0.9-17.2,2.5-24.6,4.5c-0.9,0.2-1.7,0.5-2.6,0.7
				c-4.5,1.3-8.6,2.8-12.6,4.4c-0.6,0.3-1.3,0.5-1.9,0.8c-3.4,1.5-6.6,3-9.7,4.6c-0.6,0.3-1.1,0.6-1.7,0.9c-3,1.6-5.9,3.2-8.8,4.9
				c-0.5,0.3-1,0.6-1.6,0.9c-2.2,1.3-4.3,2.6-6.4,3.8c-0.8,0.5-1.6,1-2.4,1.4c-0.5,0.3-1.1,0.6-1.6,1c-3.2,2-6.5,3.8-9.8,5.6
				c-0.6,0.3-1.2,0.7-1.8,1c-4,2.1-8.2,4.1-12.7,5.8c-0.8,0.3-1.7,0.6-2.5,0.9c-11.2,4-24.4,6.5-42.4,6.5c-17.9,0-31.2-2.5-42.3-6.5
				c-0.8-0.3-1.7-0.6-2.5-0.9c-4.5-1.7-8.7-3.7-12.7-5.8c-0.6-0.3-1.2-0.6-1.8-1c-3.3-1.8-6.5-3.7-9.8-5.6c-0.5-0.3-1.1-0.6-1.6-1
				c-0.8-0.5-1.6-1-2.4-1.4c-2.1-1.3-4.2-2.5-6.4-3.8c-0.5-0.3-1.1-0.6-1.6-0.9c-2.8-1.6-5.7-3.3-8.8-4.9c-0.5-0.3-1.1-0.6-1.7-0.9
				c-3.1-1.6-6.3-3.1-9.7-4.6c-0.6-0.3-1.2-0.5-1.9-0.8c-3.9-1.6-8.1-3.1-12.6-4.4c-0.8-0.3-1.7-0.5-2.6-0.7
				c-7.3-2-15.4-3.6-24.6-4.5c-0.3,0-0.6-0.1-0.9-0.1c-4.3-0.4-8.8-0.7-13.5-0.7c-1.3,0-2.6,0-3.9,0c-1.3,0-2.6,0-3.9,0
				c-4.7,0.1-9.2,0.3-13.5,0.7c-0.3,0-0.6,0.1-0.9,0.1c-9.1,0.9-17.2,2.5-24.6,4.5c-0.9,0.2-1.7,0.5-2.6,0.7
				c-4.5,1.3-8.6,2.8-12.6,4.4c-0.6,0.3-1.3,0.5-1.9,0.8c-3.4,1.5-6.6,3-9.7,4.6c-0.6,0.3-1.1,0.6-1.7,0.9c-3,1.6-5.9,3.2-8.8,4.9
				c-0.5,0.3-1,0.6-1.6,0.9c-2.2,1.3-4.3,2.6-6.4,3.8c-0.8,0.5-1.6,1-2.4,1.4c-0.5,0.3-1.1,0.6-1.6,1c-3.3,2-6.5,3.8-9.8,5.6
				c-0.6,0.3-1.2,0.7-1.8,1c-4,2.1-8.2,4.1-12.7,5.8c-0.8,0.3-1.7,0.6-2.5,0.9c-11.2,4-24.4,6.5-42.3,6.5c-17.9,0-31.2-2.5-42.3-6.5
				c-0.9-0.3-1.7-0.6-2.5-0.9c-4.5-1.7-8.7-3.7-12.7-5.8c-0.6-0.3-1.2-0.6-1.8-1c-3.3-1.8-6.5-3.7-9.8-5.6c-0.5-0.3-1.1-0.6-1.6-1
				c-0.8-0.5-1.6-1-2.4-1.4c-2.1-1.3-4.2-2.5-6.4-3.8c-0.5-0.3-1-0.6-1.6-0.9c-2.8-1.6-5.7-3.3-8.8-4.9c-0.5-0.3-1.1-0.6-1.7-0.9
				c-3.1-1.6-6.3-3.1-9.7-4.6c-0.6-0.3-1.2-0.5-1.9-0.8c-3.9-1.6-8.1-3.1-12.6-4.4c-0.8-0.3-1.7-0.5-2.6-0.7
				c-7.3-2-15.4-3.6-24.6-4.5c-0.3,0-0.6-0.1-0.9-0.1c-4.3-0.4-8.8-0.7-13.5-0.7c-1.3,0-2.6,0-3.9,0c-1.3,0-2.6,0-3.9,0
				c-4.8,0.1-9.2,0.3-13.5,0.7c-0.3,0-0.6,0.1-1,0.1c-9.1,0.9-17.2,2.5-24.6,4.5c-0.9,0.2-1.7,0.5-2.6,0.7
				c-4.5,1.3-8.6,2.8-12.6,4.4c-0.6,0.3-1.3,0.5-1.9,0.8c-3.4,1.5-6.6,3-9.7,4.6c-0.5,0.3-1.1,0.6-1.7,0.9c-3,1.6-5.9,3.2-8.8,4.9
				c-0.5,0.3-1,0.6-1.6,0.9c-2.2,1.3-4.3,2.6-6.4,3.8c-0.8,0.5-1.6,1-2.4,1.4c-0.5,0.3-1.1,0.6-1.6,1c-3.3,2-6.5,3.8-9.8,5.6
				c-0.6,0.3-1.2,0.7-1.8,1c-4.1,2.1-8.2,4.1-12.7,5.8c-0.8,0.3-1.7,0.6-2.5,0.9c-11.2,4-24.4,6.5-42.4,6.5
				c-17.9,0-31.1-2.5-42.3-6.5c-0.9-0.3-1.7-0.6-2.5-0.9c-4.5-1.7-8.7-3.7-12.7-5.8c-0.6-0.3-1.2-0.6-1.8-1
				c-3.3-1.8-6.5-3.7-9.8-5.6c-0.5-0.3-1.1-0.6-1.6-1c-0.8-0.5-1.6-1-2.4-1.4c-2.1-1.3-4.2-2.5-6.4-3.8c-0.5-0.3-1-0.6-1.6-0.9
				c-2.8-1.6-5.7-3.3-8.8-4.9c-0.5-0.3-1.1-0.6-1.7-0.9c-3.1-1.6-6.3-3.1-9.7-4.6c-0.6-0.3-1.2-0.5-1.9-0.8
				c-3.9-1.6-8.1-3.1-12.6-4.4c-0.8-0.3-1.7-0.5-2.6-0.7c-7.3-2-15.4-3.6-24.6-4.5c-0.3,0-0.6-0.1-0.9-0.1
				c-4.3-0.4-8.8-0.7-13.5-0.7c-1.3,0-2.6,0-3.9,0c0,0,0,0,0,0v1.6C1003.8,199.9,1026.8,213.8,1047.1,226L1047.1,226z"/>
			<path class="st3" d="M2161,236.7c-19.8,11.9-36.9,22.3-73.2,22.3c-36.3,0-53.4-10.3-73.2-22.3c-20.5-12.4-43.7-26.4-88-26.4
				c-44.3,0-67.5,14-88,26.4c-19.8,11.9-36.9,22.3-73.2,22.3c-36.3,0-53.4-10.3-73.2-22.3c-20.5-12.4-43.7-26.4-88-26.4
				c-44.3,0-67.5,14-88,26.4c-19.8,11.9-36.9,22.3-73.2,22.3c-36.3,0-53.4-10.3-73.2-22.3c-20.5-12.4-43.7-26.4-88-26.4
				c-44.3,0-67.5,14-88,26.4c-19.8,11.9-36.9,22.3-73.2,22.3c-36.3,0-53.4-10.3-73.2-22.3c-20.5-12.4-43.7-26.4-88-26.4v1.6
				c43.8,0,66.8,13.9,87.1,26.2c20,12.1,37.2,22.5,74,22.5s54-10.4,74-22.5c20.3-12.3,43.3-26.2,87.2-26.2
				c43.8,0,66.8,13.9,87.1,26.2c20,12.1,37.2,22.5,74,22.5c36.7,0,54-10.4,74-22.5c20.3-12.3,43.3-26.2,87.1-26.2
				c43.8,0,66.8,13.9,87.1,26.2c20,12.1,37.2,22.5,74,22.5c36.8,0,54-10.4,74-22.5c20.3-12.3,43.3-26.2,87.1-26.2
				c43.8,0,66.8,13.9,87.1,26.2c20,12.1,37.3,22.5,74,22.5s54-10.4,74-22.5c20.3-12.3,43.3-26.2,87.1-26.2v-1.6
				C2204.7,210.3,2181.5,224.3,2161,236.7z"/>
			<path class="st3" d="M2161,248.6c-19.8,11.9-36.9,22.3-73.2,22.3c-36.3,0-53.4-10.3-73.2-22.3c-20.5-12.4-43.7-26.4-88-26.4
				c-44.3,0-67.5,14-88,26.4c-19.8,11.9-36.9,22.3-73.2,22.3c-36.3,0-53.4-10.3-73.2-22.3c-20.5-12.4-43.7-26.4-88-26.4
				c-44.3,0-67.5,14-88,26.4c-19.8,11.9-36.9,22.3-73.2,22.3c-36.3,0-53.4-10.3-73.2-22.3c-20.5-12.4-43.7-26.4-88-26.4
				c-44.3,0-67.5,14-88,26.4c-19.8,11.9-36.9,22.3-73.2,22.3c-36.3,0-53.4-10.3-73.2-22.3c-20.5-12.4-43.7-26.4-88-26.4v1.6
				c43.8,0,66.8,13.9,87.1,26.2c20,12.1,37.2,22.5,74,22.5c36.7,0,54-10.4,74-22.5c20.3-12.3,43.3-26.2,87.2-26.2
				c43.8,0,66.8,13.9,87.1,26.2c20,12.1,37.2,22.5,74,22.5c36.7,0,54-10.4,74-22.5c20.3-12.3,43.3-26.2,87.1-26.2
				c43.8,0,66.8,13.9,87.2,26.2c20,12.1,37.2,22.5,74,22.5s54-10.4,74-22.5c20.3-12.3,43.3-26.2,87.1-26.2
				c43.8,0,66.8,13.9,87.2,26.2c20,12.1,37.2,22.5,74,22.5c36.7,0,54-10.4,74-22.5c20.3-12.3,43.3-26.2,87.1-26.2v-1.6
				C2204.7,222.2,2181.5,236.3,2161,248.6L2161,248.6z"/>
			<path class="st3" d="M2161,260.6c-19.8,11.9-36.9,22.3-73.2,22.3c-36.3,0-53.4-10.3-73.2-22.3c-20.5-12.4-43.7-26.4-88-26.4
				c-44.3,0-67.5,14-88,26.4c-19.8,11.9-36.9,22.3-73.2,22.3c-36.3,0-53.4-10.3-73.2-22.3c-20.5-12.4-43.7-26.4-88-26.4
				c-44.3,0-67.5,14-88,26.4c-19.8,11.9-36.9,22.3-73.2,22.3c-36.3,0-53.4-10.3-73.2-22.3c-20.5-12.4-43.7-26.4-88-26.4
				c-44.3,0-67.5,14-88,26.4c-19.8,11.9-36.9,22.3-73.2,22.3c-36.3,0-53.4-10.3-73.2-22.3c-20.5-12.4-43.7-26.4-88-26.4v1.6
				c43.8,0,66.8,13.9,87.1,26.2c20,12.1,37.2,22.5,74,22.5s54-10.4,74-22.5c20.3-12.3,43.3-26.2,87.1-26.2
				c43.8,0,66.8,13.9,87.1,26.2c20,12.1,37.2,22.5,74,22.5c36.7,0,54-10.4,74-22.5c20.3-12.3,43.3-26.2,87.1-26.2
				c43.8,0,66.8,13.9,87.1,26.2c20,12.1,37.2,22.5,74,22.5c36.7,0,54-10.4,74-22.5c20.3-12.3,43.3-26.2,87.1-26.2
				c43.8,0,66.8,13.9,87.2,26.2c20,12.1,37.3,22.5,74,22.5s54-10.4,74-22.5c20.3-12.3,43.3-26.2,87.1-26.2v-1.6
				C2204.7,234.2,2181.5,248.3,2161,260.6L2161,260.6z"/>
			<path class="st3" d="M2161,272.6c-19.8,11.9-36.9,22.3-73.2,22.3c-36.3,0-53.4-10.3-73.2-22.3c-20.5-12.4-43.7-26.4-88-26.4
				c-44.3,0-67.5,14-88,26.4c-19.8,11.9-36.9,22.3-73.2,22.3c-36.3,0-53.4-10.3-73.2-22.3c-20.5-12.4-43.7-26.4-88-26.4
				c-44.3,0-67.5,14-88,26.4c-19.8,11.9-36.9,22.3-73.2,22.3c-36.3,0-53.4-10.3-73.2-22.3c-20.5-12.4-43.7-26.4-88-26.4
				c-44.3,0-67.5,14-88,26.4c-19.8,11.9-36.9,22.3-73.2,22.3c-36.3,0-53.4-10.3-73.2-22.3c-20.5-12.4-43.7-26.4-88-26.4v1.6
				c43.8,0,66.8,13.9,87.1,26.2c15.8,9.5,29.9,18.1,53.2,21.2h41.5c23.4-3.1,37.4-11.7,53.2-21.2c20.3-12.3,43.3-26.2,87.2-26.2
				c43.8,0,66.8,13.9,87.1,26.2c15.8,9.5,29.9,18.1,53.2,21.2h41.5c23.3-3.1,37.4-11.7,53.2-21.2c20.3-12.3,43.3-26.2,87.1-26.2
				c43.8,0,66.8,13.9,87.2,26.2c15.8,9.5,29.9,18.1,53.2,21.2h41.5c23.4-3.1,37.5-11.7,53.3-21.2c20.3-12.3,43.3-26.2,87.1-26.2
				c43.8,0,66.8,13.9,87.2,26.2c15.8,9.5,29.9,18.1,53.3,21.2h41.5c23.4-3.1,37.5-11.7,53.3-21.2c20.3-12.3,43.3-26.2,87.1-26.2
				v-1.6C2204.7,246.2,2181.5,260.2,2161,272.6L2161,272.6z"/>
			<path class="st3" d="M1047.9,284.6c-20.5-12.4-43.7-26.4-88-26.4v1.6c43.8,0,66.8,13.9,87.1,26.2c5.4,3.2,10.6,6.4,16,9.2h3.5
				C1060.1,292,1054.1,288.4,1047.9,284.6L1047.9,284.6z"/>
			<path class="st3" d="M1692.4,284.6c-20.5-12.4-43.7-26.4-88-26.4c-44.3,0-67.5,14-88,26.4c-6.3,3.8-12.2,7.4-18.7,10.6h3.5
				c5.4-2.8,10.6-6,16-9.2c20.3-12.3,43.3-26.2,87.1-26.2c43.8,0,66.8,13.9,87.1,26.2c5.4,3.3,10.6,6.4,16,9.2h3.5
				C1704.7,292,1698.7,288.4,1692.4,284.6L1692.4,284.6z"/>
			<path class="st3" d="M1370.1,284.6c-20.5-12.4-43.7-26.4-88-26.4c-44.3,0-67.5,14-88,26.4c-6.3,3.8-12.2,7.4-18.7,10.6h3.5
				c5.4-2.8,10.6-6,16-9.2c20.3-12.3,43.3-26.2,87.2-26.2c43.8,0,66.8,13.9,87.1,26.2c5.4,3.3,10.6,6.4,16,9.2h3.5
				C1382.4,292,1376.4,288.4,1370.1,284.6z"/>
			<path class="st3" d="M2014.7,284.6c-20.5-12.4-43.7-26.4-88-26.4c-44.3,0-67.5,14-88,26.4c-6.3,3.8-12.2,7.4-18.7,10.6h3.5
				c5.4-2.8,10.6-6,16-9.2c20.3-12.3,43.3-26.2,87.1-26.2c43.8,0,66.8,13.9,87.2,26.2c5.4,3.3,10.6,6.4,16,9.2h3.5
				C2026.9,292,2020.9,288.4,2014.7,284.6L2014.7,284.6z"/>
			<path class="st3" d="M959.9,270.2v1.6c40.6,0,63.3,11.9,82.6,23.4h3.1C1025.6,283.2,1002.5,270.2,959.9,270.2L959.9,270.2z"/>
			<path class="st3" d="M1604.4,270.2c-42.6,0-65.7,13-85.6,25h3.1c19.3-11.5,42-23.4,82.6-23.4c40.6,0,63.3,11.9,82.6,23.4h3.1
				C1670.2,283.2,1647.1,270.2,1604.4,270.2L1604.4,270.2z"/>
			<path class="st3" d="M1282.2,270.2c-42.6,0-65.7,13-85.6,25h3.1c19.3-11.5,42-23.4,82.6-23.4c40.6,0,63.3,11.9,82.6,23.4h3.1
				C1347.9,283.2,1324.8,270.2,1282.2,270.2L1282.2,270.2z"/>
			<path class="st3" d="M1926.7,270.2c-42.6,0-65.7,13-85.6,25h3.1c19.3-11.5,42-23.4,82.6-23.4c40.6,0,63.3,11.9,82.6,23.4h3.1
				C1992.4,283.2,1969.3,270.2,1926.7,270.2L1926.7,270.2z"/>
			<path class="st3" d="M1282.2,282.2c-28.2,0-47.8,5.7-63.7,13h3.9c15.1-6.5,33.8-11.4,59.8-11.4c26,0,44.6,4.9,59.8,11.4h3.9
				C1330,287.8,1310.4,282.2,1282.2,282.2L1282.2,282.2z"/>
			<path class="st3" d="M1604.4,282.2c-28.2,0-47.8,5.7-63.7,13h3.9c15.1-6.5,33.8-11.4,59.8-11.4s44.7,4.9,59.8,11.4h3.9
				C1652.3,287.8,1632.6,282.2,1604.4,282.2L1604.4,282.2z"/>
			<path class="st3" d="M1926.7,282.2c-28.2,0-47.8,5.7-63.7,13h3.9c15.1-6.5,33.8-11.4,59.8-11.4c26,0,44.7,4.9,59.8,11.4h3.9
				C1974.6,287.8,1954.9,282.2,1926.7,282.2L1926.7,282.2z"/>
			<path class="st3" d="M1019.7,295.2h3.9c-15.8-7.3-35.5-13-63.7-13v1.6C985.9,283.7,1004.6,288.6,1019.7,295.2L1019.7,295.2z"/>
		</g>
	</g>
</g>
</svg>
