<svg width="431" height="57" viewBox="0 0 431 57" fill="none" xmlns="http://www.w3.org/2000/svg">
<path d="M26.736 2.888C26.352 3.69866 25.968 4.59466 25.584 5.576C25.2 6.55733 24.88 7.38933 24.624 8.072C24.24 9.13866 23.7707 10.3333 23.216 11.656C22.704 12.9787 22.1493 14.3227 21.552 15.688C20.9973 17.0107 20.4213 18.2267 19.824 19.336C19.0133 20.9573 17.9893 22.7067 16.752 24.584C15.5573 26.4187 14.2773 28.1893 12.912 29.896C11.5467 31.56 10.1387 33.0107 8.688 34.248L0.688 29.384C1.84 28.5733 2.928 27.6133 3.952 26.504C5.01867 25.3947 6.02133 24.2427 6.96 23.048C7.94133 21.8533 8.83733 20.68 9.648 19.528C10.4587 18.3333 11.1627 17.224 11.76 16.2C12.6133 14.7493 13.3387 13.2347 13.936 11.656C14.576 10.0773 15.088 8.69066 15.472 7.496C15.856 6.42933 16.1547 5.32 16.368 4.168C16.624 2.97333 16.7733 1.88533 16.816 0.903999L26.736 2.888ZM16.624 12.744C17.3493 12.744 18.416 12.744 19.824 12.744C21.232 12.744 22.8747 12.744 24.752 12.744C26.6293 12.744 28.592 12.744 30.64 12.744C32.7307 12.744 34.8 12.744 36.848 12.744C38.9387 12.744 40.88 12.744 42.672 12.744C44.5067 12.744 46.0853 12.744 47.408 12.744C48.7733 12.744 49.776 12.744 50.416 12.744C51.2693 12.744 52.336 12.7227 53.616 12.68C54.896 12.5947 56.048 12.4667 57.072 12.296V21.064C55.8773 20.936 54.64 20.872 53.36 20.872C52.1227 20.8293 51.1413 20.808 50.416 20.808C49.6907 20.808 48.4747 20.808 46.768 20.808C45.0613 20.808 43.0773 20.808 40.816 20.808C38.5547 20.808 36.1653 20.808 33.648 20.808C31.1733 20.808 28.7627 20.808 26.416 20.808C24.0693 20.808 21.9787 20.808 20.144 20.808C18.3093 20.808 16.9013 20.808 15.92 20.808L16.624 12.744ZM41.584 17.352C41.4987 22.088 41.008 26.44 40.112 30.408C39.216 34.3333 37.936 37.896 36.272 41.096C34.6507 44.296 32.6453 47.1973 30.256 49.8C27.8667 52.36 25.136 54.6 22.064 56.52L13.424 50.696C14.576 50.2267 15.6853 49.6933 16.752 49.096C17.8187 48.456 18.736 47.816 19.504 47.176C21.3387 45.768 23.024 44.168 24.56 42.376C26.1387 40.5413 27.5253 38.4293 28.72 36.04C29.9573 33.608 30.9173 30.856 31.6 27.784C32.3253 24.712 32.7093 21.2347 32.752 17.352H41.584ZM70.064 7.624C71.3867 7.66667 72.624 7.70933 73.776 7.752C74.9707 7.752 75.9947 7.752 76.848 7.752C77.5307 7.752 78.576 7.752 79.984 7.752C81.4347 7.752 83.12 7.752 85.04 7.752C86.96 7.752 89.008 7.752 91.184 7.752C93.36 7.752 95.536 7.752 97.712 7.752C99.9307 7.752 102 7.752 103.92 7.752C105.84 7.752 107.504 7.752 108.912 7.752C110.363 7.752 111.408 7.752 112.048 7.752C112.859 7.752 113.819 7.752 114.928 7.752C116.08 7.70933 117.232 7.66667 118.384 7.624C118.341 8.60533 118.299 9.65066 118.256 10.76C118.256 11.8267 118.256 12.8507 118.256 13.832C118.256 14.4293 118.256 15.368 118.256 16.648C118.256 17.8853 118.256 19.3787 118.256 21.128C118.256 22.8347 118.256 24.6693 118.256 26.632C118.256 28.552 118.256 30.4933 118.256 32.456C118.256 34.4187 118.256 36.2747 118.256 38.024C118.256 39.7307 118.256 41.224 118.256 42.504C118.256 43.7413 118.256 44.6373 118.256 45.192C118.256 45.832 118.256 46.6427 118.256 47.624C118.299 48.5627 118.32 49.5227 118.32 50.504C118.32 51.4427 118.32 52.2747 118.32 53C118.363 53.6827 118.384 54.0453 118.384 54.088H109.552C109.552 54.0027 109.552 53.4907 109.552 52.552C109.595 51.5707 109.616 50.4187 109.616 49.096C109.659 47.7733 109.68 46.536 109.68 45.384C109.68 44.8293 109.68 43.8907 109.68 42.568C109.68 41.2453 109.68 39.688 109.68 37.896C109.68 36.104 109.68 34.2053 109.68 32.2C109.68 30.1947 109.68 28.232 109.68 26.312C109.68 24.392 109.68 22.6427 109.68 21.064C109.68 19.4853 109.68 18.2267 109.68 17.288C109.68 16.3493 109.68 15.88 109.68 15.88H78.768C78.768 15.88 78.768 16.3493 78.768 17.288C78.768 18.2267 78.768 19.4853 78.768 21.064C78.768 22.6 78.768 24.3493 78.768 26.312C78.768 28.232 78.768 30.1947 78.768 32.2C78.768 34.1627 78.768 36.0613 78.768 37.896C78.768 39.688 78.768 41.2453 78.768 42.568C78.768 43.8907 78.768 44.8293 78.768 45.384C78.768 46.152 78.768 47.0267 78.768 48.008C78.768 48.9467 78.768 49.864 78.768 50.76C78.8107 51.656 78.832 52.4027 78.832 53C78.832 53.64 78.832 54.0027 78.832 54.088H70C70 54.0027 70 53.64 70 53C70.0427 52.36 70.064 51.5707 70.064 50.632C70.1067 49.6933 70.128 48.7333 70.128 47.752C70.1707 46.7707 70.192 45.896 70.192 45.128C70.192 44.5733 70.192 43.6773 70.192 42.44C70.192 41.16 70.192 39.6453 70.192 37.896C70.192 36.1467 70.192 34.312 70.192 32.392C70.192 30.4293 70.192 28.4667 70.192 26.504C70.192 24.5413 70.192 22.7067 70.192 21C70.192 19.2507 70.192 17.7573 70.192 16.52C70.192 15.2827 70.192 14.3867 70.192 13.832C70.192 12.936 70.192 11.912 70.192 10.76C70.192 9.56533 70.1493 8.52 70.064 7.624ZM112.88 42.44V50.632H74.416V42.44H112.88ZM172.272 13.832C172.272 14.9413 172.656 15.9013 173.424 16.712C174.235 17.48 175.195 17.864 176.304 17.864C177.456 17.864 178.416 17.48 179.184 16.712C179.995 15.9013 180.4 14.9413 180.4 13.832C180.4 12.68 179.995 11.72 179.184 10.952C178.416 10.1413 177.456 9.736 176.304 9.736C175.195 9.736 174.235 10.1413 173.424 10.952C172.656 11.72 172.272 12.68 172.272 13.832ZM168.048 13.832C168.048 12.2533 168.411 10.8453 169.136 9.608C169.904 8.37067 170.907 7.38933 172.144 6.664C173.381 5.896 174.768 5.512 176.304 5.512C177.883 5.512 179.291 5.896 180.528 6.664C181.765 7.38933 182.747 8.37067 183.472 9.608C184.24 10.8453 184.624 12.2533 184.624 13.832C184.624 15.3253 184.24 16.712 183.472 17.992C182.747 19.2293 181.765 20.232 180.528 21C179.291 21.7253 177.883 22.088 176.304 22.088C174.768 22.088 173.381 21.7253 172.144 21C170.907 20.232 169.904 19.2293 169.136 17.992C168.411 16.712 168.048 15.3253 168.048 13.832ZM128.24 34.76C129.221 33.9493 130.096 33.1813 130.864 32.456C131.632 31.7307 132.528 30.8773 133.552 29.896C134.277 29.128 135.109 28.2107 136.048 27.144C136.987 26.0773 137.989 24.8827 139.056 23.56C140.165 22.2373 141.296 20.8933 142.448 19.528C143.6 18.12 144.731 16.7547 145.84 15.432C147.717 13.1707 149.659 11.9333 151.664 11.72C153.669 11.464 155.909 12.5307 158.384 14.92C159.835 16.2427 161.307 17.672 162.8 19.208C164.336 20.744 165.829 22.28 167.28 23.816C168.773 25.352 170.16 26.824 171.44 28.232C172.891 29.7253 174.512 31.4533 176.304 33.416C178.139 35.3787 179.995 37.384 181.872 39.432C183.792 41.48 185.563 43.3787 187.184 45.128L180.144 52.68C178.736 50.888 177.221 49.0107 175.6 47.048C173.979 45.0853 172.4 43.1867 170.864 41.352C169.328 39.4747 167.92 37.8107 166.64 36.36C165.744 35.2507 164.72 34.0773 163.568 32.84C162.459 31.56 161.349 30.3013 160.24 29.064C159.131 27.8267 158.107 26.7173 157.168 25.736C156.229 24.7547 155.483 23.9653 154.928 23.368C153.861 22.344 152.944 21.8747 152.176 21.96C151.451 22.0027 150.619 22.6 149.68 23.752C149.083 24.5627 148.357 25.5227 147.504 26.632C146.651 27.7413 145.776 28.9147 144.88 30.152C143.984 31.3893 143.109 32.584 142.256 33.736C141.445 34.888 140.72 35.8907 140.08 36.744C139.355 37.768 138.629 38.8133 137.904 39.88C137.179 40.904 136.517 41.8427 135.92 42.696L128.24 34.76ZM236.272 13.832C236.272 14.9413 236.656 15.9013 237.424 16.712C238.235 17.48 239.195 17.864 240.304 17.864C241.456 17.864 242.416 17.48 243.184 16.712C243.995 15.9013 244.4 14.9413 244.4 13.832C244.4 12.68 243.995 11.72 243.184 10.952C242.416 10.1413 241.456 9.736 240.304 9.736C239.195 9.736 238.235 10.1413 237.424 10.952C236.656 11.72 236.272 12.68 236.272 13.832ZM232.048 13.832C232.048 12.2533 232.411 10.8453 233.136 9.608C233.904 8.37067 234.907 7.38933 236.144 6.664C237.381 5.896 238.768 5.512 240.304 5.512C241.883 5.512 243.291 5.896 244.528 6.664C245.765 7.38933 246.747 8.37067 247.472 9.608C248.24 10.8453 248.624 12.2533 248.624 13.832C248.624 15.3253 248.24 16.712 247.472 17.992C246.747 19.2293 245.765 20.232 244.528 21C243.291 21.7253 241.883 22.088 240.304 22.088C238.768 22.088 237.381 21.7253 236.144 21C234.907 20.232 233.904 19.2293 233.136 17.992C232.411 16.712 232.048 15.3253 232.048 13.832ZM192.24 34.76C193.221 33.9493 194.096 33.1813 194.864 32.456C195.632 31.7307 196.528 30.8773 197.552 29.896C198.277 29.128 199.109 28.2107 200.048 27.144C200.987 26.0773 201.989 24.8827 203.056 23.56C204.165 22.2373 205.296 20.8933 206.448 19.528C207.6 18.12 208.731 16.7547 209.84 15.432C211.717 13.1707 213.659 11.9333 215.664 11.72C217.669 11.464 219.909 12.5307 222.384 14.92C223.835 16.2427 225.307 17.672 226.8 19.208C228.336 20.744 229.829 22.28 231.28 23.816C232.773 25.352 234.16 26.824 235.44 28.232C236.891 29.7253 238.512 31.4533 240.304 33.416C242.139 35.3787 243.995 37.384 245.872 39.432C247.792 41.48 249.563 43.3787 251.184 45.128L244.144 52.68C242.736 50.888 241.221 49.0107 239.6 47.048C237.979 45.0853 236.4 43.1867 234.864 41.352C233.328 39.4747 231.92 37.8107 230.64 36.36C229.744 35.2507 228.72 34.0773 227.568 32.84C226.459 31.56 225.349 30.3013 224.24 29.064C223.131 27.8267 222.107 26.7173 221.168 25.736C220.229 24.7547 219.483 23.9653 218.928 23.368C217.861 22.344 216.944 21.8747 216.176 21.96C215.451 22.0027 214.619 22.6 213.68 23.752C213.083 24.5627 212.357 25.5227 211.504 26.632C210.651 27.7413 209.776 28.9147 208.88 30.152C207.984 31.3893 207.109 32.584 206.256 33.736C205.445 34.888 204.72 35.8907 204.08 36.744C203.355 37.768 202.629 38.8133 201.904 39.88C201.179 40.904 200.517 41.8427 199.92 42.696L192.24 34.76ZM307.312 15.688C306.373 16.2853 305.371 16.8613 304.304 17.416C303.28 17.9707 302.171 18.5467 300.976 19.144C299.995 19.656 298.779 20.2533 297.328 20.936C295.92 21.6187 294.384 22.3867 292.72 23.24C291.099 24.0507 289.456 24.9253 287.792 25.864C286.128 26.76 284.571 27.6773 283.12 28.616C280.475 30.3653 278.32 32.1787 276.656 34.056C275.035 35.9333 274.224 38.0027 274.224 40.264C274.224 42.5253 275.333 44.2747 277.552 45.512C279.771 46.7067 283.099 47.304 287.536 47.304C289.755 47.304 292.101 47.2187 294.576 47.048C297.093 46.8347 299.568 46.5573 302 46.216C304.432 45.832 306.587 45.4053 308.464 44.936L308.336 54.152C306.544 54.4507 304.581 54.728 302.448 54.984C300.357 55.24 298.075 55.432 295.6 55.56C293.168 55.688 290.565 55.752 287.792 55.752C284.592 55.752 281.627 55.496 278.896 54.984C276.208 54.5147 273.84 53.7253 271.792 52.616C269.787 51.5067 268.208 50.0133 267.056 48.136C265.947 46.2587 265.392 43.9547 265.392 41.224C265.392 38.4933 265.989 36.0187 267.184 33.8C268.379 31.5813 270 29.5333 272.048 27.656C274.139 25.7787 276.421 24.008 278.896 22.344C280.432 21.32 282.053 20.3387 283.76 19.4C285.467 18.4187 287.131 17.48 288.752 16.584C290.416 15.688 291.952 14.8773 293.36 14.152C294.811 13.384 296.005 12.7227 296.944 12.168C298.181 11.4427 299.269 10.7813 300.208 10.184C301.147 9.58666 302.043 8.94666 302.896 8.264L307.312 15.688ZM275.12 1.992C276.187 4.808 277.296 7.51733 278.448 10.12C279.643 12.7227 280.816 15.1547 281.968 17.416C283.163 19.6773 284.251 21.704 285.232 23.496L278 27.784C276.848 25.8213 275.653 23.624 274.416 21.192C273.179 18.76 271.941 16.2 270.704 13.512C269.467 10.7813 268.272 8.02933 267.12 5.256L275.12 1.992ZM343.024 13.704C344.859 13.8747 346.693 14.024 348.528 14.152C350.405 14.2373 352.304 14.28 354.224 14.28C358.149 14.28 362.053 14.1093 365.936 13.768C369.819 13.4267 373.403 12.8933 376.688 12.168V20.168C373.36 20.6373 369.755 21.0213 365.872 21.32C361.989 21.576 358.107 21.704 354.224 21.704C352.347 21.704 350.469 21.6827 348.592 21.64C346.757 21.5547 344.901 21.448 343.024 21.32V13.704ZM367.344 2.888C367.259 3.48533 367.173 4.14666 367.088 4.872C367.045 5.59733 367.003 6.32266 366.96 7.048C366.917 7.73066 366.875 8.648 366.832 9.8C366.789 10.952 366.768 12.2533 366.768 13.704C366.768 15.112 366.768 16.6053 366.768 18.184C366.768 21.0853 366.811 23.816 366.896 26.376C366.981 28.8933 367.088 31.24 367.216 33.416C367.344 35.5493 367.451 37.512 367.536 39.304C367.664 41.096 367.728 42.76 367.728 44.296C367.728 45.96 367.493 47.496 367.024 48.904C366.597 50.312 365.893 51.5493 364.912 52.616C363.931 53.6827 362.629 54.4933 361.008 55.048C359.429 55.6453 357.488 55.944 355.184 55.944C350.747 55.944 347.248 55.048 344.688 53.256C342.128 51.464 340.848 48.8827 340.848 45.512C340.848 43.336 341.424 41.4373 342.576 39.816C343.728 38.152 345.371 36.872 347.504 35.976C349.637 35.0373 352.155 34.568 355.056 34.568C358.085 34.568 360.837 34.888 363.312 35.528C365.787 36.168 368.048 37.0213 370.096 38.088C372.144 39.1547 373.957 40.328 375.536 41.608C377.157 42.8453 378.608 44.04 379.888 45.192L375.472 51.912C373.04 49.608 370.672 47.624 368.368 45.96C366.064 44.296 363.76 43.016 361.456 42.12C359.195 41.224 356.848 40.776 354.416 40.776C352.624 40.776 351.152 41.1173 350 41.8C348.891 42.4827 348.336 43.4427 348.336 44.68C348.336 45.96 348.912 46.8987 350.064 47.496C351.216 48.0933 352.624 48.392 354.288 48.392C355.611 48.392 356.656 48.1787 357.424 47.752C358.192 47.2827 358.725 46.6213 359.024 45.768C359.365 44.872 359.536 43.8053 359.536 42.568C359.536 41.4587 359.493 40.008 359.408 38.216C359.323 36.424 359.216 34.4187 359.088 32.2C359.003 29.9813 358.917 27.6773 358.832 25.288C358.747 22.856 358.704 20.488 358.704 18.184C358.704 15.752 358.683 13.5547 358.64 11.592C358.64 9.58667 358.64 8.09333 358.64 7.112C358.64 6.64266 358.597 5.98133 358.512 5.128C358.427 4.27467 358.32 3.528 358.192 2.888H367.344ZM336.112 3.592C335.984 4.01867 335.792 4.616 335.536 5.384C335.323 6.152 335.131 6.89867 334.96 7.624C334.832 8.34933 334.725 8.904 334.64 9.288C334.427 10.184 334.192 11.4 333.936 12.936C333.68 14.4293 333.403 16.136 333.104 18.056C332.848 19.9333 332.592 21.8747 332.336 23.88C332.08 25.8427 331.888 27.72 331.76 29.512C331.632 31.2613 331.568 32.776 331.568 34.056C331.568 34.696 331.568 35.4 331.568 36.168C331.611 36.8933 331.696 37.576 331.824 38.216C332.123 37.448 332.421 36.7013 332.72 35.976C333.061 35.2507 333.403 34.5253 333.744 33.8C334.085 33.0747 334.405 32.3493 334.704 31.624L338.608 34.824C338.011 36.5733 337.392 38.408 336.752 40.328C336.155 42.248 335.6 44.0613 335.088 45.768C334.619 47.4747 334.256 48.904 334 50.056C333.915 50.4827 333.829 50.9947 333.744 51.592C333.701 52.1893 333.68 52.68 333.68 53.064C333.68 53.4053 333.68 53.8107 333.68 54.28C333.723 54.792 333.765 55.2613 333.808 55.688L326.576 56.264C325.893 54.0027 325.296 51.1227 324.784 47.624C324.272 44.0827 324.016 40.136 324.016 35.784C324.016 33.3947 324.123 30.8987 324.336 28.296C324.549 25.6507 324.784 23.112 325.04 20.68C325.339 18.248 325.637 16.0293 325.936 14.024C326.235 11.976 326.469 10.3333 326.64 9.096C326.768 8.2 326.896 7.19733 327.024 6.088C327.152 4.936 327.237 3.848 327.28 2.824L336.112 3.592ZM409.136 36.552C408.923 34.8453 409.051 33.352 409.52 32.072C410.032 30.792 410.736 29.64 411.632 28.616C412.571 27.592 413.595 26.6533 414.704 25.8C415.856 24.9467 416.923 24.1147 417.904 23.304C418.928 22.4933 419.76 21.6613 420.4 20.808C421.04 19.9547 421.36 19.016 421.36 17.992C421.36 16.712 421.04 15.624 420.4 14.728C419.76 13.832 418.821 13.1493 417.584 12.68C416.389 12.2107 414.939 11.976 413.232 11.976C411.269 11.976 409.477 12.4027 407.856 13.256C406.235 14.1093 404.635 15.368 403.056 17.032L397.808 12.168C399.856 9.82133 402.267 7.944 405.04 6.536C407.856 5.08533 410.949 4.36 414.32 4.36C417.435 4.36 420.187 4.82933 422.576 5.768C425.008 6.70667 426.907 8.136 428.272 10.056C429.68 11.9333 430.384 14.3013 430.384 17.16C430.384 18.7387 430.043 20.1253 429.36 21.32C428.72 22.472 427.867 23.5173 426.8 24.456C425.776 25.352 424.688 26.2267 423.536 27.08C422.384 27.8907 421.317 28.744 420.336 29.64C419.355 30.536 418.587 31.5387 418.032 32.648C417.477 33.7573 417.264 35.0587 417.392 36.552H409.136ZM413.296 53.576C411.675 53.576 410.331 53.0427 409.264 51.976C408.197 50.9093 407.664 49.5653 407.664 47.944C407.664 46.28 408.197 44.9147 409.264 43.848C410.331 42.7813 411.675 42.248 413.296 42.248C414.917 42.248 416.261 42.7813 417.328 43.848C418.395 44.9147 418.928 46.28 418.928 47.944C418.928 49.5653 418.395 50.9093 417.328 51.976C416.261 53.0427 414.917 53.576 413.296 53.576Z" fill="white"/>
</svg>
