<svg width="79" height="80" viewBox="0 0 79 80" fill="none" xmlns="http://www.w3.org/2000/svg">
<g clip-path="url(#clip0_7412_87182)">
<path d="M49.4473 64.2377C37.0711 64.2377 27.0382 54.2974 27.0382 42.0354C27.0382 29.7734 37.0711 19.8331 49.4473 19.8331C61.8236 19.8331 71.8565 29.7734 71.8565 42.0354C71.8565 54.2974 61.8236 64.2377 49.4473 64.2377Z" fill="#719ED4"/>
<path d="M49.4473 65.2229C62.3521 65.2229 72.8495 54.821 72.8495 42.0367C72.8495 29.2524 62.3507 18.8505 49.4473 18.8505C36.5439 18.8505 26.0451 29.2524 26.0451 42.0367C26.0451 54.821 36.5439 65.2229 49.4473 65.2229ZM49.4473 20.8183C61.257 20.8183 70.8634 30.3373 70.8634 42.0367C70.8634 53.7361 61.2557 63.2551 49.4473 63.2551C37.639 63.2551 28.0313 53.7361 28.0313 42.0367C28.0313 30.3373 37.639 20.8183 49.4473 20.8183Z" fill="#231F20"/>
<path d="M48.9084 54.3737C49.4897 54.3737 50.075 54.3382 50.6655 54.2635C54.3425 53.7964 57.3218 52.373 59.5185 50.0313C61.3815 48.0464 62.2633 45.8412 62.7374 44.6565C63.5014 42.7464 63.7556 37.0004 61.5165 32.826C60.1514 30.2809 58.1281 28.7014 55.5038 28.1294C53.1389 27.6138 49.7386 27.4249 46.9726 29.4465C44.6885 31.1153 43.7113 33.6524 43.5577 35.472C43.4452 36.8075 43.3988 38.7675 44.2939 40.3772C45.2354 42.0682 47.0176 43.0744 49.593 43.3696C51.2084 43.5532 52.4888 43.1662 53.3998 42.2164C55.1886 40.3496 54.6974 37.1001 54.6352 36.7367C54.5438 36.2014 54.0327 35.8394 53.4911 35.9299C52.9509 36.0204 52.5868 36.5268 52.6768 37.0607C52.7973 37.7862 52.9019 39.8826 51.9565 40.8639C51.4931 41.3453 50.7939 41.5251 49.8207 41.4136C45.8974 40.9649 45.2698 38.7793 45.5359 35.636C45.6485 34.311 46.4006 32.3091 48.151 31.03C49.8909 29.7588 52.2213 29.4295 55.0774 30.0513C57.1073 30.4934 58.683 31.7371 59.7621 33.7495C61.7284 37.4149 61.4437 42.547 60.8902 43.9311C60.4347 45.0711 59.6707 46.9773 58.0633 48.6919C56.191 50.6873 53.6169 51.9047 50.4113 52.3114C42.9685 53.2559 35.6277 46.6729 35.5548 46.606C35.151 46.2387 34.522 46.2649 34.1513 46.6663C33.7805 47.0665 33.807 47.6896 34.2122 48.0569C34.5154 48.3337 41.2551 54.3737 48.9071 54.3737H48.9084Z" fill="#231F20"/>
<path d="M27.0382 9.96374L24.7303 21.3233H19.3491L23.193 8.65973L27.0382 9.96374Z" fill="#BA715B"/>
<path d="M18.0131 22.3073H25.5433L28.1822 9.31174L22.5389 7.39771L18.0131 22.3073ZM23.9173 20.3394H20.6838L23.8471 9.92177L25.8928 10.6158L23.9173 20.3408V20.3394Z" fill="#231F20"/>
<path d="M25.7975 11.9513C22.7408 11.9513 20.2628 9.49614 20.2628 6.46759C20.2628 3.43904 22.7408 0.983917 25.7975 0.983917C28.8543 0.983917 31.3323 3.43904 31.3323 6.46759C31.3323 9.49614 28.8543 11.9513 25.7975 11.9513Z" fill="#BA715B"/>
<path d="M25.7975 12.9352C29.3978 12.9352 32.3253 10.0333 32.3253 6.46759C32.3253 2.90189 29.3978 0 25.7975 0C22.1973 0 19.2697 2.90189 19.2697 6.46759C19.2697 10.0333 22.1986 12.9352 25.7975 12.9352ZM25.7975 1.96783C28.3014 1.96783 30.3392 3.98682 30.3392 6.46759C30.3392 8.94836 28.3014 10.9673 25.7975 10.9673C23.2936 10.9673 21.2558 8.94836 21.2558 6.46759C21.2558 3.98682 23.2936 1.96783 25.7975 1.96783Z" fill="#231F20"/>
<path d="M7.18593 12.6807L11.8733 23.2964L17.1326 22.1656L10.6643 10.5987L7.18593 12.6807Z" fill="#BA715B"/>
<path d="M11.2893 24.4299L18.6487 22.8465L11.0324 9.22781L5.92669 12.2845L11.2893 24.4299ZM15.6165 21.4861L12.4572 22.1656L8.44514 13.0782L10.2949 11.971L15.6165 21.4874V21.4861Z" fill="#231F20"/>
<path d="M7.64933 14.4872C4.59257 14.4872 2.11458 12.032 2.11458 9.00348C2.11458 5.97493 4.59257 3.51981 7.64933 3.51981C10.7061 3.51981 13.1841 5.97493 13.1841 9.00348C13.1841 12.032 10.7061 14.4872 7.64933 14.4872Z" fill="#BA715B"/>
<path d="M7.63609 15.4737C8.10085 15.4737 8.56826 15.4238 9.03434 15.3241C10.7385 14.9581 12.1963 13.9558 13.1391 12.5023C14.0818 11.0487 14.3983 9.31963 14.0275 7.63124C13.6581 5.94284 12.6465 4.49846 11.1794 3.5644C9.71228 2.63034 7.96712 2.3168 6.26299 2.68281C4.55887 3.04883 3.10103 4.05111 2.15827 5.50467C1.21551 6.95824 0.899055 8.6873 1.2698 10.3757C1.63923 12.0641 2.65084 13.5085 4.11794 14.4425C5.18385 15.1221 6.39805 15.4724 7.63609 15.4724V15.4737ZM7.6586 4.50239C8.5206 4.50239 9.36537 4.7464 10.1069 5.21868C11.1278 5.86938 11.8309 6.87428 12.0877 8.04842C12.3446 9.22255 12.1248 10.4269 11.4694 11.437C10.8126 12.4485 9.79835 13.1451 8.61328 13.3996C7.42821 13.6541 6.21268 13.4363 5.19312 12.7869C4.17224 12.1362 3.46914 11.1313 3.21226 9.95721C2.95539 8.78307 3.17518 7.57876 3.83062 6.56861C4.48737 5.55715 5.50164 4.86054 6.68671 4.60603C7.00979 4.5365 7.33552 4.50239 7.65992 4.50239H7.6586Z" fill="#231F20"/>
<path d="M77.95 62.3092C78.6213 66.5283 73.2163 80.2834 33.566 78.9216C-6.08426 77.5599 -8.27962 22.9776 20.1555 18.4923C48.5906 14.007 36.5161 50.2793 51.5169 53.8791C66.5177 57.4789 76.8761 55.5661 77.95 62.3092Z" fill="#BA715B"/>
<path d="M38.8969 80C48.3033 80 56.2638 79.0791 62.6169 77.2516C68.619 75.5252 73.1077 73.0313 75.9572 69.8408C77.6799 67.9123 79.3655 64.8819 78.9311 62.1558C78.5366 59.6802 77.0615 58.0417 74.2888 56.9987C71.9213 56.1093 68.811 55.7 64.8718 55.1818C61.0306 54.6767 56.6769 54.1034 51.7526 52.9214C49.2633 52.3245 47.444 50.6846 46.0245 47.7618C44.6912 45.0147 43.8887 41.5316 43.0387 37.8426C41.7808 32.3865 40.4805 26.7454 37.2722 22.6812C33.5475 17.9623 27.8989 16.2739 20.0019 17.5202C13.4277 18.5579 8.04922 22.2036 4.44899 28.0651C1.18772 33.373 -0.365448 40.1883 0.0741501 47.2554C0.593201 55.5793 3.77634 63.3627 9.03701 69.1704C15.0882 75.8505 23.5598 79.5632 33.5329 79.9056C35.3695 79.9685 37.1583 80 38.8969 80ZM24.6985 19.0958C26.678 19.0958 28.4523 19.3529 30.0042 19.8672C32.3042 20.6294 34.1698 21.9465 35.7071 23.8947C38.6426 27.6139 39.8926 33.0372 41.1028 38.2821C41.9781 42.0813 42.8056 45.6693 44.2357 48.6158C45.9093 52.0647 48.2159 54.0982 51.2865 54.8354C56.3115 56.0411 60.7207 56.6209 64.611 57.1339C72.5516 58.1794 76.3942 58.8419 76.9701 62.4641C77.1741 63.7471 76.6418 66.1072 74.4702 68.5381C71.9094 71.4045 67.6193 73.7646 62.0634 75.3638C54.7398 77.4707 45.1639 78.3378 33.6018 77.9417C13.0914 77.2372 2.97924 61.9629 2.05634 47.1373C1.64057 40.4677 3.09312 34.0591 6.14517 29.091C9.43292 23.7385 14.3334 20.4103 20.3144 19.4671C21.8702 19.2217 23.3347 19.0997 24.6998 19.0997L24.6985 19.0958Z" fill="#231F20"/>
<path d="M10.9517 23.6414C6.81519 35.6373 0.790512 59.6133 17.1326 66.8693C36.438 75.4412 59.341 71.9358 73.8347 68.8673C69.1924 73.9509 58.1242 80.3214 32.6405 78.1253C0.711067 75.373 -5.71613 37.2155 10.9517 23.6414Z" fill="#8B3E26"/>
<path d="M23.4737 46.4945C23.5426 46.4945 23.6101 46.4932 23.6789 46.4892C25.6717 46.3751 27.2567 44.6998 27.2871 42.6756C27.2924 42.3279 27.013 42.0432 26.6621 42.038C26.3073 42.0288 26.0239 42.3096 26.0186 42.6572C25.9974 44.0268 24.9382 45.159 23.6061 45.2351C22.9414 45.2718 22.2648 45.0252 21.751 44.5529C21.2095 44.0557 20.9036 43.3814 20.8904 42.6546C20.8838 42.3122 20.6017 42.038 20.2561 42.038C19.9105 42.038 19.6285 42.3122 19.6219 42.6546C19.6086 43.3814 19.3028 44.0557 18.7612 44.5529C18.2475 45.0238 17.5735 45.2718 16.9062 45.2351C15.5741 45.159 14.5148 44.0268 14.4936 42.6572C14.4883 42.3135 14.205 42.038 13.8594 42.038C13.8567 42.038 13.8528 42.038 13.8501 42.038C13.4992 42.0432 13.2198 42.3292 13.2251 42.6756C13.2556 44.6998 14.8406 46.3751 16.8333 46.4892C17.8423 46.5469 18.8592 46.177 19.6245 45.4738C19.8682 45.2495 20.08 45.0015 20.2575 44.7326C20.4336 45.0002 20.6454 45.2495 20.8904 45.4738C21.6041 46.1285 22.5362 46.4945 23.4764 46.4945H23.4737Z" fill="black"/>
<path d="M29.2825 39.3972C27.428 39.3972 25.9246 37.3955 25.9246 34.9263C25.9246 32.4571 27.428 30.4554 29.2825 30.4554C31.1371 30.4554 32.6405 32.4571 32.6405 34.9263C32.6405 37.3955 31.1371 39.3972 29.2825 39.3972Z" fill="black"/>
<path d="M28.5133 34.9958C27.6306 34.9958 26.9151 34.2599 26.9151 33.352C26.9151 32.4442 27.6306 31.7082 28.5133 31.7082C29.3959 31.7082 30.1115 32.4442 30.1115 33.352C30.1115 34.2599 29.3959 34.9958 28.5133 34.9958Z" fill="white"/>
<path d="M31.1429 35.7606C30.7217 35.7606 30.3802 35.3871 30.3802 34.9263C30.3802 34.4655 30.7217 34.0919 31.1429 34.0919C31.5641 34.0919 31.9056 34.4655 31.9056 34.9263C31.9056 35.3871 31.5641 35.7606 31.1429 35.7606Z" fill="white"/>
<path d="M10.3267 38.9984C8.55477 38.9984 7.11837 37.086 7.11837 34.7269C7.11837 32.3678 8.55477 30.4554 10.3267 30.4554C12.0986 30.4554 13.535 32.3678 13.535 34.7269C13.535 37.086 12.0986 38.9984 10.3267 38.9984Z" fill="black"/>
<path d="M9.5918 34.7925C8.74864 34.7925 8.06512 34.0894 8.06512 33.2222C8.06512 32.3549 8.74864 31.6518 9.5918 31.6518C10.435 31.6518 11.1185 32.3549 11.1185 33.2222C11.1185 34.0894 10.435 34.7925 9.5918 34.7925Z" fill="white"/>
<path d="M12.105 35.5245C11.702 35.5245 11.3754 35.1674 11.3754 34.7269C11.3754 34.2864 11.702 33.9293 12.105 33.9293C12.5079 33.9293 12.8345 34.2864 12.8345 34.7269C12.8345 35.1674 12.5079 35.5245 12.105 35.5245Z" fill="white"/>
</g>
<defs>
<clipPath id="clip0_7412_87182">
<rect width="79" height="80" fill="white" transform="matrix(-1 0 0 1 79 0)"/>
</clipPath>
</defs>
</svg>
