<svg width="104" height="131" viewBox="0 0 104 131" fill="none" xmlns="http://www.w3.org/2000/svg">
<path d="M64.422 53.3422C71.2143 55.029 77.7085 55.7877 83.8798 55.7606C79.9395 60.0961 73.3527 65.45 63.7717 67.0623C55.5726 68.4443 46.6712 65.6736 39.3392 59.4729C36.8124 57.33 29.1485 49.8422 28.1662 38.5743C31.0746 40.3379 34.3127 42.0473 38.0385 43.7183C45.646 47.128 54.7235 50.9396 64.422 53.3422Z" fill="#FBB040"/>
<g opacity="0.2">
<path d="M64.422 53.3422C71.2143 55.029 77.7085 55.7877 83.8798 55.7606C79.9395 60.0961 73.3527 65.45 63.7717 67.0623C55.5726 68.4443 46.6712 65.6736 39.3392 59.4729C36.8124 57.33 29.1485 49.8422 28.1662 38.5743C31.0746 40.3379 34.3127 42.0473 38.0385 43.7183C45.646 47.128 54.7235 50.9396 64.422 53.3422Z" fill="#2A1A03"/>
</g>
<path d="M64.4217 53.3412C71.214 55.028 77.7083 55.7867 83.8796 55.7596C79.9392 60.0951 73.3525 65.449 63.7714 67.0613C63.0805 67.1787 62.385 67.2532 61.685 67.3119C48.6152 65.79 37.4106 55.5631 34.247 41.9108C35.4596 42.5182 36.7083 43.1211 38.0383 43.7172C45.6458 47.1269 54.7233 50.9386 64.4217 53.3412Z" fill="#FBB040"/>
<path d="M68.5385 65.888C73.7862 63.4876 78.5011 60.0237 82.166 55.7424C82.7395 55.7537 83.3108 55.765 83.8798 55.7627C80.6327 59.3373 75.5792 63.596 68.5385 65.888Z" fill="#FDDFB3"/>
<path d="M89.7283 46.823C68.7123 48.7311 46.9896 38.292 35.1911 32.5746L33.7707 31.9016C32.443 31.2829 30.5507 30.4045 28.882 29.4358C29.6272 26.419 30.8081 23.3796 32.522 20.3832C40.1069 7.135 52.8538 4.50207 59.7793 4.11142C68.2087 3.63271 76.8775 7.35178 82.9743 14.0538C90.8347 22.7609 93.6935 36.691 89.7283 46.823Z" fill="#FBB040"/>
<g opacity="0.2">
<path d="M89.7283 46.823C68.7123 48.7311 46.9896 38.292 35.1911 32.5746L33.7707 31.9016C32.443 31.2829 30.5507 30.4045 28.882 29.4358C29.6272 26.419 30.8081 23.3796 32.522 20.3832C40.1069 7.135 52.8538 4.50207 59.7793 4.11142C68.2087 3.63271 76.8775 7.35178 82.9743 14.0538C90.8347 22.7609 93.6935 36.691 89.7283 46.823Z" fill="#2A1A03"/>
</g>
<path d="M58.6209 4.19943C59.0228 4.1633 59.4112 4.1362 59.7815 4.11362C68.211 3.63491 76.8797 7.35397 82.9765 14.056C90.8347 22.7609 93.6934 36.6887 89.7282 46.8207C68.7123 48.7288 46.9895 38.2897 35.191 32.5722L33.8159 31.9219C35.7872 17.145 46.0682 8.73366 58.6209 4.19943Z" fill="#FBB040"/>
<path d="M89.9992 34.7626C89.0282 17.9602 74.5426 6.55236 59.1086 4.16331C59.3345 4.14524 59.567 4.12717 59.7815 4.11362C68.211 3.63491 76.8797 7.35397 82.9766 14.056C90.8347 22.7609 93.6934 36.6887 89.7283 46.8207C89.0282 46.8839 88.326 46.9314 87.6237 46.9698C89.1953 43.2168 90.0557 39.1161 89.9992 34.7626Z" fill="#FDDFB3"/>
<path d="M27.43 21.6003C25.4474 21.6613 23.3948 22.4742 22.5368 24.2445C22.0603 25.2268 22.0016 26.2994 22.3719 27.3358C22.5435 27.8281 22.81 28.2978 23.1487 28.7494C25.05 31.2717 29.2545 33.2317 32.4542 34.7265L33.8362 35.3791C46.1924 41.363 69.1865 52.5112 91.5618 49.8467C96.9857 49.2031 98.2209 46.9111 98.2999 45.1047C98.388 43.1379 96.9699 41.2817 95.4479 40.2114C95.4999 39.6988 95.518 39.184 95.5451 38.6646C97.7648 40.103 100.382 42.745 100.486 45.5744C100.651 49.9573 93.9689 51.8451 92.167 52.1138C83.9431 53.3309 74.8588 52.728 65.1648 50.3208C55.7102 47.977 46.7908 44.2285 39.3166 40.873C33.2785 38.1656 28.4597 35.3994 24.5849 32.4097C19.3687 28.3994 19.9287 25.3578 20.4029 24.2423C21.471 21.738 25.2849 20.3945 28.0871 20.2296C27.8568 20.6858 27.6423 21.1442 27.43 21.6003Z" fill="#FBD901"/>
<g opacity="0.2">
<path d="M27.43 21.6003C25.4474 21.6613 23.3948 22.4742 22.5368 24.2445C22.0603 25.2268 22.0016 26.2994 22.3719 27.3358C22.5435 27.8281 22.81 28.2978 23.1487 28.7494C25.05 31.2717 29.2545 33.2317 32.4542 34.7265L33.8362 35.3791C46.1924 41.363 69.1865 52.5112 91.5618 49.8467C96.9857 49.2031 98.2209 46.9111 98.2999 45.1047C98.388 43.1379 96.9699 41.2817 95.4479 40.2114C95.4999 39.6988 95.518 39.184 95.5451 38.6646C97.7648 40.103 100.382 42.745 100.486 45.5744C100.651 49.9573 93.9689 51.8451 92.167 52.1138C83.9431 53.3309 74.8588 52.728 65.1648 50.3208C55.7102 47.977 46.7908 44.2285 39.3166 40.873C33.2785 38.1656 28.4597 35.3994 24.5849 32.4097C19.3687 28.3994 19.9287 25.3578 20.4029 24.2423C21.471 21.738 25.2849 20.3945 28.0871 20.2296C27.8568 20.6858 27.6423 21.1442 27.43 21.6003Z" fill="#002C02"/>
</g>
<path d="M91.5595 49.8445C96.9834 49.2009 98.2186 46.9089 98.2977 45.1025C98.3857 43.1357 96.9676 41.2796 95.4457 40.2092C95.4976 39.6966 95.5157 39.1818 95.5428 38.6624C97.7625 40.1008 100.38 42.7428 100.483 45.5722C100.648 49.9551 93.9667 51.8429 92.1647 52.1116C83.9408 53.3287 74.8565 52.7258 65.1626 50.3186C55.708 47.9748 46.7886 44.2264 39.3143 40.8708C38.7408 40.6134 38.2056 40.356 37.6569 40.0963C37.6704 39.1299 37.6862 38.1611 37.6659 37.2195C50.5912 43.3728 71.3294 52.2538 91.5595 49.8445Z" fill="#FBD901"/>
<g opacity="0.2">
<path d="M68.7869 37.3575C68.0327 38.1817 67.0482 38.7553 66.0659 39.2905C65.3998 39.654 64.7043 40.0108 63.9501 40.083C62.8459 40.1869 61.7846 39.6676 60.8385 39.0895C59.5378 38.2924 58.2529 37.2604 57.8013 35.804C57.3429 34.3204 57.8781 32.6517 58.892 31.4752C59.9059 30.2988 61.3398 29.5559 62.8098 29.0546C63.6814 28.7588 64.605 28.5352 65.515 28.6684C69.3311 29.2262 71.3905 34.5169 68.7869 37.3575Z" fill="#5E2708"/>
</g>
<g opacity="0.2">
<path d="M56.9835 19.1649C55.7777 20.0726 53.9689 20.181 52.7292 19.3207C51.4105 18.4062 51.0108 16.401 51.8734 15.0484C52.0992 14.6961 52.395 14.389 52.7337 14.1429C54.4228 12.9235 57.4757 13.5152 58.0312 15.5226C58.1689 16.0284 59.0361 17.6181 56.9835 19.1649Z" fill="#582E08"/>
</g>
<g opacity="0.2">
<path d="M79.5648 24.4729C74.5812 19.3448 80.6125 10.6986 85.9461 16.7074C90.4419 21.7745 85.1467 30.2197 79.5648 24.4729Z" fill="#4C2E02"/>
</g>
<path d="M85.9465 16.7082C87.8478 18.8511 87.9946 21.5946 87.114 23.6156C85.5423 20.3572 83.4017 17.4375 80.85 14.9039C82.3426 14.3439 84.1807 14.721 85.9465 16.7082Z" fill="#C99D59"/>
<path d="M42.2386 26.8597C41.5092 29.1471 39.2218 30.8926 36.8215 30.8181C34.4234 30.7436 32.1856 28.7316 32.0208 26.3358C31.874 24.1906 33.3147 22.138 35.2295 21.1648C39.0863 19.2048 43.6115 22.5535 42.2386 26.8597Z" fill="#EFA12B"/>
<g opacity="0.2">
<path d="M42.2387 26.8598C41.5093 29.1472 39.2219 30.8927 36.8215 30.8182C35.8596 30.7888 34.9338 30.4388 34.1479 29.8856C34.8141 26.4285 35.9589 23.3439 37.4922 20.5959C40.6129 20.5372 43.3451 23.3846 42.2387 26.8598Z" fill="#583B04"/>
</g>
<g opacity="0.2">
<path d="M37.4899 20.5959C35.9566 23.3462 34.8118 26.4307 34.1456 29.8856C32.9692 29.0591 32.1179 27.7698 32.0208 26.3359C31.874 24.1907 33.3147 22.1381 35.2295 21.1649C35.9747 20.7855 36.7424 20.6094 37.4899 20.5959Z" fill="#002C02"/>
</g>
<g opacity="0.2">
<path d="M37.4899 20.5959C35.9566 23.3462 34.8118 26.4307 34.1456 29.8856C32.9692 29.0591 32.1179 27.7698 32.0208 26.3359C31.874 24.1907 33.3147 22.1381 35.2295 21.1649C35.9747 20.7855 36.7424 20.6094 37.4899 20.5959Z" fill="#002C02"/>
</g>
<g opacity="0.2">
<path d="M65.0496 66.2842C65.8761 64.7667 67.4274 63.7641 69.0532 63.1815C69.9406 62.8632 70.9026 62.6509 71.8261 62.8451C72.7497 63.0393 73.619 63.719 73.7974 64.6448C73.89 65.1213 73.7748 65.5932 73.5671 66.0312C70.9026 67.3138 67.9128 68.3481 64.5664 68.96C64.4512 68.05 64.6115 67.0903 65.0496 66.2842Z" fill="#002C02"/>
</g>
<path d="M73.7975 64.6425C73.8901 65.1189 73.7749 65.5908 73.5672 66.0289C70.9027 67.3115 67.9129 68.3457 64.5665 68.9576C64.5032 68.4586 64.5326 67.9437 64.6365 67.447C67.5991 66.4376 70.442 65.0963 73.084 63.466C73.443 63.7731 73.7072 64.175 73.7975 64.6425Z" fill="#C99D59"/>
<path d="M43.3494 60.5042C44.9707 58.7496 47.5291 57.9209 49.8708 58.3884C50.3359 58.4809 50.7965 58.6232 51.2075 58.8603C52.8762 59.8177 53.3369 62.1639 52.6549 63.9613C51.9956 65.7 50.2862 66.811 48.4323 67.213C46.3233 66.3888 44.291 65.3591 42.3581 64.1419C42.2836 63.8213 42.1526 63.5436 42.1504 63.171C42.1391 62.1707 42.672 61.2381 43.3494 60.5042Z" fill="#EFA12B"/>
<g opacity="0.2">
<path d="M48.4326 67.2139C46.3235 66.3897 44.2913 65.36 42.3584 64.1429C42.2838 63.8222 42.1529 63.5445 42.1506 63.1719C42.1393 62.1738 42.6745 61.239 43.3519 60.5074C43.72 60.11 44.1422 59.7667 44.5916 59.4664C46.9242 61.5574 49.5323 63.3029 52.3368 64.6261C51.5352 65.9855 50.0381 66.8661 48.4326 67.2139Z" fill="#002C02"/>
</g>
<g opacity="0.2">
<path d="M48.4326 67.2139C46.3235 66.3897 44.2913 65.36 42.3584 64.1429C42.2838 63.8222 42.1529 63.5445 42.1506 63.1719C42.1393 62.1738 42.6745 61.239 43.3519 60.5074C43.72 60.11 44.1422 59.7667 44.5916 59.4664C46.9242 61.5574 49.5323 63.3029 52.3368 64.6261C51.5352 65.9855 50.0381 66.8661 48.4326 67.2139Z" fill="#002C02"/>
</g>
<g opacity="0.2">
<path d="M51.2081 58.8617C52.8768 59.8192 53.3375 62.1653 52.6555 63.9628C52.5675 64.1953 52.4591 64.4144 52.3349 64.6221C49.5304 63.2989 46.9223 61.5556 44.5897 59.4624C46.1252 58.4463 48.0604 58.024 49.8713 58.3875C50.3365 58.4824 50.7971 58.6269 51.2081 58.8617Z" fill="#642909"/>
</g>
<path d="M29.7331 17.1745C25.6166 16.75 19.3481 18.7868 17.5417 23.0229C16.9568 24.3981 16.2162 27.5255 19.0862 31.3372C19.9375 32.4662 21.1027 33.6562 22.6833 34.8779C23.083 35.1872 23.5369 35.483 23.9546 35.7856C23.853 43.0566 26.3595 50.3841 30.9728 56.508C32.628 58.7051 34.5473 60.7487 36.706 62.5778C44.9548 69.5552 55.062 72.6556 64.4398 71.0772C77.5728 68.8665 85.6906 60.4168 89.4164 55.4828C90.4845 55.3835 91.5774 55.3474 92.6207 55.1915C95.7549 54.7286 103.841 52.0754 103.59 45.457C103.403 40.4982 98.7604 36.6482 95.5855 35.1579C95.2152 26.5862 91.8732 17.7864 85.9819 11.3193C79.0721 3.71634 69.193 -0.497254 59.5488 0.0469433C52.0203 0.475979 38.3409 3.31665 29.7331 17.1745ZM89.7281 46.8231C68.7121 48.7312 46.9893 38.2921 35.1909 32.5746L33.7705 31.9017C32.4428 31.283 30.5505 30.4046 28.8818 29.4359C29.627 26.4191 30.8079 23.3797 32.5218 20.3832C40.1067 7.13506 52.8535 4.50214 59.7791 4.11149C68.2085 3.63278 76.8773 7.35184 82.9741 14.0538C90.8345 22.761 93.6932 36.6911 89.7281 46.8231ZM25.4992 26.6291C25.4382 26.5184 25.3411 26.4033 25.305 26.2949C25.2124 26.042 25.2259 25.8388 25.3388 25.6017C25.4472 25.3759 25.6888 25.2042 25.9756 25.062C25.7905 25.5813 25.6573 26.1052 25.4992 26.6291ZM28.1682 38.5721C31.0766 40.3356 34.3147 42.045 38.0405 43.716C45.6458 47.1257 54.7233 50.9373 64.4217 53.3422C71.214 55.029 77.7083 55.7877 83.8796 55.7606C79.9392 60.0961 73.3525 65.45 63.7714 67.0623C55.5723 68.4442 46.6709 65.6736 39.3389 59.4729C36.8144 57.3277 29.1505 49.8422 28.1682 38.5721ZM28.0892 20.2319C27.8566 20.6881 27.6421 21.1442 27.4298 21.6003C25.4472 21.6613 23.3946 22.4742 22.5366 24.2446C22.0601 25.2268 22.0014 26.2994 22.3717 27.3359C22.5433 27.8281 22.8098 28.2978 23.1485 28.7494C25.0498 31.2717 29.2543 33.2317 32.454 34.7266L33.836 35.3792C46.1922 41.3631 69.1863 52.5112 91.5616 49.8467C96.9855 49.2031 98.2207 46.9112 98.2997 45.1047C98.3878 43.1379 96.9697 41.2818 95.4477 40.2114C95.4997 39.6989 95.5178 39.184 95.5449 38.6647C97.7646 40.1031 100.382 42.745 100.486 45.5744C100.65 49.9573 93.9687 51.8451 92.1668 52.1138C83.9429 53.3309 74.8586 52.728 65.1646 50.3209C55.71 47.977 46.7906 44.2286 39.3164 40.8731C33.2783 38.1656 28.4595 35.3995 24.5847 32.4098C19.3685 28.3994 19.9285 25.3578 20.4027 24.2423C21.473 21.7381 25.2869 20.3945 28.0892 20.2319ZM95.1903 44.9647C95.1745 45.3102 94.8291 45.6286 94.3007 45.9131C94.4903 45.2673 94.6981 44.6373 94.8471 43.9757C95.0526 44.3121 95.2061 44.6531 95.1903 44.9647Z" fill="#002C02"/>
<path d="M0 84.5C0 86.4335 1.56651 88 3.49998 88C5.43344 88 7 86.4335 7 84.5C7 82.5665 5.43344 81 3.49998 81C1.56651 81 0 82.5665 0 84.5Z" fill="white"/>
<path d="M75.4456 76C75.4456 97.0662 75.5355 103.148 98.8912 103.148C75.3558 103.148 75.4456 108.349 75.4456 131C75.4456 108.349 75.3558 103.148 52 103.148C75.5355 103.148 75.4456 97.0662 75.4456 76Z" fill="white"/>
</svg>
