<svg width="154" height="70" viewBox="0 0 154 70" fill="none" xmlns="http://www.w3.org/2000/svg">
<rect width="154" height="70" rx="20" fill="white" fill-opacity="0.1"/>
<path d="M71.333 37.5713C71.333 37.626 71.3079 37.6738 71.2578 37.7148C71.2122 37.7559 71.1758 37.7969 71.1484 37.8379C71.1257 37.8652 71.1165 37.8949 71.1211 37.9268C71.1257 37.9587 71.1211 37.9906 71.1074 38.0225C71.0846 38.0452 71.0573 38.0589 71.0254 38.0635C70.998 38.068 70.9775 38.0817 70.9639 38.1045C70.9365 38.141 70.9115 38.1842 70.8887 38.2344C70.8659 38.2845 70.8408 38.3346 70.8135 38.3848C70.7907 38.4303 70.7611 38.4736 70.7246 38.5146C70.6927 38.5557 70.6517 38.5876 70.6016 38.6104C70.5742 38.624 70.5423 38.6331 70.5059 38.6377C70.474 38.6377 70.4398 38.6377 70.4033 38.6377C70.3076 38.6377 70.2028 38.6217 70.0889 38.5898C69.9795 38.5579 69.8929 38.5033 69.8291 38.4258C69.8018 38.4121 69.7585 38.3962 69.6992 38.3779C69.6445 38.3551 69.5853 38.3346 69.5215 38.3164C69.4622 38.2936 69.4053 38.2731 69.3506 38.2549C69.2959 38.2321 69.2594 38.2139 69.2412 38.2002C69.2184 38.1774 69.1979 38.1432 69.1797 38.0977C69.1615 38.0475 69.141 38.0065 69.1182 37.9746C69.0908 37.9382 69.0589 37.9085 69.0225 37.8857C68.986 37.863 68.9564 37.8333 68.9336 37.7969C68.9062 37.7559 68.888 37.7103 68.8789 37.6602C68.8743 37.6055 68.8607 37.5576 68.8379 37.5166C68.7832 37.3981 68.7103 37.2842 68.6191 37.1748C68.528 37.0609 68.4368 36.9515 68.3457 36.8467C68.2956 36.7874 68.2249 36.7191 68.1338 36.6416C68.0426 36.5641 67.9788 36.4958 67.9424 36.4365C67.9287 36.4092 67.9219 36.3796 67.9219 36.3477C67.9219 36.3158 67.915 36.2861 67.9014 36.2588C67.874 36.195 67.8398 36.138 67.7988 36.0879C67.7578 36.0332 67.7305 35.9671 67.7168 35.8896C67.6621 35.8076 67.5938 35.737 67.5117 35.6777C67.4342 35.6139 67.3682 35.5365 67.3135 35.4453C67.2497 35.3451 67.1768 35.2539 67.0947 35.1719C67.0173 35.0853 66.9398 35.001 66.8623 34.9189C66.7894 34.8324 66.7233 34.7412 66.6641 34.6455C66.6048 34.5498 66.5638 34.4382 66.541 34.3105C66.4271 34.1921 66.304 34.0804 66.1719 33.9756C66.0397 33.8662 65.9395 33.7386 65.8711 33.5928C65.8346 33.529 65.805 33.4743 65.7822 33.4287C65.7594 33.3786 65.7321 33.3353 65.7002 33.2988C65.6683 33.2624 65.6296 33.2282 65.584 33.1963C65.543 33.1644 65.4837 33.1302 65.4062 33.0938C65.3926 33.1712 65.3835 33.251 65.3789 33.333C65.3789 33.4105 65.3789 33.488 65.3789 33.5654C65.3789 33.8115 65.3926 34.0553 65.4199 34.2969C65.4473 34.5339 65.4609 34.7754 65.4609 35.0215C65.4609 35.1081 65.4518 35.1901 65.4336 35.2676C65.4154 35.3451 65.4062 35.4225 65.4062 35.5C65.4062 35.6276 65.4199 35.7529 65.4473 35.876C65.4792 35.9945 65.4951 36.1175 65.4951 36.2451C65.4951 36.2816 65.4997 36.3112 65.5088 36.334C65.5179 36.3568 65.5293 36.3773 65.543 36.3955C65.5566 36.4092 65.568 36.4251 65.5771 36.4434C65.5863 36.457 65.5908 36.4775 65.5908 36.5049C65.5908 36.5778 65.584 36.6484 65.5703 36.7168C65.5566 36.7852 65.5498 36.8558 65.5498 36.9287C65.5498 36.9652 65.5566 37.0153 65.5703 37.0791C65.5885 37.1429 65.609 37.209 65.6318 37.2773C65.6546 37.3457 65.6774 37.4118 65.7002 37.4756C65.7275 37.5348 65.7526 37.5804 65.7754 37.6123C65.7389 37.6898 65.707 37.7627 65.6797 37.8311C65.6523 37.8949 65.6296 37.9609 65.6113 38.0293C65.5977 38.0931 65.5885 38.1615 65.584 38.2344C65.5794 38.3027 65.5817 38.3802 65.5908 38.4668C65.568 38.5033 65.5156 38.5534 65.4336 38.6172C65.3516 38.6764 65.2604 38.7357 65.1602 38.7949C65.0599 38.8542 64.9642 38.9066 64.873 38.9521C64.7819 38.9932 64.7181 39.0137 64.6816 39.0137C64.6406 39.0137 64.6087 39.0091 64.5859 39C64.5632 38.9954 64.5449 38.9863 64.5312 38.9727C64.5176 38.959 64.5016 38.9453 64.4834 38.9316C64.4697 38.9134 64.4469 38.8952 64.415 38.877C64.3877 38.8542 64.349 38.8405 64.2988 38.8359C64.2533 38.8268 64.2168 38.8109 64.1895 38.7881C64.1484 38.7516 64.1029 38.6901 64.0527 38.6035C64.0072 38.5124 63.9639 38.4167 63.9229 38.3164C63.8864 38.2161 63.8545 38.1182 63.8271 38.0225C63.7998 37.9268 63.7861 37.8516 63.7861 37.7969C63.7861 37.724 63.8044 37.6533 63.8408 37.585C63.8818 37.5166 63.9092 37.4505 63.9229 37.3867C63.9456 37.2682 63.9639 37.1361 63.9775 36.9902C63.9958 36.8444 64.0049 36.7077 64.0049 36.5801C64.0049 36.4525 63.9775 36.3294 63.9229 36.2109C63.9502 36.1289 63.9684 36.0446 63.9775 35.958C63.9867 35.8669 63.9912 35.7803 63.9912 35.6982C63.9912 35.5205 63.973 35.3314 63.9365 35.1309C63.9001 34.9258 63.8363 34.7458 63.7451 34.5908C63.7497 34.5133 63.7633 34.4404 63.7861 34.3721C63.8135 34.2992 63.8408 34.2285 63.8682 34.1602C63.8955 34.0918 63.9229 34.0234 63.9502 33.9551C63.9775 33.8822 63.9958 33.8092 64.0049 33.7363C64.0277 33.6224 64.0322 33.5107 64.0186 33.4014C64.0094 33.292 64.0049 33.1849 64.0049 33.0801C64.0049 33.0208 64.0094 32.9707 64.0186 32.9297C64.0277 32.8841 64.0436 32.8363 64.0664 32.7861C64.0573 32.7223 64.0391 32.6608 64.0117 32.6016C63.9889 32.5423 63.973 32.4808 63.9639 32.417C63.9548 32.3486 63.9525 32.2803 63.957 32.2119C63.9616 32.139 63.9639 32.0638 63.9639 31.9863C63.9639 31.8997 63.957 31.8177 63.9434 31.7402C63.9297 31.6628 63.9229 31.5807 63.9229 31.4941C63.9229 31.4258 63.9365 31.362 63.9639 31.3027C63.9912 31.2389 64.0049 31.1729 64.0049 31.1045C64.0049 30.945 63.9889 30.7855 63.957 30.626C63.9251 30.4619 63.9092 30.3001 63.9092 30.1406C63.9092 30.0267 63.9502 29.9219 64.0322 29.8262C64.1188 29.7259 64.2031 29.6439 64.2852 29.5801C64.5996 29.6165 64.8685 29.7122 65.0918 29.8672C65.3197 30.0221 65.4723 30.2568 65.5498 30.5713C65.5544 30.6032 65.5635 30.626 65.5771 30.6396C65.5908 30.6488 65.6045 30.6556 65.6182 30.6602C65.6364 30.6602 65.6546 30.6624 65.6729 30.667C65.6911 30.6715 65.7093 30.6829 65.7275 30.7012C65.7594 30.7376 65.7754 30.7764 65.7754 30.8174C65.7799 30.8584 65.7936 30.8971 65.8164 30.9336C65.8893 31.0202 65.9395 31.0726 65.9668 31.0908C65.9987 31.1045 66.0238 31.1182 66.042 31.1318C66.0648 31.1455 66.0898 31.1774 66.1172 31.2275C66.1491 31.2731 66.2015 31.3711 66.2744 31.5215C66.3428 31.5898 66.4043 31.665 66.459 31.7471C66.5182 31.8245 66.5752 31.9043 66.6299 31.9863C66.6891 32.0684 66.7507 32.1481 66.8145 32.2256C66.8783 32.2985 66.9512 32.3623 67.0332 32.417C67.0423 32.4762 67.0583 32.5309 67.0811 32.5811C67.1038 32.6312 67.1198 32.6859 67.1289 32.7451C67.1471 32.777 67.1882 32.8317 67.252 32.9092C67.3203 32.9821 67.3887 33.0596 67.457 33.1416C67.5299 33.2191 67.5938 33.292 67.6484 33.3604C67.7031 33.4242 67.7305 33.4606 67.7305 33.4697C67.7305 33.488 67.7396 33.4971 67.7578 33.4971C67.8216 33.5244 67.8763 33.5609 67.9219 33.6064C67.972 33.652 68.0244 33.6953 68.0791 33.7363C68.1383 33.9414 68.2363 34.1191 68.373 34.2695C68.5098 34.4199 68.6647 34.5544 68.8379 34.6729C68.8424 34.723 68.8561 34.7686 68.8789 34.8096C68.9017 34.846 68.9268 34.8825 68.9541 34.9189C68.986 34.9508 69.0156 34.985 69.043 35.0215C69.0749 35.0579 69.0999 35.0967 69.1182 35.1377C69.1318 35.165 69.1387 35.1924 69.1387 35.2197C69.1387 35.2471 69.1455 35.2744 69.1592 35.3018C69.1729 35.3337 69.1934 35.3587 69.2207 35.377C69.2526 35.3952 69.2799 35.418 69.3027 35.4453C69.321 35.4772 69.3346 35.516 69.3438 35.5615C69.3574 35.6025 69.3711 35.6458 69.3848 35.6914C69.403 35.7324 69.4258 35.7689 69.4531 35.8008C69.4805 35.8281 69.5192 35.8441 69.5693 35.8486C69.5967 35.7803 69.6104 35.7005 69.6104 35.6094C69.6104 35.5137 69.599 35.4202 69.5762 35.3291C69.5534 35.238 69.526 35.1468 69.4941 35.0557C69.4668 34.96 69.4417 34.8665 69.4189 34.7754C69.3962 34.6842 69.3848 34.5908 69.3848 34.4951C69.3848 34.4313 69.4007 34.3721 69.4326 34.3174C69.4645 34.2627 69.4805 34.2035 69.4805 34.1396C69.4805 34.0758 69.4668 34.0143 69.4395 33.9551C69.4121 33.8913 69.3939 33.832 69.3848 33.7773C69.3665 33.6725 69.3574 33.5563 69.3574 33.4287C69.362 33.2965 69.362 33.1644 69.3574 33.0322C69.3529 32.9001 69.3392 32.7725 69.3164 32.6494C69.2982 32.5264 69.2594 32.4215 69.2002 32.335C69.2093 32.3076 69.2139 32.2803 69.2139 32.2529C69.2139 32.2256 69.2139 32.1982 69.2139 32.1709C69.2139 32.0524 69.2048 31.9316 69.1865 31.8086C69.1683 31.681 69.1592 31.5534 69.1592 31.4258C69.1592 31.3346 69.1683 31.2435 69.1865 31.1523C69.2048 31.0566 69.2435 30.9655 69.3027 30.8789C69.2891 30.7878 69.2572 30.7103 69.207 30.6465C69.1615 30.5827 69.1182 30.512 69.0771 30.4346C69.0771 30.4118 69.0794 30.3913 69.084 30.373C69.0885 30.3503 69.0908 30.3275 69.0908 30.3047C69.0908 30.2591 69.084 30.2113 69.0703 30.1611C69.0566 30.111 69.0407 30.0632 69.0225 30.0176C69.0088 29.9674 68.9951 29.9173 68.9814 29.8672C68.9723 29.8171 68.9701 29.7669 68.9746 29.7168V29.6211L69.0225 29.5801C69.0225 29.5345 69.0202 29.4935 69.0156 29.457C69.0111 29.4206 69.0088 29.3818 69.0088 29.3408C69.0088 29.2633 69.0407 29.1882 69.1045 29.1152C69.1729 29.0378 69.2526 28.9694 69.3438 28.9102C69.4349 28.8464 69.5283 28.7962 69.624 28.7598C69.7243 28.7188 69.8086 28.6982 69.877 28.6982C69.9225 28.6982 69.9681 28.7096 70.0137 28.7324C70.0592 28.7552 70.1025 28.7803 70.1436 28.8076C70.1891 28.835 70.2324 28.8623 70.2734 28.8896C70.319 28.917 70.3669 28.9375 70.417 28.9512C70.4626 29.056 70.5241 29.1471 70.6016 29.2246C70.679 29.2975 70.7406 29.3818 70.7861 29.4775C70.8044 29.5231 70.8135 29.5755 70.8135 29.6348C70.818 29.6895 70.8203 29.7487 70.8203 29.8125C70.8203 29.8717 70.8226 29.9333 70.8271 29.9971C70.8363 30.0563 70.8545 30.1133 70.8818 30.168C70.8545 30.2044 70.8363 30.25 70.8271 30.3047C70.818 30.3548 70.8135 30.4095 70.8135 30.4688C70.8135 30.528 70.8158 30.5872 70.8203 30.6465C70.8249 30.7012 70.8271 30.7513 70.8271 30.7969C70.8271 30.8333 70.8203 30.863 70.8066 30.8857C70.793 30.9085 70.7861 30.9382 70.7861 30.9746C70.7861 31.0065 70.793 31.0316 70.8066 31.0498C70.8203 31.0635 70.8271 31.0817 70.8271 31.1045C70.8271 31.1455 70.8158 31.1934 70.793 31.248C70.7702 31.2982 70.7542 31.3438 70.7451 31.3848C70.7269 31.4622 70.7155 31.5397 70.7109 31.6172C70.7109 31.6901 70.7109 31.7607 70.7109 31.8291C70.7109 32.0479 70.7337 32.2552 70.7793 32.4512C70.8249 32.6471 70.859 32.8477 70.8818 33.0527C70.891 33.194 70.8955 33.3353 70.8955 33.4766C70.8955 33.6133 70.8932 33.7523 70.8887 33.8936C70.8887 34.0303 70.8887 34.167 70.8887 34.3037C70.8932 34.4404 70.9046 34.5771 70.9229 34.7139C70.9411 34.8779 70.9616 35.0101 70.9844 35.1104C71.0117 35.2106 71.0368 35.3086 71.0596 35.4043C71.0824 35.4954 71.1029 35.598 71.1211 35.7119C71.1393 35.8258 71.1484 35.9785 71.1484 36.1699C71.1484 36.2975 71.1621 36.4229 71.1895 36.5459C71.2168 36.6644 71.2305 36.7874 71.2305 36.915C71.2305 36.9971 71.2464 37.0768 71.2783 37.1543C71.3148 37.2272 71.333 37.3047 71.333 37.3867V37.4346L71.2852 37.5166C71.3171 37.5166 71.333 37.5348 71.333 37.5713ZM80.7871 33.1484C80.7962 33.2533 80.7848 33.3558 80.7529 33.4561C80.721 33.5563 80.7051 33.6589 80.7051 33.7637C80.7051 33.9323 80.7142 34.1032 80.7324 34.2764C80.7507 34.445 80.7598 34.6159 80.7598 34.7891C80.7598 34.8255 80.7507 34.8893 80.7324 34.9805C80.7142 35.0716 80.6891 35.1764 80.6572 35.2949C80.6299 35.4134 80.598 35.541 80.5615 35.6777C80.5296 35.8145 80.4954 35.9443 80.459 36.0674C80.4271 36.1904 80.3952 36.2998 80.3633 36.3955C80.3359 36.4867 80.3154 36.5527 80.3018 36.5938C80.238 36.7396 80.1673 36.8831 80.0898 37.0244C80.0169 37.1611 79.9645 37.3024 79.9326 37.4482C79.8005 37.5667 79.6683 37.6852 79.5361 37.8037C79.4085 37.9222 79.2855 38.0452 79.167 38.1729C79.1305 38.2139 79.0986 38.2594 79.0713 38.3096C79.0485 38.3597 79.0257 38.4121 79.0029 38.4668C78.9847 38.5169 78.9642 38.5693 78.9414 38.624C78.9186 38.6742 78.8913 38.7197 78.8594 38.7607C78.7865 38.8519 78.6976 38.9202 78.5928 38.9658C78.488 39.0114 78.3945 39.0638 78.3125 39.123C78.2852 39.1413 78.2601 39.1641 78.2373 39.1914C78.2191 39.2188 78.1963 39.2393 78.1689 39.2529C78.1051 39.2894 78.0391 39.3167 77.9707 39.335C77.9023 39.3577 77.8317 39.3783 77.7588 39.3965C77.6904 39.4193 77.6221 39.4421 77.5537 39.4648C77.4854 39.4922 77.4193 39.5286 77.3555 39.5742C77.3053 39.5514 77.2529 39.5309 77.1982 39.5127C77.1436 39.4945 77.0934 39.4671 77.0479 39.4307C76.984 39.4671 76.9111 39.4967 76.8291 39.5195C76.7516 39.5469 76.6673 39.5674 76.5762 39.5811C76.4896 39.5993 76.403 39.6107 76.3164 39.6152C76.2298 39.6243 76.1523 39.6289 76.084 39.6289C76.0475 39.6289 76.0065 39.6266 75.9609 39.6221C75.9154 39.6175 75.8675 39.6107 75.8174 39.6016C75.7673 39.597 75.7171 39.5879 75.667 39.5742C75.6214 39.5651 75.5827 39.5514 75.5508 39.5332C75.5417 39.5286 75.5303 39.5195 75.5166 39.5059C75.5075 39.4967 75.4961 39.4854 75.4824 39.4717C75.4688 39.4626 75.4551 39.458 75.4414 39.458C75.4277 39.458 75.4186 39.4694 75.4141 39.4922C75.2728 39.4284 75.1292 39.3691 74.9834 39.3145C74.8421 39.2598 74.7008 39.196 74.5596 39.123C74.4639 39.0729 74.375 39.0137 74.293 38.9453C74.2155 38.877 74.1357 38.8063 74.0537 38.7334C73.9762 38.6559 73.8965 38.583 73.8145 38.5146C73.737 38.4417 73.6527 38.3757 73.5615 38.3164C73.5479 38.2253 73.5251 38.1364 73.4932 38.0498C73.4613 37.9587 73.4111 37.8789 73.3428 37.8105C73.3337 37.7559 73.3154 37.7103 73.2881 37.6738C73.2607 37.6374 73.2311 37.6032 73.1992 37.5713C73.1673 37.5394 73.1377 37.5052 73.1104 37.4688C73.0876 37.4277 73.0762 37.373 73.0762 37.3047V37.2773L72.9736 37.2227C72.9508 37.1589 72.9372 37.0928 72.9326 37.0244C72.9281 36.9561 72.9144 36.8877 72.8916 36.8193C72.8688 36.7692 72.8438 36.7191 72.8164 36.6689C72.7891 36.6188 72.7686 36.5641 72.7549 36.5049C72.7321 36.4183 72.7207 36.3294 72.7207 36.2383C72.7207 36.1426 72.7184 36.0469 72.7139 35.9512C72.7139 35.8555 72.7048 35.7643 72.6865 35.6777C72.6683 35.5866 72.6296 35.5 72.5703 35.418C72.5977 35.3451 72.6113 35.2744 72.6113 35.2061C72.6113 35.1012 72.5977 34.9987 72.5703 34.8984C72.543 34.7982 72.5293 34.6956 72.5293 34.5908C72.5293 34.4997 72.5361 34.4131 72.5498 34.3311C72.5635 34.2445 72.5703 34.1579 72.5703 34.0713C72.5703 33.9665 72.568 33.8639 72.5635 33.7637C72.5589 33.6634 72.5566 33.5609 72.5566 33.4561C72.5566 33.3193 72.5589 33.2191 72.5635 33.1553C72.568 33.0869 72.5771 33.0299 72.5908 32.9844C72.6045 32.9342 72.6204 32.8818 72.6387 32.8271C72.6615 32.7725 72.6865 32.6882 72.7139 32.5742C72.7275 32.5195 72.7344 32.4626 72.7344 32.4033C72.7344 32.3395 72.7412 32.2757 72.7549 32.2119C72.805 32.0387 72.8643 31.861 72.9326 31.6787C73.001 31.4964 73.0625 31.3141 73.1172 31.1318C73.1263 31.0999 73.1468 31.0635 73.1787 31.0225C73.2106 30.9769 73.2448 30.9313 73.2812 30.8857C73.3177 30.8356 73.3542 30.7855 73.3906 30.7354C73.4271 30.6852 73.4567 30.6351 73.4795 30.585C73.4932 30.5485 73.5 30.512 73.5 30.4756C73.5 30.4346 73.5068 30.3958 73.5205 30.3594C73.5342 30.332 73.5547 30.3115 73.582 30.2979C73.6139 30.2842 73.6413 30.2637 73.6641 30.2363C73.7005 30.1634 73.7324 30.0996 73.7598 30.0449C73.7871 29.9857 73.8304 29.9287 73.8896 29.874C73.9215 29.833 73.9603 29.7965 74.0059 29.7646C74.056 29.7282 74.1038 29.6917 74.1494 29.6553C74.1995 29.6188 74.2428 29.5824 74.2793 29.5459C74.3203 29.5049 74.3522 29.4593 74.375 29.4092C74.3932 29.4092 74.4342 29.3955 74.498 29.3682C74.5664 29.3408 74.6462 29.3066 74.7373 29.2656C74.8285 29.2201 74.9242 29.1722 75.0244 29.1221C75.1247 29.0719 75.2181 29.0241 75.3047 28.9785C75.3958 28.9284 75.4733 28.8874 75.5371 28.8555C75.6009 28.819 75.6396 28.7939 75.6533 28.7803C75.6761 28.7894 75.6966 28.7939 75.7148 28.7939C75.7331 28.7939 75.7536 28.7939 75.7764 28.7939C75.8493 28.7939 75.9154 28.7894 75.9746 28.7803C76.0384 28.7712 76.1022 28.7666 76.166 28.7666C76.2663 28.7666 76.3597 28.7848 76.4463 28.8213C76.5329 28.8577 76.6217 28.876 76.7129 28.876C76.7858 28.876 76.8542 28.8669 76.918 28.8486C76.9818 28.8304 77.0501 28.8213 77.123 28.8213C77.2142 28.8213 77.2985 28.8464 77.376 28.8965C77.458 28.9466 77.54 28.9831 77.6221 29.0059C77.6631 29.0195 77.7087 29.0309 77.7588 29.04C77.8089 29.0446 77.859 29.0492 77.9092 29.0537C77.9639 29.0583 78.014 29.0651 78.0596 29.0742C78.1051 29.0788 78.1416 29.0879 78.1689 29.1016C78.1963 29.1152 78.2191 29.138 78.2373 29.1699C78.2601 29.1973 78.2852 29.2223 78.3125 29.2451C78.3398 29.2588 78.3695 29.2633 78.4014 29.2588C78.4333 29.2542 78.4629 29.2633 78.4902 29.2861C78.5404 29.318 78.57 29.3454 78.5791 29.3682C78.5882 29.3864 78.5996 29.4069 78.6133 29.4297C78.6315 29.4525 78.6611 29.4821 78.7021 29.5186C78.7432 29.5505 78.8229 29.5938 78.9414 29.6484C78.9779 29.6621 79.012 29.6803 79.0439 29.7031C79.0804 29.7214 79.1214 29.7305 79.167 29.7305C79.2627 29.8444 79.3652 29.9515 79.4746 30.0518C79.584 30.152 79.6911 30.2546 79.7959 30.3594L79.9326 30.4072C79.96 30.4391 80.0033 30.512 80.0625 30.626C80.1217 30.7399 80.181 30.863 80.2402 30.9951C80.304 31.1227 80.3587 31.2458 80.4043 31.3643C80.4544 31.4782 80.4795 31.5511 80.4795 31.583C80.4795 31.6514 80.4749 31.7174 80.4658 31.7812C80.4567 31.8451 80.4521 31.9134 80.4521 31.9863C80.4521 32.0365 80.4544 32.0843 80.459 32.1299C80.4635 32.1755 80.4658 32.2256 80.4658 32.2803C80.4658 32.2939 80.4727 32.3122 80.4863 32.335C80.5046 32.3532 80.5251 32.3737 80.5479 32.3965C80.5706 32.4193 80.5934 32.4443 80.6162 32.4717C80.639 32.4945 80.6549 32.515 80.6641 32.5332C80.6777 32.5833 80.6846 32.6357 80.6846 32.6904C80.6846 32.7451 80.6914 32.7998 80.7051 32.8545C80.7142 32.8955 80.7301 32.9411 80.7529 32.9912C80.7757 33.0368 80.7871 33.0801 80.7871 33.1211V33.1484ZM79.3857 34.5635C79.3857 34.4723 79.3675 34.3903 79.3311 34.3174C79.2992 34.2399 79.2764 34.1579 79.2627 34.0713C79.2718 34.0485 79.2764 34.028 79.2764 34.0098C79.2764 33.987 79.2764 33.9619 79.2764 33.9346C79.2764 33.848 79.2581 33.7682 79.2217 33.6953C79.1852 33.6224 79.167 33.5426 79.167 33.4561C79.167 33.3695 79.1738 33.2874 79.1875 33.21C79.2012 33.1325 79.208 33.0505 79.208 32.9639V32.5742C79.1533 32.4922 79.0964 32.3874 79.0371 32.2598C78.9779 32.1276 78.9141 31.9886 78.8457 31.8428C78.7819 31.6969 78.7113 31.5511 78.6338 31.4053C78.5563 31.2549 78.4697 31.125 78.374 31.0156C78.2783 30.9017 78.1735 30.8128 78.0596 30.749C77.9502 30.6852 77.8249 30.6624 77.6836 30.6807C77.5651 30.5713 77.4329 30.4756 77.2871 30.3936C77.1413 30.307 76.9886 30.2637 76.8291 30.2637C76.7106 30.2637 76.5807 30.2773 76.4395 30.3047C76.3027 30.3275 76.166 30.3617 76.0293 30.4072C75.8971 30.4528 75.7695 30.5075 75.6465 30.5713C75.5234 30.6305 75.4186 30.6966 75.332 30.7695C75.3001 30.7923 75.266 30.8083 75.2295 30.8174C75.1976 30.8219 75.1702 30.8379 75.1475 30.8652C75.1247 30.888 75.1156 30.9176 75.1201 30.9541C75.1247 30.9906 75.1201 31.0225 75.1064 31.0498C75.0973 31.0498 75.0768 31.0658 75.0449 31.0977C75.013 31.125 74.9766 31.1569 74.9355 31.1934C74.8991 31.2298 74.8649 31.2663 74.833 31.3027C74.8057 31.3346 74.7897 31.3529 74.7852 31.3574C74.776 31.3802 74.776 31.3984 74.7852 31.4121C74.7943 31.4258 74.7988 31.444 74.7988 31.4668C74.7988 31.4759 74.7897 31.4964 74.7715 31.5283C74.7533 31.5602 74.7327 31.5967 74.71 31.6377C74.6872 31.6787 74.6644 31.7197 74.6416 31.7607C74.6188 31.8018 74.6051 31.8359 74.6006 31.8633C74.5915 31.9271 74.5915 31.9909 74.6006 32.0547C74.6097 32.1139 74.6143 32.1755 74.6143 32.2393C74.6143 32.3395 74.596 32.4398 74.5596 32.54C74.5277 32.6403 74.4912 32.7428 74.4502 32.8477C74.4137 32.9479 74.3773 33.0527 74.3408 33.1621C74.3089 33.2669 74.293 33.374 74.293 33.4834C74.293 33.5472 74.2998 33.611 74.3135 33.6748C74.3271 33.734 74.334 33.7956 74.334 33.8594C74.334 33.946 74.3135 34.0257 74.2725 34.0986C74.236 34.1715 74.2109 34.2513 74.1973 34.3379C74.2337 34.3926 74.2565 34.4518 74.2656 34.5156C74.2747 34.5749 74.2793 34.6364 74.2793 34.7002C74.2793 34.7913 74.2747 34.8802 74.2656 34.9668C74.2565 35.0534 74.252 35.1423 74.252 35.2334C74.252 35.3291 74.2542 35.4134 74.2588 35.4863C74.2679 35.5592 74.2816 35.6299 74.2998 35.6982C74.318 35.762 74.3408 35.8258 74.3682 35.8896C74.4001 35.9535 74.4365 36.0241 74.4775 36.1016C74.5003 36.138 74.5231 36.1745 74.5459 36.2109C74.5687 36.2474 74.5869 36.2861 74.6006 36.3271C74.637 36.4274 74.6598 36.5322 74.6689 36.6416C74.6826 36.751 74.7077 36.8558 74.7441 36.9561C74.7533 36.988 74.7692 37.0153 74.792 37.0381C74.8148 37.0609 74.8353 37.0837 74.8535 37.1064C74.8763 37.1292 74.8945 37.1543 74.9082 37.1816C74.9219 37.209 74.9264 37.2409 74.9219 37.2773C74.9857 37.3001 75.0335 37.3229 75.0654 37.3457C75.1019 37.3685 75.1611 37.373 75.2432 37.3594C75.2705 37.446 75.3252 37.528 75.4072 37.6055C75.4938 37.6829 75.5918 37.7513 75.7012 37.8105C75.8105 37.8652 75.9199 37.9108 76.0293 37.9473C76.1432 37.9792 76.2412 37.9951 76.3232 37.9951C76.3734 37.9951 76.4098 37.9837 76.4326 37.9609C76.46 37.9336 76.485 37.904 76.5078 37.8721C76.5352 37.8402 76.5625 37.8151 76.5898 37.7969C76.6217 37.7741 76.6673 37.765 76.7266 37.7695C76.7539 37.7422 76.7835 37.7285 76.8154 37.7285C76.8564 37.7285 76.8906 37.7354 76.918 37.749C76.9499 37.7627 76.984 37.7695 77.0205 37.7695C77.057 37.7695 77.0957 37.7581 77.1367 37.7354C77.1823 37.7126 77.2279 37.6852 77.2734 37.6533C77.319 37.6214 77.3646 37.5918 77.4102 37.5645C77.4557 37.5326 77.499 37.512 77.54 37.5029C77.5811 37.4893 77.6243 37.487 77.6699 37.4961C77.7201 37.5007 77.7656 37.5029 77.8066 37.5029H77.8613L77.9434 37.4072C78.0163 37.3844 78.096 37.3639 78.1826 37.3457C78.2692 37.3275 78.3398 37.2865 78.3945 37.2227C78.4583 37.0814 78.5153 36.931 78.5654 36.7715C78.6156 36.6074 78.6794 36.4593 78.7568 36.3271C78.8298 36.1995 78.8913 36.113 78.9414 36.0674C78.9961 36.0218 79.0394 35.9808 79.0713 35.9443C79.1032 35.9033 79.126 35.8464 79.1396 35.7734C79.1579 35.696 79.167 35.5592 79.167 35.3633C79.167 35.3223 79.1738 35.2881 79.1875 35.2607C79.2057 35.2334 79.2217 35.2061 79.2354 35.1787C79.2536 35.1514 79.2673 35.1217 79.2764 35.0898C79.2855 35.0579 79.2809 35.0169 79.2627 34.9668C79.3128 34.9167 79.3447 34.8574 79.3584 34.7891C79.3766 34.7161 79.3857 34.641 79.3857 34.5635ZM92.1689 32.3896C92.1507 32.4124 92.1393 32.4512 92.1348 32.5059C92.1348 32.5605 92.1348 32.6198 92.1348 32.6836C92.1393 32.7474 92.1439 32.8089 92.1484 32.8682C92.153 32.9274 92.1553 32.973 92.1553 33.0049C92.1553 33.055 92.153 33.1051 92.1484 33.1553C92.1484 33.2008 92.1416 33.2487 92.1279 33.2988L92.0391 33.4287C92.0299 33.4561 92.0277 33.4834 92.0322 33.5107C92.0368 33.5335 92.0391 33.5563 92.0391 33.5791V33.6133L91.9434 33.668C91.9069 33.7454 91.875 33.8275 91.8477 33.9141C91.8203 34.0007 91.7884 34.0872 91.752 34.1738C91.7201 34.2559 91.679 34.3356 91.6289 34.4131C91.5833 34.486 91.5241 34.5498 91.4512 34.6045C91.4284 34.6182 91.4056 34.625 91.3828 34.625C91.36 34.625 91.3372 34.6364 91.3145 34.6592C91.237 34.7184 91.1686 34.7822 91.1094 34.8506C91.0501 34.9144 90.9681 34.9531 90.8633 34.9668C90.8268 35.0215 90.7607 35.099 90.665 35.1992C90.5739 35.2949 90.4736 35.3952 90.3643 35.5C90.2594 35.6048 90.1569 35.7028 90.0566 35.7939C89.9564 35.8805 89.8812 35.9375 89.8311 35.9648C89.7992 35.9831 89.765 35.9945 89.7285 35.999C89.6921 35.999 89.6556 36.0013 89.6191 36.0059C89.5827 36.0059 89.5462 36.0104 89.5098 36.0195C89.4779 36.0241 89.4482 36.0378 89.4209 36.0605C89.3525 36.1152 89.2751 36.1654 89.1885 36.2109C89.1064 36.252 89.0176 36.277 88.9219 36.2861C88.8763 36.3454 88.8193 36.391 88.751 36.4229C88.6872 36.4548 88.6188 36.4844 88.5459 36.5117C88.473 36.5391 88.4023 36.5687 88.334 36.6006C88.2656 36.6325 88.2041 36.6758 88.1494 36.7305C88.0583 36.7578 87.9626 36.7715 87.8623 36.7715C87.762 36.7715 87.6618 36.7874 87.5615 36.8193C87.5205 36.9788 87.4932 37.1383 87.4795 37.2979C87.4658 37.4528 87.459 37.61 87.459 37.7695C87.459 37.929 87.4613 38.0885 87.4658 38.248C87.4749 38.4076 87.4795 38.5648 87.4795 38.7197V38.8428C87.4294 38.902 87.3815 38.959 87.3359 39.0137C87.2904 39.0729 87.2425 39.123 87.1924 39.1641C87.1423 39.2096 87.083 39.2438 87.0146 39.2666C86.9508 39.2939 86.8757 39.3076 86.7891 39.3076C86.6706 39.3076 86.5566 39.2848 86.4473 39.2393C86.3424 39.1982 86.2331 39.1595 86.1191 39.123C86.0827 39.082 86.0576 39.0251 86.0439 38.9521C86.0348 38.8747 86.0189 38.8109 85.9961 38.7607C85.9186 38.7243 85.8685 38.6947 85.8457 38.6719C85.8229 38.6491 85.8115 38.599 85.8115 38.5215C85.8115 38.4805 85.7956 38.444 85.7637 38.4121C85.7318 38.3802 85.7158 38.3278 85.7158 38.2549C85.7158 38.1364 85.7318 38.0111 85.7637 37.8789C85.8001 37.7467 85.8298 37.6214 85.8525 37.5029C85.8662 37.4163 85.8685 37.3389 85.8594 37.2705C85.8548 37.2021 85.8525 37.1247 85.8525 37.0381C85.8525 36.9834 85.8662 36.9287 85.8936 36.874C85.8844 36.6963 85.8799 36.5186 85.8799 36.3408C85.8844 36.1585 85.8844 35.9785 85.8799 35.8008C85.8753 35.623 85.8639 35.4476 85.8457 35.2744C85.832 35.0967 85.8024 34.9189 85.7568 34.7412C85.766 34.6956 85.7796 34.6546 85.7979 34.6182C85.8206 34.5771 85.8411 34.5384 85.8594 34.502C85.8822 34.4609 85.9004 34.4199 85.9141 34.3789C85.9277 34.3379 85.9346 34.2923 85.9346 34.2422C85.9346 34.1283 85.9141 34.0234 85.873 33.9277C85.832 33.8275 85.8115 33.7227 85.8115 33.6133C85.8115 33.5221 85.8184 33.4469 85.832 33.3877C85.8503 33.3285 85.8708 33.276 85.8936 33.2305C85.9163 33.1849 85.9368 33.1439 85.9551 33.1074C85.9733 33.071 85.987 33.0277 85.9961 32.9775C85.9824 32.9548 85.9688 32.9342 85.9551 32.916C85.9414 32.8978 85.9346 32.8773 85.9346 32.8545C85.9346 32.8317 85.9414 32.8135 85.9551 32.7998C85.9688 32.7861 85.9824 32.7725 85.9961 32.7588C85.987 32.6995 85.9688 32.6471 85.9414 32.6016C85.9186 32.5514 85.9027 32.5013 85.8936 32.4512C85.8662 32.2871 85.8366 32.1117 85.8047 31.9248C85.7728 31.7334 85.7568 31.5579 85.7568 31.3984C85.7568 31.2572 85.7705 31.1182 85.7979 30.9814C85.8252 30.8447 85.8389 30.7035 85.8389 30.5576C85.8389 30.4163 85.8115 30.2773 85.7568 30.1406C85.8115 30.0859 85.848 30.0221 85.8662 29.9492C85.889 29.8717 85.9163 29.792 85.9482 29.71C85.9801 29.6279 86.0257 29.5436 86.085 29.457C86.1488 29.3659 86.2536 29.2747 86.3994 29.1836C86.4678 29.1426 86.5452 29.0947 86.6318 29.04C86.7184 28.9808 86.805 28.9398 86.8916 28.917C86.9827 28.8896 87.0739 28.8714 87.165 28.8623C87.2607 28.8486 87.3564 28.8395 87.4521 28.835C87.5479 28.8258 87.6436 28.8167 87.7393 28.8076C87.835 28.7939 87.9307 28.7712 88.0264 28.7393C88.1221 28.7028 88.2155 28.6641 88.3066 28.623C88.3978 28.5775 88.5003 28.5547 88.6143 28.5547C88.6826 28.5547 88.7487 28.5661 88.8125 28.5889C88.8809 28.6071 88.9469 28.6299 89.0107 28.6572C89.0745 28.68 89.1361 28.7028 89.1953 28.7256C89.2591 28.7438 89.3252 28.7529 89.3936 28.7529C89.4574 28.7529 89.5212 28.7461 89.585 28.7324C89.6488 28.7188 89.7126 28.7074 89.7764 28.6982C89.9085 28.762 90.0361 28.8304 90.1592 28.9033C90.2868 28.9717 90.4144 29.0378 90.542 29.1016C90.5693 29.1152 90.599 29.1243 90.6309 29.1289C90.6673 29.1289 90.6992 29.1335 90.7266 29.1426C90.8815 29.2064 91.0046 29.293 91.0957 29.4023C91.1914 29.5072 91.2962 29.6165 91.4102 29.7305C91.4284 29.7578 91.4466 29.7943 91.4648 29.8398C91.4876 29.8854 91.5059 29.9355 91.5195 29.9902C91.5378 30.0449 91.556 30.0996 91.5742 30.1543C91.5924 30.2044 91.613 30.2454 91.6357 30.2773C91.6494 30.3047 91.6699 30.3252 91.6973 30.3389C91.7246 30.3525 91.7451 30.3753 91.7588 30.4072C91.7816 30.4346 91.7907 30.4642 91.7861 30.4961C91.7861 30.528 91.7975 30.5576 91.8203 30.585C91.8431 30.6351 91.875 30.6829 91.916 30.7285C91.9616 30.7695 92.0026 30.8151 92.0391 30.8652C92.0391 31.1204 92.0573 31.3757 92.0938 31.6309C92.1302 31.8861 92.1553 32.139 92.1689 32.3896ZM90.501 31.8018C90.501 31.7197 90.4896 31.6423 90.4668 31.5693C90.4486 31.4919 90.4258 31.4167 90.3984 31.3438C90.3757 31.2663 90.3551 31.1888 90.3369 31.1113C90.3187 31.0293 90.3118 30.9473 90.3164 30.8652C90.2617 30.8105 90.1956 30.765 90.1182 30.7285C90.0452 30.6921 89.9769 30.6442 89.9131 30.585C89.8721 30.4984 89.8105 30.4391 89.7285 30.4072C89.651 30.3708 89.5645 30.3503 89.4688 30.3457C89.373 30.3366 89.2751 30.3366 89.1748 30.3457C89.0791 30.3548 88.9902 30.3594 88.9082 30.3594C88.8034 30.3594 88.6963 30.3457 88.5869 30.3184C88.4821 30.291 88.3773 30.2773 88.2725 30.2773C88.0902 30.2773 87.917 30.3275 87.7529 30.4277C87.5889 30.5234 87.4681 30.651 87.3906 30.8105C87.3906 30.8652 87.3929 30.9199 87.3975 30.9746C87.402 31.0293 87.4043 31.0817 87.4043 31.1318C87.4043 31.1956 87.3975 31.2594 87.3838 31.3232C87.3747 31.3825 87.3587 31.4395 87.3359 31.4941C87.3724 31.5807 87.3997 31.6696 87.418 31.7607C87.4408 31.8473 87.4521 31.9362 87.4521 32.0273C87.4521 32.123 87.4408 32.221 87.418 32.3213C87.3997 32.4215 87.377 32.5218 87.3496 32.6221C87.3268 32.7178 87.304 32.8112 87.2812 32.9023C87.263 32.9935 87.2539 33.0801 87.2539 33.1621C87.2539 33.2624 87.2721 33.3604 87.3086 33.4561C87.3496 33.5518 87.377 33.6497 87.3906 33.75C87.4043 33.9049 87.4043 34.0622 87.3906 34.2217C87.3815 34.3766 87.377 34.5316 87.377 34.6865C87.377 34.7868 87.3815 34.8825 87.3906 34.9736C87.3997 35.0648 87.4157 35.1514 87.4385 35.2334C87.5524 35.238 87.6572 35.2288 87.7529 35.2061C87.8532 35.1787 87.9489 35.1468 88.04 35.1104C88.1357 35.0693 88.2292 35.026 88.3203 34.9805C88.4115 34.9303 88.5094 34.8802 88.6143 34.8301C88.6781 34.8027 88.7441 34.7777 88.8125 34.7549C88.8854 34.7275 88.9538 34.6956 89.0176 34.6592C89.054 34.6364 89.1087 34.5908 89.1816 34.5225C89.2591 34.4541 89.3366 34.3789 89.4141 34.2969C89.4961 34.2148 89.5713 34.1374 89.6396 34.0645C89.708 33.987 89.7536 33.9277 89.7764 33.8867C89.79 33.8639 89.7969 33.8411 89.7969 33.8184C89.7969 33.7956 89.8083 33.7728 89.8311 33.75C89.8447 33.7363 89.8652 33.7295 89.8926 33.7295C89.9199 33.7295 89.9404 33.7227 89.9541 33.709C89.9678 33.6953 89.9906 33.6702 90.0225 33.6338C90.0589 33.5928 90.0954 33.5518 90.1318 33.5107C90.1683 33.4652 90.2002 33.4219 90.2275 33.3809C90.2549 33.3398 90.2708 33.3125 90.2754 33.2988C90.2982 33.235 90.3027 33.1689 90.2891 33.1006C90.2799 33.0277 90.2754 32.9548 90.2754 32.8818C90.2754 32.8135 90.2822 32.7542 90.2959 32.7041C90.3096 32.6494 90.3232 32.5924 90.3369 32.5332C90.3551 32.474 90.3711 32.4102 90.3848 32.3418C90.3984 32.2734 90.4053 32.1914 90.4053 32.0957C90.4053 32.0273 90.4212 31.9727 90.4531 31.9316C90.485 31.8906 90.501 31.8473 90.501 31.8018ZM99.6338 33.2715C99.6338 33.3809 99.611 33.5062 99.5654 33.6475C99.5244 33.7887 99.4766 33.9255 99.4219 34.0576C99.3717 34.1852 99.3239 34.3014 99.2783 34.4062C99.2373 34.5065 99.2191 34.5726 99.2236 34.6045C99.1872 34.6592 99.1416 34.707 99.0869 34.748C99.0322 34.7845 98.9844 34.8301 98.9434 34.8848C98.9069 34.9349 98.8818 34.9964 98.8682 35.0693C98.8545 35.1423 98.8203 35.1969 98.7656 35.2334C98.7383 35.2562 98.7018 35.279 98.6562 35.3018C98.6107 35.32 98.5628 35.3405 98.5127 35.3633C98.4626 35.3861 98.4147 35.4066 98.3691 35.4248C98.3236 35.443 98.2917 35.459 98.2734 35.4727C98.237 35.4954 98.2051 35.5251 98.1777 35.5615C98.1549 35.5934 98.1253 35.6253 98.0889 35.6572C98.0661 35.6663 98.0433 35.6709 98.0205 35.6709C97.9977 35.6663 97.9749 35.6755 97.9521 35.6982L97.9111 35.7803C97.8792 35.8031 97.8428 35.8122 97.8018 35.8076C97.7607 35.8031 97.722 35.8076 97.6855 35.8213C97.4896 35.9124 97.2913 36.0013 97.0908 36.0879C96.8949 36.1699 96.6875 36.236 96.4688 36.2861C96.5007 36.3636 96.5462 36.4251 96.6055 36.4707C96.6647 36.5163 96.7285 36.555 96.7969 36.5869C96.8698 36.6143 96.9427 36.6416 97.0156 36.6689C97.0931 36.6963 97.166 36.7305 97.2344 36.7715C97.2708 36.7943 97.3005 36.8239 97.3232 36.8604C97.3506 36.8968 97.3825 36.9287 97.4189 36.9561C97.5329 37.0381 97.6514 37.1156 97.7744 37.1885C97.902 37.2614 98.0273 37.3343 98.1504 37.4072C98.2734 37.4801 98.3942 37.5576 98.5127 37.6396C98.6357 37.7171 98.752 37.806 98.8613 37.9062C98.957 37.9199 99.0413 37.9473 99.1143 37.9883C99.1872 38.0247 99.2555 38.0703 99.3193 38.125C99.3831 38.1751 99.4424 38.2321 99.4971 38.2959C99.5563 38.3597 99.6156 38.4258 99.6748 38.4941V38.5693C99.6748 38.6969 99.668 38.8018 99.6543 38.8838C99.6406 38.9658 99.6133 39.0342 99.5723 39.0889C99.5312 39.1436 99.4743 39.1891 99.4014 39.2256C99.333 39.2666 99.2419 39.3076 99.1279 39.3486C99.0915 39.3623 99.055 39.3737 99.0186 39.3828C98.9821 39.3965 98.9434 39.4033 98.9023 39.4033C98.8385 39.4033 98.7611 39.4033 98.6699 39.4033C98.5833 39.4079 98.5104 39.4033 98.4512 39.3896C98.4375 39.3851 98.4056 39.3714 98.3555 39.3486C98.3099 39.3258 98.2575 39.2985 98.1982 39.2666C98.1436 39.2393 98.0911 39.2119 98.041 39.1846C97.9954 39.1572 97.9658 39.1367 97.9521 39.123C97.8883 39.0684 97.8314 39.0046 97.7812 38.9316C97.7311 38.8587 97.6719 38.8018 97.6035 38.7607C97.5169 38.7106 97.4235 38.681 97.3232 38.6719C97.2275 38.6628 97.1387 38.6331 97.0566 38.583C96.9564 38.5238 96.8721 38.4508 96.8037 38.3643C96.7354 38.2731 96.651 38.1956 96.5508 38.1318C96.4642 38.0771 96.3662 38.0316 96.2568 37.9951C96.152 37.9587 96.054 37.9154 95.9629 37.8652C95.8854 37.8105 95.8171 37.7445 95.7578 37.667C95.7031 37.585 95.637 37.512 95.5596 37.4482C95.5231 37.4163 95.4798 37.3936 95.4297 37.3799C95.3796 37.3662 95.334 37.3457 95.293 37.3184C95.2565 37.291 95.2269 37.2546 95.2041 37.209C95.1813 37.1634 95.1449 37.1406 95.0947 37.1406H95.0674C95.0036 37.2044 94.9717 37.2865 94.9717 37.3867C94.9717 37.5052 94.9876 37.6237 95.0195 37.7422C95.0514 37.8561 95.0674 37.9723 95.0674 38.0908C95.0674 38.141 95.056 38.1934 95.0332 38.248C95.0104 38.2982 94.9945 38.3483 94.9854 38.3984C94.9671 38.4531 94.9626 38.5101 94.9717 38.5693C94.9808 38.624 94.9854 38.6787 94.9854 38.7334C94.9854 38.8018 94.9626 38.8701 94.917 38.9385C94.8714 39.0068 94.8145 39.0684 94.7461 39.123C94.6777 39.1777 94.6048 39.221 94.5273 39.2529C94.4499 39.2894 94.377 39.3076 94.3086 39.3076C94.2129 39.3076 94.1149 39.2894 94.0146 39.2529C93.9144 39.221 93.8118 39.1937 93.707 39.1709C93.6523 39.0706 93.5999 38.9681 93.5498 38.8633C93.5042 38.7585 93.4814 38.6491 93.4814 38.5352C93.4814 38.4941 93.486 38.4577 93.4951 38.4258C93.5042 38.3893 93.5156 38.3529 93.5293 38.3164C93.4701 38.1751 93.4313 38.0316 93.4131 37.8857C93.3949 37.7399 93.3857 37.5941 93.3857 37.4482C93.3857 37.2477 93.404 37.054 93.4404 36.8672C93.4814 36.6758 93.502 36.4821 93.502 36.2861C93.502 36.277 93.4997 36.2679 93.4951 36.2588C93.4951 36.2451 93.4906 36.2337 93.4814 36.2246L93.3994 36.1836C93.3903 36.1608 93.388 36.1403 93.3926 36.1221C93.3971 36.1038 93.3994 36.0833 93.3994 36.0605C93.3994 36.0286 93.3971 35.9899 93.3926 35.9443C93.388 35.8988 93.3789 35.8532 93.3652 35.8076C93.3561 35.762 93.3424 35.721 93.3242 35.6846C93.306 35.6436 93.2855 35.6139 93.2627 35.5957C93.3265 35.4909 93.3561 35.377 93.3516 35.2539C93.347 35.1263 93.3447 34.9987 93.3447 34.8711C93.3447 34.7708 93.3607 34.6751 93.3926 34.584C93.4245 34.4928 93.4404 34.3971 93.4404 34.2969C93.4404 34.151 93.4336 34.0029 93.4199 33.8525C93.4062 33.6976 93.3994 33.5472 93.3994 33.4014C93.3994 33.2601 93.3766 33.1279 93.3311 33.0049C93.2855 32.8773 93.2627 32.7474 93.2627 32.6152C93.2627 32.5605 93.2741 32.5104 93.2969 32.4648C93.3197 32.4147 93.3356 32.3623 93.3447 32.3076C93.3675 32.221 93.3721 32.1344 93.3584 32.0479C93.3493 31.9613 93.3447 31.8747 93.3447 31.7881C93.3447 31.7471 93.3538 31.7197 93.3721 31.7061C93.3903 31.6878 93.3994 31.6605 93.3994 31.624C93.3994 31.5739 93.3835 31.5192 93.3516 31.46C93.3197 31.4007 93.3037 31.3324 93.3037 31.2549C93.3037 31.109 93.3105 30.9632 93.3242 30.8174C93.3379 30.667 93.3447 30.5143 93.3447 30.3594C93.3447 30.291 93.3561 30.2227 93.3789 30.1543C93.4017 30.0859 93.4245 30.0199 93.4473 29.9561C93.4701 29.8877 93.486 29.8216 93.4951 29.7578C93.5088 29.6895 93.5042 29.6211 93.4814 29.5527C93.5133 29.5163 93.5498 29.4958 93.5908 29.4912C93.6318 29.4867 93.6706 29.4775 93.707 29.4639C93.7799 29.4274 93.8483 29.3887 93.9121 29.3477C93.9759 29.3066 94.0443 29.2725 94.1172 29.2451C94.1947 29.2087 94.2699 29.1859 94.3428 29.1768C94.4157 29.1676 94.4932 29.1562 94.5752 29.1426C94.6117 29.1335 94.6436 29.1175 94.6709 29.0947C94.6982 29.0719 94.7324 29.0605 94.7734 29.0605C94.8099 29.0605 94.8441 29.0674 94.876 29.0811C94.9124 29.0947 94.9489 29.1016 94.9854 29.1016C95.0081 29.0651 95.0264 29.0492 95.04 29.0537C95.0583 29.0583 95.0856 29.0605 95.1221 29.0605C95.1494 29.0605 95.1813 29.056 95.2178 29.0469C95.2542 29.0378 95.2907 29.0286 95.3271 29.0195C95.3636 29.0104 95.3978 29.0036 95.4297 28.999C95.4616 28.9945 95.4889 28.9967 95.5117 29.0059C95.5573 29.0059 95.6006 28.999 95.6416 28.9854C95.6826 28.9717 95.7236 28.9648 95.7646 28.9648C95.8148 28.9648 95.8558 28.9785 95.8877 29.0059C95.9242 29.0332 95.9674 29.0514 96.0176 29.0605C96.0768 29.0697 96.1361 29.0697 96.1953 29.0605C96.2546 29.0514 96.3115 29.0469 96.3662 29.0469C96.4346 29.0469 96.4938 29.0537 96.5439 29.0674C96.5986 29.0811 96.6488 29.0993 96.6943 29.1221C96.7445 29.1403 96.7946 29.1608 96.8447 29.1836C96.8949 29.2064 96.9518 29.2269 97.0156 29.2451C97.1068 29.2679 97.2025 29.2793 97.3027 29.2793C97.403 29.2747 97.5033 29.2907 97.6035 29.3271C97.6582 29.3499 97.7174 29.3773 97.7812 29.4092C97.8451 29.4365 97.902 29.4684 97.9521 29.5049C97.9886 29.5231 98.0137 29.5459 98.0273 29.5732C98.041 29.6006 98.0615 29.6257 98.0889 29.6484C98.1344 29.6712 98.1777 29.6803 98.2188 29.6758C98.2598 29.6712 98.2917 29.6758 98.3145 29.6895C98.3464 29.7077 98.3942 29.751 98.458 29.8193C98.5218 29.8877 98.5902 29.9629 98.6631 30.0449C98.7406 30.127 98.8135 30.2067 98.8818 30.2842C98.9502 30.3617 99.0049 30.4209 99.0459 30.4619L99.0254 30.5166C99.0254 30.5713 99.0368 30.6214 99.0596 30.667C99.0869 30.7126 99.1188 30.7559 99.1553 30.7969C99.1917 30.8333 99.2282 30.8721 99.2646 30.9131C99.3011 30.9541 99.3307 30.9997 99.3535 31.0498C99.3763 31.0771 99.3854 31.1113 99.3809 31.1523C99.3763 31.1888 99.3854 31.2298 99.4082 31.2754C99.4447 31.3529 99.4766 31.4303 99.5039 31.5078C99.5312 31.5807 99.5745 31.6514 99.6338 31.7197C99.6429 31.7607 99.6406 31.8063 99.627 31.8564C99.6178 31.902 99.6133 31.9499 99.6133 32C99.6133 32.0911 99.6315 32.1732 99.668 32.2461C99.709 32.319 99.7295 32.4056 99.7295 32.5059C99.7295 32.638 99.7135 32.7633 99.6816 32.8818C99.6497 33.0003 99.6338 33.1302 99.6338 33.2715ZM97.6445 31.0908L97.542 31.0498C97.501 30.9906 97.4508 30.9245 97.3916 30.8516C97.3324 30.7786 97.2663 30.7376 97.1934 30.7285C97.1751 30.6966 97.1523 30.6807 97.125 30.6807C97.1022 30.6807 97.0794 30.6898 97.0566 30.708C97.0384 30.7217 97.0133 30.7285 96.9814 30.7285C96.9313 30.7285 96.8721 30.7148 96.8037 30.6875C96.7354 30.6556 96.6374 30.6396 96.5098 30.6396C96.4733 30.6396 96.43 30.626 96.3799 30.5986C96.3298 30.5713 96.2842 30.5531 96.2432 30.5439C96.1383 30.5303 96.0221 30.5212 95.8945 30.5166C95.7669 30.5075 95.6507 30.5029 95.5459 30.5029C95.5003 30.5029 95.4639 30.5143 95.4365 30.5371C95.4092 30.5599 95.375 30.5758 95.334 30.585C95.2884 30.5986 95.2337 30.6077 95.1699 30.6123C95.1061 30.6169 95.0446 30.6283 94.9854 30.6465C94.9307 30.6602 94.8828 30.6852 94.8418 30.7217C94.8053 30.7536 94.7871 30.806 94.7871 30.8789C94.7871 30.9655 94.8031 31.0452 94.835 31.1182C94.8669 31.1911 94.8828 31.2708 94.8828 31.3574C94.8828 31.4486 94.8669 31.5374 94.835 31.624C94.8031 31.7106 94.7871 31.7995 94.7871 31.8906C94.7871 32.0638 94.7962 32.2393 94.8145 32.417C94.8327 32.5902 94.8418 32.7679 94.8418 32.9502C94.8418 33.1097 94.8555 33.2669 94.8828 33.4219C94.9102 33.5723 94.9238 33.7272 94.9238 33.8867C94.9238 34.0052 94.9147 34.126 94.8965 34.249C94.8783 34.3675 94.8691 34.486 94.8691 34.6045C94.8691 34.6592 94.8714 34.7139 94.876 34.7686C94.8851 34.8232 94.901 34.8757 94.9238 34.9258C94.9967 34.8984 95.0742 34.8825 95.1562 34.8779C95.2428 34.8688 95.3294 34.8665 95.416 34.8711C95.5026 34.8711 95.5892 34.8757 95.6758 34.8848C95.7624 34.8893 95.8444 34.8893 95.9219 34.8848H96.0996C96.1406 34.8483 96.1816 34.8232 96.2227 34.8096C96.2682 34.7913 96.3138 34.7777 96.3594 34.7686C96.4095 34.7594 96.4574 34.7503 96.5029 34.7412C96.5531 34.7321 96.6009 34.7184 96.6465 34.7002C96.6875 34.682 96.7285 34.6546 96.7695 34.6182C96.8105 34.5817 96.8493 34.5498 96.8857 34.5225C96.9268 34.4906 96.9678 34.4655 97.0088 34.4473C97.0544 34.4245 97.1022 34.4154 97.1523 34.4199H97.2344C97.2526 34.3652 97.2799 34.3174 97.3164 34.2764C97.3529 34.2354 97.3916 34.1966 97.4326 34.1602C97.4736 34.1191 97.5124 34.0781 97.5488 34.0371C97.5898 33.9915 97.6217 33.9414 97.6445 33.8867C97.6992 33.873 97.7516 33.848 97.8018 33.8115C97.8519 33.7705 97.8883 33.7227 97.9111 33.668L98.0068 33.6133V33.5244L98.0889 33.4834C98.1117 33.4424 98.1208 33.4036 98.1162 33.3672C98.1162 33.3307 98.1162 33.2897 98.1162 33.2441C98.1162 33.2122 98.123 33.1712 98.1367 33.1211C98.1549 33.0664 98.1732 33.0072 98.1914 32.9434C98.2142 32.875 98.2324 32.8021 98.2461 32.7246C98.2643 32.6426 98.2734 32.556 98.2734 32.4648C98.2734 32.4193 98.2689 32.3828 98.2598 32.3555C98.2507 32.3281 98.2393 32.3053 98.2256 32.2871C98.2119 32.2643 98.196 32.2415 98.1777 32.2188C98.1595 32.196 98.1436 32.1641 98.1299 32.123C98.1208 32.0911 98.1139 32.0547 98.1094 32.0137C98.1048 31.9681 98.1003 31.9248 98.0957 31.8838C98.0957 31.8428 98.0911 31.804 98.082 31.7676C98.0775 31.7311 98.0661 31.7015 98.0479 31.6787C97.984 31.5739 97.9134 31.4759 97.8359 31.3848C97.7585 31.2936 97.6947 31.1956 97.6445 31.0908ZM107.604 37.5166C107.632 37.6123 107.646 37.7057 107.646 37.7969C107.646 37.9108 107.625 38.0179 107.584 38.1182C107.548 38.2184 107.509 38.321 107.468 38.4258C107.418 38.4668 107.361 38.4987 107.297 38.5215C107.233 38.5443 107.174 38.5739 107.119 38.6104C107.023 38.665 106.941 38.7038 106.873 38.7266C106.809 38.7493 106.745 38.763 106.682 38.7676C106.618 38.7721 106.549 38.7721 106.477 38.7676C106.404 38.763 106.312 38.7607 106.203 38.7607C106.035 38.7607 105.88 38.7812 105.738 38.8223C105.602 38.8587 105.474 38.877 105.355 38.877C105.237 38.877 105.112 38.8678 104.979 38.8496C104.852 38.8268 104.724 38.8154 104.597 38.8154C104.519 38.8154 104.444 38.8245 104.371 38.8428C104.303 38.8564 104.232 38.8815 104.159 38.918C104.091 38.918 104.027 38.8975 103.968 38.8564C103.913 38.8109 103.847 38.7881 103.77 38.7881C103.729 38.7881 103.692 38.7949 103.66 38.8086C103.628 38.8223 103.59 38.8291 103.544 38.8291C103.466 38.8291 103.394 38.8132 103.325 38.7812C103.261 38.7493 103.191 38.7334 103.113 38.7334C102.999 38.7334 102.881 38.7585 102.758 38.8086C102.635 38.8542 102.509 38.877 102.382 38.877C102.309 38.877 102.243 38.861 102.184 38.8291C102.129 38.7972 102.074 38.7585 102.02 38.7129C101.969 38.6628 101.922 38.6126 101.876 38.5625C101.83 38.5124 101.78 38.4668 101.726 38.4258C101.716 38.3711 101.694 38.2845 101.657 38.166C101.625 38.0475 101.591 37.9245 101.555 37.7969C101.518 37.6693 101.486 37.5508 101.459 37.4414C101.432 37.332 101.418 37.2591 101.418 37.2227C101.418 37.1725 101.425 37.1247 101.438 37.0791C101.452 37.029 101.459 36.9788 101.459 36.9287C101.459 36.8649 101.448 36.8057 101.425 36.751C101.402 36.6917 101.391 36.6302 101.391 36.5664C101.391 36.5527 101.391 36.5094 101.391 36.4365C101.395 36.3636 101.397 36.2861 101.397 36.2041C101.402 36.1175 101.404 36.0378 101.404 35.9648C101.409 35.8919 101.413 35.8486 101.418 35.835C101.409 35.7712 101.391 35.7119 101.363 35.6572C101.34 35.598 101.318 35.5365 101.295 35.4727C101.34 35.222 101.366 34.985 101.37 34.7617C101.375 34.5339 101.377 34.29 101.377 34.0303C101.377 34.0075 101.366 33.9915 101.343 33.9824C101.32 33.9688 101.293 33.9596 101.261 33.9551C101.233 33.9505 101.204 33.9482 101.172 33.9482C101.145 33.9482 101.124 33.9482 101.11 33.9482C101.083 33.9482 101.053 33.946 101.021 33.9414C100.99 33.9368 100.962 33.9186 100.939 33.8867C100.857 33.8639 100.787 33.8229 100.728 33.7637C100.673 33.6999 100.614 33.6383 100.55 33.5791V33.4971C100.545 33.4196 100.552 33.3467 100.57 33.2783C100.593 33.2054 100.616 33.1348 100.639 33.0664C100.666 32.9935 100.691 32.9229 100.714 32.8545C100.737 32.7816 100.753 32.7064 100.762 32.6289C100.803 32.6016 100.846 32.5833 100.892 32.5742C100.937 32.5605 100.953 32.5195 100.939 32.4512C100.985 32.4147 101.044 32.3988 101.117 32.4033C101.195 32.4033 101.258 32.4033 101.309 32.4033H101.336C101.35 32.3532 101.356 32.3053 101.356 32.2598C101.361 32.2096 101.363 32.1595 101.363 32.1094C101.363 31.8724 101.34 31.6377 101.295 31.4053C101.254 31.1729 101.233 30.9382 101.233 30.7012C101.233 30.6328 101.245 30.5371 101.268 30.4141C101.29 30.2865 101.318 30.1566 101.35 30.0244C101.382 29.8877 101.416 29.7578 101.452 29.6348C101.489 29.5072 101.518 29.4092 101.541 29.3408C101.669 29.318 101.787 29.2816 101.896 29.2314C102.01 29.1813 102.127 29.1562 102.245 29.1562C102.313 29.1562 102.384 29.1631 102.457 29.1768C102.53 29.1904 102.598 29.1973 102.662 29.1973C102.726 29.1973 102.783 29.1904 102.833 29.1768C102.883 29.1631 102.936 29.1494 102.99 29.1357C103.045 29.1221 103.106 29.1084 103.175 29.0947C103.243 29.0811 103.325 29.0742 103.421 29.0742C103.785 29.0742 104.155 29.0583 104.528 29.0264C104.907 28.9899 105.28 28.9398 105.649 28.876C105.672 28.876 105.693 28.8714 105.711 28.8623C105.734 28.8532 105.759 28.8486 105.786 28.8486C105.8 28.8486 105.813 28.86 105.827 28.8828C105.845 28.901 105.859 28.917 105.868 28.9307C105.896 28.917 105.927 28.9102 105.964 28.9102C106.005 28.9056 106.044 28.9033 106.08 28.9033C106.212 28.9033 106.344 28.9238 106.477 28.9648C106.609 29.0013 106.739 29.0332 106.866 29.0605C106.889 29.1517 106.91 29.2406 106.928 29.3271C106.951 29.4137 106.962 29.5026 106.962 29.5938C106.962 29.7487 106.939 29.8649 106.894 29.9424C106.848 30.0153 106.791 30.0745 106.723 30.1201C106.654 30.1611 106.581 30.2021 106.504 30.2432C106.426 30.2796 106.356 30.3389 106.292 30.4209H106.189C106.021 30.4027 105.852 30.4049 105.684 30.4277C105.515 30.4505 105.344 30.4619 105.171 30.4619C105.103 30.4619 105.041 30.4688 104.986 30.4824C104.936 30.4915 104.888 30.5052 104.843 30.5234C104.802 30.5417 104.758 30.5622 104.713 30.585C104.667 30.6032 104.615 30.6214 104.556 30.6396C104.483 30.626 104.414 30.6169 104.351 30.6123C104.287 30.6032 104.218 30.5986 104.146 30.5986C103.909 30.5986 103.678 30.626 103.455 30.6807C103.232 30.7354 103.006 30.7695 102.778 30.7832C102.737 30.8379 102.717 30.8971 102.717 30.9609C102.717 31.0475 102.73 31.1318 102.758 31.2139C102.79 31.2913 102.81 31.3711 102.819 31.4531C102.824 31.5352 102.824 31.6217 102.819 31.7129C102.819 31.7995 102.819 31.8861 102.819 31.9727C102.824 32.0592 102.833 32.1436 102.847 32.2256C102.865 32.3076 102.897 32.3828 102.942 32.4512C102.97 32.4603 102.999 32.4671 103.031 32.4717C103.068 32.4762 103.104 32.4785 103.141 32.4785C103.255 32.4785 103.368 32.4671 103.482 32.4443C103.601 32.417 103.715 32.4033 103.824 32.4033C104.007 32.4033 104.184 32.4284 104.357 32.4785C104.535 32.5241 104.717 32.5469 104.904 32.5469C104.945 32.5469 104.986 32.5378 105.027 32.5195C105.073 32.5013 105.121 32.4922 105.171 32.4922C105.194 32.4922 105.216 32.5013 105.239 32.5195C105.262 32.5378 105.294 32.5469 105.335 32.5469C105.399 32.5469 105.458 32.5309 105.513 32.499C105.567 32.4671 105.631 32.4512 105.704 32.4512C105.763 32.4512 105.818 32.4648 105.868 32.4922C105.923 32.515 105.975 32.5446 106.025 32.5811C106.076 32.613 106.126 32.6449 106.176 32.6768C106.226 32.7041 106.278 32.7201 106.333 32.7246C106.333 32.8158 106.356 32.9023 106.401 32.9844C106.447 33.0664 106.47 33.153 106.47 33.2441C106.47 33.3171 106.442 33.3945 106.388 33.4766C106.333 33.554 106.267 33.627 106.189 33.6953C106.112 33.7637 106.03 33.8252 105.943 33.8799C105.861 33.9346 105.791 33.971 105.731 33.9893C105.695 33.9984 105.659 34.0007 105.622 33.9961C105.59 33.9915 105.561 33.9893 105.533 33.9893C105.474 33.9893 105.415 33.9984 105.355 34.0166C105.296 34.0348 105.237 34.0553 105.178 34.0781C105.123 34.1009 105.064 34.1214 105 34.1396C104.941 34.1579 104.877 34.167 104.809 34.167C104.708 34.167 104.608 34.1602 104.508 34.1465C104.412 34.1328 104.312 34.126 104.207 34.126C104.148 34.126 104.093 34.1328 104.043 34.1465C103.993 34.1602 103.938 34.167 103.879 34.167C103.829 34.167 103.77 34.1556 103.701 34.1328C103.633 34.11 103.564 34.085 103.496 34.0576C103.428 34.0303 103.364 34.0052 103.305 33.9824C103.245 33.9596 103.2 33.9482 103.168 33.9482C103.15 33.9482 103.134 33.9551 103.12 33.9688C103.111 33.9779 103.1 33.9893 103.086 34.0029C103.077 34.012 103.063 34.0212 103.045 34.0303C103.031 34.0394 103.011 34.0394 102.983 34.0303C102.961 34.0713 102.945 34.1146 102.936 34.1602C102.931 34.2012 102.929 34.2422 102.929 34.2832C102.929 34.3743 102.938 34.4632 102.956 34.5498C102.974 34.6318 102.983 34.7161 102.983 34.8027C102.983 34.8665 102.974 34.9326 102.956 35.001C102.938 35.0648 102.929 35.1286 102.929 35.1924C102.929 35.2516 102.938 35.3359 102.956 35.4453C102.974 35.5501 102.995 35.6618 103.018 35.7803C103.045 35.8988 103.068 36.0195 103.086 36.1426C103.104 36.2611 103.113 36.3636 103.113 36.4502C103.113 36.5915 103.106 36.7327 103.093 36.874C103.079 37.0107 103.072 37.1497 103.072 37.291C103.2 37.3275 103.325 37.3503 103.448 37.3594C103.571 37.3685 103.697 37.373 103.824 37.373C104.125 37.373 104.428 37.3548 104.733 37.3184C105.039 37.2819 105.344 37.2591 105.649 37.25C105.745 37.25 105.839 37.2523 105.93 37.2568C106.025 37.2614 106.121 37.2637 106.217 37.2637C106.331 37.2637 106.438 37.2386 106.538 37.1885C106.638 37.1383 106.739 37.1133 106.839 37.1133C107.012 37.1133 107.137 37.1908 107.215 37.3457L107.27 37.332C107.311 37.3275 107.345 37.332 107.372 37.3457C107.399 37.3594 107.424 37.3753 107.447 37.3936C107.475 37.4118 107.5 37.4323 107.522 37.4551C107.545 37.4779 107.573 37.4984 107.604 37.5166ZM115.165 31.9043C115.165 32.0456 115.158 32.1823 115.145 32.3145C115.131 32.4466 115.106 32.5788 115.069 32.7109C114.942 32.7975 114.803 32.859 114.652 32.8955C114.507 32.932 114.356 32.9502 114.201 32.9502C114.165 32.9502 114.128 32.9479 114.092 32.9434C114.06 32.9388 114.026 32.9365 113.989 32.9365C113.957 32.8636 113.925 32.818 113.894 32.7998C113.862 32.777 113.832 32.7565 113.805 32.7383C113.782 32.7201 113.761 32.6904 113.743 32.6494C113.729 32.6084 113.723 32.5309 113.723 32.417C113.723 32.3486 113.709 32.3031 113.682 32.2803C113.654 32.2575 113.636 32.221 113.627 32.1709C113.6 32.0068 113.588 31.8838 113.593 31.8018C113.602 31.7152 113.606 31.6354 113.606 31.5625C113.611 31.4896 113.6 31.4076 113.572 31.3164C113.549 31.2207 113.493 31.084 113.401 30.9062C113.388 30.8789 113.374 30.8402 113.36 30.79C113.347 30.7354 113.328 30.6989 113.306 30.6807C113.283 30.6579 113.249 30.6351 113.203 30.6123C113.158 30.585 113.107 30.5599 113.053 30.5371C112.998 30.5098 112.946 30.487 112.896 30.4688C112.845 30.446 112.804 30.4255 112.772 30.4072C112.736 30.389 112.693 30.3662 112.643 30.3389C112.597 30.307 112.547 30.2773 112.492 30.25C112.438 30.2181 112.385 30.193 112.335 30.1748C112.285 30.152 112.239 30.1406 112.198 30.1406C112.148 30.1406 112.1 30.1475 112.055 30.1611C112.009 30.1748 111.959 30.1816 111.904 30.1816C111.854 30.1816 111.804 30.1748 111.754 30.1611C111.708 30.1475 111.66 30.1406 111.61 30.1406C111.551 30.1406 111.471 30.1566 111.371 30.1885C111.275 30.2204 111.171 30.2637 111.057 30.3184C110.947 30.3685 110.833 30.4277 110.715 30.4961C110.601 30.5599 110.492 30.6283 110.387 30.7012C110.286 30.7695 110.198 30.8379 110.12 30.9062C110.047 30.9746 109.997 31.0361 109.97 31.0908C109.924 31.1774 109.892 31.2686 109.874 31.3643C109.86 31.46 109.847 31.5557 109.833 31.6514C109.824 31.7471 109.81 31.8428 109.792 31.9385C109.774 32.0342 109.74 32.1253 109.689 32.2119C109.735 32.2712 109.767 32.3372 109.785 32.4102C109.803 32.4785 109.819 32.5469 109.833 32.6152C109.847 32.6836 109.86 32.7497 109.874 32.8135C109.892 32.8773 109.924 32.932 109.97 32.9775C110.006 33.0186 110.047 33.055 110.093 33.0869C110.143 33.1188 110.188 33.153 110.229 33.1895C110.271 33.2214 110.305 33.2601 110.332 33.3057C110.364 33.3512 110.38 33.4105 110.38 33.4834C110.43 33.4788 110.492 33.488 110.564 33.5107C110.637 33.529 110.71 33.554 110.783 33.5859C110.861 33.6133 110.936 33.6429 111.009 33.6748C111.082 33.7067 111.143 33.7318 111.193 33.75C111.234 33.7637 111.271 33.7865 111.303 33.8184C111.335 33.8503 111.371 33.873 111.412 33.8867C111.517 33.9186 111.622 33.93 111.727 33.9209C111.836 33.9072 111.943 33.9118 112.048 33.9346C112.13 33.9528 112.196 33.9756 112.246 34.0029C112.301 34.0257 112.351 34.0485 112.396 34.0713C112.447 34.0941 112.501 34.1146 112.561 34.1328C112.62 34.1465 112.7 34.1533 112.8 34.1533C112.836 34.1533 112.875 34.1647 112.916 34.1875C112.957 34.2103 113 34.2331 113.046 34.2559C113.091 34.2786 113.139 34.3014 113.189 34.3242C113.244 34.3424 113.301 34.347 113.36 34.3379C113.429 34.4062 113.49 34.4837 113.545 34.5703C113.6 34.6523 113.652 34.7367 113.702 34.8232C113.757 34.9053 113.814 34.9873 113.873 35.0693C113.932 35.1468 114.001 35.2197 114.078 35.2881C114.078 35.3109 114.074 35.3314 114.064 35.3496C114.06 35.3633 114.058 35.3815 114.058 35.4043C114.058 35.5 114.08 35.5752 114.126 35.6299C114.176 35.68 114.219 35.7438 114.256 35.8213C114.247 35.8623 114.242 35.901 114.242 35.9375C114.242 35.974 114.242 36.0104 114.242 36.0469C114.242 36.2064 114.26 36.3682 114.297 36.5322C114.333 36.6917 114.352 36.8512 114.352 37.0107C114.352 37.1702 114.342 37.3047 114.324 37.4141C114.306 37.5189 114.279 37.6191 114.242 37.7148C114.206 37.806 114.158 37.8971 114.099 37.9883C114.044 38.0794 113.976 38.1888 113.894 38.3164C113.834 38.3984 113.784 38.4896 113.743 38.5898C113.707 38.6901 113.654 38.7744 113.586 38.8428H113.483V38.9453C113.447 38.9727 113.404 38.9954 113.354 39.0137C113.308 39.0319 113.265 39.0547 113.224 39.082C113.073 39.1823 112.959 39.2575 112.882 39.3076C112.804 39.3623 112.729 39.4033 112.656 39.4307C112.588 39.458 112.506 39.4762 112.41 39.4854C112.319 39.499 112.182 39.515 112 39.5332C111.895 39.5423 111.793 39.5583 111.692 39.5811C111.597 39.6038 111.499 39.6152 111.398 39.6152C111.303 39.6152 111.225 39.5993 111.166 39.5674C111.111 39.54 111.045 39.515 110.968 39.4922C110.913 39.4785 110.858 39.4694 110.804 39.4648C110.749 39.4603 110.694 39.4557 110.64 39.4512C110.585 39.4466 110.533 39.4398 110.482 39.4307C110.432 39.4261 110.384 39.4124 110.339 39.3896C110.289 39.3669 110.245 39.3372 110.209 39.3008C110.177 39.2689 110.141 39.2393 110.1 39.2119C110.086 39.2028 110.065 39.1914 110.038 39.1777C110.015 39.1686 109.993 39.1572 109.97 39.1436C109.951 39.1299 109.936 39.1139 109.922 39.0957C109.913 39.0775 109.915 39.0547 109.929 39.0273C109.769 39 109.639 38.9453 109.539 38.8633C109.439 38.7767 109.348 38.681 109.266 38.5762C109.188 38.4668 109.111 38.3574 109.033 38.248C108.96 38.1341 108.867 38.0339 108.753 37.9473C108.753 37.9245 108.755 37.9062 108.76 37.8926C108.764 37.8789 108.767 37.8607 108.767 37.8379C108.767 37.7786 108.755 37.7194 108.732 37.6602C108.714 37.6009 108.694 37.5439 108.671 37.4893C108.648 37.4346 108.625 37.3799 108.603 37.3252C108.584 37.2705 108.575 37.2181 108.575 37.168C108.575 37.0951 108.596 37.0199 108.637 36.9424C108.682 36.8604 108.737 36.7874 108.801 36.7236C108.869 36.6553 108.942 36.6006 109.02 36.5596C109.102 36.514 109.177 36.4912 109.245 36.4912C109.323 36.4912 109.396 36.5049 109.464 36.5322C109.532 36.5596 109.598 36.5938 109.662 36.6348C109.726 36.6758 109.787 36.7214 109.847 36.7715C109.906 36.8216 109.963 36.8695 110.018 36.915C110.036 36.988 110.065 37.0563 110.106 37.1201C110.147 37.1839 110.188 37.2477 110.229 37.3115C110.271 37.3753 110.309 37.4414 110.346 37.5098C110.382 37.5736 110.407 37.6465 110.421 37.7285C110.489 37.7513 110.553 37.7855 110.612 37.8311C110.676 37.8766 110.738 37.9222 110.797 37.9678C110.861 38.0133 110.924 38.0521 110.988 38.084C111.052 38.1159 111.125 38.1318 111.207 38.1318C111.212 38.1318 111.257 38.1227 111.344 38.1045C111.43 38.0863 111.524 38.0658 111.624 38.043C111.729 38.0202 111.825 37.9997 111.911 37.9814C111.998 37.9632 112.043 37.9518 112.048 37.9473C112.075 37.9336 112.098 37.9131 112.116 37.8857C112.134 37.8584 112.157 37.8333 112.185 37.8105C112.221 37.7878 112.257 37.7809 112.294 37.79C112.335 37.7992 112.374 37.7923 112.41 37.7695C112.465 37.7422 112.513 37.7012 112.554 37.6465C112.599 37.5872 112.659 37.5531 112.731 37.5439C112.731 37.4938 112.729 37.4437 112.725 37.3936C112.72 37.3389 112.718 37.2865 112.718 37.2363C112.718 37.2227 112.718 37.2067 112.718 37.1885C112.718 37.1702 112.722 37.1543 112.731 37.1406L112.813 37.0381V36.9424C112.813 36.9014 112.827 36.8695 112.854 36.8467C112.882 36.8193 112.896 36.7806 112.896 36.7305C112.896 36.7122 112.891 36.6803 112.882 36.6348C112.873 36.5892 112.861 36.5436 112.848 36.498C112.834 36.4525 112.82 36.4092 112.807 36.3682C112.793 36.3271 112.782 36.2998 112.772 36.2861L112.677 36.2246C112.663 36.1973 112.659 36.1699 112.663 36.1426C112.668 36.1107 112.659 36.0833 112.636 36.0605L112.547 36.0059C112.52 35.9694 112.499 35.9329 112.485 35.8965C112.472 35.8555 112.447 35.8167 112.41 35.7803C112.36 35.7347 112.285 35.6914 112.185 35.6504C112.089 35.6048 111.984 35.5661 111.87 35.5342C111.761 35.4977 111.654 35.4704 111.549 35.4521C111.444 35.4294 111.357 35.418 111.289 35.418C111.239 35.418 111.189 35.4225 111.139 35.4316C111.093 35.4362 111.05 35.4499 111.009 35.4727C110.954 35.459 110.913 35.443 110.886 35.4248C110.863 35.4066 110.842 35.3883 110.824 35.3701C110.806 35.3519 110.788 35.3337 110.77 35.3154C110.751 35.2972 110.719 35.2812 110.674 35.2676C110.633 35.2539 110.574 35.2425 110.496 35.2334C110.419 35.2243 110.314 35.2197 110.182 35.2197C110.049 35.2197 109.915 35.1764 109.778 35.0898C109.642 35.0033 109.507 34.9007 109.375 34.7822C109.247 34.6592 109.129 34.5339 109.02 34.4062C108.91 34.2741 108.821 34.1624 108.753 34.0713C108.739 34.0485 108.732 34.0189 108.732 33.9824C108.732 33.9414 108.721 33.9095 108.698 33.8867L108.616 33.8457C108.603 33.8047 108.589 33.7682 108.575 33.7363C108.566 33.7044 108.532 33.6816 108.473 33.668V33.627C108.473 33.5267 108.457 33.431 108.425 33.3398C108.393 33.2487 108.35 33.1621 108.295 33.0801C108.304 33.0436 108.309 33.0117 108.309 32.9844C108.309 32.9525 108.309 32.9183 108.309 32.8818C108.309 32.7132 108.29 32.5469 108.254 32.3828C108.222 32.2142 108.206 32.0456 108.206 31.877C108.206 31.8314 108.217 31.7904 108.24 31.7539C108.268 31.7174 108.286 31.6742 108.295 31.624C108.331 31.5055 108.359 31.3825 108.377 31.2549C108.4 31.1227 108.418 30.9928 108.432 30.8652C108.518 30.7969 108.587 30.7331 108.637 30.6738C108.691 30.6146 108.712 30.5257 108.698 30.4072C108.753 30.3753 108.803 30.3411 108.849 30.3047C108.894 30.2637 108.938 30.2227 108.979 30.1816C108.983 30.1315 108.997 30.0859 109.02 30.0449C109.047 30.0039 109.072 29.9629 109.095 29.9219C109.122 29.8809 109.145 29.8398 109.163 29.7988C109.186 29.7533 109.2 29.7031 109.204 29.6484C109.268 29.5983 109.334 29.5505 109.402 29.5049C109.471 29.4548 109.525 29.3955 109.566 29.3271C109.585 29.3271 109.635 29.3044 109.717 29.2588C109.803 29.2132 109.899 29.1631 110.004 29.1084C110.109 29.0492 110.209 28.9945 110.305 28.9443C110.4 28.8896 110.466 28.8532 110.503 28.835C110.571 28.8031 110.656 28.7803 110.756 28.7666C110.856 28.7484 110.956 28.7301 111.057 28.7119C111.157 28.6937 111.25 28.6732 111.337 28.6504C111.428 28.6276 111.501 28.5957 111.556 28.5547C111.697 28.5866 111.861 28.6094 112.048 28.623C112.239 28.6367 112.428 28.6572 112.615 28.6846C112.802 28.7119 112.978 28.7575 113.142 28.8213C113.31 28.8805 113.445 28.974 113.545 29.1016C113.645 29.1061 113.732 29.1266 113.805 29.1631C113.878 29.195 113.946 29.2337 114.01 29.2793C114.078 29.3249 114.144 29.3704 114.208 29.416C114.276 29.457 114.354 29.4867 114.44 29.5049C114.44 29.5596 114.454 29.6074 114.481 29.6484L114.577 29.6895C114.604 29.735 114.627 29.7852 114.646 29.8398C114.668 29.89 114.687 29.9401 114.7 29.9902C114.718 30.0404 114.737 30.0905 114.755 30.1406C114.778 30.1908 114.807 30.2363 114.844 30.2773C114.867 30.3001 114.892 30.3206 114.919 30.3389C114.951 30.3525 114.974 30.3753 114.987 30.4072C114.996 30.4346 114.996 30.4619 114.987 30.4893C114.978 30.512 114.974 30.5348 114.974 30.5576L114.987 30.585L115.069 30.6807C115.088 30.749 115.101 30.8379 115.11 30.9473C115.124 31.0521 115.133 31.1637 115.138 31.2822C115.147 31.4007 115.154 31.5169 115.158 31.6309C115.163 31.7402 115.165 31.8314 115.165 31.9043ZM122.91 38.6104C122.91 38.6924 122.899 38.7653 122.876 38.8291C122.853 38.8883 122.826 38.943 122.794 38.9932C122.762 39.0433 122.726 39.0934 122.685 39.1436C122.648 39.1937 122.614 39.2529 122.582 39.3213L122.486 39.3076C122.395 39.3076 122.304 39.3145 122.213 39.3281C122.122 39.3418 122.031 39.3486 121.939 39.3486C121.857 39.3486 121.78 39.335 121.707 39.3076C121.639 39.2803 121.586 39.2233 121.55 39.1367C121.486 39.1003 121.422 39.0729 121.358 39.0547C121.295 39.041 121.238 39.0091 121.188 38.959V38.8906C121.188 38.8268 121.167 38.7699 121.126 38.7197C121.085 38.6696 121.058 38.6126 121.044 38.5488C121.017 38.4258 121.005 38.2982 121.01 38.166C121.014 38.0293 121.017 37.8971 121.017 37.7695C121.017 37.6556 121.005 37.5439 120.982 37.4346C120.96 37.3252 120.935 37.2181 120.907 37.1133C120.88 37.0039 120.855 36.8968 120.832 36.792C120.814 36.6826 120.809 36.5732 120.818 36.4639C120.622 36.4411 120.429 36.4229 120.237 36.4092C120.05 36.391 119.857 36.3818 119.656 36.3818C119.488 36.3818 119.317 36.391 119.144 36.4092C118.975 36.4229 118.811 36.4616 118.651 36.5254C118.565 36.4753 118.471 36.4388 118.371 36.416C118.275 36.3932 118.177 36.3818 118.077 36.3818C117.972 36.3818 117.879 36.3955 117.797 36.4229C117.76 36.514 117.742 36.6051 117.742 36.6963C117.742 36.7874 117.729 36.8786 117.701 36.9697C117.692 37.0107 117.676 37.0404 117.653 37.0586C117.635 37.0723 117.621 37.0905 117.612 37.1133C117.603 37.1361 117.601 37.1611 117.605 37.1885C117.61 37.2113 117.612 37.2363 117.612 37.2637C117.612 37.291 117.592 37.3343 117.551 37.3936C117.514 37.4528 117.489 37.5075 117.476 37.5576C117.453 37.6761 117.439 37.8037 117.435 37.9404C117.435 38.0726 117.435 38.2025 117.435 38.3301C117.435 38.3574 117.444 38.3825 117.462 38.4053C117.48 38.4235 117.489 38.444 117.489 38.4668C117.489 38.4896 117.455 38.5511 117.387 38.6514C117.318 38.7471 117.241 38.8519 117.154 38.9658C117.072 39.0752 116.995 39.1732 116.922 39.2598C116.849 39.3509 116.81 39.3988 116.806 39.4033C116.774 39.4124 116.744 39.417 116.717 39.417C116.689 39.417 116.662 39.417 116.635 39.417C116.475 39.417 116.32 39.3783 116.17 39.3008C116.02 39.2279 115.885 39.1413 115.767 39.041V38.9453C115.767 38.8268 115.757 38.7083 115.739 38.5898C115.721 38.4668 115.698 38.346 115.671 38.2275C115.735 38.1455 115.776 38.0612 115.794 37.9746C115.812 37.888 115.817 37.7969 115.808 37.7012C115.849 37.6556 115.883 37.6191 115.91 37.5918C115.942 37.5645 115.967 37.5371 115.985 37.5098C116.004 37.4824 116.015 37.4505 116.02 37.4141C116.029 37.3776 116.033 37.3275 116.033 37.2637V37.2363L116.129 37.1543C116.138 37.1042 116.138 37.0586 116.129 37.0176C116.12 36.972 116.115 36.9242 116.115 36.874C116.115 36.8376 116.12 36.8079 116.129 36.7852L116.218 36.7031C116.227 36.6758 116.229 36.6507 116.225 36.6279C116.22 36.6006 116.218 36.5755 116.218 36.5527C116.218 36.5299 116.225 36.5117 116.238 36.498C116.252 36.4798 116.268 36.4616 116.286 36.4434C116.304 36.4251 116.32 36.4069 116.334 36.3887C116.348 36.3704 116.354 36.3499 116.354 36.3271V36.2998C116.168 36.2725 115.985 36.2725 115.808 36.2998C115.748 36.2588 115.687 36.2155 115.623 36.1699C115.564 36.1243 115.509 36.0765 115.459 36.0264C115.409 35.9762 115.368 35.9193 115.336 35.8555C115.304 35.7917 115.288 35.7188 115.288 35.6367C115.288 35.4863 115.318 35.3724 115.377 35.2949C115.436 35.2174 115.507 35.1536 115.589 35.1035C115.675 35.0488 115.767 34.9987 115.862 34.9531C115.963 34.9076 116.051 34.8415 116.129 34.7549H116.484C116.566 34.6729 116.637 34.584 116.696 34.4883C116.76 34.388 116.81 34.2809 116.847 34.167C116.86 34.126 116.867 34.0827 116.867 34.0371C116.867 33.9915 116.874 33.9482 116.888 33.9072C116.929 33.8161 116.983 33.734 117.052 33.6611C117.12 33.5837 117.173 33.4971 117.209 33.4014C117.232 33.3285 117.239 33.2533 117.229 33.1758C117.22 33.0983 117.227 33.0231 117.25 32.9502C117.291 32.8271 117.337 32.7178 117.387 32.6221C117.437 32.5264 117.485 32.4307 117.53 32.335C117.58 32.2347 117.621 32.123 117.653 32C117.685 31.877 117.701 31.7266 117.701 31.5488C117.701 31.5215 117.694 31.4987 117.681 31.4805C117.667 31.4622 117.66 31.4395 117.66 31.4121C117.66 31.3848 117.678 31.3438 117.715 31.2891C117.756 31.2344 117.783 31.1865 117.797 31.1455C117.811 31.0954 117.811 31.0475 117.797 31.002C117.788 30.9518 117.783 30.9017 117.783 30.8516C117.783 30.8197 117.808 30.749 117.858 30.6396C117.909 30.5257 117.968 30.4072 118.036 30.2842C118.104 30.1566 118.175 30.0381 118.248 29.9287C118.321 29.8148 118.38 29.7396 118.426 29.7031C118.43 29.6029 118.449 29.5163 118.48 29.4434C118.512 29.3659 118.549 29.293 118.59 29.2246C118.631 29.1562 118.674 29.0879 118.72 29.0195C118.765 28.9512 118.804 28.876 118.836 28.7939C118.9 28.7939 118.945 28.7666 118.973 28.7119C118.982 28.7028 118.995 28.6982 119.014 28.6982C119.087 28.6982 119.169 28.7051 119.26 28.7188C119.351 28.7324 119.456 28.7393 119.574 28.7393C119.679 28.7393 119.779 28.7643 119.875 28.8145C119.975 28.86 120.066 28.9147 120.148 28.9785C120.226 29.0378 120.299 29.138 120.367 29.2793C120.44 29.4206 120.508 29.5846 120.572 29.7715C120.636 29.9538 120.695 30.1497 120.75 30.3594C120.809 30.569 120.864 30.7741 120.914 30.9746C120.964 31.1706 121.012 31.3529 121.058 31.5215C121.103 31.6855 121.146 31.8177 121.188 31.918C121.21 31.9818 121.24 32.041 121.276 32.0957C121.313 32.1458 121.342 32.2074 121.365 32.2803C121.379 32.3441 121.383 32.4102 121.379 32.4785C121.374 32.5469 121.383 32.6152 121.406 32.6836C121.424 32.7428 121.447 32.7952 121.475 32.8408C121.502 32.8864 121.527 32.9365 121.55 32.9912C121.586 33.1325 121.609 33.2783 121.618 33.4287C121.627 33.5745 121.661 33.7135 121.721 33.8457C121.839 34.1146 121.935 34.388 122.008 34.666C122.085 34.944 122.124 35.2266 122.124 35.5137C122.124 35.5775 122.142 35.6436 122.179 35.7119C122.179 35.7484 122.19 35.7871 122.213 35.8281C122.236 35.8691 122.261 35.9124 122.288 35.958C122.32 35.999 122.35 36.04 122.377 36.0811C122.409 36.1221 122.432 36.1608 122.445 36.1973C122.454 36.2246 122.473 36.2998 122.5 36.4229C122.527 36.5413 122.557 36.6849 122.589 36.8535C122.625 37.0221 122.662 37.2044 122.698 37.4004C122.735 37.5918 122.769 37.7741 122.801 37.9473C122.833 38.1159 122.858 38.2617 122.876 38.3848C122.899 38.5078 122.91 38.583 122.91 38.6104ZM120.415 34.8984C120.41 34.8073 120.395 34.7184 120.367 34.6318C120.34 34.5452 120.308 34.4609 120.271 34.3789C120.24 34.2923 120.205 34.2057 120.169 34.1191C120.137 34.028 120.112 33.9368 120.094 33.8457C120.08 33.75 120.076 33.6475 120.08 33.5381C120.089 33.4287 120.08 33.3216 120.053 33.2168C120.039 33.1621 120.023 33.1234 120.005 33.1006C119.991 33.0778 119.978 33.0573 119.964 33.0391C119.955 33.0163 119.946 32.9889 119.937 32.957C119.927 32.9206 119.923 32.8636 119.923 32.7861C119.923 32.7451 119.911 32.7064 119.889 32.6699C119.87 32.6335 119.85 32.597 119.827 32.5605C119.804 32.5241 119.782 32.4808 119.759 32.4307C119.741 32.3805 119.731 32.3213 119.731 32.2529C119.731 32.2119 119.738 32.1709 119.752 32.1299C119.766 32.0843 119.777 32.041 119.786 32C119.7 31.9225 119.627 31.8359 119.567 31.7402C119.513 31.6445 119.449 31.5534 119.376 31.4668C119.344 31.485 119.324 31.5146 119.314 31.5557C119.305 31.5967 119.301 31.6423 119.301 31.6924C119.301 31.738 119.301 31.7858 119.301 31.8359C119.301 31.8861 119.294 31.9271 119.28 31.959C119.267 32 119.239 32.0319 119.198 32.0547C119.162 32.0729 119.13 32.1003 119.103 32.1367C119.08 32.1732 119.062 32.2142 119.048 32.2598C119.039 32.3053 119.014 32.3395 118.973 32.3623V32.7725C118.868 32.8955 118.781 33.0391 118.713 33.2031C118.649 33.3672 118.594 33.5381 118.549 33.7158C118.508 33.8936 118.474 34.0736 118.446 34.2559C118.424 34.4336 118.403 34.5999 118.385 34.7549C118.398 34.764 118.414 34.7708 118.433 34.7754C118.451 34.7754 118.467 34.7754 118.48 34.7754C118.558 34.7754 118.633 34.7663 118.706 34.748C118.779 34.7253 118.854 34.7139 118.932 34.7139C119.128 34.7139 119.319 34.7275 119.506 34.7549C119.556 34.764 119.599 34.7822 119.636 34.8096C119.677 34.8324 119.722 34.8438 119.772 34.8438C119.795 34.8438 119.813 34.8369 119.827 34.8232C119.845 34.8096 119.873 34.8027 119.909 34.8027C119.982 34.8027 120.05 34.8232 120.114 34.8643C120.178 34.9053 120.246 34.9258 120.319 34.9258C120.347 34.9258 120.379 34.9167 120.415 34.8984ZM130.074 38.2412C130.074 38.3415 130.051 38.444 130.006 38.5488C129.965 38.6536 129.931 38.7516 129.903 38.8428C129.844 38.8564 129.794 38.8724 129.753 38.8906C129.716 38.9043 129.68 38.918 129.644 38.9316C129.607 38.9453 129.566 38.959 129.521 38.9727C129.475 38.9818 129.416 38.9863 129.343 38.9863C129.302 38.9863 129.274 38.9909 129.261 39C129.247 39.0091 129.233 39.0205 129.22 39.0342C129.206 39.0479 129.19 39.0592 129.172 39.0684C129.154 39.0775 129.122 39.082 129.076 39.082C129.021 39.082 128.965 39.0752 128.905 39.0615C128.851 39.0479 128.791 39.0365 128.728 39.0273C128.728 39.0319 128.725 39.0365 128.721 39.041C128.721 39.0456 128.721 39.0524 128.721 39.0615C128.716 39.0706 128.714 39.0775 128.714 39.082C128.687 39.082 128.655 39.0729 128.618 39.0547C128.582 39.0365 128.543 39.0273 128.502 39.0273H127.75C127.618 39.0273 127.493 39.0433 127.374 39.0752C127.256 39.1071 127.132 39.123 127.005 39.123C126.914 39.123 126.825 39.1162 126.738 39.1025C126.652 39.0889 126.563 39.082 126.472 39.082C126.28 39.082 126.093 39.1025 125.911 39.1436C125.729 39.1891 125.542 39.2119 125.351 39.2119C125.177 39.2119 125.002 39.1846 124.824 39.1299C124.646 39.0752 124.492 39 124.359 38.9043C124.296 38.7357 124.232 38.5716 124.168 38.4121C124.109 38.248 124.079 38.0749 124.079 37.8926C124.079 37.7786 124.102 37.6715 124.147 37.5713C124.193 37.471 124.216 37.3639 124.216 37.25C124.216 37.1953 124.207 37.1452 124.188 37.0996C124.17 37.0495 124.15 37.0016 124.127 36.9561C124.104 36.9105 124.084 36.8649 124.065 36.8193C124.047 36.7738 124.038 36.7305 124.038 36.6895C124.038 36.6211 124.047 36.5527 124.065 36.4844C124.084 36.4115 124.104 36.3408 124.127 36.2725C124.15 36.2041 124.17 36.1357 124.188 36.0674C124.207 35.9945 124.216 35.9215 124.216 35.8486C124.216 35.6618 124.193 35.4772 124.147 35.2949C124.102 35.1081 124.079 34.9189 124.079 34.7275C124.079 34.5316 124.088 34.3356 124.106 34.1396C124.125 33.9437 124.134 33.7432 124.134 33.5381L124.12 32.4512C124.12 32.3737 124.113 32.3008 124.1 32.2324C124.086 32.1641 124.079 32.0911 124.079 32.0137C124.079 31.9225 124.095 31.8314 124.127 31.7402C124.159 31.6491 124.175 31.5579 124.175 31.4668C124.175 31.403 124.166 31.3415 124.147 31.2822C124.129 31.2184 124.12 31.1546 124.12 31.0908C124.12 31.027 124.129 30.9655 124.147 30.9062C124.166 30.8424 124.175 30.7786 124.175 30.7148C124.175 30.6009 124.159 30.4915 124.127 30.3867C124.095 30.2773 124.079 30.1657 124.079 30.0518C124.079 29.9561 124.09 29.8581 124.113 29.7578C124.141 29.653 124.179 29.5573 124.229 29.4707C124.284 29.3841 124.35 29.3135 124.428 29.2588C124.505 29.1995 124.599 29.1699 124.708 29.1699C124.772 29.1699 124.849 29.1745 124.94 29.1836C125.036 29.1927 125.114 29.2132 125.173 29.2451C125.228 29.2679 125.282 29.3158 125.337 29.3887C125.396 29.457 125.451 29.5345 125.501 29.6211C125.551 29.7031 125.594 29.7874 125.631 29.874C125.667 29.9606 125.692 30.0335 125.706 30.0928C125.733 30.234 125.749 30.3799 125.754 30.5303C125.763 30.6761 125.768 30.8265 125.768 30.9814C125.768 31.1318 125.763 31.2845 125.754 31.4395C125.749 31.5898 125.747 31.7357 125.747 31.877C125.747 32.0684 125.756 32.2598 125.774 32.4512C125.793 32.6426 125.802 32.8385 125.802 33.0391C125.802 33.1803 125.781 33.3193 125.74 33.4561C125.704 33.5928 125.686 33.7318 125.686 33.873C125.686 33.9779 125.704 34.0758 125.74 34.167C125.781 34.2536 125.802 34.3424 125.802 34.4336C125.802 34.6341 125.795 34.8301 125.781 35.0215C125.768 35.2083 125.761 35.3997 125.761 35.5957C125.761 35.7871 125.765 35.974 125.774 36.1562C125.784 36.3385 125.788 36.5208 125.788 36.7031C125.788 36.7943 125.786 36.8831 125.781 36.9697C125.777 37.0518 125.77 37.1361 125.761 37.2227C125.788 37.3138 125.877 37.3776 126.027 37.4141C126.178 37.446 126.346 37.4665 126.533 37.4756C126.72 37.4801 126.902 37.4779 127.08 37.4688C127.258 37.4551 127.388 37.4482 127.47 37.4482C127.534 37.4482 127.595 37.4574 127.654 37.4756C127.718 37.4938 127.782 37.5029 127.846 37.5029C127.946 37.5029 128.042 37.487 128.133 37.4551C128.224 37.4232 128.32 37.4072 128.42 37.4072C128.484 37.4072 128.543 37.4141 128.598 37.4277C128.657 37.4414 128.718 37.4482 128.782 37.4482C128.937 37.4574 129.069 37.471 129.179 37.4893C129.288 37.5029 129.388 37.5303 129.479 37.5713C129.571 37.6123 129.655 37.6693 129.732 37.7422C129.814 37.8151 129.903 37.9131 129.999 38.0361C130.049 38.0999 130.074 38.1683 130.074 38.2412ZM137.341 37.5166C137.368 37.6123 137.382 37.7057 137.382 37.7969C137.382 37.9108 137.361 38.0179 137.32 38.1182C137.284 38.2184 137.245 38.321 137.204 38.4258C137.154 38.4668 137.097 38.4987 137.033 38.5215C136.969 38.5443 136.91 38.5739 136.855 38.6104C136.76 38.665 136.678 38.7038 136.609 38.7266C136.546 38.7493 136.482 38.763 136.418 38.7676C136.354 38.7721 136.286 38.7721 136.213 38.7676C136.14 38.763 136.049 38.7607 135.939 38.7607C135.771 38.7607 135.616 38.7812 135.475 38.8223C135.338 38.8587 135.21 38.877 135.092 38.877C134.973 38.877 134.848 38.8678 134.716 38.8496C134.588 38.8268 134.461 38.8154 134.333 38.8154C134.256 38.8154 134.18 38.8245 134.107 38.8428C134.039 38.8564 133.968 38.8815 133.896 38.918C133.827 38.918 133.763 38.8975 133.704 38.8564C133.649 38.8109 133.583 38.7881 133.506 38.7881C133.465 38.7881 133.428 38.7949 133.396 38.8086C133.365 38.8223 133.326 38.8291 133.28 38.8291C133.203 38.8291 133.13 38.8132 133.062 38.7812C132.998 38.7493 132.927 38.7334 132.85 38.7334C132.736 38.7334 132.617 38.7585 132.494 38.8086C132.371 38.8542 132.246 38.877 132.118 38.877C132.045 38.877 131.979 38.861 131.92 38.8291C131.865 38.7972 131.811 38.7585 131.756 38.7129C131.706 38.6628 131.658 38.6126 131.612 38.5625C131.567 38.5124 131.517 38.4668 131.462 38.4258C131.453 38.3711 131.43 38.2845 131.394 38.166C131.362 38.0475 131.327 37.9245 131.291 37.7969C131.255 37.6693 131.223 37.5508 131.195 37.4414C131.168 37.332 131.154 37.2591 131.154 37.2227C131.154 37.1725 131.161 37.1247 131.175 37.0791C131.188 37.029 131.195 36.9788 131.195 36.9287C131.195 36.8649 131.184 36.8057 131.161 36.751C131.138 36.6917 131.127 36.6302 131.127 36.5664C131.127 36.5527 131.127 36.5094 131.127 36.4365C131.132 36.3636 131.134 36.2861 131.134 36.2041C131.138 36.1175 131.141 36.0378 131.141 35.9648C131.145 35.8919 131.15 35.8486 131.154 35.835C131.145 35.7712 131.127 35.7119 131.1 35.6572C131.077 35.598 131.054 35.5365 131.031 35.4727C131.077 35.222 131.102 34.985 131.106 34.7617C131.111 34.5339 131.113 34.29 131.113 34.0303C131.113 34.0075 131.102 33.9915 131.079 33.9824C131.056 33.9688 131.029 33.9596 130.997 33.9551C130.97 33.9505 130.94 33.9482 130.908 33.9482C130.881 33.9482 130.86 33.9482 130.847 33.9482C130.819 33.9482 130.79 33.946 130.758 33.9414C130.726 33.9368 130.699 33.9186 130.676 33.8867C130.594 33.8639 130.523 33.8229 130.464 33.7637C130.409 33.6999 130.35 33.6383 130.286 33.5791V33.4971C130.282 33.4196 130.288 33.3467 130.307 33.2783C130.329 33.2054 130.352 33.1348 130.375 33.0664C130.402 32.9935 130.427 32.9229 130.45 32.8545C130.473 32.7816 130.489 32.7064 130.498 32.6289C130.539 32.6016 130.582 32.5833 130.628 32.5742C130.674 32.5605 130.689 32.5195 130.676 32.4512C130.721 32.4147 130.781 32.3988 130.854 32.4033C130.931 32.4033 130.995 32.4033 131.045 32.4033H131.072C131.086 32.3532 131.093 32.3053 131.093 32.2598C131.097 32.2096 131.1 32.1595 131.1 32.1094C131.1 31.8724 131.077 31.6377 131.031 31.4053C130.99 31.1729 130.97 30.9382 130.97 30.7012C130.97 30.6328 130.981 30.5371 131.004 30.4141C131.027 30.2865 131.054 30.1566 131.086 30.0244C131.118 29.8877 131.152 29.7578 131.188 29.6348C131.225 29.5072 131.255 29.4092 131.277 29.3408C131.405 29.318 131.523 29.2816 131.633 29.2314C131.747 29.1813 131.863 29.1562 131.981 29.1562C132.05 29.1562 132.12 29.1631 132.193 29.1768C132.266 29.1904 132.335 29.1973 132.398 29.1973C132.462 29.1973 132.519 29.1904 132.569 29.1768C132.619 29.1631 132.672 29.1494 132.727 29.1357C132.781 29.1221 132.843 29.1084 132.911 29.0947C132.979 29.0811 133.062 29.0742 133.157 29.0742C133.522 29.0742 133.891 29.0583 134.265 29.0264C134.643 28.9899 135.017 28.9398 135.386 28.876C135.409 28.876 135.429 28.8714 135.447 28.8623C135.47 28.8532 135.495 28.8486 135.522 28.8486C135.536 28.8486 135.55 28.86 135.563 28.8828C135.582 28.901 135.595 28.917 135.604 28.9307C135.632 28.917 135.664 28.9102 135.7 28.9102C135.741 28.9056 135.78 28.9033 135.816 28.9033C135.949 28.9033 136.081 28.9238 136.213 28.9648C136.345 29.0013 136.475 29.0332 136.603 29.0605C136.625 29.1517 136.646 29.2406 136.664 29.3271C136.687 29.4137 136.698 29.5026 136.698 29.5938C136.698 29.7487 136.675 29.8649 136.63 29.9424C136.584 30.0153 136.527 30.0745 136.459 30.1201C136.391 30.1611 136.318 30.2021 136.24 30.2432C136.163 30.2796 136.092 30.3389 136.028 30.4209H135.926C135.757 30.4027 135.589 30.4049 135.42 30.4277C135.251 30.4505 135.08 30.4619 134.907 30.4619C134.839 30.4619 134.777 30.4688 134.723 30.4824C134.673 30.4915 134.625 30.5052 134.579 30.5234C134.538 30.5417 134.495 30.5622 134.449 30.585C134.404 30.6032 134.351 30.6214 134.292 30.6396C134.219 30.626 134.151 30.6169 134.087 30.6123C134.023 30.6032 133.955 30.5986 133.882 30.5986C133.645 30.5986 133.415 30.626 133.191 30.6807C132.968 30.7354 132.743 30.7695 132.515 30.7832C132.474 30.8379 132.453 30.8971 132.453 30.9609C132.453 31.0475 132.467 31.1318 132.494 31.2139C132.526 31.2913 132.547 31.3711 132.556 31.4531C132.56 31.5352 132.56 31.6217 132.556 31.7129C132.556 31.7995 132.556 31.8861 132.556 31.9727C132.56 32.0592 132.569 32.1436 132.583 32.2256C132.601 32.3076 132.633 32.3828 132.679 32.4512C132.706 32.4603 132.736 32.4671 132.768 32.4717C132.804 32.4762 132.84 32.4785 132.877 32.4785C132.991 32.4785 133.105 32.4671 133.219 32.4443C133.337 32.417 133.451 32.4033 133.561 32.4033C133.743 32.4033 133.921 32.4284 134.094 32.4785C134.271 32.5241 134.454 32.5469 134.641 32.5469C134.682 32.5469 134.723 32.5378 134.764 32.5195C134.809 32.5013 134.857 32.4922 134.907 32.4922C134.93 32.4922 134.953 32.5013 134.976 32.5195C134.998 32.5378 135.03 32.5469 135.071 32.5469C135.135 32.5469 135.194 32.5309 135.249 32.499C135.304 32.4671 135.368 32.4512 135.44 32.4512C135.5 32.4512 135.554 32.4648 135.604 32.4922C135.659 32.515 135.712 32.5446 135.762 32.5811C135.812 32.613 135.862 32.6449 135.912 32.6768C135.962 32.7041 136.015 32.7201 136.069 32.7246C136.069 32.8158 136.092 32.9023 136.138 32.9844C136.183 33.0664 136.206 33.153 136.206 33.2441C136.206 33.3171 136.179 33.3945 136.124 33.4766C136.069 33.554 136.003 33.627 135.926 33.6953C135.848 33.7637 135.766 33.8252 135.68 33.8799C135.598 33.9346 135.527 33.971 135.468 33.9893C135.431 33.9984 135.395 34.0007 135.358 33.9961C135.326 33.9915 135.297 33.9893 135.27 33.9893C135.21 33.9893 135.151 33.9984 135.092 34.0166C135.033 34.0348 134.973 34.0553 134.914 34.0781C134.859 34.1009 134.8 34.1214 134.736 34.1396C134.677 34.1579 134.613 34.167 134.545 34.167C134.445 34.167 134.344 34.1602 134.244 34.1465C134.148 34.1328 134.048 34.126 133.943 34.126C133.884 34.126 133.829 34.1328 133.779 34.1465C133.729 34.1602 133.674 34.167 133.615 34.167C133.565 34.167 133.506 34.1556 133.438 34.1328C133.369 34.11 133.301 34.085 133.232 34.0576C133.164 34.0303 133.1 34.0052 133.041 33.9824C132.982 33.9596 132.936 33.9482 132.904 33.9482C132.886 33.9482 132.87 33.9551 132.856 33.9688C132.847 33.9779 132.836 33.9893 132.822 34.0029C132.813 34.012 132.799 34.0212 132.781 34.0303C132.768 34.0394 132.747 34.0394 132.72 34.0303C132.697 34.0713 132.681 34.1146 132.672 34.1602C132.667 34.2012 132.665 34.2422 132.665 34.2832C132.665 34.3743 132.674 34.4632 132.692 34.5498C132.711 34.6318 132.72 34.7161 132.72 34.8027C132.72 34.8665 132.711 34.9326 132.692 35.001C132.674 35.0648 132.665 35.1286 132.665 35.1924C132.665 35.2516 132.674 35.3359 132.692 35.4453C132.711 35.5501 132.731 35.6618 132.754 35.7803C132.781 35.8988 132.804 36.0195 132.822 36.1426C132.84 36.2611 132.85 36.3636 132.85 36.4502C132.85 36.5915 132.843 36.7327 132.829 36.874C132.815 37.0107 132.809 37.1497 132.809 37.291C132.936 37.3275 133.062 37.3503 133.185 37.3594C133.308 37.3685 133.433 37.373 133.561 37.373C133.861 37.373 134.164 37.3548 134.47 37.3184C134.775 37.2819 135.08 37.2591 135.386 37.25C135.481 37.25 135.575 37.2523 135.666 37.2568C135.762 37.2614 135.857 37.2637 135.953 37.2637C136.067 37.2637 136.174 37.2386 136.274 37.1885C136.375 37.1383 136.475 37.1133 136.575 37.1133C136.748 37.1133 136.874 37.1908 136.951 37.3457L137.006 37.332C137.047 37.3275 137.081 37.332 137.108 37.3457C137.136 37.3594 137.161 37.3753 137.184 37.3936C137.211 37.4118 137.236 37.4323 137.259 37.4551C137.282 37.4779 137.309 37.4984 137.341 37.5166Z" fill="white"/>
<g clip-path="url(#clip0_7412_102676)">
<path d="M39.4932 44.8469C37.3163 51.0169 33.4732 50.3263 33.4732 50.3263C31.1613 49.6056 30.3507 47.3238 30.3507 47.3238L39.4932 44.8469Z" fill="#824F31"/>
<path d="M40.7245 29.5044L40.2742 26.0666C35.9358 19.6412 26.403 21.7428 26.403 21.7428L23.8208 26.7718L40.7245 29.5044Z" fill="#824F31"/>
<path d="M15.716 40.0121L15.1474 35.0107C16.4907 29.9021 23.4607 25.9042 29.8644 25.7788C37.0406 25.6382 45.118 30.3298 45.2351 36.3093C45.3523 42.2888 37.4648 47.2931 30.2886 47.4337C24.4155 47.5488 17.939 44.4274 15.716 40.0121Z" fill="#A97C50"/>
<path d="M24.5861 46.2878C24.5861 46.2878 29.4876 42.3622 29.3751 36.62C29.2627 30.8778 23.0702 27.5525 23.0702 27.5525C23.0702 27.5525 16.9752 29.2037 14.438 36.5296C13.402 42.2943 24.5861 46.2878 24.5861 46.2878Z" fill="#966E47"/>
<path d="M44.7476 39.3825C44.7476 39.3825 48.6507 43.1357 52.8541 42.6704C52.8541 42.6704 50.8726 39.2626 50.4223 35.8247C49.972 32.3869 50.6476 27.7782 50.6476 27.7782C46.8195 27.8532 44.6276 33.2575 44.6276 33.2575L44.7476 39.3825Z" fill="#824F31"/>
<path d="M14.4229 35.764C13.297 36.9349 14.4679 38.0609 16.3745 37.6406C19.422 36.815 22.1541 39.4421 23.2801 38.2712C25.5631 35.8969 17.4254 32.6415 14.4229 35.764Z" fill="#824F31"/>
<path d="M21.3736 38.6915C19.1217 41.0334 16.0442 40.3278 15.2636 39.5771C14.0927 38.4512 14.8433 37.6706 14.8433 37.6706C14.8433 37.6706 17.1102 36.0943 19.0467 37.2053C20.9833 38.3162 21.3736 38.6915 21.3736 38.6915Z" fill="#824F31"/>
<path d="M23.9407 32.8968C23.3189 33.5435 22.2906 33.5637 21.6439 32.9418C20.9972 32.32 20.977 31.2917 21.5989 30.645C22.2207 29.9983 23.2491 29.9781 23.8957 30.6C24.5424 31.2218 24.5626 32.2502 23.9407 32.8968Z" fill="#824F31"/>
<path d="M15.2323 40.2556C15.2271 40.2446 15.2276 40.2324 15.2232 40.2213C15.0976 40.1403 14.9814 40.0564 14.8885 39.9671C14.0509 39.1617 13.9761 38.4114 14.1319 37.8822C13.9166 37.7382 13.738 37.5598 13.6162 37.342C13.2789 36.7404 13.4346 36.0105 14.0329 35.3884C14.2123 35.2018 14.4129 35.0416 14.6222 34.8943C14.6239 34.887 14.6215 34.8801 14.6233 34.8728C15.5289 31.4303 19.0173 28.3025 23.3193 26.5941C23.3273 26.5709 23.3276 26.5464 23.3394 26.524L25.9212 21.4953C25.9943 21.353 26.1286 21.2485 26.2864 21.214C26.3867 21.1917 28.7869 20.6736 31.7631 20.9558C35.7571 21.3356 38.8556 22.9974 40.7231 25.7637C40.7673 25.8287 40.7963 25.9025 40.8089 25.98L41.2442 28.6521C41.2533 28.706 41.2398 28.756 41.2331 28.8075C42.6442 29.8353 43.7475 30.9916 44.5139 32.2281C45.3329 30.6335 47.4248 27.301 50.6377 27.2377C50.797 27.2346 50.9492 27.302 51.0545 27.4214C51.1603 27.5403 51.2071 27.7003 51.1841 27.8577C51.1777 27.9026 50.5247 32.434 50.9601 35.7553C51.3901 39.0407 53.3042 42.3663 53.3232 42.3989C53.4148 42.5576 53.4205 42.7516 53.3383 42.9152C53.3136 42.9643 53.2823 43.0078 53.2452 43.0465C53.1588 43.1363 53.042 43.1952 52.914 43.2096C49.2834 43.6112 45.954 41.1294 44.8005 40.1532C44.3344 41.0294 43.7257 41.8601 42.9901 42.6251C42.1325 43.5169 41.1115 44.3201 39.9894 45.0222L40.0045 45.0276C39.3325 46.9319 38.5046 48.2233 37.6639 49.0976C35.6207 51.2225 33.5024 50.8826 33.3782 50.8601C33.356 50.8559 33.3344 50.851 33.3132 50.8441C31.4167 50.2532 30.4389 48.7436 30.0485 47.9723C23.1008 48.6158 17.2462 42.9861 17.2462 42.9861C17.2462 42.9861 15.7184 41.2211 15.2335 40.2568L15.2323 40.2556ZM15.6388 39.1869C16.1512 39.6797 18.5932 40.3736 20.6007 38.6749C20.5787 38.6673 20.5575 38.6605 20.5352 38.6532C19.3231 38.2419 17.9491 37.7756 16.4912 38.1699C16.0134 38.2754 15.5601 38.2969 15.1542 38.2447C15.1239 38.4364 15.1864 38.7519 15.6392 39.1873L15.6388 39.1869ZM14.5606 36.813C14.7237 37.1035 15.3733 37.3068 16.2328 37.1184C17.9847 36.644 19.5916 37.1893 20.8831 37.6281C21.7995 37.9391 22.5906 38.2078 22.8897 37.8967C23.1446 37.6317 23.1495 37.4329 23.1313 37.3064C23.0995 37.0896 22.9453 36.8429 22.6849 36.5925C21.2264 35.19 16.7592 34.1164 14.8132 36.1401C14.6938 36.2643 14.4292 36.5793 14.5606 36.8137L14.5606 36.813ZM15.9822 34.2392C18.5238 33.4515 21.9149 34.3497 23.4356 35.8119C23.8766 36.236 24.1348 36.6863 24.2024 37.1495C24.2568 37.5234 24.2089 38.0865 23.67 38.647C23.1697 39.1673 22.5148 39.1881 21.7879 39.0285C21.7782 39.041 21.7743 39.056 21.7634 39.0673C20.2205 40.6719 18.292 41.0103 16.8178 40.7841C18.3605 43.003 21.0903 44.8444 24.2124 45.9076C24.2251 45.8943 24.2317 45.8781 24.246 45.8663C24.2943 45.8263 28.9383 42.0302 28.833 36.6314C28.7282 31.2805 22.8717 28.0619 22.8129 28.0301C22.7931 28.0194 22.7805 28.0013 22.7626 27.9886C19.5915 29.4443 17.0315 31.7137 15.9815 34.24L15.9822 34.2392ZM39.7589 26.2728C36.0296 20.899 28.2424 21.9665 26.7635 22.2256L24.7885 26.0724C26.4231 25.5686 28.1394 25.2711 29.8529 25.2376C33.2871 25.1699 37.051 26.2148 40.0449 28.03L39.7589 26.2728ZM51.9699 42.1665C51.3481 40.9429 50.2197 38.4471 49.8851 35.8951C49.5294 33.1807 49.8512 29.8197 50.0219 28.3898C47.079 28.9848 45.2765 33.1131 45.1422 33.4302C45.5391 34.3587 45.7563 35.3203 45.7758 36.2984C45.7954 37.2765 45.6074 38.2188 45.2667 39.1223C45.9273 39.7072 48.8097 42.0898 51.9699 42.1658L51.9699 42.1665ZM44.6933 36.3196C44.642 33.7027 42.9404 31.1755 39.9013 29.2027C37.0184 27.3306 33.2696 26.2529 29.8744 26.3198C27.8631 26.3592 25.8489 26.7774 23.9907 27.474C25.6507 28.5429 29.82 31.7098 29.9163 36.6087C30.0003 40.8985 27.4695 44.1718 25.9773 45.7237C25.7679 45.9415 25.5796 46.1248 25.4209 46.2726C27.0039 46.6958 28.6532 46.9235 30.277 46.8917C38.509 46.7297 44.7864 41.0757 44.6933 36.3196ZM33.5949 49.7966C33.9304 49.8375 36.587 50.0145 38.4936 45.863C36.2487 46.9969 33.7233 47.7318 31.2685 47.9247C31.675 48.5612 32.4097 49.4135 33.5949 49.7966Z" fill="black"/>
<path d="M24.331 33.2722C23.5031 34.1332 22.1295 34.1601 21.2685 33.3321C20.4075 32.5042 20.3806 31.1307 21.2085 30.2697C22.0365 29.4086 23.41 29.3817 24.271 30.2097C25.132 31.0376 25.1589 32.4111 24.331 33.2722ZM21.9891 31.0203C21.5752 31.4508 21.5886 32.1376 22.0191 32.5515C22.4496 32.9655 23.1364 32.952 23.5504 32.5215C23.9644 32.091 23.9509 31.4043 23.5204 30.9903C23.0899 30.5763 22.4031 30.5898 21.9891 31.0203Z" fill="black"/>
<path d="M31.5137 44.7018C32.3811 44.6848 33.1227 43.9136 33.1058 43.0461C33.0969 42.6124 32.9204 42.2076 32.6078 41.907C32.2952 41.6064 31.8838 41.4452 31.4497 41.4537C31.3004 41.4566 31.1637 41.3988 31.0637 41.3027C30.9638 41.2066 30.9007 41.0723 30.8978 40.923C30.8919 40.6236 31.1291 40.3769 31.4285 40.3711C32.3231 40.3532 33.0377 39.6108 33.0209 38.715C33.003 37.8196 32.2602 37.1054 31.3648 37.1225C31.2155 37.1255 31.0788 37.0676 30.9789 36.9715C30.879 36.8755 30.8158 36.7411 30.8129 36.5918C30.8071 36.2925 31.0443 36.0458 31.3436 36.0399C32.2111 36.0229 32.9527 35.2517 32.9357 34.3842C32.9268 33.9505 32.7504 33.5457 32.4374 33.2447C32.1243 32.9437 31.7133 32.7829 31.2792 32.7914C31.1299 32.7943 30.9932 32.7365 30.8933 32.6404C30.7934 32.5443 30.7302 32.41 30.7273 32.2607C30.7214 31.9613 30.9586 31.7147 31.258 31.7088C32.1274 31.6914 32.8671 30.9206 32.8505 30.0527C32.8416 29.619 32.6651 29.2142 32.3521 28.9132C32.0391 28.6122 31.6285 28.4518 31.1944 28.4603C30.8954 28.4665 30.6483 28.2289 30.6425 27.9296C30.6366 27.6302 30.8738 27.3835 31.1732 27.3777C31.8959 27.3635 32.5817 27.6316 33.1027 28.1326C33.6238 28.6336 33.9185 29.3084 33.9331 30.0315C33.9501 30.8833 33.5545 31.7025 32.894 32.2183C32.9966 32.2928 33.0951 32.3748 33.188 32.4641C33.7094 32.9655 34.0037 33.6399 34.0183 34.363C34.035 35.2152 33.6363 36.0337 32.9777 36.5506C33.6447 37.0319 34.0858 37.8099 34.1035 38.6938C34.1212 39.5777 33.7124 40.37 33.0625 40.8794C33.1659 40.954 33.2648 41.0363 33.358 41.126C33.8791 41.627 34.1738 42.3018 34.188 43.0245C34.2021 43.7473 33.9341 44.4323 33.4326 44.9538C32.9312 45.4752 32.2572 45.7699 31.5345 45.784C31.2351 45.7899 30.9881 45.5523 30.9826 45.2534C30.9767 44.954 31.2143 44.7077 31.5137 44.7018Z" fill="black"/>
<path d="M36.0679 42.5779C36.9626 42.56 37.6776 41.818 37.6604 40.9218C37.6425 40.0264 36.8997 39.3122 36.0043 39.3294C35.855 39.3323 35.7183 39.2745 35.6184 39.1784C35.5185 39.0823 35.4553 38.948 35.4524 38.7987C35.4465 38.4993 35.6837 38.2526 35.9831 38.2468C36.8505 38.2298 37.5922 37.4585 37.5752 36.5911C37.5663 36.1574 37.3899 35.7526 37.0768 35.4516C36.7638 35.1506 36.3528 34.9897 35.9187 34.9983C35.7694 35.0012 35.6327 34.9433 35.5328 34.8473C35.4329 34.7512 35.3697 34.6169 35.3668 34.4676C35.3609 34.1682 35.5981 33.9215 35.8975 33.9157C36.7646 33.8991 37.5066 33.1289 37.4899 32.2596C37.4811 31.8258 37.3046 31.4211 36.992 31.1204C36.6794 30.8198 36.268 30.6586 35.8338 30.6671C35.5349 30.6733 35.2878 30.4358 35.2819 30.1364C35.2761 29.8371 35.5133 29.5904 35.8126 29.5845C36.5354 29.5704 37.2212 29.8384 37.7426 30.3398C38.2641 30.8412 38.5584 31.5156 38.5725 32.2384C38.5902 33.1223 38.1796 33.9181 37.532 34.4244C37.6353 34.4989 37.7342 34.5813 37.8275 34.671C38.3489 35.1724 38.6432 35.8467 38.6578 36.5699C38.6748 37.4224 38.2746 38.2402 37.6172 38.7574C38.2842 39.2388 38.7253 40.0167 38.743 40.9006C38.7576 41.6471 38.4673 42.3295 37.9865 42.8295C37.5057 43.3295 36.8353 43.6463 36.0891 43.6605C35.7902 43.6668 35.5431 43.4292 35.5372 43.1298C35.5314 42.8305 35.7686 42.5838 36.0679 42.5779Z" fill="black"/>
<path d="M40.2315 40.0784C41.099 40.0614 41.8406 39.2901 41.8236 38.4227C41.8147 37.989 41.6383 37.5842 41.3253 37.2832C41.0122 36.9822 40.6012 36.8213 40.1671 36.8299C40.0178 36.8328 39.8811 36.7749 39.7812 36.6789C39.6813 36.5828 39.6182 36.4485 39.6152 36.2992C39.6094 35.9998 39.8466 35.7531 40.1459 35.7473C41.0425 35.7297 41.7559 34.9862 41.7384 34.0912C41.7295 33.6575 41.5531 33.2527 41.24 32.9517C40.927 32.6507 40.5164 32.4902 40.0823 32.4987C39.7833 32.505 39.5363 32.2674 39.5304 31.968C39.5245 31.6687 39.7617 31.422 40.0611 31.4161C40.7838 31.402 41.4696 31.67 41.9907 32.171C42.5117 32.6721 42.8064 33.3468 42.821 34.07C42.8383 34.9543 42.4277 35.7501 41.7804 36.256C41.8837 36.3305 41.9826 36.4129 42.0759 36.5026C42.5974 37.004 42.8917 37.6784 42.9062 38.4015C42.9208 39.1246 42.6523 39.8092 42.1509 40.3307C41.6495 40.8521 40.9755 41.1468 40.2527 41.161C39.9534 41.1668 39.7063 40.9293 39.7008 40.6303C39.695 40.3309 39.9322 40.0843 40.2315 40.0784Z" fill="black"/>
<path d="M28.8285 23.0866L28.0928 24.6328C28.0671 24.6869 28.0336 24.7351 27.9945 24.7757C27.8373 24.9392 27.5875 24.992 27.3718 24.889C27.1016 24.7606 26.9869 24.4377 27.1152 24.1675L27.8508 22.6213C27.9803 22.3499 28.3025 22.2367 28.5723 22.3647C28.8425 22.4931 28.9568 22.8164 28.8285 23.0866Z" fill="black"/>
<path d="M31.891 23.0266L31.1553 24.5728C31.1296 24.627 31.0961 24.6751 31.057 24.7157C30.8998 24.8792 30.65 24.932 30.4343 24.829C30.1641 24.7006 30.0494 24.3777 30.1777 24.1075L30.9134 22.5613C31.0428 22.2892 31.365 22.1768 31.6348 22.3047C31.905 22.4331 32.0193 22.7564 31.891 23.0266Z" fill="black"/>
<path d="M34.9966 23.6608L34.6363 24.8167C34.6103 24.9 34.5662 24.9717 34.5099 25.0302C34.3721 25.1735 34.1608 25.2354 33.9577 25.1724C33.6722 25.0834 33.5127 24.7798 33.6017 24.4942L33.962 23.3383C34.0518 23.0528 34.3543 22.8937 34.6402 22.9823C34.9257 23.0713 35.0852 23.3749 34.9962 23.6604L34.9966 23.6608Z" fill="black"/>
<path d="M37.3384 25.9127C37.3125 25.9959 37.2683 26.0676 37.212 26.1262C37.0743 26.2694 36.863 26.3314 36.6599 26.2683C36.3744 26.1794 36.2149 25.8757 36.3039 25.5902L36.6642 24.4343C36.7532 24.1488 37.0564 23.9896 37.3423 24.0782C37.6278 24.1672 37.7874 24.4709 37.6984 24.7564L37.338 25.9123L37.3384 25.9127Z" fill="black"/>
<path d="M46.0528 35.9103C46.0469 35.611 46.2841 35.3643 46.5835 35.3584L48.4975 35.3209C48.7969 35.3151 49.0436 35.5523 49.0494 35.8516C49.0524 36.0009 48.9945 36.1376 48.8984 36.2376C48.8024 36.3375 48.668 36.4006 48.5187 36.4035L46.6047 36.441C46.3053 36.4469 46.0586 36.2097 46.0528 35.9103Z" fill="black"/>
<path d="M46.1739 33.9932C45.9584 33.786 45.9513 33.4434 46.1589 33.2275L47.6601 31.6663C47.8677 31.4504 48.2103 31.4441 48.4257 31.6513C48.6412 31.8585 48.6483 32.2011 48.4407 32.4169L46.9395 33.9782C46.7319 34.194 46.3893 34.2003 46.1739 33.9932Z" fill="black"/>
<path d="M47.7801 37.7913L49.3413 39.2926C49.5568 39.4997 49.5639 39.8423 49.3563 40.0582C49.1488 40.274 48.8062 40.2803 48.5907 40.0732L47.0295 38.5719C46.814 38.3647 46.8069 38.0221 47.0145 37.8063C47.222 37.5905 47.5646 37.5841 47.7801 37.7913Z" fill="black"/>
</g>
<defs>
<clipPath id="clip0_7412_102676">
<rect width="34.6549" height="34.6549" fill="white" transform="matrix(-0.693122 0.72082 0.72082 0.693122 35.0201 12)"/>
</clipPath>
</defs>
</svg>
