<svg width="374" height="422" viewBox="0 0 374 422" fill="none" xmlns="http://www.w3.org/2000/svg">
<path d="M76.0606 174.283C109.694 174.283 136.959 172.17 136.959 169.563C136.959 166.955 109.694 164.842 76.0606 164.842C42.4273 164.842 15.1621 166.955 15.1621 169.563C15.1621 172.17 42.4273 174.283 76.0606 174.283Z" fill="#050E08"/>
<path d="M304.549 177.116C340.789 177.116 370.168 175.003 370.168 172.396C370.168 169.788 340.789 167.675 304.549 167.675C268.308 167.675 238.929 169.788 238.929 172.396C238.929 175.003 268.308 177.116 304.549 177.116Z" fill="#050E08"/>
<path d="M181.604 40.6622L189.144 48.1426L175.98 49.7528L189.45 51.5496L188.701 62.3493L192.04 51.5496L202.04 58.5475L194.833 49.3494L207.495 46.9257L193.676 46.0188L194.833 37.0478L191.082 45.8222L181.604 40.6622Z" fill="#F6FF21" stroke="black" stroke-width="0.855172"/>
<path d="M33.4113 164.181C29.5805 163.863 33.4113 158.762 35.8054 156.251C37.0025 152.815 40.3379 143.299 43.331 143.299C46.2345 143.299 62.5404 147.133 67.7278 147.926C72.9152 148.719 73.3143 153.873 72.5162 156.251C71.7181 158.63 65.3656 169.164 62.5723 166.388C59.7791 163.613 57.353 163.388 54.5598 165.37C51.7666 167.352 46.5791 166.163 44.185 164.181C41.7908 162.198 38.1996 164.577 33.4113 164.181Z" fill="#D4D962" stroke="black" stroke-width="1.71034"/>
<path d="M120.297 169.024C124.23 168.792 121.406 161.768 119.014 159.119C117.873 155.546 114.734 149.183 112.46 148.474C109.617 147.587 93.1355 149.022 87.8001 149.713C82.4647 150.403 81.8139 155.677 81.8139 158.264C81.8139 161.199 83.8061 169.571 87.8001 170.237C91.7941 170.903 95.6771 165.986 98.4904 168.099C101.304 170.212 107.533 170.085 110.035 168.099C112.538 166.113 115.38 169.316 120.297 169.024Z" fill="#D4D962" stroke="black" stroke-width="1.71034"/>
<path d="M166.689 113.094L112.263 129.423L98.8261 127.044L95.0692 140.921L107.304 146.779C125.857 142.275 164.949 133.306 172.889 133.465C180.829 133.625 178.288 122.593 175.634 118.834C178.679 117.123 184.219 113.394 182.01 112.172C179.801 110.95 170.876 112.278 166.689 113.094Z" fill="#D4D962" stroke="black" stroke-width="1.71034"/>
<path d="M173.183 52.0063L116.453 65.1763L103.357 61.3425L97.6326 76.343L109.604 83.0098C128.792 79.6938 169.147 73.2837 177.063 74.1717C184.979 75.0596 183.432 63.5436 181.311 59.1509C184.599 57.5325 190.666 53.9084 188.631 52.3598C186.597 50.8112 177.485 51.4789 173.183 52.0063Z" fill="#D4D962" stroke="black" stroke-width="1.71034"/>
<path d="M39.911 140.307C37.2428 130.912 63.9001 108.918 75.754 102.058C86.6731 105.05 109.661 113.38 114.259 122.762C118.857 132.144 123.717 155.7 118.159 162.114C112.6 168.527 42.5792 149.703 39.911 140.307Z" fill="#3D894A" stroke="black" stroke-width="1.71034"/>
<path d="M118.586 146.721C118.586 146.721 61.2893 132.183 57.9492 117.597L49.2219 126.406C49.2219 126.406 79.6755 152.28 118.586 156.983L118.586 146.721Z" fill="white"/>
<path d="M77.9116 134.502C84.1313 122.039 86.8847 134.709 89.866 138.294C95.2359 137.402 105.591 133.359 101.388 144.653C96.532 157.705 91.8654 144.67 88.3588 141.776C88.3588 141.776 71.6919 146.965 77.9116 134.502Z" fill="black"/>
<path d="M152.151 134.519C147.462 142.327 139.017 145.908 128.671 145.741C118.313 145.573 106.148 141.638 94.2938 134.518C82.4394 127.398 73.25 118.508 68.236 109.443C63.2281 100.389 62.4211 91.2519 67.1107 83.4436C71.842 75.5659 81.9552 69.377 93.9302 66.9511C105.881 64.53 119.546 65.8898 131.279 72.9368C143.013 79.9837 150.633 91.4079 154.11 103.095C157.595 114.806 156.883 126.641 152.151 134.519Z" fill="#D4D962" stroke="black" stroke-width="1.71034"/>
<path d="M87.2264 107.002C90.1595 120.758 98.8386 133.156 121.507 127.588" stroke="black" stroke-width="1.71034" stroke-linecap="round"/>
<circle cx="111.485" cy="63.5414" r="22.6621" transform="rotate(30.989 111.485 63.5414)" fill="white" stroke="black" stroke-width="1.71034"/>
<path d="M122.192 61.4932L127.467 72.6417L114.707 73.956" stroke="black" stroke-width="1.71034"/>
<circle cx="150.34" cy="86.8773" r="22.6621" transform="rotate(30.989 150.34 86.8773)" fill="white" stroke="black" stroke-width="1.71034"/>
<circle cx="143.009" cy="82.4749" r="5.55862" transform="rotate(30.989 143.009 82.4749)" fill="#1E1512"/>
<circle cx="81.4097" cy="91.8832" r="7.26897" transform="rotate(30.989 81.4097 91.8832)" fill="#E2AFBB"/>
<circle cx="140.792" cy="121.044" r="7.26897" transform="rotate(30.989 140.792 121.044)" fill="#E2AFBB"/>
<path d="M326.453 160.692C324.14 156.371 321.867 155.711 319.706 154.001C318.132 153.208 316.333 151.917 320.989 144.594C326.808 135.44 333.511 144.417 335.198 146.746C337.664 150.153 338.333 156.611 339.066 160.24C339.799 163.869 346.495 161.065 350.294 165.877C354.093 170.688 345.541 172.065 343.654 172.697C341.768 173.329 340.918 173.091 335.851 172.606C331.07 172.147 329.345 166.093 326.453 160.692Z" fill="#56893A" stroke="black" stroke-width="1.71034"/>
<path d="M277.153 159.191C278.067 156.201 280.279 152.795 282.678 153.99C284.195 152.813 289.218 151.151 282.678 144.29C274.503 135.714 266.397 143.388 264.83 146.099C262.784 149.638 263.566 157.304 263.552 161.338C263.537 165.372 255.772 163.77 252.725 169.708C249.678 175.647 259.129 175.335 261.283 175.618C263.437 175.901 265.113 174.671 269.619 173.893C274.783 173.001 275.203 165.571 277.153 159.191Z" fill="#56893A" stroke="black" stroke-width="1.71034"/>
<path d="M192.274 54.7014C189.849 60.6192 198.693 62.5469 203.418 62.771C201.904 64.6101 200.618 68.9916 207.592 71.8046C214.567 74.6175 217.89 65.993 218.68 61.3291C237.362 56.8234 246.485 69.3095 253.254 76.5634C253.254 76.5634 258.273 76.0407 260.549 74.07C262.623 72.2747 266.958 62.771 266.958 62.771C245.151 49.7802 228.307 50.0666 218.082 50.9652L204.403 52.063C201.37 50.4767 194.698 48.7835 192.274 54.7014Z" fill="#56893A" stroke="black" stroke-width="1.71034"/>
<path d="M185.763 113.338C183.171 117.773 189.99 120.299 193.724 121.007C192.313 122.3 190.799 125.641 196.031 128.662C201.264 131.682 204.875 125.193 206.026 121.572C221.394 120.083 245.284 131.886 249.856 138.416L249.856 128.662C241.938 114.78 214.948 113.692 206.714 113.26L195.708 112.599C193.474 110.997 188.356 108.902 185.763 113.338Z" fill="#56893A" stroke="black" stroke-width="1.71034"/>
<path d="M334.944 138.704C334.88 128.15 326.899 111.675 313.859 105.076C304.4 109.245 276.705 99.512 274.948 110.206C273.192 120.901 253.966 145.635 263.831 155.958C273.697 166.281 335.008 149.258 334.944 138.704Z" fill="#0344FE" stroke="black" stroke-width="1.71034"/>
<path d="M284.111 132.754L291.528 126.404L293.92 132.085L293.635 132.329L301.743 138.912L300.234 146.966L292.09 146.693L289.07 136.237L284.111 132.754Z" fill="#E2AFBB"/>
<path d="M289.07 136.237L284.111 132.754L291.528 126.404L293.92 132.085L293.635 132.329M289.07 136.237L292.09 146.693L300.234 146.966L301.743 138.912L293.635 132.329M289.07 136.237L293.635 132.329" stroke="black" stroke-width="2" stroke-linejoin="round"/>
<path d="M299.837 127.695L292.419 126.042C294.651 124.131 299.644 119.616 301.756 116.848C301.936 121.649 301.587 124.042 299.837 127.695Z" stroke="black" stroke-width="2" stroke-linejoin="round"/>
<path d="M283.563 139.621L283.923 132.029C281.491 133.679 275.821 137.306 272.593 138.613C277.085 139.773 279.541 140.028 283.563 139.621Z" stroke="black" stroke-width="2" stroke-linejoin="round"/>
<path d="M232.707 128.911L234.792 123.643L257.792 108.745L292.158 84.1439L294.753 74.7656L309.569 66.7938L314.42 78.4146L306.656 97.7925L282.193 120.649L259.771 137.198L252.082 140.244L248.675 139.552L245.069 140.112L242.519 138.673L241.331 135.829L240.906 133.613L234.885 134.125L232.963 131.922L232.707 128.911Z" fill="#C66B47"/>
<path d="M254.351 68.2628C254.351 68.2628 217.936 70.5062 224.54 91.907L224.641 92.249C214.91 98.1673 213.933 106.872 215.453 112.124C229.919 149.945 287.354 92.4928 296.368 81.8242C303.579 73.2893 306.979 72.8182 308.434 74.5671C320.78 85.9973 273.647 124.216 248.557 139.932C251.659 151.884 270.022 142.542 295.839 123.461C321.656 104.38 333.694 71.2393 300.872 49.4378C274.614 31.9966 258.917 54.7206 254.351 68.2628Z" fill="#56893A"/>
<path d="M258.448 75.4055C262.063 72.4664 271.102 66.7342 278.337 67.3182C287.382 68.0483 293.574 65.0158 295.991 63.3382" stroke="black" stroke-width="1.71034" stroke-linecap="round"/>
<path d="M224.626 91.9851C218.022 70.5843 254.437 68.3409 254.437 68.3409C259.003 54.7987 274.7 32.0747 300.958 49.5159C333.78 71.3175 321.742 104.459 295.925 123.539C270.108 142.62 251.745 151.962 248.643 140.01C273.733 124.294 317.413 91.9851 308.861 74.1383C307.407 72.3894 303.665 73.3674 296.454 81.9023C287.44 92.571 230.005 150.023 215.539 112.202C213.15 103.948 216.93 87.1666 251.16 86.0751" stroke="black" stroke-width="1.71034" stroke-linecap="round"/>
<path d="M230.239 89.029C233.917 84.5977 243.421 75.9731 252.013 76.9257M258.499 71.2654C261.616 63.8028 271.934 49.754 288.273 53.2593" stroke="black" stroke-width="1.71034"/>
<path d="M234.5 124.544C232.185 128.876 229.717 135.758 241.178 133.431M302.057 85.8527C298.621 95.7494 257.642 129.571 242.083 133.232C241.773 133.305 241.471 133.372 241.178 133.431M241.178 133.431C241.44 136.777 243.586 142.613 250.082 139.187" stroke="black" stroke-width="1.71034"/>
<path d="M237.482 96.2334C241.566 95.7743 248.211 94.2001 251.024 93.4703C253.041 93.147 257.218 93.454 257.788 97.2687C258.5 102.037 246.98 112.305 244.9 114.12C242.82 115.936 240.561 113.595 230.56 120.167C220.558 126.74 209.682 124.159 214.618 112.522C219.553 100.885 232.378 96.8073 237.482 96.2334Z" fill="white" stroke="black" stroke-width="1.71034"/>
<path d="M255.671 84.0788C252.703 87.1002 250.012 92.8974 254.874 97.4933C259.027 102.252 262.221 99.4893 276.59 94.7104C288.086 90.8873 292.566 76.457 293.37 69.7197C292.161 70.5585 287.511 72.2453 278.575 72.2825C267.406 72.3289 258.639 81.0573 255.671 84.0788Z" fill="white" stroke="black" stroke-width="1.71034"/>
<path fill-rule="evenodd" clip-rule="evenodd" d="M248.419 110.882C248.103 108.337 246.968 105.728 245.025 103.502C240.543 98.3652 233.457 97.2134 229.199 100.929C224.941 104.645 225.123 111.822 229.606 116.958C230.355 117.817 231.177 118.564 232.047 119.196C232.992 118.559 234.647 117.547 235.565 117.363C236.592 117.156 241.745 115.634 243.697 114.577L247.002 111.694L248.419 110.882Z" fill="#050505"/>
<path fill-rule="evenodd" clip-rule="evenodd" d="M283.002 90.4094C282.722 87.8014 281.579 85.1129 279.585 82.828C275.102 77.6914 268.017 76.5396 263.759 80.2555C259.501 83.9713 259.683 91.1477 264.165 96.2844C264.915 97.1431 265.737 97.8904 266.606 98.5223C267.552 97.8848 269.206 96.8742 270.124 96.6897C271.151 96.4833 276.304 94.9611 278.256 93.9042L281.881 91.3879L283.002 90.4094Z" fill="#050505"/>
<ellipse cx="266.618" cy="90.6954" rx="2.92366" ry="3.24851" transform="rotate(-41.1104 266.618 90.6954)" fill="white"/>
<ellipse cx="267.879" cy="83.9893" rx="1.78668" ry="1.9491" transform="rotate(-41.1104 267.879 83.9893)" fill="white"/>
<ellipse cx="272.108" cy="86.1184" rx="1.2994" ry="1.46183" transform="rotate(-41.1104 272.108 86.1184)" fill="white"/>
<ellipse cx="274.578" cy="90.431" rx="0.974552" ry="1.13698" transform="rotate(-41.1104 274.578 90.431)" fill="white"/>
<ellipse cx="232.823" cy="110.271" rx="2.92366" ry="3.24851" transform="rotate(-41.1104 232.823 110.271)" fill="white"/>
<ellipse cx="234.085" cy="103.566" rx="1.78668" ry="1.9491" transform="rotate(-41.1104 234.085 103.566)" fill="white"/>
<ellipse cx="238.314" cy="105.695" rx="1.2994" ry="1.46183" transform="rotate(-41.1104 238.314 105.695)" fill="white"/>
<ellipse cx="240.785" cy="110.006" rx="0.974552" ry="1.13698" transform="rotate(-41.1104 240.785 110.006)" fill="white"/>
<path d="M172.034 98.9375L181.441 107.489L185.29 98.9375L184.434 109.627L198.545 101.075L185.29 111.765L192.131 120.317L184.434 115.186L186.572 125.02L204.103 142.551L186.572 154.096L200.683 152.386L180.159 166.069L192.131 167.351L178.876 189.158L190.421 175.475L198.545 187.02L215.648 163.931L227.193 189.158L252.848 176.758L254.986 197.282L306.724 189.158L284.49 220.8H342.214L296.89 250.303L334.09 261.848L309.717 275.531L342.214 298.62L296.89 309.31L373 352.496L291.331 341.806L316.131 367.034L272.09 360.62L277.648 381.144L239.593 358.91L247.717 421.765L213.51 370.455L192.986 399.531L166.476 363.186L138.255 399.531L140.393 358.91L107.041 378.151L113.883 347.793L92.5034 357.2L99.7724 328.551L54.0207 326.841L102.766 303.751L71.9793 296.109L83.5241 271.309L1 250.303L99.7724 255.006L69.4138 237.475L119.441 231.917L76.2552 197.282L130.131 205.834V178.469L172.034 190.869L180.159 172.91L172.034 178.469L162.2 182.744L173.745 170.344H159.207L178.876 158.8L155.786 162.648L178.876 153.669L199.828 142.551L184.648 127.586L181.441 115.186L169.897 123.737L178.876 112.62L168.186 109.627H178.876L172.034 98.9375Z" fill="#FFEB39" stroke="black" stroke-width="0.855172"/>
<path d="M202.026 356.956C245.916 356.956 281.497 354.702 281.497 351.922C281.497 349.142 245.916 346.889 202.026 346.889C158.135 346.889 122.555 349.142 122.555 351.922C122.555 354.702 158.135 356.956 202.026 356.956Z" fill="#050E08"/>
<g clip-path="url(#clip0_7412_87032)">
<path d="M223.661 198.709C231.785 194.609 241.868 194.493 250.019 198.578C254.275 200.487 257.951 203.566 260.877 207.168C266.179 213.914 267.915 223.288 265.282 231.464C264.659 233.377 263.65 235.125 262.753 236.916C264.235 238.621 265.993 240.08 267.384 241.87C268.531 243.222 269.443 244.744 270.315 246.282C271.752 248.481 272.491 251.029 273.439 253.454C275.291 259.854 275.453 266.773 273.693 273.213C272.902 275.712 271.838 278.116 270.599 280.422C269.318 282.429 267.96 284.397 266.432 286.228C265.035 287.811 263.415 289.184 261.761 290.489C262.969 292.36 263.769 294.455 264.702 296.469C266.517 300.468 267.616 304.73 268.958 308.901C269.623 311.426 269.995 314.023 270.465 316.591C273.07 317.214 275.81 318.269 277.509 320.454C278.754 322.003 279.138 324.078 279.05 326.021C278.601 332.089 275.88 337.858 271.951 342.449C269.293 345.448 266.154 348.197 262.335 349.576C260.431 350.14 258.43 350.256 256.459 350.317C252.118 349.615 247.652 349.481 243.46 348.047C241.843 350.235 239.448 351.8 236.837 352.529C235.354 352.956 233.914 353.691 232.334 353.612C231.495 353.606 230.72 353.27 229.955 352.977C227.77 354.094 224.924 353.34 223.457 351.412C220.854 351.135 218.521 349.21 217.679 346.729C213.35 347.382 208.953 347.538 204.582 347.843C201.943 348.011 199.301 347.892 196.662 347.956C194.42 347.879 192.187 347.596 189.941 347.602C187.492 347.596 185.06 347.245 182.629 346.976C182.092 348.972 180.597 350.811 178.617 351.488C177.571 351.598 176.894 352.501 175.905 352.754C174.49 353.154 172.94 353.136 171.555 352.626C170.399 353.053 169.23 353.56 167.976 353.557C164.084 353.441 160.218 351.25 158.507 347.678C157.79 347.736 157.067 347.767 156.371 347.959C154.163 348.551 151.866 348.691 149.666 349.313C147.027 349.582 144.397 350.088 141.734 350.024C137.506 350.21 133.079 348.676 130.193 345.503C128.589 343.727 127.124 341.83 125.724 339.89C124.003 337.58 122.981 334.856 122.039 332.159C121.069 328.962 120.349 325.56 120.934 322.223C121.471 319.984 122.512 317.647 124.534 316.381C125.684 315.6 127.051 315.258 128.32 314.733C130.105 313.974 132.066 314.297 133.94 314.312C134.437 308.55 136.707 303.147 138.778 297.805C140.227 294.831 141.603 291.813 143.256 288.946C140.236 286.127 137.854 282.683 135.904 279.058C133.778 274.489 132.253 269.516 132.451 264.427C132.609 262.069 132.634 259.665 133.357 257.392C134.946 250.958 138.253 244.942 142.887 240.195C144.327 238.542 146.142 237.282 147.649 235.696C144.76 230.671 144.001 224.573 145.249 218.941C147.707 208.975 155.618 200.487 165.466 197.513C170.878 195.737 176.833 195.646 182.306 197.214C184.783 197.998 187.248 198.962 189.344 200.533C193.258 203.254 196.815 206.815 198.523 211.345C199.118 212.684 199.307 214.206 199.841 215.527C203.587 215.109 207.395 215.039 211.113 215.735C211.498 214.374 211.687 212.962 212.193 211.635C214.137 206.028 218.521 201.531 223.661 198.709ZM231.895 198.135C228.005 198.825 224.161 200.295 221.074 202.815C217.666 205.555 215.031 209.316 213.795 213.526C212.041 218.52 212.974 224.085 215.079 228.819C219.222 236.745 227.172 242.529 235.958 244.149C239.174 244.863 242.499 245.241 245.785 244.848C251.075 244.366 256.49 242.142 259.672 237.727C261.029 235.461 262.466 233.206 263.29 230.68C265.587 223.054 263.842 214.405 259.003 208.117C255.132 203.172 249.485 199.676 243.362 198.309C239.589 197.595 235.687 197.455 231.895 198.135ZM165.356 199.584C158.998 201.723 153.553 206.311 150.218 212.12C147.625 216.861 146.149 222.425 147.07 227.825C147.881 232.932 150.468 238.069 154.996 240.784L154.965 241.08L155.337 240.961V241.358C155.484 241.355 155.777 241.346 155.92 241.339L155.883 241.703L156.164 241.638C156.408 241.837 156.664 242.026 156.93 242.206C158.757 243.271 160.743 244.073 162.836 244.424C165.841 245.052 168.95 245.193 171.994 244.75C178.968 243.994 185.695 240.806 190.539 235.705C192.617 233.627 194.209 231.126 195.549 228.527C197.001 225.659 198.066 222.495 197.922 219.243C197.791 217.172 197.608 215.073 196.915 213.102C195.494 208.999 192.583 205.518 189.093 202.986C185.048 199.734 179.831 198.267 174.703 198.123C171.534 198.096 168.385 198.675 165.356 199.584ZM198.368 218.575C198.368 220.122 198.398 221.681 198.023 223.194C196.949 227.746 194.579 231.931 191.491 235.418C183.727 243.838 171.119 247.688 160.057 244.399C156.158 243.06 152.54 240.781 149.846 237.639C149.742 237.627 149.535 237.608 149.431 237.596C146.96 239.35 144.742 241.483 142.848 243.85C136.859 251.056 133.647 260.904 135.465 270.218C136.896 277.338 141.191 283.503 146.152 288.65C147.384 289.754 148.69 290.773 150.026 291.749C148.244 291.27 146.963 289.803 145.535 288.717C145.27 290.017 144.486 291.109 143.9 292.274C140.334 299.535 136.908 307.107 135.993 315.228C139.693 315.838 142.683 318.413 144.992 321.228C144.663 320.206 144.428 319.16 144.184 318.117C143.275 313.065 142.607 307.946 142.707 302.802C142.738 301.768 142.784 300.722 143.098 299.727C143.144 300.154 143.168 300.581 143.168 301.014C143.015 308.522 144.071 316.061 146.24 323.251C147.32 326.351 148.571 329.398 150.05 332.33C152.216 336.259 154.504 340.28 157.909 343.276C158.379 344.682 158.94 346.076 159.855 347.263C160.908 348.63 161.973 350.085 163.522 350.921C164.855 351.714 166.402 352.141 167.955 352.123C168.879 352.056 169.932 351.98 170.576 351.214C171.595 350.152 171.137 348.551 170.887 347.278C170.719 346.891 170.56 346.504 170.408 346.113C171.116 346.223 171.216 347.037 171.546 347.55C171.903 348.901 172.04 350.363 171.515 351.693C172.967 351.769 174.484 351.793 175.859 351.244C176.448 351.101 176.448 350.39 176.671 349.939C177.165 348.639 177.269 347.239 177.202 345.863C177.211 345.643 177.229 345.204 177.238 344.981L178.178 345.079C178.041 345.18 177.76 345.381 177.623 345.482C177.693 347.071 177.659 348.7 177.058 350.201C179.053 350.177 180.683 348.538 181.485 346.827C181.842 345.421 181.628 343.932 181.583 342.498C180.969 341.723 180.286 341.009 179.532 340.372C180.908 340.283 181.659 341.818 182.028 342.934C182.18 343.669 182.205 344.417 182.18 345.167C182.586 344.929 182.958 344.606 183.044 344.121C183.453 342.696 183.81 341.168 183.303 339.719C182.885 338.511 182.019 337.565 181.226 336.598C180.863 334.832 181.064 332.971 180.475 331.238C179.188 325.716 176.164 320.823 173.05 316.164C171.21 313.172 168.544 310.777 166.796 307.723C165.795 306.015 164.438 304.501 163.736 302.634C163.837 302.662 164.038 302.714 164.136 302.738C165.023 304.318 166.183 305.746 167.162 307.278C169.096 310.426 171.741 313.046 173.837 316.082C177.159 321.177 180.439 326.561 181.442 332.662C181.686 333.868 181.549 335.121 181.814 336.32C182.379 337.144 183.193 337.794 183.59 338.736C184.09 339.627 184.09 340.664 184.13 341.659C184.13 342.815 183.797 343.935 183.376 345.003C186.851 345.588 190.378 345.762 193.892 345.939C199.475 346.333 205.094 346.211 210.659 345.64C212.987 345.61 215.18 344.691 217.495 344.594C217.331 342.968 218.09 341.51 218.731 340.079C219.353 339.35 220.439 338.74 220.287 337.638C220.375 334.926 221.266 332.339 222.029 329.764C222.904 326.884 224.332 324.227 225.412 321.43L225.406 321.411C226.886 318.788 228.319 316.134 229.991 313.623C231.514 311.115 233.518 308.958 235.208 306.567C235.574 306.323 235.943 306.082 236.315 305.844C235.742 307.226 234.708 308.333 233.856 309.541C231.211 312.992 228.808 316.616 226.687 320.414C224.106 325.432 221.818 330.716 220.967 336.336C220.845 337.095 220.656 337.885 220.955 338.633C219.503 340.006 218.395 341.787 217.978 343.755C218.725 343.017 219.237 342.053 220.128 341.467C219.658 342.199 219.164 342.925 218.823 343.73C217.993 346.626 220.635 349.429 223.389 349.884C223.228 348.602 223.478 347.327 223.865 346.11C224.381 345.448 224.552 344.212 225.552 344.173C225.101 344.902 224.643 345.631 224.338 346.436C223.993 347.815 223.563 349.46 224.442 350.726C225.766 352.111 227.959 352.428 229.726 351.794C230.049 350.643 229.875 349.35 230.18 348.166C230.644 347.495 230.592 346.061 231.571 346.018C231.294 346.687 231.028 347.364 230.787 348.047C230.516 349.264 230.162 350.643 230.601 351.833C232.603 352.703 234.836 351.973 236.736 351.177C240.257 349.926 243.057 347.077 244.549 343.688C244.68 343.334 244.772 342.968 244.927 342.629C249.705 337.303 252.994 330.808 255.526 324.157C256.365 321.936 257.42 319.785 257.966 317.464C258.942 313.736 260.041 309.953 259.919 306.063C260.001 305.713 260.007 305.304 260.315 305.057C260.77 308.104 260.08 311.137 259.681 314.145C259.458 316.286 258.778 318.339 257.936 320.31C259.055 319.514 260.111 318.605 261.383 318.056C263.503 317.198 265.788 316.796 268.073 316.851C267.747 313.33 266.957 309.868 265.886 306.503C264.257 301.219 262.158 296.063 259.498 291.212C259.013 291.441 258.531 291.679 258.076 291.966C255.858 293.433 253.424 294.55 250.95 295.517C250.492 295.74 249.989 295.728 249.497 295.712C253.573 293.742 257.451 291.316 260.846 288.308C266.932 283.262 271.319 275.98 272.25 268.07C273.095 263.329 272.28 258.457 270.965 253.878C269.989 250.952 268.766 248.079 267.097 245.476C265.367 242.804 263.116 240.519 260.681 238.487C260.071 239.076 259.485 239.686 258.845 240.241C255.251 243.454 250.452 244.927 245.76 245.571C235.104 246.288 223.975 241.815 217.37 233.295C214.051 229.06 212.023 223.694 212.334 218.273C208.398 217.306 204.283 217.388 200.28 217.84C199.615 217.962 198.862 218.084 198.368 218.575ZM132.573 316.576C131.048 318.596 130.956 321.308 131.469 323.696C131.767 325.216 132.982 326.39 134.339 327.037C133.863 326.961 133.397 326.845 132.927 326.756C132.799 326.466 132.573 326.195 132.253 326.131C131.612 325.35 131.09 324.453 130.965 323.437C130.602 321.076 130.52 318.278 132.329 316.451C131.63 316.265 130.919 315.911 130.178 316.076C129.278 316.198 128.58 316.896 127.673 317C125.285 317.287 123.274 319.361 122.89 321.713C122.435 324.261 122.762 326.887 123.29 329.398C124.681 334.673 127.539 339.447 130.956 343.651C131.859 344.923 133.046 345.991 134.367 346.818C136.859 348.233 139.8 348.685 142.634 348.618C147.887 348.31 153.007 347.022 158.138 345.948C157.897 345.051 157.68 344.087 157.037 343.383C155.865 342.107 154.745 340.783 153.684 339.414C152.027 337.22 150.798 334.746 149.315 332.443C149.086 331.464 148.522 330.594 148.159 329.661C147.106 327.363 146.252 324.987 145.426 322.607C144.397 321.128 143.217 319.694 141.716 318.675C139.864 317.696 138.086 316.527 136.078 315.881C134.898 315.466 133.503 315.734 132.573 316.576ZM263.753 318.205C260.846 318.882 257.737 320.508 256.694 323.492C255.184 326.991 253.591 330.457 252.017 333.922C250.062 336.787 248.326 339.829 245.971 342.406C245.175 343.81 244.72 345.39 243.933 346.809C249.214 348.005 254.696 349.402 260.117 348.297C263.567 347.611 266.426 345.356 268.802 342.876C273.342 338.077 276.813 331.839 276.923 325.103C277.064 322.742 275.502 320.173 273.073 319.749C272.512 318.965 271.685 318.413 270.752 318.178C268.473 317.558 266.014 317.47 263.753 318.205Z" fill="#010101"/>
<path d="M231.895 198.135C235.687 197.455 239.589 197.595 243.363 198.309C249.485 199.676 255.132 203.172 259.004 208.117C263.842 214.404 265.587 223.053 263.29 230.68C262.466 233.206 261.029 235.46 259.672 237.727C256.49 242.142 251.075 244.365 245.785 244.847C242.499 245.241 239.174 244.863 235.959 244.149C227.173 242.529 219.222 236.745 215.08 228.819C212.975 224.084 212.041 218.52 213.795 213.526C215.031 209.316 217.667 205.554 221.074 202.815C224.161 200.295 228.005 198.824 231.895 198.135ZM222.105 213.895C220.668 214.31 219.698 216.076 220.406 217.467C221.132 218.913 222.892 219.331 224.384 219.371C228.896 219.521 233.393 220.054 237.816 220.945C243.265 221.995 248.494 223.938 253.561 226.171C254.513 226.571 255.642 226.885 256.618 226.363C257.863 225.54 258.146 223.612 257.182 222.464C256.487 221.54 255.367 221.131 254.312 220.768C250.407 219.243 246.499 217.675 242.429 216.635C236.618 215.222 230.721 213.944 224.72 213.8C223.85 213.794 222.956 213.666 222.105 213.895Z" fill="#FAEDDC"/>
<path d="M165.356 199.583C168.385 198.674 171.534 198.095 174.703 198.122C179.832 198.265 185.048 199.733 189.094 202.985C192.584 205.517 195.494 208.998 196.916 213.101C197.608 215.072 197.791 217.171 197.922 219.242C198.066 222.494 197.001 225.658 195.549 228.525C194.21 231.125 192.617 233.626 190.54 235.704C185.695 240.805 178.968 243.993 171.994 244.749C168.95 245.191 165.841 245.051 162.836 244.423C160.743 244.072 158.757 243.27 156.93 242.205C156.664 242.025 156.408 241.836 156.164 241.637L155.883 241.701L155.92 241.338C155.777 241.345 155.484 241.354 155.34 241.357V240.96L154.965 241.079L154.996 240.783C150.468 238.068 147.881 232.931 147.07 227.824C146.149 222.424 147.625 216.86 150.218 212.119C153.553 206.31 158.998 201.722 165.356 199.583ZM179.109 214.312C174.783 214.867 170.441 215.587 166.314 217.043C161.906 218.507 157.448 219.926 153.275 221.982C151.365 222.793 150.932 225.999 152.949 226.927C154.581 227.714 156.121 226.442 157.567 225.838C162.891 223.638 168.382 221.805 174.032 220.633C178.3 219.871 182.608 219.242 186.949 219.105C188.532 219.062 190.149 217.522 189.612 215.868C189.423 214.568 188.084 213.87 186.873 213.882C184.279 213.852 181.683 213.983 179.109 214.312Z" fill="#FAEDDC"/>
<path d="M178.456 313.651C184.109 310.936 190.427 310.036 196.623 309.606C203.017 309.38 209.585 309.435 215.705 311.528C217.99 312.568 220.29 313.746 222.121 315.497C223.798 317.086 224.726 319.246 225.406 321.412L225.412 321.43C224.332 324.228 222.905 326.885 222.029 329.765C221.266 332.34 220.376 334.927 220.287 337.639C220.44 338.74 219.354 339.35 218.731 340.079C216.141 341.242 213.56 342.45 210.821 343.246C206.489 344.841 201.827 345.357 197.233 345.217C192.651 345.04 188.316 343.398 184.13 341.66C184.09 340.665 184.09 339.628 183.59 338.737C183.194 337.794 182.379 337.144 181.815 336.321C181.549 335.122 181.686 333.868 181.442 332.663C180.439 326.562 177.159 321.177 173.837 316.082C175.368 315.259 176.872 314.377 178.456 313.651Z" fill="#FCEDDA"/>
<path d="M222.105 213.896C222.956 213.667 223.85 213.795 224.719 213.801C230.72 213.945 236.617 215.223 242.429 216.635C246.498 217.676 250.406 219.244 254.311 220.769C255.367 221.132 256.486 221.541 257.182 222.465C258.146 223.612 257.862 225.54 256.618 226.364C255.641 226.886 254.513 226.572 253.561 226.172C248.494 223.939 243.265 221.996 237.816 220.946C233.393 220.055 228.896 219.521 224.384 219.372C222.892 219.332 221.132 218.914 220.406 217.468C219.698 216.077 220.668 214.311 222.105 213.896Z" fill="black"/>
<path d="M179.108 214.315C181.683 213.985 184.279 213.854 186.872 213.885C188.083 213.872 189.423 214.571 189.612 215.871C190.149 217.524 188.532 219.065 186.948 219.107C182.607 219.245 178.3 219.873 174.032 220.636C168.382 221.807 162.89 223.641 157.567 225.84C156.121 226.444 154.58 227.716 152.948 226.929C150.932 226.002 151.365 222.796 153.275 221.984C157.448 219.928 161.905 218.509 166.313 217.045C170.441 215.59 174.782 214.87 179.108 214.315Z" fill="black"/>
<path d="M125.697 321.407C125.861 319.884 126.206 318.093 127.661 317.279C126.932 318.557 126.258 319.927 126.298 321.44C126.142 323.444 127.133 325.8 129.214 326.373C129.116 326.803 128.973 327.23 128.668 327.566C128.32 327.706 127.972 327.859 127.631 328.017C126.938 327.966 126.252 327.859 125.572 327.731C126.627 327.291 127.844 327.578 128.836 326.947C126.767 325.992 125.401 323.685 125.697 321.407Z" fill="black"/>
<path d="M198.367 218.576C198.862 218.085 199.615 217.963 200.28 217.841C204.283 217.389 208.398 217.307 212.333 218.274C212.022 223.695 214.051 229.061 217.37 233.296C223.975 241.816 235.104 246.289 245.76 245.572C250.452 244.928 255.251 243.455 258.845 240.242C259.485 239.687 260.071 239.077 260.681 238.488C263.116 240.52 265.367 242.805 267.097 245.477C268.766 248.08 269.989 250.953 270.965 253.879C272.28 258.458 273.094 263.33 272.249 268.071C271.319 275.981 266.932 283.263 260.846 288.309C257.45 291.317 253.573 293.743 249.497 295.713C248.545 296.073 247.627 296.51 246.678 296.876C243.78 297.849 240.757 298.374 237.786 299.084C230.589 300.805 223.24 301.836 215.86 302.361C209.576 303.02 203.252 302.971 196.946 302.776C190.222 302.33 183.471 301.885 176.838 300.616C173.919 300.125 171.024 299.481 168.101 299.008C166.381 298.746 164.721 298.169 162.985 298.007C158.464 296.375 154.092 294.313 150.026 291.75C148.69 290.774 147.384 289.755 146.151 288.651C141.191 283.504 136.896 277.339 135.465 270.219C133.647 260.905 136.859 251.057 142.847 243.851C144.742 241.484 146.96 239.351 149.431 237.597C149.535 237.61 149.742 237.628 149.846 237.64C152.54 240.782 156.158 243.061 160.057 244.4C171.118 247.689 183.727 243.839 191.491 235.419C194.578 231.932 196.949 227.747 198.023 223.195C198.398 221.682 198.367 220.123 198.367 218.576ZM148.232 245.294C145.508 245.837 142.716 247.091 141.16 249.498C140.065 251.002 139.864 253.08 140.663 254.764C141.649 257.113 144.184 258.421 146.624 258.666C149.245 258.818 151.868 258.339 154.352 257.525C157.524 256.554 159.657 253.025 159.028 249.767C158.632 247.945 157.387 246.213 155.56 245.63C153.208 244.861 150.651 244.824 148.232 245.294ZM253.192 246.841C251.413 247.289 249.683 248.543 249.146 250.365C248.603 252.409 249.674 254.593 251.361 255.761C253.393 257.143 255.846 257.824 258.277 258.037C260.367 258.318 262.505 257.131 263.527 255.319C264.296 253.763 264.36 251.817 263.54 250.27C262.661 248.668 260.974 247.701 259.275 247.186C257.313 246.612 255.202 246.435 253.192 246.841ZM189.697 260.828C186.909 261.378 184.108 261.869 181.369 262.635C177.607 263.626 173.824 264.578 170.203 266.009C168.01 266.726 165.865 267.58 163.675 268.3C160.49 269.377 156.963 270.42 153.641 269.313C151.24 268.66 148.924 266.735 148.793 264.099C148.717 263.498 149.513 262.9 148.97 262.369C148.235 261.957 147.884 262.915 147.817 263.48C147.329 265.173 148.122 266.939 149.248 268.19C151.249 270.438 154.404 271.192 157.299 271.295C161.356 271.131 165.108 269.431 168.882 268.098C176.256 265.225 183.895 262.93 191.738 261.774C195.805 261.274 199.874 260.645 203.984 260.652C211.595 260.453 219.198 261.567 226.531 263.565C231.568 265.078 236.602 266.655 241.465 268.675C244.32 269.755 247.221 271.024 250.333 270.978C253.048 270.92 255.931 270.258 257.951 268.333C259.497 266.793 260.584 264.614 260.37 262.39C261.145 262.815 261.532 263.602 262.042 264.279C262.298 262.293 260.163 261.304 258.561 260.914C258.158 261.124 257.752 261.332 257.35 261.539C257.637 261.5 257.923 261.46 258.213 261.423C258.622 261.738 259.525 261.847 259.406 262.543C259.33 265.45 256.996 267.778 254.415 268.785C251.495 269.569 248.304 269.779 245.431 268.69C242.014 267.671 238.719 266.317 235.375 265.093C230.757 263.69 226.147 262.195 221.379 261.372C214.17 259.749 206.729 259.675 199.377 259.886C196.153 260.206 192.91 260.371 189.697 260.828Z" fill="#A3C25A"/>
<path d="M146.503 264.06C147.266 263.044 149.249 261.315 151.079 262.535" stroke="black" stroke-width="1.51075" stroke-linecap="round"/>
<path d="M200.021 238.362C200.82 237.706 201.986 238.627 201.784 239.564C201.708 240.449 200.506 240.778 199.896 240.217C199.258 239.775 199.377 238.737 200.021 238.362Z" fill="#020304"/>
<path d="M208.205 238.374C208.903 238.084 209.837 238.773 209.651 239.542C209.574 240.183 208.976 240.875 208.278 240.671C207.283 240.393 207.222 238.703 208.205 238.374Z" fill="#030305"/>
<path d="M148.232 245.294C150.652 244.824 153.208 244.86 155.56 245.629C157.388 246.212 158.632 247.945 159.029 249.766C159.657 253.024 157.525 256.554 154.352 257.524C151.869 258.338 149.245 258.817 146.625 258.665C144.184 258.421 141.649 257.112 140.664 254.763C139.864 253.079 140.066 251.001 141.161 249.497C142.717 247.09 145.508 245.837 148.232 245.294Z" fill="#D8C67E"/>
<path d="M253.191 246.841C255.202 246.435 257.313 246.612 259.275 247.185C260.974 247.701 262.661 248.668 263.539 250.27C264.36 251.816 264.296 253.763 263.527 255.319C262.505 257.131 260.367 258.317 258.277 258.037C255.846 257.823 253.393 257.143 251.361 255.761C249.674 254.592 248.603 252.408 249.146 250.364C249.683 248.543 251.413 247.289 253.191 246.841Z" fill="#D8C77C"/>
<path d="M189.697 260.828C192.909 260.371 196.152 260.206 199.377 259.885C206.729 259.675 214.17 259.748 221.378 261.371C226.147 262.195 230.756 263.69 235.375 265.093C238.719 266.316 242.013 267.671 245.43 268.69C248.304 269.779 251.495 269.568 254.415 268.784C256.995 267.778 259.329 265.45 259.405 262.543C259.524 261.847 258.621 261.737 258.213 261.423C257.923 261.46 257.636 261.499 257.349 261.539C257.752 261.331 258.158 261.124 258.56 260.914C260.162 261.304 262.298 262.292 262.041 264.278C261.532 263.601 261.144 262.814 260.369 262.39C260.583 264.614 259.497 266.792 257.95 268.333C255.931 270.258 253.048 270.92 250.333 270.978C247.221 271.024 244.32 269.754 241.464 268.675C236.601 266.655 231.568 265.078 226.531 263.565C219.197 261.566 211.595 260.453 203.983 260.651C199.874 260.645 195.804 261.274 191.738 261.774C183.894 262.93 176.255 265.224 168.882 268.098C165.108 269.431 161.356 271.13 157.298 271.295C154.403 271.191 151.249 270.438 149.247 268.189C148.122 266.939 147.328 265.172 147.817 263.479C147.884 262.915 148.235 261.957 148.97 262.369C149.513 262.9 148.717 263.497 148.793 264.098C148.924 266.734 151.239 268.659 153.64 269.312C156.963 270.42 160.489 269.376 163.674 268.299C165.865 267.579 168.009 266.725 170.203 266.008C173.824 264.577 177.607 263.626 181.368 262.634C184.108 261.868 186.908 261.377 189.697 260.828Z" fill="#020203"/>
<path d="M135.724 325.099C135.953 322.659 137.173 319.901 139.656 319.034C138.988 319.992 137.936 320.618 137.365 321.658C136.575 323.055 135.815 324.687 136.246 326.326C136.587 327.54 137.679 328.37 138.836 328.757C136.847 329.004 135.513 326.896 135.724 325.099Z" fill="#020203"/>
<path d="M124.037 327.44C123.555 326.702 123.146 325.903 123.116 325.003C123.744 326.012 124.254 327.221 125.434 327.712C124.958 327.672 124.495 327.568 124.037 327.44Z" fill="#020203"/>
<path d="M262.646 332.839C264.29 331.924 266.392 331.384 268.137 332.348C269.611 333.09 270.001 334.923 269.824 336.43C269.498 338.953 267.936 341.079 266.331 342.965C264.193 345.198 260.635 346.766 257.67 345.244C256.676 344.853 256.252 343.819 255.852 342.916C255.721 341.781 255.76 340.6 256.224 339.542C257.457 336.616 259.916 334.368 262.646 332.839ZM264.461 332.553C262.289 333.285 260.459 334.774 258.872 336.39C257.57 337.843 256.34 339.56 256.221 341.574C256.108 343.044 256.895 344.725 258.427 345.103C260.962 346.095 263.695 344.792 265.581 343.087C267.167 341.537 268.464 339.649 269.199 337.55C269.647 336.043 269.754 334.014 268.354 332.968C267.289 332.022 265.73 332.248 264.461 332.553Z" fill="#020203"/>
<path d="M145.536 288.717C146.963 289.803 148.245 291.271 150.026 291.75C150.795 292.765 151.994 293.299 153.034 293.983C156.778 296.371 160.942 297.964 164.895 299.953C164.233 300.731 164.102 301.75 164.136 302.738C164.038 302.714 163.837 302.662 163.736 302.635C164.438 304.502 165.795 306.015 166.796 307.723C168.544 310.777 171.21 313.172 173.05 316.164C172.089 316.607 171.165 317.214 170.094 317.36C168.282 317.498 166.592 316.653 165.054 315.795C163.513 314.95 162.177 313.806 160.826 312.699C156.46 309.041 152.561 304.84 149.197 300.246C147.345 297.65 145.389 295.105 143.9 292.274C144.486 291.109 145.27 290.017 145.536 288.717Z" fill="#448E5D"/>
<path d="M149.316 332.443C150.798 334.746 152.028 337.22 153.684 339.413C154.746 340.783 155.865 342.107 157.037 343.382C157.681 344.087 157.897 345.051 158.138 345.948C153.007 347.022 147.888 348.309 142.635 348.617C139.8 348.685 136.86 348.233 134.367 346.818C133.046 345.991 131.859 344.923 130.956 343.651C131.649 343.73 132.491 344.029 132.881 343.233C134.928 345.356 138.614 346.287 141.06 344.31C142.607 344.218 144.254 344.148 145.603 343.291C147.012 342.406 147.848 340.863 148.312 339.307C148.995 337.077 148.922 334.721 149.316 332.443Z" fill="#448E5D"/>
<path d="M245.97 342.408C248.326 339.83 250.061 336.788 252.017 333.924C252.115 335.928 252.539 337.938 253.344 339.784C253.945 340.977 254.613 342.27 255.852 342.917C256.251 343.82 256.675 344.854 257.67 345.245C260.635 346.767 264.192 345.199 266.331 342.966C267.148 343.161 267.987 343.024 268.802 342.877C266.425 345.358 263.567 347.612 260.117 348.299C254.695 349.403 249.213 348.006 243.933 346.81C244.72 345.391 245.174 343.811 245.97 342.408Z" fill="#448E5D"/>
<path d="M258.076 291.966C258.53 291.679 259.012 291.441 259.498 291.212C262.158 296.063 264.257 301.219 265.886 306.503C266.957 309.867 267.747 313.33 268.073 316.851C265.788 316.796 263.503 317.198 261.383 318.056C260.111 318.605 259.055 319.514 257.936 320.31C258.778 318.339 259.458 316.286 259.681 314.145C260.08 311.137 260.77 308.104 260.315 305.057C260.007 305.304 260.001 305.712 259.919 306.063C256.218 309.141 252.063 311.683 247.621 313.541C245.077 314.556 242.6 315.74 239.997 316.603C237.423 317.461 234.869 318.373 232.304 319.258C230.488 319.859 228.63 320.521 226.687 320.414C228.807 316.616 231.211 312.991 233.856 309.541C234.707 308.333 235.742 307.226 236.315 305.844C235.943 306.082 235.574 306.323 235.208 306.567C235.47 305.481 235.119 304.385 234.93 303.318C234.564 303.189 234.198 303.067 233.835 302.952C237.752 301.936 241.648 300.773 245.33 299.071C245.544 299.111 245.754 299.153 245.971 299.199C246.111 299.379 246.251 299.562 246.395 299.748C246.648 299.208 246.996 298.693 247.081 298.098C247.048 297.665 246.828 297.274 246.678 296.875C247.627 296.508 248.545 296.072 249.497 295.712C249.988 295.727 250.492 295.74 250.949 295.517C253.424 294.55 255.858 293.433 258.076 291.966Z" fill="#458F5E"/>
<path d="M150.026 291.75C154.093 294.313 158.464 296.375 162.985 298.007C168.651 300.844 174.953 301.964 181.082 303.34C185.896 304.505 190.863 304.688 195.771 305.186C199.518 305.344 203.267 305.6 207.019 305.527C214.512 305.213 222.065 304.914 229.399 303.212C232.731 302.437 236.068 301.671 239.354 300.71C241.209 300.188 242.975 299.362 244.873 298.993C244.989 299.011 245.217 299.051 245.33 299.072C241.648 300.774 237.752 301.937 233.835 302.952C219.384 306.461 204.329 307.51 189.536 305.988C181.128 304.932 172.833 302.907 164.895 299.954C160.941 297.964 156.777 296.372 153.034 293.983C151.994 293.3 150.795 292.766 150.026 291.75Z" fill="#040303"/>
<path d="M130.068 331.159C130.748 330.07 132.133 329.606 133.359 329.89C135.797 330.369 137.63 332.248 139.049 334.17C140.477 336.214 141.914 338.426 142.078 340.988C142.268 342.193 141.728 343.34 141.059 344.311C138.613 346.287 134.928 345.357 132.881 343.234C131.099 341.452 129.915 339.103 129.397 336.647C129.058 334.823 129.037 332.776 130.068 331.159ZM132.045 330.366C130.26 330.833 129.564 332.895 129.601 334.557C129.708 337.34 130.739 340.094 132.49 342.26C133.875 344.033 136.184 344.863 138.384 344.844C139.9 344.835 141.444 343.761 141.667 342.203C141.807 340.738 141.45 339.252 140.812 337.941C139.76 335.921 138.552 333.95 136.956 332.312C135.663 331.077 133.896 330.042 132.045 330.366Z" fill="#040303"/>
<path d="M143.9 292.274C145.388 295.105 147.344 297.65 149.196 300.246C152.561 304.84 156.459 309.041 160.825 312.699C162.176 313.806 163.513 314.95 165.053 315.795C166.591 316.653 168.281 317.498 170.093 317.36C171.164 317.214 172.088 316.607 173.049 316.165C176.164 320.823 179.187 325.716 180.475 331.238C181.063 332.971 180.862 334.832 181.225 336.598C182.018 337.565 182.885 338.511 183.303 339.719C183.367 340.424 183.443 341.147 183.312 341.855C183.001 342.33 182.467 342.593 182.027 342.935C181.658 341.818 180.908 340.283 179.532 340.372C180.286 341.01 180.969 341.723 181.582 342.498C181.298 344.106 179.398 344.402 178.177 345.079L177.238 344.982C177.229 345.204 177.21 345.644 177.201 345.863C175.395 346.675 173.492 347.224 171.545 347.55C171.216 347.038 171.115 346.223 170.407 346.113C170.56 346.504 170.718 346.891 170.886 347.279C169.977 347.678 168.97 347.547 168.016 347.443C165.499 347.151 162.97 346.464 160.843 345.049C159.895 344.405 158.918 343.81 157.909 343.276C154.504 340.28 152.216 336.26 150.05 332.33C148.57 329.398 147.32 326.351 146.24 323.251C144.071 316.061 143.015 308.522 143.168 301.015C143.168 300.581 143.143 300.154 143.097 299.727C142.783 300.722 142.737 301.768 142.707 302.802C142.606 307.946 143.274 313.065 144.183 318.117C144.427 319.16 144.662 320.207 144.992 321.229C142.682 318.413 139.693 315.838 135.992 315.228C136.907 307.107 140.333 299.535 143.9 292.274Z" fill="#A2C159"/>
<path d="M237.785 299.084C240.757 298.373 243.78 297.848 246.678 296.875C246.828 297.275 247.047 297.665 247.081 298.098C246.996 298.693 246.648 299.209 246.395 299.749C246.251 299.563 246.111 299.38 245.971 299.2C245.754 299.154 245.543 299.111 245.33 299.072C245.217 299.05 244.988 299.01 244.872 298.992C242.975 299.361 241.208 300.188 239.354 300.71C236.068 301.671 232.73 302.436 229.399 303.211C222.065 304.914 214.512 305.213 207.019 305.527C203.267 305.6 199.517 305.344 195.771 305.185C190.862 304.688 185.896 304.505 181.082 303.339C174.953 301.964 168.65 300.844 162.985 298.007C164.721 298.168 166.381 298.745 168.101 299.007C171.024 299.48 173.919 300.124 176.838 300.615C183.471 301.884 190.222 302.33 196.946 302.775C203.251 302.97 209.576 303.019 215.86 302.36C223.24 301.835 230.589 300.804 237.785 299.084Z" fill="#428A5B"/>
<path d="M164.895 299.952C172.833 302.905 181.128 304.931 189.536 305.987C204.329 307.509 219.384 306.46 233.835 302.951C234.198 303.067 234.564 303.189 234.93 303.317C235.119 304.385 235.47 305.48 235.208 306.566C233.518 308.958 231.513 311.115 229.991 313.623C228.319 316.133 226.886 318.787 225.406 321.411C224.726 319.245 223.798 317.085 222.12 315.496C220.29 313.745 217.99 312.567 215.705 311.527C209.585 309.434 203.017 309.379 196.623 309.605C190.427 310.035 184.109 310.935 178.456 313.65C176.872 314.376 175.368 315.258 173.837 316.081C171.741 313.046 169.096 310.425 167.162 307.277C166.183 305.746 165.023 304.318 164.136 302.738C164.102 301.749 164.233 300.73 164.895 299.952Z" fill="#769F96"/>
<path d="M247.621 313.54C252.063 311.682 256.218 309.141 259.919 306.063C260.041 309.952 258.942 313.735 257.966 317.463C257.42 319.785 256.365 321.936 255.526 324.157C252.994 330.807 249.705 337.302 244.928 342.629C244.772 342.967 244.68 343.333 244.549 343.687C242.322 345.09 240.074 346.54 237.578 347.418C235.4 348.144 233.06 348.315 230.787 348.047C231.028 347.363 231.294 346.686 231.572 346.018C230.592 346.061 230.644 347.494 230.18 348.166C228.155 347.882 226.205 347.25 224.338 346.436C224.643 345.63 225.101 344.901 225.552 344.172C224.552 344.212 224.381 345.447 223.865 346.109C222.16 345.505 220.394 345.072 218.734 344.343C218.755 344.191 218.801 343.882 218.823 343.73C219.164 342.924 219.658 342.198 220.128 341.466C219.237 342.052 218.725 343.016 217.978 343.754C218.395 341.787 219.503 340.005 220.955 338.632C220.656 337.885 220.845 337.095 220.967 336.335C221.818 330.716 224.106 325.432 226.687 320.413C228.631 320.52 230.488 319.858 232.304 319.257C234.869 318.372 237.423 317.46 239.998 316.603C242.6 315.74 245.077 314.556 247.621 313.54Z" fill="#A3C25A"/>
<path d="M132.573 316.576C133.503 315.734 134.897 315.466 136.078 315.881C138.085 316.528 139.864 317.696 141.715 318.675C143.216 319.694 144.397 321.128 145.425 322.608C146.252 324.987 147.106 327.364 148.159 329.661C148.522 330.594 149.086 331.464 149.315 332.443C148.921 334.722 148.994 337.077 148.311 339.307C147.847 340.863 147.012 342.407 145.602 343.291C144.254 344.149 142.606 344.219 141.06 344.31C141.728 343.34 142.268 342.193 142.079 340.988C141.914 338.426 140.477 336.214 139.049 334.17C137.631 332.248 135.797 330.369 133.36 329.89C132.133 329.606 130.748 330.07 130.068 331.159C129.037 332.776 129.058 334.823 129.397 336.647C129.915 339.103 131.099 341.452 132.881 343.234C132.49 344.03 131.648 343.731 130.956 343.651C127.539 339.448 124.68 334.673 123.289 329.399C122.761 326.888 122.435 324.261 122.89 321.714C123.274 319.362 125.284 317.287 127.673 317C128.579 316.897 129.278 316.198 130.178 316.076C130.919 315.911 131.63 316.265 132.328 316.451C130.519 318.279 130.602 321.076 130.965 323.437C131.09 324.453 131.612 325.35 132.252 326.131C131.233 326.049 130.193 326.058 129.214 326.372C127.133 325.799 126.142 323.444 126.297 321.439C126.258 319.926 126.932 318.556 127.661 317.278C126.206 318.093 125.861 319.883 125.696 321.406C125.4 323.685 126.767 325.991 128.835 326.946C127.844 327.577 126.627 327.29 125.571 327.73C125.538 327.724 125.467 327.715 125.434 327.711C124.253 327.22 123.744 326.012 123.115 325.002C123.146 325.902 123.555 326.702 124.037 327.44C123.869 327.547 123.536 327.754 123.372 327.858C124.659 328.611 126.383 329.182 127.63 328.017C127.972 327.858 128.32 327.705 128.668 327.565C130.083 327.275 131.502 326.988 132.926 326.757C133.396 326.845 133.863 326.961 134.339 327.037C132.981 326.391 131.767 325.216 131.468 323.697C130.956 321.308 131.047 318.596 132.573 316.576ZM135.724 325.1C135.513 326.897 136.847 329.005 138.836 328.758C137.679 328.37 136.587 327.541 136.246 326.326C135.815 324.688 136.575 323.056 137.365 321.659C137.936 320.619 138.988 319.993 139.656 319.035C137.173 319.902 135.953 322.66 135.724 325.1Z" fill="#9FC36B"/>
<path d="M263.753 318.204C266.014 317.469 268.473 317.557 270.752 318.176C271.685 318.411 272.512 318.964 273.073 319.748C275.502 320.172 277.064 322.74 276.923 325.102C276.814 331.838 273.342 338.076 268.802 342.875C267.988 343.021 267.149 343.159 266.331 342.963C267.936 341.078 269.498 338.952 269.824 336.429C270.001 334.922 269.611 333.088 268.137 332.347C266.392 331.383 264.29 331.923 262.646 332.838C259.916 334.367 257.457 336.615 256.224 339.541C255.761 340.599 255.721 341.78 255.852 342.915C254.614 342.268 253.945 340.974 253.344 339.782C252.539 337.936 252.115 335.926 252.017 333.921C253.592 330.456 255.184 326.99 256.694 323.491C257.737 320.507 260.846 318.881 263.753 318.204ZM268.909 320.224C269.306 320.773 269.812 321.242 270.139 321.843C271.228 324.427 270.02 328 267.143 328.762C267.485 328.848 267.878 329.068 268.217 328.851C269.84 329.122 271.569 330.974 273.183 329.754C275.441 327.966 276.219 324.638 275.047 322.02C274.782 321.163 273.925 320.745 273.162 320.428C273.897 321.227 274.727 322.03 274.937 323.146C275.438 325.379 274.84 328.287 272.549 329.296C271.38 329.659 270.618 328.445 269.785 327.862C271.051 326.258 271.527 323.988 270.779 322.057C270.444 321.23 269.937 320.23 268.909 320.224ZM263.116 320.58C263.512 321.117 264.281 321.148 264.73 321.642C266.331 323.167 266.511 325.681 265.727 327.658C265.395 328.793 264.281 329.382 263.293 329.855C262.796 330.047 262.03 330.147 261.71 329.617C261.572 328.494 261.465 327.365 261.191 326.267C260.752 326.185 260.321 326.075 259.9 325.937C261.014 327.054 261.264 328.653 261.252 330.166C262.869 330.373 264.818 330.132 265.77 328.628C266.945 326.789 267.094 324.217 265.874 322.356C265.312 321.377 264.321 320.471 263.116 320.58Z" fill="#A0C36A"/>
<path d="M268.908 320.226C269.936 320.232 270.443 321.233 270.778 322.06C271.526 323.991 271.05 326.261 269.784 327.865C270.617 328.448 271.379 329.662 272.548 329.299C274.839 328.289 275.437 325.382 274.937 323.149C274.726 322.032 273.896 321.23 273.161 320.431C273.924 320.748 274.781 321.166 275.046 322.023C276.218 324.641 275.44 327.969 273.182 329.757C271.73 329.94 270.724 328.744 269.668 327.972C269.186 328.271 268.713 328.582 268.216 328.854C267.877 329.07 267.484 328.851 267.142 328.765C270.019 328.002 271.227 324.43 270.138 321.846C269.811 321.245 269.305 320.775 268.908 320.226Z" fill="#070B08"/>
<path d="M263.115 320.582C264.32 320.472 265.312 321.378 265.873 322.358C267.094 324.219 266.944 326.79 265.77 328.63C264.818 330.134 262.868 330.375 261.251 330.168C261.264 328.654 261.013 327.056 259.9 325.939C260.321 326.077 260.751 326.186 261.19 326.269C261.465 327.367 261.572 328.496 261.709 329.618C262.029 330.149 262.795 330.049 263.292 329.856C264.281 329.383 265.394 328.795 265.727 327.66C266.511 325.683 266.331 323.169 264.729 321.644C264.281 321.15 263.512 321.119 263.115 320.582Z" fill="#070B08"/>
<path d="M129.214 326.371C130.193 326.057 131.233 326.048 132.252 326.13C132.572 326.194 132.798 326.466 132.926 326.756C131.502 326.988 130.083 327.274 128.668 327.564C128.973 327.229 129.116 326.802 129.214 326.371Z" fill="#40954C"/>
<path d="M123.372 327.858C123.537 327.754 123.869 327.546 124.037 327.44C124.495 327.568 124.958 327.671 125.434 327.711C125.468 327.714 125.538 327.723 125.572 327.729C126.252 327.858 126.938 327.964 127.631 328.016C126.383 329.182 124.659 328.611 123.372 327.858Z" fill="#63A153"/>
<path d="M268.217 328.852C268.714 328.581 269.187 328.269 269.669 327.97C270.725 328.742 271.731 329.938 273.184 329.755C271.57 330.975 269.84 329.124 268.217 328.852Z" fill="#60A14D"/>
<path d="M132.045 330.366C133.897 330.042 135.663 331.077 136.957 332.312C138.552 333.95 139.761 335.921 140.813 337.941C141.451 339.252 141.808 340.738 141.667 342.202C141.445 343.761 139.901 344.835 138.385 344.844C136.185 344.863 133.876 344.033 132.491 342.26C130.74 340.094 129.708 337.34 129.602 334.557C129.565 332.895 130.261 330.832 132.045 330.366Z" fill="#60A14D"/>
<path d="M264.462 332.553C265.731 332.247 267.29 332.022 268.354 332.967C269.755 334.014 269.648 336.043 269.199 337.55C268.464 339.649 267.168 341.537 265.581 343.087C263.696 344.792 260.962 346.095 258.427 345.103C256.896 344.725 256.109 343.044 256.222 341.573C256.341 339.56 257.57 337.842 258.873 336.39C260.459 334.773 262.289 333.285 264.462 332.553Z" fill="#62A34C"/>
<path d="M183.303 339.719C183.81 341.168 183.453 342.697 183.044 344.121C182.959 344.606 182.586 344.93 182.181 345.168C182.205 344.417 182.181 343.67 182.028 342.935C182.467 342.593 183.001 342.331 183.312 341.855C183.444 341.147 183.367 340.424 183.303 339.719Z" fill="#5D9860"/>
<path d="M210.82 343.245C213.559 342.449 216.14 341.241 218.73 340.079C218.09 341.509 217.33 342.968 217.495 344.594C215.179 344.691 212.986 345.609 210.658 345.64C205.093 346.21 199.474 346.333 193.891 345.939C190.377 345.762 186.85 345.588 183.375 345.002C183.796 343.935 184.129 342.815 184.129 341.659C188.315 343.398 192.65 345.039 197.232 345.216C201.826 345.356 206.488 344.841 210.82 343.245Z" fill="#789F98"/>
<path d="M181.583 342.498C181.628 343.931 181.842 345.42 181.485 346.827C180.683 348.538 179.054 350.176 177.058 350.201C177.659 348.7 177.693 347.071 177.623 345.481C177.76 345.38 178.041 345.179 178.178 345.078C179.398 344.401 181.299 344.105 181.583 342.498Z" fill="#45905E"/>
<path d="M157.909 343.276C158.919 343.81 159.895 344.405 160.844 345.048C162.97 346.464 165.499 347.15 168.016 347.443C168.971 347.547 169.978 347.678 170.887 347.279C171.137 348.551 171.595 350.152 170.576 351.214C169.932 351.98 168.88 352.056 167.955 352.123C166.402 352.141 164.856 351.714 163.523 350.921C161.973 350.085 160.908 348.63 159.856 347.263C158.94 346.077 158.379 344.682 157.909 343.276Z" fill="#448C5D"/>
<path d="M223.39 349.884C220.635 349.429 217.993 346.626 218.823 343.731C218.801 343.883 218.756 344.191 218.734 344.344C220.394 345.073 222.16 345.506 223.865 346.11C223.478 347.327 223.228 348.603 223.39 349.884Z" fill="#458E5E"/>
<path d="M237.578 347.419C240.074 346.541 242.322 345.092 244.549 343.688C243.057 347.078 240.257 349.927 236.736 351.178C234.836 351.974 232.603 352.703 230.601 351.834C230.162 350.644 230.516 349.265 230.787 348.048C233.06 348.316 235.4 348.145 237.578 347.419Z" fill="#428D5C"/>
<path d="M171.546 347.55C173.492 347.224 175.396 346.675 177.202 345.863C177.269 347.239 177.165 348.639 176.671 349.939C176.448 350.39 176.448 351.101 175.859 351.245C174.483 351.794 172.967 351.769 171.515 351.693C172.04 350.363 171.902 348.902 171.546 347.55Z" fill="#478F5D"/>
<path d="M224.338 346.437C226.205 347.251 228.155 347.883 230.18 348.167C229.875 349.35 230.049 350.644 229.726 351.794C227.959 352.429 225.766 352.111 224.442 350.726C223.563 349.46 223.994 347.816 224.338 346.437Z" fill="#448E5E"/>
<path d="M161.91 202.2C167.831 199.61 174.503 198.634 180.892 199.759C187.917 200.65 193.903 205.675 197.027 211.883C197.631 213.061 197.93 214.354 198.396 215.583C198.351 215.846 198.259 216.364 198.216 216.627L198.101 216.773C197.646 213.866 196.343 211.169 194.595 208.826C192.109 205.162 188.36 202.398 184.171 200.998C172.853 197.703 159.652 201.276 151.922 210.284C151.815 210.208 151.605 210.053 151.501 209.973C154.396 206.715 157.923 203.988 161.91 202.2Z" fill="#020202"/>
<path fill-rule="evenodd" clip-rule="evenodd" d="M189.208 200.11C182.335 196.184 173.872 195.244 166.279 197.453C159.79 199.149 154.018 203.35 150.29 208.915C146.248 214.757 144.485 222.207 145.702 229.226C145.94 230.964 146.588 232.59 147.234 234.209C147.373 234.559 147.513 234.91 147.648 235.261C147.439 235.707 147.048 236.034 146.657 236.36C146.428 236.551 146.2 236.742 146.007 236.957C144.252 238.442 142.798 240.226 141.35 242.002C141.207 242.178 141.065 242.353 140.922 242.527C136.193 248.559 133.685 256.094 132.959 263.666C132.825 266.958 133.124 270.255 133.835 273.471C135.283 278.793 137.806 283.957 141.652 287.948C142.65 288.715 143.955 289.722 144.971 290.515C145.101 290.16 145.2 289.793 145.251 289.408C145.298 289.354 145.37 289.275 145.443 289.196C145.515 289.116 145.588 289.037 145.635 288.984C143.39 286.909 141.416 284.536 139.802 281.937C136.968 276.949 135.323 271.262 135.262 265.511C135.476 256.518 138.978 247.564 145.186 241.014C146.398 239.623 147.78 238.403 149.168 237.192C149.404 237.456 149.637 237.724 149.871 237.993C150.818 239.083 151.77 240.178 152.957 241.017C157.319 244.437 163 245.706 168.457 245.606C171.926 245.423 175.443 245.026 178.695 243.736C185.532 241.228 191.731 236.6 195.426 230.254C197.729 226.292 199.279 221.627 198.534 217.005C198.464 217.105 198.346 217.279 198.252 217.418C198.219 217.466 198.189 217.51 198.165 217.545C198.58 222.146 196.942 226.7 194.577 230.584C188.147 241.2 174.781 246.933 162.64 244.605C159.235 243.946 155.907 242.619 153.179 240.447C149.964 237.832 147.609 234.153 146.709 230.096C145.644 225.703 146.144 221.008 147.792 216.822C148.731 214.653 150.071 212.682 151.471 210.788C151.158 210.69 150.884 210.843 150.615 210.993C150.532 211.039 150.449 211.085 150.367 211.123C150.654 210.685 150.977 210.271 151.301 209.858C151.512 209.588 151.724 209.317 151.925 209.04C155.794 203.323 162.154 199.589 168.845 198.207C172.896 197.2 177.201 197.337 181.221 198.432C189.763 200.254 196.957 207.341 198.757 215.907C199 216.34 199.024 216.861 199.047 217.379C199.078 218.04 199.108 218.696 199.59 219.162C199.919 219.106 200.215 218.949 200.511 218.791C200.887 218.592 201.263 218.393 201.707 218.399C203.379 218.232 205.059 218.257 206.739 218.281C207.392 218.291 208.044 218.3 208.696 218.299C209.196 218.283 209.687 218.385 210.177 218.487C210.863 218.629 211.545 218.77 212.241 218.589C212.418 216.3 212.869 213.97 213.952 211.929C214.3 210.759 214.95 209.699 215.593 208.651C215.758 208.382 215.923 208.113 216.082 207.844C217.488 205.464 219.557 203.545 221.826 201.996C224.88 199.958 228.337 198.426 231.997 197.944C236.824 197.282 241.848 197.386 246.504 198.939C252.099 201.001 257.395 204.497 260.637 209.601C260.689 209.687 260.741 209.773 260.793 209.859C261.754 211.45 262.73 213.066 263.24 214.867C262.803 214.297 262.418 213.692 262.033 213.088C261.598 212.404 261.163 211.72 260.653 211.087C257.221 206.788 252.7 203.335 247.58 201.297C243.047 199.543 238.12 198.777 233.273 199.217C228.959 199.625 224.779 201.16 221.152 203.515C217.802 205.58 215.658 209.034 213.98 212.499L213.973 212.349C213.987 212.749 213.83 213.119 213.674 213.488C213.585 213.696 213.497 213.904 213.44 214.116C212.043 218.369 212.375 223.104 214.065 227.225C215.478 230.95 218.114 234.04 220.893 236.826C224.804 240.374 229.572 242.958 234.63 244.446C239.499 245.947 244.786 246.121 249.725 244.849C253.657 243.772 257.242 241.64 260.281 238.946C260.549 238.565 260.869 238.846 261.131 239.077C261.176 239.116 261.219 239.154 261.26 239.187C265.305 242.854 268.612 247.393 270.494 252.543C272.194 256.616 272.975 261.051 272.917 265.454C272.56 272.638 269.579 279.612 264.738 284.914C262.459 287.376 259.878 289.563 257.129 291.482C257.196 291.529 257.296 291.601 257.396 291.673C257.496 291.745 257.596 291.816 257.663 291.864C258.325 291.54 258.978 291.205 259.625 290.854C259.713 291.028 259.801 291.203 259.888 291.377L262.012 290.467C262.004 290.452 261.995 290.436 261.986 290.421C265.043 288.435 267.315 285.539 269.497 282.675C274.091 276.375 275.915 268.269 274.939 260.569C274.822 259.971 274.762 259.364 274.702 258.757C274.651 258.245 274.6 257.733 274.515 257.226C273.679 253.653 272.38 250.179 270.513 247.012C268.863 243.753 266.366 241.075 263.89 238.419C263.394 237.887 262.9 237.357 262.413 236.823C264.094 233.668 265.705 230.373 266.056 226.761C266.687 222.658 265.927 218.5 264.725 214.574C263.911 212.148 262.633 209.9 261.174 207.81C256.348 201.068 248.368 196.788 240.125 196.23C234.343 195.995 228.315 196.642 223.153 199.436C216.75 202.81 211.637 209.082 210.542 216.337C207.354 215.992 204.056 215.782 200.908 216.459C200.508 214.339 199.706 212.338 198.806 210.388C196.716 206.099 193.205 202.645 189.208 200.11ZM213.507 215.468C214.822 210.568 217.955 206.114 222.287 203.436C228.562 199.619 236.412 198.612 243.483 200.528C249.817 202.072 255.656 205.708 259.744 210.8C262.041 213.811 264.164 217.118 264.875 220.898C264.944 221.151 264.978 221.415 265.011 221.68C265.075 222.179 265.139 222.678 265.436 223.094C265.459 223.119 265.492 223.155 265.525 223.192C265.558 223.229 265.59 223.265 265.613 223.29L265.485 223.387C265.235 223.649 265.253 224.02 265.271 224.384C265.279 224.567 265.288 224.748 265.262 224.913C265.116 229.818 263.282 234.702 259.966 238.342C257.861 240.441 255.36 242.128 252.66 243.357C247.672 245.493 241.998 245.722 236.757 244.449C234.289 243.809 231.827 243.083 229.529 241.966C226.103 240.276 222.784 238.241 220.155 235.435C218.129 233.214 216.158 230.865 214.947 228.088C213.226 224.162 212.424 219.678 213.507 215.468Z" fill="#020202"/>
<path d="M168.845 198.205C172.896 197.199 177.201 197.336 181.221 198.431C189.763 200.252 196.957 207.339 198.757 215.906L198.397 215.582C197.93 214.353 197.631 213.059 197.027 211.882C193.903 205.674 187.918 200.649 180.892 199.758C174.504 198.633 167.832 199.609 161.91 202.199C157.923 203.987 154.396 206.714 151.501 209.972C151.605 210.051 151.816 210.207 151.922 210.283C151.782 210.46 151.632 210.628 151.471 210.787C151.062 210.658 150.717 210.96 150.366 211.122C150.842 210.396 151.416 209.74 151.925 209.039C155.794 203.321 162.154 199.587 168.845 198.205Z" fill="#9FC15C"/>
<path d="M231.998 197.944C236.824 197.282 241.848 197.385 246.504 198.938C252.099 201 257.395 204.497 260.638 209.6C261.647 211.275 262.703 212.968 263.24 214.866C262.309 213.652 261.614 212.279 260.653 211.086C257.221 206.788 252.7 203.334 247.581 201.296C243.047 199.542 238.12 198.776 233.273 199.216C228.959 199.625 224.78 201.159 221.152 203.514C217.803 205.58 215.658 209.033 213.98 212.499L213.971 212.312L213.953 211.928C214.389 210.458 215.304 209.161 216.082 207.843C217.488 205.464 219.557 203.545 221.827 201.995C224.88 199.957 228.337 198.426 231.998 197.944Z" fill="#A1C45B"/>
<path d="M222.288 203.434C228.563 199.618 236.413 198.611 243.484 200.527C249.817 202.07 255.656 205.707 259.744 210.798C262.042 213.81 264.165 217.117 264.876 220.896C265.074 221.625 264.982 222.455 265.437 223.093C265.483 223.142 265.568 223.239 265.614 223.288L265.486 223.386C265.111 223.779 265.339 224.42 265.263 224.911C265.117 229.817 263.283 234.701 259.967 238.34C257.862 240.439 255.361 242.126 252.661 243.356C247.673 245.491 241.998 245.72 236.757 244.448C234.289 243.807 231.827 243.081 229.53 241.965C226.104 240.274 222.785 238.24 220.155 235.433C218.13 233.212 216.159 230.863 214.948 228.087C213.227 224.161 212.425 219.676 213.508 215.466C214.823 210.567 217.956 206.113 222.288 203.434Z" fill="white"/>
<path d="M151.923 210.283C159.654 201.274 172.854 197.702 184.172 200.996C188.361 202.397 192.11 205.161 194.596 208.825C196.345 211.167 197.647 213.864 198.102 216.772C198.108 217.028 198.129 217.284 198.166 217.543C198.581 222.144 196.942 226.699 194.578 230.582C188.147 241.199 174.782 246.931 162.64 244.603C159.236 243.944 155.907 242.617 153.18 240.445C149.965 237.831 147.609 234.152 146.709 230.094C145.645 225.701 146.145 221.006 147.792 216.82C148.732 214.651 150.071 212.681 151.472 210.786C151.633 210.627 151.783 210.46 151.923 210.283Z" fill="white"/>
<path d="M212.24 218.588C212.417 216.3 212.868 213.97 213.951 211.929L213.97 212.313C214.009 212.954 213.601 213.515 213.439 214.116C212.042 218.369 212.374 223.103 214.064 227.225C215.477 230.95 218.113 234.04 220.892 236.825C224.803 240.373 229.571 242.957 234.629 244.446C239.498 245.947 244.785 246.121 249.724 244.849C253.656 243.772 257.241 241.64 260.28 238.946C260.594 238.5 260.978 238.961 261.259 239.187C265.304 242.854 268.611 247.393 270.493 252.543C272.193 256.615 272.974 261.051 272.916 265.453C272.559 272.638 269.578 279.612 264.737 284.914C262.458 287.376 259.877 289.563 257.128 291.482C254.767 293.099 252.079 294.127 249.495 295.323C246.89 296.531 244.135 297.37 241.383 298.172C238.818 298.938 236.158 299.277 233.543 299.823C222.176 302.153 210.529 302.931 198.942 302.696C191.181 302.565 183.45 301.705 175.787 300.506C169.246 299.484 162.779 297.831 156.662 295.268C152.76 293.624 148.871 291.766 145.634 288.983C143.389 286.909 141.415 284.536 139.801 281.936C136.967 276.948 135.322 271.262 135.261 265.511C135.475 256.518 138.977 247.564 145.185 241.014C146.397 239.623 147.779 238.403 149.167 237.192C150.362 238.528 151.476 239.971 152.956 241.017C157.318 244.437 162.999 245.706 168.456 245.605C171.925 245.422 175.442 245.026 178.694 243.735C185.531 241.228 191.73 236.6 195.424 230.254C197.728 226.291 199.278 221.627 198.533 217.005C198.439 217.139 198.256 217.411 198.164 217.545C198.127 217.286 198.106 217.029 198.1 216.773L198.216 216.627C198.259 216.364 198.35 215.846 198.396 215.583L198.756 215.907C199.308 216.892 198.728 218.329 199.589 219.162C200.336 219.034 200.913 218.387 201.706 218.399C204.028 218.167 206.364 218.305 208.695 218.299C209.894 218.262 211.047 218.9 212.24 218.588ZM199.946 238.973C199.302 239.348 199.183 240.386 199.821 240.828C200.431 241.389 201.633 241.06 201.709 240.175C201.91 239.239 200.745 238.317 199.946 238.973ZM208.131 238.985C207.148 239.315 207.209 241.005 208.204 241.283C208.903 241.487 209.5 240.794 209.577 240.154C209.763 239.385 208.829 238.696 208.131 238.985ZM148.993 244.583C147.214 245.191 145.146 245.91 144.285 247.741C143.803 248.775 143.565 250.038 144.041 251.118C144.615 252.149 145.603 253.019 146.799 253.211C149.673 253.855 153.105 253.235 155.085 250.92C156.351 249.486 156.092 247.192 154.792 245.871C153.361 244.248 150.96 244.205 148.993 244.583ZM254.584 245.169C253.58 245.325 252.549 245.642 251.808 246.362C250.493 247.759 250.447 250.243 251.924 251.545C254.084 253.583 257.635 254.215 260.249 252.689C261.204 252.091 262.107 251.121 262.095 249.925C262.223 248.537 261.17 247.454 260.222 246.606C258.715 245.233 256.542 244.882 254.584 245.169Z" fill="#A2C159"/>
<path d="M199.947 238.972C200.746 238.316 201.912 239.238 201.71 240.174C201.634 241.059 200.432 241.388 199.822 240.827C199.184 240.385 199.303 239.348 199.947 238.972Z" fill="#020304"/>
<path d="M208.131 238.985C208.83 238.695 209.763 239.384 209.577 240.153C209.501 240.794 208.903 241.486 208.204 241.282C207.21 241.004 207.149 239.314 208.131 238.985Z" fill="#030305"/>
<path d="M148.994 244.582C150.962 244.204 153.363 244.247 154.793 245.87C156.093 247.191 156.352 249.485 155.086 250.919C153.106 253.234 149.674 253.854 146.801 253.21C145.605 253.018 144.616 252.148 144.043 251.117C143.567 250.037 143.805 248.774 144.287 247.74C145.147 245.91 147.215 245.19 148.994 244.582Z" fill="#D8C67E"/>
<path d="M254.585 245.167C256.543 244.881 258.715 245.232 260.222 246.604C261.171 247.452 262.224 248.535 262.095 249.924C262.108 251.119 261.205 252.09 260.25 252.687C257.635 254.213 254.084 253.581 251.924 251.543C250.448 250.241 250.494 247.758 251.808 246.36C252.55 245.64 253.581 245.323 254.585 245.167Z" fill="#D8C67E"/>
<path d="M145.636 288.983C148.872 291.765 152.762 293.623 156.664 295.267C162.781 297.83 169.248 299.484 175.789 300.505C183.452 301.704 191.183 302.565 198.944 302.696C210.53 302.931 222.178 302.153 233.545 299.822C236.159 299.276 238.82 298.937 241.385 298.172C244.137 297.369 246.892 296.53 249.497 295.322C252.081 294.126 254.769 293.098 257.13 291.482C257.264 291.576 257.53 291.768 257.664 291.863C253.808 293.956 249.839 295.871 245.717 297.394C239.155 299.606 232.288 300.661 225.476 301.781C217.687 302.76 209.835 303.33 201.979 303.236C194.517 303.23 187.086 302.452 179.675 301.64C172.689 300.701 165.651 299.468 159.095 296.793C154.211 294.898 149.431 292.595 145.251 289.407C145.346 289.3 145.541 289.09 145.636 288.983Z" fill="#062011"/>
<path d="M192.347 214.666C192.105 214.24 191.962 213.761 191.726 213.333C191.342 212.648 190.831 212.061 190.34 211.465C188.966 209.869 187.137 208.712 185.14 208.297C184.128 207.993 183.072 208.105 182.035 208.091C181.435 208.106 180.826 208.067 180.241 208.244C178.747 208.561 177.296 209.121 175.957 209.899C174.471 210.7 173.25 211.978 172.286 213.415C171.568 214.413 171.104 215.591 170.784 216.796C170.337 218.272 170.412 219.862 170.592 221.381C170.811 222.414 171.126 223.43 171.563 224.383C172.324 225.916 173.335 227.382 174.774 228.252C176.263 229.286 178.031 229.663 179.749 230.006C180.618 230.061 181.492 230.054 182.362 230.024C184.865 229.717 187.437 228.724 189.365 226.996C190.621 225.796 191.608 224.245 192.203 222.532C192.736 221.261 192.912 219.867 193.026 218.491C193.03 217.767 192.927 217.043 192.793 216.334C192.65 215.777 192.629 215.174 192.347 214.666ZM172.591 216.766C172.254 216.041 172.488 215.16 172.926 214.546C173.283 214.017 173.935 213.927 174.492 213.809C175.034 213.782 175.584 214.021 176.01 214.373C176.817 215.056 176.476 216.492 175.699 217.041C175.023 217.468 174.213 217.851 173.416 217.597C173.027 217.493 172.745 217.148 172.591 216.766Z" fill="#020202"/>
<path d="M174.492 213.81C175.034 213.783 175.584 214.022 176.01 214.374C176.817 215.057 176.476 216.493 175.699 217.042C175.023 217.469 174.213 217.852 173.416 217.598C173.027 217.494 172.745 217.149 172.591 216.767C172.254 216.043 172.488 215.161 172.926 214.547C173.283 214.018 173.935 213.928 174.492 213.81ZM174.049 214.276C173.517 214.423 173.038 214.833 172.858 215.399C172.607 215.952 172.832 216.608 173.197 217.035C173.524 217.441 174.087 217.285 174.524 217.265C175.196 217.006 175.959 216.534 176.088 215.712C176.227 215.237 176.019 214.698 175.615 214.458C175.138 214.193 174.565 214.055 174.049 214.276Z" fill="#120108"/>
<path d="M174.048 214.274C174.565 214.054 175.138 214.192 175.614 214.457C176.019 214.697 176.226 215.236 176.087 215.71C175.958 216.532 175.195 217.005 174.524 217.264C174.086 217.283 173.523 217.44 173.197 217.034C172.831 216.607 172.607 215.951 172.857 215.398C173.037 214.832 173.517 214.422 174.048 214.274Z" fill="#020202"/>
<path d="M186.358 218.024C187.104 217.663 187.932 217.889 188.62 218.322C189.204 218.714 189.718 219.814 189.518 220.59C189.331 221.933 188.962 222.455 187.992 222.878C187.361 222.91 185.857 223.183 185.128 222.533C184.6 221.835 184.276 220.763 184.638 219.86C184.898 218.934 185.59 218.265 186.358 218.024Z" fill="white"/>
<path d="M217.501 214.666C217.743 214.24 217.886 213.761 218.122 213.333C218.506 212.648 219.017 212.061 219.508 211.465C220.882 209.869 222.711 208.712 224.708 208.297C225.72 207.993 226.776 208.105 227.812 208.091C228.412 208.106 229.022 208.067 229.607 208.244C231.101 208.561 232.552 209.121 233.89 209.899C235.377 210.7 236.597 211.978 237.562 213.415C238.28 214.413 238.744 215.591 239.064 216.796C239.511 218.272 239.436 219.862 239.256 221.381C239.036 222.414 238.722 223.43 238.285 224.383C237.524 225.916 236.513 227.382 235.074 228.252C233.585 229.286 231.817 229.663 230.099 230.006C229.229 230.061 228.356 230.054 227.486 230.024C224.983 229.717 222.41 229.181 220.482 227.454C219.227 226.254 217.908 224.576 217.432 222.725C216.898 221.454 216.936 219.867 216.822 218.491C216.817 217.767 216.92 217.043 217.055 216.334C217.198 215.777 217.219 215.174 217.501 214.666ZM237.257 216.766C237.593 216.041 237.36 215.16 236.922 214.546C236.565 214.017 235.913 213.927 235.356 213.809C234.814 213.782 234.264 214.021 233.838 214.373C233.031 215.056 233.372 216.492 234.149 217.041C234.825 217.468 235.635 217.851 236.431 217.597C236.821 217.493 237.103 217.148 237.257 216.766Z" fill="#020202"/>
<path d="M235.356 213.81C234.814 213.783 234.264 214.022 233.838 214.374C233.031 215.057 233.372 216.493 234.149 217.042C234.825 217.469 235.635 217.852 236.431 217.598C236.821 217.494 237.103 217.149 237.257 216.767C237.593 216.043 237.36 215.161 236.922 214.547C236.565 214.018 235.913 213.928 235.356 213.81ZM235.799 214.276C236.331 214.423 236.81 214.833 236.99 215.399C237.241 215.952 237.016 216.608 236.651 217.035C236.324 217.441 235.761 217.285 235.324 217.265C234.652 217.006 233.889 216.534 233.76 215.712C233.621 215.237 233.829 214.698 234.233 214.458C234.71 214.193 235.282 214.055 235.799 214.276Z" fill="#120108"/>
<path d="M235.799 214.274C235.283 214.054 234.71 214.192 234.234 214.457C233.829 214.697 233.622 215.236 233.761 215.71C233.89 216.532 234.653 217.005 235.324 217.264C235.761 217.283 236.325 217.44 236.651 217.034C237.017 216.607 237.241 215.951 236.991 215.398C236.811 214.832 236.331 214.422 235.799 214.274Z" fill="#020202"/>
<path d="M223.517 218.34C222.782 217.958 221.967 218.197 221.289 218.656C220.713 219.073 219.979 220.225 220.177 221.048C220.36 222.473 221.052 223.192 222.007 223.641C222.63 223.676 224.264 223.829 224.729 223.125C225.249 222.384 225.72 221.244 225.363 220.286C225.107 219.303 224.273 218.596 223.517 218.34Z" fill="white"/>
</g>
<g clip-path="url(#clip1_7412_87032)">
<path d="M212.009 243.774C211.804 243.872 211.396 244.067 211.194 244.165L212.009 243.774Z" fill="#1F1D2A"/>
<path d="M200.526 255.756C203.738 255.146 207.033 255.173 210.261 255.67C213.51 255.927 216.698 256.631 219.895 257.229C226.857 258.349 233.431 261.058 240.35 262.367C243.782 262.94 247.373 262.992 250.753 262.074C251.946 261.647 253.215 261.165 254.066 260.185C254.026 259.993 253.947 259.606 253.907 259.414C255.024 259.426 256.223 259.267 257.239 259.844C258.169 260.335 259.264 260.643 259.905 261.543C260.362 262.068 260.768 262.891 260.286 263.532C260.067 262.44 259.45 261.159 258.257 260.927C258.285 261.509 258.315 262.095 258.349 262.681C258.087 262.843 257.827 263.004 257.571 263.166C256.897 268.877 254.804 274.512 251 278.883C247.431 283.206 242.742 286.55 237.574 288.694C234.645 289.902 231.658 290.97 228.62 291.873C223.064 293.459 217.277 293.935 211.545 294.442C207.271 294.585 202.988 294.591 198.711 294.448C192.878 293.765 187.011 293.038 181.349 291.394C177.197 290.232 173.024 288.969 169.232 286.87C165.049 284.664 161.153 281.839 158.054 278.246C154.363 273.807 152.959 267.998 152.099 262.415C151.971 261.397 151.156 260.695 150.65 259.859C149.994 259.929 149.445 260.292 148.917 260.655C148.441 260.301 147.935 259.81 148.313 259.188C149.146 257.806 150.869 257.141 152.413 257.007C152.261 257.443 151.806 257.806 151.843 258.294C153.575 260.542 156.291 261.872 159.054 262.33C164.564 263.209 170.174 262.321 175.547 261.027C183.814 259.008 192.106 257.031 200.526 255.756ZM187.771 258.715C184.748 259.612 181.63 260.143 178.6 261.027C176.797 261.573 174.927 261.824 173.1 262.272C171.273 262.757 169.387 263.016 167.496 263.087C165.141 263.465 162.728 263.437 160.372 263.081C157.782 262.8 154.994 262.281 153.005 260.469C152.825 265.994 154.308 271.561 157.313 276.211C158.96 278.59 161.181 280.479 163.365 282.349C163.722 282.66 164.146 282.91 164.634 282.925C167.197 284.982 170.119 286.531 173.106 287.877C176.718 289.219 180.33 290.622 184.107 291.44C186.932 292.068 189.751 292.749 192.621 293.124C195.251 293.374 197.881 293.591 200.526 293.618C204.894 293.984 209.281 293.804 213.65 293.508C218.153 293.017 222.674 292.523 227.067 291.37C232.79 289.869 238.379 287.755 243.52 284.805C244.209 284.417 244.81 283.899 245.39 283.368C248.459 280.933 251.168 278.005 253.288 274.704C255.826 270.704 256.964 265.994 257.358 261.317C257.126 260.487 256.091 260.521 255.442 260.225C253.526 261.705 251.284 262.778 248.913 263.279C244.218 264.2 239.438 263.035 234.895 261.851C231.628 260.872 228.321 260.033 225.038 259.096C218.647 257.727 212.219 256.409 205.7 255.792C205.206 255.737 204.702 255.737 204.211 255.82C198.726 256.75 193.201 257.495 187.771 258.715Z" fill="#1F1D2A"/>
<path d="M187.77 258.712C193.2 257.492 198.725 256.747 204.21 255.817C204.701 255.735 205.205 255.735 205.699 255.789C212.218 256.406 218.646 257.724 225.037 259.093C228.32 260.03 231.627 260.869 234.894 261.848C239.437 263.032 244.217 264.197 248.912 263.276C251.283 262.776 253.525 261.702 255.441 260.222C256.09 260.518 257.125 260.484 257.356 261.314C256.963 265.991 255.825 270.701 253.287 274.701C251.167 278.002 248.458 280.93 245.389 283.365C244.254 281.394 243.091 279.399 241.429 277.822C237.859 274.353 233.1 272.535 228.448 271.031C221.007 268.761 213.17 268.297 205.433 268.233C198.917 268.306 192.364 268.483 185.921 269.554C181.919 270.296 177.925 271.366 174.319 273.301C171.558 274.753 168.907 276.534 166.879 278.932C165.96 280.155 165.207 281.504 164.633 282.922C164.145 282.907 163.721 282.657 163.364 282.346C161.18 280.476 158.959 278.587 157.311 276.208C154.307 271.559 152.824 265.991 153.004 260.466C154.993 262.278 157.781 262.797 160.371 263.078C162.727 263.435 165.14 263.462 167.495 263.084C169.386 263.014 171.272 262.754 173.099 262.269C174.926 261.821 176.796 261.571 178.599 261.024C181.629 260.14 184.747 259.609 187.77 258.712Z" fill="#883F51"/>
<path d="M185.921 269.555C192.364 268.485 198.917 268.308 205.433 268.234C213.17 268.298 221.007 268.762 228.448 271.032C233.1 272.536 237.859 274.354 241.429 277.823C243.091 279.4 244.253 281.395 245.388 283.366C244.809 283.897 244.208 284.415 243.518 284.803C238.378 287.753 232.789 289.867 227.066 291.368C222.673 292.521 218.152 293.015 213.649 293.506C209.28 293.802 204.893 293.982 200.525 293.616C197.88 293.589 195.25 293.372 192.62 293.122C189.749 292.747 186.931 292.067 184.106 291.438C180.329 290.62 176.717 289.217 173.105 287.875C170.118 286.529 167.196 284.98 164.633 282.924C165.207 281.505 165.96 280.157 166.878 278.933C168.907 276.535 171.558 274.754 174.319 273.302C177.925 271.367 181.918 270.297 185.921 269.555Z" fill="#F69E83"/>
</g>
<path d="M189.41 4.06274L188.704 3.5818L188.119 4.20408L185.29 7.21138L184.49 8.06181L185.453 8.72155C187.568 10.1697 191.263 13.367 192.759 14.9786L193.472 15.7465L194.206 14.9984L197.243 11.9018L197.925 11.2064L197.248 10.5063C195.43 8.62647 191.501 5.48702 189.41 4.06274ZM184.957 23.7292L183.408 23.9462L184.255 25.2609L186.785 29.1913L187.143 29.7472L187.795 29.6355C192.108 28.8962 196.064 27.2065 199.186 25.3396L199.189 25.3379C204.119 22.3678 208.21 18.1355 210.536 13.9176L210.802 13.4354L210.536 12.9528L208.243 8.78426L207.301 7.07107L206.464 8.83781C204.645 12.6736 200.914 17.0505 195.99 19.9883C193.21 21.6215 189.494 23.0934 184.957 23.7292Z" fill="white" stroke="black" stroke-width="2"/>
<path d="M166.725 5.31065L166.111 4.74963L165.447 5.25136L163.277 6.89267L162.278 7.64774L163.235 8.45475C164.608 9.61196 165.487 10.5616 166.781 12.1391L167.397 12.8906L168.166 12.2957L170.38 10.5823L171.195 9.95156L170.54 9.15593C169.955 8.44523 169.145 7.61305 168.353 6.84193L168.458 6.92765C169.835 8.04415 170.749 8.89971 172.088 10.4703L172.737 11.2311L173.498 10.5822L175.626 8.76744L176.38 8.12425L175.743 7.36448C174.725 6.14857 173.01 4.60996 171.841 3.65553L171.21 3.14065L170.578 3.65371L168.458 5.37458L167.571 6.09466C167.268 5.80968 166.981 5.54441 166.725 5.31065ZM153.76 7.07859L152.576 7.3716L153.095 8.47523C153.514 9.36551 153.96 10.6888 154.205 11.6793L154.209 11.6938L154.213 11.7085L154.216 11.7234L154.22 11.7386L154.224 11.7539L154.228 11.7695L154.232 11.7853L154.236 11.8013L154.24 11.8175L154.244 11.834L154.248 11.8506L154.252 11.8674L154.256 11.8845L154.261 11.9017L154.265 11.9192L154.269 11.9369L154.274 11.9547L154.278 11.9728L154.283 11.9911L154.287 12.0096L154.292 12.0282L154.297 12.0471L154.301 12.0662L154.306 12.0854L154.311 12.1049L154.316 12.1246L154.321 12.1444L154.326 12.1645L154.331 12.1847L154.336 12.2052L154.341 12.2258L154.346 12.2466L154.351 12.2677L154.356 12.2889L154.362 12.3103L154.367 12.3318L154.372 12.3536L154.378 12.3755L154.383 12.3977L154.389 12.42L154.394 12.4425L154.4 12.4652L154.406 12.4881L154.411 12.5111L154.417 12.5343L154.423 12.5577L154.429 12.5813L154.435 12.6051L154.441 12.629L154.446 12.6531L154.452 12.6774L154.459 12.7019L154.465 12.7265L154.471 12.7513L154.477 12.7763L154.483 12.8014L154.489 12.8268L154.496 12.8523L154.502 12.8779L154.508 12.9037L154.515 12.9297L154.521 12.9559L154.528 12.9822L154.534 13.0087L154.541 13.0353L154.548 13.0621L154.554 13.0891L154.561 13.1162L154.568 13.1435L154.575 13.1709L154.581 13.1985L154.588 13.2263L154.595 13.2542L154.602 13.2822L154.609 13.3105L154.616 13.3388L154.623 13.3673L154.63 13.396L154.637 13.4248L154.645 13.4538L154.652 13.4829L154.659 13.5122L154.666 13.5416L154.674 13.5712L154.681 13.6009L154.688 13.6308L154.696 13.6608L154.703 13.6909L154.711 13.7212L154.718 13.7516L154.726 13.7822L154.733 13.8129L154.741 13.8437L154.749 13.8747L154.756 13.9058L154.764 13.9371L154.772 13.9684L154.78 14L154.788 14.0316L154.795 14.0634L154.803 14.0953L154.811 14.1274L154.819 14.1595L154.827 14.1918L154.835 14.2243L154.843 14.2568L154.851 14.2895L154.86 14.3223L154.868 14.3553L154.876 14.3883L154.884 14.4215L154.892 14.4548L154.901 14.4883L154.909 14.5218L154.917 14.5555L154.926 14.5893L154.934 14.6232L154.942 14.6572L154.951 14.6913L154.959 14.7256L154.968 14.7599L154.976 14.7944L154.985 14.829L154.993 14.8637L155.002 14.8985L155.011 14.9334L155.019 14.9685L155.028 15.0036L155.037 15.0389L155.046 15.0742L155.054 15.1097L155.063 15.1452L155.072 15.1809L155.081 15.2167L155.09 15.2526L155.099 15.2885L155.108 15.3246L155.116 15.3608L155.125 15.3971L155.134 15.4334L155.143 15.4699L155.153 15.5065L155.162 15.5431L155.171 15.5799L155.18 15.6167L155.189 15.6537L155.198 15.6907L155.207 15.7278L155.217 15.765L155.226 15.8023L155.235 15.8397L155.244 15.8772L155.254 15.9148L155.263 15.9524L155.272 15.9902L155.282 16.028L155.291 16.0659L155.3 16.1039L155.31 16.1419L155.319 16.1801L155.329 16.2183L155.338 16.2566L155.348 16.295L155.357 16.3335L155.367 16.372L155.376 16.4106L155.386 16.4493L155.395 16.4881L155.405 16.5269L155.415 16.5658L155.424 16.6048L155.434 16.6438L155.444 16.6829L155.453 16.7221L155.463 16.7614L155.473 16.8007L155.483 16.8401L155.492 16.8795L155.502 16.9191L155.512 16.9586L155.522 16.9983L155.532 17.038L155.541 17.0777L155.551 17.1176L155.561 17.1575L155.571 17.1974L155.581 17.2374L155.591 17.2775L155.601 17.3176L155.611 17.3577L155.621 17.3979L155.631 17.4382L155.641 17.4785L155.651 17.5189L155.661 17.5593L155.671 17.5998L155.681 17.6403L155.691 17.6809L155.701 17.7215L155.711 17.7622L155.721 17.8029L155.731 17.8437L155.741 17.8845L155.751 17.9253L155.761 17.9662L155.771 18.0071L155.781 18.0481L155.792 18.0891L155.802 18.1301L155.812 18.1712L155.822 18.2123L155.832 18.2535L155.842 18.2947L155.853 18.3359L155.863 18.3771L155.873 18.4184L155.883 18.4598L155.894 18.5011L155.904 18.5425L155.914 18.5839L155.924 18.6253L155.935 18.6668L155.945 18.7083L155.955 18.7498L155.965 18.7913L155.976 18.8329L155.986 18.8745L155.996 18.9161L156.007 18.9577L156.017 18.9994L156.027 19.041L156.037 19.0827L156.048 19.1244L156.058 19.1662L156.068 19.2079L156.079 19.2496L156.089 19.2914L156.099 19.3332L156.11 19.375L156.12 19.4168L156.13 19.4586L156.141 19.5004L156.151 19.5423L156.162 19.5841L156.172 19.626L156.182 19.6678L156.193 19.7097L156.203 19.7515L156.213 19.7934L156.224 19.8353L156.234 19.8772L156.244 19.919L156.255 19.9609L156.265 20.0028L156.276 20.0447L156.286 20.0866L156.296 20.1284L156.307 20.1703L156.317 20.2122L156.327 20.254L156.338 20.2959L156.348 20.3377L156.358 20.3795L156.369 20.4214L156.379 20.4632L156.389 20.505L156.4 20.5468L156.41 20.5886L156.42 20.6303L156.431 20.6721L156.441 20.7138L156.451 20.7556L156.462 20.7973L156.472 20.839L156.482 20.8806L156.493 20.9223L156.503 20.9639L156.513 21.0055L156.524 21.0471L156.534 21.0887L156.544 21.1302L156.554 21.1717L156.565 21.2132L156.575 21.2547L156.585 21.2961L156.595 21.3375L156.606 21.3789L156.616 21.4203L156.626 21.4616L156.636 21.5029L156.647 21.5441L156.657 21.5854L156.667 21.6266L156.677 21.6677L156.687 21.7088L156.697 21.7499L156.708 21.791L156.718 21.832L156.728 21.8729L156.738 21.9139L156.748 21.9548L156.758 21.9956L156.768 22.0364L156.778 22.0772L156.789 22.1179L156.799 22.1585L156.809 22.1992L156.819 22.2397L156.829 22.2803L156.839 22.3208L156.849 22.3612L156.859 22.4016L156.869 22.4419L156.879 22.4822L156.889 22.5224L156.899 22.5626L156.909 22.6027L156.918 22.6427L156.928 22.6828L156.938 22.7227L156.948 22.7626L156.958 22.8024L156.968 22.8422L156.978 22.8819L156.987 22.9215L156.997 22.9611L157.007 23.0006L157.017 23.0401L157.026 23.0795L157.036 23.1188L157.046 23.1581L157.056 23.1973L157.065 23.2364L157.075 23.2755L157.085 23.3144L157.094 23.3534L157.104 23.3922L157.113 23.431L157.123 23.4697L157.133 23.5083L157.142 23.5468L157.152 23.5853L157.161 23.6237L157.171 23.662L157.18 23.7002L157.19 23.7384L157.199 23.7765L157.208 23.8145L157.218 23.8524L157.227 23.8902L157.236 23.9279L157.246 23.9656L157.255 24.0032L157.264 24.0407L157.274 24.0781L157.283 24.1154L157.292 24.1526L157.301 24.1897L157.31 24.2268L157.32 24.2637L157.329 24.3006L157.338 24.3373L157.347 24.374L157.356 24.4106L157.365 24.447L157.374 24.4834L157.383 24.5197L157.392 24.5559L157.401 24.592L157.41 24.628L157.419 24.6638L157.427 24.6996L157.436 24.7353L157.445 24.7709L157.454 24.8064L157.463 24.8417L157.471 24.877L157.48 24.9121L157.489 24.9472L157.497 24.9821L157.506 25.0169L157.514 25.0516L157.523 25.0862L157.532 25.1207L157.54 25.1551L157.549 25.1894L157.557 25.2235L157.565 25.2575L157.574 25.2915L157.582 25.3252L157.591 25.3589L157.599 25.3925L157.607 25.4259L157.615 25.4592L157.624 25.4924L157.632 25.5255L157.64 25.5585L157.648 25.5913L157.656 25.624L157.664 25.6566L157.672 25.689L157.68 25.7213L157.688 25.7535L157.696 25.7856L157.704 25.8175L157.712 25.8493L157.72 25.881L157.728 25.9125L157.735 25.9439L157.743 25.9751L157.751 26.0063L157.758 26.0373L157.766 26.0681L157.774 26.0988L157.781 26.1294L157.789 26.1598L157.796 26.1901L157.804 26.2203L157.811 26.2503L157.819 26.2802L157.826 26.3099L157.833 26.3395L157.84 26.3689L157.848 26.3982L157.855 26.4273L157.862 26.4563L157.869 26.4852L157.876 26.5138L157.883 26.5424L157.89 26.5708L157.897 26.599L157.904 26.6271L157.911 26.655L157.918 26.6828L157.925 26.7104L157.932 26.7378L157.939 26.7651L157.945 26.7923L157.952 26.8192L157.959 26.8461L157.965 26.8727L157.972 26.8992L157.978 26.9255L157.985 26.9517L157.991 26.9777L157.998 27.0035L158.004 27.0292L158.01 27.0547L158.016 27.08L158.023 27.1052L158.029 27.1302L158.035 27.155L158.041 27.1797L158.047 27.2042L158.053 27.2285L158.059 27.2526L158.065 27.2765L158.071 27.3003L158.077 27.3239L158.083 27.3473L158.088 27.3706L158.094 27.3936L158.1 27.4165L158.105 27.4392L158.111 27.4618L158.116 27.4841L158.122 27.5062L158.127 27.5282L158.133 27.55L158.138 27.5716L158.143 27.593L158.149 27.6142L158.154 27.6352L158.159 27.6561L158.164 27.6767L158.169 27.6972L158.174 27.7175L158.179 27.7375L158.184 27.7574L158.189 27.7771L158.194 27.7966L158.199 27.8159L158.203 27.835L158.208 27.8539L158.213 27.8726L158.217 27.8911L158.222 27.9093L158.226 27.9274L158.231 27.9453L158.235 27.963L158.239 27.9805L158.244 27.9978L158.248 28.0148L158.252 28.0317L158.256 28.0483L158.26 28.0648L158.264 28.081L158.268 28.097L158.272 28.1128L158.276 28.1284L158.28 28.1438L158.283 28.159L158.287 28.174L158.291 28.1887L158.294 28.2032L158.298 28.2175L158.301 28.2316L158.305 28.2455L158.308 28.2591L158.312 28.2726L158.315 28.2858L158.318 28.2988C158.594 29.4137 158.898 31.1258 158.998 32.2375L159.103 33.3984L160.234 33.1184L164.743 32.0026L165.816 31.7372L165.445 30.6963C165.045 29.575 164.414 27.6261 164.219 26.8385L164.216 26.8258L164.213 26.813L164.21 26.8L164.206 26.7867L164.203 26.7732L164.2 26.7596L164.196 26.7457L164.193 26.7316L164.189 26.7173L164.186 26.7028L164.182 26.6882L164.178 26.6733L164.175 26.6582L164.171 26.6429L164.167 26.6274L164.163 26.6117L164.159 26.5959L164.155 26.5798L164.151 26.5635L164.147 26.5471L164.143 26.5304L164.139 26.5135L164.135 26.4965L164.13 26.4793L164.126 26.4619L164.122 26.4442L164.117 26.4264L164.113 26.4084L164.108 26.3903L164.104 26.3719L164.099 26.3534L164.095 26.3346L164.09 26.3157L164.085 26.2966L164.08 26.2773L164.076 26.2578L164.071 26.2382L164.066 26.2184L164.061 26.1983L164.056 26.1782L164.051 26.1578L164.046 26.1372L164.041 26.1165L164.035 26.0956L164.03 26.0745L164.025 26.0533L164.02 26.0319L164.014 26.0103L164.009 25.9885L164.003 25.9666L163.998 25.9445L163.992 25.9222L163.987 25.8997L163.981 25.8771L163.976 25.8543L163.97 25.8314L163.964 25.8083L163.959 25.785L163.953 25.7615L163.947 25.7379L163.941 25.7142L163.935 25.6902L163.929 25.6661L163.923 25.6419L163.917 25.6175L163.911 25.5929L163.905 25.5681L163.899 25.5433L163.893 25.5182L163.886 25.493L163.88 25.4676L163.874 25.4421L163.867 25.4165L163.861 25.3906L163.855 25.3647L163.848 25.3385L163.842 25.3123L163.835 25.2858L163.828 25.2593L163.822 25.2325L163.815 25.2057L163.808 25.1787L163.802 25.1515L163.795 25.1242L163.788 25.0967L163.781 25.0691L163.775 25.0414L163.768 25.0135L163.761 24.9855L163.754 24.9573L163.747 24.929L163.74 24.9006L163.733 24.872L163.726 24.8433L163.718 24.8144L163.711 24.7854L163.704 24.7563L163.697 24.7271L163.689 24.6977L163.682 24.6681L163.675 24.6385L163.667 24.6087L163.66 24.5788L163.653 24.5487L163.645 24.5185L163.638 24.4882L163.63 24.4578L163.623 24.4272L163.615 24.3965L163.607 24.3657L163.6 24.3348L163.592 24.3037L163.584 24.2725L163.577 24.2412L163.569 24.2098L163.561 24.1783L163.553 24.1466L163.545 24.1148L163.537 24.0829L163.529 24.0509L163.521 24.0187L163.513 23.9865L163.505 23.9541L163.497 23.9216L163.489 23.889L163.481 23.8563L163.473 23.8235L163.465 23.7905L163.457 23.7575L163.449 23.7243L163.44 23.6911L163.432 23.6577L163.424 23.6242L163.416 23.5906L163.407 23.5569L163.399 23.5231L163.39 23.4892L163.382 23.4552L163.374 23.4211L163.365 23.3869L163.357 23.3526L163.348 23.3181L163.34 23.2836L163.331 23.249L163.322 23.2143L163.314 23.1795L163.305 23.1446L163.296 23.1096L163.288 23.0745L163.279 23.0393L163.27 23.004L163.262 22.9686L163.253 22.9331L163.244 22.8976L163.235 22.8619L163.226 22.8262L163.217 22.7903L163.209 22.7544L163.2 22.7184L163.191 22.6823L163.182 22.6461L163.173 22.6099L163.164 22.5735L163.155 22.5371L163.146 22.5006L163.137 22.4639L163.128 22.4273L163.119 22.3905L163.109 22.3537L163.1 22.3167L163.091 22.2797L163.082 22.2427L163.073 22.2055L163.064 22.1683L163.054 22.131L163.045 22.0936L163.036 22.0561L163.027 22.0186L163.017 21.981L163.008 21.9433L162.999 21.9056L162.989 21.8678L162.98 21.8299L162.97 21.7919L162.961 21.7539L162.952 21.7158L162.942 21.6777L162.933 21.6395L162.923 21.6012L162.914 21.5629L162.904 21.5245L162.895 21.486L162.885 21.4475L162.876 21.4089L162.866 21.3702L162.857 21.3315L162.847 21.2927L162.837 21.2539L162.828 21.215L162.818 21.1761L162.808 21.1371L162.799 21.098L162.789 21.0589L162.779 21.0198L162.77 20.9806L162.76 20.9413L162.75 20.902L162.74 20.8627L162.731 20.8232L162.721 20.7838L162.711 20.7443L162.701 20.7047L162.692 20.6651L162.682 20.6255L162.672 20.5858L162.662 20.5461L162.652 20.5063L162.642 20.4665L162.633 20.4266L162.623 20.3867L162.613 20.3468L162.603 20.3068L162.593 20.2668L162.583 20.2267L162.573 20.1867L162.563 20.1465L162.553 20.1064L162.543 20.0662L162.535 20.0309C165.719 20.3558 169.627 20.8995 172.488 21.5953L173.551 21.8539L173.713 20.7722L174.374 16.3759L174.512 15.452L173.6 15.2508C170.726 14.617 165.133 13.9636 160.977 13.7342L160.974 13.7247L160.965 13.689L160.957 13.6533L160.948 13.6178L160.939 13.5823L160.93 13.547L160.921 13.5117L160.913 13.4765L160.904 13.4414L160.895 13.4064L160.887 13.3715L160.878 13.3367L160.87 13.3021L160.861 13.2675L160.853 13.233L160.844 13.1986L160.836 13.1643L160.827 13.1301L160.819 13.096L160.81 13.062L160.802 13.0281L160.793 12.9943L160.785 12.9606L160.777 12.927L160.769 12.8936L160.76 12.8602L160.752 12.827L160.744 12.7938L160.736 12.7608L160.728 12.7279L160.719 12.6951L160.711 12.6624L160.703 12.6298L160.695 12.5973L160.687 12.565L160.679 12.5327L160.671 12.5006L160.663 12.4686L160.655 12.4367L160.648 12.405L160.64 12.3733L160.632 12.3418L160.624 12.3104L160.616 12.2791L160.609 12.2479L160.601 12.2169L160.593 12.1859L160.586 12.1552L160.578 12.1245L160.571 12.0939L160.563 12.0635L160.556 12.0332L160.548 12.0031L160.541 11.973L160.533 11.9431L160.526 11.9134L160.519 11.8837L160.511 11.8542L160.504 11.8249L160.497 11.7956L160.49 11.7665L160.482 11.7375L160.475 11.7087L160.468 11.68L160.461 11.6515L160.454 11.623L160.447 11.5948L160.44 11.5666L160.433 11.5386L160.426 11.5108L160.419 11.483L160.413 11.4555L160.406 11.428L160.399 11.4008L160.392 11.3736L160.386 11.3466L160.379 11.3198L160.372 11.2931L160.366 11.2665L160.359 11.2401L160.353 11.2139L160.346 11.1878L160.34 11.1618L160.334 11.136L160.327 11.1104L160.321 11.0849L160.315 11.0596L160.308 11.0344L160.302 11.0094L160.296 10.9845L160.29 10.9598L160.284 10.9352L160.278 10.9109L160.272 10.8866L160.266 10.8626L160.26 10.8386L160.254 10.8149L160.248 10.7913L160.243 10.7679L160.237 10.7446L160.231 10.7215L160.225 10.6986L160.22 10.6759L160.214 10.6533L160.209 10.6309L160.203 10.6086L160.198 10.5865L160.192 10.5646L160.187 10.5429L160.182 10.5213L160.176 10.4999L160.171 10.4787L160.166 10.4576L160.161 10.4368L160.155 10.4161L160.15 10.3956L160.145 10.3752L160.14 10.3551L160.135 10.3351L160.131 10.3153L160.126 10.2957L160.121 10.2762L160.116 10.257L160.111 10.2379L160.107 10.219C159.829 9.09833 159.665 7.84731 159.53 6.79799L159.386 5.68647L158.298 5.9557L153.76 7.07859Z" fill="white" stroke="black" stroke-width="2"/>
<path d="M233.821 3.48734L225.728 2L222.396 19.8481L225.728 21.3354L233.821 3.48734Z" fill="white" stroke="black" stroke-width="2"/>
<circle cx="221.077" cy="27.927" r="4.07609" fill="white" stroke="black" stroke-width="2"/>
<defs>
<clipPath id="clip0_7412_87032">
<rect width="158.338" height="158.045" fill="white" transform="translate(120.724 195.572)"/>
</clipPath>
<clipPath id="clip1_7412_87032">
<rect width="112.324" height="50.776" fill="white" transform="translate(148.18 243.773)"/>
</clipPath>
</defs>
</svg>
