<svg width="110" height="82" viewBox="0 0 110 82" fill="none" xmlns="http://www.w3.org/2000/svg">
<path d="M47.422 63.3422C54.2143 65.029 60.7085 65.7877 66.8798 65.7606C62.9395 70.0961 56.3527 75.45 46.7717 77.0623C38.5726 78.4443 29.6712 75.6736 22.3392 69.4729C19.8124 67.33 12.1485 59.8422 11.1662 48.5743C14.0746 50.3379 17.3127 52.0473 21.0385 53.7183C28.646 57.128 37.7235 60.9396 47.422 63.3422Z" fill="#38B6FC"/>
<g opacity="0.2">
<path d="M47.422 63.3422C54.2143 65.029 60.7085 65.7877 66.8798 65.7606C62.9395 70.0961 56.3527 75.45 46.7717 77.0623C38.5726 78.4443 29.6712 75.6736 22.3392 69.4729C19.8124 67.33 12.1485 59.8422 11.1662 48.5743C14.0746 50.3379 17.3127 52.0473 21.0385 53.7183C28.646 57.128 37.7235 60.9396 47.422 63.3422Z" fill="#002C02"/>
</g>
<path d="M47.4217 63.3411C54.214 65.0279 60.7083 65.7866 66.8796 65.7595C62.9392 70.0951 56.3525 75.449 46.7714 77.0613C46.0805 77.1787 45.385 77.2532 44.685 77.3119C31.6152 75.7899 20.4106 65.5631 17.247 51.9107C18.4596 52.5182 19.7083 53.1211 21.0383 53.7172C28.6458 57.1269 37.7233 60.9385 47.4217 63.3411Z" fill="#38B6FC"/>
<path d="M51.5385 75.8879C56.7862 73.4876 61.5011 70.0237 65.166 65.7424C65.7395 65.7537 66.3108 65.7649 66.8798 65.7627C63.6327 69.3372 58.5792 73.596 51.5385 75.8879Z" fill="#FDDFB3"/>
<path d="M72.7283 56.823C51.7123 58.7311 29.9896 48.292 18.1911 42.5745L16.7707 41.9016C15.443 41.2829 13.5507 40.4045 11.882 39.4358C12.6272 36.419 13.8081 33.3796 15.522 30.3831C23.1069 17.1349 35.8538 14.502 42.7793 14.1114C51.2087 13.6326 59.8775 17.3517 65.9743 24.0537C73.8347 32.7609 76.6935 46.691 72.7283 56.823Z" fill="#38B6FC"/>
<g opacity="0.2">
<path d="M72.7283 56.823C51.7123 58.7311 29.9896 48.292 18.1911 42.5745L16.7707 41.9016C15.443 41.2829 13.5507 40.4045 11.882 39.4358C12.6272 36.419 13.8081 33.3796 15.522 30.3831C23.1069 17.1349 35.8538 14.502 42.7793 14.1114C51.2087 13.6326 59.8775 17.3517 65.9743 24.0537C73.8347 32.7609 76.6935 46.691 72.7283 56.823Z" fill="#002C02"/>
</g>
<path d="M41.6209 14.1994C42.0228 14.1633 42.4112 14.1362 42.7815 14.1136C51.211 13.6349 59.8797 17.354 65.9765 24.056C73.8347 32.7609 76.6934 46.6887 72.7282 56.8207C51.7123 58.7288 29.9895 48.2897 18.191 42.5722L16.8159 41.9219C18.7872 27.145 29.0682 18.7337 41.6209 14.1994Z" fill="#38B6FC"/>
<path d="M72.9992 44.7626C72.0282 27.9602 57.5426 16.5524 42.1086 14.1633C42.3345 14.1452 42.567 14.1272 42.7815 14.1136C51.211 13.6349 59.8797 17.354 65.9766 24.056C73.8347 32.7609 76.6934 46.6887 72.7283 56.8207C72.0282 56.8839 71.326 56.9314 70.6237 56.9698C72.1953 53.2168 73.0557 49.1161 72.9992 44.7626Z" fill="#FDDFB3"/>
<path d="M10.43 31.6003C8.4474 31.6612 6.39483 32.4742 5.53675 34.2445C5.0603 35.2268 5.00159 36.2993 5.37192 37.3358C5.54353 37.8281 5.80997 38.2977 6.14869 38.7494C8.04999 41.2716 12.2545 43.2317 15.4542 44.7265L16.8362 45.3791C29.1924 51.363 52.1865 62.5112 74.5618 59.8466C79.9857 59.2031 81.2209 56.9111 81.2999 55.1047C81.388 53.1379 79.9699 51.2817 78.4479 50.2114C78.4999 49.6988 78.518 49.184 78.5451 48.6646C80.7648 50.103 83.3819 52.7449 83.4857 55.5743C83.6506 59.9573 76.9689 61.845 75.167 62.1137C66.9431 63.3309 57.8588 62.7279 48.1648 60.3208C38.7102 57.9769 29.7908 54.2285 22.3166 50.873C16.2785 48.1656 11.4597 45.3994 7.58485 42.4097C2.36868 38.3994 2.92868 35.3577 3.40288 34.2422C4.47095 31.738 8.28486 30.3945 11.0871 30.2296C10.8568 30.6857 10.6423 31.1441 10.43 31.6003Z" fill="#FBD901"/>
<g opacity="0.2">
<path d="M10.43 31.6003C8.4474 31.6612 6.39483 32.4742 5.53675 34.2445C5.0603 35.2268 5.00159 36.2993 5.37192 37.3358C5.54353 37.8281 5.80997 38.2977 6.14869 38.7494C8.04999 41.2716 12.2545 43.2317 15.4542 44.7265L16.8362 45.3791C29.1924 51.363 52.1865 62.5112 74.5618 59.8466C79.9857 59.2031 81.2209 56.9111 81.2999 55.1047C81.388 53.1379 79.9699 51.2817 78.4479 50.2114C78.4999 49.6988 78.518 49.184 78.5451 48.6646C80.7648 50.103 83.3819 52.7449 83.4857 55.5743C83.6506 59.9573 76.9689 61.845 75.167 62.1137C66.9431 63.3309 57.8588 62.7279 48.1648 60.3208C38.7102 57.9769 29.7908 54.2285 22.3166 50.873C16.2785 48.1656 11.4597 45.3994 7.58485 42.4097C2.36868 38.3994 2.92868 35.3577 3.40288 34.2422C4.47095 31.738 8.28486 30.3945 11.0871 30.2296C10.8568 30.6857 10.6423 31.1441 10.43 31.6003Z" fill="#002C02"/>
</g>
<path d="M74.5595 59.8444C79.9834 59.2009 81.2186 56.9089 81.2977 55.1025C81.3857 53.1357 79.9676 51.2795 78.4457 50.2092C78.4976 49.6966 78.5157 49.1818 78.5428 48.6624C80.7625 50.1008 83.3796 52.7428 83.4835 55.5721C83.6483 59.9551 76.9667 61.8428 75.1647 62.1115C66.9408 63.3287 57.8565 62.7257 48.1626 60.3186C38.708 57.9747 29.7886 54.2263 22.3143 50.8708C21.7408 50.6134 21.2056 50.356 20.6569 50.0963C20.6704 49.1298 20.6862 48.1611 20.6659 47.2195C33.5912 53.3728 54.3294 62.2538 74.5595 59.8444Z" fill="#FBD901"/>
<g opacity="0.2">
<path d="M51.7869 47.3575C51.0327 48.1817 50.0482 48.7552 49.0659 49.2904C48.3998 49.654 47.7043 50.0107 46.9501 50.083C45.8459 50.1869 44.7846 49.6675 43.8385 49.0894C42.5378 48.2923 41.2529 47.2604 40.8013 45.8039C40.3429 44.3204 40.8781 42.6516 41.892 41.4752C42.9059 40.2987 44.3398 39.5558 45.8098 39.0545C46.6814 38.7587 47.605 38.5351 48.515 38.6684C52.3311 39.2261 54.3905 44.5168 51.7869 47.3575Z" fill="#002C02"/>
</g>
<g opacity="0.2">
<path d="M39.9835 29.1648C38.7777 30.0726 36.9689 30.181 35.7292 29.3206C34.4105 28.4061 34.0108 26.4009 34.8734 25.0483C35.0992 24.6961 35.395 24.389 35.7337 24.1428C37.4228 22.9235 40.4757 23.5151 41.0312 25.5225C41.1689 26.0283 42.0361 27.618 39.9835 29.1648Z" fill="#002C02"/>
</g>
<g opacity="0.2">
<path d="M62.5648 34.4729C57.5812 29.3448 63.6125 20.6986 68.9461 26.7074C73.4419 31.7745 68.1467 40.2197 62.5648 34.4729Z" fill="#002C02"/>
</g>
<path d="M68.9465 26.7081C70.8478 28.851 70.9946 31.5946 70.114 33.6156C68.5423 30.3571 66.4017 27.4375 63.85 24.9039C65.3426 24.3439 67.1807 24.721 68.9465 26.7081Z" fill="#C99D59"/>
<path d="M25.2386 36.8596C24.5092 39.147 22.2218 40.8925 19.8215 40.818C17.4234 40.7435 15.1856 38.7316 15.0208 36.3357C14.874 34.1906 16.3147 32.138 18.2295 31.1647C22.0863 29.2047 26.6115 32.5534 25.2386 36.8596Z" fill="#1670A4"/>
<g opacity="0.2">
<path d="M25.2387 36.8597C24.5093 39.1472 22.2219 40.8927 19.8215 40.8181C18.8596 40.7888 17.9338 40.4388 17.1479 39.8856C17.8141 36.4284 18.9589 33.3439 20.4922 30.5958C23.6129 30.5371 26.3451 33.3845 25.2387 36.8597Z" fill="#002C02"/>
</g>
<g opacity="0.2">
<path d="M20.4899 30.5958C18.9566 33.3461 17.8118 36.4307 17.1456 39.8855C15.9692 39.0591 15.1179 37.7697 15.0208 36.3358C14.874 34.1906 16.3147 32.138 18.2295 31.1648C18.9747 30.7854 19.7424 30.6093 20.4899 30.5958Z" fill="#002C02"/>
</g>
<g opacity="0.2">
<path d="M20.4899 30.5958C18.9566 33.3461 17.8118 36.4307 17.1456 39.8855C15.9692 39.0591 15.1179 37.7697 15.0208 36.3358C14.874 34.1906 16.3147 32.138 18.2295 31.1648C18.9747 30.7854 19.7424 30.6093 20.4899 30.5958Z" fill="#002C02"/>
</g>
<g opacity="0.2">
<path d="M48.0496 76.2841C48.8761 74.7667 50.4274 73.7641 52.0532 73.1815C52.9406 72.8631 53.9026 72.6508 54.8261 72.845C55.7497 73.0392 56.619 73.7189 56.7974 74.6447C56.89 75.1212 56.7748 75.5931 56.5671 76.0312C53.9026 77.3138 50.9128 78.348 47.5664 78.9599C47.4512 78.0499 47.6115 77.0903 48.0496 76.2841Z" fill="#002C02"/>
</g>
<path d="M56.7975 74.6424C56.8901 75.1188 56.7749 75.5908 56.5672 76.0289C53.9027 77.3114 50.9129 78.3456 47.5665 78.9576C47.5032 78.4585 47.5326 77.9437 47.6365 77.4469C50.5991 76.4375 53.442 75.0962 56.084 73.4659C56.443 73.773 56.7072 74.175 56.7975 74.6424Z" fill="#C99D59"/>
<path d="M26.3494 70.5041C27.9707 68.7496 30.5291 67.9209 32.8708 68.3883C33.3359 68.4809 33.7965 68.6231 34.2075 68.8602C35.8762 69.8177 36.3369 72.1638 35.6549 73.9613C34.9956 75.7 33.2862 76.811 31.4323 77.2129C29.3233 76.3887 27.291 75.359 25.3581 74.1419C25.2836 73.8212 25.1526 73.5435 25.1504 73.1709C25.1391 72.1706 25.672 71.238 26.3494 70.5041Z" fill="#1670A4"/>
<g opacity="0.2">
<path d="M31.4326 77.2138C29.3235 76.3896 27.2913 75.3599 25.3584 74.1428C25.2838 73.8222 25.1529 73.5444 25.1506 73.1719C25.1393 72.1738 25.6745 71.2389 26.3519 70.5073C26.72 70.1099 27.1422 69.7667 27.5916 69.4663C29.9242 71.5573 32.5323 73.3028 35.3368 74.626C34.5352 75.9854 33.0381 76.8661 31.4326 77.2138Z" fill="#002C02"/>
</g>
<g opacity="0.2">
<path d="M31.4326 77.2138C29.3235 76.3896 27.2913 75.3599 25.3584 74.1428C25.2838 73.8222 25.1529 73.5444 25.1506 73.1719C25.1393 72.1738 25.6745 71.2389 26.3519 70.5073C26.72 70.1099 27.1422 69.7667 27.5916 69.4663C29.9242 71.5573 32.5323 73.3028 35.3368 74.626C34.5352 75.9854 33.0381 76.8661 31.4326 77.2138Z" fill="#002C02"/>
</g>
<g opacity="0.2">
<path d="M34.2081 68.8617C35.8768 69.8191 36.3375 72.1653 35.6555 73.9627C35.5675 74.1953 35.4591 74.4143 35.3349 74.622C32.5304 73.2988 29.9223 71.5556 27.5897 69.4623C29.1252 68.4462 31.0604 68.0239 32.8713 68.3875C33.3365 68.4823 33.7971 68.6268 34.2081 68.8617Z" fill="#002C02"/>
</g>
<path d="M12.7331 27.1745C8.61661 26.75 2.34813 28.7868 0.54166 33.0229C-0.0431828 34.3981 -0.783814 37.5255 2.08621 41.3372C2.9375 42.4662 4.10266 43.6562 5.68332 44.8779C6.083 45.1872 6.5369 45.483 6.95465 45.7856C6.85303 53.0566 9.35952 60.3841 13.9728 66.508C15.628 68.7051 17.5473 70.7487 19.706 72.5778C27.9548 79.5552 38.062 82.6556 47.4398 81.0772C60.5728 78.8665 68.6906 70.4168 72.4164 65.4828C73.4845 65.3835 74.5774 65.3474 75.6207 65.1915C78.7549 64.7286 86.841 62.0754 86.5904 55.457C86.403 50.4982 81.7604 46.6482 78.5855 45.1579C78.2152 36.5862 74.8732 27.7864 68.9819 21.3193C62.0721 13.7163 52.193 9.50275 42.5488 10.0469C35.0203 10.476 21.3409 13.3167 12.7331 27.1745ZM72.7281 56.8231C51.7121 58.7312 29.9893 48.2921 18.1909 42.5746L16.7705 41.9017C15.4428 41.283 13.5505 40.4046 11.8818 39.4359C12.627 36.4191 13.8079 33.3797 15.5218 30.3832C23.1067 17.1351 35.8535 14.5021 42.7791 14.1115C51.2085 13.6328 59.8773 17.3518 65.9741 24.0538C73.8345 32.761 76.6932 46.6911 72.7281 56.8231ZM8.49919 36.6291C8.43822 36.5184 8.3411 36.4033 8.30497 36.2949C8.21239 36.042 8.22592 35.8388 8.33882 35.6017C8.44721 35.3759 8.68884 35.2042 8.97562 35.062C8.79045 35.5813 8.65726 36.1052 8.49919 36.6291ZM11.1682 48.5721C14.0766 50.3356 17.3147 52.045 21.0405 53.716C28.6458 57.1257 37.7233 60.9373 47.4217 63.3422C54.214 65.029 60.7083 65.7877 66.8796 65.7606C62.9392 70.0961 56.3525 75.45 46.7714 77.0623C38.5723 78.4442 29.6709 75.6736 22.3389 69.4729C19.8144 67.3277 12.1505 59.8422 11.1682 48.5721ZM11.0892 30.2319C10.8566 30.6881 10.6421 31.1442 10.4298 31.6003C8.44721 31.6613 6.39463 32.4742 5.53656 34.2446C5.06011 35.2268 5.0014 36.2994 5.37173 37.3359C5.54334 37.8281 5.80978 38.2978 6.14849 38.7494C8.0498 41.2717 12.2543 43.2317 15.454 44.7266L16.836 45.3792C29.1922 51.3631 52.1863 62.5112 74.5616 59.8467C79.9855 59.2031 81.2207 56.9112 81.2997 55.1047C81.3878 53.1379 79.9697 51.2818 78.4477 50.2114C78.4997 49.6989 78.5178 49.184 78.5449 48.6647C80.7646 50.1031 83.3817 52.745 83.4855 55.5744C83.6504 59.9573 76.9687 61.8451 75.1668 62.1138C66.9429 63.3309 57.8586 62.728 48.1646 60.3209C38.71 57.977 29.7906 54.2286 22.3164 50.8731C16.2783 48.1656 11.4595 45.3995 7.58466 42.4098C2.36849 38.3994 2.92849 35.3578 3.40269 34.2423C4.47302 31.7381 8.28693 30.3945 11.0892 30.2319ZM78.1903 54.9647C78.1745 55.3102 77.8291 55.6286 77.3007 55.9131C77.4903 55.2673 77.6981 54.6373 77.8471 53.9757C78.0526 54.3121 78.2061 54.6531 78.1903 54.9647Z" fill="#002C02"/>
<path d="M92 0C92 16.0869 92.069 20.731 110 20.731C91.931 20.731 92 24.7027 92 42C92 24.7027 91.931 20.731 74 20.731C92.069 20.731 92 16.0869 92 0Z" fill="white"/>
</svg>
