<svg width="1920" height="185" viewBox="0 0 1920 185" fill="none" xmlns="http://www.w3.org/2000/svg">
<path fill-rule="evenodd" clip-rule="evenodd" d="M1920 0.80399V185H0V0.803989C6.00283 0.272712 12.1024 0 18.2812 0C38.0536 0 57.015 2.79262 74.5891 7.91423C105.665 16.9706 140.169 16.9706 171.244 7.91423C188.818 2.79262 207.78 0 227.552 0C247.324 0 266.286 2.79262 283.86 7.91423C314.935 16.9706 349.44 16.9706 380.515 7.91424C398.089 2.79262 417.051 0 436.823 0C456.595 0 475.557 2.79261 493.131 7.91422C524.206 16.9705 558.71 16.9705 589.786 7.91422C607.36 2.79261 626.321 0 646.094 0C665.866 0 684.827 2.79261 702.402 7.91422C733.477 16.9705 767.981 16.9705 799.057 7.91421C816.631 2.79261 835.592 0 855.365 0C875.137 0 894.098 2.79263 911.672 7.91426C942.748 16.9706 977.252 16.9706 1008.33 7.91425C1025.9 2.79262 1044.86 0 1064.64 0C1084.41 0 1103.37 2.79263 1120.94 7.91426C1152.02 16.9706 1186.52 16.9706 1217.6 7.91424C1235.17 2.79262 1254.13 0 1273.91 0C1293.68 0 1312.64 2.79263 1330.21 7.91426C1361.29 16.9706 1395.79 16.9706 1426.87 7.91424C1444.44 2.79262 1463.4 0 1483.18 0C1502.95 0 1521.91 2.79262 1539.48 7.91425C1570.56 16.9706 1605.06 16.9706 1636.14 7.91425C1653.71 2.79262 1672.68 0 1692.45 0C1712.22 0 1731.18 2.79263 1748.76 7.91426C1779.83 16.9706 1814.34 16.9706 1845.41 7.91425C1862.98 2.79262 1881.95 0 1901.72 0C1907.9 0 1914 0.272713 1920 0.80399Z" fill="#F2D45B"/>
</svg>
