<svg width="99" height="37" viewBox="0 0 99 37" fill="none" xmlns="http://www.w3.org/2000/svg">
<rect x="0.5" y="0.5" width="98" height="36" rx="18" fill="white" stroke="#333333"/>
<path d="M38.5703 15.8906C38.5703 16.0521 38.5625 16.2083 38.5469 16.3594C38.5312 16.5104 38.5026 16.6615 38.4609 16.8125C38.3151 16.9115 38.1562 16.9818 37.9844 17.0234C37.8177 17.0651 37.6458 17.0859 37.4688 17.0859C37.4271 17.0859 37.3854 17.0833 37.3438 17.0781C37.3073 17.0729 37.2682 17.0703 37.2266 17.0703C37.1901 16.987 37.1536 16.9349 37.1172 16.9141C37.0807 16.888 37.0469 16.8646 37.0156 16.8438C36.9896 16.8229 36.9661 16.7891 36.9453 16.7422C36.9297 16.6953 36.9219 16.6068 36.9219 16.4766C36.9219 16.3984 36.9062 16.3464 36.875 16.3203C36.8438 16.2943 36.8229 16.2526 36.8125 16.1953C36.7812 16.0078 36.7682 15.8672 36.7734 15.7734C36.7839 15.6745 36.7891 15.5833 36.7891 15.5C36.7943 15.4167 36.7812 15.3229 36.75 15.2188C36.724 15.1094 36.6589 14.9531 36.5547 14.75C36.5391 14.7188 36.5234 14.6745 36.5078 14.6172C36.4922 14.5547 36.4714 14.513 36.4453 14.4922C36.4193 14.4661 36.3802 14.4401 36.3281 14.4141C36.276 14.3828 36.2188 14.3542 36.1562 14.3281C36.0938 14.2969 36.0339 14.2708 35.9766 14.25C35.9193 14.224 35.8724 14.2005 35.8359 14.1797C35.7943 14.1589 35.7448 14.1328 35.6875 14.1016C35.6354 14.0651 35.5781 14.0312 35.5156 14C35.4531 13.9635 35.3932 13.9349 35.3359 13.9141C35.2786 13.888 35.2266 13.875 35.1797 13.875C35.1224 13.875 35.0677 13.8828 35.0156 13.8984C34.9635 13.9141 34.9062 13.9219 34.8438 13.9219C34.7865 13.9219 34.7292 13.9141 34.6719 13.8984C34.6198 13.8828 34.5651 13.875 34.5078 13.875C34.4401 13.875 34.349 13.8932 34.2344 13.9297C34.125 13.9661 34.0052 14.0156 33.875 14.0781C33.75 14.1354 33.6198 14.2031 33.4844 14.2812C33.3542 14.3542 33.2292 14.4323 33.1094 14.5156C32.9948 14.5938 32.8932 14.6719 32.8047 14.75C32.7214 14.8281 32.6641 14.8984 32.6328 14.9609C32.5807 15.0599 32.5443 15.1641 32.5234 15.2734C32.5078 15.3828 32.4922 15.4922 32.4766 15.6016C32.4661 15.7109 32.4505 15.8203 32.4297 15.9297C32.4089 16.0391 32.3698 16.1432 32.3125 16.2422C32.3646 16.3099 32.401 16.3854 32.4219 16.4688C32.4427 16.5469 32.4609 16.625 32.4766 16.7031C32.4922 16.7812 32.5078 16.8568 32.5234 16.9297C32.5443 17.0026 32.5807 17.0651 32.6328 17.1172C32.6745 17.1641 32.7214 17.2057 32.7734 17.2422C32.8307 17.2786 32.8828 17.3177 32.9297 17.3594C32.9766 17.3958 33.0156 17.4401 33.0469 17.4922C33.0833 17.5443 33.1016 17.612 33.1016 17.6953C33.1589 17.6901 33.2292 17.7005 33.3125 17.7266C33.3958 17.7474 33.4792 17.776 33.5625 17.8125C33.651 17.8438 33.737 17.8776 33.8203 17.9141C33.9036 17.9505 33.974 17.9792 34.0312 18C34.0781 18.0156 34.1198 18.0417 34.1562 18.0781C34.1927 18.1146 34.2344 18.1406 34.2812 18.1562C34.401 18.1927 34.5208 18.2057 34.6406 18.1953C34.7656 18.1797 34.888 18.1849 35.0078 18.2109C35.1016 18.2318 35.1771 18.2578 35.2344 18.2891C35.2969 18.3151 35.3542 18.3411 35.4062 18.3672C35.4635 18.3932 35.526 18.4167 35.5938 18.4375C35.6615 18.4531 35.7526 18.4609 35.8672 18.4609C35.9089 18.4609 35.9531 18.474 36 18.5C36.0469 18.526 36.0964 18.5521 36.1484 18.5781C36.2005 18.6042 36.2552 18.6302 36.3125 18.6562C36.375 18.6771 36.4401 18.6823 36.5078 18.6719C36.5859 18.75 36.6562 18.8385 36.7188 18.9375C36.7812 19.0312 36.8411 19.1276 36.8984 19.2266C36.9609 19.3203 37.026 19.4141 37.0938 19.5078C37.1615 19.5964 37.2396 19.6797 37.3281 19.7578C37.3281 19.7839 37.3229 19.8073 37.3125 19.8281C37.3073 19.8438 37.3047 19.8646 37.3047 19.8906C37.3047 20 37.3307 20.0859 37.3828 20.1484C37.4401 20.2057 37.4896 20.2786 37.5312 20.3672C37.5208 20.4141 37.5156 20.4583 37.5156 20.5C37.5156 20.5417 37.5156 20.5833 37.5156 20.625C37.5156 20.8073 37.5365 20.9922 37.5781 21.1797C37.6198 21.362 37.6406 21.5443 37.6406 21.7266C37.6406 21.9089 37.6302 22.0625 37.6094 22.1875C37.5885 22.3073 37.5573 22.4219 37.5156 22.5312C37.474 22.6354 37.4193 22.7396 37.3516 22.8438C37.2891 22.9479 37.2109 23.0729 37.1172 23.2188C37.0495 23.3125 36.9922 23.4167 36.9453 23.5312C36.9036 23.6458 36.8438 23.7422 36.7656 23.8203H36.6484V23.9375C36.6068 23.9688 36.5573 23.9948 36.5 24.0156C36.4479 24.0365 36.3984 24.0625 36.3516 24.0938C36.1797 24.2083 36.0495 24.2943 35.9609 24.3516C35.8724 24.4141 35.7865 24.4609 35.7031 24.4922C35.625 24.5234 35.5312 24.5443 35.4219 24.5547C35.3177 24.5703 35.1615 24.5885 34.9531 24.6094C34.8333 24.6198 34.7161 24.638 34.6016 24.6641C34.4922 24.6901 34.3802 24.7031 34.2656 24.7031C34.1562 24.7031 34.0677 24.6849 34 24.6484C33.9375 24.6172 33.862 24.5885 33.7734 24.5625C33.7109 24.5469 33.6484 24.5365 33.5859 24.5312C33.5234 24.526 33.4609 24.5208 33.3984 24.5156C33.3359 24.5104 33.276 24.5026 33.2188 24.4922C33.1615 24.487 33.1068 24.4714 33.0547 24.4453C32.9974 24.4193 32.9479 24.3854 32.9062 24.3438C32.8698 24.3073 32.8281 24.2734 32.7812 24.2422C32.7656 24.2318 32.7422 24.2188 32.7109 24.2031C32.6849 24.1927 32.6589 24.1797 32.6328 24.1641C32.612 24.1484 32.5938 24.1302 32.5781 24.1094C32.5677 24.0885 32.5703 24.0625 32.5859 24.0312C32.4036 24 32.2552 23.9375 32.1406 23.8438C32.026 23.7448 31.9219 23.6354 31.8281 23.5156C31.7396 23.3906 31.651 23.2656 31.5625 23.1406C31.4792 23.0104 31.3724 22.8958 31.2422 22.7969C31.2422 22.7708 31.2448 22.75 31.25 22.7344C31.2552 22.7188 31.2578 22.6979 31.2578 22.6719C31.2578 22.6042 31.2448 22.5365 31.2188 22.4688C31.1979 22.401 31.1745 22.3359 31.1484 22.2734C31.1224 22.2109 31.0964 22.1484 31.0703 22.0859C31.0495 22.0234 31.0391 21.9635 31.0391 21.9062C31.0391 21.8229 31.0625 21.737 31.1094 21.6484C31.1615 21.5547 31.224 21.4714 31.2969 21.3984C31.375 21.3203 31.4583 21.2578 31.5469 21.2109C31.6406 21.1589 31.7266 21.1328 31.8047 21.1328C31.8932 21.1328 31.9766 21.1484 32.0547 21.1797C32.1328 21.2109 32.2083 21.25 32.2812 21.2969C32.3542 21.3438 32.4245 21.3958 32.4922 21.4531C32.5599 21.5104 32.625 21.5651 32.6875 21.6172C32.7083 21.7005 32.7422 21.7786 32.7891 21.8516C32.8359 21.9245 32.8828 21.9974 32.9297 22.0703C32.9766 22.1432 33.0208 22.2188 33.0625 22.2969C33.1042 22.3698 33.1328 22.4531 33.1484 22.5469C33.2266 22.5729 33.2995 22.612 33.3672 22.6641C33.4401 22.7161 33.5104 22.7682 33.5781 22.8203C33.651 22.8724 33.724 22.9167 33.7969 22.9531C33.8698 22.9896 33.9531 23.0078 34.0469 23.0078C34.0521 23.0078 34.1042 22.9974 34.2031 22.9766C34.3021 22.9557 34.4089 22.9323 34.5234 22.9062C34.6432 22.8802 34.7526 22.8568 34.8516 22.8359C34.9505 22.8151 35.0026 22.8021 35.0078 22.7969C35.0391 22.7812 35.0651 22.7578 35.0859 22.7266C35.1068 22.6953 35.1328 22.6667 35.1641 22.6406C35.2057 22.6146 35.2474 22.6068 35.2891 22.6172C35.3359 22.6276 35.3802 22.6198 35.4219 22.5938C35.4844 22.5625 35.5391 22.5156 35.5859 22.4531C35.638 22.3854 35.7057 22.3464 35.7891 22.3359C35.7891 22.2786 35.7865 22.2214 35.7812 22.1641C35.776 22.1016 35.7734 22.0417 35.7734 21.9844C35.7734 21.9688 35.7734 21.9505 35.7734 21.9297C35.7734 21.9089 35.7786 21.8906 35.7891 21.875L35.8828 21.7578V21.6484C35.8828 21.6016 35.8984 21.5651 35.9297 21.5391C35.9609 21.5078 35.9766 21.4635 35.9766 21.4062C35.9766 21.3854 35.9714 21.349 35.9609 21.2969C35.9505 21.2448 35.9375 21.1927 35.9219 21.1406C35.9062 21.0885 35.8906 21.0391 35.875 20.9922C35.8594 20.9453 35.8464 20.9141 35.8359 20.8984L35.7266 20.8281C35.7109 20.7969 35.7057 20.7656 35.7109 20.7344C35.7161 20.6979 35.7057 20.6667 35.6797 20.6406L35.5781 20.5781C35.5469 20.5365 35.5234 20.4948 35.5078 20.4531C35.4922 20.4062 35.4635 20.362 35.4219 20.3203C35.3646 20.2682 35.2786 20.2188 35.1641 20.1719C35.0547 20.1198 34.9349 20.0755 34.8047 20.0391C34.6797 19.9974 34.5573 19.9661 34.4375 19.9453C34.3177 19.9193 34.2188 19.9062 34.1406 19.9062C34.0833 19.9062 34.026 19.9115 33.9688 19.9219C33.9167 19.9271 33.8672 19.9427 33.8203 19.9688C33.7578 19.9531 33.7109 19.9349 33.6797 19.9141C33.6536 19.8932 33.6302 19.8724 33.6094 19.8516C33.5885 19.8307 33.5677 19.8099 33.5469 19.7891C33.526 19.7682 33.4896 19.75 33.4375 19.7344C33.3906 19.7188 33.3229 19.7057 33.2344 19.6953C33.1458 19.6849 33.026 19.6797 32.875 19.6797C32.724 19.6797 32.5703 19.6302 32.4141 19.5312C32.2578 19.4323 32.1042 19.3151 31.9531 19.1797C31.8073 19.0391 31.6719 18.8958 31.5469 18.75C31.4219 18.599 31.3203 18.4714 31.2422 18.3672C31.2266 18.3411 31.2188 18.3073 31.2188 18.2656C31.2188 18.2188 31.2057 18.1823 31.1797 18.1562L31.0859 18.1094C31.0703 18.0625 31.0547 18.0208 31.0391 17.9844C31.0286 17.9479 30.9896 17.9219 30.9219 17.9062V17.8594C30.9219 17.7448 30.9036 17.6354 30.8672 17.5312C30.8307 17.4271 30.7812 17.3281 30.7188 17.2344C30.7292 17.1927 30.7344 17.1562 30.7344 17.125C30.7344 17.0885 30.7344 17.0495 30.7344 17.0078C30.7344 16.8151 30.7135 16.625 30.6719 16.4375C30.6354 16.2448 30.6172 16.0521 30.6172 15.8594C30.6172 15.8073 30.6302 15.7604 30.6562 15.7188C30.6875 15.6771 30.7083 15.6276 30.7188 15.5703C30.7604 15.4349 30.7917 15.2943 30.8125 15.1484C30.8385 14.9974 30.8594 14.849 30.875 14.7031C30.974 14.625 31.0521 14.5521 31.1094 14.4844C31.1719 14.4167 31.1953 14.3151 31.1797 14.1797C31.2422 14.1432 31.2995 14.1042 31.3516 14.0625C31.4036 14.0156 31.4531 13.9688 31.5 13.9219C31.5052 13.8646 31.5208 13.8125 31.5469 13.7656C31.5781 13.7188 31.6068 13.6719 31.6328 13.625C31.6641 13.5781 31.6901 13.5312 31.7109 13.4844C31.737 13.4323 31.7526 13.375 31.7578 13.3125C31.8307 13.2552 31.9062 13.2005 31.9844 13.1484C32.0625 13.0911 32.125 13.0234 32.1719 12.9453C32.1927 12.9453 32.25 12.9193 32.3438 12.8672C32.4427 12.8151 32.5521 12.7578 32.6719 12.6953C32.7917 12.6276 32.9062 12.5651 33.0156 12.5078C33.125 12.4453 33.2005 12.4036 33.2422 12.3828C33.3203 12.3464 33.4167 12.3203 33.5312 12.3047C33.6458 12.2839 33.7604 12.263 33.875 12.2422C33.9896 12.2214 34.0964 12.1979 34.1953 12.1719C34.2995 12.1458 34.3828 12.1094 34.4453 12.0625C34.6068 12.099 34.7943 12.125 35.0078 12.1406C35.2266 12.1562 35.4427 12.1797 35.6562 12.2109C35.8698 12.2422 36.0703 12.2943 36.2578 12.3672C36.4505 12.4349 36.6042 12.5417 36.7188 12.6875C36.8333 12.6927 36.9323 12.7161 37.0156 12.7578C37.099 12.7943 37.1771 12.8385 37.25 12.8906C37.3281 12.9427 37.4036 12.9948 37.4766 13.0469C37.5547 13.0938 37.6432 13.1276 37.7422 13.1484C37.7422 13.2109 37.7578 13.2656 37.7891 13.3125L37.8984 13.3594C37.9297 13.4115 37.9557 13.4688 37.9766 13.5312C38.0026 13.5885 38.0234 13.6458 38.0391 13.7031C38.0599 13.7604 38.0807 13.8177 38.1016 13.875C38.1276 13.9323 38.1615 13.9844 38.2031 14.0312C38.2292 14.0573 38.2578 14.0807 38.2891 14.1016C38.3255 14.1172 38.3516 14.1432 38.3672 14.1797C38.3776 14.2109 38.3776 14.2422 38.3672 14.2734C38.3568 14.2995 38.3516 14.3255 38.3516 14.3516L38.3672 14.3828L38.4609 14.4922C38.4818 14.5703 38.4974 14.6719 38.5078 14.7969C38.5234 14.9167 38.5339 15.0443 38.5391 15.1797C38.5495 15.3151 38.5573 15.4479 38.5625 15.5781C38.5677 15.7031 38.5703 15.8073 38.5703 15.8906ZM46.1719 15.7422C46.1719 15.8568 46.138 15.9583 46.0703 16.0469C46.0078 16.1302 45.9557 16.2214 45.9141 16.3203C45.8203 16.3359 45.737 16.3646 45.6641 16.4062C45.5964 16.4427 45.526 16.4844 45.4531 16.5312C45.3854 16.5729 45.3099 16.6094 45.2266 16.6406C45.1432 16.6719 45.0469 16.6875 44.9375 16.6875C44.8333 16.6875 44.7318 16.6771 44.6328 16.6562C44.5391 16.6354 44.4427 16.625 44.3438 16.625C44.2135 16.625 44.0885 16.651 43.9688 16.7031C43.8542 16.7552 43.7292 16.7812 43.5938 16.7812C43.4635 16.7812 43.3307 16.7682 43.1953 16.7422C43.0651 16.7161 42.9375 16.7031 42.8125 16.7031C42.7708 16.7031 42.7318 16.7057 42.6953 16.7109C42.6641 16.7161 42.6328 16.7188 42.6016 16.7188C42.5547 16.8177 42.5339 16.9193 42.5391 17.0234C42.5495 17.1276 42.5547 17.2292 42.5547 17.3281C42.5547 17.5052 42.5365 17.6823 42.5 17.8594C42.4688 18.0365 42.4531 18.2161 42.4531 18.3984C42.4531 18.5443 42.4688 18.6875 42.5 18.8281C42.5365 18.9635 42.5547 19.1042 42.5547 19.25C42.5547 19.3281 42.5443 19.401 42.5234 19.4688C42.5026 19.5312 42.4766 19.5938 42.4453 19.6562C42.4193 19.7188 42.3958 19.7812 42.375 19.8438C42.3542 19.9062 42.3438 19.974 42.3438 20.0469C42.3438 20.0938 42.3516 20.1432 42.3672 20.1953C42.3828 20.2422 42.3906 20.2891 42.3906 20.3359L42.3438 20.3828C42.3438 20.4036 42.349 20.4219 42.3594 20.4375C42.3698 20.4479 42.3828 20.4635 42.3984 20.4844C42.4141 20.5 42.4271 20.5208 42.4375 20.5469C42.4479 20.5729 42.4531 20.6094 42.4531 20.6562C42.4531 20.7917 42.4427 20.9271 42.4219 21.0625C42.401 21.1979 42.3906 21.3333 42.3906 21.4688C42.3906 21.4948 42.3958 21.5521 42.4062 21.6406C42.4167 21.724 42.4297 21.8229 42.4453 21.9375C42.4661 22.0521 42.4844 22.1719 42.5 22.2969C42.5208 22.4219 42.5417 22.5391 42.5625 22.6484C42.5833 22.7578 42.6016 22.8516 42.6172 22.9297C42.638 23.0078 42.6536 23.0547 42.6641 23.0703C42.7057 23.1276 42.7552 23.1745 42.8125 23.2109C42.8698 23.2422 42.9219 23.2812 42.9688 23.3281C42.9896 23.3385 43.0208 23.3438 43.0625 23.3438C43.1198 23.3438 43.1719 23.3359 43.2188 23.3203C43.2708 23.3047 43.3255 23.2917 43.3828 23.2812C43.4401 23.2656 43.4974 23.2578 43.5547 23.2578C43.6172 23.2578 43.6771 23.25 43.7344 23.2344C43.7969 23.2083 43.8516 23.1745 43.8984 23.1328C43.9453 23.0911 43.9896 23.0521 44.0312 23.0156C44.0781 22.974 44.1276 22.9401 44.1797 22.9141C44.2318 22.8828 44.2917 22.8672 44.3594 22.8672C44.4479 22.7057 44.5443 22.5521 44.6484 22.4062C44.7578 22.2604 44.849 22.1042 44.9219 21.9375C44.9427 21.9479 44.9635 21.9531 44.9844 21.9531C45.026 21.9531 45.0599 21.9427 45.0859 21.9219C45.1172 21.901 45.1536 21.8906 45.1953 21.8906C45.2005 21.8906 45.2266 21.8984 45.2734 21.9141C45.3203 21.9245 45.3698 21.9401 45.4219 21.9609C45.474 21.9766 45.5234 21.9948 45.5703 22.0156C45.6172 22.0312 45.6458 22.0417 45.6562 22.0469C45.6875 22.0729 45.7109 22.1198 45.7266 22.1875C45.7474 22.2552 45.7708 22.3099 45.7969 22.3516C45.8229 22.3932 45.8464 22.4245 45.8672 22.4453C45.888 22.4661 45.9036 22.4896 45.9141 22.5156C45.9297 22.5365 45.9401 22.5625 45.9453 22.5938C45.9557 22.625 45.9609 22.6719 45.9609 22.7344C45.9609 22.8958 45.9271 23.0495 45.8594 23.1953C45.7969 23.3359 45.7448 23.4818 45.7031 23.6328C45.6354 23.6589 45.5807 23.6979 45.5391 23.75C45.4974 23.7969 45.4557 23.8464 45.4141 23.8984C45.3776 23.9505 45.3333 23.9974 45.2812 24.0391C45.2344 24.0807 45.1667 24.1042 45.0781 24.1094C45.0365 24.2292 44.9688 24.3307 44.875 24.4141C44.7812 24.4974 44.6797 24.5677 44.5703 24.625C44.5391 24.6562 44.4948 24.6719 44.4375 24.6719C44.4062 24.6719 44.3698 24.6641 44.3281 24.6484C44.2917 24.6328 44.2656 24.6094 44.25 24.5781C44.1823 24.6042 44.1328 24.6302 44.1016 24.6562C44.0755 24.6875 44.0521 24.7188 44.0312 24.75C44.0104 24.7865 43.987 24.8203 43.9609 24.8516C43.9401 24.8828 43.9036 24.9115 43.8516 24.9375C43.8047 24.9635 43.7344 24.9844 43.6406 25C43.5521 25.0156 43.4297 25.0234 43.2734 25.0234C43.2005 25.0234 43.1276 25.026 43.0547 25.0312C42.987 25.0417 42.9219 25.0599 42.8594 25.0859C42.7396 25.0026 42.5911 24.9505 42.4141 24.9297C42.237 24.9141 42.0755 24.8984 41.9297 24.8828C41.9401 24.8307 41.9245 24.8047 41.8828 24.8047C41.8411 24.8047 41.8073 24.7917 41.7812 24.7656C41.724 24.7344 41.6771 24.6875 41.6406 24.625C41.6042 24.5677 41.5443 24.5312 41.4609 24.5156C41.4557 24.4531 41.4349 24.3932 41.3984 24.3359C41.362 24.2839 41.3203 24.2318 41.2734 24.1797C41.2318 24.1276 41.1901 24.0729 41.1484 24.0156C41.1068 23.9635 41.0781 23.9062 41.0625 23.8438C41.0156 23.6927 40.9583 23.5417 40.8906 23.3906C40.8281 23.2344 40.7786 23.0755 40.7422 22.9141C40.7266 22.8411 40.7109 22.7474 40.6953 22.6328C40.6849 22.513 40.6745 22.388 40.6641 22.2578C40.6589 22.1276 40.6536 22.0026 40.6484 21.8828C40.6484 21.763 40.6484 21.6641 40.6484 21.5859C40.6484 21.4557 40.6641 21.3333 40.6953 21.2188C40.7266 21.099 40.7422 20.9766 40.7422 20.8516C40.7422 20.6849 40.7292 20.5208 40.7031 20.3594C40.6771 20.1979 40.6589 20.0365 40.6484 19.875C40.638 19.7865 40.638 19.6979 40.6484 19.6094C40.6589 19.5208 40.6641 19.4323 40.6641 19.3438C40.6641 19.2083 40.6432 19.0911 40.6016 18.9922C40.6328 18.9714 40.6589 18.9401 40.6797 18.8984C40.7057 18.8568 40.7266 18.8125 40.7422 18.7656C40.7578 18.7135 40.7682 18.6615 40.7734 18.6094C40.7839 18.5573 40.7891 18.513 40.7891 18.4766L40.7422 18.4297C40.7526 18.3516 40.7604 18.2734 40.7656 18.1953C40.7708 18.112 40.7734 18.0312 40.7734 17.9531C40.7734 17.8698 40.763 17.7917 40.7422 17.7188C40.7266 17.6406 40.6953 17.5703 40.6484 17.5078C40.638 17.4245 40.6458 17.3464 40.6719 17.2734C40.6979 17.2005 40.7109 17.1276 40.7109 17.0547L40.6953 16.9297C40.5755 16.9141 40.4505 16.9115 40.3203 16.9219C40.1901 16.9271 40.0651 16.9297 39.9453 16.9297C39.862 16.9297 39.7786 16.9297 39.6953 16.9297C39.612 16.9245 39.5339 16.9089 39.4609 16.8828C39.3828 16.7682 39.3021 16.6562 39.2188 16.5469C39.1354 16.4323 39.0938 16.3021 39.0938 16.1562C39.0938 15.9896 39.1354 15.8438 39.2188 15.7188C39.3021 15.5938 39.3828 15.4635 39.4609 15.3281C39.5234 15.3229 39.5859 15.3073 39.6484 15.2812C39.7109 15.2552 39.7708 15.2266 39.8281 15.1953C39.8906 15.1641 39.9505 15.1354 40.0078 15.1094C40.0651 15.0833 40.125 15.0703 40.1875 15.0703C40.2969 15.0703 40.401 15.099 40.5 15.1562C40.599 15.2083 40.7083 15.2344 40.8281 15.2344H40.9062C40.9323 15.1771 40.9557 15.1172 40.9766 15.0547C41.0026 14.9922 41.0104 14.9297 41 14.8672C40.974 14.8464 40.9505 14.8255 40.9297 14.8047C40.9141 14.7786 40.9062 14.75 40.9062 14.7188C40.9062 14.6927 40.9141 14.6719 40.9297 14.6562C40.9453 14.6354 40.9531 14.6042 40.9531 14.5625C40.9531 14.4427 40.9375 14.3229 40.9062 14.2031C40.875 14.0781 40.8594 13.9505 40.8594 13.8203C40.8594 13.7161 40.875 13.5885 40.9062 13.4375C40.9427 13.2865 40.987 13.1354 41.0391 12.9844C41.0964 12.8281 41.1615 12.6823 41.2344 12.5469C41.3073 12.4115 41.3828 12.3099 41.4609 12.2422C41.5286 12.2318 41.5938 12.2266 41.6562 12.2266C41.7188 12.2266 41.7839 12.2266 41.8516 12.2266C42.0078 12.2266 42.1406 12.2604 42.25 12.3281C42.3594 12.3958 42.4479 12.4844 42.5156 12.5938C42.5833 12.7031 42.6328 12.8281 42.6641 12.9688C42.6953 13.1042 42.7109 13.2396 42.7109 13.375C42.7109 13.4635 42.6875 13.5729 42.6406 13.7031C42.5938 13.8333 42.5703 13.974 42.5703 14.125C42.5703 14.2448 42.5755 14.3698 42.5859 14.5C42.5964 14.625 42.6016 14.7474 42.6016 14.8672C42.6276 14.8672 42.6536 14.8646 42.6797 14.8594C42.7057 14.8542 42.7318 14.8516 42.7578 14.8516C42.862 14.8516 42.9609 14.8698 43.0547 14.9062C43.1484 14.9427 43.2474 14.9609 43.3516 14.9609C43.4245 14.9609 43.4844 14.9453 43.5312 14.9141C43.5729 14.9141 43.6068 14.9245 43.6328 14.9453C43.6589 14.9609 43.6797 14.9818 43.6953 15.0078C43.7161 15.0286 43.737 15.0521 43.7578 15.0781C43.7839 15.099 43.8151 15.112 43.8516 15.1172C43.9297 15.0859 44.0026 15.0443 44.0703 14.9922C44.1432 14.9401 44.224 14.8984 44.3125 14.8672H45.6562C45.6979 14.8984 45.7344 14.9323 45.7656 14.9688C45.7969 15.0052 45.8464 15.0234 45.9141 15.0234C45.9193 15.0859 45.9349 15.1458 45.9609 15.2031C45.9922 15.2604 46.0234 15.3177 46.0547 15.375C46.0859 15.4323 46.112 15.4922 46.1328 15.5547C46.1589 15.612 46.1719 15.6745 46.1719 15.7422ZM53.8828 21.9375V22C53.888 22.1458 53.8646 22.2656 53.8125 22.3594C53.7656 22.4531 53.7031 22.5339 53.625 22.6016C53.5469 22.6693 53.4583 22.7318 53.3594 22.7891C53.2604 22.8464 53.1615 22.9089 53.0625 22.9766V23.0391C53.0625 23.1276 53.0469 23.2135 53.0156 23.2969C52.9896 23.375 52.9688 23.4557 52.9531 23.5391H52.9219C52.8438 23.5286 52.7734 23.5417 52.7109 23.5781C52.6536 23.6146 52.5964 23.6328 52.5391 23.6328C52.4922 23.6328 52.4427 23.6172 52.3906 23.5859C52.3385 23.5964 52.3047 23.6146 52.2891 23.6406C52.2734 23.6667 52.2578 23.6953 52.2422 23.7266C52.2266 23.7578 52.2031 23.7865 52.1719 23.8125C52.1406 23.8333 52.0859 23.8438 52.0078 23.8438C51.9818 23.8438 51.9505 23.8594 51.9141 23.8906C51.8828 23.9167 51.8464 23.9479 51.8047 23.9844C51.7682 24.0208 51.7318 24.0547 51.6953 24.0859C51.6589 24.1224 51.6302 24.1458 51.6094 24.1562C51.5833 24.1719 51.5495 24.1797 51.5078 24.1797C51.4661 24.1849 51.4193 24.1875 51.3672 24.1875C51.3203 24.1927 51.2734 24.1953 51.2266 24.1953C51.1797 24.2005 51.138 24.2057 51.1016 24.2109C51.0599 24.2214 51.0208 24.2422 50.9844 24.2734C50.9531 24.3047 50.9219 24.3203 50.8906 24.3203C50.849 24.3203 50.8099 24.3099 50.7734 24.2891C50.7422 24.2682 50.7057 24.2578 50.6641 24.2578C50.6276 24.2578 50.5833 24.2682 50.5312 24.2891C50.4792 24.3099 50.4219 24.3333 50.3594 24.3594C50.2969 24.3854 50.2292 24.4089 50.1562 24.4297C50.0833 24.4505 50.0078 24.4609 49.9297 24.4609C49.8255 24.4609 49.7344 24.4453 49.6562 24.4141C49.651 24.4141 49.6198 24.3958 49.5625 24.3594C49.5104 24.3281 49.4427 24.2865 49.3594 24.2344C49.2812 24.1823 49.1953 24.125 49.1016 24.0625C49.0078 24.0052 48.9193 23.9505 48.8359 23.8984C48.7526 23.8411 48.6823 23.7943 48.625 23.7578C48.5677 23.7214 48.5339 23.7005 48.5234 23.6953L48.4766 23.5859C48.4036 23.5547 48.3385 23.5156 48.2812 23.4688C48.2292 23.4219 48.1875 23.3594 48.1562 23.2812C48.1042 23.25 48.0599 23.2109 48.0234 23.1641C47.987 23.112 47.9505 23.0599 47.9141 23.0078C47.8776 22.9557 47.8385 22.9089 47.7969 22.8672C47.7552 22.8203 47.7031 22.7865 47.6406 22.7656C47.5938 22.6615 47.5495 22.5573 47.5078 22.4531C47.4661 22.349 47.4245 22.2448 47.3828 22.1406L47.2734 22.0469C47.263 22.0156 47.263 21.987 47.2734 21.9609C47.2839 21.9297 47.2891 21.901 47.2891 21.875C47.2891 21.8542 47.2708 21.8099 47.2344 21.7422C47.2031 21.6745 47.1667 21.6016 47.125 21.5234C47.0885 21.4401 47.0521 21.3594 47.0156 21.2812C46.9844 21.2031 46.9688 21.1432 46.9688 21.1016C46.9688 21.0234 46.9766 20.9479 46.9922 20.875C47.0078 20.8021 47.0156 20.7292 47.0156 20.6562C47.0156 20.5938 47.0026 20.5339 46.9766 20.4766C46.9505 20.4141 46.9323 20.3516 46.9219 20.2891C46.9062 20.2057 46.901 20.1198 46.9062 20.0312C46.9167 19.9427 46.9219 19.8568 46.9219 19.7734C46.9219 19.7109 46.9115 19.6484 46.8906 19.5859C46.8698 19.5234 46.8594 19.4583 46.8594 19.3906C46.8594 19.3281 46.8776 19.2708 46.9141 19.2188C46.9505 19.1667 46.9688 19.112 46.9688 19.0547C46.9688 18.888 46.9453 18.724 46.8984 18.5625C46.8516 18.3958 46.8281 18.2292 46.8281 18.0625C46.8281 17.9323 46.862 17.7917 46.9297 17.6406C46.9974 17.4896 47.0807 17.375 47.1797 17.2969V16.9297C47.2266 16.9193 47.2604 16.8958 47.2812 16.8594C47.3073 16.8229 47.3281 16.7812 47.3438 16.7344C47.3594 16.6875 47.3724 16.6406 47.3828 16.5938C47.3984 16.5417 47.4167 16.4974 47.4375 16.4609C47.4635 16.4141 47.4896 16.375 47.5156 16.3438C47.5417 16.3073 47.5651 16.2734 47.5859 16.2422C47.6068 16.2057 47.6224 16.1667 47.6328 16.125C47.6432 16.0781 47.6458 16.0208 47.6406 15.9531C47.7292 15.9219 47.8099 15.8776 47.8828 15.8203C47.9557 15.763 48.026 15.7031 48.0938 15.6406C48.1667 15.5781 48.2396 15.5182 48.3125 15.4609C48.3906 15.4036 48.4766 15.3594 48.5703 15.3281C48.638 15.2396 48.75 15.1536 48.9062 15.0703C49.0625 14.9818 49.2214 14.901 49.3828 14.8281C49.5443 14.7552 49.6875 14.6927 49.8125 14.6406C49.9375 14.5833 50.0026 14.5417 50.0078 14.5156C50.1536 14.5312 50.3047 14.5391 50.4609 14.5391C50.6172 14.5391 50.7734 14.5417 50.9297 14.5469C51.0859 14.5521 51.2396 14.5677 51.3906 14.5938C51.5417 14.6146 51.6849 14.6562 51.8203 14.7188C51.8359 14.75 51.8542 14.7786 51.875 14.8047C51.901 14.8307 51.9245 14.8568 51.9453 14.8828C51.9661 14.9036 51.9844 14.9297 52 14.9609C52.0156 14.9922 52.0234 15.0286 52.0234 15.0703C52.2109 15.1432 52.375 15.2656 52.5156 15.4375C52.6615 15.6042 52.7812 15.7943 52.875 16.0078C52.974 16.2161 53.0469 16.4349 53.0938 16.6641C53.1406 16.888 53.1641 17.0938 53.1641 17.2812C53.1641 17.3385 53.151 17.3854 53.125 17.4219C53.1042 17.4583 53.0833 17.5026 53.0625 17.5547C53.0365 17.6016 53.026 17.6536 53.0312 17.7109C53.0365 17.7682 53.026 17.8177 53 17.8594C52.974 17.9375 52.9349 18.0078 52.8828 18.0703C52.8307 18.1328 52.7839 18.2005 52.7422 18.2734C52.6484 18.4922 52.5495 18.7057 52.4453 18.9141C52.3411 19.1224 52.2161 19.3255 52.0703 19.5234C52.013 19.5964 51.9453 19.6667 51.8672 19.7344C51.7891 19.8021 51.7396 19.8854 51.7188 19.9844C51.625 19.9844 51.5521 20.0078 51.5 20.0547C51.4479 20.0964 51.401 20.1432 51.3594 20.1953C51.3177 20.2422 51.2708 20.2865 51.2188 20.3281C51.1667 20.3698 51.0938 20.388 51 20.3828C50.9583 20.4557 50.9141 20.5208 50.8672 20.5781C50.8255 20.6302 50.7786 20.6875 50.7266 20.75C50.6745 20.75 50.6302 20.763 50.5938 20.7891C50.5625 20.8099 50.5286 20.8359 50.4922 20.8672C50.4557 20.8932 50.4167 20.9167 50.375 20.9375C50.3333 20.9583 50.2812 20.9661 50.2188 20.9609C50.1719 21.0286 50.1172 21.0885 50.0547 21.1406C49.9922 21.1875 49.9271 21.2344 49.8594 21.2812C49.7969 21.3281 49.737 21.3802 49.6797 21.4375C49.6224 21.4896 49.5781 21.5547 49.5469 21.6328C49.4896 21.6484 49.4219 21.6641 49.3438 21.6797C49.2708 21.6901 49.2214 21.7266 49.1953 21.7891C49.1953 21.888 49.2161 21.9818 49.2578 22.0703C49.2995 22.1536 49.3802 22.1953 49.5 22.1953C49.5417 22.2734 49.5964 22.3411 49.6641 22.3984C49.7318 22.4505 49.7995 22.5052 49.8672 22.5625C49.9974 22.5521 50.1276 22.5521 50.2578 22.5625C50.388 22.5729 50.5182 22.5781 50.6484 22.5781C50.8047 22.5781 50.9271 22.5651 51.0156 22.5391C51.1042 22.513 51.1745 22.4844 51.2266 22.4531C51.2839 22.4167 51.3307 22.3854 51.3672 22.3594C51.4089 22.3281 51.4583 22.3099 51.5156 22.3047C51.5885 22.1745 51.6641 22.0495 51.7422 21.9297C51.8203 21.8099 51.9297 21.7266 52.0703 21.6797C52.112 21.6016 52.1589 21.5234 52.2109 21.4453C52.263 21.362 52.3099 21.2786 52.3516 21.1953C52.3984 21.1068 52.4297 21.0182 52.4453 20.9297C52.4661 20.8411 52.4661 20.75 52.4453 20.6562C52.4922 20.5938 52.5443 20.5156 52.6016 20.4219C52.6641 20.3229 52.7318 20.2292 52.8047 20.1406C52.8776 20.0521 52.9531 19.9766 53.0312 19.9141C53.1146 19.8516 53.2005 19.8203 53.2891 19.8203C53.3724 19.8203 53.4453 19.849 53.5078 19.9062C53.5703 19.9583 53.625 20.0156 53.6719 20.0781C53.776 20.0938 53.862 20.1328 53.9297 20.1953C54.0026 20.2526 54.0573 20.3229 54.0938 20.4062C54.1354 20.4844 54.1641 20.5729 54.1797 20.6719C54.1953 20.7656 54.2031 20.8568 54.2031 20.9453C54.2031 21.1068 54.1771 21.2839 54.125 21.4766C54.0781 21.6693 53.9974 21.8229 53.8828 21.9375ZM51.3047 16.625C51.2786 16.6302 51.2604 16.6276 51.25 16.6172C51.2448 16.6016 51.2396 16.5859 51.2344 16.5703C51.2292 16.5495 51.224 16.5312 51.2188 16.5156C51.2135 16.4948 51.2057 16.4766 51.1953 16.4609C51.1693 16.4297 51.1146 16.3932 51.0312 16.3516C50.9531 16.3099 50.8646 16.2734 50.7656 16.2422C50.6719 16.2057 50.5755 16.1745 50.4766 16.1484C50.3828 16.1224 50.3125 16.1094 50.2656 16.1094C50.1615 16.1094 50.0755 16.1276 50.0078 16.1641C49.9453 16.2005 49.888 16.2396 49.8359 16.2812C49.7839 16.3229 49.7318 16.362 49.6797 16.3984C49.6328 16.4349 49.5729 16.4557 49.5 16.4609C49.5 16.5078 49.487 16.5521 49.4609 16.5938C49.4401 16.6354 49.4115 16.6745 49.375 16.7109C49.3438 16.7474 49.3099 16.7839 49.2734 16.8203C49.2422 16.8568 49.2161 16.8932 49.1953 16.9297C49.1536 17.0078 49.125 17.0938 49.1094 17.1875C49.0938 17.276 49.0677 17.3646 49.0312 17.4531C48.9896 17.5521 48.9453 17.6458 48.8984 17.7344C48.8516 17.8177 48.8125 17.9115 48.7812 18.0156L48.6641 18.125C48.638 18.224 48.6224 18.3281 48.6172 18.4375C48.6172 18.5417 48.6172 18.6458 48.6172 18.75C48.6172 18.8854 48.6328 19.0156 48.6641 19.1406C48.6953 19.2604 48.7161 19.388 48.7266 19.5234C48.7266 19.5703 48.7214 19.6224 48.7109 19.6797C48.7005 19.7318 48.6953 19.7865 48.6953 19.8438C48.6953 19.8698 48.6953 19.8932 48.6953 19.9141C48.7005 19.9349 48.7109 19.9583 48.7266 19.9844H48.7656C48.8229 19.9896 48.8724 19.9818 48.9141 19.9609C48.9557 19.9401 48.9948 19.9141 49.0312 19.8828C49.0677 19.8516 49.1016 19.8177 49.1328 19.7812C49.1641 19.7396 49.2005 19.7005 49.2422 19.6641C49.2734 19.638 49.3073 19.6224 49.3438 19.6172C49.3802 19.612 49.4167 19.5964 49.4531 19.5703C49.4792 19.5443 49.4948 19.5182 49.5 19.4922C49.5052 19.4609 49.5208 19.4323 49.5469 19.4062C49.5938 19.3646 49.651 19.3281 49.7188 19.2969C49.7917 19.2656 49.8568 19.2344 49.9141 19.2031C49.9766 19.1719 50.0286 19.1328 50.0703 19.0859C50.1172 19.0391 50.1615 18.9922 50.2031 18.9453C50.25 18.8984 50.2995 18.8568 50.3516 18.8203C50.4036 18.7786 50.4661 18.75 50.5391 18.7344C50.5703 18.6979 50.6094 18.6406 50.6562 18.5625C50.7031 18.4792 50.75 18.3906 50.7969 18.2969C50.8438 18.2031 50.8854 18.112 50.9219 18.0234C50.9635 17.9297 50.9896 17.8568 51 17.8047H51.0312C51.0833 17.8047 51.1224 17.7891 51.1484 17.7578C51.1797 17.7214 51.2161 17.6901 51.2578 17.6641C51.2839 17.6068 51.2995 17.5495 51.3047 17.4922C51.3151 17.4297 51.3203 17.3698 51.3203 17.3125C51.3203 17.1927 51.3099 17.0781 51.2891 16.9688C51.2734 16.8594 51.2786 16.7448 51.3047 16.625ZM62.8594 19.4688C62.8594 19.5417 62.8359 19.6146 62.7891 19.6875C62.7422 19.7604 62.7109 19.8333 62.6953 19.9062C62.6849 19.9948 62.6797 20.0807 62.6797 20.1641C62.6797 20.2422 62.6797 20.3203 62.6797 20.3984C62.6797 20.5339 62.6641 20.6589 62.6328 20.7734C62.6068 20.8828 62.5703 20.9896 62.5234 21.0938C62.4818 21.1927 62.4349 21.2917 62.3828 21.3906C62.3307 21.4896 62.2812 21.5964 62.2344 21.7109C62.2083 21.7786 62.1979 21.849 62.2031 21.9219C62.2083 21.9948 62.2031 22.0625 62.1875 22.125C62.1667 22.1823 62.138 22.2344 62.1016 22.2812C62.0651 22.3229 62.0391 22.3724 62.0234 22.4297C62.013 22.487 62 22.5703 61.9844 22.6797C61.974 22.7839 61.9531 22.888 61.9219 22.9922C61.8958 23.0911 61.8542 23.1745 61.7969 23.2422C61.7396 23.3099 61.6615 23.3333 61.5625 23.3125C61.5208 23.3854 61.474 23.4531 61.4219 23.5156C61.375 23.5781 61.3359 23.6484 61.3047 23.7266H61.2734C61.1901 23.7266 61.1172 23.7448 61.0547 23.7812C60.9974 23.8177 60.9245 23.8307 60.8359 23.8203C60.7786 23.8516 60.7318 23.8932 60.6953 23.9453C60.6589 23.9922 60.6198 24.0417 60.5781 24.0938C60.5417 24.1458 60.5 24.1953 60.4531 24.2422C60.4062 24.2891 60.349 24.3255 60.2812 24.3516C60.2552 24.362 60.2214 24.3672 60.1797 24.3672C60.1432 24.3724 60.1016 24.375 60.0547 24.375C60.0078 24.375 59.9635 24.3776 59.9219 24.3828C59.8802 24.388 59.8438 24.3932 59.8125 24.3984C59.7396 24.4141 59.6693 24.4323 59.6016 24.4531C59.5391 24.4792 59.4714 24.4922 59.3984 24.4922C59.2682 24.4922 59.1406 24.4688 59.0156 24.4219C58.8906 24.375 58.763 24.3516 58.6328 24.3516C58.5599 24.3516 58.487 24.3542 58.4141 24.3594C58.3464 24.3646 58.2812 24.3672 58.2188 24.3672C58.1042 24.3672 58 24.3464 57.9062 24.3047C57.8177 24.2682 57.7448 24.1979 57.6875 24.0938H57.6562C57.5938 24.0938 57.5391 24.0859 57.4922 24.0703C57.4505 24.0547 57.4089 24.0365 57.3672 24.0156C57.3307 23.9948 57.2917 23.974 57.25 23.9531C57.2135 23.9271 57.1719 23.9062 57.125 23.8906C57.0625 23.9479 57.0208 24.0312 57 24.1406C56.9792 24.2552 56.9688 24.3568 56.9688 24.4453C56.9688 24.5807 56.9766 24.7161 56.9922 24.8516C57.0078 24.9922 57.0156 25.1302 57.0156 25.2656C57.0156 25.3854 57.0339 25.5 57.0703 25.6094C57.1068 25.7188 57.125 25.8333 57.125 25.9531C57.125 25.9948 57.1172 26.0469 57.1016 26.1094C57.0859 26.1771 57.0677 26.2526 57.0469 26.3359C57.026 26.4193 57.0078 26.5078 56.9922 26.6016C56.9766 26.6953 56.9688 26.7891 56.9688 26.8828C56.9688 26.9557 56.9766 27.0286 56.9922 27.1016C57.0078 27.1797 57.0156 27.2552 57.0156 27.3281C57.0156 27.3906 56.9922 27.4583 56.9453 27.5312C56.9036 27.6094 56.849 27.6849 56.7812 27.7578C56.7188 27.8359 56.651 27.9062 56.5781 27.9688C56.5104 28.0312 56.4531 28.0781 56.4062 28.1094C56.2135 28.1042 56.0208 28.0859 55.8281 28.0547C55.6406 28.0234 55.4714 27.9401 55.3203 27.8047C55.3307 27.7422 55.3385 27.6823 55.3438 27.625C55.349 27.5677 55.3516 27.5104 55.3516 27.4531C55.3516 27.2135 55.3307 26.9792 55.2891 26.75C55.2474 26.526 55.2266 26.2969 55.2266 26.0625C55.2266 25.9323 55.2396 25.8021 55.2656 25.6719C55.2969 25.5469 55.3516 25.4323 55.4297 25.3281C55.3828 25.1771 55.3438 25.0208 55.3125 24.8594C55.2865 24.7031 55.2734 24.5443 55.2734 24.3828C55.2734 24.2943 55.2786 24.2083 55.2891 24.125C55.2995 24.0417 55.3255 23.9635 55.3672 23.8906V23.8438C55.3724 23.7969 55.362 23.7578 55.3359 23.7266C55.3151 23.6953 55.2917 23.6667 55.2656 23.6406C55.2396 23.6146 55.2135 23.5859 55.1875 23.5547C55.1667 23.5234 55.1562 23.4844 55.1562 23.4375C55.1562 23.3906 55.1745 23.3542 55.2109 23.3281C55.2526 23.2969 55.2734 23.2656 55.2734 23.2344V23.2188C55.2422 23.2188 55.2266 23.1953 55.2266 23.1484C55.2266 23.0443 55.25 22.9349 55.2969 22.8203C55.3438 22.7005 55.3672 22.5807 55.3672 22.4609C55.3672 22.237 55.3516 22.013 55.3203 21.7891C55.2891 21.5599 55.2734 21.3307 55.2734 21.1016C55.2734 21.0286 55.2812 20.9583 55.2969 20.8906C55.3125 20.8177 55.3203 20.75 55.3203 20.6875C55.3203 20.6406 55.3047 20.5964 55.2734 20.5547C55.2422 20.513 55.2266 20.4714 55.2266 20.4297C55.2266 20.3828 55.2344 20.3385 55.25 20.2969C55.2656 20.2552 55.2734 20.2083 55.2734 20.1562C55.2734 20.1146 55.2656 20.0755 55.25 20.0391C55.2344 19.9974 55.2266 19.9531 55.2266 19.9062C55.2266 19.8333 55.2422 19.7578 55.2734 19.6797C55.3047 19.6016 55.3203 19.5208 55.3203 19.4375C55.3203 19.3177 55.3125 19.1979 55.2969 19.0781C55.2812 18.9583 55.2734 18.8333 55.2734 18.7031C55.2734 18.5677 55.2891 18.4349 55.3203 18.3047C55.3516 18.1745 55.3672 18.0417 55.3672 17.9062C55.3672 17.8333 55.3542 17.763 55.3281 17.6953C55.3021 17.6224 55.2839 17.5521 55.2734 17.4844C55.2422 17.276 55.2344 17.0703 55.25 16.8672C55.2656 16.6589 55.2734 16.4505 55.2734 16.2422C55.2734 16.1589 55.2656 16.0781 55.25 16C55.2344 15.9167 55.2266 15.8307 55.2266 15.7422C55.2266 15.737 55.2318 15.7031 55.2422 15.6406C55.2526 15.5729 55.263 15.5 55.2734 15.4219C55.2839 15.3438 55.2943 15.2734 55.3047 15.2109C55.3151 15.1484 55.3203 15.112 55.3203 15.1016L55.4297 15.0547C55.4349 15.0391 55.4401 15.013 55.4453 14.9766C55.4557 14.9401 55.4635 14.9036 55.4688 14.8672C55.4792 14.8307 55.4896 14.7969 55.5 14.7656C55.5104 14.7344 55.5208 14.7135 55.5312 14.7031C55.5625 14.6719 55.6094 14.651 55.6719 14.6406C55.7344 14.625 55.7708 14.5938 55.7812 14.5469H56.0391C56.1693 14.5365 56.2995 14.5391 56.4297 14.5547C56.5651 14.5651 56.6953 14.5938 56.8203 14.6406C56.8828 14.75 56.9271 14.8646 56.9531 14.9844C56.9844 15.1042 57.0026 15.2266 57.0078 15.3516C57.0182 15.4766 57.0208 15.6016 57.0156 15.7266C57.0156 15.8516 57.0208 15.974 57.0312 16.0938C57.125 16.0677 57.2005 16.026 57.2578 15.9688C57.3151 15.9115 57.3646 15.849 57.4062 15.7812C57.4479 15.7083 57.4896 15.638 57.5312 15.5703C57.5729 15.4974 57.625 15.4323 57.6875 15.375C57.7135 15.3542 57.7578 15.3255 57.8203 15.2891C57.888 15.2474 57.9557 15.2083 58.0234 15.1719C58.0911 15.1302 58.1536 15.0964 58.2109 15.0703C58.2682 15.0391 58.3021 15.0182 58.3125 15.0078C58.3594 14.9661 58.3958 14.9167 58.4219 14.8594C58.4531 14.8021 58.5026 14.7656 58.5703 14.75C58.7786 14.6875 59 14.6198 59.2344 14.5469C59.4688 14.4688 59.6953 14.4297 59.9141 14.4297C60.138 14.4297 60.3177 14.4427 60.4531 14.4688C60.5885 14.4948 60.7083 14.5365 60.8125 14.5938C60.9167 14.6458 61.0208 14.7135 61.125 14.7969C61.2292 14.8802 61.3594 14.9818 61.5156 15.1016C61.5573 15.1432 61.599 15.1719 61.6406 15.1875C61.6823 15.1979 61.724 15.224 61.7656 15.2656C61.7812 15.2812 61.8151 15.3281 61.8672 15.4062C61.9193 15.4844 61.974 15.5703 62.0312 15.6641C62.0885 15.7578 62.1406 15.8464 62.1875 15.9297C62.2396 16.013 62.2708 16.0677 62.2812 16.0938C62.3542 16.2396 62.4115 16.3958 62.4531 16.5625C62.4948 16.724 62.5599 16.8776 62.6484 17.0234V17.1172C62.6432 17.2682 62.651 17.4193 62.6719 17.5703C62.6927 17.7214 62.7161 17.8724 62.7422 18.0234C62.7734 18.1745 62.7995 18.3255 62.8203 18.4766C62.8464 18.6276 62.8594 18.7786 62.8594 18.9297C62.8594 18.987 62.849 19.0391 62.8281 19.0859C62.8125 19.1328 62.8047 19.1823 62.8047 19.2344C62.8047 19.2812 62.8125 19.3229 62.8281 19.3594C62.849 19.3906 62.8594 19.4271 62.8594 19.4688ZM61.1562 19.3906C61.1562 19.2865 61.1406 19.1927 61.1094 19.1094C61.0833 19.0208 61.0625 18.9271 61.0469 18.8281C61.0312 18.6927 61.026 18.5573 61.0312 18.4219C61.0417 18.2865 61.0469 18.151 61.0469 18.0156C61.0469 17.9115 61.0339 17.8073 61.0078 17.7031C60.9818 17.599 60.9688 17.4948 60.9688 17.3906C60.9688 17.3646 60.9688 17.3385 60.9688 17.3125C60.974 17.2865 60.9844 17.2604 61 17.2344C60.9115 17.1198 60.8385 17.0026 60.7812 16.8828C60.724 16.7578 60.6745 16.6276 60.6328 16.4922C60.5547 16.4557 60.487 16.4089 60.4297 16.3516C60.3776 16.2891 60.3229 16.2318 60.2656 16.1797C60.2135 16.1224 60.1536 16.0755 60.0859 16.0391C60.0182 15.9974 59.9271 15.9792 59.8125 15.9844C59.7552 16.0312 59.6953 16.0547 59.6328 16.0547C59.5755 16.0547 59.513 16.0677 59.4453 16.0938C59.388 16.1146 59.3385 16.1432 59.2969 16.1797C59.2552 16.2109 59.2135 16.2448 59.1719 16.2812C59.1302 16.3125 59.0859 16.3411 59.0391 16.3672C58.9922 16.388 58.9375 16.3984 58.875 16.3984H58.8203C58.7839 16.4453 58.7292 16.4974 58.6562 16.5547C58.5885 16.612 58.5182 16.6745 58.4453 16.7422C58.3776 16.8047 58.3177 16.8724 58.2656 16.9453C58.2188 17.0182 58.2031 17.0938 58.2188 17.1719C58.1354 17.1927 58.0677 17.2292 58.0156 17.2812C57.9688 17.3281 57.9271 17.3828 57.8906 17.4453C57.8594 17.5078 57.8255 17.5703 57.7891 17.6328C57.7526 17.6953 57.7031 17.7474 57.6406 17.7891V18.2578C57.6042 18.2943 57.5625 18.3281 57.5156 18.3594C57.474 18.3854 57.4297 18.4141 57.3828 18.4453C57.3411 18.4766 57.3021 18.5104 57.2656 18.5469C57.2292 18.5833 57.1979 18.625 57.1719 18.6719C57.1667 18.6771 57.1562 18.7135 57.1406 18.7812C57.1302 18.8438 57.1146 18.9245 57.0938 19.0234C57.0781 19.1172 57.0599 19.2188 57.0391 19.3281C57.0182 19.4375 56.9974 19.5417 56.9766 19.6406C56.9609 19.7396 56.9479 19.8255 56.9375 19.8984C56.9271 19.9714 56.9219 20.0156 56.9219 20.0312C56.9219 20.0938 56.9349 20.1589 56.9609 20.2266C56.9922 20.2891 57.0156 20.3568 57.0312 20.4297C57.0469 20.5026 57.0573 20.5859 57.0625 20.6797C57.0677 20.7682 57.0729 20.8594 57.0781 20.9531C57.0885 21.0469 57.099 21.138 57.1094 21.2266C57.125 21.3151 57.1458 21.3906 57.1719 21.4531C57.224 21.5677 57.2839 21.6797 57.3516 21.7891C57.4193 21.8932 57.4661 22.0052 57.4922 22.125C57.6224 22.1875 57.7344 22.2604 57.8281 22.3438C57.9271 22.4271 58.0286 22.5078 58.1328 22.5859C58.237 22.6589 58.3542 22.7214 58.4844 22.7734C58.6198 22.8255 58.7865 22.8516 58.9844 22.8516C59.0833 22.8516 59.1771 22.8385 59.2656 22.8125C59.3594 22.7865 59.4479 22.7552 59.5312 22.7188C59.6198 22.6823 59.7083 22.6484 59.7969 22.6172C59.8854 22.5807 59.9766 22.5573 60.0703 22.5469C60.1276 22.4948 60.1693 22.4375 60.1953 22.375C60.2214 22.3073 60.25 22.2422 60.2812 22.1797L60.375 22.125C60.4375 22.0469 60.4818 21.9583 60.5078 21.8594C60.5339 21.7604 60.5573 21.6615 60.5781 21.5625C60.6042 21.4635 60.6328 21.3698 60.6641 21.2812C60.7005 21.1875 60.7578 21.1068 60.8359 21.0391C60.8516 20.8984 60.875 20.763 60.9062 20.6328C60.9427 20.4974 60.9792 20.3646 61.0156 20.2344C61.0521 20.099 61.0833 19.9635 61.1094 19.8281C61.1406 19.6875 61.1562 19.5417 61.1562 19.3906ZM75.8359 20.9453C75.8359 21.2526 75.8047 21.5443 75.7422 21.8203C75.6797 22.0964 75.6042 22.375 75.5156 22.6562C75.4792 22.776 75.4219 22.8854 75.3438 22.9844C75.2708 23.0781 75.1927 23.1719 75.1094 23.2656C75.026 23.3542 74.9453 23.4453 74.8672 23.5391C74.7891 23.6328 74.7266 23.7344 74.6797 23.8438C74.5911 23.901 74.5026 23.9583 74.4141 24.0156C74.3255 24.0729 74.2604 24.1536 74.2188 24.2578C74.1458 24.2682 74.0781 24.2917 74.0156 24.3281C73.9531 24.3646 73.8906 24.4036 73.8281 24.4453C73.7656 24.4922 73.7031 24.5365 73.6406 24.5781C73.5833 24.6198 73.5208 24.651 73.4531 24.6719C73.3802 24.6979 73.3021 24.7083 73.2188 24.7031C73.1354 24.6979 73.0573 24.7031 72.9844 24.7188C72.9427 24.7292 72.9141 24.7396 72.8984 24.75C72.888 24.7656 72.875 24.776 72.8594 24.7812C72.8438 24.7917 72.8229 24.7995 72.7969 24.8047C72.776 24.8099 72.737 24.8125 72.6797 24.8125C72.5182 24.8125 72.3542 24.8385 72.1875 24.8906C72.0208 24.9479 71.849 24.9766 71.6719 24.9766C71.5938 24.9766 71.5182 24.9635 71.4453 24.9375C71.3776 24.9115 71.3047 24.8932 71.2266 24.8828C71.1276 24.8672 71.0312 24.8646 70.9375 24.875C70.8438 24.8906 70.7474 24.8932 70.6484 24.8828H70.5078C70.4297 24.8359 70.3542 24.7839 70.2812 24.7266C70.2135 24.6745 70.1432 24.6224 70.0703 24.5703C70.0026 24.5234 69.9271 24.4792 69.8438 24.4375C69.7656 24.401 69.6771 24.3724 69.5781 24.3516C69.5312 24.2734 69.4635 24.2005 69.375 24.1328C69.2917 24.0651 69.2031 23.9974 69.1094 23.9297C69.0208 23.862 68.9323 23.7891 68.8438 23.7109C68.7604 23.6276 68.6953 23.5312 68.6484 23.4219C68.6224 23.3646 68.5729 23.2786 68.5 23.1641C68.4271 23.0443 68.3516 22.9245 68.2734 22.8047C68.1953 22.6797 68.125 22.5651 68.0625 22.4609C68.0052 22.3568 67.9766 22.2839 67.9766 22.2422C67.9766 22.1745 67.9922 22.0911 68.0234 21.9922C68.0547 21.888 68.0964 21.7891 68.1484 21.6953C68.2057 21.6016 68.2682 21.5234 68.3359 21.4609C68.4036 21.3932 68.4766 21.3594 68.5547 21.3594C68.8047 21.3594 69.0052 21.4193 69.1562 21.5391C69.3125 21.6589 69.4479 21.8073 69.5625 21.9844C69.6771 22.1562 69.7839 22.3385 69.8828 22.5312C69.9818 22.7188 70.1042 22.8828 70.25 23.0234C70.2917 23.0547 70.3229 23.0911 70.3438 23.1328C70.3646 23.1745 70.4036 23.2031 70.4609 23.2188C70.7161 23.3073 70.9922 23.3828 71.2891 23.4453C71.5911 23.5078 71.8802 23.5547 72.1562 23.5859C72.2812 23.513 72.3958 23.4583 72.5 23.4219C72.6042 23.3802 72.7292 23.3646 72.875 23.375C72.9531 23.349 73.0182 23.3099 73.0703 23.2578C73.1276 23.2057 73.1771 23.1484 73.2188 23.0859C73.2656 23.0234 73.3099 22.9583 73.3516 22.8906C73.3932 22.8229 73.4427 22.7604 73.5 22.7031C73.526 22.6823 73.5625 22.6589 73.6094 22.6328C73.6562 22.6016 73.7031 22.5729 73.75 22.5469C73.8021 22.5208 73.8464 22.4948 73.8828 22.4688C73.9245 22.4427 73.9505 22.4193 73.9609 22.3984C73.9922 22.3516 74.0208 22.2995 74.0469 22.2422C74.0729 22.1849 74.1146 22.151 74.1719 22.1406C74.1719 22.1146 74.1693 22.0938 74.1641 22.0781C74.1589 22.0625 74.1562 22.0469 74.1562 22.0312C74.1562 21.9271 74.1771 21.8307 74.2188 21.7422C74.2604 21.6484 74.2812 21.5521 74.2812 21.4531C74.2812 21.3802 74.2682 21.3307 74.2422 21.3047C74.2214 21.2734 74.1979 21.2292 74.1719 21.1719C74.1562 21.1198 74.1484 21.0729 74.1484 21.0312C74.1484 20.9844 74.1406 20.9401 74.125 20.8984C74.0833 20.8099 74.026 20.7396 73.9531 20.6875C73.8802 20.6302 73.8151 20.5651 73.7578 20.4922C73.737 20.4661 73.7292 20.4375 73.7344 20.4062C73.7396 20.375 73.7292 20.3516 73.7031 20.3359C73.6771 20.3099 73.6432 20.3021 73.6016 20.3125C73.5651 20.3229 73.5312 20.3151 73.5 20.2891C73.4844 20.2734 73.4766 20.2526 73.4766 20.2266C73.4818 20.2005 73.4844 20.1771 73.4844 20.1562C73.4844 20.1354 73.4557 20.1146 73.3984 20.0938C73.3464 20.0729 73.2812 20.0495 73.2031 20.0234C73.1302 19.9974 73.0547 19.9635 72.9766 19.9219C72.8984 19.8802 72.8333 19.8255 72.7812 19.7578C72.4479 19.7578 72.1224 19.7109 71.8047 19.6172C71.7057 19.6276 71.6172 19.6536 71.5391 19.6953C71.4609 19.737 71.3776 19.7578 71.2891 19.7578C71.2214 19.7578 71.1589 19.7448 71.1016 19.7188C71.0495 19.6927 71 19.6615 70.9531 19.625C70.9062 19.5833 70.8594 19.5443 70.8125 19.5078C70.7656 19.4661 70.7161 19.4323 70.6641 19.4062C70.6536 19.3021 70.625 19.2057 70.5781 19.1172C70.5312 19.0286 70.5078 18.9323 70.5078 18.8281C70.5078 18.7812 70.5182 18.737 70.5391 18.6953C70.5651 18.6536 70.5911 18.612 70.6172 18.5703C70.6432 18.5286 70.6667 18.4844 70.6875 18.4375C70.7083 18.3906 70.7161 18.3359 70.7109 18.2734C70.7995 18.2161 70.8984 18.1901 71.0078 18.1953C71.1224 18.1953 71.2318 18.1823 71.3359 18.1562C71.4089 18.1406 71.4766 18.1172 71.5391 18.0859C71.6016 18.0547 71.6745 18.0312 71.7578 18.0156C71.8932 17.9844 72.0286 17.9714 72.1641 17.9766C72.2995 17.9766 72.4349 17.9531 72.5703 17.9062C72.7214 17.7708 72.8802 17.6484 73.0469 17.5391C73.2188 17.4245 73.3854 17.3073 73.5469 17.1875C73.6094 16.9688 73.6745 16.75 73.7422 16.5312C73.8151 16.3125 73.9036 16.1042 74.0078 15.9062C74.0078 15.8594 73.987 15.776 73.9453 15.6562C73.9089 15.5312 73.8646 15.401 73.8125 15.2656C73.7604 15.1302 73.7083 15.0052 73.6562 14.8906C73.6042 14.7708 73.5677 14.6927 73.5469 14.6562C73.4844 14.5521 73.3984 14.4661 73.2891 14.3984C73.1849 14.3307 73.099 14.2448 73.0312 14.1406C72.9219 14.125 72.8073 14.1068 72.6875 14.0859C72.5677 14.0599 72.4583 14.0104 72.3594 13.9375C72.2292 13.9635 72.0807 13.987 71.9141 14.0078C71.7474 14.0234 71.5833 14.0547 71.4219 14.1016C71.2656 14.1484 71.1224 14.2161 70.9922 14.3047C70.862 14.388 70.7682 14.5052 70.7109 14.6562C70.5859 14.7344 70.4896 14.8359 70.4219 14.9609C70.3594 15.0807 70.3047 15.2057 70.2578 15.3359C70.2161 15.4661 70.1693 15.5938 70.1172 15.7188C70.0651 15.8438 69.987 15.9531 69.8828 16.0469C69.7995 16.0469 69.7135 16.0521 69.625 16.0625C69.5417 16.0729 69.4557 16.0781 69.3672 16.0781C69.263 16.0781 69.1797 16.0625 69.1172 16.0312C69.0547 15.9948 69.0026 15.9557 68.9609 15.9141C68.9193 15.8672 68.8776 15.8281 68.8359 15.7969C68.7995 15.7604 68.7526 15.7422 68.6953 15.7422C68.638 15.6328 68.5964 15.5156 68.5703 15.3906C68.5495 15.2656 68.5391 15.1432 68.5391 15.0234C68.5391 14.7786 68.5677 14.5859 68.625 14.4453C68.6875 14.2995 68.7656 14.1745 68.8594 14.0703C68.9531 13.9609 69.0573 13.8568 69.1719 13.7578C69.2917 13.6589 69.4115 13.5312 69.5312 13.375C69.5938 13.3698 69.6693 13.349 69.7578 13.3125C69.8464 13.276 69.9375 13.2344 70.0312 13.1875C70.125 13.1406 70.2135 13.0938 70.2969 13.0469C70.3802 12.9948 70.4505 12.9505 70.5078 12.9141C70.5547 12.8828 70.5964 12.8438 70.6328 12.7969C70.6693 12.75 70.7135 12.7188 70.7656 12.7031C70.7969 12.6875 70.8255 12.6849 70.8516 12.6953C70.8776 12.7005 70.9062 12.7031 70.9375 12.7031H70.9688L71.0859 12.5938C71.1901 12.5625 71.2995 12.5417 71.4141 12.5312C71.5286 12.5208 71.6432 12.5156 71.7578 12.5156C71.9245 12.5156 72.0938 12.526 72.2656 12.5469C72.4427 12.5625 72.6146 12.5781 72.7812 12.5938L72.8281 12.5469C72.9323 12.6094 73.0339 12.6484 73.1328 12.6641C73.2318 12.6745 73.3281 12.6875 73.4219 12.7031C73.5208 12.7188 73.6172 12.75 73.7109 12.7969C73.8099 12.8438 73.9089 12.9297 74.0078 13.0547H74.1406C74.2188 13.0495 74.2865 13.0573 74.3438 13.0781C74.401 13.099 74.4531 13.125 74.5 13.1562C74.5521 13.1875 74.6042 13.2188 74.6562 13.25C74.7135 13.2812 74.776 13.3021 74.8438 13.3125C74.8958 13.4375 74.9479 13.5547 75 13.6641C75.0521 13.7682 75.099 13.875 75.1406 13.9844C75.1875 14.0885 75.224 14.1979 75.25 14.3125C75.2812 14.4271 75.2995 14.5573 75.3047 14.7031C75.388 14.849 75.4427 15.0026 75.4688 15.1641C75.5 15.3255 75.5156 15.487 75.5156 15.6484C75.5156 15.763 75.5026 15.8672 75.4766 15.9609C75.4505 16.0547 75.4323 16.1536 75.4219 16.2578C75.4062 16.3464 75.3984 16.4349 75.3984 16.5234C75.3984 16.612 75.3958 16.7005 75.3906 16.7891C75.3854 16.8724 75.3724 16.9583 75.3516 17.0469C75.3359 17.1302 75.3047 17.2135 75.2578 17.2969C75.112 17.5469 74.9531 17.7839 74.7812 18.0078C74.6146 18.2266 74.4479 18.4531 74.2812 18.6875C74.2969 18.7292 74.349 18.7943 74.4375 18.8828C74.526 18.9661 74.6224 19.0547 74.7266 19.1484C74.8359 19.2422 74.9401 19.3281 75.0391 19.4062C75.1432 19.4844 75.2161 19.5391 75.2578 19.5703C75.2526 19.5964 75.2786 19.6719 75.3359 19.7969C75.3984 19.9219 75.4661 20.0625 75.5391 20.2188C75.612 20.3698 75.6797 20.5156 75.7422 20.6562C75.8047 20.7969 75.8359 20.8932 75.8359 20.9453Z" fill="black"/>
</svg>
