<svg width="403" height="90" viewBox="0 0 403 90" fill="none" xmlns="http://www.w3.org/2000/svg">
<g clip-path="url(#clip0_7412_102604)">
<path d="M367.26 3.43999C373.22 -0.310012 380.77 -0.720012 387.48 0.899988C393.52 2.34999 399.03 6.59999 401.13 12.56C403.82 19.41 402.02 27.15 398.41 33.3C394.12 40.9 386.77 45.93 381.11 52.38C381.86 56.24 382.78 60.43 381.27 64.23C378.77 69.36 369.84 69.03 368.44 63.21C367.94 57.88 365.6 52.22 368.04 47.04C372.14 38.24 381.8 33.88 386.48 25.51C387.95 22.68 389.22 18.51 386.56 15.99C383.15 13.54 378.21 13.7 374.63 15.68C371.88 17.3 372.55 20.71 372.43 23.37C372.73 28.69 365.7 31.9 361.48 29.14C358.85 27.53 358.47 24.11 358.26 21.32C357.74 14.31 361.3 7.18999 367.26 3.43999Z" fill="white"/>
<path d="M2.02 26.75C2.27 23.16 5.43 19.55 9.25 20.15C14.22 21.23 19.39 19.66 24.27 21.34C33.63 23.85 40.72 32.69 41.34 42.34C42.25 50.86 38.05 59.22 31.49 64.49C32.73 68.15 34.1 71.92 36.81 74.77C39.18 77.42 42.38 80.37 41.46 84.33C40.82 89.48 33.85 91.72 30.02 88.54C24.73 83.53 20.6 77.3 18.35 70.34L14.36 70.79C14.14 75.6 14.83 80.45 14.19 85.24C12.6 91.5 2.27 91.1 0.65 85.03C-0.11 80.16 0.24 75.18 0 70.27C0.14 55.74 0.53 41.2 2.02 26.75ZM15.65 34.51C15.03 41.83 14.66 49.16 14.44 56.5C17.66 55.76 21.05 54.9 23.49 52.51C27.67 48.89 28.49 42 24.91 37.69C22.69 34.96 18.99 34.26 15.65 34.51Z" fill="white"/>
<path d="M321.27 21.15C324.31 19.02 327.89 21.3 331.22 20.74C338.88 19.75 346.8 23 351.71 28.92C357.39 35.53 358.82 45.32 355.74 53.41C351.8 63.72 341.16 70.45 330.3 70.93C330.05 75.7 330.55 80.49 330.08 85.25C328.85 90.76 320.49 91.4 317.48 87.07C316.19 85.42 316.25 83.23 316.15 81.26C315.53 63.59 316.26 45.9 317.73 28.29C317.91 25.58 318.8 22.63 321.27 21.15ZM331.49 34.71C330.97 41.99 330.51 49.27 330.39 56.57C333.91 55.86 337.57 54.71 340.04 51.94C343.98 47.9 344.21 40.6 339.82 36.8C337.58 34.7 334.36 34.67 331.49 34.71Z" fill="white"/>
<path d="M154.57 23.67C157.71 22.7 161.08 23.62 164.32 23.46C170.77 23.37 177.94 23.12 183.32 27.31C191.25 33.24 193.99 43.79 193.64 53.28C193.39 67.34 184.07 81.31 170.36 85.44C165.53 86.86 160.11 87.55 155.48 85.1C152.6 84.09 150.87 81.17 150.8 78.19C150.33 65.23 149.79 52.26 149.25 39.3C149.19 36.08 147.05 32.79 148.67 29.66C150.01 27.18 152.13 25.09 154.57 23.67ZM163.46 37.59C163.93 49.14 164.25 60.7 164.82 72.25C177.9 69 183.17 51.9 176.81 40.8C173.86 36.36 167.97 37.65 163.46 37.59Z" fill="white"/>
<path d="M201.97 23.91C205.06 21.71 209.72 22.76 211.51 26.11C218.7 38.24 225.01 50.88 230.87 63.7C236.53 53.35 242.88 43.01 245.02 31.23C245.95 26.24 253.12 24.56 256.58 28.01C258.57 29.8 258.83 32.63 259.1 35.13C260.1 48.34 262.2 61.48 265.41 74.33C266.04 77.1 266.96 80.4 265.01 82.87C262.06 87.03 254.41 86.92 252.64 81.74C250.61 75.32 249.61 68.63 248.12 62.08C244.25 68.94 240.68 75.95 236.91 82.86C235.6 85.69 232.53 87.6 229.38 87.14C225.94 86.94 223.91 83.78 222.81 80.88C219.12 71.81 214.9 62.97 210.52 54.22C210.23 63.44 211.47 72.67 210.69 81.87C209.02 88.43 197.72 87.66 196.95 80.9C196.17 72.72 196.67 64.48 196.13 56.28C196.28 47.92 195.42 39.57 195.75 31.22C195.78 27.63 199.41 25.74 201.97 23.91Z" fill="white"/>
<path d="M115.4 25.16C121.18 22.98 128.31 23.27 133.17 27.4C137.31 30.81 139.11 36.07 140.64 41.01C144.38 53.74 146.68 66.98 146.59 80.26C146.44 87.36 135.1 88.15 132.96 81.87C131.91 76.99 132.25 71.93 131.52 67.01C126.17 67.78 120.92 69.09 115.85 70.95C116.34 74.02 117.3 77.09 117.04 80.23C116.04 84.77 109.97 87.28 106.16 84.51C102.54 81.95 102.78 77.05 101.96 73.17C100.12 63.03 97.54 52.48 100.3 42.24C102.41 34.68 107.93 27.9 115.4 25.16ZM118.52 39.48C113.29 43.43 112.93 50.66 113.26 56.65C118.45 55.09 123.73 53.83 129.09 52.96C127.74 48.31 126.96 43.36 124.55 39.1C123.22 36.78 120.23 38.5 118.52 39.48Z" fill="white"/>
<path d="M281.68 25.4801C287.43 23.0601 294.62 23.0601 299.73 26.9701C304.13 30.2701 306.08 35.6601 307.66 40.7301C311.45 53.5601 313.8 66.9201 313.7 80.3301C313.48 87.5901 301.56 88.1001 299.92 81.3901C299.08 76.6501 299.3 71.7801 298.65 67.0101C293.29 67.7701 288.03 69.0901 282.95 70.9501C283.49 75.1401 285.95 80.6601 281.87 83.8301C277.82 87.7801 270.53 84.8601 270.13 79.2801C268.5 68.3401 265.04 57.4001 266.59 46.2401C267.67 37.3901 273.34 28.9501 281.68 25.4801ZM285.63 39.4801C280.36 43.4201 280.07 50.6701 280.37 56.6701C285.57 55.0601 290.88 53.8701 296.23 52.8901C294.79 48.2401 294.06 43.2501 291.59 39.0001C290.18 36.8101 287.33 38.5301 285.63 39.4801Z" fill="white"/>
<path d="M66.56 25.58C70.75 25.01 75.28 25.49 78.9 27.8C80.76 29.64 81.82 32.16 83.81 33.9C90.3 39.94 95.08 48.31 95.27 57.32C95.59 66.84 90.89 76.69 82.47 81.46C72.23 87.32 58.27 84.99 50.29 76.36C41.66 67.38 40.04 52.81 45.79 41.88C50.03 33.94 57.51 27.2 66.56 25.58ZM56.57 55.2C56.04 62.48 61.56 70.44 69.31 70.43C76.2 70.89 81.95 64.2 81.1 57.5C80.41 49.58 74.23 43.9 68.28 39.4C61.99 42.13 57.12 48.29 56.57 55.2Z" fill="white"/>
<path d="M2.02 26.7497C2.27 23.1597 5.43 19.5497 9.25 20.1497C14.22 21.2297 19.39 19.6597 24.27 21.3397C33.63 23.8497 40.72 32.6897 41.34 42.3397C42.25 50.8597 38.05 59.2197 31.49 64.4897C32.73 68.1497 34.1 71.9197 36.81 74.7697C39.18 77.4197 42.38 80.3697 41.46 84.3297C40.82 89.4797 33.85 91.7197 30.02 88.5397C24.73 83.5297 20.6 77.2997 18.35 70.3397L14.36 70.7897C14.14 75.5997 14.83 80.4497 14.19 85.2397C12.6 91.4997 2.27 91.0997 0.65 85.0297C-0.11 80.1597 0.24 75.1797 0 70.2697C0.14 55.7397 0.53 41.1997 2.02 26.7497ZM15.65 34.5097C15.03 41.8297 14.66 49.1597 14.44 56.4997C17.66 55.7597 21.05 54.8997 23.49 52.5097C27.67 48.8897 28.49 41.9997 24.91 37.6897C22.69 34.9597 18.99 34.2597 15.65 34.5097Z" fill="white"/>
<path d="M66.5601 25.5798C70.7501 25.0098 75.2801 25.4898 78.9001 27.7998C80.7601 29.6398 81.8201 32.1598 83.8101 33.8998C90.3001 39.9398 95.0801 48.3098 95.2701 57.3198C95.5901 66.8398 90.8901 76.6898 82.4701 81.4598C72.2301 87.3198 58.2701 84.9898 50.2901 76.3598C41.6601 67.3798 40.0401 52.8098 45.7901 41.8798C50.0301 33.9398 57.5101 27.1998 66.5601 25.5798ZM56.5701 55.1998C56.0401 62.4798 61.5601 70.4398 69.3101 70.4298C76.2001 70.8898 81.9501 64.1998 81.1001 57.4998C80.4101 49.5798 74.2301 43.8998 68.2801 39.3998C61.9901 42.1298 57.1201 48.2898 56.5701 55.1998Z" fill="white"/>
<path d="M371.58 72.52C375.54 70.36 381.28 72.66 381.76 77.41C382.89 82.25 378.11 86.94 373.28 85.49C367.3 84.46 366.28 75.16 371.58 72.52Z" fill="white"/>
</g>
<defs>
<clipPath id="clip0_7412_102604">
<rect width="402.42" height="90.01" fill="white"/>
</clipPath>
</defs>
</svg>
