<svg width="637" height="97" viewBox="0 0 637 97" fill="none" xmlns="http://www.w3.org/2000/svg">
<path d="M267.9 4.05035C271.065 1.70056 275.896 3.95391 276.624 7.70656C276.826 10.4158 276.405 13.1339 276.282 15.8431C278.947 17.737 282.2 19.2276 283.919 22.121C286.023 25.9087 282.42 30.6521 278.343 30.468C275.686 30.0997 273.959 27.3992 271.232 27.2326C268.102 26.8907 265.129 29.8279 265.576 32.9756C266.076 35.6235 267.751 38.0522 270.092 39.4024C276.142 43.0411 283.577 44.6193 288.504 49.9414C293.073 54.8427 293.379 62.6636 289.986 68.2838C287.207 73.264 281.999 76.3678 276.58 77.7005C274.599 82.1634 275.695 86.9857 275.703 91.6502C275.318 96.6128 268.268 98.2963 265.682 94.0351C263.218 88.7481 263.954 82.593 264.875 77.0079C261.85 75.6576 258.702 74.5792 255.809 72.9659C252.205 70.7301 252.837 64.7591 256.528 62.953C259.299 61.6641 262.122 63.4001 264.708 64.312C268.812 66.0217 273.748 67.2843 277.878 65.0046C280.578 63.3914 282.455 58.7356 279.114 56.7541C273.187 53.2557 266.032 51.7915 260.965 46.8376C255.941 42.48 253.17 35.4657 254.774 28.881C255.651 23.252 259.869 18.8505 264.7 16.1851C265.612 12.1606 264.279 6.97882 267.9 4.05035Z" fill="white"/>
<path d="M78.838 23.4805C79.0835 21.1833 80.5214 18.8598 82.8361 18.2022C85.6506 17.1939 88.9912 18.9124 90.0521 21.6567C90.9289 28.5921 87.6672 35.7993 89.9469 42.612C90.1661 44.7338 88.6405 46.6014 88.7194 48.7407C88.5353 56.6844 88.9824 64.6194 89.4296 72.5455C89.6049 76.4823 84.6686 79.3757 81.2667 77.5257C79.2676 76.6226 78.1541 74.4657 77.9875 72.3526C77.3299 64.9262 77.1896 57.4648 77.2159 50.0208C74.5417 50.3102 71.8588 50.5644 69.1758 50.7836C69.1495 57.079 69.5879 63.3831 69.3862 69.6696C68.904 74.0799 62.8015 75.4827 59.8205 72.642C57.9617 71.1163 57.9704 68.5474 57.9354 66.3554C57.7512 52.5811 57.3304 38.8067 57.2164 25.0411C57.1112 22.2179 59.7854 19.9733 62.4947 20.0084C65.4845 19.7103 68.5796 22.0688 68.6146 25.1727C68.8689 29.8635 68.7812 34.5718 68.9303 39.2714C71.8062 39.061 74.6733 38.8067 77.5403 38.4998C77.9437 33.4934 78.2418 28.4694 78.838 23.4805Z" fill="white"/>
<path d="M43.3809 25.9442C43.0828 22.7088 46.3445 20.1399 49.4395 20.5607C52.2716 20.6046 54.8756 23.0683 54.8055 25.9617C55.2088 40.2534 52.71 54.6415 47.4755 67.9423C46.6251 70.4149 44.2051 72.2561 41.566 72.2298C38.9181 72.0106 37.0067 69.9589 35.2882 68.144C31.7197 64.2861 29.3523 59.5076 27.6251 54.5801C26.1784 59.7794 24.5738 64.9613 22.3819 69.9063C21.093 72.7471 18.6643 75.8159 15.1747 75.4652C11.3869 75.737 8.90564 72.186 8.19544 68.8717C5.06531 56.1232 2.39987 43.2608 0.155297 30.3281C-0.362008 27.9433 0.409565 25.1902 2.52262 23.8224C5.63522 21.4726 10.8872 23.5769 11.273 27.5399C12.8424 35.9133 14.3417 44.3129 16.2619 52.6248C18.296 45.1195 19.5323 37.4477 21.0755 29.8371C22.1802 25.1463 29.6241 24.5413 31.5005 29.013C35.1304 37.2022 35.8669 46.3997 39.8563 54.4661C42.3376 45.1721 43.5388 35.5626 43.3809 25.9442Z" fill="white"/>
<path d="M131.261 23.866C140.626 21.4373 150.393 20.6482 160.038 21.1742C162.361 21.2268 165.027 21.7529 166.368 23.8747C168.779 27.0838 166.342 32.4497 162.326 32.6251C159.441 32.6251 156.557 32.4059 153.672 32.4585C153.584 44.6458 153.979 56.842 154.786 69.003C155.285 72.9661 150.665 76.105 147.087 74.6408C144.773 73.8341 143.422 71.4229 143.335 69.0644C142.458 57.1751 142.116 45.2508 142.177 33.3353C138.083 33.572 133.269 36.4917 129.552 33.5896C126.141 31.0907 127.228 25.0409 131.261 23.866Z" fill="white"/>
<path d="M195.17 21.7093C197.818 20.9027 200.799 22.6562 201.641 25.234C202.246 26.9788 201.939 28.8464 201.764 30.6438C200.089 42.7434 199.414 54.9834 199.519 67.1971C199.546 69.3452 199.458 71.8791 197.564 73.2907C194.171 76.1578 187.805 73.8606 188.025 69.0997C187.762 54.6765 188.884 40.2446 190.865 25.9705C191.014 23.6996 193.066 22.1126 195.17 21.7093Z" fill="white"/>
<path d="M212.417 23.393C219.037 19.5965 228.585 21.0169 233.162 27.3297C235.643 30.9684 232.425 36.3256 228.173 36.3431C225.025 36.5535 223.578 32.5203 220.396 32.8184C215.644 32.8184 213.653 38.991 216.091 42.5595C219.177 47.7063 226.244 47.1451 230.295 51.1433C235.512 55.3694 236.02 63.7427 231.575 68.7053C227.173 74.4921 219.194 75.3514 212.496 74.3343C209.269 73.9573 205.052 73.3874 203.93 69.7575C202.159 65.619 206.534 61.2965 210.672 62.296C214.968 63.1202 221.001 65.0491 223.684 60.2531C220.431 57.9998 216.371 57.4562 213.039 55.3606C207.516 51.9499 203.588 45.751 203.614 39.1751C203.482 32.8535 206.849 26.4968 212.417 23.393Z" fill="white"/>
<path d="M93.6648 36.1765C96.3214 28.3293 103.967 21.841 112.542 22.4285C118.46 22.5512 123.37 27.1719 125.106 32.6255C129.148 44.3043 131.384 56.6846 131.349 69.0473C130.928 74.7289 121.818 75.2374 120.275 69.9679C119.521 65.9522 119.775 61.8138 119.179 57.763C114.655 58.4645 110.183 59.5517 105.852 61.051C106.255 63.4008 106.817 65.7418 106.904 68.1267C106.668 72.195 101.223 74.7727 97.961 72.2388C95.0764 69.9416 95.3482 65.9347 94.6205 62.6818C92.9984 54.0016 90.8064 44.8392 93.6648 36.1765ZM107.255 35.7381C103.625 39.3329 103.301 44.8479 103.765 49.6527C108.141 48.1973 112.647 47.2328 117.189 46.47C115.988 42.3579 115.497 37.8424 113.007 34.2476C111.13 33.0639 108.746 34.4755 107.255 35.7381Z" fill="white"/>
<path d="M380.44 23.8249C380.643 20.9102 383.208 17.9792 386.31 18.4663C390.345 19.3432 394.543 18.0685 398.505 19.4325C406.104 21.4704 411.86 28.6475 412.364 36.4823C413.103 43.3997 409.693 50.1871 404.367 54.4658C405.373 57.4374 406.486 60.4982 408.686 62.8121C410.61 64.9637 413.208 67.3588 412.461 70.5739C411.942 74.7551 406.283 76.5738 403.173 73.992C398.878 69.9244 395.525 64.8662 393.698 59.2154L390.459 59.5808C390.28 63.486 390.84 67.4237 390.321 71.3127C389.03 76.3952 380.643 76.0704 379.328 71.1422C378.711 67.1883 378.995 63.145 378.8 59.1586C378.914 47.3617 379.23 35.5568 380.44 23.8249ZM391.506 30.1252C391.003 36.0683 390.702 42.0195 390.524 47.9788C393.138 47.378 395.89 46.6798 397.871 44.7393C401.265 41.8003 401.931 36.2063 399.024 32.707C397.222 30.4905 394.218 29.9222 391.506 30.1252Z" fill="white"/>
<path d="M434.068 22.8749C437.47 22.4121 441.148 22.8019 444.087 24.6773C445.597 26.1712 446.457 28.2172 448.073 29.6299C453.342 34.5338 457.223 41.3293 457.377 48.6445C457.637 56.3738 453.821 64.371 446.985 68.2437C438.671 73.0014 427.337 71.1097 420.858 64.103C413.852 56.8122 412.536 44.9829 417.205 36.1088C420.647 29.6624 426.72 24.1902 434.068 22.8749ZM425.957 46.9233C425.527 52.8339 430.008 59.2966 436.3 59.2885C441.894 59.662 446.563 54.2304 445.873 48.7907C445.313 42.3604 440.295 37.7489 435.464 34.0953C430.357 36.3118 426.403 41.3131 425.957 46.9233Z" fill="white"/>
<path d="M310.835 43.1057C311.609 42.4181 312.21 41.8532 312.849 41.3129C317.11 37.7518 320.585 33.503 323.643 28.8982C324.552 27.5474 325.337 26.1107 326.308 24.7968C328.788 21.4444 333.479 21.6163 335.898 25.0423C337.445 27.2281 337.322 29.3771 335.996 31.5997C332.84 36.8922 329.181 41.8041 324.809 46.1634C324.343 46.63 323.913 47.1335 323.459 47.6247C323.446 47.6369 323.459 47.6738 323.434 47.8088C323.667 47.9194 323.913 48.0667 324.183 48.1527C328.923 49.7368 333.651 51.3208 338.403 52.8926C340.736 53.6662 342.222 55.1889 342.689 57.608C343.253 60.5551 341.19 64.2513 338.022 64.5829C337.187 64.6688 336.279 64.546 335.468 64.2882C331.968 63.2076 328.469 62.0901 325.006 60.9113C320.88 59.5114 316.779 58.0378 312.665 56.6011C312.37 56.4906 312.051 56.4169 311.621 56.2941C311.916 58.1852 312.198 59.9412 312.456 61.6849C312.837 64.2022 313.23 66.7073 313.549 69.2246C313.93 72.2085 312.26 74.8855 309.435 75.7574C307.999 76.1994 306.525 75.9661 305.199 75.2662C303.431 74.3206 302.215 72.9699 301.92 70.8701C301.404 67.3212 300.717 63.8093 300.226 60.2604C299.882 57.7922 299.783 55.2994 299.501 52.819C298.973 48.2264 298.973 43.6215 298.985 39.0166C298.985 35.5906 299.243 32.1523 299.415 28.7262C299.501 27.0562 299.587 25.3739 299.82 23.7161C300.09 21.8496 301.024 20.3392 302.657 19.2955C303.836 18.5464 305.088 18.2149 306.451 18.5341C309.055 19.1235 311.891 21.3093 311.523 24.8827C310.933 30.6296 310.676 36.401 310.835 42.1848C310.835 42.4304 310.835 42.6637 310.835 43.118V43.1057Z" fill="white"/>
<path d="M357.576 32.7389V40.8189C357.846 40.8312 358.092 40.868 358.337 40.8558C361.972 40.6961 365.57 41.1014 369.18 41.4206C372.312 41.6908 374.178 44.7484 374.203 47.2166C374.239 50.7409 371.415 53.0004 368.272 52.9389C367.08 52.9144 365.877 52.7425 364.686 52.7056C362.746 52.6442 360.805 52.632 358.878 52.6074C358.436 52.6074 358.3 52.7916 358.374 53.2337C358.927 56.7211 359.479 60.1962 360.02 63.6837C360.13 64.4204 360.658 64.3345 361.112 64.2117C362.623 63.831 364.109 63.3767 365.607 62.996C366.908 62.6644 368.222 62.2838 369.549 62.1119C372.876 61.6821 375.025 64.7643 375.308 67.3184C375.492 69.0008 375.111 70.5357 373.994 71.8742C373.147 72.8811 372.005 73.3969 370.838 73.8144C366.872 75.2511 362.758 76.1598 358.558 76.6019C353.401 77.1422 349.459 74.1337 348.673 68.7797C347.703 62.0873 346.88 55.3826 346.18 48.6533C345.48 41.8872 345.566 35.0843 345.873 28.2937C345.984 25.7886 346.708 23.5783 349.115 22.2889C349.41 22.1293 349.717 22.0187 350.036 21.9328C350.945 21.6749 351.841 21.3925 352.762 21.196C353.499 21.0364 354.273 20.889 355.022 20.8767C360.707 20.7785 366.27 21.5767 371.698 23.1976C374.055 23.8975 375.885 25.1992 376.597 27.7656C377.174 29.8777 376.523 31.5846 375.124 33.0704C373.429 34.8633 371.366 35.3667 368.971 34.7036C367.13 34.2002 365.275 33.6844 363.396 33.3652C361.493 33.0459 359.553 32.9477 357.551 32.7512L357.576 32.7389Z" fill="white"/>
<path d="M507.388 32.7389V40.8189C507.658 40.8312 507.904 40.868 508.149 40.8558C511.784 40.6961 515.382 41.1014 518.992 41.4206C522.124 41.6908 523.99 44.7484 524.015 47.2166C524.052 50.7409 521.227 53.0004 518.084 52.9389C516.893 52.9144 515.689 52.7425 514.498 52.7056C512.558 52.6442 510.618 52.632 508.69 52.6074C508.248 52.6074 508.113 52.7916 508.186 53.2337C508.739 56.7211 509.291 60.1962 509.832 63.6837C509.942 64.4204 510.47 64.3345 510.925 64.2117C512.435 63.831 513.921 63.3767 515.419 62.996C516.721 62.6644 518.035 62.2838 519.361 62.1119C522.689 61.6821 524.837 64.7643 525.12 67.3184C525.304 69.0008 524.923 70.5357 523.806 71.8742C522.959 72.8811 521.817 73.3969 520.65 73.8144C516.684 75.2511 512.57 76.1598 508.37 76.6019C503.213 77.1422 499.271 74.1337 498.485 68.7797C497.515 62.0873 496.692 55.3826 495.993 48.6533C495.293 41.8872 495.379 35.0843 495.686 28.2937C495.796 25.7886 496.521 23.5783 498.927 22.2889C499.222 22.1293 499.529 22.0187 499.848 21.9328C500.757 21.6749 501.653 21.3925 502.574 21.196C503.311 21.0364 504.085 20.889 504.834 20.8767C510.519 20.7785 516.082 21.5767 521.51 23.1976C523.867 23.8975 525.697 25.1992 526.409 27.7656C526.986 29.8777 526.336 31.5846 524.936 33.0704C523.241 34.8633 521.178 35.3667 518.784 34.7036C516.942 34.2002 515.087 33.6844 513.209 33.3652C511.305 33.0459 509.365 32.9477 507.364 32.7512L507.388 32.7389Z" fill="white"/>
<path d="M574.926 32.7389V40.8189C575.197 40.8312 575.442 40.868 575.688 40.8558C579.323 40.6961 582.92 41.1014 586.531 41.4206C589.662 41.6908 591.529 44.7484 591.553 47.2166C591.59 50.7409 588.766 53.0004 585.622 52.9389C584.431 52.9144 583.227 52.7425 582.036 52.7056C580.096 52.6442 578.156 52.632 576.228 52.6074C575.786 52.6074 575.651 52.7916 575.725 53.2337C576.277 56.7211 576.83 60.1962 577.37 63.6837C577.481 64.4204 578.009 64.3345 578.463 64.2117C579.973 63.831 581.459 63.3767 582.957 62.996C584.259 62.6644 585.573 62.2838 586.899 62.1119C590.227 61.6821 592.376 64.7643 592.658 67.3184C592.842 69.0008 592.462 70.5357 591.344 71.8742C590.497 72.8811 589.355 73.3969 588.188 73.8144C584.222 75.2511 580.108 76.1598 575.909 76.6019C570.751 77.1422 566.81 74.1337 566.024 68.7797C565.054 62.0873 564.231 55.3826 563.531 48.6533C562.831 41.8872 562.917 35.0843 563.224 28.2937C563.334 25.7886 564.059 23.5783 566.466 22.2889C566.76 22.1293 567.067 22.0187 567.387 21.9328C568.295 21.6749 569.192 21.3925 570.113 21.196C570.85 21.0364 571.623 20.889 572.372 20.8767C578.058 20.7785 583.62 21.5767 589.048 23.1976C591.406 23.8975 593.235 25.1992 593.948 27.7656C594.525 29.8777 593.874 31.5846 592.474 33.0704C590.779 34.8633 588.716 35.3667 586.322 34.7036C584.48 34.2002 582.626 33.6844 580.747 33.3652C578.844 33.0459 576.903 32.9477 574.902 32.7512L574.926 32.7389Z" fill="white"/>
<path d="M464.176 19.1656C466.64 17.4391 469.542 19.2872 472.241 18.8333C478.45 18.0308 484.87 20.6652 488.85 25.4638C493.454 30.8218 494.613 38.7574 492.116 45.315C488.923 53.6722 480.298 59.1274 471.495 59.5165C471.293 63.383 471.698 67.2657 471.317 71.124C470.32 75.5903 463.543 76.1091 461.104 72.5993C460.058 71.2618 460.106 69.4867 460.025 67.8898C459.523 53.5668 460.115 39.2276 461.306 24.9532C461.452 22.7565 462.173 20.3653 464.176 19.1656ZM472.46 30.1571C472.038 36.0582 471.665 41.9592 471.568 47.8765C474.421 47.301 477.388 46.3688 479.39 44.1235C482.584 40.8487 482.77 34.9315 479.212 31.8512C477.396 30.149 474.786 30.1247 472.46 30.1571Z" fill="white"/>
<path d="M531.714 19.1656C534.178 17.4391 537.08 19.2872 539.779 18.8333C545.988 18.0308 552.408 20.6652 556.388 25.4638C560.992 30.8218 562.151 38.7574 559.655 45.315C556.461 53.6722 547.836 59.1274 539.034 59.5165C538.831 63.383 539.236 67.2657 538.855 71.124C537.858 75.5903 531.082 76.1091 528.642 72.5993C527.596 71.2618 527.645 69.4867 527.564 67.8898C527.061 53.5668 527.653 39.2276 528.845 24.9532C528.99 22.7565 529.712 20.3653 531.714 19.1656ZM539.998 30.1571C539.577 36.0582 539.204 41.9592 539.106 47.8765C541.96 47.301 544.926 46.3688 546.929 44.1235C550.122 40.8487 550.309 34.9315 546.75 31.8512C544.935 30.149 542.324 30.1247 539.998 30.1571Z" fill="white"/>
<path d="M610.872 1.38279C617.343 -0.923157 625.12 -0.458459 630.801 3.63614C635.58 7.00301 637.79 13.2983 636.746 18.9712C635.598 25.9504 631.065 31.8073 625.997 36.4981C623.621 38.6638 621.253 40.8733 619.272 43.416C620.026 46.4672 620.666 49.8078 619.544 52.859C617.492 57.1553 609.995 56.787 609.04 51.8507C608.873 47.721 606.83 43.4598 608.636 39.4266C611.907 31.518 620.824 27.9582 624.497 20.3302C625.471 17.9278 626.374 14.1488 623.621 12.5794C620.613 11.045 616.615 11.1239 613.73 12.8863C610.635 15.087 613.432 19.2517 611.398 21.9435C609.346 25.1262 603.656 25.8101 601.745 22.1364C598.299 14.254 602.981 4.39895 610.872 1.38279Z" fill="white"/>
<path d="M612.968 59.3643C617.054 58.0842 620.999 62.284 619.807 66.2909C619.211 70.6573 613.038 72.0953 610.285 68.9038C607.567 65.9402 608.865 60.2586 612.968 59.3643Z" fill="white"/>
</svg>
