<svg width="142" height="70" viewBox="0 0 142 70" fill="none" xmlns="http://www.w3.org/2000/svg">
<rect width="142" height="70" rx="20" fill="white" fill-opacity="0.1"/>
<path d="M71.8184 33.7773C71.8184 33.8548 71.8184 33.9414 71.8184 34.0371C71.8229 34.1283 71.8252 34.2217 71.8252 34.3174C71.8252 34.4085 71.8229 34.4997 71.8184 34.5908C71.8138 34.682 71.8047 34.7617 71.791 34.8301C71.7728 34.9395 71.7568 35.0124 71.7432 35.0488C71.7295 35.0853 71.7158 35.1195 71.7021 35.1514C71.693 35.1833 71.6839 35.2288 71.6748 35.2881C71.6702 35.3428 71.668 35.4408 71.668 35.582C71.668 35.623 71.6543 35.696 71.627 35.8008C71.6042 35.901 71.5745 36.0059 71.5381 36.1152C71.5016 36.2246 71.4606 36.3249 71.415 36.416C71.374 36.5072 71.3353 36.5664 71.2988 36.5938V36.6348C71.2988 36.694 71.2874 36.7487 71.2646 36.7988C71.2419 36.849 71.2145 36.8968 71.1826 36.9424C71.1507 36.988 71.1143 37.0335 71.0732 37.0791C71.0368 37.1247 71.0049 37.1725 70.9775 37.2227C70.9639 37.2637 70.9525 37.3047 70.9434 37.3457C70.9342 37.3822 70.9183 37.4163 70.8955 37.4482C70.8408 37.5303 70.777 37.6055 70.7041 37.6738C70.6357 37.7376 70.5628 37.8014 70.4854 37.8652C70.4124 37.929 70.3395 37.9951 70.2666 38.0635C70.1982 38.1273 70.1367 38.1979 70.082 38.2754C70.0592 38.3027 70.0433 38.3301 70.0342 38.3574C70.0251 38.3848 70.0091 38.4121 69.9863 38.4395C69.9727 38.4668 69.9567 38.4896 69.9385 38.5078C69.9248 38.526 69.9134 38.5511 69.9043 38.583C69.8405 38.6195 69.7767 38.6536 69.7129 38.6855C69.6491 38.7129 69.6058 38.7653 69.583 38.8428C69.4736 38.861 69.3597 38.8975 69.2412 38.9521C69.1227 39.0068 69.0042 39.0638 68.8857 39.123C68.7718 39.1823 68.6602 39.2347 68.5508 39.2803C68.446 39.3258 68.3503 39.3486 68.2637 39.3486C68.1953 39.3486 68.127 39.3418 68.0586 39.3281C67.9948 39.3145 67.9287 39.3076 67.8604 39.3076C67.7829 39.3076 67.7077 39.3213 67.6348 39.3486C67.5664 39.376 67.4958 39.3896 67.4229 39.3896C67.3545 39.3896 67.2884 39.3805 67.2246 39.3623C67.1654 39.3441 67.1038 39.3236 67.04 39.3008C66.9808 39.2826 66.9193 39.2666 66.8555 39.2529C66.7917 39.2393 66.7256 39.2393 66.6572 39.2529C66.5934 39.1937 66.5273 39.1504 66.459 39.123C66.3906 39.1003 66.3223 39.0843 66.2539 39.0752C66.1855 39.0661 66.1172 39.057 66.0488 39.0479C65.9805 39.0387 65.9121 39.0182 65.8438 38.9863C65.7754 38.9043 65.6751 38.8223 65.543 38.7402C65.4154 38.6536 65.2855 38.5739 65.1533 38.501C65.0212 38.4235 64.8981 38.3529 64.7842 38.2891C64.6748 38.2253 64.6019 38.1729 64.5654 38.1318C64.5518 38.109 64.5404 38.0817 64.5312 38.0498C64.5221 38.0133 64.5062 37.9792 64.4834 37.9473C64.4606 37.9245 64.4378 37.9108 64.415 37.9062C64.3923 37.9017 64.3695 37.888 64.3467 37.8652C64.333 37.8424 64.3171 37.7992 64.2988 37.7354C64.2852 37.6715 64.2715 37.6214 64.2578 37.585C64.235 37.5485 64.21 37.5189 64.1826 37.4961C64.1553 37.4733 64.1348 37.4437 64.1211 37.4072C64.0983 37.3617 64.0892 37.3161 64.0938 37.2705C64.0983 37.2249 64.0938 37.1816 64.0801 37.1406C64.0527 37.054 64.0208 36.9788 63.9844 36.915C63.9479 36.8512 63.9183 36.776 63.8955 36.6895C63.859 36.5163 63.8158 36.3363 63.7656 36.1494C63.7201 35.9626 63.6768 35.7757 63.6357 35.5889C63.5947 35.402 63.5605 35.2152 63.5332 35.0283C63.5059 34.8369 63.4922 34.6523 63.4922 34.4746C63.4922 34.3789 63.5081 34.2832 63.54 34.1875C63.5719 34.0918 63.5879 33.9915 63.5879 33.8867C63.5879 33.75 63.5788 33.6133 63.5605 33.4766C63.5423 33.3353 63.5332 33.194 63.5332 33.0527C63.5332 32.9707 63.5492 32.891 63.5811 32.8135C63.6175 32.736 63.654 32.6585 63.6904 32.5811C63.7314 32.5036 63.7679 32.4238 63.7998 32.3418C63.8363 32.2598 63.8545 32.1732 63.8545 32.082C63.9092 32.0638 63.9434 32.0365 63.957 32C63.9753 31.9635 63.9867 31.9248 63.9912 31.8838C63.9958 31.8382 63.998 31.7926 63.998 31.7471C64.0026 31.7015 64.0163 31.6605 64.0391 31.624C64.0482 31.6012 64.0618 31.5898 64.0801 31.5898C64.0983 31.5853 64.112 31.5671 64.1211 31.5352C64.1439 31.485 64.1576 31.4189 64.1621 31.3369C64.1712 31.2549 64.1712 31.1865 64.1621 31.1318C64.2305 31.068 64.2806 30.9951 64.3125 30.9131C64.349 30.8311 64.3854 30.7513 64.4219 30.6738C64.4583 30.5918 64.5039 30.5189 64.5586 30.4551C64.6133 30.3913 64.6953 30.3457 64.8047 30.3184C64.8092 30.2637 64.8252 30.2181 64.8525 30.1816C64.8799 30.1406 64.9095 30.1042 64.9414 30.0723C64.9733 30.0404 65.0029 30.0062 65.0303 29.9697C65.0576 29.9333 65.0713 29.8877 65.0713 29.833C65.1169 29.8193 65.2035 29.7715 65.3311 29.6895C65.4632 29.6029 65.5999 29.5072 65.7412 29.4023C65.887 29.2975 66.0215 29.195 66.1445 29.0947C66.2676 28.9899 66.3451 28.917 66.377 28.876C66.5866 28.8532 66.7917 28.8281 66.9922 28.8008C67.1927 28.7689 67.3932 28.721 67.5938 28.6572C67.5938 28.6344 67.612 28.6139 67.6484 28.5957C67.6576 28.5957 67.6644 28.5934 67.6689 28.5889C67.6735 28.5843 67.6803 28.582 67.6895 28.582C67.7077 28.582 67.7236 28.5889 67.7373 28.6025C67.751 28.6117 67.7646 28.6253 67.7783 28.6436C67.7965 28.6572 67.8148 28.6709 67.833 28.6846C67.8558 28.6937 67.8877 28.6982 67.9287 28.6982C67.9834 28.6982 68.0358 28.6891 68.0859 28.6709C68.1406 28.6481 68.1953 28.6367 68.25 28.6367L68.2773 28.6572C68.332 28.6572 68.3844 28.6686 68.4346 28.6914C68.4847 28.7096 68.5348 28.7256 68.585 28.7393C68.6488 28.7529 68.7103 28.7598 68.7695 28.7598C68.8333 28.7598 68.8926 28.7666 68.9473 28.7803L68.9951 28.876H69.0908C69.2959 28.9671 69.4714 29.0628 69.6172 29.1631C69.7676 29.2633 69.9066 29.3704 70.0342 29.4844C70.1618 29.5983 70.2894 29.7168 70.417 29.8398C70.5446 29.9629 70.6904 30.0951 70.8545 30.2363C70.9183 30.4277 70.9958 30.6123 71.0869 30.79C71.1781 30.9632 71.2487 31.1523 71.2988 31.3574C71.3535 31.5807 71.4105 31.7858 71.4697 31.9727C71.5335 32.1595 71.5905 32.3464 71.6406 32.5332C71.6953 32.7155 71.7386 32.9069 71.7705 33.1074C71.8024 33.3079 71.8184 33.5312 71.8184 33.7773ZM70.4512 34.2969C70.4421 34.1921 70.4375 34.0872 70.4375 33.9824C70.4421 33.873 70.4443 33.766 70.4443 33.6611C70.4443 33.5518 70.4421 33.4447 70.4375 33.3398C70.4329 33.235 70.417 33.1302 70.3896 33.0254C70.3805 32.9707 70.3691 32.9251 70.3555 32.8887C70.3418 32.8522 70.3281 32.818 70.3145 32.7861C70.3008 32.7542 70.2894 32.7201 70.2803 32.6836C70.2712 32.6426 70.2666 32.5879 70.2666 32.5195V32.4922C70.221 32.4375 70.1914 32.3942 70.1777 32.3623C70.1641 32.3258 70.1549 32.2939 70.1504 32.2666C70.1504 32.2393 70.1504 32.2119 70.1504 32.1846C70.1504 32.1572 70.1413 32.123 70.123 32.082L70.041 32.041C70.0137 31.9727 69.9977 31.9043 69.9932 31.8359C69.9886 31.763 69.9863 31.6924 69.9863 31.624C69.9544 31.5876 69.9066 31.5306 69.8428 31.4531C69.779 31.3757 69.7152 31.2936 69.6514 31.207C69.5876 31.1204 69.5306 31.0384 69.4805 30.9609C69.4303 30.8789 69.403 30.8151 69.3984 30.7695C69.3392 30.765 69.2913 30.7467 69.2549 30.7148C69.2184 30.6784 69.1865 30.6374 69.1592 30.5918C69.1318 30.5462 69.1045 30.5007 69.0771 30.4551C69.0544 30.4049 69.027 30.3594 68.9951 30.3184H68.9062C68.8242 30.3275 68.749 30.3161 68.6807 30.2842C68.6169 30.2477 68.5508 30.209 68.4824 30.168C68.4186 30.127 68.348 30.0882 68.2705 30.0518C68.1976 30.0153 68.111 29.9971 68.0107 29.9971C67.915 29.9971 67.8193 30.0176 67.7236 30.0586C67.6279 30.0951 67.5231 30.1133 67.4092 30.1133C67.3818 30.1133 67.3271 30.1292 67.2451 30.1611C67.1676 30.193 67.0811 30.2318 66.9854 30.2773C66.8942 30.3229 66.8076 30.3685 66.7256 30.4141C66.6436 30.4551 66.5866 30.4847 66.5547 30.5029C66.5182 30.5303 66.4932 30.5667 66.4795 30.6123C66.4704 30.6533 66.4544 30.6921 66.4316 30.7285C66.3405 30.8379 66.2334 30.9382 66.1104 31.0293C65.9919 31.1159 65.8848 31.2116 65.7891 31.3164C65.7663 31.3939 65.7321 31.4691 65.6865 31.542C65.6455 31.6104 65.5908 31.6696 65.5225 31.7197C65.5088 31.8792 65.4701 32.0319 65.4062 32.1777C65.3424 32.3236 65.2741 32.4694 65.2012 32.6152C65.1328 32.7565 65.0713 32.9023 65.0166 33.0527C64.9619 33.1986 64.9346 33.3512 64.9346 33.5107C64.9346 33.5837 64.9414 33.6543 64.9551 33.7227C64.9688 33.791 64.9756 33.8617 64.9756 33.9346C64.9756 33.9893 64.9688 34.0417 64.9551 34.0918C64.9414 34.1419 64.9346 34.1966 64.9346 34.2559C64.9346 34.388 64.9505 34.5225 64.9824 34.6592C65.0143 34.7913 65.0303 34.9281 65.0303 35.0693C65.0303 35.1058 65.0212 35.1445 65.0029 35.1855C64.9847 35.222 64.9756 35.2607 64.9756 35.3018C64.9756 35.3564 64.9824 35.4134 64.9961 35.4727C65.0143 35.5273 65.0303 35.582 65.0439 35.6367C65.0576 35.6914 65.069 35.7461 65.0781 35.8008C65.0872 35.8555 65.085 35.9102 65.0713 35.9648C65.1898 36.1243 65.2923 36.2952 65.3789 36.4775C65.4655 36.6598 65.5452 36.8467 65.6182 37.0381C65.7093 37.1019 65.7891 37.1794 65.8574 37.2705C65.9258 37.3617 65.9964 37.4528 66.0693 37.5439L66.1514 37.5303C66.2197 37.5303 66.2858 37.5485 66.3496 37.585C66.418 37.6169 66.4954 37.6556 66.582 37.7012C66.6686 37.7422 66.7712 37.7809 66.8896 37.8174C67.0127 37.8493 67.1631 37.8652 67.3408 37.8652C67.4912 37.8652 67.6097 37.8607 67.6963 37.8516C67.7874 37.8379 67.8672 37.8197 67.9355 37.7969C68.0085 37.7695 68.0814 37.7354 68.1543 37.6943C68.2318 37.6533 68.3343 37.6032 68.4619 37.5439C68.5667 37.4938 68.651 37.4574 68.7148 37.4346C68.7786 37.4072 68.8356 37.3799 68.8857 37.3525C68.9359 37.3206 68.986 37.2796 69.0361 37.2295C69.0863 37.1794 69.1501 37.1019 69.2275 36.9971C69.2731 36.9424 69.3232 36.8968 69.3779 36.8604C69.4326 36.8239 69.485 36.7806 69.5352 36.7305C69.6764 36.5983 69.7812 36.4593 69.8496 36.3135C69.9225 36.1676 69.9863 36.0036 70.041 35.8213L70.123 35.7393C70.1322 35.7028 70.1344 35.6686 70.1299 35.6367C70.1253 35.6003 70.123 35.5638 70.123 35.5273C70.123 35.4635 70.1367 35.4134 70.1641 35.377C70.1914 35.3359 70.2119 35.2881 70.2256 35.2334C70.2393 35.1605 70.2484 35.083 70.2529 35.001C70.2575 34.9144 70.2643 34.8301 70.2734 34.748C70.2871 34.6615 70.3053 34.5794 70.3281 34.502C70.3555 34.4245 70.3965 34.3561 70.4512 34.2969ZM75.7217 34.5088C75.6396 34.5498 75.5485 34.5931 75.4482 34.6387C75.3525 34.6842 75.2546 34.7275 75.1543 34.7686C75.0586 34.805 74.9652 34.8369 74.874 34.8643C74.7829 34.887 74.7031 34.8984 74.6348 34.8984C74.4616 34.8984 74.2975 34.8665 74.1426 34.8027C73.9922 34.7344 73.8532 34.6569 73.7256 34.5703C73.598 34.4792 73.4863 34.3903 73.3906 34.3037C73.2995 34.2126 73.2288 34.1442 73.1787 34.0986L73.124 34.0439C73.0511 33.807 72.9531 33.611 72.8301 33.4561V33.2988C72.8301 33.1667 72.821 33.0299 72.8027 32.8887C72.7891 32.7474 72.7822 32.6061 72.7822 32.4648C72.7822 32.4056 72.7868 32.3532 72.7959 32.3076C72.805 32.262 72.8141 32.2188 72.8232 32.1777C72.8369 32.1367 72.8506 32.0957 72.8643 32.0547C72.8779 32.0137 72.8893 31.9681 72.8984 31.918V31.583C72.8984 31.4873 72.9258 31.4053 72.9805 31.3369C73.0352 31.2686 73.0967 31.2048 73.165 31.1455C73.238 31.0817 73.3086 31.0179 73.377 30.9541C73.4453 30.8857 73.4954 30.806 73.5273 30.7148C73.5911 30.7012 73.6458 30.6829 73.6914 30.6602C73.7415 30.6328 73.7871 30.6055 73.8281 30.5781C73.8691 30.5508 73.9102 30.528 73.9512 30.5098C73.9922 30.487 74.0378 30.4756 74.0879 30.4756C74.1699 30.4756 74.2337 30.4642 74.2793 30.4414C74.3249 30.4186 74.3682 30.3958 74.4092 30.373C74.4548 30.3457 74.5026 30.3206 74.5527 30.2979C74.6029 30.2751 74.6712 30.2637 74.7578 30.2637C74.8171 30.2637 74.874 30.266 74.9287 30.2705C74.9834 30.2751 75.0426 30.2956 75.1064 30.332L75.0928 30.3184C75.1338 30.332 75.1816 30.3366 75.2363 30.332C75.291 30.3229 75.3503 30.3229 75.4141 30.332C75.4779 30.3366 75.5462 30.3594 75.6191 30.4004C75.6966 30.4368 75.7786 30.5075 75.8652 30.6123C75.9974 30.7673 76.1227 30.9154 76.2412 31.0566C76.3643 31.1934 76.4577 31.3346 76.5215 31.4805C76.5215 31.4896 76.526 31.5215 76.5352 31.5762C76.5488 31.6309 76.5625 31.6992 76.5762 31.7812C76.5898 31.8587 76.6035 31.9453 76.6172 32.041C76.6354 32.1322 76.6491 32.2188 76.6582 32.3008C76.6719 32.3783 76.6833 32.4466 76.6924 32.5059C76.7015 32.5651 76.7061 32.6016 76.7061 32.6152C76.7061 32.6471 76.6969 32.7223 76.6787 32.8408C76.6605 32.9548 76.6377 33.0778 76.6104 33.21C76.5876 33.3376 76.5625 33.4583 76.5352 33.5723C76.5124 33.6862 76.4941 33.7591 76.4805 33.791C76.4577 33.832 76.4281 33.873 76.3916 33.9141C76.3597 33.9551 76.3232 33.9961 76.2822 34.0371C76.2458 34.0781 76.2116 34.1214 76.1797 34.167C76.1478 34.208 76.1227 34.2559 76.1045 34.3105L75.7217 34.5088ZM79.5635 30.7012C79.5635 30.847 79.5339 30.9678 79.4746 31.0635C79.4199 31.1546 79.3584 31.2389 79.29 31.3164C79.2217 31.3939 79.1579 31.4759 79.0986 31.5625C79.0439 31.6445 79.0166 31.7493 79.0166 31.877C79.0166 31.9408 79.0098 31.9863 78.9961 32.0137C78.9824 32.041 78.9619 32.0706 78.9346 32.1025C78.9118 32.1344 78.8822 32.18 78.8457 32.2393C78.8138 32.2985 78.7773 32.3919 78.7363 32.5195C78.7363 32.5788 78.7135 32.6449 78.668 32.7178C78.627 32.7861 78.5791 32.859 78.5244 32.9365C78.4697 33.0094 78.4196 33.0846 78.374 33.1621C78.333 33.2396 78.3125 33.3148 78.3125 33.3877C78.3125 33.4378 78.3034 33.488 78.2852 33.5381C78.2715 33.5837 78.2555 33.627 78.2373 33.668C78.2191 33.7044 78.2008 33.7318 78.1826 33.75C78.1689 33.7682 78.1621 33.7728 78.1621 33.7637V33.9209C78.1621 33.9756 78.1484 34.0212 78.1211 34.0576C78.0983 34.0895 78.071 34.1214 78.0391 34.1533C78.0117 34.1807 77.9844 34.2126 77.957 34.249C77.9342 34.2855 77.9229 34.3333 77.9229 34.3926C77.9229 34.4017 77.9251 34.4108 77.9297 34.4199C77.9342 34.4245 77.9365 34.4336 77.9365 34.4473C77.8727 34.4792 77.8203 34.5156 77.7793 34.5566C77.7428 34.5977 77.7109 34.6387 77.6836 34.6797C77.6608 34.7207 77.638 34.7617 77.6152 34.8027C77.597 34.8392 77.5742 34.8711 77.5469 34.8984V34.9395C77.5469 35.0169 77.5264 35.1126 77.4854 35.2266C77.4443 35.3405 77.3896 35.4499 77.3213 35.5547V35.6982L77.2529 35.7529C77.2301 35.7894 77.2051 35.8304 77.1777 35.876C77.1504 35.917 77.1185 35.9603 77.082 36.0059V35.9922C77.0365 36.0469 77 36.1061 76.9727 36.1699C76.9453 36.2337 76.918 36.3044 76.8906 36.3818C76.8633 36.4593 76.8291 36.5436 76.7881 36.6348C76.7471 36.7259 76.6924 36.8239 76.624 36.9287L76.4941 37.1133C76.4622 37.1543 76.4417 37.1816 76.4326 37.1953C76.4235 37.209 76.4121 37.2272 76.3984 37.25C76.3893 37.2682 76.3757 37.3024 76.3574 37.3525C76.3392 37.3981 76.305 37.4756 76.2549 37.585L76.0156 38.0225C75.9792 38.0726 75.945 38.1273 75.9131 38.1865C75.8857 38.2412 75.8607 38.3118 75.8379 38.3984C75.7559 38.4076 75.6989 38.4326 75.667 38.4736C75.6396 38.5101 75.6123 38.5511 75.585 38.5967C75.5622 38.6423 75.5303 38.6833 75.4893 38.7197C75.4528 38.7562 75.3867 38.7744 75.291 38.7744C75.2181 38.7744 75.1452 38.763 75.0723 38.7402C74.9993 38.7174 74.9333 38.6855 74.874 38.6445C74.8193 38.599 74.7738 38.5443 74.7373 38.4805C74.7054 38.4167 74.6895 38.3415 74.6895 38.2549C74.6895 38.1774 74.7031 38.1113 74.7305 38.0566C74.7578 38.002 74.7897 37.9518 74.8262 37.9062L74.9014 37.8105C74.915 37.7832 74.9242 37.7581 74.9287 37.7354C74.9378 37.7126 74.9469 37.6898 74.9561 37.667C74.9652 37.6396 74.9766 37.6123 74.9902 37.585C75.0085 37.5531 75.0335 37.5166 75.0654 37.4756L75.0791 37.4619C75.1156 37.4118 75.1383 37.3708 75.1475 37.3389C75.1611 37.307 75.1725 37.2728 75.1816 37.2363L75.25 37.0244L75.373 36.7852C75.4779 36.5801 75.569 36.3932 75.6465 36.2246C75.724 36.0514 75.8197 35.8942 75.9336 35.7529L75.9746 35.6572C75.9746 35.6117 75.9792 35.582 75.9883 35.5684C75.9974 35.5547 76.002 35.5273 76.002 35.4863V35.4453C76.2207 35.2585 76.387 35.0306 76.501 34.7617C76.6195 34.4928 76.7106 34.2217 76.7744 33.9482C76.8564 33.889 76.9202 33.8229 76.9658 33.75C77.016 33.6725 77.057 33.5951 77.0889 33.5176C77.1253 33.4401 77.1572 33.3649 77.1846 33.292C77.2119 33.2145 77.2438 33.1484 77.2803 33.0938C77.3076 33.0436 77.3327 32.9889 77.3555 32.9297C77.3783 32.8659 77.3896 32.7884 77.3896 32.6973V32.6426C77.4079 32.6152 77.4489 32.5537 77.5127 32.458C77.5765 32.3577 77.6426 32.2507 77.7109 32.1367C77.7839 32.0182 77.8522 31.9066 77.916 31.8018C77.9798 31.6969 78.0231 31.624 78.0459 31.583V31.4668C78.0459 31.4395 78.0505 31.4189 78.0596 31.4053C78.0687 31.3916 78.0892 31.3711 78.1211 31.3438V31.3574C78.153 31.2936 78.1735 31.2161 78.1826 31.125C78.1917 31.0339 78.2031 30.9382 78.2168 30.8379C78.235 30.7376 78.2646 30.6374 78.3057 30.5371C78.3467 30.4368 78.4196 30.3457 78.5244 30.2637H78.5107L78.5654 30.2227V30.2363L78.7363 29.9971L78.8867 29.9287H78.873C78.9004 29.915 78.93 29.9036 78.9619 29.8945C78.9938 29.8809 79.0348 29.874 79.085 29.874C79.1351 29.874 79.1852 29.8923 79.2354 29.9287C79.29 29.9606 79.3402 30.0016 79.3857 30.0518C79.4313 30.0973 79.4701 30.1475 79.502 30.2021C79.5339 30.2568 79.5544 30.3047 79.5635 30.3457V30.7012ZM74.5322 31.4805C74.5277 31.4805 74.5254 31.4827 74.5254 31.4873C74.5208 31.4919 74.5186 31.4987 74.5186 31.5078C74.4958 31.5078 74.457 31.5374 74.4023 31.5967C74.3522 31.6514 74.2975 31.7197 74.2383 31.8018C74.1836 31.8792 74.1289 31.959 74.0742 32.041C74.0241 32.1185 73.9854 32.18 73.958 32.2256V32.5469C73.958 32.5742 73.9557 32.6016 73.9512 32.6289C73.9466 32.6562 73.9443 32.6836 73.9443 32.7109C73.9443 32.8522 73.9626 32.9639 73.999 33.0459C74.0355 33.1279 74.1016 33.2077 74.1973 33.2852V33.2715C74.2109 33.2806 74.2223 33.2943 74.2314 33.3125C74.2406 33.3262 74.252 33.3376 74.2656 33.3467L74.4092 33.4971C74.432 33.5107 74.4502 33.529 74.4639 33.5518C74.4775 33.5745 74.4958 33.5951 74.5186 33.6133L74.5049 33.5928C74.6051 33.6156 74.6849 33.627 74.7441 33.627C74.8626 33.627 74.9606 33.5973 75.0381 33.5381C75.1201 33.4788 75.2044 33.4105 75.291 33.333L75.4482 33.1895C75.4574 33.153 75.4642 33.1097 75.4688 33.0596C75.4779 33.0094 75.4847 32.9593 75.4893 32.9092C75.4938 32.859 75.4961 32.8112 75.4961 32.7656C75.5007 32.7155 75.5029 32.6745 75.5029 32.6426C75.5029 32.5332 75.4961 32.4102 75.4824 32.2734C75.4733 32.1367 75.4437 32.0114 75.3936 31.8975C75.348 31.779 75.2728 31.681 75.168 31.6035C75.0677 31.5215 74.9264 31.4805 74.7441 31.4805H74.5322ZM80.8213 37.9199C80.7393 37.9609 80.6481 38.0065 80.5479 38.0566C80.4521 38.1022 80.3542 38.1455 80.2539 38.1865C80.1536 38.223 80.0579 38.2549 79.9668 38.2822C79.8757 38.305 79.7959 38.3164 79.7275 38.3164C79.5544 38.3164 79.3903 38.2845 79.2354 38.2207C79.085 38.1523 78.946 38.0749 78.8184 37.9883C78.6953 37.8971 78.5859 37.8083 78.4902 37.7217C78.3991 37.6305 78.3262 37.5622 78.2715 37.5166L78.2168 37.4619C78.1484 37.2295 78.0505 37.0335 77.9229 36.874V36.7168C77.9229 36.5846 77.916 36.4479 77.9023 36.3066C77.8887 36.1608 77.8818 36.0173 77.8818 35.876C77.8818 35.7575 77.8932 35.6641 77.916 35.5957C77.9434 35.5228 77.9684 35.4339 77.9912 35.3291V34.9941C77.9912 34.8984 78.0186 34.8187 78.0732 34.7549C78.1279 34.6865 78.1895 34.6227 78.2578 34.5635C78.3307 34.4997 78.4014 34.4336 78.4697 34.3652C78.5381 34.2969 78.5882 34.2171 78.6201 34.126C78.6839 34.1169 78.7386 34.0986 78.7842 34.0713C78.8343 34.0439 78.8799 34.0166 78.9209 33.9893C78.9665 33.9619 79.0075 33.9391 79.0439 33.9209C79.085 33.8981 79.1305 33.8867 79.1807 33.8867C79.2627 33.8867 79.3265 33.8776 79.3721 33.8594C79.4176 33.8366 79.4609 33.8115 79.502 33.7842C79.5475 33.7568 79.5954 33.734 79.6455 33.7158C79.6956 33.693 79.7663 33.6816 79.8574 33.6816C79.9121 33.6816 79.9668 33.6839 80.0215 33.6885C80.0807 33.693 80.1423 33.7135 80.2061 33.75L80.1924 33.7363C80.2334 33.75 80.279 33.7546 80.3291 33.75C80.3838 33.7409 80.443 33.7409 80.5068 33.75C80.5706 33.7546 80.639 33.7773 80.7119 33.8184C80.7894 33.8548 80.8714 33.9255 80.958 34.0303C81.0902 34.1852 81.2178 34.3333 81.3408 34.4746C81.4639 34.6113 81.5573 34.7526 81.6211 34.8984C81.6211 34.9076 81.6257 34.9395 81.6348 34.9941C81.6484 35.0488 81.6621 35.1172 81.6758 35.1992C81.6895 35.2767 81.7031 35.3633 81.7168 35.459C81.7305 35.5501 81.7419 35.6367 81.751 35.7188C81.7646 35.7962 81.776 35.8646 81.7852 35.9238C81.7943 35.9831 81.7988 36.0195 81.7988 36.0332C81.7988 36.0651 81.7897 36.138 81.7715 36.252C81.7533 36.3659 81.7327 36.4889 81.71 36.6211C81.6872 36.7487 81.6621 36.8717 81.6348 36.9902C81.612 37.1042 81.5938 37.1771 81.5801 37.209C81.5345 37.291 81.4684 37.373 81.3818 37.4551C81.2952 37.5326 81.2337 37.6237 81.1973 37.7285L80.8213 37.9199ZM79.6318 34.8984C79.6273 34.8984 79.625 34.9007 79.625 34.9053C79.6204 34.9098 79.6182 34.9167 79.6182 34.9258C79.5908 34.9258 79.5498 34.9554 79.4951 35.0146C79.445 35.0693 79.3903 35.1354 79.3311 35.2129C79.2764 35.2904 79.2217 35.3701 79.167 35.4521C79.1169 35.5296 79.0804 35.5911 79.0576 35.6367V35.9648C79.0576 35.9922 79.0553 36.0195 79.0508 36.0469C79.0462 36.0742 79.0439 36.1016 79.0439 36.1289C79.0439 36.2702 79.0599 36.3818 79.0918 36.4639C79.1283 36.5459 79.1966 36.6257 79.2969 36.7031V36.6895C79.3105 36.6986 79.3219 36.71 79.3311 36.7236C79.3402 36.7373 79.3516 36.7487 79.3652 36.7578L79.502 36.915C79.5247 36.9287 79.543 36.9469 79.5566 36.9697C79.5749 36.9925 79.5954 37.0107 79.6182 37.0244L79.6045 37.0107C79.6455 37.0199 79.6865 37.0267 79.7275 37.0312C79.7686 37.0358 79.8073 37.0381 79.8438 37.0381C79.9622 37.0381 80.0602 37.0085 80.1377 36.9492C80.2197 36.89 80.3018 36.8216 80.3838 36.7441L80.541 36.6074C80.5501 36.5664 80.557 36.5208 80.5615 36.4707C80.5706 36.4206 80.5775 36.3704 80.582 36.3203C80.5866 36.2702 80.5889 36.2223 80.5889 36.1768C80.5934 36.1312 80.5957 36.0924 80.5957 36.0605C80.5957 35.9466 80.5889 35.8236 80.5752 35.6914C80.5661 35.5547 80.5365 35.4294 80.4863 35.3154C80.4408 35.1969 80.3678 35.099 80.2676 35.0215C80.1673 34.9395 80.026 34.8984 79.8438 34.8984H79.6318ZM91.8955 31.0908C91.859 31.0771 91.8249 31.0703 91.793 31.0703C91.7611 31.0658 91.7269 31.0635 91.6904 31.0635C91.5719 31.0635 91.4535 31.0817 91.335 31.1182C91.221 31.1546 91.1048 31.1729 90.9863 31.1729C90.9316 31.1729 90.8747 31.1683 90.8154 31.1592C90.7562 31.1501 90.6969 31.141 90.6377 31.1318C90.5967 31.1592 90.5511 31.1729 90.501 31.1729C90.4508 31.1729 90.4167 31.1592 90.3984 31.1318C90.3848 31.1045 90.3574 31.0908 90.3164 31.0908C90.2754 31.0908 90.2367 31.0999 90.2002 31.1182C90.1683 31.1318 90.1341 31.1455 90.0977 31.1592C90.0658 31.1729 90.0316 31.1842 89.9951 31.1934C89.9587 31.1979 89.9154 31.1911 89.8652 31.1729C89.8561 31.2002 89.8516 31.2321 89.8516 31.2686C89.8516 31.3005 89.8516 31.3301 89.8516 31.3574C89.8516 31.485 89.8607 31.6149 89.8789 31.7471C89.9017 31.8747 89.9131 32.0046 89.9131 32.1367C89.9131 32.2279 89.8971 32.3213 89.8652 32.417C89.8379 32.5081 89.8242 32.6016 89.8242 32.6973C89.8242 32.8112 89.8379 32.9251 89.8652 33.0391C89.8971 33.153 89.9131 33.2692 89.9131 33.3877C89.9131 33.4788 89.8971 33.57 89.8652 33.6611C89.8379 33.7523 89.8242 33.8434 89.8242 33.9346C89.8242 34.012 89.8356 34.0872 89.8584 34.1602C89.8857 34.2285 89.904 34.3014 89.9131 34.3789C89.9359 34.5612 89.9495 34.7412 89.9541 34.9189C89.9632 35.0967 89.9678 35.2767 89.9678 35.459C89.9678 35.6322 89.9587 35.8099 89.9404 35.9922C89.9222 36.1699 89.9131 36.3477 89.9131 36.5254C89.9131 36.6439 89.929 36.7578 89.9609 36.8672C89.9928 36.972 90.0088 37.0768 90.0088 37.1816C90.0088 37.2363 90.002 37.2887 89.9883 37.3389C89.9746 37.389 89.9678 37.4437 89.9678 37.5029C89.9587 37.6169 89.9564 37.7308 89.9609 37.8447C89.9655 37.9541 89.9678 38.068 89.9678 38.1865C89.9678 38.3187 89.9541 38.4463 89.9268 38.5693C89.8994 38.6924 89.8857 38.8177 89.8857 38.9453C89.8857 38.9909 89.8698 39.0342 89.8379 39.0752C89.8105 39.1162 89.7741 39.1527 89.7285 39.1846C89.6875 39.2165 89.6419 39.2415 89.5918 39.2598C89.5462 39.2826 89.5029 39.2939 89.4619 39.2939C89.3844 39.2939 89.3092 39.2894 89.2363 39.2803C89.168 39.2712 89.0996 39.2666 89.0312 39.2666C88.9948 39.2666 88.9583 39.2666 88.9219 39.2666C88.89 39.2712 88.8604 39.2848 88.833 39.3076C88.6644 39.1937 88.5459 39.0501 88.4775 38.877C88.4137 38.6992 88.3818 38.5124 88.3818 38.3164C88.3818 38.1751 88.3932 38.0361 88.416 37.8994C88.4434 37.7627 88.4707 37.626 88.498 37.4893C88.5299 37.3525 88.5573 37.2181 88.5801 37.0859C88.6074 36.9492 88.6211 36.8079 88.6211 36.6621C88.6211 36.5938 88.6211 36.5231 88.6211 36.4502C88.6211 36.3727 88.6165 36.2975 88.6074 36.2246C88.5938 36.1562 88.5664 36.0856 88.5254 36.0127C88.4889 35.9352 88.4707 35.8623 88.4707 35.7939C88.4707 35.7666 88.4775 35.737 88.4912 35.7051C88.5049 35.6686 88.5117 35.6322 88.5117 35.5957C88.5117 35.5592 88.5049 35.5251 88.4912 35.4932C88.4775 35.4567 88.4707 35.418 88.4707 35.377C88.4707 35.2767 88.4935 35.1787 88.5391 35.083C88.5846 34.9827 88.6074 34.8802 88.6074 34.7754C88.6074 34.6934 88.5983 34.6136 88.5801 34.5361C88.5618 34.4541 88.5413 34.3743 88.5186 34.2969C88.4958 34.2148 88.4753 34.1328 88.457 34.0508C88.4388 33.9688 88.4297 33.8867 88.4297 33.8047C88.4297 33.7363 88.4365 33.668 88.4502 33.5996C88.4639 33.5267 88.4707 33.4561 88.4707 33.3877C88.4707 33.3148 88.4639 33.2464 88.4502 33.1826C88.4365 33.1188 88.4297 33.0505 88.4297 32.9775C88.4297 32.9365 88.4365 32.8955 88.4502 32.8545C88.4639 32.8089 88.4707 32.7611 88.4707 32.7109C88.4707 32.6198 88.4548 32.5309 88.4229 32.4443C88.3955 32.3532 88.3818 32.262 88.3818 32.1709C88.3818 32.0798 88.3978 31.9886 88.4297 31.8975C88.4661 31.8063 88.4844 31.7152 88.4844 31.624C88.4844 31.5192 88.4661 31.4303 88.4297 31.3574C88.3294 31.321 88.2246 31.2982 88.1152 31.2891C88.0059 31.2799 87.8988 31.2754 87.7939 31.2754C87.6117 31.2754 87.4316 31.2822 87.2539 31.2959C87.0807 31.3096 86.903 31.3164 86.7207 31.3164C86.6159 31.3164 86.502 31.305 86.3789 31.2822C86.2604 31.2594 86.1488 31.223 86.0439 31.1729C85.9437 31.1182 85.8594 31.0475 85.791 30.9609C85.7272 30.8698 85.6953 30.7581 85.6953 30.626C85.6953 30.5075 85.7204 30.389 85.7705 30.2705C85.8252 30.1475 85.8662 30.029 85.8936 29.915C86.0758 29.8239 86.2695 29.7624 86.4746 29.7305C86.6797 29.694 86.887 29.6712 87.0967 29.6621C87.3063 29.653 87.5137 29.6507 87.7188 29.6553C87.9284 29.6598 88.1312 29.6576 88.3271 29.6484C88.3682 29.612 88.3932 29.5664 88.4023 29.5117C88.416 29.4525 88.4251 29.3932 88.4297 29.334C88.4342 29.2702 88.4388 29.2087 88.4434 29.1494C88.4525 29.0902 88.4753 29.0423 88.5117 29.0059V28.9785C88.5117 28.9603 88.5345 28.9375 88.5801 28.9102C88.6302 28.8783 88.6872 28.8486 88.751 28.8213C88.8148 28.7939 88.8763 28.7712 88.9355 28.7529C88.9948 28.7347 89.0358 28.7256 89.0586 28.7256C89.1999 28.7256 89.3047 28.7415 89.373 28.7734C89.4414 28.8053 89.4915 28.8418 89.5234 28.8828C89.5599 28.9238 89.5895 28.9626 89.6123 28.999C89.6351 29.0355 89.6738 29.056 89.7285 29.0605C89.765 29.1426 89.7946 29.2314 89.8174 29.3271C89.8447 29.4183 89.8766 29.5072 89.9131 29.5938C89.9951 29.5846 90.0749 29.5687 90.1523 29.5459C90.2344 29.5186 90.321 29.5049 90.4121 29.5049C90.4622 29.5049 90.5124 29.5186 90.5625 29.5459C90.6172 29.5687 90.6696 29.5846 90.7197 29.5938L90.8223 29.5527L90.8633 29.5938C90.9544 29.6165 91.0501 29.6234 91.1504 29.6143C91.2507 29.6006 91.3464 29.5938 91.4375 29.5938C91.5833 29.5938 91.7246 29.6097 91.8613 29.6416C92.0026 29.6735 92.1257 29.7259 92.2305 29.7988C92.3398 29.8672 92.4264 29.9583 92.4902 30.0723C92.554 30.1862 92.5859 30.3252 92.5859 30.4893C92.5859 30.5667 92.5586 30.6351 92.5039 30.6943C92.4538 30.749 92.3923 30.7992 92.3193 30.8447C92.2464 30.8857 92.1712 30.9268 92.0938 30.9678C92.0163 31.0088 91.9502 31.0498 91.8955 31.0908ZM99.7637 38.6104C99.7637 38.6924 99.7523 38.7653 99.7295 38.8291C99.7067 38.8883 99.6794 38.943 99.6475 38.9932C99.6156 39.0433 99.5791 39.0934 99.5381 39.1436C99.5016 39.1937 99.4674 39.2529 99.4355 39.3213L99.3398 39.3076C99.2487 39.3076 99.1576 39.3145 99.0664 39.3281C98.9753 39.3418 98.8841 39.3486 98.793 39.3486C98.7109 39.3486 98.6335 39.335 98.5605 39.3076C98.4922 39.2803 98.4398 39.2233 98.4033 39.1367C98.3395 39.1003 98.2757 39.0729 98.2119 39.0547C98.1481 39.041 98.0911 39.0091 98.041 38.959V38.8906C98.041 38.8268 98.0205 38.7699 97.9795 38.7197C97.9385 38.6696 97.9111 38.6126 97.8975 38.5488C97.8701 38.4258 97.8587 38.2982 97.8633 38.166C97.8678 38.0293 97.8701 37.8971 97.8701 37.7695C97.8701 37.6556 97.8587 37.5439 97.8359 37.4346C97.8132 37.3252 97.7881 37.2181 97.7607 37.1133C97.7334 37.0039 97.7083 36.8968 97.6855 36.792C97.6673 36.6826 97.6628 36.5732 97.6719 36.4639C97.4759 36.4411 97.2822 36.4229 97.0908 36.4092C96.904 36.391 96.7103 36.3818 96.5098 36.3818C96.3411 36.3818 96.1702 36.391 95.9971 36.4092C95.8285 36.4229 95.6644 36.4616 95.5049 36.5254C95.4183 36.4753 95.3249 36.4388 95.2246 36.416C95.1289 36.3932 95.0309 36.3818 94.9307 36.3818C94.8258 36.3818 94.7324 36.3955 94.6504 36.4229C94.6139 36.514 94.5957 36.6051 94.5957 36.6963C94.5957 36.7874 94.582 36.8786 94.5547 36.9697C94.5456 37.0107 94.5296 37.0404 94.5068 37.0586C94.4886 37.0723 94.4749 37.0905 94.4658 37.1133C94.4567 37.1361 94.4544 37.1611 94.459 37.1885C94.4635 37.2113 94.4658 37.2363 94.4658 37.2637C94.4658 37.291 94.4453 37.3343 94.4043 37.3936C94.3678 37.4528 94.3428 37.5075 94.3291 37.5576C94.3063 37.6761 94.2926 37.8037 94.2881 37.9404C94.2881 38.0726 94.2881 38.2025 94.2881 38.3301C94.2881 38.3574 94.2972 38.3825 94.3154 38.4053C94.3337 38.4235 94.3428 38.444 94.3428 38.4668C94.3428 38.4896 94.3086 38.5511 94.2402 38.6514C94.1719 38.7471 94.0944 38.8519 94.0078 38.9658C93.9258 39.0752 93.8483 39.1732 93.7754 39.2598C93.7025 39.3509 93.6637 39.3988 93.6592 39.4033C93.6273 39.4124 93.5977 39.417 93.5703 39.417C93.543 39.417 93.5156 39.417 93.4883 39.417C93.3288 39.417 93.1738 39.3783 93.0234 39.3008C92.873 39.2279 92.7386 39.1413 92.6201 39.041V38.9453C92.6201 38.8268 92.611 38.7083 92.5928 38.5898C92.5745 38.4668 92.5518 38.346 92.5244 38.2275C92.5882 38.1455 92.6292 38.0612 92.6475 37.9746C92.6657 37.888 92.6702 37.7969 92.6611 37.7012C92.7021 37.6556 92.7363 37.6191 92.7637 37.5918C92.7956 37.5645 92.8206 37.5371 92.8389 37.5098C92.8571 37.4824 92.8685 37.4505 92.873 37.4141C92.8822 37.3776 92.8867 37.3275 92.8867 37.2637V37.2363L92.9824 37.1543C92.9915 37.1042 92.9915 37.0586 92.9824 37.0176C92.9733 36.972 92.9688 36.9242 92.9688 36.874C92.9688 36.8376 92.9733 36.8079 92.9824 36.7852L93.0713 36.7031C93.0804 36.6758 93.0827 36.6507 93.0781 36.6279C93.0736 36.6006 93.0713 36.5755 93.0713 36.5527C93.0713 36.5299 93.0781 36.5117 93.0918 36.498C93.1055 36.4798 93.1214 36.4616 93.1396 36.4434C93.1579 36.4251 93.1738 36.4069 93.1875 36.3887C93.2012 36.3704 93.208 36.3499 93.208 36.3271V36.2998C93.0212 36.2725 92.8389 36.2725 92.6611 36.2998C92.6019 36.2588 92.5404 36.2155 92.4766 36.1699C92.4173 36.1243 92.3626 36.0765 92.3125 36.0264C92.2624 35.9762 92.2214 35.9193 92.1895 35.8555C92.1576 35.7917 92.1416 35.7188 92.1416 35.6367C92.1416 35.4863 92.1712 35.3724 92.2305 35.2949C92.2897 35.2174 92.3604 35.1536 92.4424 35.1035C92.529 35.0488 92.6201 34.9987 92.7158 34.9531C92.8161 34.9076 92.9049 34.8415 92.9824 34.7549H93.3379C93.4199 34.6729 93.4906 34.584 93.5498 34.4883C93.6136 34.388 93.6637 34.2809 93.7002 34.167C93.7139 34.126 93.7207 34.0827 93.7207 34.0371C93.7207 33.9915 93.7275 33.9482 93.7412 33.9072C93.7822 33.8161 93.8369 33.734 93.9053 33.6611C93.9736 33.5837 94.026 33.4971 94.0625 33.4014C94.0853 33.3285 94.0921 33.2533 94.083 33.1758C94.0739 33.0983 94.0807 33.0231 94.1035 32.9502C94.1445 32.8271 94.1901 32.7178 94.2402 32.6221C94.2904 32.5264 94.3382 32.4307 94.3838 32.335C94.4339 32.2347 94.4749 32.123 94.5068 32C94.5387 31.877 94.5547 31.7266 94.5547 31.5488C94.5547 31.5215 94.5479 31.4987 94.5342 31.4805C94.5205 31.4622 94.5137 31.4395 94.5137 31.4121C94.5137 31.3848 94.5319 31.3438 94.5684 31.2891C94.6094 31.2344 94.6367 31.1865 94.6504 31.1455C94.6641 31.0954 94.6641 31.0475 94.6504 31.002C94.6413 30.9518 94.6367 30.9017 94.6367 30.8516C94.6367 30.8197 94.6618 30.749 94.7119 30.6396C94.762 30.5257 94.8213 30.4072 94.8896 30.2842C94.958 30.1566 95.0286 30.0381 95.1016 29.9287C95.1745 29.8148 95.2337 29.7396 95.2793 29.7031C95.2839 29.6029 95.3021 29.5163 95.334 29.4434C95.3659 29.3659 95.4023 29.293 95.4434 29.2246C95.4844 29.1562 95.5277 29.0879 95.5732 29.0195C95.6188 28.9512 95.6576 28.876 95.6895 28.7939C95.7533 28.7939 95.7988 28.7666 95.8262 28.7119C95.8353 28.7028 95.849 28.6982 95.8672 28.6982C95.9401 28.6982 96.0221 28.7051 96.1133 28.7188C96.2044 28.7324 96.3092 28.7393 96.4277 28.7393C96.5326 28.7393 96.6328 28.7643 96.7285 28.8145C96.8288 28.86 96.9199 28.9147 97.002 28.9785C97.0794 29.0378 97.1523 29.138 97.2207 29.2793C97.2936 29.4206 97.362 29.5846 97.4258 29.7715C97.4896 29.9538 97.5488 30.1497 97.6035 30.3594C97.6628 30.569 97.7174 30.7741 97.7676 30.9746C97.8177 31.1706 97.8656 31.3529 97.9111 31.5215C97.9567 31.6855 98 31.8177 98.041 31.918C98.0638 31.9818 98.0934 32.041 98.1299 32.0957C98.1663 32.1458 98.196 32.2074 98.2188 32.2803C98.2324 32.3441 98.237 32.4102 98.2324 32.4785C98.2279 32.5469 98.237 32.6152 98.2598 32.6836C98.278 32.7428 98.3008 32.7952 98.3281 32.8408C98.3555 32.8864 98.3805 32.9365 98.4033 32.9912C98.4398 33.1325 98.4626 33.2783 98.4717 33.4287C98.4808 33.5745 98.515 33.7135 98.5742 33.8457C98.6927 34.1146 98.7884 34.388 98.8613 34.666C98.9388 34.944 98.9775 35.2266 98.9775 35.5137C98.9775 35.5775 98.9958 35.6436 99.0322 35.7119C99.0322 35.7484 99.0436 35.7871 99.0664 35.8281C99.0892 35.8691 99.1143 35.9124 99.1416 35.958C99.1735 35.999 99.2031 36.04 99.2305 36.0811C99.2624 36.1221 99.2852 36.1608 99.2988 36.1973C99.3079 36.2246 99.3262 36.2998 99.3535 36.4229C99.3809 36.5413 99.4105 36.6849 99.4424 36.8535C99.4788 37.0221 99.5153 37.2044 99.5518 37.4004C99.5882 37.5918 99.6224 37.7741 99.6543 37.9473C99.6862 38.1159 99.7113 38.2617 99.7295 38.3848C99.7523 38.5078 99.7637 38.583 99.7637 38.6104ZM97.2686 34.8984C97.264 34.8073 97.248 34.7184 97.2207 34.6318C97.1934 34.5452 97.1615 34.4609 97.125 34.3789C97.0931 34.2923 97.0589 34.2057 97.0225 34.1191C96.9906 34.028 96.9655 33.9368 96.9473 33.8457C96.9336 33.75 96.929 33.6475 96.9336 33.5381C96.9427 33.4287 96.9336 33.3216 96.9062 33.2168C96.8926 33.1621 96.8766 33.1234 96.8584 33.1006C96.8447 33.0778 96.8311 33.0573 96.8174 33.0391C96.8083 33.0163 96.7992 32.9889 96.79 32.957C96.7809 32.9206 96.7764 32.8636 96.7764 32.7861C96.7764 32.7451 96.765 32.7064 96.7422 32.6699C96.724 32.6335 96.7035 32.597 96.6807 32.5605C96.6579 32.5241 96.6351 32.4808 96.6123 32.4307C96.5941 32.3805 96.585 32.3213 96.585 32.2529C96.585 32.2119 96.5918 32.1709 96.6055 32.1299C96.6191 32.0843 96.6305 32.041 96.6396 32C96.5531 31.9225 96.4801 31.8359 96.4209 31.7402C96.3662 31.6445 96.3024 31.5534 96.2295 31.4668C96.1976 31.485 96.1771 31.5146 96.168 31.5557C96.1589 31.5967 96.1543 31.6423 96.1543 31.6924C96.1543 31.738 96.1543 31.7858 96.1543 31.8359C96.1543 31.8861 96.1475 31.9271 96.1338 31.959C96.1201 32 96.0928 32.0319 96.0518 32.0547C96.0153 32.0729 95.9834 32.1003 95.9561 32.1367C95.9333 32.1732 95.915 32.2142 95.9014 32.2598C95.8923 32.3053 95.8672 32.3395 95.8262 32.3623V32.7725C95.7214 32.8955 95.6348 33.0391 95.5664 33.2031C95.5026 33.3672 95.4479 33.5381 95.4023 33.7158C95.3613 33.8936 95.3271 34.0736 95.2998 34.2559C95.277 34.4336 95.2565 34.5999 95.2383 34.7549C95.252 34.764 95.2679 34.7708 95.2861 34.7754C95.3044 34.7754 95.3203 34.7754 95.334 34.7754C95.4115 34.7754 95.4867 34.7663 95.5596 34.748C95.6325 34.7253 95.7077 34.7139 95.7852 34.7139C95.9811 34.7139 96.1725 34.7275 96.3594 34.7549C96.4095 34.764 96.4528 34.7822 96.4893 34.8096C96.5303 34.8324 96.5758 34.8438 96.626 34.8438C96.6488 34.8438 96.667 34.8369 96.6807 34.8232C96.6989 34.8096 96.7262 34.8027 96.7627 34.8027C96.8356 34.8027 96.904 34.8232 96.9678 34.8643C97.0316 34.9053 97.0999 34.9258 97.1729 34.9258C97.2002 34.9258 97.2321 34.9167 97.2686 34.8984ZM107.235 29.5801C107.235 29.653 107.222 29.7373 107.194 29.833C107.172 29.9242 107.144 30.0176 107.112 30.1133C107.08 30.209 107.046 30.3024 107.01 30.3936C106.973 30.4847 106.946 30.5667 106.928 30.6396L106.825 30.6807C106.798 30.7399 106.786 30.8014 106.791 30.8652C106.796 30.929 106.78 30.9906 106.743 31.0498L106.647 31.0908C106.629 31.1273 106.62 31.166 106.62 31.207C106.625 31.2435 106.618 31.2799 106.6 31.3164C106.559 31.4258 106.508 31.5534 106.449 31.6992C106.39 31.8451 106.324 31.9932 106.251 32.1436C106.183 32.2894 106.105 32.4284 106.019 32.5605C105.932 32.6882 105.841 32.7861 105.745 32.8545C105.736 32.9548 105.695 33.0755 105.622 33.2168C105.549 33.3581 105.467 33.5062 105.376 33.6611C105.289 33.8161 105.203 33.9733 105.116 34.1328C105.03 34.2878 104.97 34.4313 104.938 34.5635C104.866 34.6182 104.802 34.682 104.747 34.7549C104.697 34.8232 104.649 34.8962 104.604 34.9736C104.562 35.0465 104.521 35.1217 104.48 35.1992C104.439 35.2767 104.396 35.3496 104.351 35.418C104.351 35.4818 104.373 35.5319 104.419 35.5684C104.465 35.6048 104.501 35.6481 104.528 35.6982C104.56 35.7484 104.583 35.8008 104.597 35.8555C104.61 35.9056 104.631 35.9557 104.658 36.0059C104.695 36.056 104.733 36.0947 104.774 36.1221C104.815 36.1494 104.852 36.1836 104.884 36.2246C104.911 36.2702 104.934 36.318 104.952 36.3682C104.97 36.4183 104.993 36.4639 105.021 36.5049C105.062 36.5596 105.105 36.612 105.15 36.6621C105.196 36.7077 105.239 36.7555 105.28 36.8057C105.326 36.8512 105.365 36.9014 105.396 36.9561C105.433 37.0107 105.458 37.0723 105.472 37.1406C105.535 37.1816 105.595 37.2249 105.649 37.2705C105.709 37.3161 105.77 37.3617 105.834 37.4072C105.848 37.4482 105.88 37.5052 105.93 37.5781C105.98 37.651 106.035 37.7262 106.094 37.8037C106.158 37.8812 106.219 37.9541 106.278 38.0225C106.338 38.0908 106.385 38.141 106.422 38.1729C106.49 38.2367 106.565 38.2891 106.647 38.3301C106.729 38.3711 106.802 38.4258 106.866 38.4941C106.903 38.5215 106.928 38.5579 106.941 38.6035C106.96 38.6445 106.982 38.6833 107.01 38.7197C107.042 38.7607 107.067 38.7926 107.085 38.8154C107.108 38.8382 107.126 38.861 107.14 38.8838C107.153 38.9066 107.162 38.9339 107.167 38.9658C107.172 38.9977 107.174 39.041 107.174 39.0957C107.174 39.1641 107.165 39.2165 107.146 39.2529C107.128 39.2939 107.103 39.3258 107.071 39.3486C107.044 39.376 107.007 39.3988 106.962 39.417C106.921 39.4352 106.875 39.4603 106.825 39.4922L106.784 39.5742C106.761 39.5833 106.743 39.5856 106.729 39.5811C106.716 39.5765 106.698 39.5742 106.675 39.5742C106.638 39.5742 106.604 39.5902 106.572 39.6221C106.54 39.654 106.504 39.6699 106.463 39.6699C106.413 39.6699 106.365 39.6562 106.319 39.6289C106.278 39.6061 106.237 39.5879 106.196 39.5742C106.146 39.5605 106.094 39.5537 106.039 39.5537C105.984 39.5537 105.93 39.5469 105.875 39.5332C105.843 39.5195 105.793 39.4945 105.725 39.458C105.656 39.4261 105.586 39.3896 105.513 39.3486C105.444 39.3076 105.381 39.2666 105.321 39.2256C105.262 39.1846 105.223 39.1504 105.205 39.123C105.182 39.0866 105.166 39.0479 105.157 39.0068C105.153 38.9658 105.139 38.9316 105.116 38.9043C105.066 38.8451 105.005 38.7995 104.932 38.7676C104.863 38.7357 104.804 38.6878 104.754 38.624C104.731 38.6104 104.72 38.5921 104.72 38.5693C104.724 38.542 104.722 38.5169 104.713 38.4941C104.658 38.4121 104.592 38.3392 104.515 38.2754C104.437 38.2116 104.357 38.1501 104.275 38.0908C104.193 38.027 104.114 37.9632 104.036 37.8994C103.959 37.8356 103.895 37.7627 103.845 37.6807C103.831 37.6533 103.826 37.6237 103.831 37.5918C103.836 37.5553 103.826 37.5257 103.804 37.5029C103.79 37.4801 103.774 37.4665 103.756 37.4619C103.742 37.4528 103.731 37.4346 103.722 37.4072C103.69 37.3571 103.674 37.3047 103.674 37.25C103.678 37.1908 103.66 37.1383 103.619 37.0928C103.523 37.0928 103.448 37.1338 103.394 37.2158C103.343 37.2979 103.298 37.3753 103.257 37.4482C103.248 37.4756 103.241 37.5007 103.236 37.5234C103.236 37.5417 103.229 37.5622 103.216 37.585C103.207 37.6077 103.184 37.6419 103.147 37.6875C103.116 37.7331 103.081 37.7832 103.045 37.8379C103.008 37.888 102.972 37.9382 102.936 37.9883C102.899 38.0339 102.872 38.068 102.854 38.0908C102.831 38.1273 102.801 38.1569 102.765 38.1797C102.728 38.1979 102.696 38.2298 102.669 38.2754C102.628 38.3392 102.591 38.403 102.56 38.4668C102.532 38.5306 102.5 38.5921 102.464 38.6514C102.427 38.7106 102.384 38.7653 102.334 38.8154C102.284 38.8656 102.218 38.9089 102.136 38.9453V39.0273C102.113 39.0501 102.09 39.0592 102.067 39.0547C102.045 39.0501 102.022 39.0592 101.999 39.082C101.953 39.1139 101.912 39.1504 101.876 39.1914C101.84 39.237 101.801 39.278 101.76 39.3145C101.723 39.3509 101.682 39.3828 101.637 39.4102C101.596 39.4375 101.543 39.4512 101.479 39.4512C101.379 39.4512 101.288 39.4261 101.206 39.376C101.129 39.3304 101.047 39.2894 100.96 39.2529C100.933 39.2074 100.892 39.18 100.837 39.1709C100.787 39.1618 100.737 39.1504 100.687 39.1367C100.636 39.1276 100.591 39.1071 100.55 39.0752C100.513 39.0479 100.495 38.9909 100.495 38.9043C100.495 38.8223 100.509 38.7516 100.536 38.6924C100.568 38.6286 100.604 38.5716 100.646 38.5215C100.691 38.4714 100.737 38.4235 100.782 38.3779C100.832 38.3278 100.878 38.2731 100.919 38.2139C100.942 38.1729 100.96 38.1296 100.974 38.084C100.992 38.0339 101.008 37.986 101.021 37.9404C101.04 37.8903 101.06 37.8424 101.083 37.7969C101.11 37.7513 101.145 37.7126 101.186 37.6807C101.213 37.6579 101.243 37.6419 101.274 37.6328C101.311 37.6237 101.34 37.6077 101.363 37.585C101.386 37.5622 101.4 37.5348 101.404 37.5029C101.413 37.4665 101.429 37.4346 101.452 37.4072C101.475 37.3844 101.5 37.3708 101.527 37.3662C101.555 37.3571 101.575 37.3411 101.589 37.3184C101.612 37.291 101.621 37.2614 101.616 37.2295C101.612 37.1976 101.616 37.168 101.63 37.1406C101.671 37.0814 101.698 37.0358 101.712 37.0039C101.73 36.972 101.742 36.9469 101.746 36.9287C101.755 36.9059 101.762 36.8854 101.767 36.8672C101.776 36.8444 101.792 36.8125 101.814 36.7715C101.842 36.7214 101.878 36.6781 101.924 36.6416C101.974 36.6006 102.013 36.555 102.04 36.5049C102.076 36.4548 102.099 36.4023 102.108 36.3477C102.118 36.2884 102.14 36.2337 102.177 36.1836C102.19 36.1608 102.211 36.1471 102.238 36.1426C102.27 36.138 102.298 36.1243 102.32 36.1016C102.343 36.0697 102.359 36.0332 102.368 35.9922C102.377 35.9466 102.386 35.9033 102.396 35.8623C102.409 35.8213 102.425 35.7826 102.443 35.7461C102.462 35.7096 102.493 35.68 102.539 35.6572C102.512 35.5661 102.466 35.4886 102.402 35.4248C102.343 35.361 102.282 35.2972 102.218 35.2334C102.218 35.1514 102.19 35.0283 102.136 34.8643C102.081 34.7002 102.013 34.5316 101.931 34.3584C101.853 34.1807 101.771 34.0166 101.685 33.8662C101.598 33.7158 101.521 33.6156 101.452 33.5654C101.425 33.4971 101.404 33.4287 101.391 33.3604C101.382 33.2874 101.375 33.2145 101.37 33.1416C101.366 33.0687 101.361 32.9958 101.356 32.9229C101.352 32.8499 101.34 32.7793 101.322 32.7109C101.299 32.6471 101.279 32.6061 101.261 32.5879C101.247 32.5651 101.222 32.5332 101.186 32.4922C101.145 32.4375 101.113 32.3783 101.09 32.3145C101.072 32.2507 101.051 32.1891 101.028 32.1299C101.01 32.0661 100.99 32.0023 100.967 31.9385C100.944 31.8747 100.91 31.8154 100.864 31.7607C100.873 31.7243 100.88 31.6901 100.885 31.6582C100.889 31.6217 100.892 31.5853 100.892 31.5488C100.892 31.4577 100.876 31.3711 100.844 31.2891C100.816 31.207 100.78 31.1273 100.734 31.0498V30.9336C100.739 30.8561 100.734 30.7809 100.721 30.708C100.707 30.6351 100.691 30.5645 100.673 30.4961C100.655 30.4232 100.636 30.3503 100.618 30.2773C100.604 30.2044 100.598 30.1292 100.598 30.0518C100.598 30.0199 100.607 29.9629 100.625 29.8809C100.648 29.7988 100.675 29.7145 100.707 29.6279C100.739 29.5368 100.773 29.4548 100.81 29.3818C100.851 29.3089 100.887 29.2633 100.919 29.2451C100.96 29.2087 101.008 29.1859 101.062 29.1768C101.117 29.1631 101.172 29.1562 101.227 29.1562C101.391 29.1562 101.525 29.1859 101.63 29.2451C101.735 29.2998 101.819 29.375 101.883 29.4707C101.947 29.5664 101.997 29.6758 102.033 29.7988C102.07 29.9219 102.099 30.0518 102.122 30.1885C102.145 30.3206 102.165 30.4528 102.184 30.585C102.202 30.7171 102.229 30.8379 102.266 30.9473C102.284 31.002 102.298 31.0384 102.307 31.0566C102.316 31.0749 102.323 31.0908 102.327 31.1045C102.336 31.1182 102.341 31.1387 102.341 31.166C102.345 31.1888 102.348 31.2344 102.348 31.3027C102.348 31.3665 102.364 31.4303 102.396 31.4941C102.432 31.5534 102.462 31.6149 102.484 31.6787C102.512 31.7334 102.53 31.7926 102.539 31.8564C102.548 31.9157 102.564 31.9772 102.587 32.041C102.628 32.1549 102.685 32.262 102.758 32.3623C102.835 32.458 102.899 32.5605 102.949 32.6699C102.963 32.7064 102.97 32.7451 102.97 32.7861C102.97 32.8226 102.977 32.859 102.99 32.8955C103.004 32.9183 103.018 32.9411 103.031 32.9639C103.049 32.9821 103.063 33.0026 103.072 33.0254C103.104 33.0938 103.122 33.1621 103.127 33.2305C103.136 33.2988 103.152 33.3649 103.175 33.4287C103.216 33.5426 103.266 33.6497 103.325 33.75C103.384 33.8503 103.437 33.9574 103.482 34.0713C103.523 34.0531 103.553 34.0234 103.571 33.9824C103.59 33.9414 103.603 33.8958 103.612 33.8457C103.621 33.7956 103.628 33.7454 103.633 33.6953C103.637 33.6452 103.646 33.6019 103.66 33.5654C103.71 33.5381 103.756 33.5085 103.797 33.4766C103.842 33.4447 103.89 33.415 103.94 33.3877C103.968 33.2738 104.009 33.1712 104.063 33.0801C104.118 32.9844 104.173 32.891 104.228 32.7998C104.287 32.7087 104.339 32.613 104.385 32.5127C104.435 32.4124 104.465 32.2985 104.474 32.1709C104.528 32.1208 104.578 32.0615 104.624 31.9932C104.674 31.9202 104.722 31.8451 104.768 31.7676C104.813 31.6855 104.859 31.6058 104.904 31.5283C104.954 31.4508 105.007 31.3802 105.062 31.3164C105.121 31.2572 105.16 31.1888 105.178 31.1113C105.201 31.0339 105.237 30.9655 105.287 30.9062V30.5439C105.328 30.5029 105.376 30.4368 105.431 30.3457C105.485 30.2546 105.538 30.1566 105.588 30.0518C105.643 29.9469 105.69 29.8444 105.731 29.7441C105.777 29.6439 105.811 29.5641 105.834 29.5049C105.848 29.4775 105.854 29.4479 105.854 29.416C105.854 29.3841 105.861 29.3545 105.875 29.3271C105.907 29.2725 105.955 29.2201 106.019 29.1699C106.082 29.1152 106.153 29.0674 106.23 29.0264C106.312 28.9854 106.392 28.9535 106.47 28.9307C106.552 28.9033 106.625 28.8896 106.688 28.8896C106.739 28.8896 106.786 28.8942 106.832 28.9033C106.878 28.9124 106.923 28.9329 106.969 28.9648C106.982 29.0195 107.003 29.0719 107.03 29.1221C107.062 29.1676 107.092 29.2155 107.119 29.2656C107.151 29.3112 107.178 29.3613 107.201 29.416C107.224 29.4661 107.235 29.5208 107.235 29.5801Z" fill="white"/>
<g clip-path="url(#clip0_7412_102734)">
<path d="M27.5347 16.3756C28.3285 15.0717 29.6951 13.9821 31.2929 14C33.1604 13.9388 34.6657 15.2911 35.7523 16.6563C38.9428 20.8129 40.3402 26.3934 39.2433 31.5222C41.7119 29.7488 44.4092 28.1183 47.4481 27.5671C48.7222 27.2967 50.2096 27.488 51.1703 28.4347C51.8844 29.1874 52.0668 30.2923 51.9795 31.2926C51.7688 33.3773 50.5949 35.3089 48.9174 36.5617C47.1655 37.886 45.1285 38.8021 43.0323 39.4451C44.72 39.9605 46.6081 40.6087 47.5226 42.2366C48.4114 44.1197 47.1321 46.5132 45.1927 47.1205C42.7703 47.9472 40.2246 47.049 37.9872 46.0973C38.6191 47.2838 39.0661 48.5571 39.3949 49.8584C34.4576 48.8607 30.8613 44.7525 28.7009 40.453C27.8995 40.8281 27.098 41.3435 26.1681 41.244C24.2877 41.2797 22.4664 39.5931 22.6488 37.6768C22.6231 36.9113 23.1729 36.3193 23.774 35.9213C22.1222 34.8266 20.1802 34.0637 18.1663 34.1887C17.3031 34.1759 16.6378 35.0971 15.7541 34.7271C15.4022 33.8136 16.4374 33.3645 17.1721 33.2778C19.782 32.9613 22.3791 34.0279 24.3494 35.6814C25.3152 36.0233 26.3685 36.1356 27.3446 36.475C25.287 32.3158 24.6525 27.488 25.3332 22.9206C25.7185 20.6471 26.3119 18.3531 27.5347 16.373V16.3756ZM29.04 16.3194C27.5938 17.8632 27.0235 19.9785 26.6202 21.9969C26.2374 24.2525 26.0962 26.5848 26.4815 28.8506C26.8052 33.2778 28.8859 37.5875 32.2716 40.5066C32.5516 39.0368 33.3299 37.7483 34.1905 36.5464C35.0382 35.4313 35.9963 34.4005 37.011 33.4334C37.4066 33.0175 38.0206 32.7011 38.0694 32.0683C38.763 27.9907 37.8022 23.7499 35.9244 20.101C35.0228 18.445 33.9798 16.7405 32.3384 15.7198C31.2774 15.0258 29.8492 15.434 29.04 16.3194ZM39.1046 33.0864C36.7875 35.0052 34.5321 37.2047 33.3068 39.9861C34.9072 39.1746 36.7207 38.899 38.5035 38.8659C39.3974 38.8429 40.3119 39.0292 41.1879 38.774C42.4081 38.4449 43.6129 38.0493 44.7637 37.5237C46.4206 36.8194 48.0184 35.9162 49.3464 34.6888C50.5923 33.561 51.0521 31.5809 50.2866 30.0703C49.6341 28.8812 48.0954 28.945 46.9395 29.1441C44.029 29.7437 41.4705 31.3666 39.1046 33.0864ZM33.3505 40.5168C33.1013 40.698 32.9241 40.9531 32.7263 41.1828C35.2874 44.01 38.7989 46.0386 42.6316 46.4851C43.6591 46.5617 44.869 46.5897 45.6756 45.837C46.5105 44.8112 46.5439 43.1118 45.5754 42.155C44.9692 41.5196 44.1549 41.1369 43.356 40.8051C40.1809 39.5625 36.6026 39.5752 33.3505 40.5168Z" fill="black"/>
<path d="M29.04 16.3194C29.8492 15.434 31.2774 15.0258 32.3384 15.7198C33.9798 16.7405 35.0228 18.445 35.9244 20.101C37.8022 23.7499 38.7629 27.9907 38.0694 32.0683C38.0206 32.7011 37.4066 33.0175 37.011 33.4334C35.9963 34.4005 35.0382 35.4313 34.1905 36.5464C33.5688 35.9927 32.9343 35.4594 32.2818 34.9465C30.4452 33.5329 28.9784 31.7187 27.5681 29.9045C27.2496 29.509 26.8642 29.1772 26.4815 28.8506C26.0962 26.5848 26.2374 24.2525 26.6202 21.9969C27.0235 19.9785 27.5938 17.8632 29.04 16.3194Z" fill="#FED86A"/>
<path d="M26.4815 28.8506C26.8642 29.1773 27.2495 29.509 27.5681 29.9045C28.9784 31.7187 30.4451 33.5329 32.2818 34.9466C32.9343 35.4594 33.5688 35.9927 34.1905 36.5464C33.3299 37.7483 32.5516 39.0369 32.2716 40.5066C28.8859 37.5875 26.8051 33.2778 26.4815 28.8506Z" fill="#E5A636"/>
<path d="M39.1046 33.0864C41.4705 31.3666 44.029 29.7437 46.9394 29.1441C48.0954 28.945 49.6341 28.8812 50.2866 30.0703C51.0521 31.5809 50.5923 33.561 49.3464 34.6888C48.0183 35.9162 46.4205 36.8194 44.7637 37.5237C44.1754 37.3859 43.5846 37.2941 42.9886 37.2303C42.855 35.9697 41.8738 34.8496 40.6741 34.4592C39.9703 34.2423 39.531 33.6401 39.1046 33.0864Z" fill="#FED76D"/>
<path d="M12.0987 30.351C15.2738 29.0139 18.8881 29.9121 21.7677 31.5452C20.2907 31.3538 18.9266 30.6674 17.4316 30.5628C15.7952 30.351 14.0176 30.4684 12.5842 31.3461C11.8624 31.8182 11.2793 32.4663 10.578 32.9639C10.4341 32.8695 10.1516 32.6781 10.0103 32.5837C9.86643 31.3691 11.174 30.772 12.0987 30.351Z" fill="#171717"/>
<path d="M33.3068 39.9861C34.5321 37.2048 36.7875 35.0052 39.1046 33.0864C39.531 33.6401 39.9703 34.2423 40.6741 34.4592C41.8738 34.8496 42.855 35.9698 42.9886 37.2303C43.5846 37.2941 44.1754 37.3859 44.7637 37.5237C43.6128 38.0494 42.4081 38.4449 41.1879 38.774C40.3119 39.0292 39.3974 38.8429 38.5035 38.8659C36.7207 38.8991 34.9072 39.1746 33.3068 39.9861Z" fill="#FCD167"/>
<path d="M33.3504 40.5168C36.6026 39.5752 40.1809 39.5625 43.356 40.8051C44.1549 41.1369 44.9692 41.5196 45.5754 42.155C46.5438 43.1118 46.5104 44.8112 45.6756 45.837C44.869 46.5897 43.6591 46.5617 42.6315 46.4851C38.7989 46.0386 35.2873 44.01 32.7262 41.1828C32.924 40.9531 33.1013 40.698 33.3504 40.5168Z" fill="#F9C65A"/>
</g>
<defs>
<clipPath id="clip0_7412_102734">
<rect width="42" height="41" fill="white" transform="translate(10 14)"/>
</clipPath>
</defs>
</svg>
