<svg width="154" height="70" viewBox="0 0 154 70" fill="none" xmlns="http://www.w3.org/2000/svg">
<rect width="154" height="70" rx="20" fill="white" fill-opacity="0.1"/>
<path d="M69.8633 38.2412C69.8633 38.3415 69.8405 38.444 69.7949 38.5488C69.7539 38.6536 69.7197 38.7516 69.6924 38.8428C69.6331 38.8564 69.583 38.8724 69.542 38.8906C69.5055 38.9043 69.4691 38.918 69.4326 38.9316C69.3962 38.9453 69.3551 38.959 69.3096 38.9727C69.264 38.9818 69.2048 38.9863 69.1318 38.9863C69.0908 38.9863 69.0635 38.9909 69.0498 39C69.0361 39.0091 69.0225 39.0205 69.0088 39.0342C68.9951 39.0479 68.9792 39.0592 68.9609 39.0684C68.9427 39.0775 68.9108 39.082 68.8652 39.082C68.8105 39.082 68.7536 39.0752 68.6943 39.0615C68.6396 39.0479 68.5804 39.0365 68.5166 39.0273C68.5166 39.0319 68.5143 39.0365 68.5098 39.041C68.5098 39.0456 68.5098 39.0524 68.5098 39.0615C68.5052 39.0706 68.5029 39.0775 68.5029 39.082C68.4756 39.082 68.4437 39.0729 68.4072 39.0547C68.3708 39.0365 68.332 39.0273 68.291 39.0273H67.5391C67.4069 39.0273 67.2816 39.0433 67.1631 39.0752C67.0446 39.1071 66.9215 39.123 66.7939 39.123C66.7028 39.123 66.6139 39.1162 66.5273 39.1025C66.4408 39.0889 66.3519 39.082 66.2607 39.082C66.0693 39.082 65.8825 39.1025 65.7002 39.1436C65.5179 39.1891 65.3311 39.2119 65.1396 39.2119C64.9665 39.2119 64.791 39.1846 64.6133 39.1299C64.4355 39.0752 64.2806 39 64.1484 38.9043C64.0846 38.7357 64.0208 38.5716 63.957 38.4121C63.8978 38.248 63.8682 38.0749 63.8682 37.8926C63.8682 37.7786 63.891 37.6715 63.9365 37.5713C63.9821 37.471 64.0049 37.3639 64.0049 37.25C64.0049 37.1953 63.9958 37.1452 63.9775 37.0996C63.9593 37.0495 63.9388 37.0016 63.916 36.9561C63.8932 36.9105 63.8727 36.8649 63.8545 36.8193C63.8363 36.7738 63.8271 36.7305 63.8271 36.6895C63.8271 36.6211 63.8363 36.5527 63.8545 36.4844C63.8727 36.4115 63.8932 36.3408 63.916 36.2725C63.9388 36.2041 63.9593 36.1357 63.9775 36.0674C63.9958 35.9945 64.0049 35.9215 64.0049 35.8486C64.0049 35.6618 63.9821 35.4772 63.9365 35.2949C63.891 35.1081 63.8682 34.9189 63.8682 34.7275C63.8682 34.5316 63.8773 34.3356 63.8955 34.1396C63.9137 33.9437 63.9229 33.7432 63.9229 33.5381L63.9092 32.4512C63.9092 32.3737 63.9023 32.3008 63.8887 32.2324C63.875 32.1641 63.8682 32.0911 63.8682 32.0137C63.8682 31.9225 63.8841 31.8314 63.916 31.7402C63.9479 31.6491 63.9639 31.5579 63.9639 31.4668C63.9639 31.403 63.9548 31.3415 63.9365 31.2822C63.9183 31.2184 63.9092 31.1546 63.9092 31.0908C63.9092 31.027 63.9183 30.9655 63.9365 30.9062C63.9548 30.8424 63.9639 30.7786 63.9639 30.7148C63.9639 30.6009 63.9479 30.4915 63.916 30.3867C63.8841 30.2773 63.8682 30.1657 63.8682 30.0518C63.8682 29.9561 63.8796 29.8581 63.9023 29.7578C63.9297 29.653 63.9684 29.5573 64.0186 29.4707C64.0732 29.3841 64.1393 29.3135 64.2168 29.2588C64.2943 29.1995 64.3877 29.1699 64.4971 29.1699C64.5609 29.1699 64.6383 29.1745 64.7295 29.1836C64.8252 29.1927 64.9027 29.2132 64.9619 29.2451C65.0166 29.2679 65.0713 29.3158 65.126 29.3887C65.1852 29.457 65.2399 29.5345 65.29 29.6211C65.3402 29.7031 65.3835 29.7874 65.4199 29.874C65.4564 29.9606 65.4814 30.0335 65.4951 30.0928C65.5225 30.234 65.5384 30.3799 65.543 30.5303C65.5521 30.6761 65.5566 30.8265 65.5566 30.9814C65.5566 31.1318 65.5521 31.2845 65.543 31.4395C65.5384 31.5898 65.5361 31.7357 65.5361 31.877C65.5361 32.0684 65.5452 32.2598 65.5635 32.4512C65.5817 32.6426 65.5908 32.8385 65.5908 33.0391C65.5908 33.1803 65.5703 33.3193 65.5293 33.4561C65.4928 33.5928 65.4746 33.7318 65.4746 33.873C65.4746 33.9779 65.4928 34.0758 65.5293 34.167C65.5703 34.2536 65.5908 34.3424 65.5908 34.4336C65.5908 34.6341 65.584 34.8301 65.5703 35.0215C65.5566 35.2083 65.5498 35.3997 65.5498 35.5957C65.5498 35.7871 65.5544 35.974 65.5635 36.1562C65.5726 36.3385 65.5771 36.5208 65.5771 36.7031C65.5771 36.7943 65.5749 36.8831 65.5703 36.9697C65.5658 37.0518 65.5589 37.1361 65.5498 37.2227C65.5771 37.3138 65.666 37.3776 65.8164 37.4141C65.9668 37.446 66.1354 37.4665 66.3223 37.4756C66.5091 37.4801 66.6914 37.4779 66.8691 37.4688C67.0469 37.4551 67.1768 37.4482 67.2588 37.4482C67.3226 37.4482 67.3841 37.4574 67.4434 37.4756C67.5072 37.4938 67.571 37.5029 67.6348 37.5029C67.735 37.5029 67.8307 37.487 67.9219 37.4551C68.013 37.4232 68.1087 37.4072 68.209 37.4072C68.2728 37.4072 68.332 37.4141 68.3867 37.4277C68.446 37.4414 68.5075 37.4482 68.5713 37.4482C68.7262 37.4574 68.8584 37.471 68.9678 37.4893C69.0771 37.5029 69.1774 37.5303 69.2686 37.5713C69.3597 37.6123 69.444 37.6693 69.5215 37.7422C69.6035 37.8151 69.6924 37.9131 69.7881 38.0361C69.8382 38.0999 69.8633 38.1683 69.8633 38.2412ZM77.0615 32.3896C77.0433 32.4124 77.0319 32.4512 77.0273 32.5059C77.0273 32.5605 77.0273 32.6198 77.0273 32.6836C77.0319 32.7474 77.0365 32.8089 77.041 32.8682C77.0456 32.9274 77.0479 32.973 77.0479 33.0049C77.0479 33.055 77.0456 33.1051 77.041 33.1553C77.041 33.2008 77.0342 33.2487 77.0205 33.2988L76.9316 33.4287C76.9225 33.4561 76.9202 33.4834 76.9248 33.5107C76.9294 33.5335 76.9316 33.5563 76.9316 33.5791V33.6133L76.8359 33.668C76.7995 33.7454 76.7676 33.8275 76.7402 33.9141C76.7129 34.0007 76.681 34.0872 76.6445 34.1738C76.6126 34.2559 76.5716 34.3356 76.5215 34.4131C76.4759 34.486 76.4167 34.5498 76.3438 34.6045C76.321 34.6182 76.2982 34.625 76.2754 34.625C76.2526 34.625 76.2298 34.6364 76.207 34.6592C76.1296 34.7184 76.0612 34.7822 76.002 34.8506C75.9427 34.9144 75.8607 34.9531 75.7559 34.9668C75.7194 35.0215 75.6533 35.099 75.5576 35.1992C75.4665 35.2949 75.3662 35.3952 75.2568 35.5C75.152 35.6048 75.0495 35.7028 74.9492 35.7939C74.849 35.8805 74.7738 35.9375 74.7236 35.9648C74.6917 35.9831 74.6576 35.9945 74.6211 35.999C74.5846 35.999 74.5482 36.0013 74.5117 36.0059C74.4753 36.0059 74.4388 36.0104 74.4023 36.0195C74.3704 36.0241 74.3408 36.0378 74.3135 36.0605C74.2451 36.1152 74.1676 36.1654 74.0811 36.2109C73.999 36.252 73.9102 36.277 73.8145 36.2861C73.7689 36.3454 73.7119 36.391 73.6436 36.4229C73.5798 36.4548 73.5114 36.4844 73.4385 36.5117C73.3656 36.5391 73.2949 36.5687 73.2266 36.6006C73.1582 36.6325 73.0967 36.6758 73.042 36.7305C72.9508 36.7578 72.8551 36.7715 72.7549 36.7715C72.6546 36.7715 72.5544 36.7874 72.4541 36.8193C72.4131 36.9788 72.3857 37.1383 72.3721 37.2979C72.3584 37.4528 72.3516 37.61 72.3516 37.7695C72.3516 37.929 72.3538 38.0885 72.3584 38.248C72.3675 38.4076 72.3721 38.5648 72.3721 38.7197V38.8428C72.3219 38.902 72.2741 38.959 72.2285 39.0137C72.1829 39.0729 72.1351 39.123 72.085 39.1641C72.0348 39.2096 71.9756 39.2438 71.9072 39.2666C71.8434 39.2939 71.7682 39.3076 71.6816 39.3076C71.5632 39.3076 71.4492 39.2848 71.3398 39.2393C71.235 39.1982 71.1257 39.1595 71.0117 39.123C70.9753 39.082 70.9502 39.0251 70.9365 38.9521C70.9274 38.8747 70.9115 38.8109 70.8887 38.7607C70.8112 38.7243 70.7611 38.6947 70.7383 38.6719C70.7155 38.6491 70.7041 38.599 70.7041 38.5215C70.7041 38.4805 70.6882 38.444 70.6562 38.4121C70.6243 38.3802 70.6084 38.3278 70.6084 38.2549C70.6084 38.1364 70.6243 38.0111 70.6562 37.8789C70.6927 37.7467 70.7223 37.6214 70.7451 37.5029C70.7588 37.4163 70.7611 37.3389 70.752 37.2705C70.7474 37.2021 70.7451 37.1247 70.7451 37.0381C70.7451 36.9834 70.7588 36.9287 70.7861 36.874C70.777 36.6963 70.7725 36.5186 70.7725 36.3408C70.777 36.1585 70.777 35.9785 70.7725 35.8008C70.7679 35.623 70.7565 35.4476 70.7383 35.2744C70.7246 35.0967 70.695 34.9189 70.6494 34.7412C70.6585 34.6956 70.6722 34.6546 70.6904 34.6182C70.7132 34.5771 70.7337 34.5384 70.752 34.502C70.7747 34.4609 70.793 34.4199 70.8066 34.3789C70.8203 34.3379 70.8271 34.2923 70.8271 34.2422C70.8271 34.1283 70.8066 34.0234 70.7656 33.9277C70.7246 33.8275 70.7041 33.7227 70.7041 33.6133C70.7041 33.5221 70.7109 33.4469 70.7246 33.3877C70.7428 33.3285 70.7633 33.276 70.7861 33.2305C70.8089 33.1849 70.8294 33.1439 70.8477 33.1074C70.8659 33.071 70.8796 33.0277 70.8887 32.9775C70.875 32.9548 70.8613 32.9342 70.8477 32.916C70.834 32.8978 70.8271 32.8773 70.8271 32.8545C70.8271 32.8317 70.834 32.8135 70.8477 32.7998C70.8613 32.7861 70.875 32.7725 70.8887 32.7588C70.8796 32.6995 70.8613 32.6471 70.834 32.6016C70.8112 32.5514 70.7952 32.5013 70.7861 32.4512C70.7588 32.2871 70.7292 32.1117 70.6973 31.9248C70.6654 31.7334 70.6494 31.5579 70.6494 31.3984C70.6494 31.2572 70.6631 31.1182 70.6904 30.9814C70.7178 30.8447 70.7314 30.7035 70.7314 30.5576C70.7314 30.4163 70.7041 30.2773 70.6494 30.1406C70.7041 30.0859 70.7406 30.0221 70.7588 29.9492C70.7816 29.8717 70.8089 29.792 70.8408 29.71C70.8727 29.6279 70.9183 29.5436 70.9775 29.457C71.0413 29.3659 71.1462 29.2747 71.292 29.1836C71.3604 29.1426 71.4378 29.0947 71.5244 29.04C71.611 28.9808 71.6976 28.9398 71.7842 28.917C71.8753 28.8896 71.9665 28.8714 72.0576 28.8623C72.1533 28.8486 72.249 28.8395 72.3447 28.835C72.4404 28.8258 72.5361 28.8167 72.6318 28.8076C72.7275 28.7939 72.8232 28.7712 72.9189 28.7393C73.0146 28.7028 73.1081 28.6641 73.1992 28.623C73.2904 28.5775 73.3929 28.5547 73.5068 28.5547C73.5752 28.5547 73.6413 28.5661 73.7051 28.5889C73.7734 28.6071 73.8395 28.6299 73.9033 28.6572C73.9671 28.68 74.0286 28.7028 74.0879 28.7256C74.1517 28.7438 74.2178 28.7529 74.2861 28.7529C74.3499 28.7529 74.4137 28.7461 74.4775 28.7324C74.5413 28.7188 74.6051 28.7074 74.6689 28.6982C74.8011 28.762 74.9287 28.8304 75.0518 28.9033C75.1794 28.9717 75.307 29.0378 75.4346 29.1016C75.4619 29.1152 75.4915 29.1243 75.5234 29.1289C75.5599 29.1289 75.5918 29.1335 75.6191 29.1426C75.7741 29.2064 75.8971 29.293 75.9883 29.4023C76.084 29.5072 76.1888 29.6165 76.3027 29.7305C76.321 29.7578 76.3392 29.7943 76.3574 29.8398C76.3802 29.8854 76.3984 29.9355 76.4121 29.9902C76.4303 30.0449 76.4486 30.0996 76.4668 30.1543C76.485 30.2044 76.5055 30.2454 76.5283 30.2773C76.542 30.3047 76.5625 30.3252 76.5898 30.3389C76.6172 30.3525 76.6377 30.3753 76.6514 30.4072C76.6742 30.4346 76.6833 30.4642 76.6787 30.4961C76.6787 30.528 76.6901 30.5576 76.7129 30.585C76.7357 30.6351 76.7676 30.6829 76.8086 30.7285C76.8542 30.7695 76.8952 30.8151 76.9316 30.8652C76.9316 31.1204 76.9499 31.3757 76.9863 31.6309C77.0228 31.8861 77.0479 32.139 77.0615 32.3896ZM75.3936 31.8018C75.3936 31.7197 75.3822 31.6423 75.3594 31.5693C75.3411 31.4919 75.3184 31.4167 75.291 31.3438C75.2682 31.2663 75.2477 31.1888 75.2295 31.1113C75.2113 31.0293 75.2044 30.9473 75.209 30.8652C75.1543 30.8105 75.0882 30.765 75.0107 30.7285C74.9378 30.6921 74.8695 30.6442 74.8057 30.585C74.7646 30.4984 74.7031 30.4391 74.6211 30.4072C74.5436 30.3708 74.457 30.3503 74.3613 30.3457C74.2656 30.3366 74.1676 30.3366 74.0674 30.3457C73.9717 30.3548 73.8828 30.3594 73.8008 30.3594C73.696 30.3594 73.5889 30.3457 73.4795 30.3184C73.3747 30.291 73.2699 30.2773 73.165 30.2773C72.9827 30.2773 72.8096 30.3275 72.6455 30.4277C72.4814 30.5234 72.3607 30.651 72.2832 30.8105C72.2832 30.8652 72.2855 30.9199 72.29 30.9746C72.2946 31.0293 72.2969 31.0817 72.2969 31.1318C72.2969 31.1956 72.29 31.2594 72.2764 31.3232C72.2673 31.3825 72.2513 31.4395 72.2285 31.4941C72.265 31.5807 72.2923 31.6696 72.3105 31.7607C72.3333 31.8473 72.3447 31.9362 72.3447 32.0273C72.3447 32.123 72.3333 32.221 72.3105 32.3213C72.2923 32.4215 72.2695 32.5218 72.2422 32.6221C72.2194 32.7178 72.1966 32.8112 72.1738 32.9023C72.1556 32.9935 72.1465 33.0801 72.1465 33.1621C72.1465 33.2624 72.1647 33.3604 72.2012 33.4561C72.2422 33.5518 72.2695 33.6497 72.2832 33.75C72.2969 33.9049 72.2969 34.0622 72.2832 34.2217C72.2741 34.3766 72.2695 34.5316 72.2695 34.6865C72.2695 34.7868 72.2741 34.8825 72.2832 34.9736C72.2923 35.0648 72.3083 35.1514 72.3311 35.2334C72.445 35.238 72.5498 35.2288 72.6455 35.2061C72.7458 35.1787 72.8415 35.1468 72.9326 35.1104C73.0283 35.0693 73.1217 35.026 73.2129 34.9805C73.304 34.9303 73.402 34.8802 73.5068 34.8301C73.5706 34.8027 73.6367 34.7777 73.7051 34.7549C73.778 34.7275 73.8464 34.6956 73.9102 34.6592C73.9466 34.6364 74.0013 34.5908 74.0742 34.5225C74.1517 34.4541 74.2292 34.3789 74.3066 34.2969C74.3887 34.2148 74.4639 34.1374 74.5322 34.0645C74.6006 33.987 74.6462 33.9277 74.6689 33.8867C74.6826 33.8639 74.6895 33.8411 74.6895 33.8184C74.6895 33.7956 74.7008 33.7728 74.7236 33.75C74.7373 33.7363 74.7578 33.7295 74.7852 33.7295C74.8125 33.7295 74.833 33.7227 74.8467 33.709C74.8604 33.6953 74.8831 33.6702 74.915 33.6338C74.9515 33.5928 74.988 33.5518 75.0244 33.5107C75.0609 33.4652 75.0928 33.4219 75.1201 33.3809C75.1475 33.3398 75.1634 33.3125 75.168 33.2988C75.1908 33.235 75.1953 33.1689 75.1816 33.1006C75.1725 33.0277 75.168 32.9548 75.168 32.8818C75.168 32.8135 75.1748 32.7542 75.1885 32.7041C75.2021 32.6494 75.2158 32.5924 75.2295 32.5332C75.2477 32.474 75.2637 32.4102 75.2773 32.3418C75.291 32.2734 75.2979 32.1914 75.2979 32.0957C75.2979 32.0273 75.3138 31.9727 75.3457 31.9316C75.3776 31.8906 75.3936 31.8473 75.3936 31.8018ZM88.375 36.2725C88.375 36.391 88.3499 36.5254 88.2998 36.6758C88.2542 36.8216 88.1859 36.9333 88.0947 37.0107C88.1038 37.029 88.1084 37.0563 88.1084 37.0928C88.1084 37.1657 88.0947 37.2318 88.0674 37.291C88.0446 37.3457 88.0264 37.4027 88.0127 37.4619C87.9626 37.6351 87.8919 37.8037 87.8008 37.9678C87.7096 38.1318 87.6025 38.2845 87.4795 38.4258C87.3564 38.5671 87.2197 38.6947 87.0693 38.8086C86.9235 38.9225 86.7708 39.0182 86.6113 39.0957C86.5794 39.1094 86.5544 39.1276 86.5361 39.1504C86.5179 39.1777 86.4997 39.2051 86.4814 39.2324C86.4632 39.2598 86.4427 39.2848 86.4199 39.3076C86.4017 39.3304 86.3766 39.3486 86.3447 39.3623C86.1624 39.4261 85.9801 39.4854 85.7979 39.54C85.6156 39.5993 85.4333 39.6608 85.251 39.7246C85.2236 39.7337 85.194 39.7406 85.1621 39.7451C85.1302 39.7497 85.0983 39.7588 85.0664 39.7725C85.0527 39.7861 85.0391 39.8044 85.0254 39.8271C85.0163 39.8545 84.998 39.8682 84.9707 39.8682C84.8431 39.8682 84.6882 39.8636 84.5059 39.8545C84.3281 39.8454 84.1436 39.8317 83.9521 39.8135C83.7607 39.7952 83.5762 39.7725 83.3984 39.7451C83.2207 39.7223 83.0726 39.6973 82.9541 39.6699L82.8584 39.5879L82.7764 39.6289C82.6533 39.6107 82.5508 39.5879 82.4688 39.5605C82.3867 39.5378 82.3161 39.5036 82.2568 39.458C82.1976 39.417 82.1475 39.36 82.1064 39.2871C82.07 39.2142 82.0358 39.1185 82.0039 39C81.9902 38.959 81.9834 38.9157 81.9834 38.8701C81.9834 38.82 81.9766 38.7744 81.9629 38.7334C81.9355 38.665 81.915 38.6126 81.9014 38.5762C81.8923 38.5352 81.8854 38.4964 81.8809 38.46C81.8809 38.4235 81.8809 38.3848 81.8809 38.3438C81.8809 38.2982 81.8809 38.2412 81.8809 38.1729C81.8809 38.0726 81.8626 37.9769 81.8262 37.8857C81.7943 37.7946 81.7783 37.6989 81.7783 37.5986C81.7783 37.4801 81.7943 37.3639 81.8262 37.25C81.8626 37.1361 81.8809 37.0153 81.8809 36.8877C81.8809 36.8102 81.8626 36.7396 81.8262 36.6758C81.7943 36.6074 81.7783 36.5368 81.7783 36.4639C81.7783 36.4092 81.7852 36.3568 81.7988 36.3066C81.8125 36.2565 81.8193 36.2018 81.8193 36.1426C81.8193 36.0514 81.8034 35.9557 81.7715 35.8555C81.7396 35.7507 81.71 35.6549 81.6826 35.5684C81.7327 35.4727 81.7646 35.3701 81.7783 35.2607C81.7965 35.1514 81.8057 35.0397 81.8057 34.9258C81.8057 34.6842 81.7852 34.4473 81.7441 34.2148C81.7031 33.9779 81.6826 33.7386 81.6826 33.4971C81.6826 33.3786 81.6986 33.2646 81.7305 33.1553C81.7624 33.0459 81.7783 32.932 81.7783 32.8135C81.7783 32.5947 81.7578 32.3896 81.7168 32.1982C81.6758 32.0068 81.637 31.8063 81.6006 31.5967C81.6279 31.5192 81.6644 31.4417 81.71 31.3643C81.7555 31.2822 81.7783 31.1956 81.7783 31.1045C81.7783 31.0817 81.7738 31.0589 81.7646 31.0361C81.7555 31.0088 81.7464 30.9837 81.7373 30.9609C81.7373 30.9336 81.7441 30.9085 81.7578 30.8857C81.7715 30.863 81.7783 30.8379 81.7783 30.8105C81.7783 30.7057 81.7555 30.6055 81.71 30.5098C81.6644 30.4095 81.6416 30.3001 81.6416 30.1816C81.6416 30.1224 81.6462 30.0518 81.6553 29.9697C81.6689 29.8831 81.6826 29.7965 81.6963 29.71C81.7145 29.6234 81.7327 29.5413 81.751 29.4639C81.7738 29.3818 81.7965 29.3135 81.8193 29.2588C81.8512 29.195 81.8854 29.1494 81.9219 29.1221C81.9629 29.0947 82.0039 29.0605 82.0449 29.0195L82.0859 28.9307C82.1543 28.8988 82.2363 28.8714 82.332 28.8486C82.4277 28.8258 82.528 28.8076 82.6328 28.7939C82.7422 28.7803 82.847 28.7689 82.9473 28.7598C83.0521 28.7461 83.1432 28.7301 83.2207 28.7119C83.3118 28.6891 83.4007 28.6572 83.4873 28.6162C83.5739 28.5706 83.6673 28.541 83.7676 28.5273C83.8314 28.5182 83.8975 28.516 83.9658 28.5205C84.0342 28.5251 84.1025 28.5273 84.1709 28.5273C84.2165 28.5273 84.2575 28.5273 84.2939 28.5273C84.335 28.5273 84.3691 28.5137 84.3965 28.4863C84.4102 28.4863 84.4557 28.4932 84.5332 28.5068C84.6152 28.516 84.7109 28.5319 84.8203 28.5547C84.9342 28.5729 85.055 28.5957 85.1826 28.623C85.3102 28.6458 85.431 28.6686 85.5449 28.6914C85.6589 28.7142 85.7546 28.737 85.832 28.7598C85.9141 28.778 85.9642 28.7894 85.9824 28.7939C86.0918 28.8486 86.1898 28.9215 86.2764 29.0127C86.3675 29.1038 86.4655 29.1859 86.5703 29.2588C86.6432 29.3089 86.723 29.359 86.8096 29.4092C86.9007 29.4548 86.985 29.5094 87.0625 29.5732C87.14 29.6325 87.2038 29.7031 87.2539 29.7852C87.3086 29.8626 87.3359 29.9561 87.3359 30.0654C87.3587 30.1247 87.3975 30.168 87.4521 30.1953C87.5114 30.2181 87.5615 30.25 87.6025 30.291C87.6253 30.3275 87.6458 30.3662 87.6641 30.4072C87.6823 30.4437 87.7096 30.4801 87.7461 30.5166C87.7871 30.6624 87.819 30.806 87.8418 30.9473C87.8691 31.084 87.8828 31.2298 87.8828 31.3848C87.8828 31.444 87.876 31.5283 87.8623 31.6377C87.8532 31.7471 87.8372 31.8678 87.8145 32C87.7917 32.1276 87.7643 32.262 87.7324 32.4033C87.7051 32.5446 87.6732 32.679 87.6367 32.8066C87.6048 32.9297 87.5706 33.0413 87.5342 33.1416C87.4977 33.2419 87.4613 33.3148 87.4248 33.3604C87.4066 33.3831 87.3838 33.3968 87.3564 33.4014C87.3291 33.4059 87.304 33.4196 87.2812 33.4424C87.1947 33.5381 87.1331 33.6042 87.0967 33.6406C87.0602 33.6771 87.0283 33.7044 87.001 33.7227C86.9736 33.7409 86.9395 33.7591 86.8984 33.7773C86.8574 33.7956 86.7891 33.8389 86.6934 33.9072C86.707 33.9893 86.7458 34.0462 86.8096 34.0781C86.8779 34.11 86.9463 34.1396 87.0146 34.167C87.0192 34.2126 87.0352 34.2467 87.0625 34.2695C87.0944 34.2923 87.1286 34.3105 87.165 34.3242C87.2015 34.3333 87.238 34.3424 87.2744 34.3516C87.3154 34.3607 87.3496 34.3743 87.377 34.3926C87.3815 34.4564 87.3997 34.502 87.4316 34.5293C87.4681 34.5566 87.5023 34.5794 87.5342 34.5977C87.5706 34.6159 87.6003 34.6364 87.623 34.6592C87.6458 34.6774 87.6527 34.7093 87.6436 34.7549C87.6846 34.764 87.7188 34.7822 87.7461 34.8096C87.778 34.8324 87.8053 34.8574 87.8281 34.8848C87.8555 34.9121 87.8828 34.9395 87.9102 34.9668C87.9375 34.9941 87.9717 35.0124 88.0127 35.0215V35.0967C88.0036 35.165 88.0081 35.2243 88.0264 35.2744C88.0492 35.32 88.0742 35.3656 88.1016 35.4111C88.1289 35.4567 88.154 35.5091 88.1768 35.5684C88.2041 35.623 88.2178 35.6937 88.2178 35.7803C88.2178 35.8031 88.2178 35.8213 88.2178 35.835C88.2178 35.8486 88.2223 35.8669 88.2314 35.8896C88.2907 35.9398 88.3294 36.0013 88.3477 36.0742C88.3659 36.1426 88.375 36.2087 88.375 36.2725ZM86.4268 31.9316C86.4268 31.9043 86.4154 31.8747 86.3926 31.8428C86.3698 31.8063 86.3538 31.7699 86.3447 31.7334C86.3311 31.6924 86.3265 31.6514 86.3311 31.6104C86.3402 31.5648 86.3447 31.5169 86.3447 31.4668C86.3447 31.4622 86.3311 31.4372 86.3037 31.3916C86.2764 31.3415 86.2467 31.2891 86.2148 31.2344C86.1829 31.1797 86.151 31.1296 86.1191 31.084C86.0872 31.0384 86.069 31.0133 86.0645 31.0088L86.0781 30.9473C86.0781 30.9017 86.0599 30.8447 86.0234 30.7764C85.987 30.708 85.9437 30.6419 85.8936 30.5781C85.8434 30.5098 85.7887 30.4505 85.7295 30.4004C85.6702 30.3457 85.6178 30.3092 85.5723 30.291C85.5221 30.2637 85.4697 30.2523 85.415 30.2568C85.3649 30.2614 85.3148 30.2637 85.2646 30.2637C85.1963 30.2637 85.1279 30.2546 85.0596 30.2363C84.9958 30.2135 84.932 30.1908 84.8682 30.168C84.8044 30.1406 84.7406 30.1178 84.6768 30.0996C84.613 30.0768 84.5469 30.0654 84.4785 30.0654C84.4284 30.0654 84.3874 30.0814 84.3555 30.1133C84.3236 30.1406 84.2712 30.1543 84.1982 30.1543C84.1481 30.1543 84.098 30.1475 84.0479 30.1338C84.0023 30.1201 83.9499 30.1133 83.8906 30.1133C83.8542 30.1452 83.8086 30.168 83.7539 30.1816C83.7038 30.1953 83.6491 30.2067 83.5898 30.2158C83.5352 30.2204 83.4782 30.2295 83.4189 30.2432C83.3643 30.2523 83.3118 30.2682 83.2617 30.291C83.2389 30.5736 83.2207 30.8538 83.207 31.1318C83.1979 31.4098 83.1934 31.6901 83.1934 31.9727C83.1934 32.2598 83.1979 32.5492 83.207 32.8408C83.2161 33.1325 83.2207 33.4264 83.2207 33.7227C83.2435 33.7318 83.264 33.7363 83.2822 33.7363C83.305 33.7363 83.3278 33.7363 83.3506 33.7363C83.4645 33.7363 83.5762 33.7204 83.6855 33.6885C83.7949 33.6566 83.9294 33.6406 84.0889 33.6406C84.1253 33.6406 84.1527 33.6361 84.1709 33.627C84.2575 33.6042 84.3395 33.5609 84.417 33.4971C84.4945 33.4333 84.5765 33.3877 84.6631 33.3604C84.7497 33.3285 84.834 33.3148 84.916 33.3193C84.998 33.3193 85.0824 33.3034 85.1689 33.2715C85.21 33.2533 85.2464 33.2305 85.2783 33.2031C85.3148 33.1758 85.349 33.1484 85.3809 33.1211C85.4173 33.0892 85.4538 33.0618 85.4902 33.0391C85.5267 33.0163 85.5677 33.0003 85.6133 32.9912C85.6771 32.9274 85.7454 32.8727 85.8184 32.8271C85.8913 32.777 85.9733 32.7428 86.0645 32.7246C86.1055 32.6745 86.1237 32.6221 86.1191 32.5674C86.1191 32.5081 86.1328 32.4535 86.1602 32.4033C86.1738 32.376 86.2035 32.3623 86.249 32.3623C86.2992 32.3577 86.3311 32.3441 86.3447 32.3213C86.3538 32.2985 86.3538 32.278 86.3447 32.2598C86.3356 32.2415 86.3311 32.2256 86.3311 32.2119C86.3311 32.1755 86.347 32.1367 86.3789 32.0957C86.4108 32.0501 86.4268 31.9954 86.4268 31.9316ZM86.8779 36.4229C86.8369 36.391 86.8096 36.3545 86.7959 36.3135C86.7822 36.2725 86.7754 36.2314 86.7754 36.1904C86.7754 36.1449 86.7754 36.1038 86.7754 36.0674C86.7754 36.0309 86.7663 36.0013 86.748 35.9785C86.707 35.9329 86.6729 35.8965 86.6455 35.8691C86.6227 35.8418 86.5977 35.8031 86.5703 35.7529C86.5612 35.7438 86.5316 35.7301 86.4814 35.7119C86.4313 35.6891 86.3994 35.6709 86.3857 35.6572C86.363 35.6436 86.3311 35.6185 86.29 35.582C86.249 35.5456 86.2035 35.5091 86.1533 35.4727C86.1077 35.4362 86.0645 35.402 86.0234 35.3701C85.9824 35.3337 85.9528 35.3109 85.9346 35.3018C85.8936 35.2744 85.8366 35.2653 85.7637 35.2744C85.6953 35.279 85.6315 35.2699 85.5723 35.2471C85.5312 35.2015 85.4743 35.1628 85.4014 35.1309C85.3285 35.099 85.251 35.0716 85.1689 35.0488C85.0869 35.026 85.0049 35.0101 84.9229 35.001C84.8408 34.9873 84.7679 34.9805 84.7041 34.9805C84.654 34.9805 84.5651 34.985 84.4375 34.9941C84.3145 34.9987 84.1823 35.0055 84.041 35.0146C83.8997 35.0238 83.7676 35.0352 83.6445 35.0488C83.5215 35.0579 83.4417 35.0693 83.4053 35.083C83.3688 35.2425 83.3415 35.4066 83.3232 35.5752C83.3096 35.7393 83.3027 35.901 83.3027 36.0605C83.3027 36.334 83.3164 36.6074 83.3438 36.8809C83.3757 37.1543 83.4098 37.4277 83.4463 37.7012C83.4235 37.7376 83.4053 37.7741 83.3916 37.8105C83.3825 37.8424 83.3779 37.8835 83.3779 37.9336C83.3779 37.9792 83.3802 38.0225 83.3848 38.0635C83.3893 38.1045 83.3962 38.1455 83.4053 38.1865C83.4827 38.223 83.5648 38.248 83.6514 38.2617C83.738 38.2708 83.8223 38.2754 83.9043 38.2754C84.0182 38.2754 84.1299 38.2686 84.2393 38.2549C84.3532 38.2412 84.4671 38.2275 84.5811 38.2139C84.695 38.2002 84.8066 38.1911 84.916 38.1865C85.0299 38.1774 85.1416 38.1774 85.251 38.1865C85.2692 38.1546 85.2943 38.1318 85.3262 38.1182C85.3581 38.0999 85.39 38.0863 85.4219 38.0771C85.4538 38.068 85.4857 38.0589 85.5176 38.0498C85.554 38.0407 85.5859 38.027 85.6133 38.0088C85.6725 37.9723 85.7204 37.929 85.7568 37.8789C85.7979 37.8288 85.8389 37.7832 85.8799 37.7422H86.2012C86.265 37.651 86.3356 37.5645 86.4131 37.4824C86.4951 37.3958 86.5749 37.3138 86.6523 37.2363C86.6888 37.1725 86.707 37.1064 86.707 37.0381C86.7116 36.9697 86.7253 36.9014 86.748 36.833C86.7708 36.7601 86.7982 36.694 86.8301 36.6348C86.862 36.571 86.8779 36.5003 86.8779 36.4229ZM96.6533 34.7549C96.6533 34.8734 96.6396 35.0078 96.6123 35.1582C96.585 35.3086 96.5576 35.4408 96.5303 35.5547C96.5075 35.6322 96.4733 35.7074 96.4277 35.7803C96.3867 35.8532 96.3594 35.9284 96.3457 36.0059C96.332 36.0742 96.3275 36.1449 96.332 36.2178C96.3411 36.2861 96.3457 36.3545 96.3457 36.4229C96.3457 36.5824 96.3161 36.7282 96.2568 36.8604C96.1976 36.9925 96.1383 37.1315 96.0791 37.2773C96.0563 37.3138 96.0472 37.3525 96.0518 37.3936C96.0563 37.43 96.0472 37.4665 96.0244 37.5029C96.0016 37.5394 95.9834 37.5622 95.9697 37.5713C95.9561 37.5758 95.9424 37.5827 95.9287 37.5918C95.9196 37.5964 95.9128 37.61 95.9082 37.6328C95.9036 37.651 95.9014 37.6875 95.9014 37.7422V37.7695C95.8512 37.7969 95.8171 37.8356 95.7988 37.8857C95.7852 37.9359 95.7852 37.986 95.7988 38.0361C95.7031 38.1273 95.6074 38.2207 95.5117 38.3164C95.4206 38.4076 95.3385 38.5101 95.2656 38.624C95.1745 38.7562 95.0674 38.8747 94.9443 38.9795C94.8213 39.0843 94.7005 39.1937 94.582 39.3076H94.5547C94.4089 39.3076 94.2721 39.3258 94.1445 39.3623C94.0215 39.4033 93.8962 39.4603 93.7686 39.5332C93.6865 39.5059 93.5977 39.4922 93.502 39.4922C93.3971 39.4922 93.2923 39.5059 93.1875 39.5332C93.0827 39.5605 92.9779 39.5742 92.873 39.5742C92.8229 39.5742 92.7751 39.5674 92.7295 39.5537C92.6885 39.54 92.6429 39.5332 92.5928 39.5332C92.5563 39.5332 92.5244 39.54 92.4971 39.5537C92.4697 39.5674 92.4378 39.5742 92.4014 39.5742C92.333 39.5742 92.2692 39.5583 92.21 39.5264C92.1553 39.4945 92.096 39.458 92.0322 39.417C91.9684 39.3805 91.8978 39.3486 91.8203 39.3213C91.7474 39.2985 91.6608 39.2939 91.5605 39.3076C91.4922 39.2347 91.4079 39.1686 91.3076 39.1094C91.2074 39.0501 91.1025 38.9909 90.9932 38.9316C90.8838 38.8678 90.7744 38.8018 90.665 38.7334C90.5602 38.665 90.4668 38.5853 90.3848 38.4941C90.3757 38.4805 90.3483 38.4395 90.3027 38.3711C90.2572 38.2982 90.207 38.2207 90.1523 38.1387C90.1022 38.0566 90.0544 37.9792 90.0088 37.9062C89.9632 37.8333 89.9382 37.7878 89.9336 37.7695C89.8971 37.6829 89.8743 37.5941 89.8652 37.5029C89.8561 37.4072 89.8333 37.3138 89.7969 37.2227C89.7559 37.1178 89.7148 37.0176 89.6738 36.9219C89.6328 36.8262 89.5941 36.7305 89.5576 36.6348C89.5257 36.5391 89.4984 36.4411 89.4756 36.3408C89.4528 36.2406 89.4414 36.1289 89.4414 36.0059C89.4414 35.9557 89.4482 35.9056 89.4619 35.8555C89.4801 35.8008 89.4893 35.7484 89.4893 35.6982C89.4893 35.639 89.4733 35.582 89.4414 35.5273C89.4141 35.4727 89.4004 35.418 89.4004 35.3633C89.4004 35.2904 89.43 35.2334 89.4893 35.1924C89.4437 35.1149 89.4072 35.0352 89.3799 34.9531C89.3571 34.8665 89.3457 34.7777 89.3457 34.6865C89.3457 34.5726 89.3662 34.4814 89.4072 34.4131C89.4528 34.3402 89.4938 34.2536 89.5303 34.1533C89.5212 34.1032 89.5143 34.0553 89.5098 34.0098C89.5052 33.9596 89.5029 33.9095 89.5029 33.8594C89.5029 33.7409 89.5075 33.6247 89.5166 33.5107C89.5257 33.3968 89.5303 33.2806 89.5303 33.1621C89.5303 33.0618 89.5234 32.9616 89.5098 32.8613C89.4961 32.7611 89.4893 32.6608 89.4893 32.5605C89.4893 32.474 89.5052 32.3919 89.5371 32.3145C89.569 32.237 89.585 32.1549 89.585 32.0684C89.585 31.9954 89.5667 31.9408 89.5303 31.9043L89.708 31.5352C89.6989 31.4941 89.6921 31.4508 89.6875 31.4053C89.6829 31.3597 89.6807 31.3164 89.6807 31.2754C89.6807 31.2161 89.6921 31.1478 89.7148 31.0703C89.7376 30.9883 89.7627 30.9085 89.79 30.8311C89.8174 30.7536 89.8424 30.6852 89.8652 30.626C89.888 30.5667 89.8971 30.5257 89.8926 30.5029C89.9199 30.4118 89.9518 30.3229 89.9883 30.2363C90.0247 30.1497 90.0544 30.0563 90.0771 29.9561C90.1546 29.9424 90.2298 29.9082 90.3027 29.8535C90.3802 29.7988 90.4577 29.7715 90.5352 29.7715C90.5534 29.7715 90.5762 29.7806 90.6035 29.7988C90.6354 29.8125 90.665 29.8307 90.6924 29.8535C90.7243 29.8717 90.7516 29.8923 90.7744 29.915C90.8018 29.9333 90.8245 29.9469 90.8428 29.9561C90.9111 30.0107 90.9704 30.0791 91.0205 30.1611C91.0706 30.2386 91.1117 30.3229 91.1436 30.4141C91.18 30.5007 91.2074 30.5918 91.2256 30.6875C91.2438 30.7832 91.2529 30.8743 91.2529 30.9609C91.2529 31.0612 91.2438 31.1637 91.2256 31.2686C91.2119 31.3688 91.196 31.4736 91.1777 31.583C91.1641 31.6924 91.1481 31.8086 91.1299 31.9316C91.1162 32.0501 91.1094 32.1755 91.1094 32.3076C91.1094 32.3623 91.1025 32.4193 91.0889 32.4785C91.0752 32.5332 91.0684 32.5879 91.0684 32.6426C91.0684 32.7155 91.082 32.7839 91.1094 32.8477C91.1367 32.9115 91.1504 32.9798 91.1504 33.0527C91.1504 33.1165 91.1413 33.1803 91.123 33.2441C91.1048 33.3034 91.0843 33.3649 91.0615 33.4287C91.0387 33.4925 91.0182 33.5563 91 33.6201C90.9818 33.6839 90.9727 33.75 90.9727 33.8184C90.9727 33.9505 90.9886 34.085 91.0205 34.2217C91.0524 34.3538 91.0684 34.486 91.0684 34.6182C91.0684 34.7093 91.0592 34.7982 91.041 34.8848C91.0228 34.9714 91.0137 35.0602 91.0137 35.1514C91.0137 35.32 91.0296 35.4886 91.0615 35.6572C91.098 35.8213 91.1276 35.9831 91.1504 36.1426C91.1777 36.3066 91.2074 36.4548 91.2393 36.5869C91.2712 36.7145 91.3122 36.8376 91.3623 36.9561C91.4124 37.0745 91.4694 37.1908 91.5332 37.3047C91.6016 37.4186 91.6836 37.5439 91.7793 37.6807C91.8112 37.7171 91.8477 37.765 91.8887 37.8242C91.9297 37.8835 91.9684 37.9245 92.0049 37.9473C92.0322 37.9609 92.0618 37.9678 92.0938 37.9678C92.1302 37.9678 92.1621 37.9769 92.1895 37.9951C92.2715 38.0316 92.3421 38.0635 92.4014 38.0908C92.4606 38.1182 92.5199 38.141 92.5791 38.1592C92.6383 38.1774 92.6999 38.1911 92.7637 38.2002C92.832 38.2093 92.9118 38.2139 93.0029 38.2139C93.0986 38.2139 93.1647 38.2093 93.2012 38.2002C93.2376 38.1911 93.2627 38.1797 93.2764 38.166C93.29 38.1478 93.3037 38.1273 93.3174 38.1045C93.3311 38.0817 93.3607 38.0589 93.4062 38.0361C93.4701 38.0042 93.5361 37.9837 93.6045 37.9746C93.6774 37.9655 93.7458 37.9427 93.8096 37.9062C93.9098 37.8516 93.9964 37.7855 94.0693 37.708C94.1423 37.626 94.2106 37.5417 94.2744 37.4551C94.3382 37.3639 94.3997 37.2751 94.459 37.1885C94.5228 37.1019 94.5957 37.0244 94.6777 36.9561C94.6823 36.9424 94.6982 36.89 94.7256 36.7988C94.7529 36.7077 94.7826 36.6097 94.8145 36.5049C94.8464 36.4001 94.876 36.3066 94.9033 36.2246C94.9307 36.138 94.9443 36.0924 94.9443 36.0879C94.9443 36.0241 94.9307 35.9671 94.9033 35.917C94.876 35.8623 94.8623 35.8031 94.8623 35.7393C94.8623 35.6709 94.8737 35.6071 94.8965 35.5479C94.9193 35.4886 94.9443 35.4316 94.9717 35.377C95.0036 35.3177 95.0309 35.2585 95.0537 35.1992C95.0765 35.14 95.0879 35.0762 95.0879 35.0078C95.0879 34.9303 95.0697 34.8574 95.0332 34.7891C95.0013 34.7161 94.9854 34.641 94.9854 34.5635C94.9854 34.5179 94.9945 34.4769 95.0127 34.4404C95.0355 34.404 95.0469 34.3652 95.0469 34.3242C95.0469 34.2741 95.0286 34.2376 94.9922 34.2148C94.9603 34.1875 94.9443 34.1442 94.9443 34.085C94.9443 34.0075 94.9512 33.9346 94.9648 33.8662C94.9785 33.7933 94.9854 33.7181 94.9854 33.6406C94.9854 33.554 94.9717 33.4652 94.9443 33.374C94.917 33.2829 94.8896 33.1986 94.8623 33.1211C94.8623 33.0618 94.876 33.0072 94.9033 32.957C94.9307 32.9069 94.9443 32.8545 94.9443 32.7998C94.9443 32.7269 94.9329 32.654 94.9102 32.5811C94.8874 32.5081 94.8646 32.4352 94.8418 32.3623C94.8236 32.2894 94.8076 32.2165 94.7939 32.1436C94.7803 32.0661 94.7848 31.9863 94.8076 31.9043C94.7438 31.804 94.6891 31.6924 94.6436 31.5693C94.6025 31.4463 94.5684 31.3187 94.541 31.1865C94.5137 31.0544 94.4932 30.9245 94.4795 30.7969C94.4658 30.6647 94.459 30.5439 94.459 30.4346C94.459 30.3708 94.4408 30.3229 94.4043 30.291C94.3724 30.2591 94.3564 30.2227 94.3564 30.1816C94.3564 30.1224 94.3701 30.07 94.3975 30.0244C94.4294 29.9788 94.4453 29.9287 94.4453 29.874C94.4544 29.8285 94.4567 29.7829 94.4521 29.7373C94.4476 29.6917 94.4453 29.6484 94.4453 29.6074C94.4453 29.5664 94.4476 29.5254 94.4521 29.4844C94.4613 29.4434 94.4772 29.4046 94.5 29.3682C94.5775 29.3044 94.6641 29.2542 94.7598 29.2178C94.8555 29.1768 94.9557 29.1562 95.0605 29.1562C95.1016 29.1562 95.1426 29.1585 95.1836 29.1631C95.2246 29.1676 95.2679 29.1745 95.3135 29.1836C95.3226 29.2246 95.3408 29.2633 95.3682 29.2998C95.4001 29.3317 95.4342 29.3636 95.4707 29.3955C95.5072 29.4274 95.5436 29.4593 95.5801 29.4912C95.6165 29.5231 95.6484 29.5573 95.6758 29.5938C95.7122 29.6576 95.735 29.7259 95.7441 29.7988C95.7533 29.8672 95.7715 29.9333 95.7988 29.9971C95.8216 30.0563 95.8535 30.1133 95.8945 30.168C95.9401 30.2181 95.9697 30.2682 95.9834 30.3184C95.9971 30.3685 95.9993 30.4186 95.9902 30.4688C95.9857 30.5143 95.9834 30.5622 95.9834 30.6123L96.1611 31.5352L96.25 31.624C96.2546 31.6423 96.2637 31.6947 96.2773 31.7812C96.291 31.8633 96.3047 31.9544 96.3184 32.0547C96.332 32.1504 96.3434 32.2415 96.3525 32.3281C96.3662 32.4102 96.373 32.4603 96.373 32.4785C96.373 32.5013 96.3708 32.5241 96.3662 32.5469C96.3617 32.5697 96.3548 32.5924 96.3457 32.6152C96.3867 32.6517 96.4141 32.6973 96.4277 32.752C96.4414 32.8021 96.4505 32.8568 96.4551 32.916C96.4642 32.9753 96.4688 33.0368 96.4688 33.1006C96.4688 33.1598 96.4756 33.2122 96.4893 33.2578C96.4984 33.3034 96.5143 33.3444 96.5371 33.3809C96.5599 33.4173 96.5713 33.4606 96.5713 33.5107C96.5713 33.57 96.5645 33.6247 96.5508 33.6748C96.5371 33.7249 96.5303 33.7819 96.5303 33.8457C96.5303 33.9915 96.5508 34.1419 96.5918 34.2969C96.6328 34.4473 96.6533 34.5999 96.6533 34.7549ZM104.364 33.2715C104.364 33.3809 104.341 33.5062 104.296 33.6475C104.255 33.7887 104.207 33.9255 104.152 34.0576C104.102 34.1852 104.054 34.3014 104.009 34.4062C103.968 34.5065 103.95 34.5726 103.954 34.6045C103.918 34.6592 103.872 34.707 103.817 34.748C103.763 34.7845 103.715 34.8301 103.674 34.8848C103.637 34.9349 103.612 34.9964 103.599 35.0693C103.585 35.1423 103.551 35.1969 103.496 35.2334C103.469 35.2562 103.432 35.279 103.387 35.3018C103.341 35.32 103.293 35.3405 103.243 35.3633C103.193 35.3861 103.145 35.4066 103.1 35.4248C103.054 35.443 103.022 35.459 103.004 35.4727C102.967 35.4954 102.936 35.5251 102.908 35.5615C102.885 35.5934 102.856 35.6253 102.819 35.6572C102.797 35.6663 102.774 35.6709 102.751 35.6709C102.728 35.6663 102.705 35.6755 102.683 35.6982L102.642 35.7803C102.61 35.8031 102.573 35.8122 102.532 35.8076C102.491 35.8031 102.452 35.8076 102.416 35.8213C102.22 35.9124 102.022 36.0013 101.821 36.0879C101.625 36.1699 101.418 36.236 101.199 36.2861C101.231 36.3636 101.277 36.4251 101.336 36.4707C101.395 36.5163 101.459 36.555 101.527 36.5869C101.6 36.6143 101.673 36.6416 101.746 36.6689C101.824 36.6963 101.896 36.7305 101.965 36.7715C102.001 36.7943 102.031 36.8239 102.054 36.8604C102.081 36.8968 102.113 36.9287 102.149 36.9561C102.263 37.0381 102.382 37.1156 102.505 37.1885C102.632 37.2614 102.758 37.3343 102.881 37.4072C103.004 37.4801 103.125 37.5576 103.243 37.6396C103.366 37.7171 103.482 37.806 103.592 37.9062C103.688 37.9199 103.772 37.9473 103.845 37.9883C103.918 38.0247 103.986 38.0703 104.05 38.125C104.114 38.1751 104.173 38.2321 104.228 38.2959C104.287 38.3597 104.346 38.4258 104.405 38.4941V38.5693C104.405 38.6969 104.398 38.8018 104.385 38.8838C104.371 38.9658 104.344 39.0342 104.303 39.0889C104.262 39.1436 104.205 39.1891 104.132 39.2256C104.063 39.2666 103.972 39.3076 103.858 39.3486C103.822 39.3623 103.785 39.3737 103.749 39.3828C103.713 39.3965 103.674 39.4033 103.633 39.4033C103.569 39.4033 103.492 39.4033 103.4 39.4033C103.314 39.4079 103.241 39.4033 103.182 39.3896C103.168 39.3851 103.136 39.3714 103.086 39.3486C103.04 39.3258 102.988 39.2985 102.929 39.2666C102.874 39.2393 102.822 39.2119 102.771 39.1846C102.726 39.1572 102.696 39.1367 102.683 39.123C102.619 39.0684 102.562 39.0046 102.512 38.9316C102.462 38.8587 102.402 38.8018 102.334 38.7607C102.247 38.7106 102.154 38.681 102.054 38.6719C101.958 38.6628 101.869 38.6331 101.787 38.583C101.687 38.5238 101.603 38.4508 101.534 38.3643C101.466 38.2731 101.382 38.1956 101.281 38.1318C101.195 38.0771 101.097 38.0316 100.987 37.9951C100.882 37.9587 100.785 37.9154 100.693 37.8652C100.616 37.8105 100.548 37.7445 100.488 37.667C100.434 37.585 100.368 37.512 100.29 37.4482C100.254 37.4163 100.21 37.3936 100.16 37.3799C100.11 37.3662 100.064 37.3457 100.023 37.3184C99.987 37.291 99.9574 37.2546 99.9346 37.209C99.9118 37.1634 99.8753 37.1406 99.8252 37.1406H99.7979C99.734 37.2044 99.7021 37.2865 99.7021 37.3867C99.7021 37.5052 99.7181 37.6237 99.75 37.7422C99.7819 37.8561 99.7979 37.9723 99.7979 38.0908C99.7979 38.141 99.7865 38.1934 99.7637 38.248C99.7409 38.2982 99.7249 38.3483 99.7158 38.3984C99.6976 38.4531 99.693 38.5101 99.7021 38.5693C99.7113 38.624 99.7158 38.6787 99.7158 38.7334C99.7158 38.8018 99.693 38.8701 99.6475 38.9385C99.6019 39.0068 99.5449 39.0684 99.4766 39.123C99.4082 39.1777 99.3353 39.221 99.2578 39.2529C99.1803 39.2894 99.1074 39.3076 99.0391 39.3076C98.9434 39.3076 98.8454 39.2894 98.7451 39.2529C98.6449 39.221 98.5423 39.1937 98.4375 39.1709C98.3828 39.0706 98.3304 38.9681 98.2803 38.8633C98.2347 38.7585 98.2119 38.6491 98.2119 38.5352C98.2119 38.4941 98.2165 38.4577 98.2256 38.4258C98.2347 38.3893 98.2461 38.3529 98.2598 38.3164C98.2005 38.1751 98.1618 38.0316 98.1436 37.8857C98.1253 37.7399 98.1162 37.5941 98.1162 37.4482C98.1162 37.2477 98.1344 37.054 98.1709 36.8672C98.2119 36.6758 98.2324 36.4821 98.2324 36.2861C98.2324 36.277 98.2301 36.2679 98.2256 36.2588C98.2256 36.2451 98.221 36.2337 98.2119 36.2246L98.1299 36.1836C98.1208 36.1608 98.1185 36.1403 98.123 36.1221C98.1276 36.1038 98.1299 36.0833 98.1299 36.0605C98.1299 36.0286 98.1276 35.9899 98.123 35.9443C98.1185 35.8988 98.1094 35.8532 98.0957 35.8076C98.0866 35.762 98.0729 35.721 98.0547 35.6846C98.0365 35.6436 98.016 35.6139 97.9932 35.5957C98.057 35.4909 98.0866 35.377 98.082 35.2539C98.0775 35.1263 98.0752 34.9987 98.0752 34.8711C98.0752 34.7708 98.0911 34.6751 98.123 34.584C98.1549 34.4928 98.1709 34.3971 98.1709 34.2969C98.1709 34.151 98.1641 34.0029 98.1504 33.8525C98.1367 33.6976 98.1299 33.5472 98.1299 33.4014C98.1299 33.2601 98.1071 33.1279 98.0615 33.0049C98.016 32.8773 97.9932 32.7474 97.9932 32.6152C97.9932 32.5605 98.0046 32.5104 98.0273 32.4648C98.0501 32.4147 98.0661 32.3623 98.0752 32.3076C98.098 32.221 98.1025 32.1344 98.0889 32.0479C98.0798 31.9613 98.0752 31.8747 98.0752 31.7881C98.0752 31.7471 98.0843 31.7197 98.1025 31.7061C98.1208 31.6878 98.1299 31.6605 98.1299 31.624C98.1299 31.5739 98.1139 31.5192 98.082 31.46C98.0501 31.4007 98.0342 31.3324 98.0342 31.2549C98.0342 31.109 98.041 30.9632 98.0547 30.8174C98.0684 30.667 98.0752 30.5143 98.0752 30.3594C98.0752 30.291 98.0866 30.2227 98.1094 30.1543C98.1322 30.0859 98.1549 30.0199 98.1777 29.9561C98.2005 29.8877 98.2165 29.8216 98.2256 29.7578C98.2393 29.6895 98.2347 29.6211 98.2119 29.5527C98.2438 29.5163 98.2803 29.4958 98.3213 29.4912C98.3623 29.4867 98.401 29.4775 98.4375 29.4639C98.5104 29.4274 98.5788 29.3887 98.6426 29.3477C98.7064 29.3066 98.7747 29.2725 98.8477 29.2451C98.9251 29.2087 99.0003 29.1859 99.0732 29.1768C99.1462 29.1676 99.2236 29.1562 99.3057 29.1426C99.3421 29.1335 99.374 29.1175 99.4014 29.0947C99.4287 29.0719 99.4629 29.0605 99.5039 29.0605C99.5404 29.0605 99.5745 29.0674 99.6064 29.0811C99.6429 29.0947 99.6794 29.1016 99.7158 29.1016C99.7386 29.0651 99.7568 29.0492 99.7705 29.0537C99.7887 29.0583 99.8161 29.0605 99.8525 29.0605C99.8799 29.0605 99.9118 29.056 99.9482 29.0469C99.9847 29.0378 100.021 29.0286 100.058 29.0195C100.094 29.0104 100.128 29.0036 100.16 28.999C100.192 28.9945 100.219 28.9967 100.242 29.0059C100.288 29.0059 100.331 28.999 100.372 28.9854C100.413 28.9717 100.454 28.9648 100.495 28.9648C100.545 28.9648 100.586 28.9785 100.618 29.0059C100.655 29.0332 100.698 29.0514 100.748 29.0605C100.807 29.0697 100.867 29.0697 100.926 29.0605C100.985 29.0514 101.042 29.0469 101.097 29.0469C101.165 29.0469 101.224 29.0537 101.274 29.0674C101.329 29.0811 101.379 29.0993 101.425 29.1221C101.475 29.1403 101.525 29.1608 101.575 29.1836C101.625 29.2064 101.682 29.2269 101.746 29.2451C101.837 29.2679 101.933 29.2793 102.033 29.2793C102.133 29.2747 102.234 29.2907 102.334 29.3271C102.389 29.3499 102.448 29.3773 102.512 29.4092C102.576 29.4365 102.632 29.4684 102.683 29.5049C102.719 29.5231 102.744 29.5459 102.758 29.5732C102.771 29.6006 102.792 29.6257 102.819 29.6484C102.865 29.6712 102.908 29.6803 102.949 29.6758C102.99 29.6712 103.022 29.6758 103.045 29.6895C103.077 29.7077 103.125 29.751 103.188 29.8193C103.252 29.8877 103.321 29.9629 103.394 30.0449C103.471 30.127 103.544 30.2067 103.612 30.2842C103.681 30.3617 103.735 30.4209 103.776 30.4619L103.756 30.5166C103.756 30.5713 103.767 30.6214 103.79 30.667C103.817 30.7126 103.849 30.7559 103.886 30.7969C103.922 30.8333 103.959 30.8721 103.995 30.9131C104.032 30.9541 104.061 30.9997 104.084 31.0498C104.107 31.0771 104.116 31.1113 104.111 31.1523C104.107 31.1888 104.116 31.2298 104.139 31.2754C104.175 31.3529 104.207 31.4303 104.234 31.5078C104.262 31.5807 104.305 31.6514 104.364 31.7197C104.373 31.7607 104.371 31.8063 104.357 31.8564C104.348 31.902 104.344 31.9499 104.344 32C104.344 32.0911 104.362 32.1732 104.398 32.2461C104.439 32.319 104.46 32.4056 104.46 32.5059C104.46 32.638 104.444 32.7633 104.412 32.8818C104.38 33.0003 104.364 33.1302 104.364 33.2715ZM102.375 31.0908L102.272 31.0498C102.231 30.9906 102.181 30.9245 102.122 30.8516C102.063 30.7786 101.997 30.7376 101.924 30.7285C101.906 30.6966 101.883 30.6807 101.855 30.6807C101.833 30.6807 101.81 30.6898 101.787 30.708C101.769 30.7217 101.744 30.7285 101.712 30.7285C101.662 30.7285 101.603 30.7148 101.534 30.6875C101.466 30.6556 101.368 30.6396 101.24 30.6396C101.204 30.6396 101.16 30.626 101.11 30.5986C101.06 30.5713 101.015 30.5531 100.974 30.5439C100.869 30.5303 100.753 30.5212 100.625 30.5166C100.497 30.5075 100.381 30.5029 100.276 30.5029C100.231 30.5029 100.194 30.5143 100.167 30.5371C100.14 30.5599 100.105 30.5758 100.064 30.585C100.019 30.5986 99.9642 30.6077 99.9004 30.6123C99.8366 30.6169 99.7751 30.6283 99.7158 30.6465C99.6611 30.6602 99.6133 30.6852 99.5723 30.7217C99.5358 30.7536 99.5176 30.806 99.5176 30.8789C99.5176 30.9655 99.5335 31.0452 99.5654 31.1182C99.5973 31.1911 99.6133 31.2708 99.6133 31.3574C99.6133 31.4486 99.5973 31.5374 99.5654 31.624C99.5335 31.7106 99.5176 31.7995 99.5176 31.8906C99.5176 32.0638 99.5267 32.2393 99.5449 32.417C99.5632 32.5902 99.5723 32.7679 99.5723 32.9502C99.5723 33.1097 99.5859 33.2669 99.6133 33.4219C99.6406 33.5723 99.6543 33.7272 99.6543 33.8867C99.6543 34.0052 99.6452 34.126 99.627 34.249C99.6087 34.3675 99.5996 34.486 99.5996 34.6045C99.5996 34.6592 99.6019 34.7139 99.6064 34.7686C99.6156 34.8232 99.6315 34.8757 99.6543 34.9258C99.7272 34.8984 99.8047 34.8825 99.8867 34.8779C99.9733 34.8688 100.06 34.8665 100.146 34.8711C100.233 34.8711 100.32 34.8757 100.406 34.8848C100.493 34.8893 100.575 34.8893 100.652 34.8848H100.83C100.871 34.8483 100.912 34.8232 100.953 34.8096C100.999 34.7913 101.044 34.7777 101.09 34.7686C101.14 34.7594 101.188 34.7503 101.233 34.7412C101.284 34.7321 101.331 34.7184 101.377 34.7002C101.418 34.682 101.459 34.6546 101.5 34.6182C101.541 34.5817 101.58 34.5498 101.616 34.5225C101.657 34.4906 101.698 34.4655 101.739 34.4473C101.785 34.4245 101.833 34.4154 101.883 34.4199H101.965C101.983 34.3652 102.01 34.3174 102.047 34.2764C102.083 34.2354 102.122 34.1966 102.163 34.1602C102.204 34.1191 102.243 34.0781 102.279 34.0371C102.32 33.9915 102.352 33.9414 102.375 33.8867C102.43 33.873 102.482 33.848 102.532 33.8115C102.582 33.7705 102.619 33.7227 102.642 33.668L102.737 33.6133V33.5244L102.819 33.4834C102.842 33.4424 102.851 33.4036 102.847 33.3672C102.847 33.3307 102.847 33.2897 102.847 33.2441C102.847 33.2122 102.854 33.1712 102.867 33.1211C102.885 33.0664 102.904 33.0072 102.922 32.9434C102.945 32.875 102.963 32.8021 102.977 32.7246C102.995 32.6426 103.004 32.556 103.004 32.4648C103.004 32.4193 102.999 32.3828 102.99 32.3555C102.981 32.3281 102.97 32.3053 102.956 32.2871C102.942 32.2643 102.926 32.2415 102.908 32.2188C102.89 32.196 102.874 32.1641 102.86 32.123C102.851 32.0911 102.844 32.0547 102.84 32.0137C102.835 31.9681 102.831 31.9248 102.826 31.8838C102.826 31.8428 102.822 31.804 102.812 31.7676C102.808 31.7311 102.797 31.7015 102.778 31.6787C102.715 31.5739 102.644 31.4759 102.566 31.3848C102.489 31.2936 102.425 31.1956 102.375 31.0908ZM113.306 37.5713C113.306 37.626 113.281 37.6738 113.23 37.7148C113.185 37.7559 113.148 37.7969 113.121 37.8379C113.098 37.8652 113.089 37.8949 113.094 37.9268C113.098 37.9587 113.094 37.9906 113.08 38.0225C113.057 38.0452 113.03 38.0589 112.998 38.0635C112.971 38.068 112.95 38.0817 112.937 38.1045C112.909 38.141 112.884 38.1842 112.861 38.2344C112.839 38.2845 112.813 38.3346 112.786 38.3848C112.763 38.4303 112.734 38.4736 112.697 38.5146C112.665 38.5557 112.624 38.5876 112.574 38.6104C112.547 38.624 112.515 38.6331 112.479 38.6377C112.447 38.6377 112.412 38.6377 112.376 38.6377C112.28 38.6377 112.175 38.6217 112.062 38.5898C111.952 38.5579 111.866 38.5033 111.802 38.4258C111.774 38.4121 111.731 38.3962 111.672 38.3779C111.617 38.3551 111.558 38.3346 111.494 38.3164C111.435 38.2936 111.378 38.2731 111.323 38.2549C111.269 38.2321 111.232 38.2139 111.214 38.2002C111.191 38.1774 111.171 38.1432 111.152 38.0977C111.134 38.0475 111.114 38.0065 111.091 37.9746C111.063 37.9382 111.032 37.9085 110.995 37.8857C110.959 37.863 110.929 37.8333 110.906 37.7969C110.879 37.7559 110.861 37.7103 110.852 37.6602C110.847 37.6055 110.833 37.5576 110.811 37.5166C110.756 37.3981 110.683 37.2842 110.592 37.1748C110.501 37.0609 110.41 36.9515 110.318 36.8467C110.268 36.7874 110.198 36.7191 110.106 36.6416C110.015 36.5641 109.951 36.4958 109.915 36.4365C109.901 36.4092 109.895 36.3796 109.895 36.3477C109.895 36.3158 109.888 36.2861 109.874 36.2588C109.847 36.195 109.812 36.138 109.771 36.0879C109.73 36.0332 109.703 35.9671 109.689 35.8896C109.635 35.8076 109.566 35.737 109.484 35.6777C109.407 35.6139 109.341 35.5365 109.286 35.4453C109.222 35.3451 109.149 35.2539 109.067 35.1719C108.99 35.0853 108.912 35.001 108.835 34.9189C108.762 34.8324 108.696 34.7412 108.637 34.6455C108.577 34.5498 108.536 34.4382 108.514 34.3105C108.4 34.1921 108.277 34.0804 108.145 33.9756C108.012 33.8662 107.912 33.7386 107.844 33.5928C107.807 33.529 107.778 33.4743 107.755 33.4287C107.732 33.3786 107.705 33.3353 107.673 33.2988C107.641 33.2624 107.602 33.2282 107.557 33.1963C107.516 33.1644 107.456 33.1302 107.379 33.0938C107.365 33.1712 107.356 33.251 107.352 33.333C107.352 33.4105 107.352 33.488 107.352 33.5654C107.352 33.8115 107.365 34.0553 107.393 34.2969C107.42 34.5339 107.434 34.7754 107.434 35.0215C107.434 35.1081 107.424 35.1901 107.406 35.2676C107.388 35.3451 107.379 35.4225 107.379 35.5C107.379 35.6276 107.393 35.7529 107.42 35.876C107.452 35.9945 107.468 36.1175 107.468 36.2451C107.468 36.2816 107.472 36.3112 107.481 36.334C107.491 36.3568 107.502 36.3773 107.516 36.3955C107.529 36.4092 107.541 36.4251 107.55 36.4434C107.559 36.457 107.563 36.4775 107.563 36.5049C107.563 36.5778 107.557 36.6484 107.543 36.7168C107.529 36.7852 107.522 36.8558 107.522 36.9287C107.522 36.9652 107.529 37.0153 107.543 37.0791C107.561 37.1429 107.582 37.209 107.604 37.2773C107.627 37.3457 107.65 37.4118 107.673 37.4756C107.7 37.5348 107.725 37.5804 107.748 37.6123C107.712 37.6898 107.68 37.7627 107.652 37.8311C107.625 37.8949 107.602 37.9609 107.584 38.0293C107.57 38.0931 107.561 38.1615 107.557 38.2344C107.552 38.3027 107.554 38.3802 107.563 38.4668C107.541 38.5033 107.488 38.5534 107.406 38.6172C107.324 38.6764 107.233 38.7357 107.133 38.7949C107.033 38.8542 106.937 38.9066 106.846 38.9521C106.755 38.9932 106.691 39.0137 106.654 39.0137C106.613 39.0137 106.581 39.0091 106.559 39C106.536 38.9954 106.518 38.9863 106.504 38.9727C106.49 38.959 106.474 38.9453 106.456 38.9316C106.442 38.9134 106.42 38.8952 106.388 38.877C106.36 38.8542 106.322 38.8405 106.271 38.8359C106.226 38.8268 106.189 38.8109 106.162 38.7881C106.121 38.7516 106.076 38.6901 106.025 38.6035C105.98 38.5124 105.937 38.4167 105.896 38.3164C105.859 38.2161 105.827 38.1182 105.8 38.0225C105.772 37.9268 105.759 37.8516 105.759 37.7969C105.759 37.724 105.777 37.6533 105.813 37.585C105.854 37.5166 105.882 37.4505 105.896 37.3867C105.918 37.2682 105.937 37.1361 105.95 36.9902C105.968 36.8444 105.978 36.7077 105.978 36.5801C105.978 36.4525 105.95 36.3294 105.896 36.2109C105.923 36.1289 105.941 36.0446 105.95 35.958C105.959 35.8669 105.964 35.7803 105.964 35.6982C105.964 35.5205 105.946 35.3314 105.909 35.1309C105.873 34.9258 105.809 34.7458 105.718 34.5908C105.722 34.5133 105.736 34.4404 105.759 34.3721C105.786 34.2992 105.813 34.2285 105.841 34.1602C105.868 34.0918 105.896 34.0234 105.923 33.9551C105.95 33.8822 105.968 33.8092 105.978 33.7363C106 33.6224 106.005 33.5107 105.991 33.4014C105.982 33.292 105.978 33.1849 105.978 33.0801C105.978 33.0208 105.982 32.9707 105.991 32.9297C106 32.8841 106.016 32.8363 106.039 32.7861C106.03 32.7223 106.012 32.6608 105.984 32.6016C105.962 32.5423 105.946 32.4808 105.937 32.417C105.927 32.3486 105.925 32.2803 105.93 32.2119C105.934 32.139 105.937 32.0638 105.937 31.9863C105.937 31.8997 105.93 31.8177 105.916 31.7402C105.902 31.6628 105.896 31.5807 105.896 31.4941C105.896 31.4258 105.909 31.362 105.937 31.3027C105.964 31.2389 105.978 31.1729 105.978 31.1045C105.978 30.945 105.962 30.7855 105.93 30.626C105.898 30.4619 105.882 30.3001 105.882 30.1406C105.882 30.0267 105.923 29.9219 106.005 29.8262C106.091 29.7259 106.176 29.6439 106.258 29.5801C106.572 29.6165 106.841 29.7122 107.064 29.8672C107.292 30.0221 107.445 30.2568 107.522 30.5713C107.527 30.6032 107.536 30.626 107.55 30.6396C107.563 30.6488 107.577 30.6556 107.591 30.6602C107.609 30.6602 107.627 30.6624 107.646 30.667C107.664 30.6715 107.682 30.6829 107.7 30.7012C107.732 30.7376 107.748 30.7764 107.748 30.8174C107.753 30.8584 107.766 30.8971 107.789 30.9336C107.862 31.0202 107.912 31.0726 107.939 31.0908C107.971 31.1045 107.996 31.1182 108.015 31.1318C108.037 31.1455 108.062 31.1774 108.09 31.2275C108.122 31.2731 108.174 31.3711 108.247 31.5215C108.315 31.5898 108.377 31.665 108.432 31.7471C108.491 31.8245 108.548 31.9043 108.603 31.9863C108.662 32.0684 108.723 32.1481 108.787 32.2256C108.851 32.2985 108.924 32.3623 109.006 32.417C109.015 32.4762 109.031 32.5309 109.054 32.5811C109.076 32.6312 109.092 32.6859 109.102 32.7451C109.12 32.777 109.161 32.8317 109.225 32.9092C109.293 32.9821 109.361 33.0596 109.43 33.1416C109.503 33.2191 109.566 33.292 109.621 33.3604C109.676 33.4242 109.703 33.4606 109.703 33.4697C109.703 33.488 109.712 33.4971 109.73 33.4971C109.794 33.5244 109.849 33.5609 109.895 33.6064C109.945 33.652 109.997 33.6953 110.052 33.7363C110.111 33.9414 110.209 34.1191 110.346 34.2695C110.482 34.4199 110.637 34.5544 110.811 34.6729C110.815 34.723 110.829 34.7686 110.852 34.8096C110.874 34.846 110.899 34.8825 110.927 34.9189C110.959 34.9508 110.988 34.985 111.016 35.0215C111.048 35.0579 111.073 35.0967 111.091 35.1377C111.104 35.165 111.111 35.1924 111.111 35.2197C111.111 35.2471 111.118 35.2744 111.132 35.3018C111.146 35.3337 111.166 35.3587 111.193 35.377C111.225 35.3952 111.253 35.418 111.275 35.4453C111.294 35.4772 111.307 35.516 111.316 35.5615C111.33 35.6025 111.344 35.6458 111.357 35.6914C111.376 35.7324 111.398 35.7689 111.426 35.8008C111.453 35.8281 111.492 35.8441 111.542 35.8486C111.569 35.7803 111.583 35.7005 111.583 35.6094C111.583 35.5137 111.572 35.4202 111.549 35.3291C111.526 35.238 111.499 35.1468 111.467 35.0557C111.439 34.96 111.414 34.8665 111.392 34.7754C111.369 34.6842 111.357 34.5908 111.357 34.4951C111.357 34.4313 111.373 34.3721 111.405 34.3174C111.437 34.2627 111.453 34.2035 111.453 34.1396C111.453 34.0758 111.439 34.0143 111.412 33.9551C111.385 33.8913 111.367 33.832 111.357 33.7773C111.339 33.6725 111.33 33.5563 111.33 33.4287C111.335 33.2965 111.335 33.1644 111.33 33.0322C111.326 32.9001 111.312 32.7725 111.289 32.6494C111.271 32.5264 111.232 32.4215 111.173 32.335C111.182 32.3076 111.187 32.2803 111.187 32.2529C111.187 32.2256 111.187 32.1982 111.187 32.1709C111.187 32.0524 111.177 31.9316 111.159 31.8086C111.141 31.681 111.132 31.5534 111.132 31.4258C111.132 31.3346 111.141 31.2435 111.159 31.1523C111.177 31.0566 111.216 30.9655 111.275 30.8789C111.262 30.7878 111.23 30.7103 111.18 30.6465C111.134 30.5827 111.091 30.512 111.05 30.4346C111.05 30.4118 111.052 30.3913 111.057 30.373C111.061 30.3503 111.063 30.3275 111.063 30.3047C111.063 30.2591 111.057 30.2113 111.043 30.1611C111.029 30.111 111.013 30.0632 110.995 30.0176C110.981 29.9674 110.968 29.9173 110.954 29.8672C110.945 29.8171 110.943 29.7669 110.947 29.7168V29.6211L110.995 29.5801C110.995 29.5345 110.993 29.4935 110.988 29.457C110.984 29.4206 110.981 29.3818 110.981 29.3408C110.981 29.2633 111.013 29.1882 111.077 29.1152C111.146 29.0378 111.225 28.9694 111.316 28.9102C111.408 28.8464 111.501 28.7962 111.597 28.7598C111.697 28.7188 111.781 28.6982 111.85 28.6982C111.895 28.6982 111.941 28.7096 111.986 28.7324C112.032 28.7552 112.075 28.7803 112.116 28.8076C112.162 28.835 112.205 28.8623 112.246 28.8896C112.292 28.917 112.34 28.9375 112.39 28.9512C112.435 29.056 112.497 29.1471 112.574 29.2246C112.652 29.2975 112.713 29.3818 112.759 29.4775C112.777 29.5231 112.786 29.5755 112.786 29.6348C112.791 29.6895 112.793 29.7487 112.793 29.8125C112.793 29.8717 112.795 29.9333 112.8 29.9971C112.809 30.0563 112.827 30.1133 112.854 30.168C112.827 30.2044 112.809 30.25 112.8 30.3047C112.791 30.3548 112.786 30.4095 112.786 30.4688C112.786 30.528 112.788 30.5872 112.793 30.6465C112.798 30.7012 112.8 30.7513 112.8 30.7969C112.8 30.8333 112.793 30.863 112.779 30.8857C112.766 30.9085 112.759 30.9382 112.759 30.9746C112.759 31.0065 112.766 31.0316 112.779 31.0498C112.793 31.0635 112.8 31.0817 112.8 31.1045C112.8 31.1455 112.788 31.1934 112.766 31.248C112.743 31.2982 112.727 31.3438 112.718 31.3848C112.7 31.4622 112.688 31.5397 112.684 31.6172C112.684 31.6901 112.684 31.7607 112.684 31.8291C112.684 32.0479 112.706 32.2552 112.752 32.4512C112.798 32.6471 112.832 32.8477 112.854 33.0527C112.864 33.194 112.868 33.3353 112.868 33.4766C112.868 33.6133 112.866 33.7523 112.861 33.8936C112.861 34.0303 112.861 34.167 112.861 34.3037C112.866 34.4404 112.877 34.5771 112.896 34.7139C112.914 34.8779 112.934 35.0101 112.957 35.1104C112.984 35.2106 113.009 35.3086 113.032 35.4043C113.055 35.4954 113.076 35.598 113.094 35.7119C113.112 35.8258 113.121 35.9785 113.121 36.1699C113.121 36.2975 113.135 36.4229 113.162 36.5459C113.189 36.6644 113.203 36.7874 113.203 36.915C113.203 36.9971 113.219 37.0768 113.251 37.1543C113.287 37.2272 113.306 37.3047 113.306 37.3867V37.4346L113.258 37.5166C113.29 37.5166 113.306 37.5348 113.306 37.5713ZM120.196 31.0908C120.16 31.0771 120.126 31.0703 120.094 31.0703C120.062 31.0658 120.028 31.0635 119.991 31.0635C119.873 31.0635 119.754 31.0817 119.636 31.1182C119.522 31.1546 119.406 31.1729 119.287 31.1729C119.232 31.1729 119.175 31.1683 119.116 31.1592C119.057 31.1501 118.998 31.141 118.938 31.1318C118.897 31.1592 118.852 31.1729 118.802 31.1729C118.752 31.1729 118.717 31.1592 118.699 31.1318C118.686 31.1045 118.658 31.0908 118.617 31.0908C118.576 31.0908 118.537 31.0999 118.501 31.1182C118.469 31.1318 118.435 31.1455 118.398 31.1592C118.367 31.1729 118.332 31.1842 118.296 31.1934C118.259 31.1979 118.216 31.1911 118.166 31.1729C118.157 31.2002 118.152 31.2321 118.152 31.2686C118.152 31.3005 118.152 31.3301 118.152 31.3574C118.152 31.485 118.161 31.6149 118.18 31.7471C118.202 31.8747 118.214 32.0046 118.214 32.1367C118.214 32.2279 118.198 32.3213 118.166 32.417C118.139 32.5081 118.125 32.6016 118.125 32.6973C118.125 32.8112 118.139 32.9251 118.166 33.0391C118.198 33.153 118.214 33.2692 118.214 33.3877C118.214 33.4788 118.198 33.57 118.166 33.6611C118.139 33.7523 118.125 33.8434 118.125 33.9346C118.125 34.012 118.136 34.0872 118.159 34.1602C118.187 34.2285 118.205 34.3014 118.214 34.3789C118.237 34.5612 118.25 34.7412 118.255 34.9189C118.264 35.0967 118.269 35.2767 118.269 35.459C118.269 35.6322 118.259 35.8099 118.241 35.9922C118.223 36.1699 118.214 36.3477 118.214 36.5254C118.214 36.6439 118.23 36.7578 118.262 36.8672C118.294 36.972 118.31 37.0768 118.31 37.1816C118.31 37.2363 118.303 37.2887 118.289 37.3389C118.275 37.389 118.269 37.4437 118.269 37.5029C118.259 37.6169 118.257 37.7308 118.262 37.8447C118.266 37.9541 118.269 38.068 118.269 38.1865C118.269 38.3187 118.255 38.4463 118.228 38.5693C118.2 38.6924 118.187 38.8177 118.187 38.9453C118.187 38.9909 118.171 39.0342 118.139 39.0752C118.111 39.1162 118.075 39.1527 118.029 39.1846C117.988 39.2165 117.943 39.2415 117.893 39.2598C117.847 39.2826 117.804 39.2939 117.763 39.2939C117.685 39.2939 117.61 39.2894 117.537 39.2803C117.469 39.2712 117.4 39.2666 117.332 39.2666C117.296 39.2666 117.259 39.2666 117.223 39.2666C117.191 39.2712 117.161 39.2848 117.134 39.3076C116.965 39.1937 116.847 39.0501 116.778 38.877C116.715 38.6992 116.683 38.5124 116.683 38.3164C116.683 38.1751 116.694 38.0361 116.717 37.8994C116.744 37.7627 116.771 37.626 116.799 37.4893C116.831 37.3525 116.858 37.2181 116.881 37.0859C116.908 36.9492 116.922 36.8079 116.922 36.6621C116.922 36.5938 116.922 36.5231 116.922 36.4502C116.922 36.3727 116.917 36.2975 116.908 36.2246C116.895 36.1562 116.867 36.0856 116.826 36.0127C116.79 35.9352 116.771 35.8623 116.771 35.7939C116.771 35.7666 116.778 35.737 116.792 35.7051C116.806 35.6686 116.812 35.6322 116.812 35.5957C116.812 35.5592 116.806 35.5251 116.792 35.4932C116.778 35.4567 116.771 35.418 116.771 35.377C116.771 35.2767 116.794 35.1787 116.84 35.083C116.885 34.9827 116.908 34.8802 116.908 34.7754C116.908 34.6934 116.899 34.6136 116.881 34.5361C116.863 34.4541 116.842 34.3743 116.819 34.2969C116.797 34.2148 116.776 34.1328 116.758 34.0508C116.74 33.9688 116.73 33.8867 116.73 33.8047C116.73 33.7363 116.737 33.668 116.751 33.5996C116.765 33.5267 116.771 33.4561 116.771 33.3877C116.771 33.3148 116.765 33.2464 116.751 33.1826C116.737 33.1188 116.73 33.0505 116.73 32.9775C116.73 32.9365 116.737 32.8955 116.751 32.8545C116.765 32.8089 116.771 32.7611 116.771 32.7109C116.771 32.6198 116.756 32.5309 116.724 32.4443C116.696 32.3532 116.683 32.262 116.683 32.1709C116.683 32.0798 116.699 31.9886 116.73 31.8975C116.767 31.8063 116.785 31.7152 116.785 31.624C116.785 31.5192 116.767 31.4303 116.73 31.3574C116.63 31.321 116.525 31.2982 116.416 31.2891C116.307 31.2799 116.2 31.2754 116.095 31.2754C115.912 31.2754 115.732 31.2822 115.555 31.2959C115.382 31.3096 115.204 31.3164 115.021 31.3164C114.917 31.3164 114.803 31.305 114.68 31.2822C114.561 31.2594 114.45 31.223 114.345 31.1729C114.244 31.1182 114.16 31.0475 114.092 30.9609C114.028 30.8698 113.996 30.7581 113.996 30.626C113.996 30.5075 114.021 30.389 114.071 30.2705C114.126 30.1475 114.167 30.029 114.194 29.915C114.377 29.8239 114.57 29.7624 114.775 29.7305C114.98 29.694 115.188 29.6712 115.397 29.6621C115.607 29.653 115.814 29.6507 116.02 29.6553C116.229 29.6598 116.432 29.6576 116.628 29.6484C116.669 29.612 116.694 29.5664 116.703 29.5117C116.717 29.4525 116.726 29.3932 116.73 29.334C116.735 29.2702 116.74 29.2087 116.744 29.1494C116.753 29.0902 116.776 29.0423 116.812 29.0059V28.9785C116.812 28.9603 116.835 28.9375 116.881 28.9102C116.931 28.8783 116.988 28.8486 117.052 28.8213C117.116 28.7939 117.177 28.7712 117.236 28.7529C117.296 28.7347 117.337 28.7256 117.359 28.7256C117.501 28.7256 117.605 28.7415 117.674 28.7734C117.742 28.8053 117.792 28.8418 117.824 28.8828C117.861 28.9238 117.89 28.9626 117.913 28.999C117.936 29.0355 117.975 29.056 118.029 29.0605C118.066 29.1426 118.095 29.2314 118.118 29.3271C118.146 29.4183 118.177 29.5072 118.214 29.5938C118.296 29.5846 118.376 29.5687 118.453 29.5459C118.535 29.5186 118.622 29.5049 118.713 29.5049C118.763 29.5049 118.813 29.5186 118.863 29.5459C118.918 29.5687 118.97 29.5846 119.021 29.5938L119.123 29.5527L119.164 29.5938C119.255 29.6165 119.351 29.6234 119.451 29.6143C119.551 29.6006 119.647 29.5938 119.738 29.5938C119.884 29.5938 120.025 29.6097 120.162 29.6416C120.303 29.6735 120.426 29.7259 120.531 29.7988C120.641 29.8672 120.727 29.9583 120.791 30.0723C120.855 30.1862 120.887 30.3252 120.887 30.4893C120.887 30.5667 120.859 30.6351 120.805 30.6943C120.755 30.749 120.693 30.7992 120.62 30.8447C120.547 30.8857 120.472 30.9268 120.395 30.9678C120.317 31.0088 120.251 31.0498 120.196 31.0908Z" fill="white"/>
<g clip-path="url(#clip0_7412_102724)">
<path d="M32.4812 50.2034C32.4097 50.198 31.99 50.182 31.5503 50.166C30.9001 50.1433 30.6525 50.1206 30.2261 50.0513C29.9374 50.0032 29.5971 49.9565 29.47 49.9458C29.0383 49.9098 28.298 49.8137 27.9961 49.755C27.8306 49.723 27.2731 49.6309 26.7553 49.5509C24.8286 49.2506 23.4527 48.921 22.7787 48.5968C22.2583 48.3459 21.7696 47.9202 21.4346 47.4225C21.1631 47.0195 20.9671 46.8794 20.3408 46.6352C19.6853 46.3803 19.3119 46.1548 18.8232 45.7198C18.4233 45.3635 17.9373 44.9779 17.8327 44.9338C17.7811 44.9125 17.7069 44.8498 17.6698 44.795C17.6314 44.7403 17.5321 44.6122 17.4487 44.5082C17.1944 44.1959 16.9534 43.6701 16.8475 43.1978C16.7786 42.8895 16.7733 41.7219 16.8409 41.3243C16.9084 40.9186 17.0607 40.4796 17.2779 40.0633C17.3785 39.8698 17.4884 39.6389 17.5215 39.5495C17.5851 39.3774 17.6592 38.929 17.6897 38.5394C17.7347 37.9576 17.842 37.5466 18.0817 37.0435C18.3386 36.5031 18.5518 36.2108 19.1212 35.6144C19.3172 35.4089 19.582 35.1086 19.7105 34.9472C19.9316 34.6683 19.9488 34.6349 20.0481 34.3093C20.1051 34.1198 20.1964 33.8396 20.2494 33.6875C20.3024 33.534 20.4136 33.1844 20.4957 32.9109C21.0439 31.0934 21.3737 30.585 22.5589 29.7323C22.9522 29.4494 23.1773 29.2266 23.2859 29.0091C23.3349 28.9117 23.4421 28.6368 23.5242 28.3993C23.6964 27.8975 24.0023 27.1903 24.1638 26.9154C24.3068 26.6739 24.6776 26.2269 24.9478 25.9693C25.0749 25.8492 25.4298 25.5904 25.8469 25.3141C26.4693 24.9018 26.5673 24.8257 26.8533 24.5308C27.0281 24.3507 27.2916 24.0518 27.4399 23.8663C27.9723 23.2018 28.5774 22.7 29.229 22.3798C29.8169 22.0916 30.2155 22.0248 31.5556 21.9901C32.5964 21.9635 33.2175 21.9154 34.012 21.8007C34.9774 21.6605 35.3243 21.6325 35.862 21.6459C36.2923 21.6565 36.4009 21.6685 36.5598 21.7246C36.9571 21.862 37.2021 22.0835 37.602 22.66C38.1582 23.4633 38.5435 24.1545 39.0533 25.2608C39.1818 25.541 39.2414 25.629 39.5036 25.9253C39.8055 26.2669 39.9419 26.4777 40.4769 27.4198C40.849 28.075 40.8808 28.1484 41.2674 29.2199C41.5098 29.8911 41.6356 30.3141 41.7415 30.8065C41.862 31.3643 42.16 32.0729 42.5241 32.6653C42.789 33.095 42.9135 33.3392 43.0631 33.7209C43.1929 34.0518 43.2922 34.2586 43.4564 34.5428C43.7742 35.0926 43.9013 35.4622 44.0112 36.1695C44.1092 36.798 44.2403 37.4025 44.3463 37.7161C44.386 37.8321 44.619 38.3365 44.8667 38.8369C45.5288 40.178 45.7658 40.7812 45.9737 41.6512C46.1843 42.5346 46.2809 43.2965 46.2836 44.0998C46.2849 44.6603 46.2571 44.8764 46.1393 45.1954C46.0532 45.4289 45.6771 46.0134 45.452 46.2602C45.2547 46.4777 44.9011 46.7486 44.5171 46.9781C44.341 47.0835 44.0721 47.249 43.9185 47.3464C43.7649 47.4438 43.4431 47.616 43.2035 47.7281C42.9638 47.8402 42.4857 48.095 42.1428 48.2938C41.278 48.7956 41.1059 48.8756 40.4398 49.0972C39.9869 49.2479 39.7817 49.3333 39.5261 49.4788C39.0388 49.7563 38.2204 50.0232 37.7225 50.0673C37.3266 50.102 36.5254 50.0059 35.9772 49.8578C35.6885 49.779 35.0953 49.731 34.8966 49.7684C34.841 49.779 34.7059 49.8471 34.5947 49.9191C34.3285 50.0926 34.0902 50.1647 33.6651 50.198C33.3393 50.2234 32.7885 50.2274 32.4865 50.2074L32.4812 50.2034Z" fill="#F5EEE1"/>
<path d="M37.0286 49.8751C36.9452 49.8457 36.7995 49.7737 36.7042 49.715C36.5691 49.6309 36.5016 49.6069 36.393 49.6069C35.9865 49.6069 35.711 49.3467 35.711 48.9624C35.711 48.869 35.7335 48.7515 35.764 48.6821C35.8329 48.53 36.0619 48.3259 36.2156 48.2818C36.3811 48.2338 36.3996 48.2098 36.2844 48.1871C36.107 48.1537 35.9295 48.0149 35.8448 47.8441C35.7375 47.6266 35.7402 47.4371 35.8554 47.221C35.903 47.1302 35.9428 47.0262 35.9428 46.9901C35.9454 46.9047 36.0355 46.7006 36.1295 46.5765C36.2248 46.451 36.2222 46.4257 36.1162 46.3816C36.0103 46.3376 35.8938 46.2042 35.8223 46.0454C35.7613 45.9106 35.7508 45.621 35.8011 45.4756C35.8302 45.3928 35.8236 45.3608 35.7508 45.2154C35.6501 45.0152 35.6223 44.7216 35.6885 44.5615C35.7282 44.4654 35.7388 44.4601 35.8448 44.4694C36.1017 44.4948 36.8062 44.0224 37.3848 43.4379C38.2509 42.5626 38.5382 41.834 38.4959 40.625C38.4786 40.1607 38.4111 39.8017 38.2112 39.1398C37.9066 38.1257 37.8814 37.8922 37.9794 36.9261C38.0946 35.7825 38.0152 35.0246 37.6974 34.2439C37.549 33.8796 37.4471 33.7128 37.1332 33.3192C36.8724 32.9909 36.4976 32.4251 36.3519 32.1369C36.1732 31.7833 35.9944 31.1668 35.8103 30.2701C35.5813 29.1505 35.3839 28.5127 35.0794 27.9095C34.8728 27.4999 34.7774 27.3598 34.1935 26.6045C33.9617 26.3056 33.5088 25.4275 33.3685 25.0072C33.0295 23.9891 32.8163 23.6621 32.2032 23.2218C31.8178 22.9442 31.5927 22.8335 31.2232 22.7361C30.924 22.6573 30.8485 22.6039 30.8485 22.4692C30.8485 22.3798 30.8405 22.3731 30.724 22.3558C30.5161 22.3237 30.1678 22.3891 29.711 22.5439C29.6209 22.5746 29.519 22.5919 29.4832 22.5826C29.3852 22.5572 29.3548 22.4425 29.4117 22.3211C29.5084 22.1169 29.9705 21.7659 30.3148 21.6365C30.5214 21.5591 31.3106 21.5364 32.1078 21.5871C32.7699 21.6285 32.9792 21.6152 33.1182 21.5244C33.1778 21.4857 33.2599 21.479 33.5552 21.4844C33.7552 21.4884 34.0359 21.4764 34.1789 21.4577C34.3789 21.431 34.5788 21.431 35.0516 21.4577C35.9163 21.5071 36.1546 21.5698 36.6102 21.8714C36.9333 22.0849 37.2206 22.3598 37.7755 22.9843C38.0112 23.2498 38.2456 23.498 38.2946 23.534C38.3436 23.5701 38.4522 23.7022 38.5356 23.8276C38.619 23.9517 38.8786 24.3253 39.1129 24.6549C39.3473 24.9859 39.6651 25.4489 39.8188 25.6851C40.081 26.0867 40.2094 26.2389 40.2889 26.2389C40.3326 26.2389 40.6053 26.6939 40.8132 27.1129C40.9033 27.2957 41.1297 27.8108 41.3151 28.2565C41.7428 29.2866 41.7481 29.3 41.7839 29.4948C41.8011 29.5842 41.9508 30.0125 42.1189 30.4476C42.5347 31.5218 42.8671 32.4905 42.8949 32.704C42.9201 32.9015 43.1796 33.5033 43.3518 33.7649C43.4763 33.953 43.9636 35.0112 44.2205 35.6477C44.378 36.04 44.3992 36.1108 44.3727 36.1841C44.3158 36.3496 44.3661 36.5324 44.6535 37.2103C44.8084 37.5773 44.9369 37.9202 44.9382 37.9722C44.9408 38.0243 44.9183 38.127 44.8905 38.1991C44.8323 38.3512 44.8455 38.466 44.9435 38.6835C45.0296 38.8756 45.1448 39.0091 45.2838 39.0811C45.3646 39.1225 45.444 39.2106 45.5672 39.3947L45.738 39.6509L45.7579 40.0913C45.8056 41.1428 45.893 42.0635 45.9804 42.4452C46.0492 42.7454 46.0916 42.8295 46.2373 42.9549C46.3498 43.051 46.3511 43.0563 46.326 43.1844C46.3127 43.2565 46.2995 43.454 46.2982 43.6234C46.2942 44.1865 46.2465 44.7844 46.1989 44.8791C46.126 45.0205 46.0346 45.3928 45.9962 45.6984L45.9605 45.9813L45.8307 46.0747C45.7592 46.1268 45.2944 46.415 44.7991 46.7152C43.5213 47.4905 42.0832 48.2098 41.135 48.5474C40.9443 48.6154 40.6755 48.7208 40.5391 48.7809C40.4014 48.8409 40.2187 48.909 40.1326 48.9317C39.9949 48.9664 39.9618 48.9917 39.8611 49.1292C39.7353 49.3013 39.5407 49.4414 39.3593 49.4908C39.2096 49.5322 38.8296 49.5335 38.7302 49.4921C38.664 49.4654 38.6362 49.4748 38.5118 49.5655C38.3343 49.695 38.0549 49.8311 37.8536 49.8844C37.6338 49.9432 37.2127 49.9365 37.0247 49.8711L37.0286 49.8751ZM19.9846 46.4097C19.7383 46.3283 19.5913 46.1868 19.5913 46.028C19.5913 45.9733 19.5688 45.9413 19.5118 45.9146C19.3119 45.8239 19.1596 45.6998 19.0934 45.573C19.0364 45.4636 18.9848 45.4195 18.806 45.3208C18.1346 44.9498 17.3719 44.3066 17.2276 43.9891C17.1812 43.8863 17.2196 43.8223 17.3189 43.8369L17.4024 43.8489L17.3494 43.7248C17.2633 43.5234 17.1508 43.0176 17.115 42.672C17.062 42.1583 17.1296 41.5284 17.2607 41.3283C17.3057 41.2589 17.3123 41.2055 17.2991 40.984C17.2766 40.5823 17.3626 40.3995 17.5772 40.3995H17.6619L17.6818 40.166C17.703 39.9071 17.8155 39.4294 17.887 39.288C17.9122 39.2373 17.9532 39.1959 17.9757 39.1959C18.0115 39.1959 18.0115 39.2119 17.9757 39.3146C17.9175 39.4815 17.8446 39.8818 17.8446 40.0392C17.8446 40.1433 17.8288 40.186 17.7718 40.2394C17.6606 40.3435 17.6778 40.4449 17.8499 40.7091C18.0565 41.024 18.1452 41.2535 18.2379 41.7032C18.4088 42.5332 18.6167 42.9069 19.0656 43.1911C19.2165 43.2872 19.4827 43.4206 20.2997 43.8116C20.7103 44.0077 21.2426 44.3573 21.481 44.5869C21.6107 44.7123 21.6557 44.779 21.6716 44.8644C21.6981 45.0112 21.6306 45.1567 21.5088 45.2207C21.4333 45.2594 21.4214 45.2808 21.4359 45.3408C21.4783 45.5116 21.3406 45.7478 21.1578 45.8172C21.089 45.8439 21.081 45.8612 21.0837 45.9907C21.0863 46.1788 21.0082 46.3109 20.844 46.399C20.7354 46.4577 20.6745 46.467 20.4375 46.4657C20.2428 46.4644 20.1051 46.447 19.9833 46.407L19.9846 46.4097ZM35.3151 43.7288C35.2595 43.6421 35.2317 43.4246 35.2687 43.3672C35.2899 43.3352 35.3058 43.3352 35.3535 43.3646C35.4025 43.3952 35.4104 43.4313 35.4078 43.6021C35.4051 43.7128 35.3959 43.8036 35.3839 43.8036C35.372 43.8036 35.3416 43.7702 35.3151 43.7302V43.7288Z" fill="#E0BDA5"/>
<path d="M32.5395 50.6424C31.7542 50.6237 30.4976 50.569 30.2168 50.5436C28.1736 50.3542 25.7118 49.8137 24.2472 49.2333C23.258 48.8409 22.3788 48.2752 21.8597 47.696C21.4399 47.2277 21.277 46.9594 21.1525 46.5218C21.0598 46.1975 21.0241 45.8999 20.9897 45.1753C20.938 44.0678 21.04 43.5007 21.424 42.7601C21.8663 41.9101 21.9338 41.7966 22.1232 41.6018C22.3841 41.3323 22.5138 41.2776 23.2925 41.1054C24.1559 40.9146 24.3704 40.8959 25.353 40.9293C27.6743 41.0093 30.2221 41.3469 32.1171 41.8247C34.4848 42.4225 35.3204 42.8295 35.7852 43.6154C35.9507 43.8943 36.0447 44.1452 36.1189 44.5055C36.1771 44.7857 36.1811 44.8671 36.1639 45.3995C36.1533 45.7224 36.1334 46.1108 36.1189 46.2642C35.9812 47.6827 35.8712 48.5087 35.7666 48.9023C35.6912 49.1866 35.4647 49.6589 35.2939 49.8925C35.0476 50.2274 34.6609 50.4462 34.1259 50.557C33.8995 50.6037 33.1513 50.6664 32.9474 50.6544C32.8918 50.6517 32.7077 50.6451 32.5395 50.641V50.6424Z" fill="#636556"/>
<path d="M31.798 49.9565C29.1535 49.8537 27.0678 49.4961 24.087 48.6354C22.7059 48.2364 21.7405 47.9002 21.4995 47.732C21.3446 47.6253 21.236 47.4225 21.2638 47.2944C21.281 47.217 21.2744 47.2063 21.1949 47.1889C21.0744 47.1623 20.8824 47.0168 20.8294 46.9114C20.7685 46.7913 20.7725 46.5644 20.8387 46.4403C20.8904 46.3416 21.0546 46.2015 21.2333 46.1001C21.3181 46.052 21.4717 46.0547 21.6571 46.1067C21.7246 46.1254 21.722 46.1174 21.62 46.004C21.4942 45.8626 21.4545 45.7745 21.4545 45.6344C21.4545 45.5129 21.5194 45.4435 21.6319 45.4435C21.7259 45.4435 21.7246 45.4502 21.6557 45.1793C21.5922 44.9311 21.6412 44.783 21.7789 44.803C21.8332 44.811 21.8517 44.8471 21.8968 45.0326C21.9603 45.2994 22.1682 45.7344 22.3139 45.9053C22.4648 46.0827 22.727 46.2789 22.9972 46.415C23.5573 46.6979 24.9266 47.0729 26.5607 47.3918C28.9482 47.8575 30.7531 48.0003 32.1462 47.8295C32.8216 47.7467 33.2678 47.5733 33.5631 47.2757C34.0094 46.826 34.0955 46.4043 34.0928 44.6816C34.0915 43.9717 34.0783 43.5127 34.0531 43.3178C34.0068 42.9589 34.0094 42.8708 34.073 42.8001C34.1233 42.7441 34.2451 42.728 34.3087 42.7694C34.3285 42.7814 34.3643 42.8401 34.3881 42.9002L34.4332 43.0083L34.5047 42.9362C34.5748 42.8655 34.6212 42.8508 34.739 42.8628C34.841 42.8735 34.9258 42.9496 35.0012 43.099C35.0423 43.1791 35.0926 43.2445 35.1151 43.2445C35.1376 43.2445 35.1959 43.2792 35.2449 43.3205C35.3786 43.4339 35.4184 43.6168 35.4276 44.1772C35.4356 44.6002 35.4422 44.6616 35.4899 44.7043C35.617 44.8204 35.6369 44.9085 35.6514 45.4569C35.6766 46.3763 35.6673 46.6392 35.6024 46.8353C35.5521 46.9861 35.5468 47.0448 35.568 47.2463C35.5905 47.4572 35.568 47.8735 35.5203 48.1297C35.5031 48.2204 35.5044 48.2204 35.6501 48.2351C35.7309 48.2431 35.817 48.2658 35.8421 48.2872C35.907 48.3419 35.8977 48.482 35.8262 48.5327C35.7825 48.5634 35.7706 48.5927 35.7852 48.6394C35.8209 48.7515 35.7759 48.8409 35.6554 48.9036C35.5918 48.9357 35.515 48.9624 35.4833 48.9624C35.4515 48.9624 35.417 48.9757 35.4078 48.9917C35.3972 49.0104 35.4515 49.0211 35.5521 49.0211C35.8593 49.0211 36.0328 49.1652 36.0328 49.4227C36.0328 49.5188 36.0129 49.5695 35.9428 49.6496C35.8421 49.7657 35.711 49.8124 35.4886 49.8124C35.4051 49.8124 35.1363 49.8391 34.8913 49.8698C34.0703 49.9765 33.044 50.0045 31.7993 49.9565H31.798Z" fill="#484A3A"/>
<path d="M33.1023 39.0958C32.7064 39.0237 32.3965 38.8783 32.2906 38.7168C32.2244 38.6141 32.2296 38.4566 32.3038 38.3512C32.5938 37.9402 34.0994 37.9109 34.6649 38.3058C34.7986 38.3992 34.8781 38.5527 34.8529 38.6688C34.8132 38.8516 34.5523 39.0157 34.171 39.0971C33.918 39.1505 33.3923 39.1519 33.1023 39.0985V39.0958ZM24.5823 38.2751C23.9453 38.1751 23.6077 37.9736 23.6077 37.696C23.6077 37.4345 23.9281 37.261 24.5187 37.201C25.2073 37.1316 25.8893 37.2877 26.1369 37.5719C26.219 37.6667 26.2296 37.696 26.2164 37.7974C26.1846 38.0323 25.9065 38.1991 25.4205 38.2738C25.0842 38.3245 24.8988 38.3259 24.581 38.2751H24.5823Z" fill="#D7726C"/>
<path d="M33.3711 50.9854C32.6454 50.9587 32.0442 50.92 31.0405 50.8373C27.2717 50.525 23.6844 49.7297 21.7828 48.785C21.2081 48.4994 20.9711 48.2712 20.8241 47.8642C20.7672 47.7054 20.7513 47.6867 20.6599 47.6667C20.5235 47.6387 20.0177 47.4332 19.7568 47.3024C19.4641 47.1543 19.243 47.0062 18.6881 46.5885C18.4246 46.3897 17.981 46.0761 17.7029 45.8906C17.1401 45.517 16.825 45.2355 16.6012 44.9085C16.2966 44.4628 16.1205 44.0105 16.0384 43.466C15.9854 43.1138 15.9867 42.213 16.0384 41.9168C16.0741 41.7126 16.2714 41.0935 16.531 40.3729C16.584 40.2261 16.6568 39.9059 16.7098 39.5963C16.8885 38.5434 17.0819 37.8949 17.4381 37.1623C17.6897 36.6446 17.9426 36.2549 18.3981 35.6811C18.5954 35.4316 18.7941 35.1687 18.8391 35.098C18.9649 34.8992 19.194 34.2854 19.3423 33.7476C19.6985 32.4652 20.0071 31.7327 20.5182 30.9587C20.8466 30.4596 21.0558 30.2154 21.5418 29.7617C22.49 28.8757 22.4556 28.9264 23.2938 27.1797C23.5268 26.6953 23.7374 26.3737 24.0777 25.9854C24.3585 25.6651 24.622 25.4343 25.2351 24.9726C25.7966 24.5496 26.2508 24.1132 26.7368 23.5301C27.4214 22.7068 28.0808 22.1864 28.8449 21.8634C29.3521 21.6499 29.7997 21.5685 30.7346 21.5218C31.6629 21.4751 32.5646 21.3604 33.3963 21.1815C33.9365 21.0655 34.8489 20.9801 35.2435 21.0081C35.5786 21.0321 36.0593 21.1242 36.3201 21.2136C36.9425 21.4271 37.5424 21.8287 37.9794 22.3278C38.1661 22.5413 38.5885 23.1818 38.8971 23.7209C39.1646 24.188 39.4824 24.6643 39.9419 25.2875C40.5391 26.0988 40.8927 26.6606 41.2303 27.3385C41.5667 28.015 41.7322 28.454 42.0805 29.5949C42.5916 31.271 42.8366 31.8821 43.4312 32.963C44.1622 34.2907 44.4893 35.1114 44.717 36.1762C45.0123 37.564 45.1063 37.8389 45.6784 38.9985C46.2836 40.2261 46.4332 40.6518 46.563 41.5178C46.6649 42.193 46.7365 42.576 46.8239 42.8949C46.9616 43.3993 46.9986 43.6569 46.9986 44.1266C46.9986 45.146 46.7523 45.7305 46.0121 46.4738C45.6678 46.8194 45.2798 47.1036 44.6707 47.4546C44.2946 47.6721 44.1238 47.7935 43.704 48.1458C43.0061 48.7316 42.642 48.9438 41.6726 49.3307C40.8622 49.6537 40.751 49.7057 40.2478 49.9926C39.0388 50.6838 38.1754 50.8333 36.5347 50.6344L36.0076 50.5704L35.8593 50.6731C35.4514 50.956 34.784 51.0401 33.3698 50.9867L33.3711 50.9854ZM34.7695 49.4989C34.9708 49.3908 35.0542 49.2827 35.123 49.0465C35.1787 48.8543 35.1906 48.6849 35.233 47.4532C35.319 44.9819 35.2475 44.216 34.8794 43.6969C34.5404 43.2178 33.9869 42.971 32.5236 42.6467C31.0709 42.3238 29.4805 42.0783 27.0241 41.798C24.1863 41.4738 22.7429 41.5859 22.3284 42.1623C22.2529 42.2664 22.1007 42.6707 22.053 42.8949C22.0159 43.0657 21.947 43.8984 21.9153 44.5602C21.8888 45.106 21.8888 45.4596 21.9153 46.0708C21.9497 46.8848 21.9921 47.1997 22.0834 47.3598C22.3377 47.7988 24.3638 48.462 26.8917 48.9317C28.4556 49.2226 29.9069 49.4041 31.4748 49.5055C31.8588 49.5309 32.2389 49.5549 32.3183 49.5616C32.3978 49.5669 32.9553 49.5709 33.5552 49.5683C34.6225 49.5656 34.649 49.5643 34.7668 49.5002L34.7695 49.4989ZM38.5064 49.248C38.9116 49.1412 39.1328 49.0452 39.6426 48.7543C40.1365 48.4727 40.31 48.3926 41.1244 48.0697C42.005 47.7201 42.2275 47.5893 42.9346 47.0062C43.4193 46.6059 43.5358 46.5232 43.9304 46.295C44.4667 45.9854 44.8216 45.7372 45.0534 45.505C45.5089 45.05 45.6095 44.7898 45.6082 44.0799C45.6069 43.6622 45.6016 43.6155 45.4904 43.1858C45.4268 42.9363 45.3394 42.5146 45.297 42.2491C45.0891 40.9387 45.056 40.8359 44.4919 39.691C43.8377 38.366 43.7013 37.9803 43.4219 36.6473C43.1915 35.5504 42.9148 34.8485 42.2301 33.6155C41.6276 32.532 41.2913 31.6926 40.7708 29.9793C40.4914 29.0572 40.3405 28.6475 40.0915 28.1258C39.7366 27.3852 39.4731 26.9595 38.7964 26.0348C38.3025 25.3609 38.0628 24.9993 37.7344 24.4375C37.1385 23.4153 36.7426 22.9109 36.3228 22.6374C36.1387 22.5173 35.6421 22.3398 35.3296 22.2811C35.0012 22.2197 34.1471 22.2931 33.4108 22.4439C32.8189 22.5653 32.0866 22.6601 31.4881 22.6934C30.5902 22.7428 29.9877 22.8562 29.4805 23.0737C28.9191 23.3139 28.3126 23.7783 27.8835 24.2947C27.1552 25.1727 26.7844 25.5277 25.9488 26.1509C25.5026 26.4831 25.0351 26.9355 24.818 27.2437C24.7412 27.3518 24.5213 27.7748 24.328 28.1818C23.6685 29.5749 23.4951 29.8218 22.5668 30.6731C22.0358 31.1602 21.8146 31.4364 21.6465 31.8234C21.465 32.2411 21.277 32.8002 21.0413 33.6142C20.8175 34.3908 20.6652 34.7778 20.403 35.2421C20.2057 35.5904 19.7157 36.2936 19.3277 36.782C18.8484 37.3878 18.4922 38.0364 18.2816 38.6889C18.1426 39.1199 18.1042 39.2894 17.9757 40.0647C17.9042 40.493 17.8486 40.7305 17.7705 40.944C17.5626 41.5085 17.3798 42.0823 17.3467 42.2731C17.303 42.524 17.3295 43.1912 17.3957 43.4794C17.4791 43.8503 17.6963 44.228 17.9426 44.4295C18.0088 44.4842 18.2604 44.6523 18.5001 44.8044C18.7398 44.9566 19.1331 45.2234 19.3728 45.3996C20.0984 45.9293 20.1514 45.964 20.3858 46.0574C20.5103 46.1068 20.6215 46.1482 20.6347 46.1482C20.648 46.1482 20.6665 45.7425 20.6771 45.2461C20.7049 43.9531 20.8069 42.7188 20.9287 42.2184C21.0466 41.7353 21.2995 41.2736 21.5895 41.0161C21.763 40.8613 22.1722 40.6611 22.5138 40.5611C23.0091 40.4169 23.2779 40.3902 24.2737 40.3902C25.6482 40.3889 26.6136 40.449 27.9246 40.6184C29.3296 40.7999 30.3121 40.9333 30.6445 40.9881C32.2521 41.2536 34.5417 41.8447 35.1694 42.157C35.7984 42.4692 36.1837 42.9323 36.3453 43.5728C36.4274 43.8957 36.5439 44.7311 36.5823 45.2808C36.6287 45.928 36.5995 47.5213 36.5241 48.4607C36.491 48.8704 36.4711 49.2146 36.4804 49.2226C36.4896 49.232 36.675 49.2613 36.8948 49.2894C37.4735 49.3614 38.1317 49.3441 38.5025 49.2453L38.5064 49.248ZM28.7721 38.809C28.4874 38.7142 28.2609 38.5781 28.0755 38.39C27.8491 38.1605 27.7538 38.003 27.6928 37.7615C27.6372 37.5413 27.6571 37.4105 27.7643 37.2891C27.8279 37.217 27.8743 37.1957 27.9895 37.185C28.1298 37.1717 28.1418 37.177 28.3218 37.3238C28.694 37.628 29.1614 37.7828 29.4938 37.7134C29.5759 37.6961 29.7891 37.6147 29.9679 37.532C30.3651 37.3478 30.4671 37.3398 30.6075 37.4826C30.6975 37.5733 30.7068 37.5987 30.7068 37.7521C30.7068 37.9683 30.6339 38.1218 30.4393 38.3179C30.0844 38.6755 29.7374 38.8237 29.2223 38.8383C28.9998 38.845 28.8489 38.8343 28.7708 38.809H28.7721ZM33.2824 37.4786C32.9884 37.4386 32.5779 37.2331 32.362 37.0155C32.1568 36.81 32.0217 36.5792 31.9396 36.291C31.8218 35.88 31.8562 35.4837 32.0482 35.0687C32.5143 34.0625 33.8928 33.8397 34.6808 34.643C35.2793 35.2528 35.323 36.1882 34.784 36.8741C34.4503 37.2998 33.8253 37.5506 33.2824 37.4773V37.4786ZM34.0438 36.6513C34.2716 36.5111 34.208 36.1535 33.9471 36.1042C33.6743 36.0521 33.4823 36.359 33.6505 36.5752C33.7591 36.7153 33.8968 36.742 34.0438 36.6526V36.6513ZM33.3552 35.9347C33.4995 35.8386 33.6174 35.6118 33.6174 35.4316C33.6161 35.0139 33.1619 34.715 32.7884 34.8858C32.3316 35.0953 32.3064 35.7305 32.7447 35.9667C32.9262 36.0641 33.1791 36.0508 33.3552 35.9347ZM24.7001 36.5912C24.4975 36.5578 24.238 36.4604 24.0512 36.3483C23.6103 36.0815 23.2885 35.4917 23.2885 34.9526C23.2885 34.3761 23.5997 33.793 24.0526 33.5181C24.3306 33.3499 24.4948 33.3019 24.8524 33.2846C25.1477 33.2712 25.202 33.2766 25.4231 33.3459C25.9303 33.5047 26.3183 33.8797 26.4918 34.3774C26.7646 35.1581 26.4097 36.0388 25.6747 36.4137C25.3649 36.5712 24.9941 36.6392 24.7001 36.5912ZM25.492 35.7479C25.5714 35.6958 25.6257 35.537 25.6006 35.4356C25.5542 35.2488 25.2761 35.1474 25.1331 35.2648C24.818 35.5224 25.1517 35.9707 25.492 35.7479ZM24.7133 35.0873C24.7809 35.0513 24.8789 34.9646 24.9292 34.8939C25.0113 34.7791 25.0206 34.7457 25.0206 34.5549C25.0206 34.3641 25.01 34.3267 24.9411 34.228C24.7239 33.9144 24.3333 33.861 24.0539 34.1092C23.8526 34.2867 23.7917 34.5603 23.9003 34.7884C23.9784 34.9512 24.0181 34.9953 24.1651 35.0807C24.3333 35.1781 24.5412 35.1807 24.7133 35.09V35.0873Z" fill="black"/>
</g>
<defs>
<clipPath id="clip0_7412_102724">
<rect width="31" height="30" fill="white" transform="translate(16 21)"/>
</clipPath>
</defs>
</svg>
